%TF.GenerationSoftware,KiCad,Pcbnew,10.0.6*%
%TF.CreationDate,2026-10-07T14:51:24-05:00*%
%TF.ProjectId,light_controller,6c696768-745f-4636-9f6e-74726f6c6c65,rev?*%
%TF.SameCoordinates,Original*%
%TF.FileFunction,Copper,L2,Bot*%
%TF.FilePolarity,Positive*%
%FSLAX46Y46*%
G04 Gerber Fmt 4.6, Leading zero omitted, Abs format (unit mm)*
G04 Created by KiCad (PCBNEW 10.0.6) date 2026-10-07 14:51:24*
%MOMM*%
%LPD*%
G01*
G04 APERTURE LIST*
%TA.AperFunction,ComponentPad*%
%ADD10R,1.370000X1.370000*%
%TD*%
%TA.AperFunction,ComponentPad*%
%ADD11C,1.370000*%
%TD*%
%TA.AperFunction,ComponentPad*%
%ADD12R,1.778000X1.778000*%
%TD*%
%TA.AperFunction,ComponentPad*%
%ADD13C,1.778000*%
%TD*%
%TA.AperFunction,ComponentPad*%
%ADD14C,2.032000*%
%TD*%
%TA.AperFunction,ComponentPad*%
%ADD15C,2.540000*%
%TD*%
%TA.AperFunction,ViaPad*%
%ADD16C,0.600000*%
%TD*%
%TA.AperFunction,Conductor*%
%ADD17C,0.200000*%
%TD*%
G04 APERTURE END LIST*
D10*
%TO.P,J3,1,1_1*%
%TO.N,GND*%
X143500000Y-71700000D03*
D11*
%TO.P,J3,2,2_2*%
%TO.N,Net-(U4-Y)*%
X140500000Y-71700000D03*
%TO.P,J3,3,3_3*%
%TO.N,+5V*%
X137500000Y-71700000D03*
%TD*%
D12*
%TO.P,J1,1*%
%TO.N,CAN_HIGH*%
X111500000Y-54380000D03*
D13*
%TO.P,J1,2*%
%TO.N,CAN_LOW*%
X114040000Y-55650000D03*
%TO.P,J1,3*%
%TO.N,+5V*%
X111500000Y-56920000D03*
%TO.P,J1,4*%
%TO.N,GND*%
X114040000Y-58190000D03*
%TO.P,J1,5*%
%TO.N,+5V*%
X111500000Y-59460000D03*
%TO.P,J1,6*%
%TO.N,GND*%
X114040000Y-60730000D03*
%TO.P,J1,7*%
%TO.N,5V_CAN*%
X111500000Y-62000000D03*
%TO.P,J1,8*%
%TO.N,GND_CAN*%
X114040000Y-63270000D03*
D14*
%TO.P,J1,9*%
%TO.N,N/C*%
X101035200Y-65124200D03*
%TO.P,J1,10*%
X101035200Y-62609600D03*
%TO.P,J1,11*%
X101035200Y-55015000D03*
%TO.P,J1,12*%
X101035200Y-52500400D03*
D15*
%TO.P,J1,SH*%
X109036200Y-50951000D03*
X109036200Y-66699000D03*
%TD*%
D10*
%TO.P,J4,1,1_1*%
%TO.N,GND*%
X130000000Y-71500000D03*
D11*
%TO.P,J4,2,2_2*%
%TO.N,Net-(U5-Y)*%
X127000000Y-71500000D03*
%TO.P,J4,3,3_3*%
%TO.N,+5V*%
X124000000Y-71500000D03*
%TD*%
D16*
%TO.N,GND*%
X121500000Y-67000000D03*
X129500000Y-47000000D03*
X101000000Y-47000000D03*
X143500000Y-67000000D03*
X146000000Y-45100000D03*
X150500000Y-40500000D03*
X125000000Y-37000000D03*
X142000000Y-36500000D03*
X136000000Y-55000000D03*
X152500000Y-57000000D03*
X130500000Y-70000000D03*
X143500000Y-70000000D03*
X133000000Y-37500000D03*
X137000000Y-41000000D03*
X142000000Y-57000000D03*
X129000000Y-63500000D03*
X141980541Y-52650000D03*
X115000000Y-59500000D03*
X133000000Y-64000000D03*
X110000000Y-46000000D03*
X140000000Y-65000000D03*
X134500000Y-48000000D03*
%TO.N,+3.3V*%
X142740476Y-52900000D03*
X145000000Y-51500000D03*
X143000000Y-40500000D03*
X137500000Y-57500000D03*
X132000000Y-57500000D03*
X150500000Y-48000000D03*
X137500000Y-54000000D03*
X131000000Y-54000000D03*
X147500000Y-45000000D03*
X147500000Y-38500000D03*
X145500000Y-41500000D03*
%TO.N,+5V*%
X103500000Y-34000000D03*
X103500000Y-31500000D03*
X110000000Y-36000000D03*
%TO.N,SWCLK*%
X145000000Y-43000000D03*
X142500000Y-45400000D03*
%TD*%
%TO.N,+3.3V*%
D17*
X142740476Y-52900000D02*
X143600000Y-52900000D01*
X145500000Y-40500000D02*
X147500000Y-38500000D01*
X143600000Y-52900000D02*
X145000000Y-51500000D01*
X141640476Y-54000000D02*
X142740476Y-52900000D01*
X145500000Y-41500000D02*
X145500000Y-40500000D01*
X145000000Y-47500000D02*
X145000000Y-51500000D01*
X143000000Y-40500000D02*
X144500000Y-40500000D01*
X147500000Y-45000000D02*
X145000000Y-47500000D01*
X137500000Y-54000000D02*
X141640476Y-54000000D01*
X132000000Y-57500000D02*
X131000000Y-56500000D01*
X150500000Y-48000000D02*
X147500000Y-45000000D01*
X137500000Y-54000000D02*
X137500000Y-57500000D01*
X131000000Y-56500000D02*
X131000000Y-54000000D01*
X144500000Y-40500000D02*
X145500000Y-41500000D01*
%TO.N,+5V*%
X111000000Y-52502000D02*
X110311000Y-53191000D01*
X110000000Y-36000000D02*
X111000000Y-37000000D01*
X110311000Y-55731000D02*
X111500000Y-56920000D01*
X111000000Y-37000000D02*
X111000000Y-52502000D01*
X110311000Y-53191000D02*
X110311000Y-55731000D01*
X103500000Y-34000000D02*
X103500000Y-31500000D01*
%TO.N,SWCLK*%
X144000000Y-43500000D02*
X142500000Y-45000000D01*
X144500000Y-43500000D02*
X144000000Y-43500000D01*
X142500000Y-45000000D02*
X142500000Y-45400000D01*
X145000000Y-43000000D02*
X144500000Y-43500000D01*
%TD*%
%TA.AperFunction,Conductor*%
%TO.N,GND*%
G36*
X113625792Y-60901571D02*
G01*
X113684311Y-61002930D01*
X113767070Y-61085689D01*
X113868429Y-61144208D01*
X113955905Y-61167647D01*
X113250360Y-61873191D01*
X113250360Y-61873192D01*
X113286394Y-61899372D01*
X113329060Y-61954701D01*
X113335039Y-62024315D01*
X113302434Y-62086110D01*
X113286394Y-62100008D01*
X113134807Y-62210142D01*
X113134802Y-62210146D01*
X113094222Y-62250726D01*
X113032899Y-62284211D01*
X112963207Y-62279225D01*
X112907274Y-62237353D01*
X112882858Y-62171889D01*
X112884069Y-62143644D01*
X112889500Y-62109358D01*
X112889500Y-61890638D01*
X112855286Y-61674624D01*
X112850942Y-61661256D01*
X112848945Y-61591415D01*
X112881191Y-61535254D01*
X113602352Y-60814093D01*
X113625792Y-60901571D01*
G37*
%TD.AperFunction*%
%TA.AperFunction,Conductor*%
G36*
X113625792Y-58361571D02*
G01*
X113684311Y-58462930D01*
X113767070Y-58545689D01*
X113868429Y-58604208D01*
X113955905Y-58627647D01*
X113250360Y-59333191D01*
X113286819Y-59359680D01*
X113329486Y-59415010D01*
X113335465Y-59484623D01*
X113302860Y-59546418D01*
X113286819Y-59560318D01*
X113250360Y-59586806D01*
X113250360Y-59586807D01*
X113955905Y-60292352D01*
X113868429Y-60315792D01*
X113767070Y-60374311D01*
X113684311Y-60457070D01*
X113625792Y-60558429D01*
X113602352Y-60645905D01*
X112881191Y-59924744D01*
X112847706Y-59863421D01*
X112850942Y-59798742D01*
X112855286Y-59785375D01*
X112868116Y-59704367D01*
X112889500Y-59569361D01*
X112889500Y-59350638D01*
X112882324Y-59305331D01*
X112855286Y-59134624D01*
X112850942Y-59121256D01*
X112848945Y-59051415D01*
X112881191Y-58995254D01*
X113602352Y-58274093D01*
X113625792Y-58361571D01*
G37*
%TD.AperFunction*%
%TA.AperFunction,Conductor*%
G36*
X113072083Y-56651692D02*
G01*
X113094223Y-56669274D01*
X113134801Y-56709852D01*
X113286395Y-56819991D01*
X113329060Y-56875319D01*
X113335039Y-56944932D01*
X113302434Y-57006728D01*
X113286394Y-57020626D01*
X113250360Y-57046805D01*
X113250360Y-57046807D01*
X113955905Y-57752352D01*
X113868429Y-57775792D01*
X113767070Y-57834311D01*
X113684311Y-57917070D01*
X113625792Y-58018429D01*
X113602352Y-58105905D01*
X112881191Y-57384744D01*
X112847706Y-57323421D01*
X112850942Y-57258742D01*
X112855286Y-57245375D01*
X112868116Y-57164367D01*
X112889500Y-57029361D01*
X112889500Y-56810641D01*
X112884069Y-56776355D01*
X112893023Y-56707061D01*
X112938018Y-56653609D01*
X113004769Y-56632968D01*
X113072083Y-56651692D01*
G37*
%TD.AperFunction*%
%TA.AperFunction,Conductor*%
G36*
X157002562Y-21000605D02*
G01*
X157449036Y-21019072D01*
X157459209Y-21019915D01*
X157900114Y-21074873D01*
X157910194Y-21076555D01*
X158345043Y-21167733D01*
X158354951Y-21170242D01*
X158780786Y-21297019D01*
X158790454Y-21300338D01*
X159091114Y-21417656D01*
X159204349Y-21461841D01*
X159213734Y-21465958D01*
X159612854Y-21661076D01*
X159621868Y-21665953D01*
X160003545Y-21893383D01*
X160012124Y-21898989D01*
X160373693Y-22157143D01*
X160381770Y-22163430D01*
X160720796Y-22450571D01*
X160728336Y-22457512D01*
X161042487Y-22771663D01*
X161049428Y-22779203D01*
X161336565Y-23118224D01*
X161342860Y-23126312D01*
X161601010Y-23487875D01*
X161606616Y-23496454D01*
X161834046Y-23878131D01*
X161838923Y-23887145D01*
X162034041Y-24286265D01*
X162038158Y-24295650D01*
X162199656Y-24709533D01*
X162202984Y-24719226D01*
X162329753Y-25145035D01*
X162332269Y-25154970D01*
X162423441Y-25589791D01*
X162425128Y-25599900D01*
X162480082Y-26040769D01*
X162480928Y-26050983D01*
X162499394Y-26497437D01*
X162499500Y-26502561D01*
X162499500Y-71997438D01*
X162499394Y-72002562D01*
X162480928Y-72449016D01*
X162480082Y-72459230D01*
X162425128Y-72900099D01*
X162423441Y-72910208D01*
X162332269Y-73345029D01*
X162329753Y-73354964D01*
X162202984Y-73780773D01*
X162199656Y-73790466D01*
X162038158Y-74204349D01*
X162034041Y-74213734D01*
X161838923Y-74612854D01*
X161834046Y-74621868D01*
X161606616Y-75003545D01*
X161601010Y-75012124D01*
X161342860Y-75373687D01*
X161336565Y-75381775D01*
X161049428Y-75720796D01*
X161042487Y-75728336D01*
X160728336Y-76042487D01*
X160720796Y-76049428D01*
X160381775Y-76336565D01*
X160373687Y-76342860D01*
X160012124Y-76601010D01*
X160003545Y-76606616D01*
X159621868Y-76834046D01*
X159612854Y-76838923D01*
X159213734Y-77034041D01*
X159204349Y-77038158D01*
X158790466Y-77199656D01*
X158780773Y-77202984D01*
X158354964Y-77329753D01*
X158345029Y-77332269D01*
X157910208Y-77423441D01*
X157900099Y-77425128D01*
X157459230Y-77480082D01*
X157449016Y-77480928D01*
X157002563Y-77499394D01*
X156997439Y-77499500D01*
X141775443Y-77499500D01*
X141708404Y-77479815D01*
X141662649Y-77427011D01*
X141652705Y-77357853D01*
X141681730Y-77294297D01*
X141687762Y-77287819D01*
X141818911Y-77156670D01*
X141818914Y-77156665D01*
X141818919Y-77156661D01*
X141958611Y-76974612D01*
X142073344Y-76775888D01*
X142161158Y-76563887D01*
X142220548Y-76342238D01*
X142250500Y-76114734D01*
X142250500Y-75885266D01*
X142220548Y-75657762D01*
X142161158Y-75436113D01*
X142073344Y-75224112D01*
X141958611Y-75025388D01*
X141958608Y-75025385D01*
X141958607Y-75025382D01*
X141818918Y-74843338D01*
X141818911Y-74843330D01*
X141656670Y-74681089D01*
X141656661Y-74681081D01*
X141474617Y-74541392D01*
X141275890Y-74426657D01*
X141275876Y-74426650D01*
X141063887Y-74338842D01*
X140989230Y-74318838D01*
X140842238Y-74279452D01*
X140804215Y-74274446D01*
X140614741Y-74249500D01*
X140614734Y-74249500D01*
X140385266Y-74249500D01*
X140385258Y-74249500D01*
X140168715Y-74278009D01*
X140157762Y-74279452D01*
X140064076Y-74304554D01*
X139936112Y-74338842D01*
X139724123Y-74426650D01*
X139724109Y-74426657D01*
X139525382Y-74541392D01*
X139343338Y-74681081D01*
X139181081Y-74843338D01*
X139041392Y-75025382D01*
X138926657Y-75224109D01*
X138926650Y-75224123D01*
X138838842Y-75436112D01*
X138779453Y-75657759D01*
X138779451Y-75657770D01*
X138749500Y-75885258D01*
X138749500Y-76114741D01*
X138753121Y-76142240D01*
X138779452Y-76342238D01*
X138779453Y-76342240D01*
X138838842Y-76563887D01*
X138926650Y-76775876D01*
X138926657Y-76775890D01*
X139041392Y-76974617D01*
X139181081Y-77156661D01*
X139181089Y-77156670D01*
X139312238Y-77287819D01*
X139345723Y-77349142D01*
X139340739Y-77418834D01*
X139298867Y-77474767D01*
X139233403Y-77499184D01*
X139224557Y-77499500D01*
X128020153Y-77499500D01*
X127953114Y-77479815D01*
X127907359Y-77427011D01*
X127897415Y-77357853D01*
X127926440Y-77294297D01*
X127958150Y-77268114D01*
X127974612Y-77258611D01*
X128156661Y-77118919D01*
X128156665Y-77118914D01*
X128156670Y-77118911D01*
X128318911Y-76956670D01*
X128318914Y-76956665D01*
X128318919Y-76956661D01*
X128458611Y-76774612D01*
X128573344Y-76575888D01*
X128661158Y-76363887D01*
X128720548Y-76142238D01*
X128750500Y-75914734D01*
X128750500Y-75685266D01*
X128720548Y-75457762D01*
X128661158Y-75236113D01*
X128573344Y-75024112D01*
X128458611Y-74825388D01*
X128458608Y-74825385D01*
X128458607Y-74825382D01*
X128318918Y-74643338D01*
X128318911Y-74643330D01*
X128156670Y-74481089D01*
X128156661Y-74481081D01*
X127974617Y-74341392D01*
X127775890Y-74226657D01*
X127775876Y-74226650D01*
X127563887Y-74138842D01*
X127342238Y-74079452D01*
X127304215Y-74074446D01*
X127114741Y-74049500D01*
X127114734Y-74049500D01*
X126885266Y-74049500D01*
X126885258Y-74049500D01*
X126668715Y-74078009D01*
X126657762Y-74079452D01*
X126564076Y-74104554D01*
X126436112Y-74138842D01*
X126224123Y-74226650D01*
X126224109Y-74226657D01*
X126025382Y-74341392D01*
X125843338Y-74481081D01*
X125681081Y-74643338D01*
X125541392Y-74825382D01*
X125426657Y-75024109D01*
X125426650Y-75024123D01*
X125338842Y-75236112D01*
X125279453Y-75457759D01*
X125279451Y-75457770D01*
X125249500Y-75685258D01*
X125249500Y-75914741D01*
X125266319Y-76042487D01*
X125279452Y-76142238D01*
X125279453Y-76142240D01*
X125338842Y-76363887D01*
X125426650Y-76575876D01*
X125426657Y-76575890D01*
X125541392Y-76774617D01*
X125681081Y-76956661D01*
X125681089Y-76956670D01*
X125843330Y-77118911D01*
X125843338Y-77118918D01*
X126025382Y-77258607D01*
X126025385Y-77258608D01*
X126025388Y-77258611D01*
X126041848Y-77268114D01*
X126090063Y-77318680D01*
X126103286Y-77387287D01*
X126077318Y-77452152D01*
X126020403Y-77492680D01*
X125979847Y-77499500D01*
X103752561Y-77499500D01*
X103747437Y-77499394D01*
X103300983Y-77480928D01*
X103290769Y-77480082D01*
X102849900Y-77425128D01*
X102839791Y-77423441D01*
X102404970Y-77332269D01*
X102395035Y-77329753D01*
X101969226Y-77202984D01*
X101959533Y-77199656D01*
X101545650Y-77038158D01*
X101536265Y-77034041D01*
X101137145Y-76838923D01*
X101128131Y-76834046D01*
X100746454Y-76606616D01*
X100737875Y-76601010D01*
X100376312Y-76342860D01*
X100368224Y-76336565D01*
X100029203Y-76049428D01*
X100021663Y-76042487D01*
X99707512Y-75728336D01*
X99700571Y-75720796D01*
X99647181Y-75657759D01*
X99413430Y-75381770D01*
X99407139Y-75373687D01*
X99308913Y-75236113D01*
X99148989Y-75012124D01*
X99143383Y-75003545D01*
X98915953Y-74621868D01*
X98911076Y-74612854D01*
X98715958Y-74213734D01*
X98711841Y-74204349D01*
X98643924Y-74030293D01*
X98550338Y-73790454D01*
X98547019Y-73780786D01*
X98420242Y-73354951D01*
X98417733Y-73345043D01*
X98326555Y-72910194D01*
X98324873Y-72900114D01*
X98322205Y-72878711D01*
X101149500Y-72878711D01*
X101149500Y-73121288D01*
X101181161Y-73361785D01*
X101243947Y-73596104D01*
X101280202Y-73683631D01*
X101336776Y-73820212D01*
X101458064Y-74030289D01*
X101458066Y-74030292D01*
X101458067Y-74030293D01*
X101605733Y-74222736D01*
X101605739Y-74222743D01*
X101777256Y-74394260D01*
X101777262Y-74394265D01*
X101969711Y-74541936D01*
X102179788Y-74663224D01*
X102403900Y-74756054D01*
X102638211Y-74818838D01*
X102818586Y-74842584D01*
X102878711Y-74850500D01*
X102878712Y-74850500D01*
X103121289Y-74850500D01*
X103175690Y-74843338D01*
X103361789Y-74818838D01*
X103596100Y-74756054D01*
X103820212Y-74663224D01*
X104030289Y-74541936D01*
X104222738Y-74394265D01*
X104394265Y-74222738D01*
X104541936Y-74030289D01*
X104663224Y-73820212D01*
X104756054Y-73596100D01*
X104818838Y-73361789D01*
X104850500Y-73121288D01*
X104850500Y-72878712D01*
X104818838Y-72638211D01*
X104756054Y-72403900D01*
X104663224Y-72179788D01*
X104541936Y-71969711D01*
X104472515Y-71879239D01*
X104394266Y-71777263D01*
X104394260Y-71777256D01*
X104222743Y-71605739D01*
X104222736Y-71605733D01*
X104085206Y-71500203D01*
X104030293Y-71458067D01*
X104030292Y-71458066D01*
X104030289Y-71458064D01*
X103941322Y-71406699D01*
X122814500Y-71406699D01*
X122814500Y-71593300D01*
X122843691Y-71777606D01*
X122843691Y-71777609D01*
X122901352Y-71955071D01*
X122901354Y-71955074D01*
X122986069Y-72121338D01*
X123095751Y-72272302D01*
X123227698Y-72404249D01*
X123378662Y-72513931D01*
X123544926Y-72598646D01*
X123544928Y-72598647D01*
X123722391Y-72656308D01*
X123722392Y-72656308D01*
X123722395Y-72656309D01*
X123906699Y-72685500D01*
X123906700Y-72685500D01*
X124093300Y-72685500D01*
X124093301Y-72685500D01*
X124277605Y-72656309D01*
X124277608Y-72656308D01*
X124277609Y-72656308D01*
X124455071Y-72598647D01*
X124455071Y-72598646D01*
X124455074Y-72598646D01*
X124621338Y-72513931D01*
X124772302Y-72404249D01*
X124904249Y-72272302D01*
X125013931Y-72121338D01*
X125098646Y-71955074D01*
X125151209Y-71793301D01*
X125156308Y-71777609D01*
X125156308Y-71777608D01*
X125156309Y-71777605D01*
X125185500Y-71593301D01*
X125185500Y-71406699D01*
X125814500Y-71406699D01*
X125814500Y-71593300D01*
X125843691Y-71777606D01*
X125843691Y-71777609D01*
X125901352Y-71955071D01*
X125901354Y-71955074D01*
X125986069Y-72121338D01*
X126095751Y-72272302D01*
X126227698Y-72404249D01*
X126378662Y-72513931D01*
X126544926Y-72598646D01*
X126544928Y-72598647D01*
X126722391Y-72656308D01*
X126722392Y-72656308D01*
X126722395Y-72656309D01*
X126906699Y-72685500D01*
X126906700Y-72685500D01*
X127093300Y-72685500D01*
X127093301Y-72685500D01*
X127277605Y-72656309D01*
X127277608Y-72656308D01*
X127277609Y-72656308D01*
X127455071Y-72598647D01*
X127455071Y-72598646D01*
X127455074Y-72598646D01*
X127621338Y-72513931D01*
X127772302Y-72404249D01*
X127904249Y-72272302D01*
X128013931Y-72121338D01*
X128098646Y-71955074D01*
X128151209Y-71793301D01*
X128156308Y-71777609D01*
X128156308Y-71777608D01*
X128156309Y-71777605D01*
X128185500Y-71593301D01*
X128185500Y-71406699D01*
X128156309Y-71222395D01*
X128156308Y-71222391D01*
X128156308Y-71222390D01*
X128098647Y-71044928D01*
X128098645Y-71044925D01*
X128094473Y-71036737D01*
X128013931Y-70878662D01*
X128013929Y-70878659D01*
X128013928Y-70878657D01*
X127983473Y-70836740D01*
X127983472Y-70836739D01*
X127932916Y-70767155D01*
X128815000Y-70767155D01*
X128815000Y-71250000D01*
X129555440Y-71250000D01*
X129524755Y-71303147D01*
X129490000Y-71432857D01*
X129490000Y-71567143D01*
X129524755Y-71696853D01*
X129555440Y-71750000D01*
X128815000Y-71750000D01*
X128815000Y-72232844D01*
X128821401Y-72292372D01*
X128821403Y-72292379D01*
X128871645Y-72427086D01*
X128871649Y-72427093D01*
X128957809Y-72542187D01*
X128957812Y-72542190D01*
X129072906Y-72628350D01*
X129072913Y-72628354D01*
X129207620Y-72678596D01*
X129207627Y-72678598D01*
X129267155Y-72684999D01*
X129267172Y-72685000D01*
X129750000Y-72685000D01*
X129750000Y-71944560D01*
X129803147Y-71975245D01*
X129932857Y-72010000D01*
X130067143Y-72010000D01*
X130196853Y-71975245D01*
X130250000Y-71944560D01*
X130250000Y-72685000D01*
X130732828Y-72685000D01*
X130732844Y-72684999D01*
X130792372Y-72678598D01*
X130792379Y-72678596D01*
X130927086Y-72628354D01*
X130927093Y-72628350D01*
X131042187Y-72542190D01*
X131042190Y-72542187D01*
X131128350Y-72427093D01*
X131128354Y-72427086D01*
X131178596Y-72292379D01*
X131178598Y-72292372D01*
X131184999Y-72232844D01*
X131185000Y-72232827D01*
X131185000Y-71750000D01*
X130444560Y-71750000D01*
X130475245Y-71696853D01*
X130499401Y-71606699D01*
X136314500Y-71606699D01*
X136314500Y-71793300D01*
X136343691Y-71977606D01*
X136343691Y-71977609D01*
X136401352Y-72155071D01*
X136401354Y-72155074D01*
X136486069Y-72321338D01*
X136595751Y-72472302D01*
X136727698Y-72604249D01*
X136878662Y-72713931D01*
X137044926Y-72798646D01*
X137044928Y-72798647D01*
X137222391Y-72856308D01*
X137222392Y-72856308D01*
X137222395Y-72856309D01*
X137406699Y-72885500D01*
X137406700Y-72885500D01*
X137593300Y-72885500D01*
X137593301Y-72885500D01*
X137777605Y-72856309D01*
X137777608Y-72856308D01*
X137777609Y-72856308D01*
X137955071Y-72798647D01*
X137955071Y-72798646D01*
X137955074Y-72798646D01*
X138121338Y-72713931D01*
X138272302Y-72604249D01*
X138404249Y-72472302D01*
X138513931Y-72321338D01*
X138598646Y-72155074D01*
X138604125Y-72138211D01*
X138656308Y-71977609D01*
X138656308Y-71977608D01*
X138656309Y-71977605D01*
X138685500Y-71793301D01*
X138685500Y-71606699D01*
X139314500Y-71606699D01*
X139314500Y-71793300D01*
X139343691Y-71977606D01*
X139343691Y-71977609D01*
X139401352Y-72155071D01*
X139401354Y-72155074D01*
X139486069Y-72321338D01*
X139595751Y-72472302D01*
X139727698Y-72604249D01*
X139878662Y-72713931D01*
X140044926Y-72798646D01*
X140044928Y-72798647D01*
X140222391Y-72856308D01*
X140222392Y-72856308D01*
X140222395Y-72856309D01*
X140406699Y-72885500D01*
X140406700Y-72885500D01*
X140593300Y-72885500D01*
X140593301Y-72885500D01*
X140777605Y-72856309D01*
X140777608Y-72856308D01*
X140777609Y-72856308D01*
X140955071Y-72798647D01*
X140955071Y-72798646D01*
X140955074Y-72798646D01*
X141121338Y-72713931D01*
X141272302Y-72604249D01*
X141404249Y-72472302D01*
X141513931Y-72321338D01*
X141598646Y-72155074D01*
X141604125Y-72138211D01*
X141656308Y-71977609D01*
X141656308Y-71977608D01*
X141656309Y-71977605D01*
X141685500Y-71793301D01*
X141685500Y-71606699D01*
X141656309Y-71422395D01*
X141656308Y-71422391D01*
X141656308Y-71422390D01*
X141598647Y-71244928D01*
X141598645Y-71244925D01*
X141598146Y-71243946D01*
X141513931Y-71078662D01*
X141513929Y-71078659D01*
X141513928Y-71078657D01*
X141483473Y-71036740D01*
X141483472Y-71036739D01*
X141432916Y-70967155D01*
X142315000Y-70967155D01*
X142315000Y-71450000D01*
X143055440Y-71450000D01*
X143024755Y-71503147D01*
X142990000Y-71632857D01*
X142990000Y-71767143D01*
X143024755Y-71896853D01*
X143055440Y-71950000D01*
X142315000Y-71950000D01*
X142315000Y-72432844D01*
X142321401Y-72492372D01*
X142321403Y-72492379D01*
X142371645Y-72627086D01*
X142371649Y-72627093D01*
X142457809Y-72742187D01*
X142457812Y-72742190D01*
X142572906Y-72828350D01*
X142572913Y-72828354D01*
X142707620Y-72878596D01*
X142707627Y-72878598D01*
X142767155Y-72884999D01*
X142767172Y-72885000D01*
X143250000Y-72885000D01*
X143250000Y-72144560D01*
X143303147Y-72175245D01*
X143432857Y-72210000D01*
X143567143Y-72210000D01*
X143696853Y-72175245D01*
X143750000Y-72144560D01*
X143750000Y-72885000D01*
X144232828Y-72885000D01*
X144232844Y-72884999D01*
X144292372Y-72878598D01*
X144292379Y-72878596D01*
X144427086Y-72828354D01*
X144427093Y-72828350D01*
X144542187Y-72742190D01*
X144542190Y-72742187D01*
X144628350Y-72627093D01*
X144628354Y-72627086D01*
X144678596Y-72492379D01*
X144678598Y-72492372D01*
X144684999Y-72432844D01*
X144685000Y-72432827D01*
X144685000Y-72378711D01*
X155649500Y-72378711D01*
X155649500Y-72621288D01*
X155680440Y-72856309D01*
X155681162Y-72861789D01*
X155685666Y-72878598D01*
X155743947Y-73096104D01*
X155754379Y-73121288D01*
X155836776Y-73320212D01*
X155958064Y-73530289D01*
X155958066Y-73530292D01*
X155958067Y-73530293D01*
X156105733Y-73722736D01*
X156105739Y-73722743D01*
X156277256Y-73894260D01*
X156277262Y-73894265D01*
X156469711Y-74041936D01*
X156679788Y-74163224D01*
X156903900Y-74256054D01*
X157138211Y-74318838D01*
X157309506Y-74341389D01*
X157378711Y-74350500D01*
X157378712Y-74350500D01*
X157621289Y-74350500D01*
X157690494Y-74341389D01*
X157861789Y-74318838D01*
X158096100Y-74256054D01*
X158320212Y-74163224D01*
X158530289Y-74041936D01*
X158722738Y-73894265D01*
X158894265Y-73722738D01*
X159041936Y-73530289D01*
X159163224Y-73320212D01*
X159256054Y-73096100D01*
X159318838Y-72861789D01*
X159350500Y-72621288D01*
X159350500Y-72378712D01*
X159318838Y-72138211D01*
X159256054Y-71903900D01*
X159163224Y-71679788D01*
X159041936Y-71469711D01*
X158894265Y-71277262D01*
X158894260Y-71277256D01*
X158722743Y-71105739D01*
X158722736Y-71105733D01*
X158530293Y-70958067D01*
X158530292Y-70958066D01*
X158530289Y-70958064D01*
X158320212Y-70836776D01*
X158320118Y-70836737D01*
X158096104Y-70743947D01*
X157861785Y-70681161D01*
X157621289Y-70649500D01*
X157621288Y-70649500D01*
X157378712Y-70649500D01*
X157378711Y-70649500D01*
X157138214Y-70681161D01*
X156903895Y-70743947D01*
X156679794Y-70836773D01*
X156679785Y-70836777D01*
X156469706Y-70958067D01*
X156277263Y-71105733D01*
X156277256Y-71105739D01*
X156105739Y-71277256D01*
X156105733Y-71277263D01*
X155958067Y-71469706D01*
X155836777Y-71679785D01*
X155836773Y-71679794D01*
X155743947Y-71903895D01*
X155681161Y-72138214D01*
X155649500Y-72378711D01*
X144685000Y-72378711D01*
X144685000Y-71950000D01*
X143944560Y-71950000D01*
X143975245Y-71896853D01*
X144010000Y-71767143D01*
X144010000Y-71632857D01*
X143975245Y-71503147D01*
X143944560Y-71450000D01*
X144685000Y-71450000D01*
X144685000Y-70967172D01*
X144684999Y-70967155D01*
X144678598Y-70907627D01*
X144678596Y-70907620D01*
X144628354Y-70772913D01*
X144628350Y-70772906D01*
X144542190Y-70657812D01*
X144542187Y-70657809D01*
X144427093Y-70571649D01*
X144427086Y-70571645D01*
X144292379Y-70521403D01*
X144292372Y-70521401D01*
X144232844Y-70515000D01*
X143750000Y-70515000D01*
X143750000Y-71255439D01*
X143696853Y-71224755D01*
X143567143Y-71190000D01*
X143432857Y-71190000D01*
X143303147Y-71224755D01*
X143250000Y-71255439D01*
X143250000Y-70515000D01*
X142767155Y-70515000D01*
X142707627Y-70521401D01*
X142707620Y-70521403D01*
X142572913Y-70571645D01*
X142572906Y-70571649D01*
X142457812Y-70657809D01*
X142457809Y-70657812D01*
X142371649Y-70772906D01*
X142371645Y-70772913D01*
X142321403Y-70907620D01*
X142321401Y-70907627D01*
X142315000Y-70967155D01*
X141432916Y-70967155D01*
X141404249Y-70927698D01*
X141272302Y-70795751D01*
X141121338Y-70686069D01*
X140955074Y-70601354D01*
X140955071Y-70601352D01*
X140777608Y-70543691D01*
X140636872Y-70521401D01*
X140593301Y-70514500D01*
X140406699Y-70514500D01*
X140345264Y-70524230D01*
X140222393Y-70543691D01*
X140222390Y-70543691D01*
X140044928Y-70601352D01*
X140044925Y-70601354D01*
X139878661Y-70686069D01*
X139799001Y-70743946D01*
X139727698Y-70795751D01*
X139727696Y-70795753D01*
X139727695Y-70795753D01*
X139595753Y-70927695D01*
X139595753Y-70927696D01*
X139595751Y-70927698D01*
X139550486Y-70990000D01*
X139486069Y-71078661D01*
X139401354Y-71244925D01*
X139401352Y-71244928D01*
X139343691Y-71422390D01*
X139343691Y-71422393D01*
X139314500Y-71606699D01*
X138685500Y-71606699D01*
X138656309Y-71422395D01*
X138656308Y-71422391D01*
X138656308Y-71422390D01*
X138598647Y-71244928D01*
X138598645Y-71244925D01*
X138598147Y-71243946D01*
X138513931Y-71078662D01*
X138404249Y-70927698D01*
X138272302Y-70795751D01*
X138121338Y-70686069D01*
X137955074Y-70601354D01*
X137955071Y-70601352D01*
X137777608Y-70543691D01*
X137636872Y-70521401D01*
X137593301Y-70514500D01*
X137406699Y-70514500D01*
X137345264Y-70524230D01*
X137222393Y-70543691D01*
X137222390Y-70543691D01*
X137044928Y-70601352D01*
X137044925Y-70601354D01*
X136878661Y-70686069D01*
X136799001Y-70743946D01*
X136727698Y-70795751D01*
X136727696Y-70795753D01*
X136727695Y-70795753D01*
X136595753Y-70927695D01*
X136595753Y-70927696D01*
X136595751Y-70927698D01*
X136550486Y-70990000D01*
X136486069Y-71078661D01*
X136401354Y-71244925D01*
X136401352Y-71244928D01*
X136343691Y-71422390D01*
X136343691Y-71422393D01*
X136314500Y-71606699D01*
X130499401Y-71606699D01*
X130510000Y-71567143D01*
X130510000Y-71432857D01*
X130475245Y-71303147D01*
X130444560Y-71250000D01*
X131185000Y-71250000D01*
X131185000Y-70767172D01*
X131184999Y-70767155D01*
X131178598Y-70707627D01*
X131178596Y-70707620D01*
X131128354Y-70572913D01*
X131128350Y-70572906D01*
X131042190Y-70457812D01*
X131042187Y-70457809D01*
X130927093Y-70371649D01*
X130927086Y-70371645D01*
X130792379Y-70321403D01*
X130792372Y-70321401D01*
X130732844Y-70315000D01*
X130250000Y-70315000D01*
X130250000Y-71055439D01*
X130196853Y-71024755D01*
X130067143Y-70990000D01*
X129932857Y-70990000D01*
X129803147Y-71024755D01*
X129750000Y-71055439D01*
X129750000Y-70315000D01*
X129267155Y-70315000D01*
X129207627Y-70321401D01*
X129207620Y-70321403D01*
X129072913Y-70371645D01*
X129072906Y-70371649D01*
X128957812Y-70457809D01*
X128957809Y-70457812D01*
X128871649Y-70572906D01*
X128871645Y-70572913D01*
X128821403Y-70707620D01*
X128821401Y-70707627D01*
X128815000Y-70767155D01*
X127932916Y-70767155D01*
X127904249Y-70727698D01*
X127772302Y-70595751D01*
X127621338Y-70486069D01*
X127455074Y-70401354D01*
X127455071Y-70401352D01*
X127277608Y-70343691D01*
X127136872Y-70321401D01*
X127093301Y-70314500D01*
X126906699Y-70314500D01*
X126845264Y-70324230D01*
X126722393Y-70343691D01*
X126722390Y-70343691D01*
X126544928Y-70401352D01*
X126544925Y-70401354D01*
X126378661Y-70486069D01*
X126330029Y-70521403D01*
X126227698Y-70595751D01*
X126227696Y-70595753D01*
X126227695Y-70595753D01*
X126095753Y-70727695D01*
X126095753Y-70727696D01*
X126095751Y-70727698D01*
X126062900Y-70772913D01*
X125986069Y-70878661D01*
X125901354Y-71044925D01*
X125901352Y-71044928D01*
X125843691Y-71222390D01*
X125843691Y-71222393D01*
X125814500Y-71406699D01*
X125185500Y-71406699D01*
X125156309Y-71222395D01*
X125156308Y-71222391D01*
X125156308Y-71222390D01*
X125098647Y-71044928D01*
X125098645Y-71044925D01*
X125094474Y-71036737D01*
X125013931Y-70878662D01*
X124904249Y-70727698D01*
X124772302Y-70595751D01*
X124621338Y-70486069D01*
X124455074Y-70401354D01*
X124455071Y-70401352D01*
X124277608Y-70343691D01*
X124136872Y-70321401D01*
X124093301Y-70314500D01*
X123906699Y-70314500D01*
X123845264Y-70324230D01*
X123722393Y-70343691D01*
X123722390Y-70343691D01*
X123544928Y-70401352D01*
X123544925Y-70401354D01*
X123378661Y-70486069D01*
X123330029Y-70521403D01*
X123227698Y-70595751D01*
X123227696Y-70595753D01*
X123227695Y-70595753D01*
X123095753Y-70727695D01*
X123095753Y-70727696D01*
X123095751Y-70727698D01*
X123062900Y-70772913D01*
X122986069Y-70878661D01*
X122901354Y-71044925D01*
X122901352Y-71044928D01*
X122843691Y-71222390D01*
X122843691Y-71222393D01*
X122814500Y-71406699D01*
X103941322Y-71406699D01*
X103820212Y-71336776D01*
X103820205Y-71336773D01*
X103596104Y-71243947D01*
X103478944Y-71212554D01*
X103361789Y-71181162D01*
X103361788Y-71181161D01*
X103361785Y-71181161D01*
X103121289Y-71149500D01*
X103121288Y-71149500D01*
X102878712Y-71149500D01*
X102878711Y-71149500D01*
X102638214Y-71181161D01*
X102403895Y-71243947D01*
X102179794Y-71336773D01*
X102179785Y-71336777D01*
X101969706Y-71458067D01*
X101777263Y-71605733D01*
X101777256Y-71605739D01*
X101605739Y-71777256D01*
X101605733Y-71777263D01*
X101458067Y-71969706D01*
X101336777Y-72179785D01*
X101336773Y-72179794D01*
X101243947Y-72403895D01*
X101181161Y-72638214D01*
X101149500Y-72878711D01*
X98322205Y-72878711D01*
X98269915Y-72459209D01*
X98269072Y-72449036D01*
X98250606Y-72002562D01*
X98250500Y-71997438D01*
X98250500Y-62490249D01*
X99518700Y-62490249D01*
X99518700Y-62728950D01*
X99556041Y-62964711D01*
X99556041Y-62964712D01*
X99556042Y-62964715D01*
X99629805Y-63191734D01*
X99738173Y-63404419D01*
X99878479Y-63597533D01*
X100047267Y-63766321D01*
X100047630Y-63766585D01*
X100047734Y-63766719D01*
X100050972Y-63769485D01*
X100050391Y-63770165D01*
X100090293Y-63821914D01*
X100096271Y-63891528D01*
X100063663Y-63953322D01*
X100047636Y-63967210D01*
X100047267Y-63967479D01*
X100047263Y-63967482D01*
X99878481Y-64136264D01*
X99878481Y-64136265D01*
X99878479Y-64136267D01*
X99851641Y-64173206D01*
X99738173Y-64329380D01*
X99629806Y-64542063D01*
X99556041Y-64769087D01*
X99556041Y-64769088D01*
X99518700Y-65004849D01*
X99518700Y-65243550D01*
X99556041Y-65479311D01*
X99556041Y-65479312D01*
X99556042Y-65479315D01*
X99629805Y-65706334D01*
X99738173Y-65919019D01*
X99878479Y-66112133D01*
X100047267Y-66280921D01*
X100240381Y-66421227D01*
X100453066Y-66529595D01*
X100680085Y-66603358D01*
X100915849Y-66640700D01*
X100915850Y-66640700D01*
X101154550Y-66640700D01*
X101154551Y-66640700D01*
X101390315Y-66603358D01*
X101453134Y-66582947D01*
X107265700Y-66582947D01*
X107265700Y-66815052D01*
X107295994Y-67045148D01*
X107356062Y-67269328D01*
X107444877Y-67483745D01*
X107444885Y-67483762D01*
X107560920Y-67684743D01*
X107560921Y-67684745D01*
X107702209Y-67868875D01*
X107702215Y-67868882D01*
X107866317Y-68032984D01*
X107866324Y-68032990D01*
X108050454Y-68174278D01*
X108050456Y-68174279D01*
X108251437Y-68290314D01*
X108251440Y-68290315D01*
X108251448Y-68290320D01*
X108465870Y-68379137D01*
X108690051Y-68439206D01*
X108920155Y-68469500D01*
X108920162Y-68469500D01*
X109152238Y-68469500D01*
X109152245Y-68469500D01*
X109382349Y-68439206D01*
X109606530Y-68379137D01*
X109820952Y-68290320D01*
X110021948Y-68174276D01*
X110206077Y-68032989D01*
X110370189Y-67868877D01*
X110511476Y-67684748D01*
X110627520Y-67483752D01*
X110716337Y-67269330D01*
X110776406Y-67045149D01*
X110806700Y-66815045D01*
X110806700Y-66582955D01*
X110776406Y-66352851D01*
X110716337Y-66128670D01*
X110627520Y-65914248D01*
X110627514Y-65914237D01*
X110511479Y-65713256D01*
X110511478Y-65713254D01*
X110370190Y-65529124D01*
X110370184Y-65529117D01*
X110206082Y-65365015D01*
X110206075Y-65365009D01*
X110021945Y-65223721D01*
X110021943Y-65223720D01*
X109820962Y-65107685D01*
X109820954Y-65107681D01*
X109820952Y-65107680D01*
X109606530Y-65018863D01*
X109606531Y-65018863D01*
X109606528Y-65018862D01*
X109464403Y-64980780D01*
X109382349Y-64958794D01*
X109353586Y-64955007D01*
X109152252Y-64928500D01*
X109152245Y-64928500D01*
X108920155Y-64928500D01*
X108920147Y-64928500D01*
X108690051Y-64958794D01*
X108465871Y-65018862D01*
X108251454Y-65107677D01*
X108251437Y-65107685D01*
X108050456Y-65223720D01*
X108050454Y-65223721D01*
X107866324Y-65365009D01*
X107866317Y-65365015D01*
X107702215Y-65529117D01*
X107702209Y-65529124D01*
X107560921Y-65713254D01*
X107560920Y-65713256D01*
X107444885Y-65914237D01*
X107444877Y-65914254D01*
X107356062Y-66128671D01*
X107295994Y-66352851D01*
X107265700Y-66582947D01*
X101453134Y-66582947D01*
X101617334Y-66529595D01*
X101830019Y-66421227D01*
X102023133Y-66280921D01*
X102191921Y-66112133D01*
X102332227Y-65919019D01*
X102440595Y-65706334D01*
X102514358Y-65479315D01*
X102551700Y-65243551D01*
X102551700Y-65004849D01*
X102514358Y-64769085D01*
X102440595Y-64542066D01*
X102376884Y-64417026D01*
X103273900Y-64417026D01*
X103273900Y-64662973D01*
X103306000Y-64906791D01*
X103369654Y-65144350D01*
X103463765Y-65371554D01*
X103463767Y-65371558D01*
X103586733Y-65584541D01*
X103586736Y-65584546D01*
X103586738Y-65584548D01*
X103736445Y-65779651D01*
X103736451Y-65779658D01*
X103910341Y-65953548D01*
X103910347Y-65953553D01*
X104105459Y-66103267D01*
X104318442Y-66226233D01*
X104545654Y-66320347D01*
X104783206Y-66383999D01*
X105027034Y-66416100D01*
X105027041Y-66416100D01*
X105272959Y-66416100D01*
X105272966Y-66416100D01*
X105516794Y-66383999D01*
X105754346Y-66320347D01*
X105981558Y-66226233D01*
X106194541Y-66103267D01*
X106389653Y-65953553D01*
X106563553Y-65779653D01*
X106713267Y-65584541D01*
X106836233Y-65371558D01*
X106930347Y-65144346D01*
X106993999Y-64906794D01*
X107026100Y-64662966D01*
X107026100Y-64417034D01*
X106993999Y-64173206D01*
X106930347Y-63935654D01*
X106836233Y-63708442D01*
X106713267Y-63495459D01*
X106624182Y-63379361D01*
X106563554Y-63300348D01*
X106563548Y-63300341D01*
X106389658Y-63126451D01*
X106389651Y-63126445D01*
X106194548Y-62976738D01*
X106194546Y-62976736D01*
X106194541Y-62976733D01*
X105981558Y-62853767D01*
X105981554Y-62853765D01*
X105754350Y-62759654D01*
X105516791Y-62696000D01*
X105272973Y-62663900D01*
X105272966Y-62663900D01*
X105027034Y-62663900D01*
X105027026Y-62663900D01*
X104783208Y-62696000D01*
X104545649Y-62759654D01*
X104318445Y-62853765D01*
X104318441Y-62853767D01*
X104229359Y-62905199D01*
X104105459Y-62976733D01*
X104105456Y-62976734D01*
X104105451Y-62976738D01*
X103910348Y-63126445D01*
X103910341Y-63126451D01*
X103736451Y-63300341D01*
X103736445Y-63300348D01*
X103586738Y-63495451D01*
X103463767Y-63708441D01*
X103463765Y-63708445D01*
X103369654Y-63935649D01*
X103306000Y-64173208D01*
X103273900Y-64417026D01*
X102376884Y-64417026D01*
X102332227Y-64329381D01*
X102191921Y-64136267D01*
X102023133Y-63967479D01*
X102022780Y-63967222D01*
X102022679Y-63967092D01*
X102019428Y-63964315D01*
X102020011Y-63963632D01*
X101980111Y-63911898D01*
X101974126Y-63842286D01*
X102006726Y-63780488D01*
X102022774Y-63766581D01*
X102023133Y-63766321D01*
X102191921Y-63597533D01*
X102332227Y-63404419D01*
X102440595Y-63191734D01*
X102514358Y-62964715D01*
X102551700Y-62728951D01*
X102551700Y-62490249D01*
X102514358Y-62254485D01*
X102440595Y-62027466D01*
X102332227Y-61814781D01*
X102191921Y-61621667D01*
X102023133Y-61452879D01*
X101830019Y-61312573D01*
X101617334Y-61204205D01*
X101390315Y-61130442D01*
X101390313Y-61130441D01*
X101390311Y-61130441D01*
X101225698Y-61104368D01*
X101154551Y-61093100D01*
X100915849Y-61093100D01*
X100861195Y-61101756D01*
X100680088Y-61130441D01*
X100680087Y-61130441D01*
X100453063Y-61204206D01*
X100240380Y-61312573D01*
X100130202Y-61392622D01*
X100047267Y-61452879D01*
X100047265Y-61452881D01*
X100047264Y-61452881D01*
X99878481Y-61621664D01*
X99878481Y-61621665D01*
X99878479Y-61621667D01*
X99840003Y-61674625D01*
X99738173Y-61814780D01*
X99629806Y-62027463D01*
X99556041Y-62254487D01*
X99556041Y-62254488D01*
X99518700Y-62490249D01*
X98250500Y-62490249D01*
X98250500Y-52381049D01*
X99518700Y-52381049D01*
X99518700Y-52619751D01*
X99526104Y-52666498D01*
X99556041Y-52855511D01*
X99556041Y-52855512D01*
X99556042Y-52855515D01*
X99629805Y-53082534D01*
X99738173Y-53295219D01*
X99878479Y-53488333D01*
X100047267Y-53657121D01*
X100047630Y-53657385D01*
X100047734Y-53657519D01*
X100050972Y-53660285D01*
X100050391Y-53660965D01*
X100090293Y-53712714D01*
X100096271Y-53782328D01*
X100063663Y-53844122D01*
X100047636Y-53858010D01*
X100047267Y-53858279D01*
X100047263Y-53858282D01*
X99878481Y-54027064D01*
X99878481Y-54027065D01*
X99878479Y-54027067D01*
X99840862Y-54078842D01*
X99738173Y-54220180D01*
X99629806Y-54432863D01*
X99556041Y-54659887D01*
X99556041Y-54659888D01*
X99518700Y-54895649D01*
X99518700Y-55134350D01*
X99556041Y-55370111D01*
X99556041Y-55370112D01*
X99556042Y-55370115D01*
X99611450Y-55540644D01*
X99629806Y-55597136D01*
X99712461Y-55759356D01*
X99738173Y-55809819D01*
X99878479Y-56002933D01*
X100047267Y-56171721D01*
X100240381Y-56312027D01*
X100453066Y-56420395D01*
X100680085Y-56494158D01*
X100915849Y-56531500D01*
X100915850Y-56531500D01*
X101154550Y-56531500D01*
X101154551Y-56531500D01*
X101390315Y-56494158D01*
X101617334Y-56420395D01*
X101830019Y-56312027D01*
X102023133Y-56171721D01*
X102191921Y-56002933D01*
X102332227Y-55809819D01*
X102440595Y-55597134D01*
X102514358Y-55370115D01*
X102551700Y-55134351D01*
X102551700Y-54895649D01*
X102514358Y-54659885D01*
X102440595Y-54432866D01*
X102332227Y-54220181D01*
X102191921Y-54027067D01*
X102023133Y-53858279D01*
X102022780Y-53858022D01*
X102022679Y-53857892D01*
X102019428Y-53855115D01*
X102020011Y-53854432D01*
X101980111Y-53802698D01*
X101974126Y-53733086D01*
X102006726Y-53671288D01*
X102022774Y-53657381D01*
X102023133Y-53657121D01*
X102191921Y-53488333D01*
X102332227Y-53295219D01*
X102440595Y-53082534D01*
X102471627Y-52987026D01*
X103273900Y-52987026D01*
X103273900Y-53232973D01*
X103306000Y-53476791D01*
X103369654Y-53714350D01*
X103455317Y-53921158D01*
X103463767Y-53941558D01*
X103586733Y-54154541D01*
X103586736Y-54154546D01*
X103586738Y-54154548D01*
X103736445Y-54349651D01*
X103736451Y-54349658D01*
X103910341Y-54523548D01*
X103910348Y-54523554D01*
X104078095Y-54652270D01*
X104105459Y-54673267D01*
X104318442Y-54796233D01*
X104545654Y-54890347D01*
X104783206Y-54953999D01*
X105027034Y-54986100D01*
X105027041Y-54986100D01*
X105272959Y-54986100D01*
X105272966Y-54986100D01*
X105516794Y-54953999D01*
X105754346Y-54890347D01*
X105981558Y-54796233D01*
X106194541Y-54673267D01*
X106389653Y-54523553D01*
X106563553Y-54349653D01*
X106713267Y-54154541D01*
X106836233Y-53941558D01*
X106930347Y-53714346D01*
X106993999Y-53476794D01*
X107026100Y-53232966D01*
X107026100Y-52987034D01*
X106993999Y-52743206D01*
X106930347Y-52505654D01*
X106836233Y-52278442D01*
X106713267Y-52065459D01*
X106614500Y-51936743D01*
X106563554Y-51870348D01*
X106563548Y-51870341D01*
X106389658Y-51696451D01*
X106389651Y-51696445D01*
X106194548Y-51546738D01*
X106194546Y-51546736D01*
X106194541Y-51546733D01*
X105981558Y-51423767D01*
X105981554Y-51423765D01*
X105754350Y-51329654D01*
X105516791Y-51266000D01*
X105272973Y-51233900D01*
X105272966Y-51233900D01*
X105027034Y-51233900D01*
X105027026Y-51233900D01*
X104783208Y-51266000D01*
X104545649Y-51329654D01*
X104318445Y-51423765D01*
X104318441Y-51423767D01*
X104211796Y-51485339D01*
X104105459Y-51546733D01*
X104105456Y-51546734D01*
X104105451Y-51546738D01*
X103910348Y-51696445D01*
X103910341Y-51696451D01*
X103736451Y-51870341D01*
X103736445Y-51870348D01*
X103586738Y-52065451D01*
X103586734Y-52065456D01*
X103586733Y-52065459D01*
X103549318Y-52130263D01*
X103463767Y-52278441D01*
X103463765Y-52278445D01*
X103369654Y-52505649D01*
X103306000Y-52743208D01*
X103273900Y-52987026D01*
X102471627Y-52987026D01*
X102514358Y-52855515D01*
X102551700Y-52619751D01*
X102551700Y-52381049D01*
X102514358Y-52145285D01*
X102440595Y-51918266D01*
X102332227Y-51705581D01*
X102191921Y-51512467D01*
X102023133Y-51343679D01*
X101830019Y-51203373D01*
X101617334Y-51095005D01*
X101390315Y-51021242D01*
X101390313Y-51021241D01*
X101390311Y-51021241D01*
X101225698Y-50995168D01*
X101154551Y-50983900D01*
X100915849Y-50983900D01*
X100861195Y-50992556D01*
X100680088Y-51021241D01*
X100680087Y-51021241D01*
X100453063Y-51095006D01*
X100240380Y-51203373D01*
X100130202Y-51283422D01*
X100047267Y-51343679D01*
X100047265Y-51343681D01*
X100047264Y-51343681D01*
X99878481Y-51512464D01*
X99878481Y-51512465D01*
X99878479Y-51512467D01*
X99853580Y-51546738D01*
X99738173Y-51705580D01*
X99629806Y-51918263D01*
X99556041Y-52145287D01*
X99556041Y-52145288D01*
X99526061Y-52334574D01*
X99518700Y-52381049D01*
X98250500Y-52381049D01*
X98250500Y-50834947D01*
X107265700Y-50834947D01*
X107265700Y-51067052D01*
X107283648Y-51203373D01*
X107295994Y-51297149D01*
X107304704Y-51329654D01*
X107356062Y-51521328D01*
X107444877Y-51735745D01*
X107444885Y-51735762D01*
X107560920Y-51936743D01*
X107560921Y-51936745D01*
X107702209Y-52120875D01*
X107702215Y-52120882D01*
X107866317Y-52284984D01*
X107866324Y-52284990D01*
X108050454Y-52426278D01*
X108050456Y-52426279D01*
X108251437Y-52542314D01*
X108251440Y-52542315D01*
X108251448Y-52542320D01*
X108465870Y-52631137D01*
X108690051Y-52691206D01*
X108920155Y-52721500D01*
X108920162Y-52721500D01*
X109152238Y-52721500D01*
X109152245Y-52721500D01*
X109382349Y-52691206D01*
X109606530Y-52631137D01*
X109739210Y-52576178D01*
X109808677Y-52568710D01*
X109871156Y-52599985D01*
X109906809Y-52660073D01*
X109904316Y-52729899D01*
X109874343Y-52778420D01*
X109830481Y-52822282D01*
X109830480Y-52822284D01*
X109802518Y-52870716D01*
X109751423Y-52959215D01*
X109710499Y-53111943D01*
X109710499Y-53111945D01*
X109710499Y-53280046D01*
X109710500Y-53280059D01*
X109710500Y-55644330D01*
X109710499Y-55644348D01*
X109710499Y-55810054D01*
X109710498Y-55810054D01*
X109710499Y-55810057D01*
X109751423Y-55962785D01*
X109754372Y-55967893D01*
X109758690Y-55975373D01*
X109758692Y-55975375D01*
X109830477Y-56099712D01*
X109830481Y-56099717D01*
X109949349Y-56218585D01*
X109949355Y-56218590D01*
X110135290Y-56404525D01*
X110168775Y-56465848D01*
X110165541Y-56530522D01*
X110144713Y-56594625D01*
X110110500Y-56810638D01*
X110110500Y-57029361D01*
X110144714Y-57245376D01*
X110212297Y-57453380D01*
X110212298Y-57453383D01*
X110311595Y-57648260D01*
X110440142Y-57825193D01*
X110594806Y-57979857D01*
X110745969Y-58089682D01*
X110788635Y-58145011D01*
X110794614Y-58214625D01*
X110762009Y-58276420D01*
X110745969Y-58290318D01*
X110594806Y-58400142D01*
X110440142Y-58554806D01*
X110311595Y-58731739D01*
X110212298Y-58926616D01*
X110212297Y-58926619D01*
X110144714Y-59134623D01*
X110110500Y-59350638D01*
X110110500Y-59569361D01*
X110144714Y-59785376D01*
X110212297Y-59993380D01*
X110212298Y-59993383D01*
X110311595Y-60188260D01*
X110440142Y-60365193D01*
X110594806Y-60519857D01*
X110745969Y-60629682D01*
X110788635Y-60685011D01*
X110794614Y-60754625D01*
X110762009Y-60816420D01*
X110745969Y-60830318D01*
X110594806Y-60940142D01*
X110440142Y-61094806D01*
X110311595Y-61271739D01*
X110212298Y-61466616D01*
X110212297Y-61466619D01*
X110144714Y-61674623D01*
X110110500Y-61890638D01*
X110110500Y-62109361D01*
X110144714Y-62325376D01*
X110212297Y-62533380D01*
X110212298Y-62533383D01*
X110311595Y-62728260D01*
X110440142Y-62905193D01*
X110594806Y-63059857D01*
X110733522Y-63160638D01*
X110771743Y-63188407D01*
X110899132Y-63253315D01*
X110966616Y-63287701D01*
X110966619Y-63287702D01*
X111070621Y-63321493D01*
X111174625Y-63355286D01*
X111274672Y-63371132D01*
X111390639Y-63389500D01*
X111390644Y-63389500D01*
X111609361Y-63389500D01*
X111714082Y-63372912D01*
X111825375Y-63355286D01*
X112033383Y-63287701D01*
X112228257Y-63188407D01*
X112352544Y-63098108D01*
X112405193Y-63059857D01*
X112405195Y-63059854D01*
X112405199Y-63059852D01*
X112445777Y-63019273D01*
X112507098Y-62985789D01*
X112576789Y-62990773D01*
X112632723Y-63032643D01*
X112657141Y-63098108D01*
X112655931Y-63126352D01*
X112650500Y-63160643D01*
X112650500Y-63379361D01*
X112684714Y-63595376D01*
X112752297Y-63803380D01*
X112752298Y-63803383D01*
X112819692Y-63935649D01*
X112835781Y-63967225D01*
X112851595Y-63998260D01*
X112980142Y-64175193D01*
X113134806Y-64329857D01*
X113300374Y-64450147D01*
X113311743Y-64458407D01*
X113439132Y-64523315D01*
X113506616Y-64557701D01*
X113506619Y-64557702D01*
X113610621Y-64591493D01*
X113714625Y-64625286D01*
X113814672Y-64641132D01*
X113930639Y-64659500D01*
X113930644Y-64659500D01*
X114149361Y-64659500D01*
X114254082Y-64642912D01*
X114365375Y-64625286D01*
X114573383Y-64557701D01*
X114768257Y-64458407D01*
X114867601Y-64386229D01*
X114945193Y-64329857D01*
X114945195Y-64329854D01*
X114945199Y-64329852D01*
X115099852Y-64175199D01*
X115099854Y-64175195D01*
X115099857Y-64175193D01*
X115156229Y-64097601D01*
X115228407Y-63998257D01*
X115327701Y-63803383D01*
X115395286Y-63595375D01*
X115412912Y-63484082D01*
X115429500Y-63379361D01*
X115429500Y-63160638D01*
X115402595Y-62990773D01*
X115395286Y-62944625D01*
X115327701Y-62736617D01*
X115327701Y-62736616D01*
X115290650Y-62663900D01*
X115228407Y-62541743D01*
X115190995Y-62490249D01*
X115099857Y-62364806D01*
X114945197Y-62210146D01*
X114945192Y-62210142D01*
X114793605Y-62100008D01*
X114750939Y-62044678D01*
X114744960Y-61975065D01*
X114777565Y-61913270D01*
X114793605Y-61899372D01*
X114829638Y-61873191D01*
X114829639Y-61873191D01*
X114124094Y-61167647D01*
X114211571Y-61144208D01*
X114312930Y-61085689D01*
X114395689Y-61002930D01*
X114454208Y-60901571D01*
X114477647Y-60814095D01*
X115183191Y-61519639D01*
X115183191Y-61519638D01*
X115227978Y-61457995D01*
X115327237Y-61263191D01*
X115327238Y-61263188D01*
X115394797Y-61055259D01*
X115429000Y-60839316D01*
X115429000Y-60620683D01*
X115394797Y-60404740D01*
X115327238Y-60196811D01*
X115327237Y-60196808D01*
X115227980Y-60002008D01*
X115183191Y-59940360D01*
X114477647Y-60645904D01*
X114454208Y-60558429D01*
X114395689Y-60457070D01*
X114312930Y-60374311D01*
X114211571Y-60315792D01*
X114124092Y-60292352D01*
X114829638Y-59586807D01*
X114829638Y-59586806D01*
X114793180Y-59560318D01*
X114750513Y-59504988D01*
X114744534Y-59435375D01*
X114777139Y-59373580D01*
X114793179Y-59359680D01*
X114829638Y-59333190D01*
X114124094Y-58627647D01*
X114211571Y-58604208D01*
X114312930Y-58545689D01*
X114395689Y-58462930D01*
X114454208Y-58361571D01*
X114477647Y-58274095D01*
X115183191Y-58979639D01*
X115183191Y-58979638D01*
X115227978Y-58917995D01*
X115327237Y-58723191D01*
X115327238Y-58723188D01*
X115394797Y-58515259D01*
X115429000Y-58299316D01*
X115429000Y-58080683D01*
X115394797Y-57864740D01*
X115327238Y-57656811D01*
X115327237Y-57656808D01*
X115227980Y-57462008D01*
X115183191Y-57400360D01*
X114477647Y-58105904D01*
X114454208Y-58018429D01*
X114395689Y-57917070D01*
X114312930Y-57834311D01*
X114211571Y-57775792D01*
X114124092Y-57752352D01*
X114829638Y-57046807D01*
X114829638Y-57046806D01*
X114793606Y-57020628D01*
X114750939Y-56965299D01*
X114744959Y-56895685D01*
X114777565Y-56833890D01*
X114793599Y-56819994D01*
X114945199Y-56709852D01*
X115099852Y-56555199D01*
X115099854Y-56555195D01*
X115099857Y-56555193D01*
X115197394Y-56420943D01*
X115228407Y-56378257D01*
X115327701Y-56183383D01*
X115395286Y-55975375D01*
X115397280Y-55962784D01*
X115429500Y-55759361D01*
X115429500Y-55540638D01*
X115402490Y-55370111D01*
X115395286Y-55324625D01*
X115327701Y-55116617D01*
X115327701Y-55116616D01*
X115293315Y-55049132D01*
X115228407Y-54921743D01*
X115190500Y-54869568D01*
X115099857Y-54744806D01*
X114945193Y-54590142D01*
X114768260Y-54461595D01*
X114768259Y-54461594D01*
X114768257Y-54461593D01*
X114705825Y-54429782D01*
X114573383Y-54362298D01*
X114573380Y-54362297D01*
X114365376Y-54294714D01*
X114149361Y-54260500D01*
X114149356Y-54260500D01*
X113930644Y-54260500D01*
X113930639Y-54260500D01*
X113714623Y-54294714D01*
X113506619Y-54362297D01*
X113506616Y-54362298D01*
X113311739Y-54461595D01*
X113134806Y-54590142D01*
X113134802Y-54590146D01*
X113101180Y-54623769D01*
X113039857Y-54657254D01*
X112970165Y-54652270D01*
X112914232Y-54610398D01*
X112889815Y-54544934D01*
X112889499Y-54536088D01*
X112889499Y-53921153D01*
X130199500Y-53921153D01*
X130199500Y-54078846D01*
X130230261Y-54233489D01*
X130230264Y-54233501D01*
X130290602Y-54379172D01*
X130290609Y-54379185D01*
X130378602Y-54510874D01*
X130399480Y-54577551D01*
X130399500Y-54579765D01*
X130399500Y-56413330D01*
X130399499Y-56413348D01*
X130399499Y-56579054D01*
X130399498Y-56579054D01*
X130440423Y-56731785D01*
X130469358Y-56781900D01*
X130469359Y-56781904D01*
X130469360Y-56781904D01*
X130501981Y-56838407D01*
X130519479Y-56868714D01*
X130519481Y-56868717D01*
X130638349Y-56987585D01*
X130638355Y-56987590D01*
X131165425Y-57514660D01*
X131198910Y-57575983D01*
X131199361Y-57578149D01*
X131230261Y-57733491D01*
X131230264Y-57733501D01*
X131290602Y-57879172D01*
X131290609Y-57879185D01*
X131378210Y-58010288D01*
X131378213Y-58010292D01*
X131489707Y-58121786D01*
X131489711Y-58121789D01*
X131620814Y-58209390D01*
X131620827Y-58209397D01*
X131715280Y-58248520D01*
X131766503Y-58269737D01*
X131915186Y-58299312D01*
X131921153Y-58300499D01*
X131921156Y-58300500D01*
X131921158Y-58300500D01*
X132078844Y-58300500D01*
X132078845Y-58300499D01*
X132233497Y-58269737D01*
X132379179Y-58209394D01*
X132510289Y-58121789D01*
X132621789Y-58010289D01*
X132709394Y-57879179D01*
X132769737Y-57733497D01*
X132800500Y-57578842D01*
X132800500Y-57421158D01*
X132800500Y-57421155D01*
X132800499Y-57421153D01*
X132769738Y-57266510D01*
X132769737Y-57266503D01*
X132760984Y-57245372D01*
X132709397Y-57120827D01*
X132709390Y-57120814D01*
X132621789Y-56989711D01*
X132621786Y-56989707D01*
X132510292Y-56878213D01*
X132510288Y-56878210D01*
X132379185Y-56790609D01*
X132379172Y-56790602D01*
X132233501Y-56730264D01*
X132233491Y-56730261D01*
X132078151Y-56699362D01*
X132016241Y-56666977D01*
X132014662Y-56665426D01*
X131636819Y-56287583D01*
X131603334Y-56226260D01*
X131600500Y-56199902D01*
X131600500Y-54579765D01*
X131620185Y-54512726D01*
X131621398Y-54510874D01*
X131709390Y-54379185D01*
X131709390Y-54379184D01*
X131709394Y-54379179D01*
X131769737Y-54233497D01*
X131800500Y-54078842D01*
X131800500Y-53921158D01*
X131800500Y-53921155D01*
X131800499Y-53921153D01*
X136699500Y-53921153D01*
X136699500Y-54078846D01*
X136730261Y-54233489D01*
X136730264Y-54233501D01*
X136790602Y-54379172D01*
X136790609Y-54379185D01*
X136878602Y-54510874D01*
X136899480Y-54577551D01*
X136899500Y-54579765D01*
X136899500Y-56920234D01*
X136879815Y-56987273D01*
X136878602Y-56989125D01*
X136790609Y-57120814D01*
X136790602Y-57120827D01*
X136730264Y-57266498D01*
X136730261Y-57266510D01*
X136699500Y-57421153D01*
X136699500Y-57578846D01*
X136730261Y-57733489D01*
X136730264Y-57733501D01*
X136790602Y-57879172D01*
X136790609Y-57879185D01*
X136878210Y-58010288D01*
X136878213Y-58010292D01*
X136989707Y-58121786D01*
X136989711Y-58121789D01*
X137120814Y-58209390D01*
X137120827Y-58209397D01*
X137215280Y-58248520D01*
X137266503Y-58269737D01*
X137415186Y-58299312D01*
X137421153Y-58300499D01*
X137421156Y-58300500D01*
X137421158Y-58300500D01*
X137578844Y-58300500D01*
X137578845Y-58300499D01*
X137733497Y-58269737D01*
X137879179Y-58209394D01*
X138010289Y-58121789D01*
X138121789Y-58010289D01*
X138209394Y-57879179D01*
X138269737Y-57733497D01*
X138300500Y-57578842D01*
X138300500Y-57421158D01*
X138300500Y-57421155D01*
X138300499Y-57421153D01*
X138269738Y-57266510D01*
X138269737Y-57266503D01*
X138260984Y-57245372D01*
X138209397Y-57120827D01*
X138209390Y-57120814D01*
X138121398Y-56989125D01*
X138100520Y-56922447D01*
X138100500Y-56920234D01*
X138100500Y-54724500D01*
X138120185Y-54657461D01*
X138172989Y-54611706D01*
X138224500Y-54600500D01*
X141553807Y-54600500D01*
X141553823Y-54600501D01*
X141561419Y-54600501D01*
X141719530Y-54600501D01*
X141719533Y-54600501D01*
X141872261Y-54559577D01*
X141934656Y-54523553D01*
X142009192Y-54480520D01*
X142120996Y-54368716D01*
X142120996Y-54368714D01*
X142131200Y-54358511D01*
X142131203Y-54358506D01*
X142755138Y-53734572D01*
X142816459Y-53701089D01*
X142818626Y-53700638D01*
X142876561Y-53689113D01*
X142973973Y-53669737D01*
X143092068Y-53620821D01*
X143119648Y-53609397D01*
X143119648Y-53609396D01*
X143119655Y-53609394D01*
X143119661Y-53609390D01*
X143251351Y-53521398D01*
X143318029Y-53500520D01*
X143320242Y-53500500D01*
X143513331Y-53500500D01*
X143513347Y-53500501D01*
X143520943Y-53500501D01*
X143679054Y-53500501D01*
X143679057Y-53500501D01*
X143831785Y-53459577D01*
X143895510Y-53422785D01*
X143968716Y-53380520D01*
X144080520Y-53268716D01*
X144080520Y-53268714D01*
X144090724Y-53258511D01*
X144090727Y-53258506D01*
X145014662Y-52334572D01*
X145075983Y-52301089D01*
X145078150Y-52300638D01*
X145139074Y-52288519D01*
X145233497Y-52269737D01*
X145379179Y-52209394D01*
X145510289Y-52121789D01*
X145621789Y-52010289D01*
X145709394Y-51879179D01*
X145769737Y-51733497D01*
X145800500Y-51578842D01*
X145800500Y-51421158D01*
X145800500Y-51421155D01*
X145800499Y-51421153D01*
X145785088Y-51343679D01*
X145769737Y-51266503D01*
X145769529Y-51266000D01*
X145709397Y-51120827D01*
X145709390Y-51120814D01*
X145621398Y-50989125D01*
X145600520Y-50922447D01*
X145600500Y-50920234D01*
X145600500Y-47800096D01*
X145620185Y-47733057D01*
X145636814Y-47712420D01*
X147412318Y-45936915D01*
X147473641Y-45903431D01*
X147543333Y-45908415D01*
X147587680Y-45936916D01*
X149665425Y-48014660D01*
X149698910Y-48075983D01*
X149699361Y-48078149D01*
X149730261Y-48233491D01*
X149730264Y-48233501D01*
X149790602Y-48379172D01*
X149790609Y-48379185D01*
X149878210Y-48510288D01*
X149878213Y-48510292D01*
X149989707Y-48621786D01*
X149989711Y-48621789D01*
X150120814Y-48709390D01*
X150120827Y-48709397D01*
X150266498Y-48769735D01*
X150266503Y-48769737D01*
X150421153Y-48800499D01*
X150421156Y-48800500D01*
X150421158Y-48800500D01*
X150578844Y-48800500D01*
X150578845Y-48800499D01*
X150733497Y-48769737D01*
X150879179Y-48709394D01*
X151010289Y-48621789D01*
X151121789Y-48510289D01*
X151209394Y-48379179D01*
X151269737Y-48233497D01*
X151300500Y-48078842D01*
X151300500Y-47921158D01*
X151300500Y-47921155D01*
X151300499Y-47921153D01*
X151269738Y-47766510D01*
X151269737Y-47766503D01*
X151247333Y-47712415D01*
X151209397Y-47620827D01*
X151209390Y-47620814D01*
X151121789Y-47489711D01*
X151121786Y-47489707D01*
X151010292Y-47378213D01*
X151010288Y-47378210D01*
X150879185Y-47290609D01*
X150879172Y-47290602D01*
X150733501Y-47230264D01*
X150733491Y-47230261D01*
X150578151Y-47199362D01*
X150516241Y-47166977D01*
X150514662Y-47165426D01*
X148334573Y-44985337D01*
X148301088Y-44924014D01*
X148300637Y-44921847D01*
X148279803Y-44817108D01*
X148269737Y-44766503D01*
X148269735Y-44766498D01*
X148209397Y-44620827D01*
X148209390Y-44620814D01*
X148121789Y-44489711D01*
X148121786Y-44489707D01*
X148010292Y-44378213D01*
X148010288Y-44378210D01*
X147879185Y-44290609D01*
X147879172Y-44290602D01*
X147733501Y-44230264D01*
X147733489Y-44230261D01*
X147578845Y-44199500D01*
X147578842Y-44199500D01*
X147421158Y-44199500D01*
X147421155Y-44199500D01*
X147266510Y-44230261D01*
X147266498Y-44230264D01*
X147120827Y-44290602D01*
X147120814Y-44290609D01*
X146989711Y-44378210D01*
X146989707Y-44378213D01*
X146878213Y-44489707D01*
X146878210Y-44489711D01*
X146790609Y-44620814D01*
X146790602Y-44620827D01*
X146730264Y-44766498D01*
X146730261Y-44766508D01*
X146699361Y-44921850D01*
X146666976Y-44983761D01*
X146665425Y-44985339D01*
X144519481Y-47131282D01*
X144519479Y-47131284D01*
X144499768Y-47165426D01*
X144480096Y-47199500D01*
X144440423Y-47268215D01*
X144399499Y-47420943D01*
X144399499Y-47420945D01*
X144399499Y-47589046D01*
X144399500Y-47589059D01*
X144399500Y-50920234D01*
X144379815Y-50987273D01*
X144378602Y-50989125D01*
X144290609Y-51120814D01*
X144290602Y-51120827D01*
X144230264Y-51266498D01*
X144230261Y-51266508D01*
X144199361Y-51421850D01*
X144166976Y-51483761D01*
X144165425Y-51485339D01*
X143395730Y-52255034D01*
X143334407Y-52288519D01*
X143264715Y-52283535D01*
X143239158Y-52270455D01*
X143119661Y-52190609D01*
X143119648Y-52190602D01*
X142973977Y-52130264D01*
X142973965Y-52130261D01*
X142819321Y-52099500D01*
X142819318Y-52099500D01*
X142661634Y-52099500D01*
X142661631Y-52099500D01*
X142506986Y-52130261D01*
X142506974Y-52130264D01*
X142361303Y-52190602D01*
X142361290Y-52190609D01*
X142230187Y-52278210D01*
X142230183Y-52278213D01*
X142118689Y-52389707D01*
X142118686Y-52389711D01*
X142031085Y-52520814D01*
X142031078Y-52520827D01*
X141970740Y-52666498D01*
X141970737Y-52666508D01*
X141939837Y-52821850D01*
X141907452Y-52883761D01*
X141905901Y-52885339D01*
X141428060Y-53363181D01*
X141366737Y-53396666D01*
X141340379Y-53399500D01*
X138079766Y-53399500D01*
X138012727Y-53379815D01*
X138010875Y-53378602D01*
X137879185Y-53290609D01*
X137879172Y-53290602D01*
X137733501Y-53230264D01*
X137733489Y-53230261D01*
X137578845Y-53199500D01*
X137578842Y-53199500D01*
X137421158Y-53199500D01*
X137421155Y-53199500D01*
X137266510Y-53230261D01*
X137266498Y-53230264D01*
X137120827Y-53290602D01*
X137120814Y-53290609D01*
X136989711Y-53378210D01*
X136989707Y-53378213D01*
X136878213Y-53489707D01*
X136878210Y-53489711D01*
X136790609Y-53620814D01*
X136790602Y-53620827D01*
X136730264Y-53766498D01*
X136730261Y-53766510D01*
X136699500Y-53921153D01*
X131800499Y-53921153D01*
X131787993Y-53858282D01*
X131769737Y-53766503D01*
X131756512Y-53734574D01*
X131709397Y-53620827D01*
X131709390Y-53620814D01*
X131621789Y-53489711D01*
X131621786Y-53489707D01*
X131510292Y-53378213D01*
X131510288Y-53378210D01*
X131379185Y-53290609D01*
X131379172Y-53290602D01*
X131233501Y-53230264D01*
X131233489Y-53230261D01*
X131078845Y-53199500D01*
X131078842Y-53199500D01*
X130921158Y-53199500D01*
X130921155Y-53199500D01*
X130766510Y-53230261D01*
X130766498Y-53230264D01*
X130620827Y-53290602D01*
X130620814Y-53290609D01*
X130489711Y-53378210D01*
X130489707Y-53378213D01*
X130378213Y-53489707D01*
X130378210Y-53489711D01*
X130290609Y-53620814D01*
X130290602Y-53620827D01*
X130230264Y-53766498D01*
X130230261Y-53766510D01*
X130199500Y-53921153D01*
X112889499Y-53921153D01*
X112889499Y-53443129D01*
X112889498Y-53443123D01*
X112883091Y-53383516D01*
X112832797Y-53248671D01*
X112832793Y-53248664D01*
X112746547Y-53133455D01*
X112746544Y-53133452D01*
X112631335Y-53047206D01*
X112631328Y-53047202D01*
X112496482Y-52996908D01*
X112496483Y-52996908D01*
X112436883Y-52990501D01*
X112436881Y-52990500D01*
X112436873Y-52990500D01*
X112436865Y-52990500D01*
X111626135Y-52990500D01*
X111559096Y-52970815D01*
X111513341Y-52918011D01*
X111503397Y-52848853D01*
X111518745Y-52804504D01*
X111530639Y-52783904D01*
X111559577Y-52733785D01*
X111600500Y-52581057D01*
X111600500Y-52422943D01*
X111600500Y-45321153D01*
X141699500Y-45321153D01*
X141699500Y-45478846D01*
X141730261Y-45633489D01*
X141730264Y-45633501D01*
X141790602Y-45779172D01*
X141790609Y-45779185D01*
X141878210Y-45910288D01*
X141878213Y-45910292D01*
X141989707Y-46021786D01*
X141989711Y-46021789D01*
X142120814Y-46109390D01*
X142120827Y-46109397D01*
X142266498Y-46169735D01*
X142266503Y-46169737D01*
X142421153Y-46200499D01*
X142421156Y-46200500D01*
X142421158Y-46200500D01*
X142578844Y-46200500D01*
X142578845Y-46200499D01*
X142733497Y-46169737D01*
X142879179Y-46109394D01*
X143010289Y-46021789D01*
X143121789Y-45910289D01*
X143209394Y-45779179D01*
X143269737Y-45633497D01*
X143300500Y-45478842D01*
X143300500Y-45321158D01*
X143300500Y-45321155D01*
X143300499Y-45321153D01*
X143268549Y-45160528D01*
X143270963Y-45160047D01*
X143270440Y-45100994D01*
X143302039Y-45047194D01*
X144212416Y-44136819D01*
X144273739Y-44103334D01*
X144300097Y-44100500D01*
X144413331Y-44100500D01*
X144413347Y-44100501D01*
X144420943Y-44100501D01*
X144579054Y-44100501D01*
X144579057Y-44100501D01*
X144731785Y-44059577D01*
X144781904Y-44030639D01*
X144868716Y-43980520D01*
X144980520Y-43868716D01*
X144980521Y-43868714D01*
X145014662Y-43834572D01*
X145075983Y-43801089D01*
X145078150Y-43800638D01*
X145136085Y-43789113D01*
X145233497Y-43769737D01*
X145379179Y-43709394D01*
X145510289Y-43621789D01*
X145621789Y-43510289D01*
X145709394Y-43379179D01*
X145769737Y-43233497D01*
X145800500Y-43078842D01*
X145800500Y-42921158D01*
X145800500Y-42921155D01*
X145800499Y-42921153D01*
X145788653Y-42861602D01*
X145769737Y-42766503D01*
X145769735Y-42766498D01*
X145709397Y-42620827D01*
X145709390Y-42620814D01*
X145621789Y-42489711D01*
X145621786Y-42489707D01*
X145620885Y-42488806D01*
X145620563Y-42488217D01*
X145617924Y-42485001D01*
X145618533Y-42484500D01*
X145587400Y-42427483D01*
X145592384Y-42357791D01*
X145634256Y-42301858D01*
X145684372Y-42279508D01*
X145733497Y-42269737D01*
X145879179Y-42209394D01*
X146010289Y-42121789D01*
X146121789Y-42010289D01*
X146209394Y-41879179D01*
X146269737Y-41733497D01*
X146300500Y-41578842D01*
X146300500Y-41421158D01*
X146300500Y-41421155D01*
X146300499Y-41421153D01*
X146269738Y-41266510D01*
X146269737Y-41266503D01*
X146209794Y-41121786D01*
X146209397Y-41120827D01*
X146209390Y-41120814D01*
X146121398Y-40989125D01*
X146100520Y-40922447D01*
X146100500Y-40920234D01*
X146100500Y-40800097D01*
X146120185Y-40733058D01*
X146136819Y-40712416D01*
X146786153Y-40063082D01*
X147514662Y-39334572D01*
X147575983Y-39301089D01*
X147578150Y-39300638D01*
X147636085Y-39289113D01*
X147733497Y-39269737D01*
X147879179Y-39209394D01*
X148010289Y-39121789D01*
X148121789Y-39010289D01*
X148209394Y-38879179D01*
X148269737Y-38733497D01*
X148300500Y-38578842D01*
X148300500Y-38421158D01*
X148300500Y-38421155D01*
X148300499Y-38421153D01*
X148269738Y-38266510D01*
X148269738Y-38266508D01*
X148269737Y-38266503D01*
X148269735Y-38266498D01*
X148209397Y-38120827D01*
X148209390Y-38120814D01*
X148121789Y-37989711D01*
X148121786Y-37989707D01*
X148010292Y-37878213D01*
X148010288Y-37878210D01*
X147879185Y-37790609D01*
X147879172Y-37790602D01*
X147733501Y-37730264D01*
X147733489Y-37730261D01*
X147578845Y-37699500D01*
X147578842Y-37699500D01*
X147421158Y-37699500D01*
X147421155Y-37699500D01*
X147266510Y-37730261D01*
X147266498Y-37730264D01*
X147120827Y-37790602D01*
X147120814Y-37790609D01*
X146989711Y-37878210D01*
X146989707Y-37878213D01*
X146878213Y-37989707D01*
X146878210Y-37989711D01*
X146790609Y-38120814D01*
X146790602Y-38120827D01*
X146730264Y-38266498D01*
X146730261Y-38266508D01*
X146699361Y-38421850D01*
X146666976Y-38483761D01*
X146665425Y-38485339D01*
X145131284Y-40019480D01*
X145131283Y-40019480D01*
X145131282Y-40019482D01*
X145087678Y-40063084D01*
X145026354Y-40096568D01*
X144956663Y-40091582D01*
X144912318Y-40063082D01*
X144868716Y-40019480D01*
X144868714Y-40019479D01*
X144868712Y-40019478D01*
X144781904Y-39969360D01*
X144781904Y-39969359D01*
X144781900Y-39969358D01*
X144731785Y-39940423D01*
X144579057Y-39899499D01*
X144420943Y-39899499D01*
X144413347Y-39899499D01*
X144413331Y-39899500D01*
X143579766Y-39899500D01*
X143512727Y-39879815D01*
X143510875Y-39878602D01*
X143379185Y-39790609D01*
X143379172Y-39790602D01*
X143233501Y-39730264D01*
X143233489Y-39730261D01*
X143078845Y-39699500D01*
X143078842Y-39699500D01*
X142921158Y-39699500D01*
X142921155Y-39699500D01*
X142766510Y-39730261D01*
X142766498Y-39730264D01*
X142620827Y-39790602D01*
X142620814Y-39790609D01*
X142489711Y-39878210D01*
X142489707Y-39878213D01*
X142378213Y-39989707D01*
X142378210Y-39989711D01*
X142290609Y-40120814D01*
X142290602Y-40120827D01*
X142230264Y-40266498D01*
X142230261Y-40266510D01*
X142199500Y-40421153D01*
X142199500Y-40578846D01*
X142230261Y-40733489D01*
X142230264Y-40733501D01*
X142290602Y-40879172D01*
X142290609Y-40879185D01*
X142378210Y-41010288D01*
X142378213Y-41010292D01*
X142489707Y-41121786D01*
X142489711Y-41121789D01*
X142620814Y-41209390D01*
X142620827Y-41209397D01*
X142758683Y-41266498D01*
X142766503Y-41269737D01*
X142921153Y-41300499D01*
X142921156Y-41300500D01*
X142921158Y-41300500D01*
X143078844Y-41300500D01*
X143078845Y-41300499D01*
X143233497Y-41269737D01*
X143379179Y-41209394D01*
X143379185Y-41209390D01*
X143510875Y-41121398D01*
X143577553Y-41100520D01*
X143579766Y-41100500D01*
X144199903Y-41100500D01*
X144266942Y-41120185D01*
X144287584Y-41136819D01*
X144665425Y-41514660D01*
X144698910Y-41575983D01*
X144699361Y-41578149D01*
X144730261Y-41733491D01*
X144730264Y-41733501D01*
X144790602Y-41879172D01*
X144790609Y-41879185D01*
X144878210Y-42010288D01*
X144878213Y-42010292D01*
X144879114Y-42011193D01*
X144879435Y-42011780D01*
X144882076Y-42014999D01*
X144881465Y-42015499D01*
X144912599Y-42072516D01*
X144907615Y-42142208D01*
X144865743Y-42198141D01*
X144815626Y-42220491D01*
X144766507Y-42230261D01*
X144766498Y-42230264D01*
X144620827Y-42290602D01*
X144620814Y-42290609D01*
X144489711Y-42378210D01*
X144489707Y-42378213D01*
X144378213Y-42489707D01*
X144378210Y-42489711D01*
X144290609Y-42620814D01*
X144290602Y-42620827D01*
X144230264Y-42766498D01*
X144230261Y-42766510D01*
X144223661Y-42799691D01*
X144191276Y-42861602D01*
X144130561Y-42896176D01*
X144102044Y-42899500D01*
X143920940Y-42899500D01*
X143880019Y-42910464D01*
X143880019Y-42910465D01*
X143842751Y-42920451D01*
X143768214Y-42940423D01*
X143768209Y-42940426D01*
X143631290Y-43019475D01*
X143631282Y-43019481D01*
X142019481Y-44631282D01*
X142019479Y-44631285D01*
X141969361Y-44718094D01*
X141969359Y-44718096D01*
X141940425Y-44768209D01*
X141940422Y-44768216D01*
X141927321Y-44817108D01*
X141895230Y-44872691D01*
X141878213Y-44889708D01*
X141878208Y-44889714D01*
X141790609Y-45020814D01*
X141790602Y-45020827D01*
X141730264Y-45166498D01*
X141730261Y-45166510D01*
X141699500Y-45321153D01*
X111600500Y-45321153D01*
X111600500Y-37089060D01*
X111600501Y-37089047D01*
X111600501Y-36920944D01*
X111576942Y-36833023D01*
X111559577Y-36768216D01*
X111525618Y-36709397D01*
X111480524Y-36631290D01*
X111480518Y-36631282D01*
X110834573Y-35985337D01*
X110801088Y-35924014D01*
X110800637Y-35921847D01*
X110769738Y-35766510D01*
X110769737Y-35766503D01*
X110769735Y-35766498D01*
X110709397Y-35620827D01*
X110709390Y-35620814D01*
X110621789Y-35489711D01*
X110621786Y-35489707D01*
X110510292Y-35378213D01*
X110510288Y-35378210D01*
X110379185Y-35290609D01*
X110379172Y-35290602D01*
X110233501Y-35230264D01*
X110233489Y-35230261D01*
X110078845Y-35199500D01*
X110078842Y-35199500D01*
X109921158Y-35199500D01*
X109921155Y-35199500D01*
X109766510Y-35230261D01*
X109766498Y-35230264D01*
X109620827Y-35290602D01*
X109620814Y-35290609D01*
X109489711Y-35378210D01*
X109489707Y-35378213D01*
X109378213Y-35489707D01*
X109378210Y-35489711D01*
X109290609Y-35620814D01*
X109290602Y-35620827D01*
X109230264Y-35766498D01*
X109230261Y-35766510D01*
X109199500Y-35921153D01*
X109199500Y-36078846D01*
X109230261Y-36233489D01*
X109230264Y-36233501D01*
X109290602Y-36379172D01*
X109290609Y-36379185D01*
X109378210Y-36510288D01*
X109378213Y-36510292D01*
X109489707Y-36621786D01*
X109489711Y-36621789D01*
X109620814Y-36709390D01*
X109620827Y-36709397D01*
X109762814Y-36768209D01*
X109766503Y-36769737D01*
X109831147Y-36782595D01*
X109921849Y-36800638D01*
X109983760Y-36833023D01*
X109985339Y-36834574D01*
X110363181Y-37212416D01*
X110396666Y-37273739D01*
X110399500Y-37300097D01*
X110399500Y-49513982D01*
X110379815Y-49581021D01*
X110327011Y-49626776D01*
X110257853Y-49636720D01*
X110200014Y-49612358D01*
X110021945Y-49475721D01*
X110021943Y-49475720D01*
X109820962Y-49359685D01*
X109820954Y-49359681D01*
X109820952Y-49359680D01*
X109606530Y-49270863D01*
X109606531Y-49270863D01*
X109606528Y-49270862D01*
X109464403Y-49232780D01*
X109382349Y-49210794D01*
X109353586Y-49207007D01*
X109152252Y-49180500D01*
X109152245Y-49180500D01*
X108920155Y-49180500D01*
X108920147Y-49180500D01*
X108690051Y-49210794D01*
X108465871Y-49270862D01*
X108251454Y-49359677D01*
X108251437Y-49359685D01*
X108050456Y-49475720D01*
X108050454Y-49475721D01*
X107866324Y-49617009D01*
X107866317Y-49617015D01*
X107702215Y-49781117D01*
X107702209Y-49781124D01*
X107560921Y-49965254D01*
X107560920Y-49965256D01*
X107444885Y-50166237D01*
X107444877Y-50166254D01*
X107356062Y-50380671D01*
X107295994Y-50604851D01*
X107265700Y-50834947D01*
X98250500Y-50834947D01*
X98250500Y-31421153D01*
X102699500Y-31421153D01*
X102699500Y-31578846D01*
X102730261Y-31733489D01*
X102730264Y-31733501D01*
X102790602Y-31879172D01*
X102790609Y-31879185D01*
X102878602Y-32010874D01*
X102899480Y-32077551D01*
X102899500Y-32079765D01*
X102899500Y-33420234D01*
X102879815Y-33487273D01*
X102878602Y-33489125D01*
X102790609Y-33620814D01*
X102790602Y-33620827D01*
X102730264Y-33766498D01*
X102730261Y-33766510D01*
X102699500Y-33921153D01*
X102699500Y-34078846D01*
X102730261Y-34233489D01*
X102730264Y-34233501D01*
X102790602Y-34379172D01*
X102790609Y-34379185D01*
X102878210Y-34510288D01*
X102878213Y-34510292D01*
X102989707Y-34621786D01*
X102989711Y-34621789D01*
X103120814Y-34709390D01*
X103120827Y-34709397D01*
X103266498Y-34769735D01*
X103266503Y-34769737D01*
X103421153Y-34800499D01*
X103421156Y-34800500D01*
X103421158Y-34800500D01*
X103578844Y-34800500D01*
X103578845Y-34800499D01*
X103733497Y-34769737D01*
X103879179Y-34709394D01*
X104010289Y-34621789D01*
X104121789Y-34510289D01*
X104209394Y-34379179D01*
X104269737Y-34233497D01*
X104300500Y-34078842D01*
X104300500Y-33921158D01*
X104300500Y-33921155D01*
X104300499Y-33921153D01*
X104269738Y-33766510D01*
X104269737Y-33766503D01*
X104269735Y-33766498D01*
X104209397Y-33620827D01*
X104209390Y-33620814D01*
X104121398Y-33489125D01*
X104100520Y-33422447D01*
X104100500Y-33420234D01*
X104100500Y-32079765D01*
X104120185Y-32012726D01*
X104121398Y-32010874D01*
X104209390Y-31879185D01*
X104209390Y-31879184D01*
X104209394Y-31879179D01*
X104269737Y-31733497D01*
X104300500Y-31578842D01*
X104300500Y-31421158D01*
X104300500Y-31421155D01*
X104300499Y-31421153D01*
X104269738Y-31266510D01*
X104269737Y-31266503D01*
X104269735Y-31266498D01*
X104209397Y-31120827D01*
X104209390Y-31120814D01*
X104121789Y-30989711D01*
X104121786Y-30989707D01*
X104010292Y-30878213D01*
X104010288Y-30878210D01*
X103879185Y-30790609D01*
X103879172Y-30790602D01*
X103733501Y-30730264D01*
X103733489Y-30730261D01*
X103578845Y-30699500D01*
X103578842Y-30699500D01*
X103421158Y-30699500D01*
X103421155Y-30699500D01*
X103266510Y-30730261D01*
X103266498Y-30730264D01*
X103120827Y-30790602D01*
X103120814Y-30790609D01*
X102989711Y-30878210D01*
X102989707Y-30878213D01*
X102878213Y-30989707D01*
X102878210Y-30989711D01*
X102790609Y-31120814D01*
X102790602Y-31120827D01*
X102730264Y-31266498D01*
X102730261Y-31266510D01*
X102699500Y-31421153D01*
X98250500Y-31421153D01*
X98250500Y-26502561D01*
X98250606Y-26497437D01*
X98257936Y-26320212D01*
X98269072Y-26050961D01*
X98269915Y-26040792D01*
X98324874Y-25599881D01*
X98326554Y-25589809D01*
X98370816Y-25378711D01*
X101149500Y-25378711D01*
X101149500Y-25621288D01*
X101181161Y-25861785D01*
X101243947Y-26096104D01*
X101310497Y-26256769D01*
X101336776Y-26320212D01*
X101458064Y-26530289D01*
X101458066Y-26530292D01*
X101458067Y-26530293D01*
X101605733Y-26722736D01*
X101605739Y-26722743D01*
X101777256Y-26894260D01*
X101777262Y-26894265D01*
X101969711Y-27041936D01*
X102179788Y-27163224D01*
X102403900Y-27256054D01*
X102638211Y-27318838D01*
X102818586Y-27342584D01*
X102878711Y-27350500D01*
X102878712Y-27350500D01*
X103121289Y-27350500D01*
X103169388Y-27344167D01*
X103361789Y-27318838D01*
X103596100Y-27256054D01*
X103820212Y-27163224D01*
X104030289Y-27041936D01*
X104222738Y-26894265D01*
X104394265Y-26722738D01*
X104541936Y-26530289D01*
X104663224Y-26320212D01*
X104756054Y-26096100D01*
X104818838Y-25861789D01*
X104850500Y-25621288D01*
X104850500Y-25378712D01*
X104850500Y-25378711D01*
X155649500Y-25378711D01*
X155649500Y-25621288D01*
X155681161Y-25861785D01*
X155743947Y-26096104D01*
X155810497Y-26256769D01*
X155836776Y-26320212D01*
X155958064Y-26530289D01*
X155958066Y-26530292D01*
X155958067Y-26530293D01*
X156105733Y-26722736D01*
X156105739Y-26722743D01*
X156277256Y-26894260D01*
X156277262Y-26894265D01*
X156469711Y-27041936D01*
X156679788Y-27163224D01*
X156903900Y-27256054D01*
X157138211Y-27318838D01*
X157318586Y-27342584D01*
X157378711Y-27350500D01*
X157378712Y-27350500D01*
X157621289Y-27350500D01*
X157669388Y-27344167D01*
X157861789Y-27318838D01*
X158096100Y-27256054D01*
X158320212Y-27163224D01*
X158530289Y-27041936D01*
X158722738Y-26894265D01*
X158894265Y-26722738D01*
X159041936Y-26530289D01*
X159163224Y-26320212D01*
X159256054Y-26096100D01*
X159318838Y-25861789D01*
X159350500Y-25621288D01*
X159350500Y-25378712D01*
X159318838Y-25138211D01*
X159256054Y-24903900D01*
X159163224Y-24679788D01*
X159041936Y-24469711D01*
X158908375Y-24295650D01*
X158894266Y-24277263D01*
X158894260Y-24277256D01*
X158722743Y-24105739D01*
X158722736Y-24105733D01*
X158530293Y-23958067D01*
X158530292Y-23958066D01*
X158530289Y-23958064D01*
X158320212Y-23836776D01*
X158320205Y-23836773D01*
X158096104Y-23743947D01*
X157861785Y-23681161D01*
X157621289Y-23649500D01*
X157621288Y-23649500D01*
X157378712Y-23649500D01*
X157378711Y-23649500D01*
X157138214Y-23681161D01*
X156903895Y-23743947D01*
X156679794Y-23836773D01*
X156679785Y-23836777D01*
X156469706Y-23958067D01*
X156277263Y-24105733D01*
X156277256Y-24105739D01*
X156105739Y-24277256D01*
X156105733Y-24277263D01*
X155958067Y-24469706D01*
X155836777Y-24679785D01*
X155836773Y-24679794D01*
X155743947Y-24903895D01*
X155681161Y-25138214D01*
X155649500Y-25378711D01*
X104850500Y-25378711D01*
X104818838Y-25138211D01*
X104756054Y-24903900D01*
X104663224Y-24679788D01*
X104541936Y-24469711D01*
X104408375Y-24295650D01*
X104394266Y-24277263D01*
X104394260Y-24277256D01*
X104222743Y-24105739D01*
X104222736Y-24105733D01*
X104030293Y-23958067D01*
X104030292Y-23958066D01*
X104030289Y-23958064D01*
X103820212Y-23836776D01*
X103820205Y-23836773D01*
X103596104Y-23743947D01*
X103361785Y-23681161D01*
X103121289Y-23649500D01*
X103121288Y-23649500D01*
X102878712Y-23649500D01*
X102878711Y-23649500D01*
X102638214Y-23681161D01*
X102403895Y-23743947D01*
X102179794Y-23836773D01*
X102179785Y-23836777D01*
X101969706Y-23958067D01*
X101777263Y-24105733D01*
X101777256Y-24105739D01*
X101605739Y-24277256D01*
X101605733Y-24277263D01*
X101458067Y-24469706D01*
X101336777Y-24679785D01*
X101336773Y-24679794D01*
X101243947Y-24903895D01*
X101181161Y-25138214D01*
X101149500Y-25378711D01*
X98370816Y-25378711D01*
X98417734Y-25154950D01*
X98420241Y-25145054D01*
X98547021Y-24719205D01*
X98550336Y-24709553D01*
X98711842Y-24295646D01*
X98715958Y-24286265D01*
X98804215Y-24105733D01*
X98911080Y-23887137D01*
X98915953Y-23878131D01*
X98940595Y-23836777D01*
X99143389Y-23496444D01*
X99148982Y-23487884D01*
X99407152Y-23126294D01*
X99413420Y-23118240D01*
X99700581Y-22779191D01*
X99707500Y-22771675D01*
X100021675Y-22457500D01*
X100029191Y-22450581D01*
X100368240Y-22163420D01*
X100376294Y-22157152D01*
X100737884Y-21898982D01*
X100746444Y-21893389D01*
X101128139Y-21665948D01*
X101137137Y-21661080D01*
X101536268Y-21465956D01*
X101545650Y-21461841D01*
X101959553Y-21300336D01*
X101969205Y-21297021D01*
X102395054Y-21170241D01*
X102404950Y-21167734D01*
X102839809Y-21076554D01*
X102849881Y-21074874D01*
X103290792Y-21019915D01*
X103300961Y-21019072D01*
X103747437Y-21000605D01*
X103752561Y-21000500D01*
X103815892Y-21000500D01*
X156934108Y-21000500D01*
X156997439Y-21000500D01*
X157002562Y-21000605D01*
G37*
%TD.AperFunction*%
%TD*%
M02*
