%TF.GenerationSoftware,KiCad,Pcbnew,10.0.6*%
%TF.CreationDate,2026-10-07T14:51:24-05:00*%
%TF.ProjectId,light_controller,6c696768-745f-4636-9f6e-74726f6c6c65,rev?*%
%TF.SameCoordinates,Original*%
%TF.FileFunction,Soldermask,Top*%
%TF.FilePolarity,Negative*%
%FSLAX46Y46*%
G04 Gerber Fmt 4.6, Leading zero omitted, Abs format (unit mm)*
G04 Created by KiCad (PCBNEW 10.0.6) date 2026-10-07 14:51:24*
%MOMM*%
%LPD*%
G01*
G04 APERTURE LIST*
G04 Aperture macros list*
%AMRoundRect*
0 Rectangle with rounded corners*
0 $1 Rounding radius*
0 $2 $3 $4 $5 $6 $7 $8 $9 X,Y pos of 4 corners*
0 Add a 4 corners polygon primitive as box body*
4,1,4,$2,$3,$4,$5,$6,$7,$8,$9,$2,$3,0*
0 Add four circle primitives for the rounded corners*
1,1,$1+$1,$2,$3*
1,1,$1+$1,$4,$5*
1,1,$1+$1,$6,$7*
1,1,$1+$1,$8,$9*
0 Add four rect primitives between the rounded corners*
20,1,$1+$1,$2,$3,$4,$5,0*
20,1,$1+$1,$4,$5,$6,$7,0*
20,1,$1+$1,$6,$7,$8,$9,0*
20,1,$1+$1,$8,$9,$2,$3,0*%
G04 Aperture macros list end*
%ADD10RoundRect,0.250000X-0.250000X-0.475000X0.250000X-0.475000X0.250000X0.475000X-0.250000X0.475000X0*%
%ADD11RoundRect,0.250000X-0.262500X-0.450000X0.262500X-0.450000X0.262500X0.450000X-0.262500X0.450000X0*%
%ADD12RoundRect,0.162500X0.162500X-1.012500X0.162500X1.012500X-0.162500X1.012500X-0.162500X-1.012500X0*%
%ADD13C,3.200000*%
%ADD14R,3.200000X1.000000*%
%ADD15RoundRect,0.250000X0.250000X0.475000X-0.250000X0.475000X-0.250000X-0.475000X0.250000X-0.475000X0*%
%ADD16C,3.000000*%
%ADD17R,1.370000X1.370000*%
%ADD18C,1.370000*%
%ADD19RoundRect,0.075000X-0.662500X-0.075000X0.662500X-0.075000X0.662500X0.075000X-0.662500X0.075000X0*%
%ADD20RoundRect,0.075000X-0.075000X-0.662500X0.075000X-0.662500X0.075000X0.662500X-0.075000X0.662500X0*%
%ADD21R,3.150000X1.000000*%
%ADD22RoundRect,0.150000X-0.512500X-0.150000X0.512500X-0.150000X0.512500X0.150000X-0.512500X0.150000X0*%
%ADD23RoundRect,0.375000X-0.625000X-0.375000X0.625000X-0.375000X0.625000X0.375000X-0.625000X0.375000X0*%
%ADD24RoundRect,0.500000X-0.500000X-1.400000X0.500000X-1.400000X0.500000X1.400000X-0.500000X1.400000X0*%
%ADD25C,3.251200*%
%ADD26R,1.778000X1.778000*%
%ADD27C,1.778000*%
%ADD28C,2.032000*%
%ADD29C,2.540000*%
%ADD30RoundRect,0.243750X-0.456250X0.243750X-0.456250X-0.243750X0.456250X-0.243750X0.456250X0.243750X0*%
G04 APERTURE END LIST*
D10*
%TO.C,C1*%
X136050000Y-39000000D03*
X137950000Y-39000000D03*
%TD*%
D11*
%TO.C,R1*%
X139500000Y-35500000D03*
X141325000Y-35500000D03*
%TD*%
D10*
%TO.C,C6*%
X133550000Y-56500000D03*
X135450000Y-56500000D03*
%TD*%
%TO.C,C10*%
X123050000Y-66500000D03*
X124950000Y-66500000D03*
%TD*%
%TO.C,C7*%
X131550000Y-49500000D03*
X133450000Y-49500000D03*
%TD*%
%TO.C,C8*%
X149550000Y-57000000D03*
X151450000Y-57000000D03*
%TD*%
D12*
%TO.C,U2*%
X120190000Y-62025000D03*
X122730000Y-62025000D03*
X125270000Y-62025000D03*
X127810000Y-62025000D03*
X127810000Y-52975000D03*
X125270000Y-52975000D03*
X122730000Y-52975000D03*
X120190000Y-52975000D03*
%TD*%
D13*
%TO.C,H4*%
X157500000Y-72500000D03*
%TD*%
D10*
%TO.C,C9*%
X143000000Y-38500000D03*
X144900000Y-38500000D03*
%TD*%
D11*
%TO.C,R2*%
X151587500Y-42000000D03*
X153412500Y-42000000D03*
%TD*%
D14*
%TO.C,SW1*%
X125500000Y-38500000D03*
X132300000Y-38500000D03*
X125500000Y-42500000D03*
X132300000Y-42500000D03*
%TD*%
D15*
%TO.C,C2*%
X145450000Y-56500000D03*
X143550000Y-56500000D03*
%TD*%
D16*
%TO.C,J3*%
X140500000Y-76000000D03*
D17*
X143500000Y-71700000D03*
D18*
X140500000Y-71700000D03*
X137500000Y-71700000D03*
%TD*%
D19*
%TO.C,U1*%
X136000000Y-44500000D03*
X136000000Y-45000000D03*
X136000000Y-45500000D03*
X136000000Y-46000000D03*
X136000000Y-46500000D03*
X136000000Y-47000000D03*
X136000000Y-47500000D03*
X136000000Y-48000000D03*
X136000000Y-48500000D03*
X136000000Y-49000000D03*
X136000000Y-49500000D03*
X136000000Y-50000000D03*
D20*
X137412500Y-51412500D03*
X137912500Y-51412500D03*
X138412500Y-51412500D03*
X138912500Y-51412500D03*
X139412500Y-51412500D03*
X139912500Y-51412500D03*
X140412500Y-51412500D03*
X140912500Y-51412500D03*
X141412500Y-51412500D03*
X141912500Y-51412500D03*
X142412500Y-51412500D03*
X142912500Y-51412500D03*
D19*
X144325000Y-50000000D03*
X144325000Y-49500000D03*
X144325000Y-49000000D03*
X144325000Y-48500000D03*
X144325000Y-48000000D03*
X144325000Y-47500000D03*
X144325000Y-47000000D03*
X144325000Y-46500000D03*
X144325000Y-46000000D03*
X144325000Y-45500000D03*
X144325000Y-45000000D03*
X144325000Y-44500000D03*
D20*
X142912500Y-43087500D03*
X142412500Y-43087500D03*
X141912500Y-43087500D03*
X141412500Y-43087500D03*
X140912500Y-43087500D03*
X140412500Y-43087500D03*
X139912500Y-43087500D03*
X139412500Y-43087500D03*
X138912500Y-43087500D03*
X138412500Y-43087500D03*
X137912500Y-43087500D03*
X137412500Y-43087500D03*
%TD*%
D10*
%TO.C,C4*%
X147050000Y-42000000D03*
X148950000Y-42000000D03*
%TD*%
D21*
%TO.C,J2*%
X102500000Y-35380000D03*
X107550000Y-35380000D03*
X102500000Y-37920000D03*
X107550000Y-37920000D03*
X102500000Y-40460000D03*
X107550000Y-40460000D03*
X102500000Y-43000000D03*
X107550000Y-43000000D03*
X102500000Y-45540000D03*
X107550000Y-45540000D03*
%TD*%
D22*
%TO.C,U4*%
X140725000Y-62000000D03*
X140725000Y-62950000D03*
X140725000Y-63900000D03*
X143000000Y-63900000D03*
X143000000Y-62000000D03*
%TD*%
%TO.C,U5*%
X134225000Y-62000000D03*
X134225000Y-62950000D03*
X134225000Y-63900000D03*
X136500000Y-63900000D03*
X136500000Y-62000000D03*
%TD*%
D23*
%TO.C,U3*%
X151850000Y-46700000D03*
X151850000Y-49000000D03*
D24*
X158150000Y-49000000D03*
D23*
X151850000Y-51300000D03*
%TD*%
D10*
%TO.C,C3*%
X138500000Y-56500000D03*
X140400000Y-56500000D03*
%TD*%
%TO.C,C11*%
X144600000Y-67000000D03*
X146500000Y-67000000D03*
%TD*%
D25*
%TO.C,J1*%
X105150000Y-53110000D03*
X105150000Y-64540000D03*
D26*
X111500000Y-54380000D03*
D27*
X114040000Y-55650000D03*
X111500000Y-56920000D03*
X114040000Y-58190000D03*
X111500000Y-59460000D03*
X114040000Y-60730000D03*
X111500000Y-62000000D03*
X114040000Y-63270000D03*
D28*
X101035200Y-65124200D03*
X101035200Y-62609600D03*
X101035200Y-55015000D03*
X101035200Y-52500400D03*
D29*
X109036200Y-50951000D03*
X109036200Y-66699000D03*
%TD*%
D13*
%TO.C,H1*%
X103000000Y-25500000D03*
%TD*%
D16*
%TO.C,J4*%
X127000000Y-75800000D03*
D17*
X130000000Y-71500000D03*
D18*
X127000000Y-71500000D03*
X124000000Y-71500000D03*
%TD*%
D13*
%TO.C,H2*%
X103000000Y-73000000D03*
%TD*%
%TO.C,H3*%
X157500000Y-25500000D03*
%TD*%
D30*
%TO.C,D1*%
X147937500Y-47625000D03*
X147937500Y-49500000D03*
%TD*%
D10*
%TO.C,C5*%
X126550000Y-48500000D03*
X128450000Y-48500000D03*
%TD*%
M02*
