%TF.GenerationSoftware,KiCad,Pcbnew,10.0.6*%
%TF.CreationDate,2026-10-07T14:51:24-05:00*%
%TF.ProjectId,light_controller,6c696768-745f-4636-9f6e-74726f6c6c65,rev?*%
%TF.SameCoordinates,Original*%
%TF.FileFunction,Legend,Top*%
%TF.FilePolarity,Positive*%
%FSLAX46Y46*%
G04 Gerber Fmt 4.6, Leading zero omitted, Abs format (unit mm)*
G04 Created by KiCad (PCBNEW 10.0.6) date 2026-10-07 14:51:24*
%MOMM*%
%LPD*%
G01*
G04 APERTURE LIST*
%ADD10C,0.150000*%
%ADD11C,0.254000*%
%ADD12C,0.120000*%
%ADD13C,0.127000*%
G04 APERTURE END LIST*
D10*
X136833333Y-37679580D02*
X136785714Y-37727200D01*
X136785714Y-37727200D02*
X136642857Y-37774819D01*
X136642857Y-37774819D02*
X136547619Y-37774819D01*
X136547619Y-37774819D02*
X136404762Y-37727200D01*
X136404762Y-37727200D02*
X136309524Y-37631961D01*
X136309524Y-37631961D02*
X136261905Y-37536723D01*
X136261905Y-37536723D02*
X136214286Y-37346247D01*
X136214286Y-37346247D02*
X136214286Y-37203390D01*
X136214286Y-37203390D02*
X136261905Y-37012914D01*
X136261905Y-37012914D02*
X136309524Y-36917676D01*
X136309524Y-36917676D02*
X136404762Y-36822438D01*
X136404762Y-36822438D02*
X136547619Y-36774819D01*
X136547619Y-36774819D02*
X136642857Y-36774819D01*
X136642857Y-36774819D02*
X136785714Y-36822438D01*
X136785714Y-36822438D02*
X136833333Y-36870057D01*
X137785714Y-37774819D02*
X137214286Y-37774819D01*
X137500000Y-37774819D02*
X137500000Y-36774819D01*
X137500000Y-36774819D02*
X137404762Y-36917676D01*
X137404762Y-36917676D02*
X137309524Y-37012914D01*
X137309524Y-37012914D02*
X137214286Y-37060533D01*
X140245833Y-34304819D02*
X139912500Y-33828628D01*
X139674405Y-34304819D02*
X139674405Y-33304819D01*
X139674405Y-33304819D02*
X140055357Y-33304819D01*
X140055357Y-33304819D02*
X140150595Y-33352438D01*
X140150595Y-33352438D02*
X140198214Y-33400057D01*
X140198214Y-33400057D02*
X140245833Y-33495295D01*
X140245833Y-33495295D02*
X140245833Y-33638152D01*
X140245833Y-33638152D02*
X140198214Y-33733390D01*
X140198214Y-33733390D02*
X140150595Y-33781009D01*
X140150595Y-33781009D02*
X140055357Y-33828628D01*
X140055357Y-33828628D02*
X139674405Y-33828628D01*
X141198214Y-34304819D02*
X140626786Y-34304819D01*
X140912500Y-34304819D02*
X140912500Y-33304819D01*
X140912500Y-33304819D02*
X140817262Y-33447676D01*
X140817262Y-33447676D02*
X140722024Y-33542914D01*
X140722024Y-33542914D02*
X140626786Y-33590533D01*
X134333333Y-55179580D02*
X134285714Y-55227200D01*
X134285714Y-55227200D02*
X134142857Y-55274819D01*
X134142857Y-55274819D02*
X134047619Y-55274819D01*
X134047619Y-55274819D02*
X133904762Y-55227200D01*
X133904762Y-55227200D02*
X133809524Y-55131961D01*
X133809524Y-55131961D02*
X133761905Y-55036723D01*
X133761905Y-55036723D02*
X133714286Y-54846247D01*
X133714286Y-54846247D02*
X133714286Y-54703390D01*
X133714286Y-54703390D02*
X133761905Y-54512914D01*
X133761905Y-54512914D02*
X133809524Y-54417676D01*
X133809524Y-54417676D02*
X133904762Y-54322438D01*
X133904762Y-54322438D02*
X134047619Y-54274819D01*
X134047619Y-54274819D02*
X134142857Y-54274819D01*
X134142857Y-54274819D02*
X134285714Y-54322438D01*
X134285714Y-54322438D02*
X134333333Y-54370057D01*
X135190476Y-54274819D02*
X135000000Y-54274819D01*
X135000000Y-54274819D02*
X134904762Y-54322438D01*
X134904762Y-54322438D02*
X134857143Y-54370057D01*
X134857143Y-54370057D02*
X134761905Y-54512914D01*
X134761905Y-54512914D02*
X134714286Y-54703390D01*
X134714286Y-54703390D02*
X134714286Y-55084342D01*
X134714286Y-55084342D02*
X134761905Y-55179580D01*
X134761905Y-55179580D02*
X134809524Y-55227200D01*
X134809524Y-55227200D02*
X134904762Y-55274819D01*
X134904762Y-55274819D02*
X135095238Y-55274819D01*
X135095238Y-55274819D02*
X135190476Y-55227200D01*
X135190476Y-55227200D02*
X135238095Y-55179580D01*
X135238095Y-55179580D02*
X135285714Y-55084342D01*
X135285714Y-55084342D02*
X135285714Y-54846247D01*
X135285714Y-54846247D02*
X135238095Y-54751009D01*
X135238095Y-54751009D02*
X135190476Y-54703390D01*
X135190476Y-54703390D02*
X135095238Y-54655771D01*
X135095238Y-54655771D02*
X134904762Y-54655771D01*
X134904762Y-54655771D02*
X134809524Y-54703390D01*
X134809524Y-54703390D02*
X134761905Y-54751009D01*
X134761905Y-54751009D02*
X134714286Y-54846247D01*
X123357142Y-65179580D02*
X123309523Y-65227200D01*
X123309523Y-65227200D02*
X123166666Y-65274819D01*
X123166666Y-65274819D02*
X123071428Y-65274819D01*
X123071428Y-65274819D02*
X122928571Y-65227200D01*
X122928571Y-65227200D02*
X122833333Y-65131961D01*
X122833333Y-65131961D02*
X122785714Y-65036723D01*
X122785714Y-65036723D02*
X122738095Y-64846247D01*
X122738095Y-64846247D02*
X122738095Y-64703390D01*
X122738095Y-64703390D02*
X122785714Y-64512914D01*
X122785714Y-64512914D02*
X122833333Y-64417676D01*
X122833333Y-64417676D02*
X122928571Y-64322438D01*
X122928571Y-64322438D02*
X123071428Y-64274819D01*
X123071428Y-64274819D02*
X123166666Y-64274819D01*
X123166666Y-64274819D02*
X123309523Y-64322438D01*
X123309523Y-64322438D02*
X123357142Y-64370057D01*
X124309523Y-65274819D02*
X123738095Y-65274819D01*
X124023809Y-65274819D02*
X124023809Y-64274819D01*
X124023809Y-64274819D02*
X123928571Y-64417676D01*
X123928571Y-64417676D02*
X123833333Y-64512914D01*
X123833333Y-64512914D02*
X123738095Y-64560533D01*
X124928571Y-64274819D02*
X125023809Y-64274819D01*
X125023809Y-64274819D02*
X125119047Y-64322438D01*
X125119047Y-64322438D02*
X125166666Y-64370057D01*
X125166666Y-64370057D02*
X125214285Y-64465295D01*
X125214285Y-64465295D02*
X125261904Y-64655771D01*
X125261904Y-64655771D02*
X125261904Y-64893866D01*
X125261904Y-64893866D02*
X125214285Y-65084342D01*
X125214285Y-65084342D02*
X125166666Y-65179580D01*
X125166666Y-65179580D02*
X125119047Y-65227200D01*
X125119047Y-65227200D02*
X125023809Y-65274819D01*
X125023809Y-65274819D02*
X124928571Y-65274819D01*
X124928571Y-65274819D02*
X124833333Y-65227200D01*
X124833333Y-65227200D02*
X124785714Y-65179580D01*
X124785714Y-65179580D02*
X124738095Y-65084342D01*
X124738095Y-65084342D02*
X124690476Y-64893866D01*
X124690476Y-64893866D02*
X124690476Y-64655771D01*
X124690476Y-64655771D02*
X124738095Y-64465295D01*
X124738095Y-64465295D02*
X124785714Y-64370057D01*
X124785714Y-64370057D02*
X124833333Y-64322438D01*
X124833333Y-64322438D02*
X124928571Y-64274819D01*
X132333333Y-48179580D02*
X132285714Y-48227200D01*
X132285714Y-48227200D02*
X132142857Y-48274819D01*
X132142857Y-48274819D02*
X132047619Y-48274819D01*
X132047619Y-48274819D02*
X131904762Y-48227200D01*
X131904762Y-48227200D02*
X131809524Y-48131961D01*
X131809524Y-48131961D02*
X131761905Y-48036723D01*
X131761905Y-48036723D02*
X131714286Y-47846247D01*
X131714286Y-47846247D02*
X131714286Y-47703390D01*
X131714286Y-47703390D02*
X131761905Y-47512914D01*
X131761905Y-47512914D02*
X131809524Y-47417676D01*
X131809524Y-47417676D02*
X131904762Y-47322438D01*
X131904762Y-47322438D02*
X132047619Y-47274819D01*
X132047619Y-47274819D02*
X132142857Y-47274819D01*
X132142857Y-47274819D02*
X132285714Y-47322438D01*
X132285714Y-47322438D02*
X132333333Y-47370057D01*
X132666667Y-47274819D02*
X133333333Y-47274819D01*
X133333333Y-47274819D02*
X132904762Y-48274819D01*
X150333333Y-55679580D02*
X150285714Y-55727200D01*
X150285714Y-55727200D02*
X150142857Y-55774819D01*
X150142857Y-55774819D02*
X150047619Y-55774819D01*
X150047619Y-55774819D02*
X149904762Y-55727200D01*
X149904762Y-55727200D02*
X149809524Y-55631961D01*
X149809524Y-55631961D02*
X149761905Y-55536723D01*
X149761905Y-55536723D02*
X149714286Y-55346247D01*
X149714286Y-55346247D02*
X149714286Y-55203390D01*
X149714286Y-55203390D02*
X149761905Y-55012914D01*
X149761905Y-55012914D02*
X149809524Y-54917676D01*
X149809524Y-54917676D02*
X149904762Y-54822438D01*
X149904762Y-54822438D02*
X150047619Y-54774819D01*
X150047619Y-54774819D02*
X150142857Y-54774819D01*
X150142857Y-54774819D02*
X150285714Y-54822438D01*
X150285714Y-54822438D02*
X150333333Y-54870057D01*
X150904762Y-55203390D02*
X150809524Y-55155771D01*
X150809524Y-55155771D02*
X150761905Y-55108152D01*
X150761905Y-55108152D02*
X150714286Y-55012914D01*
X150714286Y-55012914D02*
X150714286Y-54965295D01*
X150714286Y-54965295D02*
X150761905Y-54870057D01*
X150761905Y-54870057D02*
X150809524Y-54822438D01*
X150809524Y-54822438D02*
X150904762Y-54774819D01*
X150904762Y-54774819D02*
X151095238Y-54774819D01*
X151095238Y-54774819D02*
X151190476Y-54822438D01*
X151190476Y-54822438D02*
X151238095Y-54870057D01*
X151238095Y-54870057D02*
X151285714Y-54965295D01*
X151285714Y-54965295D02*
X151285714Y-55012914D01*
X151285714Y-55012914D02*
X151238095Y-55108152D01*
X151238095Y-55108152D02*
X151190476Y-55155771D01*
X151190476Y-55155771D02*
X151095238Y-55203390D01*
X151095238Y-55203390D02*
X150904762Y-55203390D01*
X150904762Y-55203390D02*
X150809524Y-55251009D01*
X150809524Y-55251009D02*
X150761905Y-55298628D01*
X150761905Y-55298628D02*
X150714286Y-55393866D01*
X150714286Y-55393866D02*
X150714286Y-55584342D01*
X150714286Y-55584342D02*
X150761905Y-55679580D01*
X150761905Y-55679580D02*
X150809524Y-55727200D01*
X150809524Y-55727200D02*
X150904762Y-55774819D01*
X150904762Y-55774819D02*
X151095238Y-55774819D01*
X151095238Y-55774819D02*
X151190476Y-55727200D01*
X151190476Y-55727200D02*
X151238095Y-55679580D01*
X151238095Y-55679580D02*
X151285714Y-55584342D01*
X151285714Y-55584342D02*
X151285714Y-55393866D01*
X151285714Y-55393866D02*
X151238095Y-55298628D01*
X151238095Y-55298628D02*
X151190476Y-55251009D01*
X151190476Y-55251009D02*
X151095238Y-55203390D01*
X117924819Y-58261904D02*
X118734342Y-58261904D01*
X118734342Y-58261904D02*
X118829580Y-58214285D01*
X118829580Y-58214285D02*
X118877200Y-58166666D01*
X118877200Y-58166666D02*
X118924819Y-58071428D01*
X118924819Y-58071428D02*
X118924819Y-57880952D01*
X118924819Y-57880952D02*
X118877200Y-57785714D01*
X118877200Y-57785714D02*
X118829580Y-57738095D01*
X118829580Y-57738095D02*
X118734342Y-57690476D01*
X118734342Y-57690476D02*
X117924819Y-57690476D01*
X118020057Y-57261904D02*
X117972438Y-57214285D01*
X117972438Y-57214285D02*
X117924819Y-57119047D01*
X117924819Y-57119047D02*
X117924819Y-56880952D01*
X117924819Y-56880952D02*
X117972438Y-56785714D01*
X117972438Y-56785714D02*
X118020057Y-56738095D01*
X118020057Y-56738095D02*
X118115295Y-56690476D01*
X118115295Y-56690476D02*
X118210533Y-56690476D01*
X118210533Y-56690476D02*
X118353390Y-56738095D01*
X118353390Y-56738095D02*
X118924819Y-57309523D01*
X118924819Y-57309523D02*
X118924819Y-56690476D01*
X143783333Y-37179580D02*
X143735714Y-37227200D01*
X143735714Y-37227200D02*
X143592857Y-37274819D01*
X143592857Y-37274819D02*
X143497619Y-37274819D01*
X143497619Y-37274819D02*
X143354762Y-37227200D01*
X143354762Y-37227200D02*
X143259524Y-37131961D01*
X143259524Y-37131961D02*
X143211905Y-37036723D01*
X143211905Y-37036723D02*
X143164286Y-36846247D01*
X143164286Y-36846247D02*
X143164286Y-36703390D01*
X143164286Y-36703390D02*
X143211905Y-36512914D01*
X143211905Y-36512914D02*
X143259524Y-36417676D01*
X143259524Y-36417676D02*
X143354762Y-36322438D01*
X143354762Y-36322438D02*
X143497619Y-36274819D01*
X143497619Y-36274819D02*
X143592857Y-36274819D01*
X143592857Y-36274819D02*
X143735714Y-36322438D01*
X143735714Y-36322438D02*
X143783333Y-36370057D01*
X144259524Y-37274819D02*
X144450000Y-37274819D01*
X144450000Y-37274819D02*
X144545238Y-37227200D01*
X144545238Y-37227200D02*
X144592857Y-37179580D01*
X144592857Y-37179580D02*
X144688095Y-37036723D01*
X144688095Y-37036723D02*
X144735714Y-36846247D01*
X144735714Y-36846247D02*
X144735714Y-36465295D01*
X144735714Y-36465295D02*
X144688095Y-36370057D01*
X144688095Y-36370057D02*
X144640476Y-36322438D01*
X144640476Y-36322438D02*
X144545238Y-36274819D01*
X144545238Y-36274819D02*
X144354762Y-36274819D01*
X144354762Y-36274819D02*
X144259524Y-36322438D01*
X144259524Y-36322438D02*
X144211905Y-36370057D01*
X144211905Y-36370057D02*
X144164286Y-36465295D01*
X144164286Y-36465295D02*
X144164286Y-36703390D01*
X144164286Y-36703390D02*
X144211905Y-36798628D01*
X144211905Y-36798628D02*
X144259524Y-36846247D01*
X144259524Y-36846247D02*
X144354762Y-36893866D01*
X144354762Y-36893866D02*
X144545238Y-36893866D01*
X144545238Y-36893866D02*
X144640476Y-36846247D01*
X144640476Y-36846247D02*
X144688095Y-36798628D01*
X144688095Y-36798628D02*
X144735714Y-36703390D01*
X152333333Y-40804819D02*
X152000000Y-40328628D01*
X151761905Y-40804819D02*
X151761905Y-39804819D01*
X151761905Y-39804819D02*
X152142857Y-39804819D01*
X152142857Y-39804819D02*
X152238095Y-39852438D01*
X152238095Y-39852438D02*
X152285714Y-39900057D01*
X152285714Y-39900057D02*
X152333333Y-39995295D01*
X152333333Y-39995295D02*
X152333333Y-40138152D01*
X152333333Y-40138152D02*
X152285714Y-40233390D01*
X152285714Y-40233390D02*
X152238095Y-40281009D01*
X152238095Y-40281009D02*
X152142857Y-40328628D01*
X152142857Y-40328628D02*
X151761905Y-40328628D01*
X152714286Y-39900057D02*
X152761905Y-39852438D01*
X152761905Y-39852438D02*
X152857143Y-39804819D01*
X152857143Y-39804819D02*
X153095238Y-39804819D01*
X153095238Y-39804819D02*
X153190476Y-39852438D01*
X153190476Y-39852438D02*
X153238095Y-39900057D01*
X153238095Y-39900057D02*
X153285714Y-39995295D01*
X153285714Y-39995295D02*
X153285714Y-40090533D01*
X153285714Y-40090533D02*
X153238095Y-40233390D01*
X153238095Y-40233390D02*
X152666667Y-40804819D01*
X152666667Y-40804819D02*
X153285714Y-40804819D01*
X127616667Y-36957200D02*
X127759524Y-37004819D01*
X127759524Y-37004819D02*
X127997619Y-37004819D01*
X127997619Y-37004819D02*
X128092857Y-36957200D01*
X128092857Y-36957200D02*
X128140476Y-36909580D01*
X128140476Y-36909580D02*
X128188095Y-36814342D01*
X128188095Y-36814342D02*
X128188095Y-36719104D01*
X128188095Y-36719104D02*
X128140476Y-36623866D01*
X128140476Y-36623866D02*
X128092857Y-36576247D01*
X128092857Y-36576247D02*
X127997619Y-36528628D01*
X127997619Y-36528628D02*
X127807143Y-36481009D01*
X127807143Y-36481009D02*
X127711905Y-36433390D01*
X127711905Y-36433390D02*
X127664286Y-36385771D01*
X127664286Y-36385771D02*
X127616667Y-36290533D01*
X127616667Y-36290533D02*
X127616667Y-36195295D01*
X127616667Y-36195295D02*
X127664286Y-36100057D01*
X127664286Y-36100057D02*
X127711905Y-36052438D01*
X127711905Y-36052438D02*
X127807143Y-36004819D01*
X127807143Y-36004819D02*
X128045238Y-36004819D01*
X128045238Y-36004819D02*
X128188095Y-36052438D01*
X128521429Y-36004819D02*
X128759524Y-37004819D01*
X128759524Y-37004819D02*
X128950000Y-36290533D01*
X128950000Y-36290533D02*
X129140476Y-37004819D01*
X129140476Y-37004819D02*
X129378572Y-36004819D01*
X130283333Y-37004819D02*
X129711905Y-37004819D01*
X129997619Y-37004819D02*
X129997619Y-36004819D01*
X129997619Y-36004819D02*
X129902381Y-36147676D01*
X129902381Y-36147676D02*
X129807143Y-36242914D01*
X129807143Y-36242914D02*
X129711905Y-36290533D01*
X144333333Y-58539580D02*
X144285714Y-58587200D01*
X144285714Y-58587200D02*
X144142857Y-58634819D01*
X144142857Y-58634819D02*
X144047619Y-58634819D01*
X144047619Y-58634819D02*
X143904762Y-58587200D01*
X143904762Y-58587200D02*
X143809524Y-58491961D01*
X143809524Y-58491961D02*
X143761905Y-58396723D01*
X143761905Y-58396723D02*
X143714286Y-58206247D01*
X143714286Y-58206247D02*
X143714286Y-58063390D01*
X143714286Y-58063390D02*
X143761905Y-57872914D01*
X143761905Y-57872914D02*
X143809524Y-57777676D01*
X143809524Y-57777676D02*
X143904762Y-57682438D01*
X143904762Y-57682438D02*
X144047619Y-57634819D01*
X144047619Y-57634819D02*
X144142857Y-57634819D01*
X144142857Y-57634819D02*
X144285714Y-57682438D01*
X144285714Y-57682438D02*
X144333333Y-57730057D01*
X144714286Y-57730057D02*
X144761905Y-57682438D01*
X144761905Y-57682438D02*
X144857143Y-57634819D01*
X144857143Y-57634819D02*
X145095238Y-57634819D01*
X145095238Y-57634819D02*
X145190476Y-57682438D01*
X145190476Y-57682438D02*
X145238095Y-57730057D01*
X145238095Y-57730057D02*
X145285714Y-57825295D01*
X145285714Y-57825295D02*
X145285714Y-57920533D01*
X145285714Y-57920533D02*
X145238095Y-58063390D01*
X145238095Y-58063390D02*
X144666667Y-58634819D01*
X144666667Y-58634819D02*
X145285714Y-58634819D01*
D11*
X143076667Y-71004318D02*
X143076667Y-71911461D01*
X143076667Y-71911461D02*
X143016190Y-72092889D01*
X143016190Y-72092889D02*
X142895238Y-72213842D01*
X142895238Y-72213842D02*
X142713809Y-72274318D01*
X142713809Y-72274318D02*
X142592857Y-72274318D01*
X143560476Y-71004318D02*
X144346667Y-71004318D01*
X144346667Y-71004318D02*
X143923333Y-71488127D01*
X143923333Y-71488127D02*
X144104762Y-71488127D01*
X144104762Y-71488127D02*
X144225714Y-71548603D01*
X144225714Y-71548603D02*
X144286190Y-71609080D01*
X144286190Y-71609080D02*
X144346667Y-71730032D01*
X144346667Y-71730032D02*
X144346667Y-72032413D01*
X144346667Y-72032413D02*
X144286190Y-72153365D01*
X144286190Y-72153365D02*
X144225714Y-72213842D01*
X144225714Y-72213842D02*
X144104762Y-72274318D01*
X144104762Y-72274318D02*
X143741905Y-72274318D01*
X143741905Y-72274318D02*
X143620952Y-72213842D01*
X143620952Y-72213842D02*
X143560476Y-72153365D01*
D10*
X139400595Y-40854819D02*
X139400595Y-41664342D01*
X139400595Y-41664342D02*
X139448214Y-41759580D01*
X139448214Y-41759580D02*
X139495833Y-41807200D01*
X139495833Y-41807200D02*
X139591071Y-41854819D01*
X139591071Y-41854819D02*
X139781547Y-41854819D01*
X139781547Y-41854819D02*
X139876785Y-41807200D01*
X139876785Y-41807200D02*
X139924404Y-41759580D01*
X139924404Y-41759580D02*
X139972023Y-41664342D01*
X139972023Y-41664342D02*
X139972023Y-40854819D01*
X140972023Y-41854819D02*
X140400595Y-41854819D01*
X140686309Y-41854819D02*
X140686309Y-40854819D01*
X140686309Y-40854819D02*
X140591071Y-40997676D01*
X140591071Y-40997676D02*
X140495833Y-41092914D01*
X140495833Y-41092914D02*
X140400595Y-41140533D01*
X147833333Y-40679580D02*
X147785714Y-40727200D01*
X147785714Y-40727200D02*
X147642857Y-40774819D01*
X147642857Y-40774819D02*
X147547619Y-40774819D01*
X147547619Y-40774819D02*
X147404762Y-40727200D01*
X147404762Y-40727200D02*
X147309524Y-40631961D01*
X147309524Y-40631961D02*
X147261905Y-40536723D01*
X147261905Y-40536723D02*
X147214286Y-40346247D01*
X147214286Y-40346247D02*
X147214286Y-40203390D01*
X147214286Y-40203390D02*
X147261905Y-40012914D01*
X147261905Y-40012914D02*
X147309524Y-39917676D01*
X147309524Y-39917676D02*
X147404762Y-39822438D01*
X147404762Y-39822438D02*
X147547619Y-39774819D01*
X147547619Y-39774819D02*
X147642857Y-39774819D01*
X147642857Y-39774819D02*
X147785714Y-39822438D01*
X147785714Y-39822438D02*
X147833333Y-39870057D01*
X148690476Y-40108152D02*
X148690476Y-40774819D01*
X148452381Y-39727200D02*
X148214286Y-40441485D01*
X148214286Y-40441485D02*
X148833333Y-40441485D01*
X99166666Y-32454819D02*
X99166666Y-33169104D01*
X99166666Y-33169104D02*
X99119047Y-33311961D01*
X99119047Y-33311961D02*
X99023809Y-33407200D01*
X99023809Y-33407200D02*
X98880952Y-33454819D01*
X98880952Y-33454819D02*
X98785714Y-33454819D01*
X99595238Y-32550057D02*
X99642857Y-32502438D01*
X99642857Y-32502438D02*
X99738095Y-32454819D01*
X99738095Y-32454819D02*
X99976190Y-32454819D01*
X99976190Y-32454819D02*
X100071428Y-32502438D01*
X100071428Y-32502438D02*
X100119047Y-32550057D01*
X100119047Y-32550057D02*
X100166666Y-32645295D01*
X100166666Y-32645295D02*
X100166666Y-32740533D01*
X100166666Y-32740533D02*
X100119047Y-32883390D01*
X100119047Y-32883390D02*
X99547619Y-33454819D01*
X99547619Y-33454819D02*
X100166666Y-33454819D01*
X141100595Y-60004819D02*
X141100595Y-60814342D01*
X141100595Y-60814342D02*
X141148214Y-60909580D01*
X141148214Y-60909580D02*
X141195833Y-60957200D01*
X141195833Y-60957200D02*
X141291071Y-61004819D01*
X141291071Y-61004819D02*
X141481547Y-61004819D01*
X141481547Y-61004819D02*
X141576785Y-60957200D01*
X141576785Y-60957200D02*
X141624404Y-60909580D01*
X141624404Y-60909580D02*
X141672023Y-60814342D01*
X141672023Y-60814342D02*
X141672023Y-60004819D01*
X142576785Y-60338152D02*
X142576785Y-61004819D01*
X142338690Y-59957200D02*
X142100595Y-60671485D01*
X142100595Y-60671485D02*
X142719642Y-60671485D01*
X134600595Y-60004819D02*
X134600595Y-60814342D01*
X134600595Y-60814342D02*
X134648214Y-60909580D01*
X134648214Y-60909580D02*
X134695833Y-60957200D01*
X134695833Y-60957200D02*
X134791071Y-61004819D01*
X134791071Y-61004819D02*
X134981547Y-61004819D01*
X134981547Y-61004819D02*
X135076785Y-60957200D01*
X135076785Y-60957200D02*
X135124404Y-60909580D01*
X135124404Y-60909580D02*
X135172023Y-60814342D01*
X135172023Y-60814342D02*
X135172023Y-60004819D01*
X136124404Y-60004819D02*
X135648214Y-60004819D01*
X135648214Y-60004819D02*
X135600595Y-60481009D01*
X135600595Y-60481009D02*
X135648214Y-60433390D01*
X135648214Y-60433390D02*
X135743452Y-60385771D01*
X135743452Y-60385771D02*
X135981547Y-60385771D01*
X135981547Y-60385771D02*
X136076785Y-60433390D01*
X136076785Y-60433390D02*
X136124404Y-60481009D01*
X136124404Y-60481009D02*
X136172023Y-60576247D01*
X136172023Y-60576247D02*
X136172023Y-60814342D01*
X136172023Y-60814342D02*
X136124404Y-60909580D01*
X136124404Y-60909580D02*
X136076785Y-60957200D01*
X136076785Y-60957200D02*
X135981547Y-61004819D01*
X135981547Y-61004819D02*
X135743452Y-61004819D01*
X135743452Y-61004819D02*
X135648214Y-60957200D01*
X135648214Y-60957200D02*
X135600595Y-60909580D01*
X154238095Y-43954819D02*
X154238095Y-44764342D01*
X154238095Y-44764342D02*
X154285714Y-44859580D01*
X154285714Y-44859580D02*
X154333333Y-44907200D01*
X154333333Y-44907200D02*
X154428571Y-44954819D01*
X154428571Y-44954819D02*
X154619047Y-44954819D01*
X154619047Y-44954819D02*
X154714285Y-44907200D01*
X154714285Y-44907200D02*
X154761904Y-44859580D01*
X154761904Y-44859580D02*
X154809523Y-44764342D01*
X154809523Y-44764342D02*
X154809523Y-43954819D01*
X155190476Y-43954819D02*
X155809523Y-43954819D01*
X155809523Y-43954819D02*
X155476190Y-44335771D01*
X155476190Y-44335771D02*
X155619047Y-44335771D01*
X155619047Y-44335771D02*
X155714285Y-44383390D01*
X155714285Y-44383390D02*
X155761904Y-44431009D01*
X155761904Y-44431009D02*
X155809523Y-44526247D01*
X155809523Y-44526247D02*
X155809523Y-44764342D01*
X155809523Y-44764342D02*
X155761904Y-44859580D01*
X155761904Y-44859580D02*
X155714285Y-44907200D01*
X155714285Y-44907200D02*
X155619047Y-44954819D01*
X155619047Y-44954819D02*
X155333333Y-44954819D01*
X155333333Y-44954819D02*
X155238095Y-44907200D01*
X155238095Y-44907200D02*
X155190476Y-44859580D01*
X139283333Y-55179580D02*
X139235714Y-55227200D01*
X139235714Y-55227200D02*
X139092857Y-55274819D01*
X139092857Y-55274819D02*
X138997619Y-55274819D01*
X138997619Y-55274819D02*
X138854762Y-55227200D01*
X138854762Y-55227200D02*
X138759524Y-55131961D01*
X138759524Y-55131961D02*
X138711905Y-55036723D01*
X138711905Y-55036723D02*
X138664286Y-54846247D01*
X138664286Y-54846247D02*
X138664286Y-54703390D01*
X138664286Y-54703390D02*
X138711905Y-54512914D01*
X138711905Y-54512914D02*
X138759524Y-54417676D01*
X138759524Y-54417676D02*
X138854762Y-54322438D01*
X138854762Y-54322438D02*
X138997619Y-54274819D01*
X138997619Y-54274819D02*
X139092857Y-54274819D01*
X139092857Y-54274819D02*
X139235714Y-54322438D01*
X139235714Y-54322438D02*
X139283333Y-54370057D01*
X139616667Y-54274819D02*
X140235714Y-54274819D01*
X140235714Y-54274819D02*
X139902381Y-54655771D01*
X139902381Y-54655771D02*
X140045238Y-54655771D01*
X140045238Y-54655771D02*
X140140476Y-54703390D01*
X140140476Y-54703390D02*
X140188095Y-54751009D01*
X140188095Y-54751009D02*
X140235714Y-54846247D01*
X140235714Y-54846247D02*
X140235714Y-55084342D01*
X140235714Y-55084342D02*
X140188095Y-55179580D01*
X140188095Y-55179580D02*
X140140476Y-55227200D01*
X140140476Y-55227200D02*
X140045238Y-55274819D01*
X140045238Y-55274819D02*
X139759524Y-55274819D01*
X139759524Y-55274819D02*
X139664286Y-55227200D01*
X139664286Y-55227200D02*
X139616667Y-55179580D01*
X144907142Y-65679580D02*
X144859523Y-65727200D01*
X144859523Y-65727200D02*
X144716666Y-65774819D01*
X144716666Y-65774819D02*
X144621428Y-65774819D01*
X144621428Y-65774819D02*
X144478571Y-65727200D01*
X144478571Y-65727200D02*
X144383333Y-65631961D01*
X144383333Y-65631961D02*
X144335714Y-65536723D01*
X144335714Y-65536723D02*
X144288095Y-65346247D01*
X144288095Y-65346247D02*
X144288095Y-65203390D01*
X144288095Y-65203390D02*
X144335714Y-65012914D01*
X144335714Y-65012914D02*
X144383333Y-64917676D01*
X144383333Y-64917676D02*
X144478571Y-64822438D01*
X144478571Y-64822438D02*
X144621428Y-64774819D01*
X144621428Y-64774819D02*
X144716666Y-64774819D01*
X144716666Y-64774819D02*
X144859523Y-64822438D01*
X144859523Y-64822438D02*
X144907142Y-64870057D01*
X145859523Y-65774819D02*
X145288095Y-65774819D01*
X145573809Y-65774819D02*
X145573809Y-64774819D01*
X145573809Y-64774819D02*
X145478571Y-64917676D01*
X145478571Y-64917676D02*
X145383333Y-65012914D01*
X145383333Y-65012914D02*
X145288095Y-65060533D01*
X146811904Y-65774819D02*
X146240476Y-65774819D01*
X146526190Y-65774819D02*
X146526190Y-64774819D01*
X146526190Y-64774819D02*
X146430952Y-64917676D01*
X146430952Y-64917676D02*
X146335714Y-65012914D01*
X146335714Y-65012914D02*
X146240476Y-65060533D01*
D11*
X129576667Y-70804318D02*
X129576667Y-71711461D01*
X129576667Y-71711461D02*
X129516190Y-71892889D01*
X129516190Y-71892889D02*
X129395238Y-72013842D01*
X129395238Y-72013842D02*
X129213809Y-72074318D01*
X129213809Y-72074318D02*
X129092857Y-72074318D01*
X130725714Y-71227651D02*
X130725714Y-72074318D01*
X130423333Y-70743842D02*
X130120952Y-71650984D01*
X130120952Y-71650984D02*
X130907143Y-71650984D01*
D10*
X150042319Y-49300594D02*
X149042319Y-49300594D01*
X149042319Y-49300594D02*
X149042319Y-49062499D01*
X149042319Y-49062499D02*
X149089938Y-48919642D01*
X149089938Y-48919642D02*
X149185176Y-48824404D01*
X149185176Y-48824404D02*
X149280414Y-48776785D01*
X149280414Y-48776785D02*
X149470890Y-48729166D01*
X149470890Y-48729166D02*
X149613747Y-48729166D01*
X149613747Y-48729166D02*
X149804223Y-48776785D01*
X149804223Y-48776785D02*
X149899461Y-48824404D01*
X149899461Y-48824404D02*
X149994700Y-48919642D01*
X149994700Y-48919642D02*
X150042319Y-49062499D01*
X150042319Y-49062499D02*
X150042319Y-49300594D01*
X150042319Y-47776785D02*
X150042319Y-48348213D01*
X150042319Y-48062499D02*
X149042319Y-48062499D01*
X149042319Y-48062499D02*
X149185176Y-48157737D01*
X149185176Y-48157737D02*
X149280414Y-48252975D01*
X149280414Y-48252975D02*
X149328033Y-48348213D01*
X127333333Y-47179580D02*
X127285714Y-47227200D01*
X127285714Y-47227200D02*
X127142857Y-47274819D01*
X127142857Y-47274819D02*
X127047619Y-47274819D01*
X127047619Y-47274819D02*
X126904762Y-47227200D01*
X126904762Y-47227200D02*
X126809524Y-47131961D01*
X126809524Y-47131961D02*
X126761905Y-47036723D01*
X126761905Y-47036723D02*
X126714286Y-46846247D01*
X126714286Y-46846247D02*
X126714286Y-46703390D01*
X126714286Y-46703390D02*
X126761905Y-46512914D01*
X126761905Y-46512914D02*
X126809524Y-46417676D01*
X126809524Y-46417676D02*
X126904762Y-46322438D01*
X126904762Y-46322438D02*
X127047619Y-46274819D01*
X127047619Y-46274819D02*
X127142857Y-46274819D01*
X127142857Y-46274819D02*
X127285714Y-46322438D01*
X127285714Y-46322438D02*
X127333333Y-46370057D01*
X128238095Y-46274819D02*
X127761905Y-46274819D01*
X127761905Y-46274819D02*
X127714286Y-46751009D01*
X127714286Y-46751009D02*
X127761905Y-46703390D01*
X127761905Y-46703390D02*
X127857143Y-46655771D01*
X127857143Y-46655771D02*
X128095238Y-46655771D01*
X128095238Y-46655771D02*
X128190476Y-46703390D01*
X128190476Y-46703390D02*
X128238095Y-46751009D01*
X128238095Y-46751009D02*
X128285714Y-46846247D01*
X128285714Y-46846247D02*
X128285714Y-47084342D01*
X128285714Y-47084342D02*
X128238095Y-47179580D01*
X128238095Y-47179580D02*
X128190476Y-47227200D01*
X128190476Y-47227200D02*
X128095238Y-47274819D01*
X128095238Y-47274819D02*
X127857143Y-47274819D01*
X127857143Y-47274819D02*
X127761905Y-47227200D01*
X127761905Y-47227200D02*
X127714286Y-47179580D01*
%TO.C,C1*%
D12*
X136738748Y-38265000D02*
X137261252Y-38265000D01*
X136738748Y-39735000D02*
X137261252Y-39735000D01*
%TO.C,R1*%
X140185436Y-34765000D02*
X140639564Y-34765000D01*
X140185436Y-36235000D02*
X140639564Y-36235000D01*
%TO.C,C6*%
X134238748Y-55765000D02*
X134761252Y-55765000D01*
X134238748Y-57235000D02*
X134761252Y-57235000D01*
%TO.C,C10*%
X123738748Y-65765000D02*
X124261252Y-65765000D01*
X123738748Y-67235000D02*
X124261252Y-67235000D01*
%TO.C,C7*%
X132238748Y-48765000D02*
X132761252Y-48765000D01*
X132238748Y-50235000D02*
X132761252Y-50235000D01*
%TO.C,C8*%
X150238748Y-56265000D02*
X150761252Y-56265000D01*
X150238748Y-57735000D02*
X150761252Y-57735000D01*
%TO.C,U2*%
X119315000Y-54080000D02*
X119605000Y-54080000D01*
X119315000Y-60920000D02*
X119315000Y-54080000D01*
X119605000Y-60920000D02*
X119315000Y-60920000D01*
X128395000Y-54080000D02*
X128685000Y-54080000D01*
X128685000Y-54080000D02*
X128685000Y-60920000D01*
X128685000Y-60920000D02*
X128395000Y-60920000D01*
X120780000Y-62030000D02*
X121250000Y-61690000D01*
X121250000Y-62370000D01*
X120780000Y-62030000D01*
G36*
X121250000Y-62370000D02*
G01*
X120780000Y-62030000D01*
X121250000Y-61690000D01*
X121250000Y-62370000D01*
G37*
%TO.C,C9*%
X143688748Y-37765000D02*
X144211252Y-37765000D01*
X143688748Y-39235000D02*
X144211252Y-39235000D01*
%TO.C,R2*%
X152272936Y-41265000D02*
X152727064Y-41265000D01*
X152272936Y-42735000D02*
X152727064Y-42735000D01*
%TO.C,SW1*%
X125550000Y-37400000D02*
X125550000Y-37600000D01*
X125550000Y-39300000D02*
X125550000Y-41700000D01*
X125550000Y-43600000D02*
X125550000Y-43400000D01*
X125550000Y-43600000D02*
X132250000Y-43600000D01*
X132250000Y-37400000D02*
X125550000Y-37400000D01*
X132250000Y-37400000D02*
X132250000Y-37600000D01*
X132250000Y-39300000D02*
X132250000Y-41700000D01*
X132250000Y-43600000D02*
X132250000Y-43400000D01*
%TO.C,C2*%
X144761252Y-55765000D02*
X144238748Y-55765000D01*
X144761252Y-57235000D02*
X144238748Y-57235000D01*
%TO.C,J3*%
D13*
X135575000Y-70700000D02*
X145425000Y-70700000D01*
X135575000Y-80610000D02*
X135575000Y-70700000D01*
X145425000Y-70700000D02*
X145425000Y-80610000D01*
X145425000Y-80610000D02*
X135575000Y-80610000D01*
X145850000Y-71700000D02*
X146850000Y-71200000D01*
X146850000Y-71200000D02*
X146850000Y-72200000D01*
X146850000Y-72200000D02*
X145850000Y-71700000D01*
%TO.C,U1*%
D12*
X136552500Y-43640000D02*
X137002500Y-43640000D01*
X136552500Y-44090000D02*
X136552500Y-43640000D01*
X136552500Y-50860000D02*
X136552500Y-50410000D01*
X137002500Y-50860000D02*
X136552500Y-50860000D01*
X143322500Y-43640000D02*
X143772500Y-43640000D01*
X143772500Y-43640000D02*
X143772500Y-44090000D01*
X143772500Y-50410000D02*
X143772500Y-50860000D01*
X143772500Y-50860000D02*
X143322500Y-50860000D01*
X135912500Y-44090000D02*
X135572500Y-43620000D01*
X136252500Y-43620000D01*
X135912500Y-44090000D01*
G36*
X135912500Y-44090000D02*
G01*
X135572500Y-43620000D01*
X136252500Y-43620000D01*
X135912500Y-44090000D01*
G37*
%TO.C,C4*%
X147738748Y-41265000D02*
X148261252Y-41265000D01*
X147738748Y-42735000D02*
X148261252Y-42735000D01*
%TO.C,J2*%
X100985000Y-34570000D02*
X102375000Y-34570000D01*
X102375000Y-34000000D02*
X102375000Y-34570000D01*
X102375000Y-34000000D02*
X107675000Y-34000000D01*
X102375000Y-36190000D02*
X102375000Y-37110000D01*
X102375000Y-38730000D02*
X102375000Y-39650000D01*
X102375000Y-41270000D02*
X102375000Y-42190000D01*
X102375000Y-43810000D02*
X102375000Y-44730000D01*
X102375000Y-46350000D02*
X102375000Y-46920000D01*
X102375000Y-46920000D02*
X107675000Y-46920000D01*
X107675000Y-34000000D02*
X107675000Y-34570000D01*
X107675000Y-36190000D02*
X107675000Y-37110000D01*
X107675000Y-38730000D02*
X107675000Y-39650000D01*
X107675000Y-41270000D02*
X107675000Y-42190000D01*
X107675000Y-43810000D02*
X107675000Y-44730000D01*
X107675000Y-46350000D02*
X107675000Y-46920000D01*
%TO.C,U4*%
X140952500Y-61390000D02*
X142772500Y-61390000D01*
X140952500Y-61440000D02*
X140952500Y-61390000D01*
X140952500Y-64510000D02*
X140952500Y-64460000D01*
X142772500Y-61390000D02*
X142772500Y-61440000D01*
X142772500Y-62560000D02*
X142772500Y-63340000D01*
X142772500Y-64460000D02*
X142772500Y-64510000D01*
X142772500Y-64510000D02*
X140952500Y-64510000D01*
X140412500Y-61440000D02*
X140172500Y-61110000D01*
X140652500Y-61110000D01*
X140412500Y-61440000D01*
G36*
X140412500Y-61440000D02*
G01*
X140172500Y-61110000D01*
X140652500Y-61110000D01*
X140412500Y-61440000D01*
G37*
%TO.C,U5*%
X134452500Y-61390000D02*
X136272500Y-61390000D01*
X134452500Y-61440000D02*
X134452500Y-61390000D01*
X134452500Y-64510000D02*
X134452500Y-64460000D01*
X136272500Y-61390000D02*
X136272500Y-61440000D01*
X136272500Y-62560000D02*
X136272500Y-63340000D01*
X136272500Y-64460000D02*
X136272500Y-64510000D01*
X136272500Y-64510000D02*
X134452500Y-64510000D01*
X133912500Y-61440000D02*
X133672500Y-61110000D01*
X134152500Y-61110000D01*
X133912500Y-61440000D01*
G36*
X133912500Y-61440000D02*
G01*
X133672500Y-61110000D01*
X134152500Y-61110000D01*
X133912500Y-61440000D01*
G37*
%TO.C,U3*%
X153150000Y-45590000D02*
X156910000Y-45590000D01*
X153150000Y-52410000D02*
X156910000Y-52410000D01*
X156910000Y-45590000D02*
X156910000Y-46850000D01*
X156910000Y-52410000D02*
X156910000Y-51150000D01*
X151870000Y-45690000D02*
X151630000Y-45360000D01*
X152110000Y-45360000D01*
X151870000Y-45690000D01*
G36*
X151870000Y-45690000D02*
G01*
X151630000Y-45360000D01*
X152110000Y-45360000D01*
X151870000Y-45690000D01*
G37*
%TO.C,C3*%
X139188748Y-55765000D02*
X139711252Y-55765000D01*
X139188748Y-57235000D02*
X139711252Y-57235000D01*
%TO.C,C11*%
X145288748Y-66265000D02*
X145811252Y-66265000D01*
X145288748Y-67735000D02*
X145811252Y-67735000D01*
%TO.C,J1*%
X98200000Y-50430000D02*
X98200000Y-67230000D01*
X98200000Y-67230000D02*
X107600000Y-67230000D01*
X98300000Y-50430000D02*
X107600000Y-50430000D01*
X111000000Y-49880000D02*
X111500000Y-50380000D01*
X111500000Y-50380000D02*
X112000000Y-49880000D01*
X112000000Y-49880000D02*
X111000000Y-49880000D01*
X115800000Y-50430000D02*
X110500000Y-50430000D01*
X115800000Y-50430000D02*
X115800000Y-67230000D01*
X115800000Y-67230000D02*
X110500000Y-67230000D01*
%TO.C,J4*%
D13*
X122075000Y-70500000D02*
X131925000Y-70500000D01*
X122075000Y-80410000D02*
X122075000Y-70500000D01*
X131925000Y-70500000D02*
X131925000Y-80410000D01*
X131925000Y-80410000D02*
X122075000Y-80410000D01*
X132350000Y-71500000D02*
X133350000Y-71000000D01*
X133350000Y-71000000D02*
X133350000Y-72000000D01*
X133350000Y-72000000D02*
X132350000Y-71500000D01*
%TO.C,D1*%
D12*
X146977500Y-46877500D02*
X146977500Y-49562500D01*
X148897500Y-46877500D02*
X146977500Y-46877500D01*
X148897500Y-49562500D02*
X148897500Y-46877500D01*
%TO.C,C5*%
X127238748Y-47765000D02*
X127761252Y-47765000D01*
X127238748Y-49235000D02*
X127761252Y-49235000D01*
%TD*%
M02*
