%TF.GenerationSoftware,KiCad,Pcbnew,10.0.6*%
%TF.CreationDate,2026-10-06T17:14:08-05:00*%
%TF.ProjectId,onboarding_1,6f6e626f-6172-4646-996e-675f312e6b69,1*%
%TF.SameCoordinates,Original*%
%TF.FileFunction,Legend,Top*%
%TF.FilePolarity,Positive*%
%FSLAX46Y46*%
G04 Gerber Fmt 4.6, Leading zero omitted, Abs format (unit mm)*
G04 Created by KiCad (PCBNEW 10.0.6) date 2026-10-06 17:14:08*
%MOMM*%
%LPD*%
G01*
G04 APERTURE LIST*
%ADD10C,0.086564*%
%ADD11C,0.100000*%
%ADD12C,0.150000*%
%ADD13C,0.120000*%
G04 APERTURE END LIST*
D10*
X82903082Y-39634358D02*
X91732604Y-39634358D01*
X91732604Y-42664100D01*
X82903082Y-42664100D01*
X82903082Y-39634358D01*
X84201542Y-40500000D02*
G75*
G02*
X83335902Y-40500000I-432820J0D01*
G01*
X83335902Y-40500000D02*
G75*
G02*
X84201542Y-40500000I432820J0D01*
G01*
X84201539Y-41798458D02*
G75*
G02*
X83335905Y-41798458I-432817J0D01*
G01*
X83335905Y-41798458D02*
G75*
G02*
X84201539Y-41798458I432817J0D01*
G01*
X85932818Y-40500000D02*
G75*
G02*
X85067182Y-40500000I-432818J0D01*
G01*
X85067182Y-40500000D02*
G75*
G02*
X85932818Y-40500000I432818J0D01*
G01*
X85932818Y-41798458D02*
G75*
G02*
X85067182Y-41798458I-432818J0D01*
G01*
X85067182Y-41798458D02*
G75*
G02*
X85932818Y-41798458I432818J0D01*
G01*
X87664097Y-40500000D02*
G75*
G02*
X86798461Y-40500000I-432818J0D01*
G01*
X86798461Y-40500000D02*
G75*
G02*
X87664097Y-40500000I432818J0D01*
G01*
X87664097Y-41798458D02*
G75*
G02*
X86798461Y-41798458I-432818J0D01*
G01*
X86798461Y-41798458D02*
G75*
G02*
X87664097Y-41798458I432818J0D01*
G01*
X89395378Y-40500000D02*
G75*
G02*
X88529738Y-40500000I-432820J0D01*
G01*
X88529738Y-40500000D02*
G75*
G02*
X89395378Y-40500000I432820J0D01*
G01*
X89395378Y-41798458D02*
G75*
G02*
X88529738Y-41798458I-432820J0D01*
G01*
X88529738Y-41798458D02*
G75*
G02*
X89395378Y-41798458I432820J0D01*
G01*
X91126657Y-40500000D02*
G75*
G02*
X90261017Y-40500000I-432820J0D01*
G01*
X90261017Y-40500000D02*
G75*
G02*
X91126657Y-40500000I432820J0D01*
G01*
X91126657Y-41798458D02*
G75*
G02*
X90261017Y-41798458I-432820J0D01*
G01*
X90261017Y-41798458D02*
G75*
G02*
X91126657Y-41798458I432820J0D01*
G01*
D11*
X83061680Y-38391695D02*
X82995013Y-38358362D01*
X82995013Y-38358362D02*
X82895013Y-38358362D01*
X82895013Y-38358362D02*
X82795013Y-38391695D01*
X82795013Y-38391695D02*
X82728347Y-38458362D01*
X82728347Y-38458362D02*
X82695013Y-38525029D01*
X82695013Y-38525029D02*
X82661680Y-38658362D01*
X82661680Y-38658362D02*
X82661680Y-38758362D01*
X82661680Y-38758362D02*
X82695013Y-38891695D01*
X82695013Y-38891695D02*
X82728347Y-38958362D01*
X82728347Y-38958362D02*
X82795013Y-39025029D01*
X82795013Y-39025029D02*
X82895013Y-39058362D01*
X82895013Y-39058362D02*
X82961680Y-39058362D01*
X82961680Y-39058362D02*
X83061680Y-39025029D01*
X83061680Y-39025029D02*
X83095013Y-38991695D01*
X83095013Y-38991695D02*
X83095013Y-38758362D01*
X83095013Y-38758362D02*
X82961680Y-38758362D01*
X83395013Y-39058362D02*
X83395013Y-38358362D01*
X83395013Y-38358362D02*
X83795013Y-39058362D01*
X83795013Y-39058362D02*
X83795013Y-38358362D01*
X84128346Y-39058362D02*
X84128346Y-38358362D01*
X84128346Y-38358362D02*
X84295013Y-38358362D01*
X84295013Y-38358362D02*
X84395013Y-38391695D01*
X84395013Y-38391695D02*
X84461680Y-38458362D01*
X84461680Y-38458362D02*
X84495013Y-38525029D01*
X84495013Y-38525029D02*
X84528346Y-38658362D01*
X84528346Y-38658362D02*
X84528346Y-38758362D01*
X84528346Y-38758362D02*
X84495013Y-38891695D01*
X84495013Y-38891695D02*
X84461680Y-38958362D01*
X84461680Y-38958362D02*
X84395013Y-39025029D01*
X84395013Y-39025029D02*
X84295013Y-39058362D01*
X84295013Y-39058362D02*
X84128346Y-39058362D01*
X85298347Y-38408362D02*
X85765013Y-39108362D01*
X85765013Y-38408362D02*
X85298347Y-39108362D01*
X87128347Y-38358362D02*
X87561680Y-38358362D01*
X87561680Y-38358362D02*
X87328347Y-38625029D01*
X87328347Y-38625029D02*
X87428347Y-38625029D01*
X87428347Y-38625029D02*
X87495013Y-38658362D01*
X87495013Y-38658362D02*
X87528347Y-38691695D01*
X87528347Y-38691695D02*
X87561680Y-38758362D01*
X87561680Y-38758362D02*
X87561680Y-38925029D01*
X87561680Y-38925029D02*
X87528347Y-38991695D01*
X87528347Y-38991695D02*
X87495013Y-39025029D01*
X87495013Y-39025029D02*
X87428347Y-39058362D01*
X87428347Y-39058362D02*
X87228347Y-39058362D01*
X87228347Y-39058362D02*
X87161680Y-39025029D01*
X87161680Y-39025029D02*
X87128347Y-38991695D01*
X87861680Y-38991695D02*
X87895014Y-39025029D01*
X87895014Y-39025029D02*
X87861680Y-39058362D01*
X87861680Y-39058362D02*
X87828347Y-39025029D01*
X87828347Y-39025029D02*
X87861680Y-38991695D01*
X87861680Y-38991695D02*
X87861680Y-39058362D01*
X88128347Y-38358362D02*
X88561680Y-38358362D01*
X88561680Y-38358362D02*
X88328347Y-38625029D01*
X88328347Y-38625029D02*
X88428347Y-38625029D01*
X88428347Y-38625029D02*
X88495013Y-38658362D01*
X88495013Y-38658362D02*
X88528347Y-38691695D01*
X88528347Y-38691695D02*
X88561680Y-38758362D01*
X88561680Y-38758362D02*
X88561680Y-38925029D01*
X88561680Y-38925029D02*
X88528347Y-38991695D01*
X88528347Y-38991695D02*
X88495013Y-39025029D01*
X88495013Y-39025029D02*
X88428347Y-39058362D01*
X88428347Y-39058362D02*
X88228347Y-39058362D01*
X88228347Y-39058362D02*
X88161680Y-39025029D01*
X88161680Y-39025029D02*
X88128347Y-38991695D01*
X88761680Y-38358362D02*
X88995014Y-39058362D01*
X88995014Y-39058362D02*
X89228347Y-38358362D01*
X92528347Y-40858362D02*
X92195013Y-40858362D01*
X92195013Y-40858362D02*
X92161680Y-41191695D01*
X92161680Y-41191695D02*
X92195013Y-41158362D01*
X92195013Y-41158362D02*
X92261680Y-41125029D01*
X92261680Y-41125029D02*
X92428347Y-41125029D01*
X92428347Y-41125029D02*
X92495013Y-41158362D01*
X92495013Y-41158362D02*
X92528347Y-41191695D01*
X92528347Y-41191695D02*
X92561680Y-41258362D01*
X92561680Y-41258362D02*
X92561680Y-41425029D01*
X92561680Y-41425029D02*
X92528347Y-41491695D01*
X92528347Y-41491695D02*
X92495013Y-41525029D01*
X92495013Y-41525029D02*
X92428347Y-41558362D01*
X92428347Y-41558362D02*
X92261680Y-41558362D01*
X92261680Y-41558362D02*
X92195013Y-41525029D01*
X92195013Y-41525029D02*
X92161680Y-41491695D01*
X92761680Y-40858362D02*
X92995014Y-41558362D01*
X92995014Y-41558362D02*
X93228347Y-40858362D01*
X83342466Y-44700877D02*
X83309133Y-44767544D01*
X83309133Y-44767544D02*
X83309133Y-44867544D01*
X83309133Y-44867544D02*
X83342466Y-44967544D01*
X83342466Y-44967544D02*
X83409133Y-45034211D01*
X83409133Y-45034211D02*
X83475800Y-45067544D01*
X83475800Y-45067544D02*
X83609133Y-45100877D01*
X83609133Y-45100877D02*
X83709133Y-45100877D01*
X83709133Y-45100877D02*
X83842466Y-45067544D01*
X83842466Y-45067544D02*
X83909133Y-45034211D01*
X83909133Y-45034211D02*
X83975800Y-44967544D01*
X83975800Y-44967544D02*
X84009133Y-44867544D01*
X84009133Y-44867544D02*
X84009133Y-44800877D01*
X84009133Y-44800877D02*
X83975800Y-44700877D01*
X83975800Y-44700877D02*
X83942466Y-44667544D01*
X83942466Y-44667544D02*
X83709133Y-44667544D01*
X83709133Y-44667544D02*
X83709133Y-44800877D01*
X84009133Y-44367544D02*
X83309133Y-44367544D01*
X83309133Y-44367544D02*
X84009133Y-43967544D01*
X84009133Y-43967544D02*
X83309133Y-43967544D01*
X84009133Y-43634211D02*
X83309133Y-43634211D01*
X83309133Y-43634211D02*
X83309133Y-43467544D01*
X83309133Y-43467544D02*
X83342466Y-43367544D01*
X83342466Y-43367544D02*
X83409133Y-43300878D01*
X83409133Y-43300878D02*
X83475800Y-43267544D01*
X83475800Y-43267544D02*
X83609133Y-43234211D01*
X83609133Y-43234211D02*
X83709133Y-43234211D01*
X83709133Y-43234211D02*
X83842466Y-43267544D01*
X83842466Y-43267544D02*
X83909133Y-43300878D01*
X83909133Y-43300878D02*
X83975800Y-43367544D01*
X83975800Y-43367544D02*
X84009133Y-43467544D01*
X84009133Y-43467544D02*
X84009133Y-43634211D01*
X85775800Y-46100877D02*
X85809133Y-46000877D01*
X85809133Y-46000877D02*
X85809133Y-45834211D01*
X85809133Y-45834211D02*
X85775800Y-45767544D01*
X85775800Y-45767544D02*
X85742466Y-45734211D01*
X85742466Y-45734211D02*
X85675800Y-45700877D01*
X85675800Y-45700877D02*
X85609133Y-45700877D01*
X85609133Y-45700877D02*
X85542466Y-45734211D01*
X85542466Y-45734211D02*
X85509133Y-45767544D01*
X85509133Y-45767544D02*
X85475800Y-45834211D01*
X85475800Y-45834211D02*
X85442466Y-45967544D01*
X85442466Y-45967544D02*
X85409133Y-46034211D01*
X85409133Y-46034211D02*
X85375800Y-46067544D01*
X85375800Y-46067544D02*
X85309133Y-46100877D01*
X85309133Y-46100877D02*
X85242466Y-46100877D01*
X85242466Y-46100877D02*
X85175800Y-46067544D01*
X85175800Y-46067544D02*
X85142466Y-46034211D01*
X85142466Y-46034211D02*
X85109133Y-45967544D01*
X85109133Y-45967544D02*
X85109133Y-45800877D01*
X85109133Y-45800877D02*
X85142466Y-45700877D01*
X85109133Y-45467544D02*
X85809133Y-45300877D01*
X85809133Y-45300877D02*
X85309133Y-45167544D01*
X85309133Y-45167544D02*
X85809133Y-45034210D01*
X85809133Y-45034210D02*
X85109133Y-44867544D01*
X85809133Y-44600877D02*
X85109133Y-44600877D01*
X85109133Y-44600877D02*
X85109133Y-44434210D01*
X85109133Y-44434210D02*
X85142466Y-44334210D01*
X85142466Y-44334210D02*
X85209133Y-44267544D01*
X85209133Y-44267544D02*
X85275800Y-44234210D01*
X85275800Y-44234210D02*
X85409133Y-44200877D01*
X85409133Y-44200877D02*
X85509133Y-44200877D01*
X85509133Y-44200877D02*
X85642466Y-44234210D01*
X85642466Y-44234210D02*
X85709133Y-44267544D01*
X85709133Y-44267544D02*
X85775800Y-44334210D01*
X85775800Y-44334210D02*
X85809133Y-44434210D01*
X85809133Y-44434210D02*
X85809133Y-44600877D01*
X85809133Y-43900877D02*
X85109133Y-43900877D01*
X85109133Y-43434211D02*
X85109133Y-43300877D01*
X85109133Y-43300877D02*
X85142466Y-43234211D01*
X85142466Y-43234211D02*
X85209133Y-43167544D01*
X85209133Y-43167544D02*
X85342466Y-43134211D01*
X85342466Y-43134211D02*
X85575800Y-43134211D01*
X85575800Y-43134211D02*
X85709133Y-43167544D01*
X85709133Y-43167544D02*
X85775800Y-43234211D01*
X85775800Y-43234211D02*
X85809133Y-43300877D01*
X85809133Y-43300877D02*
X85809133Y-43434211D01*
X85809133Y-43434211D02*
X85775800Y-43500877D01*
X85775800Y-43500877D02*
X85709133Y-43567544D01*
X85709133Y-43567544D02*
X85575800Y-43600877D01*
X85575800Y-43600877D02*
X85342466Y-43600877D01*
X85342466Y-43600877D02*
X85209133Y-43567544D01*
X85209133Y-43567544D02*
X85142466Y-43500877D01*
X85142466Y-43500877D02*
X85109133Y-43434211D01*
X87575800Y-45100877D02*
X87609133Y-45000877D01*
X87609133Y-45000877D02*
X87609133Y-44834211D01*
X87609133Y-44834211D02*
X87575800Y-44767544D01*
X87575800Y-44767544D02*
X87542466Y-44734211D01*
X87542466Y-44734211D02*
X87475800Y-44700877D01*
X87475800Y-44700877D02*
X87409133Y-44700877D01*
X87409133Y-44700877D02*
X87342466Y-44734211D01*
X87342466Y-44734211D02*
X87309133Y-44767544D01*
X87309133Y-44767544D02*
X87275800Y-44834211D01*
X87275800Y-44834211D02*
X87242466Y-44967544D01*
X87242466Y-44967544D02*
X87209133Y-45034211D01*
X87209133Y-45034211D02*
X87175800Y-45067544D01*
X87175800Y-45067544D02*
X87109133Y-45100877D01*
X87109133Y-45100877D02*
X87042466Y-45100877D01*
X87042466Y-45100877D02*
X86975800Y-45067544D01*
X86975800Y-45067544D02*
X86942466Y-45034211D01*
X86942466Y-45034211D02*
X86909133Y-44967544D01*
X86909133Y-44967544D02*
X86909133Y-44800877D01*
X86909133Y-44800877D02*
X86942466Y-44700877D01*
X86909133Y-44467544D02*
X87609133Y-44300877D01*
X87609133Y-44300877D02*
X87109133Y-44167544D01*
X87109133Y-44167544D02*
X87609133Y-44034210D01*
X87609133Y-44034210D02*
X86909133Y-43867544D01*
X86909133Y-43467544D02*
X86909133Y-43334210D01*
X86909133Y-43334210D02*
X86942466Y-43267544D01*
X86942466Y-43267544D02*
X87009133Y-43200877D01*
X87009133Y-43200877D02*
X87142466Y-43167544D01*
X87142466Y-43167544D02*
X87375800Y-43167544D01*
X87375800Y-43167544D02*
X87509133Y-43200877D01*
X87509133Y-43200877D02*
X87575800Y-43267544D01*
X87575800Y-43267544D02*
X87609133Y-43334210D01*
X87609133Y-43334210D02*
X87609133Y-43467544D01*
X87609133Y-43467544D02*
X87575800Y-43534210D01*
X87575800Y-43534210D02*
X87509133Y-43600877D01*
X87509133Y-43600877D02*
X87375800Y-43634210D01*
X87375800Y-43634210D02*
X87142466Y-43634210D01*
X87142466Y-43634210D02*
X87009133Y-43600877D01*
X87009133Y-43600877D02*
X86942466Y-43534210D01*
X86942466Y-43534210D02*
X86909133Y-43467544D01*
X89375800Y-46300877D02*
X89409133Y-46200877D01*
X89409133Y-46200877D02*
X89409133Y-46034211D01*
X89409133Y-46034211D02*
X89375800Y-45967544D01*
X89375800Y-45967544D02*
X89342466Y-45934211D01*
X89342466Y-45934211D02*
X89275800Y-45900877D01*
X89275800Y-45900877D02*
X89209133Y-45900877D01*
X89209133Y-45900877D02*
X89142466Y-45934211D01*
X89142466Y-45934211D02*
X89109133Y-45967544D01*
X89109133Y-45967544D02*
X89075800Y-46034211D01*
X89075800Y-46034211D02*
X89042466Y-46167544D01*
X89042466Y-46167544D02*
X89009133Y-46234211D01*
X89009133Y-46234211D02*
X88975800Y-46267544D01*
X88975800Y-46267544D02*
X88909133Y-46300877D01*
X88909133Y-46300877D02*
X88842466Y-46300877D01*
X88842466Y-46300877D02*
X88775800Y-46267544D01*
X88775800Y-46267544D02*
X88742466Y-46234211D01*
X88742466Y-46234211D02*
X88709133Y-46167544D01*
X88709133Y-46167544D02*
X88709133Y-46000877D01*
X88709133Y-46000877D02*
X88742466Y-45900877D01*
X88709133Y-45667544D02*
X89409133Y-45500877D01*
X89409133Y-45500877D02*
X88909133Y-45367544D01*
X88909133Y-45367544D02*
X89409133Y-45234210D01*
X89409133Y-45234210D02*
X88709133Y-45067544D01*
X89342466Y-44400877D02*
X89375800Y-44434210D01*
X89375800Y-44434210D02*
X89409133Y-44534210D01*
X89409133Y-44534210D02*
X89409133Y-44600877D01*
X89409133Y-44600877D02*
X89375800Y-44700877D01*
X89375800Y-44700877D02*
X89309133Y-44767544D01*
X89309133Y-44767544D02*
X89242466Y-44800877D01*
X89242466Y-44800877D02*
X89109133Y-44834210D01*
X89109133Y-44834210D02*
X89009133Y-44834210D01*
X89009133Y-44834210D02*
X88875800Y-44800877D01*
X88875800Y-44800877D02*
X88809133Y-44767544D01*
X88809133Y-44767544D02*
X88742466Y-44700877D01*
X88742466Y-44700877D02*
X88709133Y-44600877D01*
X88709133Y-44600877D02*
X88709133Y-44534210D01*
X88709133Y-44534210D02*
X88742466Y-44434210D01*
X88742466Y-44434210D02*
X88775800Y-44400877D01*
X89409133Y-43767544D02*
X89409133Y-44100877D01*
X89409133Y-44100877D02*
X88709133Y-44100877D01*
X89409133Y-43534210D02*
X88709133Y-43534210D01*
X89409133Y-43134210D02*
X89009133Y-43434210D01*
X88709133Y-43134210D02*
X89109133Y-43534210D01*
D12*
X99333333Y-61679580D02*
X99285714Y-61727200D01*
X99285714Y-61727200D02*
X99142857Y-61774819D01*
X99142857Y-61774819D02*
X99047619Y-61774819D01*
X99047619Y-61774819D02*
X98904762Y-61727200D01*
X98904762Y-61727200D02*
X98809524Y-61631961D01*
X98809524Y-61631961D02*
X98761905Y-61536723D01*
X98761905Y-61536723D02*
X98714286Y-61346247D01*
X98714286Y-61346247D02*
X98714286Y-61203390D01*
X98714286Y-61203390D02*
X98761905Y-61012914D01*
X98761905Y-61012914D02*
X98809524Y-60917676D01*
X98809524Y-60917676D02*
X98904762Y-60822438D01*
X98904762Y-60822438D02*
X99047619Y-60774819D01*
X99047619Y-60774819D02*
X99142857Y-60774819D01*
X99142857Y-60774819D02*
X99285714Y-60822438D01*
X99285714Y-60822438D02*
X99333333Y-60870057D01*
X99809524Y-61774819D02*
X100000000Y-61774819D01*
X100000000Y-61774819D02*
X100095238Y-61727200D01*
X100095238Y-61727200D02*
X100142857Y-61679580D01*
X100142857Y-61679580D02*
X100238095Y-61536723D01*
X100238095Y-61536723D02*
X100285714Y-61346247D01*
X100285714Y-61346247D02*
X100285714Y-60965295D01*
X100285714Y-60965295D02*
X100238095Y-60870057D01*
X100238095Y-60870057D02*
X100190476Y-60822438D01*
X100190476Y-60822438D02*
X100095238Y-60774819D01*
X100095238Y-60774819D02*
X99904762Y-60774819D01*
X99904762Y-60774819D02*
X99809524Y-60822438D01*
X99809524Y-60822438D02*
X99761905Y-60870057D01*
X99761905Y-60870057D02*
X99714286Y-60965295D01*
X99714286Y-60965295D02*
X99714286Y-61203390D01*
X99714286Y-61203390D02*
X99761905Y-61298628D01*
X99761905Y-61298628D02*
X99809524Y-61346247D01*
X99809524Y-61346247D02*
X99904762Y-61393866D01*
X99904762Y-61393866D02*
X100095238Y-61393866D01*
X100095238Y-61393866D02*
X100190476Y-61346247D01*
X100190476Y-61346247D02*
X100238095Y-61298628D01*
X100238095Y-61298628D02*
X100285714Y-61203390D01*
X68488095Y-47267319D02*
X68488095Y-48076842D01*
X68488095Y-48076842D02*
X68535714Y-48172080D01*
X68535714Y-48172080D02*
X68583333Y-48219700D01*
X68583333Y-48219700D02*
X68678571Y-48267319D01*
X68678571Y-48267319D02*
X68869047Y-48267319D01*
X68869047Y-48267319D02*
X68964285Y-48219700D01*
X68964285Y-48219700D02*
X69011904Y-48172080D01*
X69011904Y-48172080D02*
X69059523Y-48076842D01*
X69059523Y-48076842D02*
X69059523Y-47267319D01*
X70059523Y-48267319D02*
X69488095Y-48267319D01*
X69773809Y-48267319D02*
X69773809Y-47267319D01*
X69773809Y-47267319D02*
X69678571Y-47410176D01*
X69678571Y-47410176D02*
X69583333Y-47505414D01*
X69583333Y-47505414D02*
X69488095Y-47553033D01*
X68333333Y-46454819D02*
X68000000Y-45978628D01*
X67761905Y-46454819D02*
X67761905Y-45454819D01*
X67761905Y-45454819D02*
X68142857Y-45454819D01*
X68142857Y-45454819D02*
X68238095Y-45502438D01*
X68238095Y-45502438D02*
X68285714Y-45550057D01*
X68285714Y-45550057D02*
X68333333Y-45645295D01*
X68333333Y-45645295D02*
X68333333Y-45788152D01*
X68333333Y-45788152D02*
X68285714Y-45883390D01*
X68285714Y-45883390D02*
X68238095Y-45931009D01*
X68238095Y-45931009D02*
X68142857Y-45978628D01*
X68142857Y-45978628D02*
X67761905Y-45978628D01*
X69285714Y-46454819D02*
X68714286Y-46454819D01*
X69000000Y-46454819D02*
X69000000Y-45454819D01*
X69000000Y-45454819D02*
X68904762Y-45597676D01*
X68904762Y-45597676D02*
X68809524Y-45692914D01*
X68809524Y-45692914D02*
X68714286Y-45740533D01*
X71738095Y-67954819D02*
X71738095Y-68764342D01*
X71738095Y-68764342D02*
X71785714Y-68859580D01*
X71785714Y-68859580D02*
X71833333Y-68907200D01*
X71833333Y-68907200D02*
X71928571Y-68954819D01*
X71928571Y-68954819D02*
X72119047Y-68954819D01*
X72119047Y-68954819D02*
X72214285Y-68907200D01*
X72214285Y-68907200D02*
X72261904Y-68859580D01*
X72261904Y-68859580D02*
X72309523Y-68764342D01*
X72309523Y-68764342D02*
X72309523Y-67954819D01*
X73214285Y-68288152D02*
X73214285Y-68954819D01*
X72976190Y-67907200D02*
X72738095Y-68621485D01*
X72738095Y-68621485D02*
X73357142Y-68621485D01*
X63359580Y-45666666D02*
X63407200Y-45714285D01*
X63407200Y-45714285D02*
X63454819Y-45857142D01*
X63454819Y-45857142D02*
X63454819Y-45952380D01*
X63454819Y-45952380D02*
X63407200Y-46095237D01*
X63407200Y-46095237D02*
X63311961Y-46190475D01*
X63311961Y-46190475D02*
X63216723Y-46238094D01*
X63216723Y-46238094D02*
X63026247Y-46285713D01*
X63026247Y-46285713D02*
X62883390Y-46285713D01*
X62883390Y-46285713D02*
X62692914Y-46238094D01*
X62692914Y-46238094D02*
X62597676Y-46190475D01*
X62597676Y-46190475D02*
X62502438Y-46095237D01*
X62502438Y-46095237D02*
X62454819Y-45952380D01*
X62454819Y-45952380D02*
X62454819Y-45857142D01*
X62454819Y-45857142D02*
X62502438Y-45714285D01*
X62502438Y-45714285D02*
X62550057Y-45666666D01*
X62454819Y-44761904D02*
X62454819Y-45238094D01*
X62454819Y-45238094D02*
X62931009Y-45285713D01*
X62931009Y-45285713D02*
X62883390Y-45238094D01*
X62883390Y-45238094D02*
X62835771Y-45142856D01*
X62835771Y-45142856D02*
X62835771Y-44904761D01*
X62835771Y-44904761D02*
X62883390Y-44809523D01*
X62883390Y-44809523D02*
X62931009Y-44761904D01*
X62931009Y-44761904D02*
X63026247Y-44714285D01*
X63026247Y-44714285D02*
X63264342Y-44714285D01*
X63264342Y-44714285D02*
X63359580Y-44761904D01*
X63359580Y-44761904D02*
X63407200Y-44809523D01*
X63407200Y-44809523D02*
X63454819Y-44904761D01*
X63454819Y-44904761D02*
X63454819Y-45142856D01*
X63454819Y-45142856D02*
X63407200Y-45238094D01*
X63407200Y-45238094D02*
X63359580Y-45285713D01*
X60679580Y-50116666D02*
X60727200Y-50164285D01*
X60727200Y-50164285D02*
X60774819Y-50307142D01*
X60774819Y-50307142D02*
X60774819Y-50402380D01*
X60774819Y-50402380D02*
X60727200Y-50545237D01*
X60727200Y-50545237D02*
X60631961Y-50640475D01*
X60631961Y-50640475D02*
X60536723Y-50688094D01*
X60536723Y-50688094D02*
X60346247Y-50735713D01*
X60346247Y-50735713D02*
X60203390Y-50735713D01*
X60203390Y-50735713D02*
X60012914Y-50688094D01*
X60012914Y-50688094D02*
X59917676Y-50640475D01*
X59917676Y-50640475D02*
X59822438Y-50545237D01*
X59822438Y-50545237D02*
X59774819Y-50402380D01*
X59774819Y-50402380D02*
X59774819Y-50307142D01*
X59774819Y-50307142D02*
X59822438Y-50164285D01*
X59822438Y-50164285D02*
X59870057Y-50116666D01*
X60108152Y-49259523D02*
X60774819Y-49259523D01*
X59727200Y-49497618D02*
X60441485Y-49735713D01*
X60441485Y-49735713D02*
X60441485Y-49116666D01*
X63238095Y-41454819D02*
X63238095Y-40454819D01*
X63238095Y-40931009D02*
X63809523Y-40931009D01*
X63809523Y-41454819D02*
X63809523Y-40454819D01*
X64809523Y-41454819D02*
X64238095Y-41454819D01*
X64523809Y-41454819D02*
X64523809Y-40454819D01*
X64523809Y-40454819D02*
X64428571Y-40597676D01*
X64428571Y-40597676D02*
X64333333Y-40692914D01*
X64333333Y-40692914D02*
X64238095Y-40740533D01*
X105238095Y-73804819D02*
X105238095Y-72804819D01*
X105238095Y-73281009D02*
X105809523Y-73281009D01*
X105809523Y-73804819D02*
X105809523Y-72804819D01*
X106190476Y-72804819D02*
X106809523Y-72804819D01*
X106809523Y-72804819D02*
X106476190Y-73185771D01*
X106476190Y-73185771D02*
X106619047Y-73185771D01*
X106619047Y-73185771D02*
X106714285Y-73233390D01*
X106714285Y-73233390D02*
X106761904Y-73281009D01*
X106761904Y-73281009D02*
X106809523Y-73376247D01*
X106809523Y-73376247D02*
X106809523Y-73614342D01*
X106809523Y-73614342D02*
X106761904Y-73709580D01*
X106761904Y-73709580D02*
X106714285Y-73757200D01*
X106714285Y-73757200D02*
X106619047Y-73804819D01*
X106619047Y-73804819D02*
X106333333Y-73804819D01*
X106333333Y-73804819D02*
X106238095Y-73757200D01*
X106238095Y-73757200D02*
X106190476Y-73709580D01*
X58738095Y-73804819D02*
X58738095Y-72804819D01*
X58738095Y-73281009D02*
X59309523Y-73281009D01*
X59309523Y-73804819D02*
X59309523Y-72804819D01*
X60214285Y-73138152D02*
X60214285Y-73804819D01*
X59976190Y-72757200D02*
X59738095Y-73471485D01*
X59738095Y-73471485D02*
X60357142Y-73471485D01*
X81238095Y-46424819D02*
X81238095Y-47234342D01*
X81238095Y-47234342D02*
X81285714Y-47329580D01*
X81285714Y-47329580D02*
X81333333Y-47377200D01*
X81333333Y-47377200D02*
X81428571Y-47424819D01*
X81428571Y-47424819D02*
X81619047Y-47424819D01*
X81619047Y-47424819D02*
X81714285Y-47377200D01*
X81714285Y-47377200D02*
X81761904Y-47329580D01*
X81761904Y-47329580D02*
X81809523Y-47234342D01*
X81809523Y-47234342D02*
X81809523Y-46424819D01*
X82238095Y-46520057D02*
X82285714Y-46472438D01*
X82285714Y-46472438D02*
X82380952Y-46424819D01*
X82380952Y-46424819D02*
X82619047Y-46424819D01*
X82619047Y-46424819D02*
X82714285Y-46472438D01*
X82714285Y-46472438D02*
X82761904Y-46520057D01*
X82761904Y-46520057D02*
X82809523Y-46615295D01*
X82809523Y-46615295D02*
X82809523Y-46710533D01*
X82809523Y-46710533D02*
X82761904Y-46853390D01*
X82761904Y-46853390D02*
X82190476Y-47424819D01*
X82190476Y-47424819D02*
X82809523Y-47424819D01*
X89666666Y-69454819D02*
X89666666Y-70169104D01*
X89666666Y-70169104D02*
X89619047Y-70311961D01*
X89619047Y-70311961D02*
X89523809Y-70407200D01*
X89523809Y-70407200D02*
X89380952Y-70454819D01*
X89380952Y-70454819D02*
X89285714Y-70454819D01*
X90571428Y-69788152D02*
X90571428Y-70454819D01*
X90333333Y-69407200D02*
X90095238Y-70121485D01*
X90095238Y-70121485D02*
X90714285Y-70121485D01*
X57179580Y-50166666D02*
X57227200Y-50214285D01*
X57227200Y-50214285D02*
X57274819Y-50357142D01*
X57274819Y-50357142D02*
X57274819Y-50452380D01*
X57274819Y-50452380D02*
X57227200Y-50595237D01*
X57227200Y-50595237D02*
X57131961Y-50690475D01*
X57131961Y-50690475D02*
X57036723Y-50738094D01*
X57036723Y-50738094D02*
X56846247Y-50785713D01*
X56846247Y-50785713D02*
X56703390Y-50785713D01*
X56703390Y-50785713D02*
X56512914Y-50738094D01*
X56512914Y-50738094D02*
X56417676Y-50690475D01*
X56417676Y-50690475D02*
X56322438Y-50595237D01*
X56322438Y-50595237D02*
X56274819Y-50452380D01*
X56274819Y-50452380D02*
X56274819Y-50357142D01*
X56274819Y-50357142D02*
X56322438Y-50214285D01*
X56322438Y-50214285D02*
X56370057Y-50166666D01*
X56274819Y-49833332D02*
X56274819Y-49166666D01*
X56274819Y-49166666D02*
X57274819Y-49595237D01*
X77833333Y-68604819D02*
X77500000Y-68128628D01*
X77261905Y-68604819D02*
X77261905Y-67604819D01*
X77261905Y-67604819D02*
X77642857Y-67604819D01*
X77642857Y-67604819D02*
X77738095Y-67652438D01*
X77738095Y-67652438D02*
X77785714Y-67700057D01*
X77785714Y-67700057D02*
X77833333Y-67795295D01*
X77833333Y-67795295D02*
X77833333Y-67938152D01*
X77833333Y-67938152D02*
X77785714Y-68033390D01*
X77785714Y-68033390D02*
X77738095Y-68081009D01*
X77738095Y-68081009D02*
X77642857Y-68128628D01*
X77642857Y-68128628D02*
X77261905Y-68128628D01*
X78690476Y-67938152D02*
X78690476Y-68604819D01*
X78452381Y-67557200D02*
X78214286Y-68271485D01*
X78214286Y-68271485D02*
X78833333Y-68271485D01*
X77357142Y-62679580D02*
X77309523Y-62727200D01*
X77309523Y-62727200D02*
X77166666Y-62774819D01*
X77166666Y-62774819D02*
X77071428Y-62774819D01*
X77071428Y-62774819D02*
X76928571Y-62727200D01*
X76928571Y-62727200D02*
X76833333Y-62631961D01*
X76833333Y-62631961D02*
X76785714Y-62536723D01*
X76785714Y-62536723D02*
X76738095Y-62346247D01*
X76738095Y-62346247D02*
X76738095Y-62203390D01*
X76738095Y-62203390D02*
X76785714Y-62012914D01*
X76785714Y-62012914D02*
X76833333Y-61917676D01*
X76833333Y-61917676D02*
X76928571Y-61822438D01*
X76928571Y-61822438D02*
X77071428Y-61774819D01*
X77071428Y-61774819D02*
X77166666Y-61774819D01*
X77166666Y-61774819D02*
X77309523Y-61822438D01*
X77309523Y-61822438D02*
X77357142Y-61870057D01*
X78309523Y-62774819D02*
X77738095Y-62774819D01*
X78023809Y-62774819D02*
X78023809Y-61774819D01*
X78023809Y-61774819D02*
X77928571Y-61917676D01*
X77928571Y-61917676D02*
X77833333Y-62012914D01*
X77833333Y-62012914D02*
X77738095Y-62060533D01*
X78928571Y-61774819D02*
X79023809Y-61774819D01*
X79023809Y-61774819D02*
X79119047Y-61822438D01*
X79119047Y-61822438D02*
X79166666Y-61870057D01*
X79166666Y-61870057D02*
X79214285Y-61965295D01*
X79214285Y-61965295D02*
X79261904Y-62155771D01*
X79261904Y-62155771D02*
X79261904Y-62393866D01*
X79261904Y-62393866D02*
X79214285Y-62584342D01*
X79214285Y-62584342D02*
X79166666Y-62679580D01*
X79166666Y-62679580D02*
X79119047Y-62727200D01*
X79119047Y-62727200D02*
X79023809Y-62774819D01*
X79023809Y-62774819D02*
X78928571Y-62774819D01*
X78928571Y-62774819D02*
X78833333Y-62727200D01*
X78833333Y-62727200D02*
X78785714Y-62679580D01*
X78785714Y-62679580D02*
X78738095Y-62584342D01*
X78738095Y-62584342D02*
X78690476Y-62393866D01*
X78690476Y-62393866D02*
X78690476Y-62155771D01*
X78690476Y-62155771D02*
X78738095Y-61965295D01*
X78738095Y-61965295D02*
X78785714Y-61870057D01*
X78785714Y-61870057D02*
X78833333Y-61822438D01*
X78833333Y-61822438D02*
X78928571Y-61774819D01*
X74179580Y-48666666D02*
X74227200Y-48714285D01*
X74227200Y-48714285D02*
X74274819Y-48857142D01*
X74274819Y-48857142D02*
X74274819Y-48952380D01*
X74274819Y-48952380D02*
X74227200Y-49095237D01*
X74227200Y-49095237D02*
X74131961Y-49190475D01*
X74131961Y-49190475D02*
X74036723Y-49238094D01*
X74036723Y-49238094D02*
X73846247Y-49285713D01*
X73846247Y-49285713D02*
X73703390Y-49285713D01*
X73703390Y-49285713D02*
X73512914Y-49238094D01*
X73512914Y-49238094D02*
X73417676Y-49190475D01*
X73417676Y-49190475D02*
X73322438Y-49095237D01*
X73322438Y-49095237D02*
X73274819Y-48952380D01*
X73274819Y-48952380D02*
X73274819Y-48857142D01*
X73274819Y-48857142D02*
X73322438Y-48714285D01*
X73322438Y-48714285D02*
X73370057Y-48666666D01*
X73370057Y-48285713D02*
X73322438Y-48238094D01*
X73322438Y-48238094D02*
X73274819Y-48142856D01*
X73274819Y-48142856D02*
X73274819Y-47904761D01*
X73274819Y-47904761D02*
X73322438Y-47809523D01*
X73322438Y-47809523D02*
X73370057Y-47761904D01*
X73370057Y-47761904D02*
X73465295Y-47714285D01*
X73465295Y-47714285D02*
X73560533Y-47714285D01*
X73560533Y-47714285D02*
X73703390Y-47761904D01*
X73703390Y-47761904D02*
X74274819Y-48333332D01*
X74274819Y-48333332D02*
X74274819Y-47714285D01*
X89833333Y-67104819D02*
X89500000Y-66628628D01*
X89261905Y-67104819D02*
X89261905Y-66104819D01*
X89261905Y-66104819D02*
X89642857Y-66104819D01*
X89642857Y-66104819D02*
X89738095Y-66152438D01*
X89738095Y-66152438D02*
X89785714Y-66200057D01*
X89785714Y-66200057D02*
X89833333Y-66295295D01*
X89833333Y-66295295D02*
X89833333Y-66438152D01*
X89833333Y-66438152D02*
X89785714Y-66533390D01*
X89785714Y-66533390D02*
X89738095Y-66581009D01*
X89738095Y-66581009D02*
X89642857Y-66628628D01*
X89642857Y-66628628D02*
X89261905Y-66628628D01*
X90166667Y-66104819D02*
X90785714Y-66104819D01*
X90785714Y-66104819D02*
X90452381Y-66485771D01*
X90452381Y-66485771D02*
X90595238Y-66485771D01*
X90595238Y-66485771D02*
X90690476Y-66533390D01*
X90690476Y-66533390D02*
X90738095Y-66581009D01*
X90738095Y-66581009D02*
X90785714Y-66676247D01*
X90785714Y-66676247D02*
X90785714Y-66914342D01*
X90785714Y-66914342D02*
X90738095Y-67009580D01*
X90738095Y-67009580D02*
X90690476Y-67057200D01*
X90690476Y-67057200D02*
X90595238Y-67104819D01*
X90595238Y-67104819D02*
X90309524Y-67104819D01*
X90309524Y-67104819D02*
X90214286Y-67057200D01*
X90214286Y-67057200D02*
X90166667Y-67009580D01*
X90333333Y-60359580D02*
X90285714Y-60407200D01*
X90285714Y-60407200D02*
X90142857Y-60454819D01*
X90142857Y-60454819D02*
X90047619Y-60454819D01*
X90047619Y-60454819D02*
X89904762Y-60407200D01*
X89904762Y-60407200D02*
X89809524Y-60311961D01*
X89809524Y-60311961D02*
X89761905Y-60216723D01*
X89761905Y-60216723D02*
X89714286Y-60026247D01*
X89714286Y-60026247D02*
X89714286Y-59883390D01*
X89714286Y-59883390D02*
X89761905Y-59692914D01*
X89761905Y-59692914D02*
X89809524Y-59597676D01*
X89809524Y-59597676D02*
X89904762Y-59502438D01*
X89904762Y-59502438D02*
X90047619Y-59454819D01*
X90047619Y-59454819D02*
X90142857Y-59454819D01*
X90142857Y-59454819D02*
X90285714Y-59502438D01*
X90285714Y-59502438D02*
X90333333Y-59550057D01*
X90904762Y-59883390D02*
X90809524Y-59835771D01*
X90809524Y-59835771D02*
X90761905Y-59788152D01*
X90761905Y-59788152D02*
X90714286Y-59692914D01*
X90714286Y-59692914D02*
X90714286Y-59645295D01*
X90714286Y-59645295D02*
X90761905Y-59550057D01*
X90761905Y-59550057D02*
X90809524Y-59502438D01*
X90809524Y-59502438D02*
X90904762Y-59454819D01*
X90904762Y-59454819D02*
X91095238Y-59454819D01*
X91095238Y-59454819D02*
X91190476Y-59502438D01*
X91190476Y-59502438D02*
X91238095Y-59550057D01*
X91238095Y-59550057D02*
X91285714Y-59645295D01*
X91285714Y-59645295D02*
X91285714Y-59692914D01*
X91285714Y-59692914D02*
X91238095Y-59788152D01*
X91238095Y-59788152D02*
X91190476Y-59835771D01*
X91190476Y-59835771D02*
X91095238Y-59883390D01*
X91095238Y-59883390D02*
X90904762Y-59883390D01*
X90904762Y-59883390D02*
X90809524Y-59931009D01*
X90809524Y-59931009D02*
X90761905Y-59978628D01*
X90761905Y-59978628D02*
X90714286Y-60073866D01*
X90714286Y-60073866D02*
X90714286Y-60264342D01*
X90714286Y-60264342D02*
X90761905Y-60359580D01*
X90761905Y-60359580D02*
X90809524Y-60407200D01*
X90809524Y-60407200D02*
X90904762Y-60454819D01*
X90904762Y-60454819D02*
X91095238Y-60454819D01*
X91095238Y-60454819D02*
X91190476Y-60407200D01*
X91190476Y-60407200D02*
X91238095Y-60359580D01*
X91238095Y-60359580D02*
X91285714Y-60264342D01*
X91285714Y-60264342D02*
X91285714Y-60073866D01*
X91285714Y-60073866D02*
X91238095Y-59978628D01*
X91238095Y-59978628D02*
X91190476Y-59931009D01*
X91190476Y-59931009D02*
X91095238Y-59883390D01*
X100738095Y-40454819D02*
X100738095Y-39454819D01*
X100738095Y-39931009D02*
X101309523Y-39931009D01*
X101309523Y-40454819D02*
X101309523Y-39454819D01*
X101738095Y-39550057D02*
X101785714Y-39502438D01*
X101785714Y-39502438D02*
X101880952Y-39454819D01*
X101880952Y-39454819D02*
X102119047Y-39454819D01*
X102119047Y-39454819D02*
X102214285Y-39502438D01*
X102214285Y-39502438D02*
X102261904Y-39550057D01*
X102261904Y-39550057D02*
X102309523Y-39645295D01*
X102309523Y-39645295D02*
X102309523Y-39740533D01*
X102309523Y-39740533D02*
X102261904Y-39883390D01*
X102261904Y-39883390D02*
X101690476Y-40454819D01*
X101690476Y-40454819D02*
X102309523Y-40454819D01*
X76261905Y-61454819D02*
X76261905Y-60454819D01*
X76261905Y-60454819D02*
X76500000Y-60454819D01*
X76500000Y-60454819D02*
X76642857Y-60502438D01*
X76642857Y-60502438D02*
X76738095Y-60597676D01*
X76738095Y-60597676D02*
X76785714Y-60692914D01*
X76785714Y-60692914D02*
X76833333Y-60883390D01*
X76833333Y-60883390D02*
X76833333Y-61026247D01*
X76833333Y-61026247D02*
X76785714Y-61216723D01*
X76785714Y-61216723D02*
X76738095Y-61311961D01*
X76738095Y-61311961D02*
X76642857Y-61407200D01*
X76642857Y-61407200D02*
X76500000Y-61454819D01*
X76500000Y-61454819D02*
X76261905Y-61454819D01*
X77785714Y-61454819D02*
X77214286Y-61454819D01*
X77500000Y-61454819D02*
X77500000Y-60454819D01*
X77500000Y-60454819D02*
X77404762Y-60597676D01*
X77404762Y-60597676D02*
X77309524Y-60692914D01*
X77309524Y-60692914D02*
X77214286Y-60740533D01*
X66454819Y-41833333D02*
X67169104Y-41833333D01*
X67169104Y-41833333D02*
X67311961Y-41880952D01*
X67311961Y-41880952D02*
X67407200Y-41976190D01*
X67407200Y-41976190D02*
X67454819Y-42119047D01*
X67454819Y-42119047D02*
X67454819Y-42214285D01*
X66550057Y-41404761D02*
X66502438Y-41357142D01*
X66502438Y-41357142D02*
X66454819Y-41261904D01*
X66454819Y-41261904D02*
X66454819Y-41023809D01*
X66454819Y-41023809D02*
X66502438Y-40928571D01*
X66502438Y-40928571D02*
X66550057Y-40880952D01*
X66550057Y-40880952D02*
X66645295Y-40833333D01*
X66645295Y-40833333D02*
X66740533Y-40833333D01*
X66740533Y-40833333D02*
X66883390Y-40880952D01*
X66883390Y-40880952D02*
X67454819Y-41452380D01*
X67454819Y-41452380D02*
X67454819Y-40833333D01*
X90354819Y-52670833D02*
X91069104Y-52670833D01*
X91069104Y-52670833D02*
X91211961Y-52718452D01*
X91211961Y-52718452D02*
X91307200Y-52813690D01*
X91307200Y-52813690D02*
X91354819Y-52956547D01*
X91354819Y-52956547D02*
X91354819Y-53051785D01*
X90354819Y-52289880D02*
X90354819Y-51670833D01*
X90354819Y-51670833D02*
X90735771Y-52004166D01*
X90735771Y-52004166D02*
X90735771Y-51861309D01*
X90735771Y-51861309D02*
X90783390Y-51766071D01*
X90783390Y-51766071D02*
X90831009Y-51718452D01*
X90831009Y-51718452D02*
X90926247Y-51670833D01*
X90926247Y-51670833D02*
X91164342Y-51670833D01*
X91164342Y-51670833D02*
X91259580Y-51718452D01*
X91259580Y-51718452D02*
X91307200Y-51766071D01*
X91307200Y-51766071D02*
X91354819Y-51861309D01*
X91354819Y-51861309D02*
X91354819Y-52147023D01*
X91354819Y-52147023D02*
X91307200Y-52242261D01*
X91307200Y-52242261D02*
X91259580Y-52289880D01*
X64857200Y-64883332D02*
X64904819Y-64740475D01*
X64904819Y-64740475D02*
X64904819Y-64502380D01*
X64904819Y-64502380D02*
X64857200Y-64407142D01*
X64857200Y-64407142D02*
X64809580Y-64359523D01*
X64809580Y-64359523D02*
X64714342Y-64311904D01*
X64714342Y-64311904D02*
X64619104Y-64311904D01*
X64619104Y-64311904D02*
X64523866Y-64359523D01*
X64523866Y-64359523D02*
X64476247Y-64407142D01*
X64476247Y-64407142D02*
X64428628Y-64502380D01*
X64428628Y-64502380D02*
X64381009Y-64692856D01*
X64381009Y-64692856D02*
X64333390Y-64788094D01*
X64333390Y-64788094D02*
X64285771Y-64835713D01*
X64285771Y-64835713D02*
X64190533Y-64883332D01*
X64190533Y-64883332D02*
X64095295Y-64883332D01*
X64095295Y-64883332D02*
X64000057Y-64835713D01*
X64000057Y-64835713D02*
X63952438Y-64788094D01*
X63952438Y-64788094D02*
X63904819Y-64692856D01*
X63904819Y-64692856D02*
X63904819Y-64454761D01*
X63904819Y-64454761D02*
X63952438Y-64311904D01*
X63904819Y-63978570D02*
X64904819Y-63740475D01*
X64904819Y-63740475D02*
X64190533Y-63549999D01*
X64190533Y-63549999D02*
X64904819Y-63359523D01*
X64904819Y-63359523D02*
X63904819Y-63121428D01*
X64904819Y-62216666D02*
X64904819Y-62788094D01*
X64904819Y-62502380D02*
X63904819Y-62502380D01*
X63904819Y-62502380D02*
X64047676Y-62597618D01*
X64047676Y-62597618D02*
X64142914Y-62692856D01*
X64142914Y-62692856D02*
X64190533Y-62788094D01*
X74039580Y-61140414D02*
X74087200Y-61188033D01*
X74087200Y-61188033D02*
X74134819Y-61330890D01*
X74134819Y-61330890D02*
X74134819Y-61426128D01*
X74134819Y-61426128D02*
X74087200Y-61568985D01*
X74087200Y-61568985D02*
X73991961Y-61664223D01*
X73991961Y-61664223D02*
X73896723Y-61711842D01*
X73896723Y-61711842D02*
X73706247Y-61759461D01*
X73706247Y-61759461D02*
X73563390Y-61759461D01*
X73563390Y-61759461D02*
X73372914Y-61711842D01*
X73372914Y-61711842D02*
X73277676Y-61664223D01*
X73277676Y-61664223D02*
X73182438Y-61568985D01*
X73182438Y-61568985D02*
X73134819Y-61426128D01*
X73134819Y-61426128D02*
X73134819Y-61330890D01*
X73134819Y-61330890D02*
X73182438Y-61188033D01*
X73182438Y-61188033D02*
X73230057Y-61140414D01*
X73134819Y-60283271D02*
X73134819Y-60473747D01*
X73134819Y-60473747D02*
X73182438Y-60568985D01*
X73182438Y-60568985D02*
X73230057Y-60616604D01*
X73230057Y-60616604D02*
X73372914Y-60711842D01*
X73372914Y-60711842D02*
X73563390Y-60759461D01*
X73563390Y-60759461D02*
X73944342Y-60759461D01*
X73944342Y-60759461D02*
X74039580Y-60711842D01*
X74039580Y-60711842D02*
X74087200Y-60664223D01*
X74087200Y-60664223D02*
X74134819Y-60568985D01*
X74134819Y-60568985D02*
X74134819Y-60378509D01*
X74134819Y-60378509D02*
X74087200Y-60283271D01*
X74087200Y-60283271D02*
X74039580Y-60235652D01*
X74039580Y-60235652D02*
X73944342Y-60188033D01*
X73944342Y-60188033D02*
X73706247Y-60188033D01*
X73706247Y-60188033D02*
X73611009Y-60235652D01*
X73611009Y-60235652D02*
X73563390Y-60283271D01*
X73563390Y-60283271D02*
X73515771Y-60378509D01*
X73515771Y-60378509D02*
X73515771Y-60568985D01*
X73515771Y-60568985D02*
X73563390Y-60664223D01*
X73563390Y-60664223D02*
X73611009Y-60711842D01*
X73611009Y-60711842D02*
X73706247Y-60759461D01*
X59833333Y-56539580D02*
X59785714Y-56587200D01*
X59785714Y-56587200D02*
X59642857Y-56634819D01*
X59642857Y-56634819D02*
X59547619Y-56634819D01*
X59547619Y-56634819D02*
X59404762Y-56587200D01*
X59404762Y-56587200D02*
X59309524Y-56491961D01*
X59309524Y-56491961D02*
X59261905Y-56396723D01*
X59261905Y-56396723D02*
X59214286Y-56206247D01*
X59214286Y-56206247D02*
X59214286Y-56063390D01*
X59214286Y-56063390D02*
X59261905Y-55872914D01*
X59261905Y-55872914D02*
X59309524Y-55777676D01*
X59309524Y-55777676D02*
X59404762Y-55682438D01*
X59404762Y-55682438D02*
X59547619Y-55634819D01*
X59547619Y-55634819D02*
X59642857Y-55634819D01*
X59642857Y-55634819D02*
X59785714Y-55682438D01*
X59785714Y-55682438D02*
X59833333Y-55730057D01*
X60785714Y-56634819D02*
X60214286Y-56634819D01*
X60500000Y-56634819D02*
X60500000Y-55634819D01*
X60500000Y-55634819D02*
X60404762Y-55777676D01*
X60404762Y-55777676D02*
X60309524Y-55872914D01*
X60309524Y-55872914D02*
X60214286Y-55920533D01*
X64166666Y-69454819D02*
X64166666Y-70169104D01*
X64166666Y-70169104D02*
X64119047Y-70311961D01*
X64119047Y-70311961D02*
X64023809Y-70407200D01*
X64023809Y-70407200D02*
X63880952Y-70454819D01*
X63880952Y-70454819D02*
X63785714Y-70454819D01*
X65166666Y-70454819D02*
X64595238Y-70454819D01*
X64880952Y-70454819D02*
X64880952Y-69454819D01*
X64880952Y-69454819D02*
X64785714Y-69597676D01*
X64785714Y-69597676D02*
X64690476Y-69692914D01*
X64690476Y-69692914D02*
X64595238Y-69740533D01*
X94238095Y-65954819D02*
X94238095Y-66764342D01*
X94238095Y-66764342D02*
X94285714Y-66859580D01*
X94285714Y-66859580D02*
X94333333Y-66907200D01*
X94333333Y-66907200D02*
X94428571Y-66954819D01*
X94428571Y-66954819D02*
X94619047Y-66954819D01*
X94619047Y-66954819D02*
X94714285Y-66907200D01*
X94714285Y-66907200D02*
X94761904Y-66859580D01*
X94761904Y-66859580D02*
X94809523Y-66764342D01*
X94809523Y-66764342D02*
X94809523Y-65954819D01*
X95190476Y-65954819D02*
X95809523Y-65954819D01*
X95809523Y-65954819D02*
X95476190Y-66335771D01*
X95476190Y-66335771D02*
X95619047Y-66335771D01*
X95619047Y-66335771D02*
X95714285Y-66383390D01*
X95714285Y-66383390D02*
X95761904Y-66431009D01*
X95761904Y-66431009D02*
X95809523Y-66526247D01*
X95809523Y-66526247D02*
X95809523Y-66764342D01*
X95809523Y-66764342D02*
X95761904Y-66859580D01*
X95761904Y-66859580D02*
X95714285Y-66907200D01*
X95714285Y-66907200D02*
X95619047Y-66954819D01*
X95619047Y-66954819D02*
X95333333Y-66954819D01*
X95333333Y-66954819D02*
X95238095Y-66907200D01*
X95238095Y-66907200D02*
X95190476Y-66859580D01*
X80333333Y-61454819D02*
X80000000Y-60978628D01*
X79761905Y-61454819D02*
X79761905Y-60454819D01*
X79761905Y-60454819D02*
X80142857Y-60454819D01*
X80142857Y-60454819D02*
X80238095Y-60502438D01*
X80238095Y-60502438D02*
X80285714Y-60550057D01*
X80285714Y-60550057D02*
X80333333Y-60645295D01*
X80333333Y-60645295D02*
X80333333Y-60788152D01*
X80333333Y-60788152D02*
X80285714Y-60883390D01*
X80285714Y-60883390D02*
X80238095Y-60931009D01*
X80238095Y-60931009D02*
X80142857Y-60978628D01*
X80142857Y-60978628D02*
X79761905Y-60978628D01*
X80714286Y-60550057D02*
X80761905Y-60502438D01*
X80761905Y-60502438D02*
X80857143Y-60454819D01*
X80857143Y-60454819D02*
X81095238Y-60454819D01*
X81095238Y-60454819D02*
X81190476Y-60502438D01*
X81190476Y-60502438D02*
X81238095Y-60550057D01*
X81238095Y-60550057D02*
X81285714Y-60645295D01*
X81285714Y-60645295D02*
X81285714Y-60740533D01*
X81285714Y-60740533D02*
X81238095Y-60883390D01*
X81238095Y-60883390D02*
X80666667Y-61454819D01*
X80666667Y-61454819D02*
X81285714Y-61454819D01*
X65359580Y-60166666D02*
X65407200Y-60214285D01*
X65407200Y-60214285D02*
X65454819Y-60357142D01*
X65454819Y-60357142D02*
X65454819Y-60452380D01*
X65454819Y-60452380D02*
X65407200Y-60595237D01*
X65407200Y-60595237D02*
X65311961Y-60690475D01*
X65311961Y-60690475D02*
X65216723Y-60738094D01*
X65216723Y-60738094D02*
X65026247Y-60785713D01*
X65026247Y-60785713D02*
X64883390Y-60785713D01*
X64883390Y-60785713D02*
X64692914Y-60738094D01*
X64692914Y-60738094D02*
X64597676Y-60690475D01*
X64597676Y-60690475D02*
X64502438Y-60595237D01*
X64502438Y-60595237D02*
X64454819Y-60452380D01*
X64454819Y-60452380D02*
X64454819Y-60357142D01*
X64454819Y-60357142D02*
X64502438Y-60214285D01*
X64502438Y-60214285D02*
X64550057Y-60166666D01*
X64454819Y-59833332D02*
X64454819Y-59214285D01*
X64454819Y-59214285D02*
X64835771Y-59547618D01*
X64835771Y-59547618D02*
X64835771Y-59404761D01*
X64835771Y-59404761D02*
X64883390Y-59309523D01*
X64883390Y-59309523D02*
X64931009Y-59261904D01*
X64931009Y-59261904D02*
X65026247Y-59214285D01*
X65026247Y-59214285D02*
X65264342Y-59214285D01*
X65264342Y-59214285D02*
X65359580Y-59261904D01*
X65359580Y-59261904D02*
X65407200Y-59309523D01*
X65407200Y-59309523D02*
X65454819Y-59404761D01*
X65454819Y-59404761D02*
X65454819Y-59690475D01*
X65454819Y-59690475D02*
X65407200Y-59785713D01*
X65407200Y-59785713D02*
X65359580Y-59833332D01*
%TO.C,C9*%
D13*
X99238748Y-62265000D02*
X99761252Y-62265000D01*
X99238748Y-63735000D02*
X99761252Y-63735000D01*
%TO.C,U1*%
X65640000Y-50052500D02*
X66090000Y-50052500D01*
X65640000Y-50502500D02*
X65640000Y-50052500D01*
X65640000Y-57272500D02*
X65640000Y-56822500D01*
X66090000Y-57272500D02*
X65640000Y-57272500D01*
X72410000Y-50052500D02*
X72860000Y-50052500D01*
X72860000Y-50052500D02*
X72860000Y-50502500D01*
X72860000Y-56822500D02*
X72860000Y-57272500D01*
X72860000Y-57272500D02*
X72410000Y-57272500D01*
X65000000Y-50502500D02*
X64660000Y-50032500D01*
X65340000Y-50032500D01*
X65000000Y-50502500D01*
G36*
X65000000Y-50502500D02*
G01*
X64660000Y-50032500D01*
X65340000Y-50032500D01*
X65000000Y-50502500D01*
G37*
%TO.C,R1*%
X65765000Y-46227064D02*
X65765000Y-45772936D01*
X67235000Y-46227064D02*
X67235000Y-45772936D01*
%TO.C,U4*%
X73500000Y-64500000D02*
X70500000Y-64500000D01*
X73500000Y-67500000D02*
X70500000Y-67500000D01*
X70150000Y-64600000D02*
X69910000Y-64270000D01*
X70390000Y-64270000D01*
X70150000Y-64600000D01*
G36*
X70150000Y-64600000D02*
G01*
X69910000Y-64270000D01*
X70390000Y-64270000D01*
X70150000Y-64600000D01*
G37*
%TO.C,C5*%
X63765000Y-48261252D02*
X63765000Y-47738748D01*
X65235000Y-48261252D02*
X65235000Y-47738748D01*
%TO.C,C4*%
X61265000Y-50211252D02*
X61265000Y-49688748D01*
X62735000Y-50211252D02*
X62735000Y-49688748D01*
%TO.C,U2*%
X80580000Y-47815000D02*
X87420000Y-47815000D01*
X80580000Y-48105000D02*
X80580000Y-47815000D01*
X80580000Y-57185000D02*
X80580000Y-56895000D01*
X87420000Y-47815000D02*
X87420000Y-48105000D01*
X87420000Y-56895000D02*
X87420000Y-57185000D01*
X87420000Y-57185000D02*
X80580000Y-57185000D01*
X79470000Y-49280000D02*
X79810000Y-49750000D01*
X79130000Y-49750000D01*
X79470000Y-49280000D01*
G36*
X79810000Y-49750000D02*
G01*
X79130000Y-49750000D01*
X79470000Y-49280000D01*
X79810000Y-49750000D01*
G37*
%TO.C,J4*%
X78065000Y-71445000D02*
X80848233Y-71445000D01*
X78065000Y-80565000D02*
X78065000Y-71445000D01*
X79065000Y-81565000D02*
X78065000Y-80565000D01*
X83848233Y-71445000D02*
X82151767Y-71445000D01*
X86490000Y-71445000D02*
X85151767Y-71445000D01*
X89935000Y-81565000D02*
X79065000Y-81565000D01*
X90935000Y-71445000D02*
X88510000Y-71445000D01*
X90935000Y-71445000D02*
X90935000Y-80565000D01*
X90935000Y-80565000D02*
X89935000Y-81565000D01*
%TO.C,C7*%
X57765000Y-50261252D02*
X57765000Y-49738748D01*
X59235000Y-50261252D02*
X59235000Y-49738748D01*
%TO.C,R4*%
X78227064Y-65765000D02*
X77772936Y-65765000D01*
X78227064Y-67235000D02*
X77772936Y-67235000D01*
%TO.C,C10*%
X77738748Y-63265000D02*
X78261252Y-63265000D01*
X77738748Y-64735000D02*
X78261252Y-64735000D01*
%TO.C,C2*%
X74765000Y-48761252D02*
X74765000Y-48238748D01*
X76235000Y-48761252D02*
X76235000Y-48238748D01*
%TO.C,R3*%
X90227064Y-64265000D02*
X89772936Y-64265000D01*
X90227064Y-65735000D02*
X89772936Y-65735000D01*
%TO.C,C8*%
X90761252Y-60765000D02*
X90238748Y-60765000D01*
X90761252Y-62235000D02*
X90238748Y-62235000D01*
%TO.C,D1*%
X76062500Y-59960000D02*
X78747500Y-59960000D01*
X78747500Y-58040000D02*
X76062500Y-58040000D01*
X78747500Y-59960000D02*
X78747500Y-58040000D01*
%TO.C,J2*%
X68090000Y-39400000D02*
X68090000Y-44600000D01*
X78310000Y-42000000D02*
X78310000Y-44600000D01*
X78310000Y-44600000D02*
X68090000Y-44600000D01*
X80910000Y-39400000D02*
X68090000Y-39400000D01*
X80910000Y-39400000D02*
X80910000Y-42000000D01*
X80910000Y-42000000D02*
X78310000Y-42000000D01*
X80910000Y-43270000D02*
X80910000Y-44600000D01*
X80910000Y-44600000D02*
X79580000Y-44600000D01*
%TO.C,J3*%
X92020000Y-44577500D02*
X92020000Y-60097500D01*
X92020000Y-44577500D02*
X109980000Y-44577500D01*
X92020000Y-60097500D02*
X109980000Y-60097500D01*
X95400000Y-60782500D02*
X96400000Y-60782500D01*
X95900000Y-60282500D02*
X95400000Y-60782500D01*
X96400000Y-60782500D02*
X95900000Y-60282500D01*
X109980000Y-60097500D02*
X109980000Y-44577500D01*
%TO.C,SW1*%
X57400000Y-60150000D02*
X57400000Y-66850000D01*
X57400000Y-60150000D02*
X57600000Y-60150000D01*
X57400000Y-66850000D02*
X57600000Y-66850000D01*
X61700000Y-60150000D02*
X59300000Y-60150000D01*
X61700000Y-66850000D02*
X59300000Y-66850000D01*
X63600000Y-60150000D02*
X63400000Y-60150000D01*
X63600000Y-66850000D02*
X63400000Y-66850000D01*
X63600000Y-66850000D02*
X63600000Y-60150000D01*
%TO.C,C6*%
X71265000Y-60712496D02*
X71265000Y-61235000D01*
X72735000Y-60712496D02*
X72735000Y-61235000D01*
%TO.C,C1*%
X60261252Y-53765000D02*
X59738748Y-53765000D01*
X60261252Y-55235000D02*
X59738748Y-55235000D01*
%TO.C,J1*%
X63565000Y-71410000D02*
X66348233Y-71410000D01*
X63565000Y-80530000D02*
X63565000Y-71410000D01*
X64565000Y-81530000D02*
X63565000Y-80530000D01*
X69348233Y-71410000D02*
X67651767Y-71410000D01*
X71990000Y-71410000D02*
X70651767Y-71410000D01*
X75435000Y-81530000D02*
X64565000Y-81530000D01*
X76435000Y-71410000D02*
X74010000Y-71410000D01*
X76435000Y-71410000D02*
X76435000Y-80530000D01*
X76435000Y-80530000D02*
X75435000Y-81530000D01*
%TO.C,U3*%
X94090000Y-62440000D02*
X95910000Y-62440000D01*
X94090000Y-62490000D02*
X94090000Y-62440000D01*
X94090000Y-65560000D02*
X94090000Y-65510000D01*
X95910000Y-62440000D02*
X95910000Y-62490000D01*
X95910000Y-63610000D02*
X95910000Y-64390000D01*
X95910000Y-65510000D02*
X95910000Y-65560000D01*
X95910000Y-65560000D02*
X94090000Y-65560000D01*
X93550000Y-62490000D02*
X93310000Y-62160000D01*
X93790000Y-62160000D01*
X93550000Y-62490000D01*
G36*
X93550000Y-62490000D02*
G01*
X93310000Y-62160000D01*
X93790000Y-62160000D01*
X93550000Y-62490000D01*
G37*
%TO.C,R2*%
X80335436Y-58265000D02*
X80789564Y-58265000D01*
X80335436Y-59735000D02*
X80789564Y-59735000D01*
%TO.C,C3*%
X65765000Y-60738748D02*
X65765000Y-61261252D01*
X67235000Y-60738748D02*
X67235000Y-61261252D01*
%TD*%
M02*
