%TF.GenerationSoftware,KiCad,Pcbnew,10.0.6*%
%TF.CreationDate,2026-10-06T17:14:08-05:00*%
%TF.ProjectId,onboarding_1,6f6e626f-6172-4646-996e-675f312e6b69,1*%
%TF.SameCoordinates,Original*%
%TF.FileFunction,Legend,Bot*%
%TF.FilePolarity,Positive*%
%FSLAX46Y46*%
G04 Gerber Fmt 4.6, Leading zero omitted, Abs format (unit mm)*
G04 Created by KiCad (PCBNEW 10.0.6) date 2026-10-06 17:14:08*
%MOMM*%
%LPD*%
G01*
G04 APERTURE LIST*
%ADD10C,0.100000*%
G04 APERTURE END LIST*
D10*
X95624687Y-38372419D02*
X95958020Y-37896228D01*
X96196115Y-38372419D02*
X96196115Y-37372419D01*
X96196115Y-37372419D02*
X95815163Y-37372419D01*
X95815163Y-37372419D02*
X95719925Y-37420038D01*
X95719925Y-37420038D02*
X95672306Y-37467657D01*
X95672306Y-37467657D02*
X95624687Y-37562895D01*
X95624687Y-37562895D02*
X95624687Y-37705752D01*
X95624687Y-37705752D02*
X95672306Y-37800990D01*
X95672306Y-37800990D02*
X95719925Y-37848609D01*
X95719925Y-37848609D02*
X95815163Y-37896228D01*
X95815163Y-37896228D02*
X96196115Y-37896228D01*
X95196115Y-38372419D02*
X95196115Y-37705752D01*
X95196115Y-37372419D02*
X95243734Y-37420038D01*
X95243734Y-37420038D02*
X95196115Y-37467657D01*
X95196115Y-37467657D02*
X95148496Y-37420038D01*
X95148496Y-37420038D02*
X95196115Y-37372419D01*
X95196115Y-37372419D02*
X95196115Y-37467657D01*
X94291354Y-38324800D02*
X94386592Y-38372419D01*
X94386592Y-38372419D02*
X94577068Y-38372419D01*
X94577068Y-38372419D02*
X94672306Y-38324800D01*
X94672306Y-38324800D02*
X94719925Y-38277180D01*
X94719925Y-38277180D02*
X94767544Y-38181942D01*
X94767544Y-38181942D02*
X94767544Y-37896228D01*
X94767544Y-37896228D02*
X94719925Y-37800990D01*
X94719925Y-37800990D02*
X94672306Y-37753371D01*
X94672306Y-37753371D02*
X94577068Y-37705752D01*
X94577068Y-37705752D02*
X94386592Y-37705752D01*
X94386592Y-37705752D02*
X94291354Y-37753371D01*
X93862782Y-38372419D02*
X93862782Y-37372419D01*
X93434211Y-38372419D02*
X93434211Y-37848609D01*
X93434211Y-37848609D02*
X93481830Y-37753371D01*
X93481830Y-37753371D02*
X93577068Y-37705752D01*
X93577068Y-37705752D02*
X93719925Y-37705752D01*
X93719925Y-37705752D02*
X93815163Y-37753371D01*
X93815163Y-37753371D02*
X93862782Y-37800990D01*
X92529449Y-38372419D02*
X92529449Y-37848609D01*
X92529449Y-37848609D02*
X92577068Y-37753371D01*
X92577068Y-37753371D02*
X92672306Y-37705752D01*
X92672306Y-37705752D02*
X92862782Y-37705752D01*
X92862782Y-37705752D02*
X92958020Y-37753371D01*
X92529449Y-38324800D02*
X92624687Y-38372419D01*
X92624687Y-38372419D02*
X92862782Y-38372419D01*
X92862782Y-38372419D02*
X92958020Y-38324800D01*
X92958020Y-38324800D02*
X93005639Y-38229561D01*
X93005639Y-38229561D02*
X93005639Y-38134323D01*
X93005639Y-38134323D02*
X92958020Y-38039085D01*
X92958020Y-38039085D02*
X92862782Y-37991466D01*
X92862782Y-37991466D02*
X92624687Y-37991466D01*
X92624687Y-37991466D02*
X92529449Y-37943847D01*
X92053258Y-38372419D02*
X92053258Y-37705752D01*
X92053258Y-37896228D02*
X92005639Y-37800990D01*
X92005639Y-37800990D02*
X91958020Y-37753371D01*
X91958020Y-37753371D02*
X91862782Y-37705752D01*
X91862782Y-37705752D02*
X91767544Y-37705752D01*
X91005639Y-38372419D02*
X91005639Y-37372419D01*
X91005639Y-38324800D02*
X91100877Y-38372419D01*
X91100877Y-38372419D02*
X91291353Y-38372419D01*
X91291353Y-38372419D02*
X91386591Y-38324800D01*
X91386591Y-38324800D02*
X91434210Y-38277180D01*
X91434210Y-38277180D02*
X91481829Y-38181942D01*
X91481829Y-38181942D02*
X91481829Y-37896228D01*
X91481829Y-37896228D02*
X91434210Y-37800990D01*
X91434210Y-37800990D02*
X91386591Y-37753371D01*
X91386591Y-37753371D02*
X91291353Y-37705752D01*
X91291353Y-37705752D02*
X91100877Y-37705752D01*
X91100877Y-37705752D02*
X91005639Y-37753371D01*
X89862781Y-37372419D02*
X89196115Y-37372419D01*
X89196115Y-37372419D02*
X89862781Y-38372419D01*
X89862781Y-38372419D02*
X89196115Y-38372419D01*
X88386591Y-38372419D02*
X88386591Y-37848609D01*
X88386591Y-37848609D02*
X88434210Y-37753371D01*
X88434210Y-37753371D02*
X88529448Y-37705752D01*
X88529448Y-37705752D02*
X88719924Y-37705752D01*
X88719924Y-37705752D02*
X88815162Y-37753371D01*
X88386591Y-38324800D02*
X88481829Y-38372419D01*
X88481829Y-38372419D02*
X88719924Y-38372419D01*
X88719924Y-38372419D02*
X88815162Y-38324800D01*
X88815162Y-38324800D02*
X88862781Y-38229561D01*
X88862781Y-38229561D02*
X88862781Y-38134323D01*
X88862781Y-38134323D02*
X88815162Y-38039085D01*
X88815162Y-38039085D02*
X88719924Y-37991466D01*
X88719924Y-37991466D02*
X88481829Y-37991466D01*
X88481829Y-37991466D02*
X88386591Y-37943847D01*
X87910400Y-37705752D02*
X87910400Y-38372419D01*
X87910400Y-37800990D02*
X87862781Y-37753371D01*
X87862781Y-37753371D02*
X87767543Y-37705752D01*
X87767543Y-37705752D02*
X87624686Y-37705752D01*
X87624686Y-37705752D02*
X87529448Y-37753371D01*
X87529448Y-37753371D02*
X87481829Y-37848609D01*
X87481829Y-37848609D02*
X87481829Y-38372419D01*
X86577067Y-38372419D02*
X86577067Y-37848609D01*
X86577067Y-37848609D02*
X86624686Y-37753371D01*
X86624686Y-37753371D02*
X86719924Y-37705752D01*
X86719924Y-37705752D02*
X86910400Y-37705752D01*
X86910400Y-37705752D02*
X87005638Y-37753371D01*
X86577067Y-38324800D02*
X86672305Y-38372419D01*
X86672305Y-38372419D02*
X86910400Y-38372419D01*
X86910400Y-38372419D02*
X87005638Y-38324800D01*
X87005638Y-38324800D02*
X87053257Y-38229561D01*
X87053257Y-38229561D02*
X87053257Y-38134323D01*
X87053257Y-38134323D02*
X87005638Y-38039085D01*
X87005638Y-38039085D02*
X86910400Y-37991466D01*
X86910400Y-37991466D02*
X86672305Y-37991466D01*
X86672305Y-37991466D02*
X86577067Y-37943847D01*
X86100876Y-38372419D02*
X86100876Y-37705752D01*
X86100876Y-37896228D02*
X86053257Y-37800990D01*
X86053257Y-37800990D02*
X86005638Y-37753371D01*
X86005638Y-37753371D02*
X85910400Y-37705752D01*
X85910400Y-37705752D02*
X85815162Y-37705752D01*
X85053257Y-38372419D02*
X85053257Y-37372419D01*
X85053257Y-38324800D02*
X85148495Y-38372419D01*
X85148495Y-38372419D02*
X85338971Y-38372419D01*
X85338971Y-38372419D02*
X85434209Y-38324800D01*
X85434209Y-38324800D02*
X85481828Y-38277180D01*
X85481828Y-38277180D02*
X85529447Y-38181942D01*
X85529447Y-38181942D02*
X85529447Y-37896228D01*
X85529447Y-37896228D02*
X85481828Y-37800990D01*
X85481828Y-37800990D02*
X85434209Y-37753371D01*
X85434209Y-37753371D02*
X85338971Y-37705752D01*
X85338971Y-37705752D02*
X85148495Y-37705752D01*
X85148495Y-37705752D02*
X85053257Y-37753371D01*
X84434209Y-38372419D02*
X84529447Y-38324800D01*
X84529447Y-38324800D02*
X84577066Y-38277180D01*
X84577066Y-38277180D02*
X84624685Y-38181942D01*
X84624685Y-38181942D02*
X84624685Y-37896228D01*
X84624685Y-37896228D02*
X84577066Y-37800990D01*
X84577066Y-37800990D02*
X84529447Y-37753371D01*
X84529447Y-37753371D02*
X84434209Y-37705752D01*
X84434209Y-37705752D02*
X84291352Y-37705752D01*
X84291352Y-37705752D02*
X84196114Y-37753371D01*
X84196114Y-37753371D02*
X84148495Y-37800990D01*
X84148495Y-37800990D02*
X84100876Y-37896228D01*
X84100876Y-37896228D02*
X84100876Y-38181942D01*
X84100876Y-38181942D02*
X84148495Y-38277180D01*
X84148495Y-38277180D02*
X84196114Y-38324800D01*
X84196114Y-38324800D02*
X84291352Y-38372419D01*
X84291352Y-38372419D02*
X84434209Y-38372419D01*
X83624685Y-37372419D02*
X83719923Y-37562895D01*
X83243733Y-38324800D02*
X83148495Y-38372419D01*
X83148495Y-38372419D02*
X82958019Y-38372419D01*
X82958019Y-38372419D02*
X82862781Y-38324800D01*
X82862781Y-38324800D02*
X82815162Y-38229561D01*
X82815162Y-38229561D02*
X82815162Y-38181942D01*
X82815162Y-38181942D02*
X82862781Y-38086704D01*
X82862781Y-38086704D02*
X82958019Y-38039085D01*
X82958019Y-38039085D02*
X83100876Y-38039085D01*
X83100876Y-38039085D02*
X83196114Y-37991466D01*
X83196114Y-37991466D02*
X83243733Y-37896228D01*
X83243733Y-37896228D02*
X83243733Y-37848609D01*
X83243733Y-37848609D02*
X83196114Y-37753371D01*
X83196114Y-37753371D02*
X83100876Y-37705752D01*
X83100876Y-37705752D02*
X82958019Y-37705752D01*
X82958019Y-37705752D02*
X82862781Y-37753371D01*
X81434209Y-37372419D02*
X81243733Y-37372419D01*
X81243733Y-37372419D02*
X81148495Y-37420038D01*
X81148495Y-37420038D02*
X81053257Y-37515276D01*
X81053257Y-37515276D02*
X81005638Y-37705752D01*
X81005638Y-37705752D02*
X81005638Y-38039085D01*
X81005638Y-38039085D02*
X81053257Y-38229561D01*
X81053257Y-38229561D02*
X81148495Y-38324800D01*
X81148495Y-38324800D02*
X81243733Y-38372419D01*
X81243733Y-38372419D02*
X81434209Y-38372419D01*
X81434209Y-38372419D02*
X81529447Y-38324800D01*
X81529447Y-38324800D02*
X81624685Y-38229561D01*
X81624685Y-38229561D02*
X81672304Y-38039085D01*
X81672304Y-38039085D02*
X81672304Y-37705752D01*
X81672304Y-37705752D02*
X81624685Y-37515276D01*
X81624685Y-37515276D02*
X81529447Y-37420038D01*
X81529447Y-37420038D02*
X81434209Y-37372419D01*
X80577066Y-37705752D02*
X80577066Y-38372419D01*
X80577066Y-37800990D02*
X80529447Y-37753371D01*
X80529447Y-37753371D02*
X80434209Y-37705752D01*
X80434209Y-37705752D02*
X80291352Y-37705752D01*
X80291352Y-37705752D02*
X80196114Y-37753371D01*
X80196114Y-37753371D02*
X80148495Y-37848609D01*
X80148495Y-37848609D02*
X80148495Y-38372419D01*
X79672304Y-38372419D02*
X79672304Y-37372419D01*
X79672304Y-37753371D02*
X79577066Y-37705752D01*
X79577066Y-37705752D02*
X79386590Y-37705752D01*
X79386590Y-37705752D02*
X79291352Y-37753371D01*
X79291352Y-37753371D02*
X79243733Y-37800990D01*
X79243733Y-37800990D02*
X79196114Y-37896228D01*
X79196114Y-37896228D02*
X79196114Y-38181942D01*
X79196114Y-38181942D02*
X79243733Y-38277180D01*
X79243733Y-38277180D02*
X79291352Y-38324800D01*
X79291352Y-38324800D02*
X79386590Y-38372419D01*
X79386590Y-38372419D02*
X79577066Y-38372419D01*
X79577066Y-38372419D02*
X79672304Y-38324800D01*
X78624685Y-38372419D02*
X78719923Y-38324800D01*
X78719923Y-38324800D02*
X78767542Y-38277180D01*
X78767542Y-38277180D02*
X78815161Y-38181942D01*
X78815161Y-38181942D02*
X78815161Y-37896228D01*
X78815161Y-37896228D02*
X78767542Y-37800990D01*
X78767542Y-37800990D02*
X78719923Y-37753371D01*
X78719923Y-37753371D02*
X78624685Y-37705752D01*
X78624685Y-37705752D02*
X78481828Y-37705752D01*
X78481828Y-37705752D02*
X78386590Y-37753371D01*
X78386590Y-37753371D02*
X78338971Y-37800990D01*
X78338971Y-37800990D02*
X78291352Y-37896228D01*
X78291352Y-37896228D02*
X78291352Y-38181942D01*
X78291352Y-38181942D02*
X78338971Y-38277180D01*
X78338971Y-38277180D02*
X78386590Y-38324800D01*
X78386590Y-38324800D02*
X78481828Y-38372419D01*
X78481828Y-38372419D02*
X78624685Y-38372419D01*
X77434209Y-38372419D02*
X77434209Y-37848609D01*
X77434209Y-37848609D02*
X77481828Y-37753371D01*
X77481828Y-37753371D02*
X77577066Y-37705752D01*
X77577066Y-37705752D02*
X77767542Y-37705752D01*
X77767542Y-37705752D02*
X77862780Y-37753371D01*
X77434209Y-38324800D02*
X77529447Y-38372419D01*
X77529447Y-38372419D02*
X77767542Y-38372419D01*
X77767542Y-38372419D02*
X77862780Y-38324800D01*
X77862780Y-38324800D02*
X77910399Y-38229561D01*
X77910399Y-38229561D02*
X77910399Y-38134323D01*
X77910399Y-38134323D02*
X77862780Y-38039085D01*
X77862780Y-38039085D02*
X77767542Y-37991466D01*
X77767542Y-37991466D02*
X77529447Y-37991466D01*
X77529447Y-37991466D02*
X77434209Y-37943847D01*
X76958018Y-38372419D02*
X76958018Y-37705752D01*
X76958018Y-37896228D02*
X76910399Y-37800990D01*
X76910399Y-37800990D02*
X76862780Y-37753371D01*
X76862780Y-37753371D02*
X76767542Y-37705752D01*
X76767542Y-37705752D02*
X76672304Y-37705752D01*
X75910399Y-38372419D02*
X75910399Y-37372419D01*
X75910399Y-38324800D02*
X76005637Y-38372419D01*
X76005637Y-38372419D02*
X76196113Y-38372419D01*
X76196113Y-38372419D02*
X76291351Y-38324800D01*
X76291351Y-38324800D02*
X76338970Y-38277180D01*
X76338970Y-38277180D02*
X76386589Y-38181942D01*
X76386589Y-38181942D02*
X76386589Y-37896228D01*
X76386589Y-37896228D02*
X76338970Y-37800990D01*
X76338970Y-37800990D02*
X76291351Y-37753371D01*
X76291351Y-37753371D02*
X76196113Y-37705752D01*
X76196113Y-37705752D02*
X76005637Y-37705752D01*
X76005637Y-37705752D02*
X75910399Y-37753371D01*
X75434208Y-38372419D02*
X75434208Y-37705752D01*
X75434208Y-37372419D02*
X75481827Y-37420038D01*
X75481827Y-37420038D02*
X75434208Y-37467657D01*
X75434208Y-37467657D02*
X75386589Y-37420038D01*
X75386589Y-37420038D02*
X75434208Y-37372419D01*
X75434208Y-37372419D02*
X75434208Y-37467657D01*
X74958018Y-37705752D02*
X74958018Y-38372419D01*
X74958018Y-37800990D02*
X74910399Y-37753371D01*
X74910399Y-37753371D02*
X74815161Y-37705752D01*
X74815161Y-37705752D02*
X74672304Y-37705752D01*
X74672304Y-37705752D02*
X74577066Y-37753371D01*
X74577066Y-37753371D02*
X74529447Y-37848609D01*
X74529447Y-37848609D02*
X74529447Y-38372419D01*
X73624685Y-37705752D02*
X73624685Y-38515276D01*
X73624685Y-38515276D02*
X73672304Y-38610514D01*
X73672304Y-38610514D02*
X73719923Y-38658133D01*
X73719923Y-38658133D02*
X73815161Y-38705752D01*
X73815161Y-38705752D02*
X73958018Y-38705752D01*
X73958018Y-38705752D02*
X74053256Y-38658133D01*
X73624685Y-38324800D02*
X73719923Y-38372419D01*
X73719923Y-38372419D02*
X73910399Y-38372419D01*
X73910399Y-38372419D02*
X74005637Y-38324800D01*
X74005637Y-38324800D02*
X74053256Y-38277180D01*
X74053256Y-38277180D02*
X74100875Y-38181942D01*
X74100875Y-38181942D02*
X74100875Y-37896228D01*
X74100875Y-37896228D02*
X74053256Y-37800990D01*
X74053256Y-37800990D02*
X74005637Y-37753371D01*
X74005637Y-37753371D02*
X73910399Y-37705752D01*
X73910399Y-37705752D02*
X73719923Y-37705752D01*
X73719923Y-37705752D02*
X73624685Y-37753371D01*
X72386589Y-38372419D02*
X72386589Y-37372419D01*
X72386589Y-37372419D02*
X72005637Y-37372419D01*
X72005637Y-37372419D02*
X71910399Y-37420038D01*
X71910399Y-37420038D02*
X71862780Y-37467657D01*
X71862780Y-37467657D02*
X71815161Y-37562895D01*
X71815161Y-37562895D02*
X71815161Y-37705752D01*
X71815161Y-37705752D02*
X71862780Y-37800990D01*
X71862780Y-37800990D02*
X71910399Y-37848609D01*
X71910399Y-37848609D02*
X72005637Y-37896228D01*
X72005637Y-37896228D02*
X72386589Y-37896228D01*
X71386589Y-38372419D02*
X71386589Y-37705752D01*
X71386589Y-37896228D02*
X71338970Y-37800990D01*
X71338970Y-37800990D02*
X71291351Y-37753371D01*
X71291351Y-37753371D02*
X71196113Y-37705752D01*
X71196113Y-37705752D02*
X71100875Y-37705752D01*
X70624684Y-38372419D02*
X70719922Y-38324800D01*
X70719922Y-38324800D02*
X70767541Y-38277180D01*
X70767541Y-38277180D02*
X70815160Y-38181942D01*
X70815160Y-38181942D02*
X70815160Y-37896228D01*
X70815160Y-37896228D02*
X70767541Y-37800990D01*
X70767541Y-37800990D02*
X70719922Y-37753371D01*
X70719922Y-37753371D02*
X70624684Y-37705752D01*
X70624684Y-37705752D02*
X70481827Y-37705752D01*
X70481827Y-37705752D02*
X70386589Y-37753371D01*
X70386589Y-37753371D02*
X70338970Y-37800990D01*
X70338970Y-37800990D02*
X70291351Y-37896228D01*
X70291351Y-37896228D02*
X70291351Y-38181942D01*
X70291351Y-38181942D02*
X70338970Y-38277180D01*
X70338970Y-38277180D02*
X70386589Y-38324800D01*
X70386589Y-38324800D02*
X70481827Y-38372419D01*
X70481827Y-38372419D02*
X70624684Y-38372419D01*
X69862779Y-37705752D02*
X69862779Y-38562895D01*
X69862779Y-38562895D02*
X69910398Y-38658133D01*
X69910398Y-38658133D02*
X70005636Y-38705752D01*
X70005636Y-38705752D02*
X70053255Y-38705752D01*
X69862779Y-37372419D02*
X69910398Y-37420038D01*
X69910398Y-37420038D02*
X69862779Y-37467657D01*
X69862779Y-37467657D02*
X69815160Y-37420038D01*
X69815160Y-37420038D02*
X69862779Y-37372419D01*
X69862779Y-37372419D02*
X69862779Y-37467657D01*
X69005637Y-38324800D02*
X69100875Y-38372419D01*
X69100875Y-38372419D02*
X69291351Y-38372419D01*
X69291351Y-38372419D02*
X69386589Y-38324800D01*
X69386589Y-38324800D02*
X69434208Y-38229561D01*
X69434208Y-38229561D02*
X69434208Y-37848609D01*
X69434208Y-37848609D02*
X69386589Y-37753371D01*
X69386589Y-37753371D02*
X69291351Y-37705752D01*
X69291351Y-37705752D02*
X69100875Y-37705752D01*
X69100875Y-37705752D02*
X69005637Y-37753371D01*
X69005637Y-37753371D02*
X68958018Y-37848609D01*
X68958018Y-37848609D02*
X68958018Y-37943847D01*
X68958018Y-37943847D02*
X69434208Y-38039085D01*
X68100875Y-38324800D02*
X68196113Y-38372419D01*
X68196113Y-38372419D02*
X68386589Y-38372419D01*
X68386589Y-38372419D02*
X68481827Y-38324800D01*
X68481827Y-38324800D02*
X68529446Y-38277180D01*
X68529446Y-38277180D02*
X68577065Y-38181942D01*
X68577065Y-38181942D02*
X68577065Y-37896228D01*
X68577065Y-37896228D02*
X68529446Y-37800990D01*
X68529446Y-37800990D02*
X68481827Y-37753371D01*
X68481827Y-37753371D02*
X68386589Y-37705752D01*
X68386589Y-37705752D02*
X68196113Y-37705752D01*
X68196113Y-37705752D02*
X68100875Y-37753371D01*
X67815160Y-37705752D02*
X67434208Y-37705752D01*
X67672303Y-37372419D02*
X67672303Y-38229561D01*
X67672303Y-38229561D02*
X67624684Y-38324800D01*
X67624684Y-38324800D02*
X67529446Y-38372419D01*
X67529446Y-38372419D02*
X67434208Y-38372419D01*
M02*
