%TF.GenerationSoftware,KiCad,Pcbnew,10.0.6*%
%TF.CreationDate,2026-10-06T17:14:08-05:00*%
%TF.ProjectId,onboarding_1,6f6e626f-6172-4646-996e-675f312e6b69,1*%
%TF.SameCoordinates,Original*%
%TF.FileFunction,Copper,L2,Bot*%
%TF.FilePolarity,Positive*%
%FSLAX46Y46*%
G04 Gerber Fmt 4.6, Leading zero omitted, Abs format (unit mm)*
G04 Created by KiCad (PCBNEW 10.0.6) date 2026-10-06 17:14:08*
%MOMM*%
%LPD*%
G01*
G04 APERTURE LIST*
G04 Aperture macros list*
%AMRoundRect*
0 Rectangle with rounded corners*
0 $1 Rounding radius*
0 $2 $3 $4 $5 $6 $7 $8 $9 X,Y pos of 4 corners*
0 Add a 4 corners polygon primitive as box body*
4,1,4,$2,$3,$4,$5,$6,$7,$8,$9,$2,$3,0*
0 Add four circle primitives for the rounded corners*
1,1,$1+$1,$2,$3*
1,1,$1+$1,$4,$5*
1,1,$1+$1,$6,$7*
1,1,$1+$1,$8,$9*
0 Add four rect primitives between the rounded corners*
20,1,$1+$1,$2,$3,$4,$5,0*
20,1,$1+$1,$4,$5,$6,$7,0*
20,1,$1+$1,$6,$7,$8,$9,0*
20,1,$1+$1,$8,$9,$2,$3,0*%
G04 Aperture macros list end*
%TA.AperFunction,ComponentPad*%
%ADD10RoundRect,0.250001X0.499999X0.759999X-0.499999X0.759999X-0.499999X-0.759999X0.499999X-0.759999X0*%
%TD*%
%TA.AperFunction,ComponentPad*%
%ADD11O,1.500000X2.020000*%
%TD*%
%TA.AperFunction,ComponentPad*%
%ADD12R,1.700000X1.700000*%
%TD*%
%TA.AperFunction,ComponentPad*%
%ADD13C,1.700000*%
%TD*%
%TA.AperFunction,ComponentPad*%
%ADD14R,1.500000X1.500000*%
%TD*%
%TA.AperFunction,ComponentPad*%
%ADD15C,1.500000*%
%TD*%
%TA.AperFunction,ViaPad*%
%ADD16C,0.600000*%
%TD*%
%TA.AperFunction,Conductor*%
%ADD17C,0.200000*%
%TD*%
%TA.AperFunction,Conductor*%
%ADD18C,0.500000*%
%TD*%
G04 APERTURE END LIST*
D10*
%TO.P,J4,1,1_1*%
%TO.N,+5V*%
X87500000Y-72535000D03*
D11*
%TO.P,J4,2,2_2*%
%TO.N,GND*%
X84500000Y-72535000D03*
%TO.P,J4,3,3_3*%
%TO.N,LED_B_5V*%
X81500000Y-72535000D03*
%TD*%
D12*
%TO.P,J2,1,Pin_1_1*%
%TO.N,+5V*%
X79580000Y-43270000D03*
D13*
%TO.P,J2,2,Pin_2_2*%
X79580000Y-40730000D03*
%TO.P,J2,3,Pin_3_3*%
%TO.N,SWCLK*%
X77040000Y-43270000D03*
%TO.P,J2,4,Pin_4_4*%
%TO.N,+3.3V*%
X77040000Y-40730000D03*
%TO.P,J2,5,Pin_5_5*%
%TO.N,SWO*%
X74500000Y-43270000D03*
%TO.P,J2,6,Pin_6_6*%
%TO.N,+3.3V*%
X74500000Y-40730000D03*
%TO.P,J2,7,Pin_7_7*%
%TO.N,SWDIO*%
X71960000Y-43270000D03*
%TO.P,J2,8,Pin_8_8*%
%TO.N,unconnected-(J2-Pin_8-Pad8)*%
X71960000Y-40730000D03*
%TO.P,J2,9,Pin_9_9*%
%TO.N,GND*%
X69420000Y-43270000D03*
%TO.P,J2,10,Pin_10_10*%
X69420000Y-40730000D03*
%TD*%
D14*
%TO.P,J3,1,1_1*%
%TO.N,CAN_HIGH*%
X95900000Y-56782500D03*
D15*
%TO.P,J3,2,2_2*%
%TO.N,CAN_LOW*%
X93360000Y-55512500D03*
%TO.P,J3,3,3_3*%
%TO.N,+5V*%
X95900000Y-54242500D03*
%TO.P,J3,4,4_4*%
%TO.N,GND*%
X93360000Y-52972500D03*
%TO.P,J3,5,5_5*%
%TO.N,+5V*%
X95900000Y-51702500D03*
%TO.P,J3,6,6_6*%
%TO.N,GND*%
X93360000Y-50432500D03*
%TO.P,J3,7,7_7*%
%TO.N,5V_CAN*%
X95900000Y-49162500D03*
%TO.P,J3,8,8_8*%
%TO.N,GND_CAN*%
X93360000Y-47892500D03*
%TD*%
D10*
%TO.P,J1,1,1_1*%
%TO.N,+5V*%
X73000000Y-72500000D03*
D11*
%TO.P,J1,2,2_2*%
%TO.N,GND*%
X70000000Y-72500000D03*
%TO.P,J1,3,3_3*%
%TO.N,LED_A_5V*%
X67000000Y-72500000D03*
%TD*%
D16*
%TO.N,GND*%
X62000000Y-47000000D03*
X72000000Y-63423748D03*
X88000000Y-61500000D03*
X67000000Y-51000000D03*
X75500000Y-46050000D03*
X64500000Y-45500000D03*
X71500000Y-51500000D03*
X100500000Y-65000000D03*
X66500000Y-43500000D03*
X80500000Y-64000000D03*
X58450000Y-47500000D03*
X71500000Y-56500000D03*
X77500000Y-56000000D03*
X66500000Y-54500000D03*
X82975000Y-59000000D03*
X57500000Y-54500000D03*
X92500000Y-64000000D03*
X66500000Y-63500000D03*
%TO.N,CAN_RX*%
X76500000Y-52512500D03*
X77453129Y-51312500D03*
%TO.N,SWDIO*%
X72674265Y-48174265D03*
%TO.N,LED_B_5V*%
X81500000Y-70500000D03*
X75500000Y-68500000D03*
%TO.N,GND_CAN*%
X91000000Y-56112500D03*
%TD*%
%TO.N,CAN_RX*%
D17*
X76500000Y-52512500D02*
X76500000Y-52265629D01*
X76500000Y-52265629D02*
X77453129Y-51312500D01*
%TO.N,SWDIO*%
X72674265Y-48174265D02*
X71960000Y-47460000D01*
X71960000Y-47460000D02*
X71960000Y-43270000D01*
%TO.N,LED_B_5V*%
X75500000Y-68500000D02*
X77500000Y-70500000D01*
X77500000Y-70500000D02*
X81500000Y-70500000D01*
%TO.N,GND_CAN*%
X91000000Y-56112500D02*
X91000000Y-50252500D01*
X91000000Y-50252500D02*
X93360000Y-47892500D01*
%TO.N,+5V*%
D18*
X79580000Y-43270000D02*
X92770000Y-43270000D01*
X98000000Y-48500000D02*
X98000000Y-51500000D01*
X98000000Y-51500000D02*
X97797500Y-51702500D01*
X92770000Y-43270000D02*
X98000000Y-48500000D01*
X79580000Y-40730000D02*
X79580000Y-43270000D01*
X97797500Y-51702500D02*
X95900000Y-51702500D01*
%TD*%
%TA.AperFunction,Conductor*%
%TO.N,GND*%
G36*
X70535270Y-41491717D02*
G01*
X70535270Y-41491716D01*
X70574622Y-41437555D01*
X70579232Y-41428507D01*
X70627205Y-41377709D01*
X70695025Y-41360912D01*
X70761161Y-41383447D01*
X70800204Y-41428504D01*
X70804949Y-41437817D01*
X70929890Y-41609786D01*
X71080213Y-41760109D01*
X71252182Y-41885050D01*
X71260946Y-41889516D01*
X71311742Y-41937491D01*
X71328536Y-42005312D01*
X71305998Y-42071447D01*
X71260946Y-42110484D01*
X71252182Y-42114949D01*
X71080213Y-42239890D01*
X70929890Y-42390213D01*
X70804949Y-42562182D01*
X70800202Y-42571499D01*
X70752227Y-42622293D01*
X70684405Y-42639087D01*
X70618271Y-42616548D01*
X70579234Y-42571495D01*
X70574626Y-42562452D01*
X70535270Y-42508282D01*
X70535269Y-42508282D01*
X69902962Y-43140590D01*
X69885925Y-43077007D01*
X69820099Y-42962993D01*
X69727007Y-42869901D01*
X69612993Y-42804075D01*
X69549409Y-42787037D01*
X70181716Y-42154728D01*
X70127550Y-42115375D01*
X70117954Y-42110486D01*
X70067157Y-42062512D01*
X70050361Y-41994692D01*
X70072897Y-41928556D01*
X70117954Y-41889514D01*
X70127554Y-41884622D01*
X70181716Y-41845270D01*
X70181717Y-41845270D01*
X69549408Y-41212962D01*
X69612993Y-41195925D01*
X69727007Y-41130099D01*
X69820099Y-41037007D01*
X69885925Y-40922993D01*
X69902962Y-40859408D01*
X70535270Y-41491717D01*
G37*
%TD.AperFunction*%
%TA.AperFunction,Conductor*%
G36*
X109442539Y-37020185D02*
G01*
X109488294Y-37072989D01*
X109499500Y-37124500D01*
X109499500Y-80875500D01*
X109479815Y-80942539D01*
X109427011Y-80988294D01*
X109375500Y-80999500D01*
X56124500Y-80999500D01*
X56057461Y-80979815D01*
X56011706Y-80927011D01*
X56000500Y-80875500D01*
X56000500Y-77378711D01*
X57649500Y-77378711D01*
X57649500Y-77621288D01*
X57681161Y-77861785D01*
X57743947Y-78096104D01*
X57819544Y-78278611D01*
X57836776Y-78320212D01*
X57958064Y-78530289D01*
X57958066Y-78530292D01*
X57958067Y-78530293D01*
X58105733Y-78722736D01*
X58105739Y-78722743D01*
X58277256Y-78894260D01*
X58277262Y-78894265D01*
X58469711Y-79041936D01*
X58679788Y-79163224D01*
X58903900Y-79256054D01*
X59138211Y-79318838D01*
X59318586Y-79342584D01*
X59378711Y-79350500D01*
X59378712Y-79350500D01*
X59621289Y-79350500D01*
X59669388Y-79344167D01*
X59861789Y-79318838D01*
X60096100Y-79256054D01*
X60320212Y-79163224D01*
X60530289Y-79041936D01*
X60722738Y-78894265D01*
X60894265Y-78722738D01*
X61041936Y-78530289D01*
X61163224Y-78320212D01*
X61256054Y-78096100D01*
X61318838Y-77861789D01*
X61350500Y-77621288D01*
X61350500Y-77378712D01*
X61318838Y-77138211D01*
X61256054Y-76903900D01*
X61188271Y-76740258D01*
X61173774Y-76705258D01*
X68249500Y-76705258D01*
X68249500Y-76934741D01*
X68274446Y-77124215D01*
X68279452Y-77162238D01*
X68288831Y-77197240D01*
X68338842Y-77383887D01*
X68426650Y-77595876D01*
X68426657Y-77595890D01*
X68541392Y-77794617D01*
X68681081Y-77976661D01*
X68681089Y-77976670D01*
X68843330Y-78138911D01*
X68843338Y-78138918D01*
X69025382Y-78278607D01*
X69025385Y-78278608D01*
X69025388Y-78278611D01*
X69224112Y-78393344D01*
X69224117Y-78393346D01*
X69224123Y-78393349D01*
X69308604Y-78428342D01*
X69436113Y-78481158D01*
X69657762Y-78540548D01*
X69885266Y-78570500D01*
X69885273Y-78570500D01*
X70114727Y-78570500D01*
X70114734Y-78570500D01*
X70342238Y-78540548D01*
X70563887Y-78481158D01*
X70775888Y-78393344D01*
X70974612Y-78278611D01*
X71156661Y-78138919D01*
X71156665Y-78138914D01*
X71156670Y-78138911D01*
X71318911Y-77976670D01*
X71318914Y-77976665D01*
X71318919Y-77976661D01*
X71458611Y-77794612D01*
X71573344Y-77595888D01*
X71661158Y-77383887D01*
X71720548Y-77162238D01*
X71750500Y-76934734D01*
X71750500Y-76740258D01*
X82749500Y-76740258D01*
X82749500Y-76969741D01*
X82771681Y-77138211D01*
X82779452Y-77197238D01*
X82828077Y-77378711D01*
X82838842Y-77418887D01*
X82926650Y-77630876D01*
X82926657Y-77630890D01*
X83041392Y-77829617D01*
X83181081Y-78011661D01*
X83181089Y-78011670D01*
X83343330Y-78173911D01*
X83343338Y-78173918D01*
X83525382Y-78313607D01*
X83525385Y-78313608D01*
X83525388Y-78313611D01*
X83724112Y-78428344D01*
X83724117Y-78428346D01*
X83724123Y-78428349D01*
X83815480Y-78466190D01*
X83936113Y-78516158D01*
X84157762Y-78575548D01*
X84385266Y-78605500D01*
X84385273Y-78605500D01*
X84614727Y-78605500D01*
X84614734Y-78605500D01*
X84842238Y-78575548D01*
X85063887Y-78516158D01*
X85275888Y-78428344D01*
X85474612Y-78313611D01*
X85656661Y-78173919D01*
X85656665Y-78173914D01*
X85656670Y-78173911D01*
X85818911Y-78011670D01*
X85818914Y-78011665D01*
X85818919Y-78011661D01*
X85958611Y-77829612D01*
X86073344Y-77630888D01*
X86161158Y-77418887D01*
X86171923Y-77378711D01*
X104149500Y-77378711D01*
X104149500Y-77621288D01*
X104181161Y-77861785D01*
X104243947Y-78096104D01*
X104319544Y-78278611D01*
X104336776Y-78320212D01*
X104458064Y-78530289D01*
X104458066Y-78530292D01*
X104458067Y-78530293D01*
X104605733Y-78722736D01*
X104605739Y-78722743D01*
X104777256Y-78894260D01*
X104777262Y-78894265D01*
X104969711Y-79041936D01*
X105179788Y-79163224D01*
X105403900Y-79256054D01*
X105638211Y-79318838D01*
X105818586Y-79342584D01*
X105878711Y-79350500D01*
X105878712Y-79350500D01*
X106121289Y-79350500D01*
X106169388Y-79344167D01*
X106361789Y-79318838D01*
X106596100Y-79256054D01*
X106820212Y-79163224D01*
X107030289Y-79041936D01*
X107222738Y-78894265D01*
X107394265Y-78722738D01*
X107541936Y-78530289D01*
X107663224Y-78320212D01*
X107756054Y-78096100D01*
X107818838Y-77861789D01*
X107850500Y-77621288D01*
X107850500Y-77378712D01*
X107818838Y-77138211D01*
X107756054Y-76903900D01*
X107663224Y-76679788D01*
X107541936Y-76469711D01*
X107404893Y-76291113D01*
X107394266Y-76277263D01*
X107394260Y-76277256D01*
X107222743Y-76105739D01*
X107222736Y-76105733D01*
X107030293Y-75958067D01*
X107030292Y-75958066D01*
X107030289Y-75958064D01*
X106858661Y-75858974D01*
X106820214Y-75836777D01*
X106820205Y-75836773D01*
X106596104Y-75743947D01*
X106361785Y-75681161D01*
X106121289Y-75649500D01*
X106121288Y-75649500D01*
X105878712Y-75649500D01*
X105878711Y-75649500D01*
X105638214Y-75681161D01*
X105403895Y-75743947D01*
X105179794Y-75836773D01*
X105179785Y-75836777D01*
X104969706Y-75958067D01*
X104777263Y-76105733D01*
X104777256Y-76105739D01*
X104605739Y-76277256D01*
X104605733Y-76277263D01*
X104458067Y-76469706D01*
X104458064Y-76469710D01*
X104458064Y-76469711D01*
X104453416Y-76477762D01*
X104336777Y-76679785D01*
X104336773Y-76679794D01*
X104243947Y-76903895D01*
X104181161Y-77138214D01*
X104149500Y-77378711D01*
X86171923Y-77378711D01*
X86220548Y-77197238D01*
X86250500Y-76969734D01*
X86250500Y-76740266D01*
X86220548Y-76512762D01*
X86161158Y-76291113D01*
X86111190Y-76170480D01*
X86073349Y-76079123D01*
X86073346Y-76079117D01*
X86073344Y-76079112D01*
X85958611Y-75880388D01*
X85958608Y-75880385D01*
X85958607Y-75880382D01*
X85818918Y-75698338D01*
X85818911Y-75698330D01*
X85656670Y-75536089D01*
X85656661Y-75536081D01*
X85474617Y-75396392D01*
X85275890Y-75281657D01*
X85275876Y-75281650D01*
X85063887Y-75193842D01*
X84842238Y-75134452D01*
X84804215Y-75129446D01*
X84614741Y-75104500D01*
X84614734Y-75104500D01*
X84385266Y-75104500D01*
X84385258Y-75104500D01*
X84168715Y-75133009D01*
X84157762Y-75134452D01*
X84066736Y-75158842D01*
X83936112Y-75193842D01*
X83724123Y-75281650D01*
X83724109Y-75281657D01*
X83525382Y-75396392D01*
X83343338Y-75536081D01*
X83181081Y-75698338D01*
X83041392Y-75880382D01*
X82926657Y-76079109D01*
X82926650Y-76079123D01*
X82838842Y-76291112D01*
X82779453Y-76512759D01*
X82779451Y-76512770D01*
X82749500Y-76740258D01*
X71750500Y-76740258D01*
X71750500Y-76705266D01*
X71720548Y-76477762D01*
X71661158Y-76256113D01*
X71587842Y-76079112D01*
X71573349Y-76044123D01*
X71573346Y-76044117D01*
X71573344Y-76044112D01*
X71458611Y-75845388D01*
X71458608Y-75845385D01*
X71458607Y-75845382D01*
X71318918Y-75663338D01*
X71318911Y-75663330D01*
X71156670Y-75501089D01*
X71156661Y-75501081D01*
X70974617Y-75361392D01*
X70775890Y-75246657D01*
X70775876Y-75246650D01*
X70563887Y-75158842D01*
X70342238Y-75099452D01*
X70304215Y-75094446D01*
X70114741Y-75069500D01*
X70114734Y-75069500D01*
X69885266Y-75069500D01*
X69885258Y-75069500D01*
X69668715Y-75098009D01*
X69657762Y-75099452D01*
X69564076Y-75124554D01*
X69436112Y-75158842D01*
X69224123Y-75246650D01*
X69224109Y-75246657D01*
X69025382Y-75361392D01*
X68843338Y-75501081D01*
X68681081Y-75663338D01*
X68541392Y-75845382D01*
X68426657Y-76044109D01*
X68426650Y-76044123D01*
X68338842Y-76256112D01*
X68279453Y-76477759D01*
X68279451Y-76477770D01*
X68249500Y-76705258D01*
X61173774Y-76705258D01*
X61163226Y-76679794D01*
X61163224Y-76679788D01*
X61041936Y-76469711D01*
X60904893Y-76291113D01*
X60894266Y-76277263D01*
X60894260Y-76277256D01*
X60722743Y-76105739D01*
X60722736Y-76105733D01*
X60530293Y-75958067D01*
X60530292Y-75958066D01*
X60530289Y-75958064D01*
X60358661Y-75858974D01*
X60320214Y-75836777D01*
X60320205Y-75836773D01*
X60096104Y-75743947D01*
X59861785Y-75681161D01*
X59621289Y-75649500D01*
X59621288Y-75649500D01*
X59378712Y-75649500D01*
X59378711Y-75649500D01*
X59138214Y-75681161D01*
X58903895Y-75743947D01*
X58679794Y-75836773D01*
X58679785Y-75836777D01*
X58469706Y-75958067D01*
X58277263Y-76105733D01*
X58277256Y-76105739D01*
X58105739Y-76277256D01*
X58105733Y-76277263D01*
X57958067Y-76469706D01*
X57958064Y-76469710D01*
X57958064Y-76469711D01*
X57953416Y-76477762D01*
X57836777Y-76679785D01*
X57836773Y-76679794D01*
X57743947Y-76903895D01*
X57681161Y-77138214D01*
X57649500Y-77378711D01*
X56000500Y-77378711D01*
X56000500Y-72141577D01*
X65749500Y-72141577D01*
X65749500Y-72858422D01*
X65780290Y-73052826D01*
X65841117Y-73240029D01*
X65929146Y-73412795D01*
X65930476Y-73415405D01*
X66046172Y-73574646D01*
X66185354Y-73713828D01*
X66344595Y-73829524D01*
X66412445Y-73864095D01*
X66519970Y-73918882D01*
X66519972Y-73918882D01*
X66519975Y-73918884D01*
X66599773Y-73944812D01*
X66707173Y-73979709D01*
X66901578Y-74010500D01*
X66901583Y-74010500D01*
X67098422Y-74010500D01*
X67292826Y-73979709D01*
X67294337Y-73979218D01*
X67480025Y-73918884D01*
X67655405Y-73829524D01*
X67814646Y-73713828D01*
X67953828Y-73574646D01*
X68069524Y-73415405D01*
X68158884Y-73240025D01*
X68219709Y-73052826D01*
X68226492Y-73010000D01*
X68250500Y-72858422D01*
X68250500Y-72141617D01*
X68750000Y-72141617D01*
X68750000Y-72250000D01*
X69555440Y-72250000D01*
X69524755Y-72303147D01*
X69490000Y-72432857D01*
X69490000Y-72567143D01*
X69524755Y-72696853D01*
X69555440Y-72750000D01*
X68750000Y-72750000D01*
X68750000Y-72858382D01*
X68780778Y-73052705D01*
X68841581Y-73239835D01*
X68930904Y-73415143D01*
X69046555Y-73574321D01*
X69185678Y-73713444D01*
X69344856Y-73829095D01*
X69520162Y-73918418D01*
X69707283Y-73979218D01*
X69750000Y-73985984D01*
X69750000Y-72944560D01*
X69803147Y-72975245D01*
X69932857Y-73010000D01*
X70067143Y-73010000D01*
X70196853Y-72975245D01*
X70250000Y-72944560D01*
X70250000Y-73985983D01*
X70292716Y-73979218D01*
X70479837Y-73918418D01*
X70655143Y-73829095D01*
X70814321Y-73713444D01*
X70953444Y-73574321D01*
X71069095Y-73415143D01*
X71158418Y-73239835D01*
X71219221Y-73052705D01*
X71250000Y-72858382D01*
X71250000Y-72750000D01*
X70444560Y-72750000D01*
X70475245Y-72696853D01*
X70510000Y-72567143D01*
X70510000Y-72432857D01*
X70475245Y-72303147D01*
X70444560Y-72250000D01*
X71250000Y-72250000D01*
X71250000Y-72141617D01*
X71219221Y-71947294D01*
X71158418Y-71760162D01*
X71149740Y-71743131D01*
X71149739Y-71743129D01*
X71122661Y-71689984D01*
X71749500Y-71689984D01*
X71749500Y-73310015D01*
X71760000Y-73412795D01*
X71760001Y-73412797D01*
X71771598Y-73447795D01*
X71815186Y-73579335D01*
X71815187Y-73579337D01*
X71907286Y-73728651D01*
X71907289Y-73728655D01*
X72031344Y-73852710D01*
X72031348Y-73852713D01*
X72180662Y-73944812D01*
X72180664Y-73944813D01*
X72180666Y-73944814D01*
X72347203Y-73999999D01*
X72449992Y-74010500D01*
X72449997Y-74010500D01*
X73550003Y-74010500D01*
X73550008Y-74010500D01*
X73652797Y-73999999D01*
X73819334Y-73944814D01*
X73968655Y-73852711D01*
X74092711Y-73728655D01*
X74184814Y-73579334D01*
X74239999Y-73412797D01*
X74250500Y-73310008D01*
X74250500Y-71689992D01*
X74239999Y-71587203D01*
X74184814Y-71420666D01*
X74114299Y-71306345D01*
X74092713Y-71271348D01*
X74092710Y-71271344D01*
X73968655Y-71147289D01*
X73968651Y-71147286D01*
X73819337Y-71055187D01*
X73819335Y-71055186D01*
X73726730Y-71024500D01*
X73652797Y-71000001D01*
X73652795Y-71000000D01*
X73550015Y-70989500D01*
X73550008Y-70989500D01*
X72449992Y-70989500D01*
X72449984Y-70989500D01*
X72347204Y-71000000D01*
X72347203Y-71000001D01*
X72180664Y-71055186D01*
X72180662Y-71055187D01*
X72031348Y-71147286D01*
X72031344Y-71147289D01*
X71907289Y-71271344D01*
X71907286Y-71271348D01*
X71815187Y-71420662D01*
X71815186Y-71420664D01*
X71760001Y-71587203D01*
X71760000Y-71587204D01*
X71749500Y-71689984D01*
X71122661Y-71689984D01*
X71069097Y-71584858D01*
X70953444Y-71425678D01*
X70814321Y-71286555D01*
X70655143Y-71170904D01*
X70479835Y-71081581D01*
X70292705Y-71020778D01*
X70250000Y-71014014D01*
X70250000Y-72055439D01*
X70196853Y-72024755D01*
X70067143Y-71990000D01*
X69932857Y-71990000D01*
X69803147Y-72024755D01*
X69750000Y-72055439D01*
X69750000Y-71014014D01*
X69749999Y-71014014D01*
X69707294Y-71020778D01*
X69520164Y-71081581D01*
X69344856Y-71170904D01*
X69185678Y-71286555D01*
X69046555Y-71425678D01*
X68930904Y-71584856D01*
X68841581Y-71760164D01*
X68780778Y-71947294D01*
X68750000Y-72141617D01*
X68250500Y-72141617D01*
X68250500Y-72141577D01*
X68219709Y-71947173D01*
X68191487Y-71860317D01*
X68158884Y-71759975D01*
X68158882Y-71759972D01*
X68158882Y-71759970D01*
X68111743Y-71667455D01*
X68069524Y-71584595D01*
X67953828Y-71425354D01*
X67814646Y-71286172D01*
X67655405Y-71170476D01*
X67480029Y-71081117D01*
X67292826Y-71020290D01*
X67098422Y-70989500D01*
X67098417Y-70989500D01*
X66901583Y-70989500D01*
X66901578Y-70989500D01*
X66707173Y-71020290D01*
X66519970Y-71081117D01*
X66344594Y-71170476D01*
X66253741Y-71236485D01*
X66185354Y-71286172D01*
X66185352Y-71286174D01*
X66185351Y-71286174D01*
X66046174Y-71425351D01*
X66046174Y-71425352D01*
X66046172Y-71425354D01*
X65996485Y-71493741D01*
X65930476Y-71584594D01*
X65841117Y-71759970D01*
X65780290Y-71947173D01*
X65749500Y-72141577D01*
X56000500Y-72141577D01*
X56000500Y-68421153D01*
X74699500Y-68421153D01*
X74699500Y-68578846D01*
X74730261Y-68733489D01*
X74730264Y-68733501D01*
X74790602Y-68879172D01*
X74790609Y-68879185D01*
X74878210Y-69010288D01*
X74878213Y-69010292D01*
X74989707Y-69121786D01*
X74989711Y-69121789D01*
X75120814Y-69209390D01*
X75120827Y-69209397D01*
X75266498Y-69269735D01*
X75266503Y-69269737D01*
X75331147Y-69282595D01*
X75421849Y-69300638D01*
X75483760Y-69333023D01*
X75485339Y-69334574D01*
X77015139Y-70864374D01*
X77015149Y-70864385D01*
X77019479Y-70868715D01*
X77019480Y-70868716D01*
X77131284Y-70980520D01*
X77182845Y-71010288D01*
X77218095Y-71030639D01*
X77218097Y-71030641D01*
X77249920Y-71049014D01*
X77268215Y-71059577D01*
X77420943Y-71100500D01*
X80607611Y-71100500D01*
X80674650Y-71120185D01*
X80720405Y-71172989D01*
X80730349Y-71242147D01*
X80701324Y-71305703D01*
X80688146Y-71318787D01*
X80685355Y-71321170D01*
X80546174Y-71460351D01*
X80546174Y-71460352D01*
X80546172Y-71460354D01*
X80545937Y-71460678D01*
X80430476Y-71619594D01*
X80341117Y-71794970D01*
X80280290Y-71982173D01*
X80249500Y-72176577D01*
X80249500Y-72893422D01*
X80280290Y-73087826D01*
X80341117Y-73275029D01*
X80376777Y-73345015D01*
X80430476Y-73450405D01*
X80546172Y-73609646D01*
X80685354Y-73748828D01*
X80844595Y-73864524D01*
X80927455Y-73906743D01*
X81019970Y-73953882D01*
X81019972Y-73953882D01*
X81019975Y-73953884D01*
X81097945Y-73979218D01*
X81207173Y-74014709D01*
X81401578Y-74045500D01*
X81401583Y-74045500D01*
X81598422Y-74045500D01*
X81792826Y-74014709D01*
X81838098Y-73999999D01*
X81980025Y-73953884D01*
X82155405Y-73864524D01*
X82314646Y-73748828D01*
X82453828Y-73609646D01*
X82569524Y-73450405D01*
X82658884Y-73275025D01*
X82719709Y-73087826D01*
X82719728Y-73087705D01*
X82750500Y-72893422D01*
X82750500Y-72176617D01*
X83250000Y-72176617D01*
X83250000Y-72285000D01*
X84055440Y-72285000D01*
X84024755Y-72338147D01*
X83990000Y-72467857D01*
X83990000Y-72602143D01*
X84024755Y-72731853D01*
X84055440Y-72785000D01*
X83250000Y-72785000D01*
X83250000Y-72893382D01*
X83280778Y-73087705D01*
X83341581Y-73274835D01*
X83430904Y-73450143D01*
X83546555Y-73609321D01*
X83685678Y-73748444D01*
X83844856Y-73864095D01*
X84020162Y-73953418D01*
X84207283Y-74014218D01*
X84250000Y-74020984D01*
X84250000Y-72979560D01*
X84303147Y-73010245D01*
X84432857Y-73045000D01*
X84567143Y-73045000D01*
X84696853Y-73010245D01*
X84750000Y-72979560D01*
X84750000Y-74020983D01*
X84792716Y-74014218D01*
X84979837Y-73953418D01*
X85155143Y-73864095D01*
X85314321Y-73748444D01*
X85453444Y-73609321D01*
X85569095Y-73450143D01*
X85658418Y-73274835D01*
X85719221Y-73087705D01*
X85750000Y-72893382D01*
X85750000Y-72785000D01*
X84944560Y-72785000D01*
X84975245Y-72731853D01*
X85010000Y-72602143D01*
X85010000Y-72467857D01*
X84975245Y-72338147D01*
X84944560Y-72285000D01*
X85750000Y-72285000D01*
X85750000Y-72176617D01*
X85719221Y-71982294D01*
X85658418Y-71795162D01*
X85649740Y-71778131D01*
X85649739Y-71778129D01*
X85622661Y-71724984D01*
X86249500Y-71724984D01*
X86249500Y-73345015D01*
X86260000Y-73447795D01*
X86260001Y-73447797D01*
X86287593Y-73531065D01*
X86315186Y-73614335D01*
X86315187Y-73614337D01*
X86407286Y-73763651D01*
X86407289Y-73763655D01*
X86531344Y-73887710D01*
X86531348Y-73887713D01*
X86680662Y-73979812D01*
X86680664Y-73979813D01*
X86680666Y-73979814D01*
X86847203Y-74034999D01*
X86949992Y-74045500D01*
X86949997Y-74045500D01*
X88050003Y-74045500D01*
X88050008Y-74045500D01*
X88152797Y-74034999D01*
X88319334Y-73979814D01*
X88468655Y-73887711D01*
X88592711Y-73763655D01*
X88684814Y-73614334D01*
X88739999Y-73447797D01*
X88750500Y-73345008D01*
X88750500Y-71724992D01*
X88739999Y-71622203D01*
X88684814Y-71455666D01*
X88666117Y-71425354D01*
X88592713Y-71306348D01*
X88592710Y-71306344D01*
X88468655Y-71182289D01*
X88468651Y-71182286D01*
X88319337Y-71090187D01*
X88319335Y-71090186D01*
X88226956Y-71059575D01*
X88152797Y-71035001D01*
X88152795Y-71035000D01*
X88050015Y-71024500D01*
X88050008Y-71024500D01*
X86949992Y-71024500D01*
X86949984Y-71024500D01*
X86847204Y-71035000D01*
X86847203Y-71035001D01*
X86680664Y-71090186D01*
X86680662Y-71090187D01*
X86531348Y-71182286D01*
X86531344Y-71182289D01*
X86407289Y-71306344D01*
X86407286Y-71306348D01*
X86315187Y-71455662D01*
X86315186Y-71455664D01*
X86260001Y-71622203D01*
X86260000Y-71622204D01*
X86249500Y-71724984D01*
X85622661Y-71724984D01*
X85569097Y-71619858D01*
X85453444Y-71460678D01*
X85314321Y-71321555D01*
X85155143Y-71205904D01*
X84979835Y-71116581D01*
X84792705Y-71055778D01*
X84750000Y-71049014D01*
X84750000Y-72090439D01*
X84696853Y-72059755D01*
X84567143Y-72025000D01*
X84432857Y-72025000D01*
X84303147Y-72059755D01*
X84250000Y-72090439D01*
X84250000Y-71049014D01*
X84249999Y-71049014D01*
X84207294Y-71055778D01*
X84020164Y-71116581D01*
X83844856Y-71205904D01*
X83685678Y-71321555D01*
X83546555Y-71460678D01*
X83430904Y-71619856D01*
X83341581Y-71795164D01*
X83280778Y-71982294D01*
X83250000Y-72176617D01*
X82750500Y-72176617D01*
X82750500Y-72176577D01*
X82719709Y-71982173D01*
X82658945Y-71795164D01*
X82658884Y-71794975D01*
X82658882Y-71794972D01*
X82658882Y-71794970D01*
X82570853Y-71622204D01*
X82569524Y-71619595D01*
X82453828Y-71460354D01*
X82314646Y-71321172D01*
X82155405Y-71205476D01*
X82155404Y-71205475D01*
X82155398Y-71205471D01*
X82151253Y-71202931D01*
X82151871Y-71201921D01*
X82105107Y-71157757D01*
X82088310Y-71089937D01*
X82110846Y-71023801D01*
X82118121Y-71015160D01*
X82117924Y-71014999D01*
X82121784Y-71010293D01*
X82121789Y-71010289D01*
X82209394Y-70879179D01*
X82269737Y-70733497D01*
X82300500Y-70578842D01*
X82300500Y-70421158D01*
X82300500Y-70421155D01*
X82300499Y-70421153D01*
X82269738Y-70266510D01*
X82269737Y-70266503D01*
X82269735Y-70266498D01*
X82209397Y-70120827D01*
X82209390Y-70120814D01*
X82121789Y-69989711D01*
X82121786Y-69989707D01*
X82010292Y-69878213D01*
X82010288Y-69878210D01*
X81879185Y-69790609D01*
X81879172Y-69790602D01*
X81733501Y-69730264D01*
X81733489Y-69730261D01*
X81578845Y-69699500D01*
X81578842Y-69699500D01*
X81421158Y-69699500D01*
X81421155Y-69699500D01*
X81266510Y-69730261D01*
X81266498Y-69730264D01*
X81120827Y-69790602D01*
X81120814Y-69790609D01*
X80989125Y-69878602D01*
X80922447Y-69899480D01*
X80920234Y-69899500D01*
X77800097Y-69899500D01*
X77733058Y-69879815D01*
X77712416Y-69863181D01*
X76334574Y-68485339D01*
X76301089Y-68424016D01*
X76300638Y-68421849D01*
X76269738Y-68266510D01*
X76269737Y-68266503D01*
X76269735Y-68266498D01*
X76209397Y-68120827D01*
X76209390Y-68120814D01*
X76121789Y-67989711D01*
X76121786Y-67989707D01*
X76010292Y-67878213D01*
X76010288Y-67878210D01*
X75879185Y-67790609D01*
X75879172Y-67790602D01*
X75733501Y-67730264D01*
X75733489Y-67730261D01*
X75578845Y-67699500D01*
X75578842Y-67699500D01*
X75421158Y-67699500D01*
X75421155Y-67699500D01*
X75266510Y-67730261D01*
X75266498Y-67730264D01*
X75120827Y-67790602D01*
X75120814Y-67790609D01*
X74989711Y-67878210D01*
X74989707Y-67878213D01*
X74878213Y-67989707D01*
X74878210Y-67989711D01*
X74790609Y-68120814D01*
X74790602Y-68120827D01*
X74730264Y-68266498D01*
X74730261Y-68266510D01*
X74699500Y-68421153D01*
X56000500Y-68421153D01*
X56000500Y-52433653D01*
X75699500Y-52433653D01*
X75699500Y-52591346D01*
X75730261Y-52745989D01*
X75730264Y-52746001D01*
X75790602Y-52891672D01*
X75790609Y-52891685D01*
X75878210Y-53022788D01*
X75878213Y-53022792D01*
X75989707Y-53134286D01*
X75989711Y-53134289D01*
X76120814Y-53221890D01*
X76120827Y-53221897D01*
X76252836Y-53276576D01*
X76266503Y-53282237D01*
X76421153Y-53312999D01*
X76421156Y-53313000D01*
X76421158Y-53313000D01*
X76578844Y-53313000D01*
X76578845Y-53312999D01*
X76733497Y-53282237D01*
X76879179Y-53221894D01*
X77010289Y-53134289D01*
X77121789Y-53022789D01*
X77209394Y-52891679D01*
X77269737Y-52745997D01*
X77300500Y-52591342D01*
X77300500Y-52433658D01*
X77298610Y-52424159D01*
X77293638Y-52399162D01*
X77299865Y-52329570D01*
X77327569Y-52287293D01*
X77467793Y-52147070D01*
X77529112Y-52113589D01*
X77531279Y-52113138D01*
X77589214Y-52101613D01*
X77686626Y-52082237D01*
X77832308Y-52021894D01*
X77963418Y-51934289D01*
X78074918Y-51822789D01*
X78162523Y-51691679D01*
X78222866Y-51545997D01*
X78253629Y-51391342D01*
X78253629Y-51233658D01*
X78253629Y-51233655D01*
X78253628Y-51233653D01*
X78224585Y-51087645D01*
X78222866Y-51079003D01*
X78222864Y-51078998D01*
X78162526Y-50933327D01*
X78162519Y-50933314D01*
X78074918Y-50802211D01*
X78074915Y-50802207D01*
X77963421Y-50690713D01*
X77963417Y-50690710D01*
X77832314Y-50603109D01*
X77832301Y-50603102D01*
X77686630Y-50542764D01*
X77686618Y-50542761D01*
X77531974Y-50512000D01*
X77531971Y-50512000D01*
X77374287Y-50512000D01*
X77374284Y-50512000D01*
X77219639Y-50542761D01*
X77219627Y-50542764D01*
X77073956Y-50603102D01*
X77073943Y-50603109D01*
X76942840Y-50690710D01*
X76942836Y-50690713D01*
X76831342Y-50802207D01*
X76831339Y-50802211D01*
X76743738Y-50933314D01*
X76743731Y-50933327D01*
X76683393Y-51078998D01*
X76683390Y-51079008D01*
X76652490Y-51234350D01*
X76620105Y-51296261D01*
X76618554Y-51297839D01*
X76131286Y-51785107D01*
X76131280Y-51785109D01*
X76131282Y-51785111D01*
X76106746Y-51809645D01*
X76087960Y-51825062D01*
X75989707Y-51890713D01*
X75878213Y-52002207D01*
X75878210Y-52002211D01*
X75790609Y-52133314D01*
X75790602Y-52133327D01*
X75730264Y-52278998D01*
X75730261Y-52279010D01*
X75699500Y-52433653D01*
X56000500Y-52433653D01*
X56000500Y-40378711D01*
X57649500Y-40378711D01*
X57649500Y-40621288D01*
X57681161Y-40861785D01*
X57743947Y-41096104D01*
X57807036Y-41248414D01*
X57836776Y-41320212D01*
X57958064Y-41530289D01*
X57958066Y-41530292D01*
X57958067Y-41530293D01*
X58105733Y-41722736D01*
X58105739Y-41722743D01*
X58277256Y-41894260D01*
X58277262Y-41894265D01*
X58469711Y-42041936D01*
X58679788Y-42163224D01*
X58903900Y-42256054D01*
X59138211Y-42318838D01*
X59318586Y-42342584D01*
X59378711Y-42350500D01*
X59378712Y-42350500D01*
X59621289Y-42350500D01*
X59669388Y-42344167D01*
X59861789Y-42318838D01*
X60096100Y-42256054D01*
X60320212Y-42163224D01*
X60530289Y-42041936D01*
X60722738Y-41894265D01*
X60894265Y-41722738D01*
X60894345Y-41722632D01*
X60894429Y-41722525D01*
X60980937Y-41609784D01*
X61041936Y-41530289D01*
X61163224Y-41320212D01*
X61256054Y-41096100D01*
X61318838Y-40861789D01*
X61350175Y-40623753D01*
X68070000Y-40623753D01*
X68070000Y-40836246D01*
X68103242Y-41046127D01*
X68103242Y-41046130D01*
X68168904Y-41248217D01*
X68265375Y-41437550D01*
X68304728Y-41491716D01*
X68937037Y-40859408D01*
X68954075Y-40922993D01*
X69019901Y-41037007D01*
X69112993Y-41130099D01*
X69227007Y-41195925D01*
X69290591Y-41212962D01*
X68689971Y-41813581D01*
X68768711Y-41930895D01*
X68769920Y-41934729D01*
X68772844Y-41937491D01*
X68780343Y-41967778D01*
X68789727Y-41997529D01*
X68788671Y-42001408D01*
X68789638Y-42005312D01*
X68779573Y-42034844D01*
X68771383Y-42064947D01*
X68768397Y-42067640D01*
X68767100Y-42071447D01*
X68722051Y-42110483D01*
X68712440Y-42115380D01*
X68658282Y-42154727D01*
X68658282Y-42154728D01*
X69290591Y-42787037D01*
X69227007Y-42804075D01*
X69112993Y-42869901D01*
X69019901Y-42962993D01*
X68954075Y-43077007D01*
X68937037Y-43140591D01*
X68304728Y-42508282D01*
X68304727Y-42508282D01*
X68265380Y-42562439D01*
X68168904Y-42751782D01*
X68103242Y-42953869D01*
X68103242Y-42953872D01*
X68070000Y-43163753D01*
X68070000Y-43376246D01*
X68103242Y-43586127D01*
X68103242Y-43586130D01*
X68168904Y-43788217D01*
X68265375Y-43977550D01*
X68304728Y-44031716D01*
X68937037Y-43399408D01*
X68954075Y-43462993D01*
X69019901Y-43577007D01*
X69112993Y-43670099D01*
X69227007Y-43735925D01*
X69290590Y-43752962D01*
X68658282Y-44385269D01*
X68658282Y-44385270D01*
X68712449Y-44424624D01*
X68901782Y-44521095D01*
X69103870Y-44586757D01*
X69313754Y-44620000D01*
X69526246Y-44620000D01*
X69736127Y-44586757D01*
X69736130Y-44586757D01*
X69938217Y-44521095D01*
X70127554Y-44424622D01*
X70181716Y-44385270D01*
X70181717Y-44385270D01*
X69549408Y-43752962D01*
X69612993Y-43735925D01*
X69727007Y-43670099D01*
X69820099Y-43577007D01*
X69885925Y-43462993D01*
X69902962Y-43399408D01*
X70535270Y-44031717D01*
X70535270Y-44031716D01*
X70574622Y-43977555D01*
X70579232Y-43968507D01*
X70627205Y-43917709D01*
X70695025Y-43900912D01*
X70761161Y-43923447D01*
X70800204Y-43968504D01*
X70804949Y-43977817D01*
X70929890Y-44149786D01*
X71080213Y-44300109D01*
X71252184Y-44425051D01*
X71252184Y-44425052D01*
X71291793Y-44445233D01*
X71342590Y-44493206D01*
X71359500Y-44555718D01*
X71359500Y-47373330D01*
X71359499Y-47373348D01*
X71359499Y-47539054D01*
X71359498Y-47539054D01*
X71400423Y-47691785D01*
X71429358Y-47741900D01*
X71429359Y-47741904D01*
X71429360Y-47741904D01*
X71479479Y-47828714D01*
X71479481Y-47828717D01*
X71598349Y-47947585D01*
X71598355Y-47947590D01*
X71839690Y-48188925D01*
X71873175Y-48250248D01*
X71873626Y-48252414D01*
X71904526Y-48407756D01*
X71904529Y-48407766D01*
X71964867Y-48553437D01*
X71964874Y-48553450D01*
X72052475Y-48684553D01*
X72052478Y-48684557D01*
X72163972Y-48796051D01*
X72163976Y-48796054D01*
X72295079Y-48883655D01*
X72295092Y-48883662D01*
X72440763Y-48944000D01*
X72440768Y-48944002D01*
X72595418Y-48974764D01*
X72595421Y-48974765D01*
X72595423Y-48974765D01*
X72753109Y-48974765D01*
X72753110Y-48974764D01*
X72907762Y-48944002D01*
X73053444Y-48883659D01*
X73184554Y-48796054D01*
X73296054Y-48684554D01*
X73383659Y-48553444D01*
X73444002Y-48407762D01*
X73474765Y-48253107D01*
X73474765Y-48095423D01*
X73474765Y-48095420D01*
X73474764Y-48095418D01*
X73469361Y-48068255D01*
X73444002Y-47940768D01*
X73404435Y-47845243D01*
X73383662Y-47795092D01*
X73383655Y-47795079D01*
X73296054Y-47663976D01*
X73296051Y-47663972D01*
X73184557Y-47552478D01*
X73184553Y-47552475D01*
X73053450Y-47464874D01*
X73053437Y-47464867D01*
X72907766Y-47404529D01*
X72907756Y-47404526D01*
X72752414Y-47373626D01*
X72690503Y-47341241D01*
X72688925Y-47339690D01*
X72596819Y-47247584D01*
X72563334Y-47186261D01*
X72560500Y-47159903D01*
X72560500Y-44555718D01*
X72580185Y-44488679D01*
X72628207Y-44445233D01*
X72667815Y-44425052D01*
X72667815Y-44425051D01*
X72667816Y-44425051D01*
X72759193Y-44358661D01*
X72839786Y-44300109D01*
X72839788Y-44300106D01*
X72839792Y-44300104D01*
X72990104Y-44149792D01*
X72990106Y-44149788D01*
X72990109Y-44149786D01*
X73115048Y-43977820D01*
X73115050Y-43977817D01*
X73115051Y-43977816D01*
X73119514Y-43969054D01*
X73167488Y-43918259D01*
X73235308Y-43901463D01*
X73301444Y-43923999D01*
X73340486Y-43969056D01*
X73344951Y-43977820D01*
X73469890Y-44149786D01*
X73620213Y-44300109D01*
X73792179Y-44425048D01*
X73792181Y-44425049D01*
X73792184Y-44425051D01*
X73981588Y-44521557D01*
X74183757Y-44587246D01*
X74393713Y-44620500D01*
X74393714Y-44620500D01*
X74606286Y-44620500D01*
X74606287Y-44620500D01*
X74816243Y-44587246D01*
X75018412Y-44521557D01*
X75207816Y-44425051D01*
X75294138Y-44362335D01*
X75379786Y-44300109D01*
X75379788Y-44300106D01*
X75379792Y-44300104D01*
X75530104Y-44149792D01*
X75530106Y-44149788D01*
X75530109Y-44149786D01*
X75655048Y-43977820D01*
X75655050Y-43977817D01*
X75655051Y-43977816D01*
X75659514Y-43969054D01*
X75707488Y-43918259D01*
X75775308Y-43901463D01*
X75841444Y-43923999D01*
X75880486Y-43969056D01*
X75884951Y-43977820D01*
X76009890Y-44149786D01*
X76160213Y-44300109D01*
X76332179Y-44425048D01*
X76332181Y-44425049D01*
X76332184Y-44425051D01*
X76521588Y-44521557D01*
X76723757Y-44587246D01*
X76933713Y-44620500D01*
X76933714Y-44620500D01*
X77146286Y-44620500D01*
X77146287Y-44620500D01*
X77356243Y-44587246D01*
X77558412Y-44521557D01*
X77747816Y-44425051D01*
X77919792Y-44300104D01*
X78033329Y-44186566D01*
X78094648Y-44153084D01*
X78164340Y-44158068D01*
X78220274Y-44199939D01*
X78237189Y-44230917D01*
X78286202Y-44362328D01*
X78286206Y-44362335D01*
X78372452Y-44477544D01*
X78372455Y-44477547D01*
X78487664Y-44563793D01*
X78487671Y-44563797D01*
X78622517Y-44614091D01*
X78622516Y-44614091D01*
X78629444Y-44614835D01*
X78682127Y-44620500D01*
X80477872Y-44620499D01*
X80537483Y-44614091D01*
X80672331Y-44563796D01*
X80787546Y-44477546D01*
X80873796Y-44362331D01*
X80924091Y-44227483D01*
X80930500Y-44167873D01*
X80930500Y-44144500D01*
X80950185Y-44077461D01*
X81002989Y-44031706D01*
X81054500Y-44020500D01*
X92407770Y-44020500D01*
X92474809Y-44040185D01*
X92495451Y-44056819D01*
X96147060Y-47708428D01*
X96180545Y-47769751D01*
X96175561Y-47839443D01*
X96133689Y-47895376D01*
X96068225Y-47919793D01*
X96039982Y-47918582D01*
X95998424Y-47912000D01*
X95998417Y-47912000D01*
X95801583Y-47912000D01*
X95801578Y-47912000D01*
X95607173Y-47942790D01*
X95419970Y-48003617D01*
X95244594Y-48092976D01*
X95173672Y-48144505D01*
X95085354Y-48208672D01*
X95085352Y-48208674D01*
X95085351Y-48208674D01*
X94946174Y-48347851D01*
X94946174Y-48347852D01*
X94946172Y-48347854D01*
X94923867Y-48378554D01*
X94830476Y-48507094D01*
X94741117Y-48682470D01*
X94680290Y-48869673D01*
X94649500Y-49064077D01*
X94649500Y-49260922D01*
X94680290Y-49455326D01*
X94741117Y-49642529D01*
X94807075Y-49771978D01*
X94830476Y-49817905D01*
X94946172Y-49977146D01*
X95085354Y-50116328D01*
X95244595Y-50232024D01*
X95330884Y-50275990D01*
X95421213Y-50322015D01*
X95472009Y-50369989D01*
X95488804Y-50437810D01*
X95466267Y-50503945D01*
X95421213Y-50542985D01*
X95244594Y-50632976D01*
X95199382Y-50665825D01*
X95085354Y-50748672D01*
X95085352Y-50748674D01*
X95085351Y-50748674D01*
X94946174Y-50887851D01*
X94946174Y-50887852D01*
X94946172Y-50887854D01*
X94913869Y-50932315D01*
X94830476Y-51047094D01*
X94741117Y-51222470D01*
X94680290Y-51409673D01*
X94649500Y-51604077D01*
X94649500Y-51800922D01*
X94680290Y-51995326D01*
X94741117Y-52182529D01*
X94816039Y-52329570D01*
X94830476Y-52357905D01*
X94946172Y-52517146D01*
X95085354Y-52656328D01*
X95244595Y-52772024D01*
X95350186Y-52825825D01*
X95421213Y-52862015D01*
X95472009Y-52909989D01*
X95488804Y-52977810D01*
X95466267Y-53043945D01*
X95421213Y-53082985D01*
X95244594Y-53172976D01*
X95177261Y-53221897D01*
X95085354Y-53288672D01*
X95085352Y-53288674D01*
X95085351Y-53288674D01*
X94946174Y-53427851D01*
X94946174Y-53427852D01*
X94946172Y-53427854D01*
X94896485Y-53496241D01*
X94830476Y-53587094D01*
X94741117Y-53762470D01*
X94680290Y-53949673D01*
X94649500Y-54144077D01*
X94649500Y-54340922D01*
X94680290Y-54535326D01*
X94741117Y-54722529D01*
X94809682Y-54857094D01*
X94830476Y-54897905D01*
X94946172Y-55057146D01*
X95085354Y-55196328D01*
X95238621Y-55307684D01*
X95281285Y-55363012D01*
X95287264Y-55432625D01*
X95254658Y-55494420D01*
X95193819Y-55528778D01*
X95165736Y-55532000D01*
X95102130Y-55532000D01*
X95102123Y-55532001D01*
X95042516Y-55538408D01*
X94907671Y-55588702D01*
X94907669Y-55588704D01*
X94808811Y-55662709D01*
X94743347Y-55687126D01*
X94675074Y-55672274D01*
X94625668Y-55622869D01*
X94610500Y-55563442D01*
X94610500Y-55414077D01*
X94579709Y-55219673D01*
X94518882Y-55032470D01*
X94471743Y-54939955D01*
X94429524Y-54857095D01*
X94313828Y-54697854D01*
X94174646Y-54558672D01*
X94015405Y-54442976D01*
X93840025Y-54353616D01*
X93840024Y-54353615D01*
X93838235Y-54352704D01*
X93787439Y-54304730D01*
X93770644Y-54236909D01*
X93793181Y-54170774D01*
X93838236Y-54131734D01*
X94015141Y-54041597D01*
X94050125Y-54016178D01*
X94050126Y-54016178D01*
X93386448Y-53352500D01*
X93410028Y-53352500D01*
X93506675Y-53326604D01*
X93593325Y-53276576D01*
X93664076Y-53205825D01*
X93714104Y-53119175D01*
X93740000Y-53022528D01*
X93740000Y-52998947D01*
X94403678Y-53662626D01*
X94403678Y-53662625D01*
X94429095Y-53627643D01*
X94518418Y-53452335D01*
X94579221Y-53265205D01*
X94610000Y-53070882D01*
X94610000Y-52874117D01*
X94579221Y-52679794D01*
X94518418Y-52492664D01*
X94429096Y-52317358D01*
X94403678Y-52282373D01*
X94403677Y-52282373D01*
X93740000Y-52946051D01*
X93740000Y-52922472D01*
X93714104Y-52825825D01*
X93664076Y-52739175D01*
X93593325Y-52668424D01*
X93506675Y-52618396D01*
X93410028Y-52592500D01*
X93386447Y-52592500D01*
X94050125Y-51928820D01*
X94050125Y-51928819D01*
X94015145Y-51903405D01*
X93837684Y-51812985D01*
X93786888Y-51765011D01*
X93770093Y-51697190D01*
X93792630Y-51631055D01*
X93837685Y-51592015D01*
X94015141Y-51501597D01*
X94050125Y-51476178D01*
X94050126Y-51476178D01*
X93386448Y-50812500D01*
X93410028Y-50812500D01*
X93506675Y-50786604D01*
X93593325Y-50736576D01*
X93664076Y-50665825D01*
X93714104Y-50579175D01*
X93740000Y-50482528D01*
X93740000Y-50458947D01*
X94403678Y-51122626D01*
X94403678Y-51122625D01*
X94429095Y-51087643D01*
X94518418Y-50912335D01*
X94579221Y-50725205D01*
X94610000Y-50530882D01*
X94610000Y-50334117D01*
X94579221Y-50139794D01*
X94518418Y-49952664D01*
X94429096Y-49777358D01*
X94403678Y-49742373D01*
X94403677Y-49742373D01*
X93740000Y-50406051D01*
X93740000Y-50382472D01*
X93714104Y-50285825D01*
X93664076Y-50199175D01*
X93593325Y-50128424D01*
X93506675Y-50078396D01*
X93410028Y-50052500D01*
X93386446Y-50052500D01*
X94050125Y-49388820D01*
X94050125Y-49388819D01*
X94015145Y-49363405D01*
X93838235Y-49273265D01*
X93787439Y-49225290D01*
X93770644Y-49157469D01*
X93793182Y-49091334D01*
X93838236Y-49052295D01*
X93840022Y-49051384D01*
X93840025Y-49051384D01*
X94015405Y-48962024D01*
X94174646Y-48846328D01*
X94313828Y-48707146D01*
X94429524Y-48547905D01*
X94518884Y-48372525D01*
X94579709Y-48185326D01*
X94586174Y-48144507D01*
X94610500Y-47990922D01*
X94610500Y-47794077D01*
X94579709Y-47599673D01*
X94551487Y-47512817D01*
X94518884Y-47412475D01*
X94518882Y-47412472D01*
X94518882Y-47412470D01*
X94429523Y-47237094D01*
X94416089Y-47218604D01*
X94313828Y-47077854D01*
X94174646Y-46938672D01*
X94015405Y-46822976D01*
X93840029Y-46733617D01*
X93652826Y-46672790D01*
X93458422Y-46642000D01*
X93458417Y-46642000D01*
X93261583Y-46642000D01*
X93261578Y-46642000D01*
X93067173Y-46672790D01*
X92879970Y-46733617D01*
X92704594Y-46822976D01*
X92613741Y-46888985D01*
X92545354Y-46938672D01*
X92545352Y-46938674D01*
X92545351Y-46938674D01*
X92406174Y-47077851D01*
X92406174Y-47077852D01*
X92406172Y-47077854D01*
X92356485Y-47146241D01*
X92290476Y-47237094D01*
X92201117Y-47412470D01*
X92140290Y-47599673D01*
X92109500Y-47794077D01*
X92109500Y-47990922D01*
X92141023Y-48189953D01*
X92132068Y-48259247D01*
X92106231Y-48297032D01*
X90631286Y-49771978D01*
X90519481Y-49883782D01*
X90519479Y-49883784D01*
X90495535Y-49925258D01*
X90485414Y-49942789D01*
X90440423Y-50020715D01*
X90399499Y-50173443D01*
X90399499Y-50173445D01*
X90399499Y-50341546D01*
X90399500Y-50341559D01*
X90399500Y-55532734D01*
X90379815Y-55599773D01*
X90378602Y-55601625D01*
X90290609Y-55733314D01*
X90290602Y-55733327D01*
X90230264Y-55878998D01*
X90230261Y-55879010D01*
X90199500Y-56033653D01*
X90199500Y-56191346D01*
X90230261Y-56345989D01*
X90230264Y-56346001D01*
X90290602Y-56491672D01*
X90290609Y-56491685D01*
X90378210Y-56622788D01*
X90378213Y-56622792D01*
X90489707Y-56734286D01*
X90489711Y-56734289D01*
X90620814Y-56821890D01*
X90620827Y-56821897D01*
X90766498Y-56882235D01*
X90766503Y-56882237D01*
X90921153Y-56912999D01*
X90921156Y-56913000D01*
X90921158Y-56913000D01*
X91078844Y-56913000D01*
X91078845Y-56912999D01*
X91233497Y-56882237D01*
X91346166Y-56835567D01*
X91379172Y-56821897D01*
X91379172Y-56821896D01*
X91379179Y-56821894D01*
X91510289Y-56734289D01*
X91621789Y-56622789D01*
X91709394Y-56491679D01*
X91769737Y-56345997D01*
X91800500Y-56191342D01*
X91800500Y-56033658D01*
X91800500Y-56033655D01*
X91800499Y-56033653D01*
X91778890Y-55925017D01*
X91769737Y-55879003D01*
X91769735Y-55878998D01*
X91709397Y-55733327D01*
X91709390Y-55733314D01*
X91621398Y-55601625D01*
X91600520Y-55534947D01*
X91600500Y-55532734D01*
X91600500Y-50552596D01*
X91620185Y-50485557D01*
X91636814Y-50464920D01*
X91904580Y-50197154D01*
X91965902Y-50163670D01*
X92035594Y-50168654D01*
X92091527Y-50210526D01*
X92115944Y-50275990D01*
X92114733Y-50304234D01*
X92110000Y-50334117D01*
X92110000Y-50530882D01*
X92140778Y-50725205D01*
X92201581Y-50912335D01*
X92290905Y-51087645D01*
X92316319Y-51122625D01*
X92316320Y-51122625D01*
X92980000Y-50458945D01*
X92980000Y-50482528D01*
X93005896Y-50579175D01*
X93055924Y-50665825D01*
X93126675Y-50736576D01*
X93213325Y-50786604D01*
X93309972Y-50812500D01*
X93333553Y-50812500D01*
X92669873Y-51476177D01*
X92669873Y-51476178D01*
X92704860Y-51501597D01*
X92882314Y-51592014D01*
X92933111Y-51639988D01*
X92949906Y-51707809D01*
X92927369Y-51773944D01*
X92882315Y-51812984D01*
X92704859Y-51903402D01*
X92669873Y-51928820D01*
X92669872Y-51928820D01*
X93333554Y-52592500D01*
X93309972Y-52592500D01*
X93213325Y-52618396D01*
X93126675Y-52668424D01*
X93055924Y-52739175D01*
X93005896Y-52825825D01*
X92980000Y-52922472D01*
X92980000Y-52946052D01*
X92316320Y-52282372D01*
X92316320Y-52282373D01*
X92290902Y-52317359D01*
X92290899Y-52317363D01*
X92201582Y-52492661D01*
X92140778Y-52679794D01*
X92110000Y-52874117D01*
X92110000Y-53070882D01*
X92140778Y-53265205D01*
X92201581Y-53452335D01*
X92290905Y-53627645D01*
X92316319Y-53662625D01*
X92316320Y-53662625D01*
X92980000Y-52998945D01*
X92980000Y-53022528D01*
X93005896Y-53119175D01*
X93055924Y-53205825D01*
X93126675Y-53276576D01*
X93213325Y-53326604D01*
X93309972Y-53352500D01*
X93333553Y-53352500D01*
X92669873Y-54016177D01*
X92669873Y-54016178D01*
X92704858Y-54041596D01*
X92881764Y-54131734D01*
X92932560Y-54179709D01*
X92949355Y-54247530D01*
X92926818Y-54313664D01*
X92881764Y-54352704D01*
X92704594Y-54442976D01*
X92613741Y-54508985D01*
X92545354Y-54558672D01*
X92545352Y-54558674D01*
X92545351Y-54558674D01*
X92406174Y-54697851D01*
X92406174Y-54697852D01*
X92406172Y-54697854D01*
X92356485Y-54766241D01*
X92290476Y-54857094D01*
X92201117Y-55032470D01*
X92140290Y-55219673D01*
X92109500Y-55414077D01*
X92109500Y-55610922D01*
X92140290Y-55805326D01*
X92201117Y-55992529D01*
X92285349Y-56157842D01*
X92290476Y-56167905D01*
X92406172Y-56327146D01*
X92545354Y-56466328D01*
X92704595Y-56582024D01*
X92784599Y-56622788D01*
X92879970Y-56671382D01*
X92879972Y-56671382D01*
X92879975Y-56671384D01*
X92980317Y-56703987D01*
X93067173Y-56732209D01*
X93261578Y-56763000D01*
X93261583Y-56763000D01*
X93458422Y-56763000D01*
X93652826Y-56732209D01*
X93840025Y-56671384D01*
X94015405Y-56582024D01*
X94174646Y-56466328D01*
X94313828Y-56327146D01*
X94425184Y-56173878D01*
X94480512Y-56131215D01*
X94550125Y-56125236D01*
X94611920Y-56157842D01*
X94646278Y-56218681D01*
X94649500Y-56246766D01*
X94649500Y-57580370D01*
X94649501Y-57580376D01*
X94655908Y-57639983D01*
X94706202Y-57774828D01*
X94706206Y-57774835D01*
X94792452Y-57890044D01*
X94792455Y-57890047D01*
X94907664Y-57976293D01*
X94907671Y-57976297D01*
X95042517Y-58026591D01*
X95042516Y-58026591D01*
X95049444Y-58027335D01*
X95102127Y-58033000D01*
X96697872Y-58032999D01*
X96757483Y-58026591D01*
X96892331Y-57976296D01*
X96952557Y-57931211D01*
X100399500Y-57931211D01*
X100399500Y-58173788D01*
X100431161Y-58414285D01*
X100493947Y-58648604D01*
X100586773Y-58872705D01*
X100586776Y-58872712D01*
X100708064Y-59082789D01*
X100708066Y-59082792D01*
X100708067Y-59082793D01*
X100855733Y-59275236D01*
X100855739Y-59275243D01*
X101027256Y-59446760D01*
X101027262Y-59446765D01*
X101219711Y-59594436D01*
X101429788Y-59715724D01*
X101653900Y-59808554D01*
X101888211Y-59871338D01*
X102068586Y-59895084D01*
X102128711Y-59903000D01*
X102128712Y-59903000D01*
X102371289Y-59903000D01*
X102419388Y-59896667D01*
X102611789Y-59871338D01*
X102846100Y-59808554D01*
X103070212Y-59715724D01*
X103280289Y-59594436D01*
X103472738Y-59446765D01*
X103644265Y-59275238D01*
X103791936Y-59082789D01*
X103913224Y-58872712D01*
X104006054Y-58648600D01*
X104068838Y-58414289D01*
X104100500Y-58173788D01*
X104100500Y-57931212D01*
X104095080Y-57890046D01*
X104068838Y-57690714D01*
X104068838Y-57690711D01*
X104006054Y-57456400D01*
X103913224Y-57232288D01*
X103791936Y-57022211D01*
X103684531Y-56882238D01*
X103644266Y-56829763D01*
X103644260Y-56829756D01*
X103472743Y-56658239D01*
X103472736Y-56658233D01*
X103280293Y-56510567D01*
X103280292Y-56510566D01*
X103280289Y-56510564D01*
X103070212Y-56389276D01*
X103070205Y-56389273D01*
X102846104Y-56296447D01*
X102611785Y-56233661D01*
X102371289Y-56202000D01*
X102371288Y-56202000D01*
X102128712Y-56202000D01*
X102128711Y-56202000D01*
X101888214Y-56233661D01*
X101653895Y-56296447D01*
X101429794Y-56389273D01*
X101429785Y-56389277D01*
X101219706Y-56510567D01*
X101027263Y-56658233D01*
X101027256Y-56658239D01*
X100855739Y-56829756D01*
X100855733Y-56829763D01*
X100708067Y-57022206D01*
X100586777Y-57232285D01*
X100586773Y-57232294D01*
X100493947Y-57456395D01*
X100431161Y-57690714D01*
X100399500Y-57931211D01*
X96952557Y-57931211D01*
X97007546Y-57890046D01*
X97093796Y-57774831D01*
X97144091Y-57639983D01*
X97150500Y-57580373D01*
X97150499Y-55984628D01*
X97144091Y-55925017D01*
X97093796Y-55790169D01*
X97093795Y-55790168D01*
X97093793Y-55790164D01*
X97007547Y-55674955D01*
X97007544Y-55674952D01*
X96892335Y-55588706D01*
X96892328Y-55588702D01*
X96757482Y-55538408D01*
X96757483Y-55538408D01*
X96697883Y-55532001D01*
X96697881Y-55532000D01*
X96697873Y-55532000D01*
X96697865Y-55532000D01*
X96634267Y-55532000D01*
X96567228Y-55512315D01*
X96521473Y-55459511D01*
X96511529Y-55390353D01*
X96540554Y-55326797D01*
X96561381Y-55307682D01*
X96714646Y-55196328D01*
X96853828Y-55057146D01*
X96969524Y-54897905D01*
X97058884Y-54722525D01*
X97119709Y-54535326D01*
X97148489Y-54353616D01*
X97150500Y-54340922D01*
X97150500Y-54144077D01*
X97119709Y-53949673D01*
X97058882Y-53762470D01*
X96969523Y-53587094D01*
X96853828Y-53427854D01*
X96714646Y-53288672D01*
X96622739Y-53221897D01*
X96555403Y-53172974D01*
X96378787Y-53082985D01*
X96327990Y-53035011D01*
X96311195Y-52967190D01*
X96333732Y-52901055D01*
X96378787Y-52862015D01*
X96555403Y-52772025D01*
X96555402Y-52772025D01*
X96555405Y-52772024D01*
X96714646Y-52656328D01*
X96853828Y-52517146D01*
X96863297Y-52504112D01*
X96918628Y-52461448D01*
X96963614Y-52453000D01*
X97871420Y-52453000D01*
X97968962Y-52433596D01*
X98016413Y-52424158D01*
X98152995Y-52367584D01*
X98220085Y-52322756D01*
X98275916Y-52285452D01*
X98582951Y-51978416D01*
X98665084Y-51855495D01*
X98721658Y-51718913D01*
X98737358Y-51639988D01*
X98750500Y-51573920D01*
X98750500Y-48426079D01*
X98721659Y-48281092D01*
X98721658Y-48281091D01*
X98721658Y-48281087D01*
X98665084Y-48144505D01*
X98608954Y-48060500D01*
X98582952Y-48021584D01*
X97062579Y-46501211D01*
X100399500Y-46501211D01*
X100399500Y-46743788D01*
X100431161Y-46984285D01*
X100493947Y-47218604D01*
X100586773Y-47442705D01*
X100586777Y-47442714D01*
X100599571Y-47464874D01*
X100708064Y-47652789D01*
X100708066Y-47652792D01*
X100708067Y-47652793D01*
X100855733Y-47845236D01*
X100855739Y-47845243D01*
X101027256Y-48016760D01*
X101027262Y-48016765D01*
X101219711Y-48164436D01*
X101429788Y-48285724D01*
X101653900Y-48378554D01*
X101888211Y-48441338D01*
X102068586Y-48465084D01*
X102128711Y-48473000D01*
X102128712Y-48473000D01*
X102371289Y-48473000D01*
X102419388Y-48466667D01*
X102611789Y-48441338D01*
X102846100Y-48378554D01*
X103070212Y-48285724D01*
X103280289Y-48164436D01*
X103472738Y-48016765D01*
X103644265Y-47845238D01*
X103791936Y-47652789D01*
X103913224Y-47442712D01*
X104006054Y-47218600D01*
X104068838Y-46984289D01*
X104100500Y-46743788D01*
X104100500Y-46501212D01*
X104068838Y-46260711D01*
X104006054Y-46026400D01*
X103913224Y-45802288D01*
X103791936Y-45592211D01*
X103644265Y-45399762D01*
X103644260Y-45399756D01*
X103472743Y-45228239D01*
X103472736Y-45228233D01*
X103280293Y-45080567D01*
X103280292Y-45080566D01*
X103280289Y-45080564D01*
X103070212Y-44959276D01*
X103070205Y-44959273D01*
X102846104Y-44866447D01*
X102611785Y-44803661D01*
X102371289Y-44772000D01*
X102371288Y-44772000D01*
X102128712Y-44772000D01*
X102128711Y-44772000D01*
X101888214Y-44803661D01*
X101653895Y-44866447D01*
X101429794Y-44959273D01*
X101429785Y-44959277D01*
X101219706Y-45080567D01*
X101027263Y-45228233D01*
X101027256Y-45228239D01*
X100855739Y-45399756D01*
X100855733Y-45399763D01*
X100708067Y-45592206D01*
X100586777Y-45802285D01*
X100586773Y-45802294D01*
X100493947Y-46026395D01*
X100431161Y-46260714D01*
X100399500Y-46501211D01*
X97062579Y-46501211D01*
X93248416Y-42687048D01*
X93248413Y-42687045D01*
X93176635Y-42639087D01*
X93166355Y-42632218D01*
X93125495Y-42604916D01*
X93125494Y-42604915D01*
X93125492Y-42604914D01*
X93125490Y-42604913D01*
X92988917Y-42548343D01*
X92988907Y-42548340D01*
X92843920Y-42519500D01*
X92843918Y-42519500D01*
X81054499Y-42519500D01*
X80987460Y-42499815D01*
X80941705Y-42447011D01*
X80930499Y-42395500D01*
X80930499Y-42372129D01*
X80930498Y-42372123D01*
X80924091Y-42312516D01*
X80873797Y-42177671D01*
X80873793Y-42177664D01*
X80787547Y-42062455D01*
X80787544Y-42062452D01*
X80672335Y-41976206D01*
X80672328Y-41976202D01*
X80540917Y-41927189D01*
X80484983Y-41885318D01*
X80460566Y-41819853D01*
X80475418Y-41751580D01*
X80496563Y-41723332D01*
X80610104Y-41609792D01*
X80735051Y-41437816D01*
X80831557Y-41248412D01*
X80897246Y-41046243D01*
X80930500Y-40836287D01*
X80930500Y-40623713D01*
X80897246Y-40413757D01*
X80885859Y-40378711D01*
X104149500Y-40378711D01*
X104149500Y-40621288D01*
X104181161Y-40861785D01*
X104243947Y-41096104D01*
X104307036Y-41248414D01*
X104336776Y-41320212D01*
X104458064Y-41530289D01*
X104458066Y-41530292D01*
X104458067Y-41530293D01*
X104605733Y-41722736D01*
X104605739Y-41722743D01*
X104777256Y-41894260D01*
X104777262Y-41894265D01*
X104969711Y-42041936D01*
X105179788Y-42163224D01*
X105403900Y-42256054D01*
X105638211Y-42318838D01*
X105818586Y-42342584D01*
X105878711Y-42350500D01*
X105878712Y-42350500D01*
X106121289Y-42350500D01*
X106169388Y-42344167D01*
X106361789Y-42318838D01*
X106596100Y-42256054D01*
X106820212Y-42163224D01*
X107030289Y-42041936D01*
X107222738Y-41894265D01*
X107394265Y-41722738D01*
X107541936Y-41530289D01*
X107663224Y-41320212D01*
X107756054Y-41096100D01*
X107818838Y-40861789D01*
X107850500Y-40621288D01*
X107850500Y-40378712D01*
X107818838Y-40138211D01*
X107756054Y-39903900D01*
X107663224Y-39679788D01*
X107541936Y-39469711D01*
X107394265Y-39277262D01*
X107394260Y-39277256D01*
X107222743Y-39105739D01*
X107222736Y-39105733D01*
X107030293Y-38958067D01*
X107030292Y-38958066D01*
X107030289Y-38958064D01*
X106820212Y-38836776D01*
X106820205Y-38836773D01*
X106596104Y-38743947D01*
X106361785Y-38681161D01*
X106121289Y-38649500D01*
X106121288Y-38649500D01*
X105878712Y-38649500D01*
X105878711Y-38649500D01*
X105638214Y-38681161D01*
X105403895Y-38743947D01*
X105179794Y-38836773D01*
X105179785Y-38836777D01*
X104969706Y-38958067D01*
X104777263Y-39105733D01*
X104777256Y-39105739D01*
X104605739Y-39277256D01*
X104605733Y-39277263D01*
X104458067Y-39469706D01*
X104336777Y-39679785D01*
X104336773Y-39679794D01*
X104243947Y-39903895D01*
X104181161Y-40138214D01*
X104149500Y-40378711D01*
X80885859Y-40378711D01*
X80831557Y-40211588D01*
X80735051Y-40022184D01*
X80735049Y-40022181D01*
X80735048Y-40022179D01*
X80610109Y-39850213D01*
X80459786Y-39699890D01*
X80287820Y-39574951D01*
X80098414Y-39478444D01*
X80098413Y-39478443D01*
X80098412Y-39478443D01*
X79896243Y-39412754D01*
X79896241Y-39412753D01*
X79896240Y-39412753D01*
X79734957Y-39387208D01*
X79686287Y-39379500D01*
X79473713Y-39379500D01*
X79425042Y-39387208D01*
X79263760Y-39412753D01*
X79061585Y-39478444D01*
X78872179Y-39574951D01*
X78700213Y-39699890D01*
X78549890Y-39850213D01*
X78424949Y-40022182D01*
X78420484Y-40030946D01*
X78372509Y-40081742D01*
X78304688Y-40098536D01*
X78238553Y-40075998D01*
X78199516Y-40030946D01*
X78195050Y-40022182D01*
X78070109Y-39850213D01*
X77919786Y-39699890D01*
X77747820Y-39574951D01*
X77558414Y-39478444D01*
X77558413Y-39478443D01*
X77558412Y-39478443D01*
X77356243Y-39412754D01*
X77356241Y-39412753D01*
X77356240Y-39412753D01*
X77194957Y-39387208D01*
X77146287Y-39379500D01*
X76933713Y-39379500D01*
X76885042Y-39387208D01*
X76723760Y-39412753D01*
X76521585Y-39478444D01*
X76332179Y-39574951D01*
X76160213Y-39699890D01*
X76009890Y-39850213D01*
X75884949Y-40022182D01*
X75880484Y-40030946D01*
X75832509Y-40081742D01*
X75764688Y-40098536D01*
X75698553Y-40075998D01*
X75659516Y-40030946D01*
X75655050Y-40022182D01*
X75530109Y-39850213D01*
X75379786Y-39699890D01*
X75207820Y-39574951D01*
X75018414Y-39478444D01*
X75018413Y-39478443D01*
X75018412Y-39478443D01*
X74816243Y-39412754D01*
X74816241Y-39412753D01*
X74816240Y-39412753D01*
X74654957Y-39387208D01*
X74606287Y-39379500D01*
X74393713Y-39379500D01*
X74345042Y-39387208D01*
X74183760Y-39412753D01*
X73981585Y-39478444D01*
X73792179Y-39574951D01*
X73620213Y-39699890D01*
X73469890Y-39850213D01*
X73344949Y-40022182D01*
X73340484Y-40030946D01*
X73292509Y-40081742D01*
X73224688Y-40098536D01*
X73158553Y-40075998D01*
X73119516Y-40030946D01*
X73115050Y-40022182D01*
X72990109Y-39850213D01*
X72839786Y-39699890D01*
X72667820Y-39574951D01*
X72478414Y-39478444D01*
X72478413Y-39478443D01*
X72478412Y-39478443D01*
X72276243Y-39412754D01*
X72276241Y-39412753D01*
X72276240Y-39412753D01*
X72114957Y-39387208D01*
X72066287Y-39379500D01*
X71853713Y-39379500D01*
X71805042Y-39387208D01*
X71643760Y-39412753D01*
X71441585Y-39478444D01*
X71252179Y-39574951D01*
X71080213Y-39699890D01*
X70929890Y-39850213D01*
X70804949Y-40022182D01*
X70800202Y-40031499D01*
X70752227Y-40082293D01*
X70684405Y-40099087D01*
X70618271Y-40076548D01*
X70579234Y-40031495D01*
X70574626Y-40022452D01*
X70535270Y-39968282D01*
X70535269Y-39968282D01*
X69902962Y-40600590D01*
X69885925Y-40537007D01*
X69820099Y-40422993D01*
X69727007Y-40329901D01*
X69612993Y-40264075D01*
X69549409Y-40247037D01*
X70181716Y-39614728D01*
X70127550Y-39575375D01*
X69938217Y-39478904D01*
X69736129Y-39413242D01*
X69526246Y-39380000D01*
X69313754Y-39380000D01*
X69103872Y-39413242D01*
X69103869Y-39413242D01*
X68901782Y-39478904D01*
X68712439Y-39575380D01*
X68658282Y-39614727D01*
X68658282Y-39614728D01*
X69290591Y-40247037D01*
X69227007Y-40264075D01*
X69112993Y-40329901D01*
X69019901Y-40422993D01*
X68954075Y-40537007D01*
X68937037Y-40600591D01*
X68304728Y-39968282D01*
X68304727Y-39968282D01*
X68265380Y-40022439D01*
X68168904Y-40211782D01*
X68103242Y-40413869D01*
X68103242Y-40413872D01*
X68070000Y-40623753D01*
X61350175Y-40623753D01*
X61350500Y-40621288D01*
X61350500Y-40378712D01*
X61318838Y-40138211D01*
X61256054Y-39903900D01*
X61256051Y-39903892D01*
X61175523Y-39709479D01*
X61175507Y-39709441D01*
X61163224Y-39679789D01*
X61163222Y-39679785D01*
X61041936Y-39469711D01*
X60894265Y-39277262D01*
X60894260Y-39277256D01*
X60722743Y-39105739D01*
X60722736Y-39105733D01*
X60530293Y-38958067D01*
X60530292Y-38958066D01*
X60530289Y-38958064D01*
X60320212Y-38836776D01*
X60320205Y-38836773D01*
X60096104Y-38743947D01*
X59861785Y-38681161D01*
X59621289Y-38649500D01*
X59621288Y-38649500D01*
X59378712Y-38649500D01*
X59378711Y-38649500D01*
X59138214Y-38681161D01*
X58903895Y-38743947D01*
X58679794Y-38836773D01*
X58679785Y-38836777D01*
X58469706Y-38958067D01*
X58277263Y-39105733D01*
X58277256Y-39105739D01*
X58105739Y-39277256D01*
X58105733Y-39277263D01*
X57958067Y-39469706D01*
X57836777Y-39679785D01*
X57836773Y-39679794D01*
X57743947Y-39903895D01*
X57681161Y-40138214D01*
X57649500Y-40378711D01*
X56000500Y-40378711D01*
X56000500Y-37124500D01*
X56020185Y-37057461D01*
X56072989Y-37011706D01*
X56124500Y-37000500D01*
X109375500Y-37000500D01*
X109442539Y-37020185D01*
G37*
%TD.AperFunction*%
%TD*%
M02*
