M48
; DRILL file KiCad 10.0.6 date 2026-10-06T17:14:12
; FORMAT={-:-/ absolute / metric / decimal}
; #@! TF.CreationDate,2026-10-06T17:14:12-05:00
; #@! TF.GenerationSoftware,Kicad,Pcbnew,10.0.6
; #@! TF.FileFunction,Plated,1,2,PTH
FMAT,2
METRIC
; #@! TA.AperFunction,Plated,PTH,ViaDrill
T1C0.300
; #@! TA.AperFunction,Plated,PTH,ComponentDrill
T2C0.760
; #@! TA.AperFunction,Plated,PTH,ComponentDrill
T3C1.000
; #@! TA.AperFunction,Plated,PTH,ComponentDrill
T4C1.020
%
G90
G05
T1
X57.5Y-54.5
X58.45Y-47.5
X62.0Y-47.0
X64.5Y-45.5
X66.5Y-43.5
X66.5Y-54.5
X66.5Y-63.5
X67.0Y-51.0
X71.5Y-51.5
X71.5Y-56.5
X72.0Y-63.424
X72.674Y-48.174
X75.5Y-46.05
X75.5Y-68.5
X76.5Y-52.512
X77.453Y-51.312
X77.5Y-56.0
X80.5Y-64.0
X81.5Y-70.5
X82.975Y-59.0
X88.0Y-61.5
X91.0Y-56.112
X92.5Y-64.0
X100.5Y-65.0
T2
X93.36Y-47.892
X93.36Y-50.432
X93.36Y-52.972
X93.36Y-55.512
X95.9Y-49.162
X95.9Y-51.703
X95.9Y-54.242
X95.9Y-56.782
T3
X69.42Y-40.73
X69.42Y-43.27
X71.96Y-40.73
X71.96Y-43.27
X74.5Y-40.73
X74.5Y-43.27
X77.04Y-40.73
X77.04Y-43.27
X79.58Y-40.73
X79.58Y-43.27
T4
X67.0Y-72.5
X70.0Y-72.5
X73.0Y-72.5
X81.5Y-72.535
X84.5Y-72.535
X87.5Y-72.535
M30
