%TF.GenerationSoftware,KiCad,Pcbnew,10.0.6*%
%TF.CreationDate,2026-10-06T17:14:08-05:00*%
%TF.ProjectId,onboarding_1,6f6e626f-6172-4646-996e-675f312e6b69,1*%
%TF.SameCoordinates,Original*%
%TF.FileFunction,Copper,L1,Top*%
%TF.FilePolarity,Positive*%
%FSLAX46Y46*%
G04 Gerber Fmt 4.6, Leading zero omitted, Abs format (unit mm)*
G04 Created by KiCad (PCBNEW 10.0.6) date 2026-10-06 17:14:08*
%MOMM*%
%LPD*%
G01*
G04 APERTURE LIST*
G04 Aperture macros list*
%AMRoundRect*
0 Rectangle with rounded corners*
0 $1 Rounding radius*
0 $2 $3 $4 $5 $6 $7 $8 $9 X,Y pos of 4 corners*
0 Add a 4 corners polygon primitive as box body*
4,1,4,$2,$3,$4,$5,$6,$7,$8,$9,$2,$3,0*
0 Add four circle primitives for the rounded corners*
1,1,$1+$1,$2,$3*
1,1,$1+$1,$4,$5*
1,1,$1+$1,$6,$7*
1,1,$1+$1,$8,$9*
0 Add four rect primitives between the rounded corners*
20,1,$1+$1,$2,$3,$4,$5,0*
20,1,$1+$1,$4,$5,$6,$7,0*
20,1,$1+$1,$6,$7,$8,$9,0*
20,1,$1+$1,$8,$9,$2,$3,0*%
G04 Aperture macros list end*
%TA.AperFunction,SMDPad,CuDef*%
%ADD10RoundRect,0.250000X-0.250000X-0.475000X0.250000X-0.475000X0.250000X0.475000X-0.250000X0.475000X0*%
%TD*%
%TA.AperFunction,SMDPad,CuDef*%
%ADD11RoundRect,0.075000X-0.662500X-0.075000X0.662500X-0.075000X0.662500X0.075000X-0.662500X0.075000X0*%
%TD*%
%TA.AperFunction,SMDPad,CuDef*%
%ADD12RoundRect,0.075000X-0.075000X-0.662500X0.075000X-0.662500X0.075000X0.662500X-0.075000X0.662500X0*%
%TD*%
%TA.AperFunction,SMDPad,CuDef*%
%ADD13RoundRect,0.250000X0.450000X-0.262500X0.450000X0.262500X-0.450000X0.262500X-0.450000X-0.262500X0*%
%TD*%
%TA.AperFunction,SMDPad,CuDef*%
%ADD14R,1.600000X0.300000*%
%TD*%
%TA.AperFunction,SMDPad,CuDef*%
%ADD15RoundRect,0.250000X0.475000X-0.250000X0.475000X0.250000X-0.475000X0.250000X-0.475000X-0.250000X0*%
%TD*%
%TA.AperFunction,SMDPad,CuDef*%
%ADD16RoundRect,0.162500X-1.012500X-0.162500X1.012500X-0.162500X1.012500X0.162500X-1.012500X0.162500X0*%
%TD*%
%TA.AperFunction,ComponentPad*%
%ADD17RoundRect,0.250001X0.499999X0.759999X-0.499999X0.759999X-0.499999X-0.759999X0.499999X-0.759999X0*%
%TD*%
%TA.AperFunction,ComponentPad*%
%ADD18O,1.500000X2.020000*%
%TD*%
%TA.AperFunction,SMDPad,CuDef*%
%ADD19RoundRect,0.250000X0.262500X0.450000X-0.262500X0.450000X-0.262500X-0.450000X0.262500X-0.450000X0*%
%TD*%
%TA.AperFunction,SMDPad,CuDef*%
%ADD20RoundRect,0.250000X0.250000X0.475000X-0.250000X0.475000X-0.250000X-0.475000X0.250000X-0.475000X0*%
%TD*%
%TA.AperFunction,SMDPad,CuDef*%
%ADD21RoundRect,0.243750X0.243750X0.456250X-0.243750X0.456250X-0.243750X-0.456250X0.243750X-0.456250X0*%
%TD*%
%TA.AperFunction,ComponentPad*%
%ADD22R,1.700000X1.700000*%
%TD*%
%TA.AperFunction,ComponentPad*%
%ADD23C,1.700000*%
%TD*%
%TA.AperFunction,ComponentPad*%
%ADD24R,1.500000X1.500000*%
%TD*%
%TA.AperFunction,ComponentPad*%
%ADD25C,1.500000*%
%TD*%
%TA.AperFunction,SMDPad,CuDef*%
%ADD26R,1.000000X3.200000*%
%TD*%
%TA.AperFunction,SMDPad,CuDef*%
%ADD27RoundRect,0.250000X-0.475000X0.250000X-0.475000X-0.250000X0.475000X-0.250000X0.475000X0.250000X0*%
%TD*%
%TA.AperFunction,SMDPad,CuDef*%
%ADD28RoundRect,0.150000X-0.512500X-0.150000X0.512500X-0.150000X0.512500X0.150000X-0.512500X0.150000X0*%
%TD*%
%TA.AperFunction,SMDPad,CuDef*%
%ADD29RoundRect,0.250000X-0.262500X-0.450000X0.262500X-0.450000X0.262500X0.450000X-0.262500X0.450000X0*%
%TD*%
%TA.AperFunction,ViaPad*%
%ADD30C,0.600000*%
%TD*%
%TA.AperFunction,Conductor*%
%ADD31C,0.200000*%
%TD*%
%TA.AperFunction,Conductor*%
%ADD32C,0.750000*%
%TD*%
%TA.AperFunction,Conductor*%
%ADD33C,0.500000*%
%TD*%
G04 APERTURE END LIST*
D10*
%TO.P,C9,1*%
%TO.N,+3.3V*%
X98550000Y-63000000D03*
%TO.P,C9,2*%
%TO.N,GND*%
X100450000Y-63000000D03*
%TD*%
D11*
%TO.P,U1,1,VBAT_1*%
%TO.N,+3.3V*%
X65087500Y-50912500D03*
%TO.P,U1,2,PC13_2*%
%TO.N,unconnected-(U1-PC13-Pad2)*%
X65087500Y-51412500D03*
%TO.P,U1,3,PC14_3*%
%TO.N,unconnected-(U1-PC14-Pad3)*%
X65087500Y-51912500D03*
%TO.P,U1,4,PC15_4*%
%TO.N,unconnected-(U1-PC15-Pad4)*%
X65087500Y-52412500D03*
%TO.P,U1,5,PD0_5*%
%TO.N,unconnected-(U1-PD0-Pad5)*%
X65087500Y-52912500D03*
%TO.P,U1,6,PD1_6*%
%TO.N,unconnected-(U1-PD1-Pad6)*%
X65087500Y-53412500D03*
%TO.P,U1,7,NRST_7*%
%TO.N,NRST*%
X65087500Y-53912500D03*
%TO.P,U1,8,VSSA_8*%
%TO.N,GND*%
X65087500Y-54412500D03*
%TO.P,U1,9,VDDA_9*%
%TO.N,+3.3V*%
X65087500Y-54912500D03*
%TO.P,U1,10,PA0_10*%
%TO.N,unconnected-(U1-PA0-Pad10)*%
X65087500Y-55412500D03*
%TO.P,U1,11,PA1_11*%
%TO.N,unconnected-(U1-PA1-Pad11)*%
X65087500Y-55912500D03*
%TO.P,U1,12,PA2_12*%
%TO.N,unconnected-(U1-PA2-Pad12)*%
X65087500Y-56412500D03*
D12*
%TO.P,U1,13,PA3_13*%
%TO.N,unconnected-(U1-PA3-Pad13)*%
X66500000Y-57825000D03*
%TO.P,U1,14,PA4_14*%
%TO.N,unconnected-(U1-PA4-Pad14)*%
X67000000Y-57825000D03*
%TO.P,U1,15,PA5_15*%
%TO.N,unconnected-(U1-PA5-Pad15)*%
X67500000Y-57825000D03*
%TO.P,U1,16,PA6_16*%
%TO.N,LED_B*%
X68000000Y-57825000D03*
%TO.P,U1,17,PA7_17*%
%TO.N,unconnected-(U1-PA7-Pad17)*%
X68500000Y-57825000D03*
%TO.P,U1,18,PB0_18*%
%TO.N,unconnected-(U1-PB0-Pad18)*%
X69000000Y-57825000D03*
%TO.P,U1,19,PB1_19*%
%TO.N,LED_A*%
X69500000Y-57825000D03*
%TO.P,U1,20,PB2_20*%
%TO.N,unconnected-(U1-PB2-Pad20)*%
X70000000Y-57825000D03*
%TO.P,U1,21,PB10_21*%
%TO.N,unconnected-(U1-PB10-Pad21)*%
X70500000Y-57825000D03*
%TO.P,U1,22,PB11_22*%
%TO.N,unconnected-(U1-PB11-Pad22)*%
X71000000Y-57825000D03*
%TO.P,U1,23,VSS_23*%
%TO.N,GND*%
X71500000Y-57825000D03*
%TO.P,U1,24,VDD_24*%
%TO.N,+3.3V*%
X72000000Y-57825000D03*
D11*
%TO.P,U1,25,PB12_25*%
%TO.N,unconnected-(U1-PB12-Pad25)*%
X73412500Y-56412500D03*
%TO.P,U1,26,PB13_26*%
%TO.N,unconnected-(U1-PB13-Pad26)*%
X73412500Y-55912500D03*
%TO.P,U1,27,PB14_27*%
%TO.N,unconnected-(U1-PB14-Pad27)*%
X73412500Y-55412500D03*
%TO.P,U1,28,PB15_28*%
%TO.N,CAN_LED*%
X73412500Y-54912500D03*
%TO.P,U1,29,PA8_29*%
%TO.N,unconnected-(U1-PA8-Pad29)*%
X73412500Y-54412500D03*
%TO.P,U1,30,PA9_30*%
%TO.N,unconnected-(U1-PA9-Pad30)*%
X73412500Y-53912500D03*
%TO.P,U1,31,PA10_31*%
%TO.N,unconnected-(U1-PA10-Pad31)*%
X73412500Y-53412500D03*
%TO.P,U1,32,PA11_32*%
%TO.N,unconnected-(U1-PA11-Pad32)*%
X73412500Y-52912500D03*
%TO.P,U1,33,PA12_33*%
%TO.N,CAN_RX*%
X73412500Y-52412500D03*
%TO.P,U1,34,PA13_34*%
%TO.N,CAN_TX*%
X73412500Y-51912500D03*
%TO.P,U1,35,VSS_35*%
%TO.N,GND*%
X73412500Y-51412500D03*
%TO.P,U1,36,VDD_36*%
%TO.N,+3.3V*%
X73412500Y-50912500D03*
D12*
%TO.P,U1,37,PA14_37*%
%TO.N,SWDIO*%
X72000000Y-49500000D03*
%TO.P,U1,38,PA15_38*%
%TO.N,SWCLK*%
X71500000Y-49500000D03*
%TO.P,U1,39,PB3_39*%
%TO.N,SWO*%
X71000000Y-49500000D03*
%TO.P,U1,40,PB4_40*%
%TO.N,unconnected-(U1-PB4-Pad40)*%
X70500000Y-49500000D03*
%TO.P,U1,41,PB5_41*%
%TO.N,unconnected-(U1-PB5-Pad41)*%
X70000000Y-49500000D03*
%TO.P,U1,42,PB6_42*%
%TO.N,unconnected-(U1-PB6-Pad42)*%
X69500000Y-49500000D03*
%TO.P,U1,43,PB7_43*%
%TO.N,unconnected-(U1-PB7-Pad43)*%
X69000000Y-49500000D03*
%TO.P,U1,44,BOOT0_44*%
%TO.N,BOOT0*%
X68500000Y-49500000D03*
%TO.P,U1,45,PB8_45*%
%TO.N,unconnected-(U1-PB8-Pad45)*%
X68000000Y-49500000D03*
%TO.P,U1,46,PB9_46*%
%TO.N,unconnected-(U1-PB9-Pad46)*%
X67500000Y-49500000D03*
%TO.P,U1,47,VSS_47*%
%TO.N,GND*%
X67000000Y-49500000D03*
%TO.P,U1,48,VDD_48*%
%TO.N,+3.3V*%
X66500000Y-49500000D03*
%TD*%
D13*
%TO.P,R1,1*%
%TO.N,BOOT0*%
X66500000Y-46912500D03*
%TO.P,R1,2*%
%TO.N,GND*%
X66500000Y-45087500D03*
%TD*%
D14*
%TO.P,U4,1,GND_1*%
%TO.N,GND*%
X70300000Y-65025000D03*
%TO.P,U4,2,VREF_A_2*%
%TO.N,+3.3V*%
X70300000Y-65675000D03*
%TO.P,U4,3,A1_3*%
%TO.N,LED_A*%
X70300000Y-66325000D03*
%TO.P,U4,4,A2_4*%
%TO.N,LED_B*%
X70300000Y-66975000D03*
%TO.P,U4,5,B2_5*%
%TO.N,LED_B_5V*%
X73700000Y-66975000D03*
%TO.P,U4,6,B1_6*%
%TO.N,LED_A_5V*%
X73700000Y-66325000D03*
%TO.P,U4,7,VREF_B_7*%
%TO.N,Net-(U4-EN)*%
X73700000Y-65675000D03*
%TO.P,U4,8,EN_8*%
X73700000Y-65025000D03*
%TD*%
D15*
%TO.P,C5,1*%
%TO.N,+3.3V*%
X64500000Y-48950000D03*
%TO.P,C5,2*%
%TO.N,GND*%
X64500000Y-47050000D03*
%TD*%
%TO.P,C4,1*%
%TO.N,+3.3V*%
X62000000Y-50900000D03*
%TO.P,C4,2*%
%TO.N,GND*%
X62000000Y-49000000D03*
%TD*%
D16*
%TO.P,U2,1,VCC1_1*%
%TO.N,+3.3V*%
X79475000Y-48690000D03*
%TO.P,U2,2,RXD_2*%
%TO.N,CAN_RX*%
X79475000Y-51230000D03*
%TO.P,U2,3,TXD_3*%
%TO.N,CAN_TX*%
X79475000Y-53770000D03*
%TO.P,U2,4,GND1_4*%
%TO.N,GND*%
X79475000Y-56310000D03*
%TO.P,U2,5,GND2_5*%
%TO.N,GND_CAN*%
X88525000Y-56310000D03*
%TO.P,U2,6,CANL_6*%
%TO.N,CAN_LOW*%
X88525000Y-53770000D03*
%TO.P,U2,7,CANH_7*%
%TO.N,CAN_HIGH*%
X88525000Y-51230000D03*
%TO.P,U2,8,VCC2_8*%
%TO.N,5V_CAN*%
X88525000Y-48690000D03*
%TD*%
D17*
%TO.P,J4,1,1_1*%
%TO.N,+5V*%
X87500000Y-72535000D03*
D18*
%TO.P,J4,2,2_2*%
%TO.N,GND*%
X84500000Y-72535000D03*
%TO.P,J4,3,3_3*%
%TO.N,LED_B_5V*%
X81500000Y-72535000D03*
%TD*%
D15*
%TO.P,C7,1*%
%TO.N,+3.3V*%
X58500000Y-50950000D03*
%TO.P,C7,2*%
%TO.N,GND*%
X58500000Y-49050000D03*
%TD*%
D19*
%TO.P,R4,1*%
%TO.N,+5V*%
X78912500Y-66500000D03*
%TO.P,R4,2*%
%TO.N,Net-(U4-EN)*%
X77087500Y-66500000D03*
%TD*%
D10*
%TO.P,C10,1*%
%TO.N,Net-(U4-EN)*%
X77050000Y-64000000D03*
%TO.P,C10,2*%
%TO.N,GND*%
X78950000Y-64000000D03*
%TD*%
D15*
%TO.P,C2,1*%
%TO.N,+3.3V*%
X75500000Y-49450000D03*
%TO.P,C2,2*%
%TO.N,GND*%
X75500000Y-47550000D03*
%TD*%
D19*
%TO.P,R3,1*%
%TO.N,Net-(U3-EN)*%
X90912500Y-65000000D03*
%TO.P,R3,2*%
%TO.N,+5V*%
X89087500Y-65000000D03*
%TD*%
D20*
%TO.P,C8,1*%
%TO.N,+5V*%
X91450000Y-61500000D03*
%TO.P,C8,2*%
%TO.N,GND*%
X89550000Y-61500000D03*
%TD*%
D21*
%TO.P,D1,1,K_1*%
%TO.N,Net-(D1-K)*%
X78000000Y-59000000D03*
%TO.P,D1,2,A_2*%
%TO.N,CAN_LED*%
X76125000Y-59000000D03*
%TD*%
D22*
%TO.P,J2,1,Pin_1_1*%
%TO.N,+5V*%
X79580000Y-43270000D03*
D23*
%TO.P,J2,2,Pin_2_2*%
X79580000Y-40730000D03*
%TO.P,J2,3,Pin_3_3*%
%TO.N,SWCLK*%
X77040000Y-43270000D03*
%TO.P,J2,4,Pin_4_4*%
%TO.N,+3.3V*%
X77040000Y-40730000D03*
%TO.P,J2,5,Pin_5_5*%
%TO.N,SWO*%
X74500000Y-43270000D03*
%TO.P,J2,6,Pin_6_6*%
%TO.N,+3.3V*%
X74500000Y-40730000D03*
%TO.P,J2,7,Pin_7_7*%
%TO.N,SWDIO*%
X71960000Y-43270000D03*
%TO.P,J2,8,Pin_8_8*%
%TO.N,unconnected-(J2-Pin_8-Pad8)*%
X71960000Y-40730000D03*
%TO.P,J2,9,Pin_9_9*%
%TO.N,GND*%
X69420000Y-43270000D03*
%TO.P,J2,10,Pin_10_10*%
X69420000Y-40730000D03*
%TD*%
D24*
%TO.P,J3,1,1_1*%
%TO.N,CAN_HIGH*%
X95900000Y-56782500D03*
D25*
%TO.P,J3,2,2_2*%
%TO.N,CAN_LOW*%
X93360000Y-55512500D03*
%TO.P,J3,3,3_3*%
%TO.N,+5V*%
X95900000Y-54242500D03*
%TO.P,J3,4,4_4*%
%TO.N,GND*%
X93360000Y-52972500D03*
%TO.P,J3,5,5_5*%
%TO.N,+5V*%
X95900000Y-51702500D03*
%TO.P,J3,6,6_6*%
%TO.N,GND*%
X93360000Y-50432500D03*
%TO.P,J3,7,7_7*%
%TO.N,5V_CAN*%
X95900000Y-49162500D03*
%TO.P,J3,8,8_8*%
%TO.N,GND_CAN*%
X93360000Y-47892500D03*
%TD*%
D26*
%TO.P,SW1,1,1_1*%
%TO.N,GND*%
X62500000Y-60100000D03*
X62500000Y-66900000D03*
%TO.P,SW1,2,2_2*%
%TO.N,NRST*%
X58500000Y-60100000D03*
X58500000Y-66900000D03*
%TD*%
D27*
%TO.P,C6,1*%
%TO.N,+3.3V*%
X72000000Y-60023748D03*
%TO.P,C6,2*%
%TO.N,GND*%
X72000000Y-61923748D03*
%TD*%
D20*
%TO.P,C1,1*%
%TO.N,NRST*%
X60950000Y-54500000D03*
%TO.P,C1,2*%
%TO.N,GND*%
X59050000Y-54500000D03*
%TD*%
D17*
%TO.P,J1,1,1_1*%
%TO.N,+5V*%
X73000000Y-72500000D03*
D18*
%TO.P,J1,2,2_2*%
%TO.N,GND*%
X70000000Y-72500000D03*
%TO.P,J1,3,3_3*%
%TO.N,LED_A_5V*%
X67000000Y-72500000D03*
%TD*%
D28*
%TO.P,U3,1,VIN_1*%
%TO.N,+5V*%
X93862500Y-63050000D03*
%TO.P,U3,2,GND_2*%
%TO.N,GND*%
X93862500Y-64000000D03*
%TO.P,U3,3,EN_3*%
%TO.N,Net-(U3-EN)*%
X93862500Y-64950000D03*
%TO.P,U3,4,NC_4*%
%TO.N,unconnected-(U3-NC-Pad4)*%
X96137500Y-64950000D03*
%TO.P,U3,5,VOUT_5*%
%TO.N,+3.3V*%
X96137500Y-63050000D03*
%TD*%
D29*
%TO.P,R2,1*%
%TO.N,Net-(D1-K)*%
X79650000Y-59000000D03*
%TO.P,R2,2*%
%TO.N,GND*%
X81475000Y-59000000D03*
%TD*%
D27*
%TO.P,C3,1*%
%TO.N,+3.3V*%
X66500000Y-60050000D03*
%TO.P,C3,2*%
%TO.N,GND*%
X66500000Y-61950000D03*
%TD*%
D30*
%TO.N,GND*%
X62000000Y-47000000D03*
X72000000Y-63423748D03*
X88000000Y-61500000D03*
X67000000Y-51000000D03*
X75500000Y-46050000D03*
X64500000Y-45500000D03*
X71500000Y-51500000D03*
X100500000Y-65000000D03*
X66500000Y-43500000D03*
X80500000Y-64000000D03*
X58450000Y-47500000D03*
X71500000Y-56500000D03*
X77500000Y-56000000D03*
X66500000Y-54500000D03*
X82975000Y-59000000D03*
X57500000Y-54500000D03*
X92500000Y-64000000D03*
X66500000Y-63500000D03*
%TO.N,CAN_RX*%
X76500000Y-52512500D03*
X77453129Y-51312500D03*
%TO.N,SWDIO*%
X72674265Y-48174265D03*
%TO.N,LED_B_5V*%
X81500000Y-70500000D03*
X75500000Y-68500000D03*
%TO.N,GND_CAN*%
X91000000Y-56112500D03*
%TD*%
%TO.N,+3.3V*%
D31*
X70300000Y-65675000D02*
X69400000Y-65675000D01*
X69400000Y-65675000D02*
X69200000Y-65475000D01*
X96137500Y-63050000D02*
X98500000Y-63050000D01*
X69200000Y-65475000D02*
X69200000Y-62823748D01*
X69200000Y-62823748D02*
X72000000Y-60023748D01*
X98500000Y-63050000D02*
X98550000Y-63000000D01*
%TO.N,GND*%
X58500000Y-47550000D02*
X58450000Y-47500000D01*
X71500000Y-57825000D02*
X71500000Y-56500000D01*
X58500000Y-49050000D02*
X58500000Y-47550000D01*
X75500000Y-47550000D02*
X75500000Y-46050000D01*
X63100000Y-60100000D02*
X66500000Y-63500000D01*
X81475000Y-59000000D02*
X82975000Y-59000000D01*
X71500000Y-51500000D02*
X71587500Y-51412500D01*
X78950000Y-64000000D02*
X80500000Y-64000000D01*
X77810000Y-56310000D02*
X77500000Y-56000000D01*
X100450000Y-64950000D02*
X100500000Y-65000000D01*
X66412500Y-54412500D02*
X66500000Y-54500000D01*
X72000000Y-61923748D02*
X72000000Y-63423748D01*
X66500000Y-63500000D02*
X63100000Y-66900000D01*
X63100000Y-66900000D02*
X62500000Y-66900000D01*
X65087500Y-54412500D02*
X66412500Y-54412500D01*
X66500000Y-61950000D02*
X66500000Y-63500000D01*
X70300000Y-65025000D02*
X70398748Y-65025000D01*
D32*
X93862500Y-64000000D02*
X92500000Y-64000000D01*
D31*
X64500000Y-45500000D02*
X64500000Y-47050000D01*
X59050000Y-54500000D02*
X57500000Y-54500000D01*
X88000000Y-61500000D02*
X89550000Y-61500000D01*
X62500000Y-60100000D02*
X63100000Y-60100000D01*
X79475000Y-56310000D02*
X77810000Y-56310000D01*
X66500000Y-43500000D02*
X66500000Y-45087500D01*
X71587500Y-51412500D02*
X73412500Y-51412500D01*
X67000000Y-49500000D02*
X67000000Y-51000000D01*
X70398748Y-65025000D02*
X72000000Y-63423748D01*
X100450000Y-63000000D02*
X100450000Y-64950000D01*
X62000000Y-49000000D02*
X62000000Y-47000000D01*
%TO.N,NRST*%
X58500000Y-60100000D02*
X58500000Y-66900000D01*
X60950000Y-54500000D02*
X60950000Y-57650000D01*
X61537500Y-53912500D02*
X60950000Y-54500000D01*
X65087500Y-53912500D02*
X61537500Y-53912500D01*
X60950000Y-57650000D02*
X58500000Y-60100000D01*
%TO.N,LED_A*%
X69484315Y-66325000D02*
X70300000Y-66325000D01*
X68800000Y-65640686D02*
X69484315Y-66325000D01*
X69500000Y-61958062D02*
X68800000Y-62658062D01*
X68800000Y-62658062D02*
X68800000Y-65640686D01*
X69500000Y-57825000D02*
X69500000Y-61958062D01*
%TO.N,LED_B*%
X68000000Y-57825000D02*
X68000000Y-65675000D01*
X68000000Y-65675000D02*
X69300000Y-66975000D01*
X69300000Y-66975000D02*
X70300000Y-66975000D01*
%TO.N,CAN_LED*%
X76125000Y-56855090D02*
X74182410Y-54912500D01*
X74182410Y-54912500D02*
X73412500Y-54912500D01*
X76125000Y-59000000D02*
X76125000Y-56855090D01*
%TO.N,CAN_RX*%
X77535629Y-51230000D02*
X79475000Y-51230000D01*
X73412500Y-52412500D02*
X76400000Y-52412500D01*
X77453129Y-51312500D02*
X77535629Y-51230000D01*
X76400000Y-52412500D02*
X76500000Y-52512500D01*
%TO.N,CAN_TX*%
X73412500Y-51912500D02*
X77617500Y-51912500D01*
X77617500Y-51912500D02*
X79475000Y-53770000D01*
%TO.N,SWDIO*%
X72000000Y-49500000D02*
X72000000Y-48848530D01*
X72000000Y-48848530D02*
X72674265Y-48174265D01*
%TO.N,SWCLK*%
X76730000Y-43270000D02*
X77040000Y-43270000D01*
X71500000Y-49500000D02*
X71500000Y-48500000D01*
X71500000Y-48500000D02*
X76730000Y-43270000D01*
%TO.N,SWO*%
X71000000Y-49500000D02*
X71000000Y-46770000D01*
X71000000Y-46770000D02*
X74500000Y-43270000D01*
%TO.N,BOOT0*%
X68500000Y-49500000D02*
X68500000Y-48730090D01*
X68500000Y-48730090D02*
X66682410Y-46912500D01*
X66682410Y-46912500D02*
X66500000Y-46912500D01*
%TO.N,LED_B_5V*%
X73700000Y-66975000D02*
X73975000Y-66975000D01*
X81500000Y-70500000D02*
X81500000Y-72535000D01*
X73975000Y-66975000D02*
X75500000Y-68500000D01*
%TO.N,LED_A_5V*%
X73700000Y-66325000D02*
X72700000Y-66325000D01*
X67000000Y-72025000D02*
X67000000Y-72500000D01*
X72700000Y-66325000D02*
X67000000Y-72025000D01*
%TO.N,Net-(U4-EN)*%
X73700000Y-65025000D02*
X76025000Y-65025000D01*
X73700000Y-65675000D02*
X73700000Y-65025000D01*
X76262500Y-65675000D02*
X77087500Y-66500000D01*
X73700000Y-65675000D02*
X76262500Y-65675000D01*
X76025000Y-65025000D02*
X77050000Y-64000000D01*
%TO.N,GND_CAN*%
X88525000Y-56310000D02*
X90802500Y-56310000D01*
X90802500Y-56310000D02*
X91000000Y-56112500D01*
%TO.N,CAN_LOW*%
X88525000Y-53770000D02*
X90267500Y-55512500D01*
X90267500Y-55512500D02*
X93360000Y-55512500D01*
%TO.N,CAN_HIGH*%
X91757500Y-54462500D02*
X93794925Y-54462500D01*
X95900000Y-56567575D02*
X95900000Y-56782500D01*
X88525000Y-51230000D02*
X91757500Y-54462500D01*
X93794925Y-54462500D02*
X95900000Y-56567575D01*
%TO.N,5V_CAN*%
X88525000Y-48690000D02*
X88997500Y-49162500D01*
X88997500Y-49162500D02*
X95900000Y-49162500D01*
%TO.N,+5V*%
D32*
X97500000Y-59412500D02*
X93862500Y-63050000D01*
D33*
X90950000Y-63050000D02*
X89087500Y-64912500D01*
X78912500Y-66587500D02*
X73000000Y-72500000D01*
D31*
X93000000Y-63050000D02*
X93862500Y-63050000D01*
D33*
X89087500Y-64912500D02*
X89087500Y-65000000D01*
D32*
X97500000Y-55842500D02*
X97500000Y-59412500D01*
D33*
X89087500Y-65000000D02*
X80412500Y-65000000D01*
X78912500Y-66500000D02*
X78912500Y-66587500D01*
D31*
X91450000Y-61500000D02*
X93000000Y-63050000D01*
D33*
X78912500Y-66500000D02*
X81465000Y-66500000D01*
D32*
X96950000Y-55292500D02*
X97500000Y-55842500D01*
X95900000Y-51702500D02*
X95900000Y-54242500D01*
D33*
X80412500Y-65000000D02*
X78912500Y-66500000D01*
X81465000Y-66500000D02*
X87500000Y-72535000D01*
D32*
X95900000Y-54242500D02*
X96950000Y-55292500D01*
D33*
X93862500Y-63050000D02*
X90950000Y-63050000D01*
%TO.N,Net-(U3-EN)*%
D31*
X93862500Y-64950000D02*
X90962500Y-64950000D01*
X90962500Y-64950000D02*
X90912500Y-65000000D01*
%TO.N,Net-(D1-K)*%
X79600000Y-58950000D02*
X79650000Y-59000000D01*
X78000000Y-59000000D02*
X79650000Y-59000000D01*
%TD*%
%TA.AperFunction,Conductor*%
%TO.N,+3.3V*%
G36*
X76574075Y-40922993D02*
G01*
X76639901Y-41037007D01*
X76732993Y-41130099D01*
X76847007Y-41195925D01*
X76910591Y-41212962D01*
X76278281Y-41845271D01*
X76332440Y-41884619D01*
X76332443Y-41884621D01*
X76521781Y-41981094D01*
X76723873Y-42046757D01*
X76723876Y-42046758D01*
X76920545Y-42077907D01*
X76952522Y-42097502D01*
X76961277Y-42133969D01*
X76941682Y-42165946D01*
X76920546Y-42174701D01*
X76782299Y-42196597D01*
X76782298Y-42196598D01*
X76617553Y-42250127D01*
X76463217Y-42328764D01*
X76323065Y-42430591D01*
X76200591Y-42553065D01*
X76098764Y-42693217D01*
X76020127Y-42847553D01*
X75966598Y-43012298D01*
X75966597Y-43012301D01*
X75939500Y-43183389D01*
X75939500Y-43356610D01*
X75964062Y-43511690D01*
X75955307Y-43548157D01*
X75950313Y-43554003D01*
X71434148Y-48070169D01*
X71399500Y-48084521D01*
X71364852Y-48070169D01*
X71350500Y-48035521D01*
X71350500Y-46935477D01*
X71364851Y-46900830D01*
X73984979Y-44280701D01*
X74019626Y-44266350D01*
X74041870Y-44271690D01*
X74077555Y-44289873D01*
X74242299Y-44343402D01*
X74413389Y-44370500D01*
X74413390Y-44370500D01*
X74586610Y-44370500D01*
X74586611Y-44370500D01*
X74757701Y-44343402D01*
X74922445Y-44289873D01*
X75076788Y-44211232D01*
X75216928Y-44109414D01*
X75339414Y-43986928D01*
X75441232Y-43846788D01*
X75519873Y-43692445D01*
X75573402Y-43527701D01*
X75600500Y-43356611D01*
X75600500Y-43183389D01*
X75573402Y-43012299D01*
X75519873Y-42847555D01*
X75441232Y-42693212D01*
X75339414Y-42553072D01*
X75339410Y-42553068D01*
X75339408Y-42553065D01*
X75216934Y-42430591D01*
X75216935Y-42430591D01*
X75076782Y-42328764D01*
X74922446Y-42250127D01*
X74757701Y-42196598D01*
X74757698Y-42196597D01*
X74619454Y-42174701D01*
X74587477Y-42155105D01*
X74578722Y-42118639D01*
X74598318Y-42086662D01*
X74619454Y-42077907D01*
X74816123Y-42046758D01*
X74816126Y-42046757D01*
X75018218Y-41981094D01*
X75207553Y-41884622D01*
X75261717Y-41845271D01*
X74629408Y-41212962D01*
X74692993Y-41195925D01*
X74807007Y-41130099D01*
X74900099Y-41037007D01*
X74965925Y-40922993D01*
X74982962Y-40859408D01*
X75615271Y-41491717D01*
X75654622Y-41437553D01*
X75726341Y-41296799D01*
X75754858Y-41272443D01*
X75792246Y-41275386D01*
X75813659Y-41296799D01*
X75885378Y-41437556D01*
X75885380Y-41437560D01*
X75924727Y-41491716D01*
X75924728Y-41491716D01*
X76557036Y-40859407D01*
X76574075Y-40922993D01*
G37*
%TD.AperFunction*%
%TA.AperFunction,Conductor*%
G36*
X109485148Y-37014852D02*
G01*
X109499500Y-37049500D01*
X109499500Y-80950500D01*
X109485148Y-80985148D01*
X109450500Y-80999500D01*
X56049500Y-80999500D01*
X56014852Y-80985148D01*
X56000500Y-80950500D01*
X56000500Y-77378712D01*
X57649500Y-77378712D01*
X57649500Y-77621288D01*
X57681162Y-77861789D01*
X57681163Y-77861793D01*
X57681164Y-77861800D01*
X57743944Y-78096095D01*
X57743946Y-78096101D01*
X57836776Y-78320213D01*
X57958062Y-78530286D01*
X57958072Y-78530301D01*
X58105730Y-78722732D01*
X58105740Y-78722744D01*
X58277255Y-78894259D01*
X58277267Y-78894269D01*
X58469698Y-79041927D01*
X58469707Y-79041933D01*
X58469711Y-79041936D01*
X58679788Y-79163224D01*
X58903900Y-79256054D01*
X58903904Y-79256055D01*
X59138199Y-79318835D01*
X59138200Y-79318835D01*
X59138211Y-79318838D01*
X59378712Y-79350500D01*
X59378716Y-79350500D01*
X59621284Y-79350500D01*
X59621288Y-79350500D01*
X59861789Y-79318838D01*
X60096100Y-79256054D01*
X60320212Y-79163224D01*
X60530289Y-79041936D01*
X60722738Y-78894265D01*
X60894265Y-78722738D01*
X61041936Y-78530289D01*
X61163224Y-78320212D01*
X61256054Y-78096100D01*
X61318838Y-77861789D01*
X61350500Y-77621288D01*
X61350500Y-77378712D01*
X61318838Y-77138211D01*
X61264315Y-76934730D01*
X68249499Y-76934730D01*
X68249500Y-76934734D01*
X68279452Y-77162238D01*
X68279453Y-77162242D01*
X68279454Y-77162249D01*
X68338842Y-77383887D01*
X68426656Y-77595889D01*
X68541387Y-77794609D01*
X68541397Y-77794624D01*
X68681072Y-77976651D01*
X68681083Y-77976663D01*
X68843336Y-78138916D01*
X68843348Y-78138927D01*
X69025375Y-78278602D01*
X69025384Y-78278608D01*
X69025388Y-78278611D01*
X69224112Y-78393344D01*
X69436113Y-78481158D01*
X69607369Y-78527045D01*
X69657750Y-78540545D01*
X69657751Y-78540545D01*
X69657762Y-78540548D01*
X69885266Y-78570500D01*
X69885269Y-78570500D01*
X70114730Y-78570500D01*
X70114734Y-78570500D01*
X70342238Y-78540548D01*
X70563887Y-78481158D01*
X70775888Y-78393344D01*
X70974612Y-78278611D01*
X71111038Y-78173927D01*
X71156651Y-78138927D01*
X71156653Y-78138924D01*
X71156661Y-78138919D01*
X71318919Y-77976661D01*
X71431755Y-77829612D01*
X71458602Y-77794624D01*
X71458603Y-77794621D01*
X71458611Y-77794612D01*
X71573344Y-77595888D01*
X71661158Y-77383887D01*
X71720548Y-77162238D01*
X71745893Y-76969730D01*
X82749499Y-76969730D01*
X82749500Y-76969734D01*
X82779452Y-77197238D01*
X82779453Y-77197242D01*
X82779454Y-77197249D01*
X82838842Y-77418887D01*
X82926656Y-77630889D01*
X83041387Y-77829609D01*
X83041397Y-77829624D01*
X83181072Y-78011651D01*
X83181083Y-78011663D01*
X83343336Y-78173916D01*
X83343348Y-78173927D01*
X83525375Y-78313602D01*
X83525384Y-78313608D01*
X83525388Y-78313611D01*
X83724112Y-78428344D01*
X83936113Y-78516158D01*
X84107369Y-78562045D01*
X84157750Y-78575545D01*
X84157751Y-78575545D01*
X84157762Y-78575548D01*
X84385266Y-78605500D01*
X84385269Y-78605500D01*
X84614730Y-78605500D01*
X84614734Y-78605500D01*
X84842238Y-78575548D01*
X85063887Y-78516158D01*
X85275888Y-78428344D01*
X85474612Y-78313611D01*
X85474624Y-78313602D01*
X85656651Y-78173927D01*
X85656653Y-78173924D01*
X85656661Y-78173919D01*
X85818919Y-78011661D01*
X85845784Y-77976651D01*
X85958602Y-77829624D01*
X85958603Y-77829621D01*
X85958611Y-77829612D01*
X86073344Y-77630888D01*
X86161158Y-77418887D01*
X86171923Y-77378712D01*
X104149500Y-77378712D01*
X104149500Y-77621288D01*
X104181162Y-77861789D01*
X104181163Y-77861793D01*
X104181164Y-77861800D01*
X104243944Y-78096095D01*
X104243946Y-78096101D01*
X104336776Y-78320213D01*
X104458062Y-78530286D01*
X104458072Y-78530301D01*
X104605730Y-78722732D01*
X104605740Y-78722744D01*
X104777255Y-78894259D01*
X104777267Y-78894269D01*
X104969698Y-79041927D01*
X104969707Y-79041933D01*
X104969711Y-79041936D01*
X105179788Y-79163224D01*
X105403900Y-79256054D01*
X105403904Y-79256055D01*
X105638199Y-79318835D01*
X105638200Y-79318835D01*
X105638211Y-79318838D01*
X105878712Y-79350500D01*
X105878716Y-79350500D01*
X106121284Y-79350500D01*
X106121288Y-79350500D01*
X106361789Y-79318838D01*
X106596100Y-79256054D01*
X106820212Y-79163224D01*
X107030289Y-79041936D01*
X107222738Y-78894265D01*
X107394265Y-78722738D01*
X107541936Y-78530289D01*
X107663224Y-78320212D01*
X107756054Y-78096100D01*
X107818838Y-77861789D01*
X107850500Y-77621288D01*
X107850500Y-77378712D01*
X107818838Y-77138211D01*
X107756054Y-76903900D01*
X107663224Y-76679788D01*
X107541936Y-76469711D01*
X107541933Y-76469707D01*
X107541927Y-76469698D01*
X107394269Y-76277267D01*
X107394259Y-76277255D01*
X107222744Y-76105740D01*
X107222732Y-76105730D01*
X107030301Y-75958072D01*
X107030286Y-75958062D01*
X106820212Y-75836776D01*
X106820213Y-75836776D01*
X106596101Y-75743946D01*
X106596095Y-75743944D01*
X106361800Y-75681164D01*
X106361793Y-75681163D01*
X106361789Y-75681162D01*
X106121288Y-75649500D01*
X105878712Y-75649500D01*
X105638211Y-75681162D01*
X105638207Y-75681162D01*
X105638199Y-75681164D01*
X105403904Y-75743944D01*
X105403898Y-75743946D01*
X105179786Y-75836776D01*
X104969713Y-75958062D01*
X104969698Y-75958072D01*
X104777267Y-76105730D01*
X104777255Y-76105740D01*
X104605740Y-76277255D01*
X104605730Y-76277267D01*
X104458072Y-76469698D01*
X104458062Y-76469713D01*
X104336776Y-76679786D01*
X104243946Y-76903898D01*
X104243944Y-76903904D01*
X104181164Y-77138199D01*
X104181162Y-77138207D01*
X104181162Y-77138211D01*
X104149500Y-77378712D01*
X86171923Y-77378712D01*
X86220548Y-77197238D01*
X86250500Y-76969734D01*
X86250500Y-76740266D01*
X86220548Y-76512762D01*
X86161158Y-76291113D01*
X86073344Y-76079112D01*
X85958611Y-75880388D01*
X85958608Y-75880384D01*
X85958602Y-75880375D01*
X85818927Y-75698348D01*
X85818916Y-75698336D01*
X85656663Y-75536083D01*
X85656651Y-75536072D01*
X85474624Y-75396397D01*
X85474609Y-75396387D01*
X85275889Y-75281656D01*
X85063887Y-75193842D01*
X84842249Y-75134454D01*
X84842242Y-75134453D01*
X84842238Y-75134452D01*
X84614734Y-75104500D01*
X84385266Y-75104500D01*
X84157762Y-75134452D01*
X84157758Y-75134452D01*
X84157750Y-75134454D01*
X83936112Y-75193842D01*
X83724110Y-75281656D01*
X83525390Y-75396387D01*
X83525375Y-75396397D01*
X83343348Y-75536072D01*
X83343336Y-75536083D01*
X83181083Y-75698336D01*
X83181072Y-75698348D01*
X83041397Y-75880375D01*
X83041387Y-75880390D01*
X82926656Y-76079110D01*
X82838842Y-76291112D01*
X82779454Y-76512750D01*
X82779452Y-76512758D01*
X82779452Y-76512762D01*
X82749500Y-76740266D01*
X82749500Y-76740269D01*
X82749500Y-76969730D01*
X82749499Y-76969730D01*
X71745893Y-76969730D01*
X71750500Y-76934734D01*
X71750500Y-76705266D01*
X71720548Y-76477762D01*
X71661158Y-76256113D01*
X71573344Y-76044112D01*
X71458611Y-75845388D01*
X71458608Y-75845384D01*
X71458602Y-75845375D01*
X71318927Y-75663348D01*
X71318916Y-75663336D01*
X71156663Y-75501083D01*
X71156651Y-75501072D01*
X70974624Y-75361397D01*
X70974609Y-75361387D01*
X70775889Y-75246656D01*
X70563887Y-75158842D01*
X70342249Y-75099454D01*
X70342242Y-75099453D01*
X70342238Y-75099452D01*
X70114734Y-75069500D01*
X69885266Y-75069500D01*
X69657762Y-75099452D01*
X69657758Y-75099452D01*
X69657750Y-75099454D01*
X69436112Y-75158842D01*
X69224110Y-75246656D01*
X69025390Y-75361387D01*
X69025375Y-75361397D01*
X68843348Y-75501072D01*
X68843336Y-75501083D01*
X68681083Y-75663336D01*
X68681072Y-75663348D01*
X68541397Y-75845375D01*
X68541387Y-75845390D01*
X68426656Y-76044110D01*
X68338842Y-76256112D01*
X68279454Y-76477750D01*
X68279452Y-76477758D01*
X68279452Y-76477762D01*
X68249500Y-76705266D01*
X68249500Y-76705269D01*
X68249500Y-76934730D01*
X68249499Y-76934730D01*
X61264315Y-76934730D01*
X61256054Y-76903900D01*
X61163224Y-76679788D01*
X61041936Y-76469711D01*
X61041933Y-76469707D01*
X61041927Y-76469698D01*
X60894269Y-76277267D01*
X60894259Y-76277255D01*
X60722744Y-76105740D01*
X60722732Y-76105730D01*
X60530301Y-75958072D01*
X60530286Y-75958062D01*
X60320212Y-75836776D01*
X60320213Y-75836776D01*
X60096101Y-75743946D01*
X60096095Y-75743944D01*
X59861800Y-75681164D01*
X59861793Y-75681163D01*
X59861789Y-75681162D01*
X59621288Y-75649500D01*
X59378712Y-75649500D01*
X59138211Y-75681162D01*
X59138207Y-75681162D01*
X59138199Y-75681164D01*
X58903904Y-75743944D01*
X58903898Y-75743946D01*
X58679786Y-75836776D01*
X58469713Y-75958062D01*
X58469698Y-75958072D01*
X58277267Y-76105730D01*
X58277255Y-76105740D01*
X58105740Y-76277255D01*
X58105730Y-76277267D01*
X57958072Y-76469698D01*
X57958062Y-76469713D01*
X57836776Y-76679786D01*
X57743946Y-76903898D01*
X57743944Y-76903904D01*
X57681164Y-77138199D01*
X57681162Y-77138207D01*
X57681162Y-77138211D01*
X57649500Y-77378712D01*
X56000500Y-77378712D01*
X56000500Y-72141455D01*
X65999500Y-72141455D01*
X65999500Y-72858544D01*
X66037947Y-73051827D01*
X66037949Y-73051836D01*
X66113366Y-73233910D01*
X66113368Y-73233914D01*
X66162785Y-73307872D01*
X66202612Y-73367478D01*
X66222861Y-73397782D01*
X66362218Y-73537139D01*
X66526086Y-73646632D01*
X66708165Y-73722051D01*
X66901459Y-73760500D01*
X67098541Y-73760500D01*
X67291835Y-73722051D01*
X67473914Y-73646632D01*
X67637782Y-73537139D01*
X67777139Y-73397782D01*
X67886632Y-73233914D01*
X67962051Y-73051835D01*
X68000500Y-72858541D01*
X68000500Y-72141459D01*
X68000499Y-72141455D01*
X68999500Y-72141455D01*
X68999500Y-72858544D01*
X69037947Y-73051827D01*
X69037949Y-73051836D01*
X69113366Y-73233910D01*
X69113368Y-73233914D01*
X69162785Y-73307872D01*
X69202612Y-73367478D01*
X69222861Y-73397782D01*
X69362218Y-73537139D01*
X69526086Y-73646632D01*
X69708165Y-73722051D01*
X69901459Y-73760500D01*
X70098541Y-73760500D01*
X70291835Y-73722051D01*
X70473914Y-73646632D01*
X70637782Y-73537139D01*
X70777139Y-73397782D01*
X70886632Y-73233914D01*
X70962051Y-73051835D01*
X71000500Y-72858541D01*
X71000500Y-72141459D01*
X70962051Y-71948165D01*
X70886632Y-71766086D01*
X70777139Y-71602218D01*
X70637782Y-71462861D01*
X70473914Y-71353368D01*
X70473911Y-71353366D01*
X70473910Y-71353366D01*
X70291836Y-71277949D01*
X70291827Y-71277947D01*
X70098544Y-71239500D01*
X70098541Y-71239500D01*
X69901459Y-71239500D01*
X69901455Y-71239500D01*
X69708172Y-71277947D01*
X69708163Y-71277949D01*
X69526089Y-71353366D01*
X69362218Y-71462860D01*
X69222860Y-71602218D01*
X69113366Y-71766089D01*
X69037949Y-71948163D01*
X69037947Y-71948172D01*
X68999500Y-72141455D01*
X68000499Y-72141455D01*
X67962051Y-71948165D01*
X67886632Y-71766086D01*
X67856086Y-71720371D01*
X67848769Y-71683589D01*
X67862178Y-71658502D01*
X72565852Y-66954829D01*
X72600500Y-66940477D01*
X72635148Y-66954829D01*
X72649500Y-66989477D01*
X72649500Y-67149677D01*
X72664033Y-67222739D01*
X72719398Y-67305601D01*
X72802260Y-67360966D01*
X72875326Y-67375500D01*
X73859522Y-67375500D01*
X73894170Y-67389852D01*
X74935148Y-68430830D01*
X74949500Y-68465478D01*
X74949500Y-68572477D01*
X74987015Y-68712483D01*
X74987016Y-68712487D01*
X75059491Y-68838015D01*
X75161985Y-68940509D01*
X75207930Y-68967035D01*
X75287512Y-69012983D01*
X75287514Y-69012983D01*
X75287515Y-69012984D01*
X75322517Y-69022363D01*
X75427522Y-69050500D01*
X75427525Y-69050500D01*
X75572477Y-69050500D01*
X75609153Y-69040671D01*
X75626980Y-69035895D01*
X75664162Y-69040789D01*
X75686993Y-69070542D01*
X75682099Y-69107724D01*
X75674311Y-69117873D01*
X73567037Y-71225148D01*
X73532389Y-71239500D01*
X72452122Y-71239500D01*
X72392521Y-71245907D01*
X72257667Y-71296205D01*
X72142454Y-71382454D01*
X72056205Y-71497667D01*
X72005907Y-71632521D01*
X71999500Y-71692121D01*
X71999500Y-73307878D01*
X72005907Y-73367478D01*
X72018963Y-73402482D01*
X72056204Y-73502330D01*
X72142454Y-73617546D01*
X72257670Y-73703796D01*
X72392518Y-73754091D01*
X72392521Y-73754092D01*
X72452122Y-73760500D01*
X72452128Y-73760500D01*
X73547878Y-73760500D01*
X73607478Y-73754092D01*
X73607480Y-73754091D01*
X73607482Y-73754091D01*
X73742330Y-73703796D01*
X73857546Y-73617546D01*
X73943796Y-73502330D01*
X73994091Y-73367482D01*
X73994091Y-73367480D01*
X73994092Y-73367478D01*
X74000500Y-73307878D01*
X74000500Y-72227609D01*
X74014851Y-72192962D01*
X74031358Y-72176455D01*
X80499500Y-72176455D01*
X80499500Y-72893544D01*
X80537947Y-73086827D01*
X80537949Y-73086836D01*
X80613366Y-73268910D01*
X80613368Y-73268914D01*
X80639399Y-73307872D01*
X80702612Y-73402478D01*
X80722861Y-73432782D01*
X80862218Y-73572139D01*
X81026086Y-73681632D01*
X81208165Y-73757051D01*
X81401459Y-73795500D01*
X81598541Y-73795500D01*
X81791835Y-73757051D01*
X81973914Y-73681632D01*
X82137782Y-73572139D01*
X82277139Y-73432782D01*
X82386632Y-73268914D01*
X82462051Y-73086835D01*
X82500500Y-72893541D01*
X82500500Y-72176459D01*
X82500499Y-72176455D01*
X83499500Y-72176455D01*
X83499500Y-72893544D01*
X83537947Y-73086827D01*
X83537949Y-73086836D01*
X83613366Y-73268910D01*
X83613368Y-73268914D01*
X83639399Y-73307872D01*
X83702612Y-73402478D01*
X83722861Y-73432782D01*
X83862218Y-73572139D01*
X84026086Y-73681632D01*
X84208165Y-73757051D01*
X84401459Y-73795500D01*
X84598541Y-73795500D01*
X84791835Y-73757051D01*
X84973914Y-73681632D01*
X85137782Y-73572139D01*
X85277139Y-73432782D01*
X85386632Y-73268914D01*
X85462051Y-73086835D01*
X85500500Y-72893541D01*
X85500500Y-72176459D01*
X85462051Y-71983165D01*
X85386632Y-71801086D01*
X85277139Y-71637218D01*
X85137782Y-71497861D01*
X85137496Y-71497670D01*
X85017444Y-71417454D01*
X84973914Y-71388368D01*
X84973911Y-71388366D01*
X84973910Y-71388366D01*
X84791836Y-71312949D01*
X84791827Y-71312947D01*
X84598544Y-71274500D01*
X84598541Y-71274500D01*
X84401459Y-71274500D01*
X84401455Y-71274500D01*
X84208172Y-71312947D01*
X84208163Y-71312949D01*
X84026089Y-71388366D01*
X83862218Y-71497860D01*
X83722860Y-71637218D01*
X83613366Y-71801089D01*
X83537949Y-71983163D01*
X83537947Y-71983172D01*
X83499500Y-72176455D01*
X82500499Y-72176455D01*
X82462051Y-71983165D01*
X82386632Y-71801086D01*
X82277139Y-71637218D01*
X82137782Y-71497861D01*
X82137496Y-71497670D01*
X82017444Y-71417454D01*
X81973914Y-71388368D01*
X81973911Y-71388366D01*
X81973910Y-71388366D01*
X81880748Y-71349777D01*
X81854230Y-71323258D01*
X81850500Y-71304507D01*
X81850500Y-70948320D01*
X81864852Y-70913672D01*
X81940508Y-70838016D01*
X81940509Y-70838015D01*
X82012984Y-70712485D01*
X82031742Y-70642480D01*
X82050500Y-70572477D01*
X82050500Y-70427522D01*
X82012984Y-70287516D01*
X82012983Y-70287512D01*
X81940508Y-70161984D01*
X81838015Y-70059491D01*
X81712487Y-69987016D01*
X81712483Y-69987015D01*
X81572478Y-69949500D01*
X81572475Y-69949500D01*
X81427525Y-69949500D01*
X81427522Y-69949500D01*
X81287516Y-69987015D01*
X81287512Y-69987016D01*
X81161984Y-70059491D01*
X81161984Y-70059492D01*
X81059492Y-70161984D01*
X81059491Y-70161984D01*
X80987016Y-70287512D01*
X80987015Y-70287516D01*
X80949500Y-70427522D01*
X80949500Y-70572477D01*
X80987015Y-70712483D01*
X80987016Y-70712487D01*
X81059491Y-70838015D01*
X81135148Y-70913672D01*
X81149500Y-70948320D01*
X81149500Y-71304507D01*
X81135148Y-71339155D01*
X81119252Y-71349777D01*
X81026089Y-71388366D01*
X80862218Y-71497860D01*
X80722860Y-71637218D01*
X80613366Y-71801089D01*
X80537949Y-71983163D01*
X80537947Y-71983172D01*
X80499500Y-72176455D01*
X74031358Y-72176455D01*
X78742962Y-67464850D01*
X78777610Y-67450499D01*
X79222878Y-67450499D01*
X79282478Y-67444092D01*
X79282479Y-67444091D01*
X79282483Y-67444091D01*
X79417331Y-67393796D01*
X79532546Y-67307546D01*
X79618796Y-67192331D01*
X79669091Y-67057483D01*
X79669091Y-67057481D01*
X79669092Y-67057479D01*
X79670513Y-67044262D01*
X79688486Y-67011347D01*
X79719232Y-67000500D01*
X81237390Y-67000500D01*
X81272038Y-67014852D01*
X86485148Y-72227962D01*
X86499500Y-72262610D01*
X86499500Y-73342878D01*
X86505907Y-73402478D01*
X86517210Y-73432782D01*
X86556204Y-73537330D01*
X86642454Y-73652546D01*
X86757670Y-73738796D01*
X86892518Y-73789091D01*
X86892521Y-73789092D01*
X86952122Y-73795500D01*
X86952128Y-73795500D01*
X88047878Y-73795500D01*
X88107478Y-73789092D01*
X88107480Y-73789091D01*
X88107482Y-73789091D01*
X88242330Y-73738796D01*
X88357546Y-73652546D01*
X88443796Y-73537330D01*
X88494091Y-73402482D01*
X88494091Y-73402480D01*
X88494092Y-73402478D01*
X88500500Y-73342878D01*
X88500500Y-71727121D01*
X88494092Y-71667521D01*
X88494091Y-71667518D01*
X88443796Y-71532670D01*
X88357546Y-71417454D01*
X88267141Y-71349777D01*
X88242332Y-71331205D01*
X88242330Y-71331204D01*
X88148493Y-71296205D01*
X88107478Y-71280907D01*
X88047878Y-71274500D01*
X88047872Y-71274500D01*
X86967610Y-71274500D01*
X86932962Y-71260148D01*
X81772314Y-66099500D01*
X81658188Y-66033608D01*
X81658184Y-66033607D01*
X81530895Y-65999500D01*
X81530892Y-65999500D01*
X80239110Y-65999500D01*
X80204462Y-65985148D01*
X80190110Y-65950500D01*
X80204462Y-65915852D01*
X80605462Y-65514852D01*
X80640110Y-65500500D01*
X88280769Y-65500500D01*
X88315417Y-65514852D01*
X88329487Y-65544262D01*
X88330909Y-65557483D01*
X88381204Y-65692331D01*
X88467454Y-65807546D01*
X88582669Y-65893796D01*
X88713297Y-65942517D01*
X88717520Y-65944092D01*
X88761177Y-65948785D01*
X88777127Y-65950500D01*
X89397872Y-65950499D01*
X89397878Y-65950499D01*
X89457478Y-65944092D01*
X89457479Y-65944091D01*
X89457483Y-65944091D01*
X89592331Y-65893796D01*
X89707546Y-65807546D01*
X89793796Y-65692331D01*
X89844091Y-65557483D01*
X89844091Y-65557481D01*
X89844092Y-65557479D01*
X89849140Y-65510522D01*
X89850500Y-65497873D01*
X89850499Y-64877608D01*
X89864850Y-64842962D01*
X90065853Y-64641959D01*
X90100500Y-64627608D01*
X90135148Y-64641960D01*
X90149500Y-64676608D01*
X90149500Y-65497879D01*
X90155907Y-65557478D01*
X90162069Y-65574000D01*
X90206204Y-65692331D01*
X90292454Y-65807546D01*
X90407669Y-65893796D01*
X90538297Y-65942517D01*
X90542520Y-65944092D01*
X90586177Y-65948785D01*
X90602127Y-65950500D01*
X91222872Y-65950499D01*
X91222878Y-65950499D01*
X91282478Y-65944092D01*
X91282479Y-65944091D01*
X91282483Y-65944091D01*
X91417331Y-65893796D01*
X91532546Y-65807546D01*
X91618796Y-65692331D01*
X91669091Y-65557483D01*
X91669091Y-65557481D01*
X91669092Y-65557479D01*
X91675500Y-65497879D01*
X91675500Y-65349500D01*
X91689852Y-65314852D01*
X91724500Y-65300500D01*
X92972641Y-65300500D01*
X93007289Y-65314852D01*
X93016299Y-65327251D01*
X93021950Y-65338342D01*
X93021953Y-65338345D01*
X93111657Y-65428049D01*
X93111664Y-65428054D01*
X93224691Y-65485644D01*
X93224692Y-65485644D01*
X93224696Y-65485646D01*
X93318481Y-65500500D01*
X94406518Y-65500499D01*
X94500304Y-65485646D01*
X94588892Y-65440508D01*
X94613335Y-65428054D01*
X94613337Y-65428052D01*
X94613342Y-65428050D01*
X94703050Y-65338342D01*
X94703054Y-65338335D01*
X94760644Y-65225309D01*
X94760644Y-65225307D01*
X94760646Y-65225304D01*
X94775500Y-65131519D01*
X94775499Y-64768482D01*
X95224500Y-64768482D01*
X95224500Y-65131517D01*
X95239353Y-65225303D01*
X95296945Y-65338335D01*
X95296950Y-65338342D01*
X95386657Y-65428049D01*
X95386664Y-65428054D01*
X95499691Y-65485644D01*
X95499692Y-65485644D01*
X95499696Y-65485646D01*
X95593481Y-65500500D01*
X96681518Y-65500499D01*
X96775304Y-65485646D01*
X96863892Y-65440508D01*
X96888335Y-65428054D01*
X96888337Y-65428052D01*
X96888342Y-65428050D01*
X96978050Y-65338342D01*
X96978054Y-65338335D01*
X97035644Y-65225309D01*
X97035644Y-65225307D01*
X97035646Y-65225304D01*
X97050500Y-65131519D01*
X97050499Y-64768482D01*
X97035646Y-64674696D01*
X97034344Y-64672140D01*
X96978054Y-64561664D01*
X96978049Y-64561657D01*
X96888342Y-64471950D01*
X96888335Y-64471945D01*
X96775308Y-64414355D01*
X96775305Y-64414354D01*
X96775304Y-64414354D01*
X96681519Y-64399500D01*
X96681517Y-64399500D01*
X95593482Y-64399500D01*
X95499696Y-64414353D01*
X95386664Y-64471945D01*
X95386657Y-64471950D01*
X95296950Y-64561657D01*
X95296945Y-64561664D01*
X95239355Y-64674690D01*
X95239355Y-64674692D01*
X95239354Y-64674694D01*
X95239354Y-64674696D01*
X95232601Y-64717333D01*
X95224500Y-64768482D01*
X94775499Y-64768482D01*
X94760646Y-64674696D01*
X94759344Y-64672140D01*
X94703054Y-64561664D01*
X94703049Y-64561657D01*
X94651040Y-64509648D01*
X94636688Y-64475000D01*
X94651040Y-64440352D01*
X94677039Y-64414353D01*
X94703050Y-64388342D01*
X94722332Y-64350500D01*
X94760644Y-64275309D01*
X94760644Y-64275307D01*
X94760646Y-64275304D01*
X94775500Y-64181519D01*
X94775499Y-63818482D01*
X94760646Y-63724696D01*
X94749955Y-63703714D01*
X94703054Y-63611664D01*
X94703049Y-63611657D01*
X94651040Y-63559648D01*
X94636688Y-63525000D01*
X94651040Y-63490352D01*
X94675914Y-63465478D01*
X94703050Y-63438342D01*
X94708562Y-63427525D01*
X94760644Y-63325309D01*
X94760644Y-63325307D01*
X94760646Y-63325304D01*
X94764654Y-63300000D01*
X94977704Y-63300000D01*
X94977899Y-63302488D01*
X94977899Y-63302491D01*
X95023719Y-63460201D01*
X95107313Y-63601551D01*
X95107317Y-63601556D01*
X95223443Y-63717682D01*
X95223448Y-63717686D01*
X95364798Y-63801280D01*
X95522509Y-63847100D01*
X95559355Y-63849999D01*
X95559369Y-63850000D01*
X95887500Y-63850000D01*
X96387500Y-63850000D01*
X96715631Y-63850000D01*
X96715644Y-63849999D01*
X96752489Y-63847100D01*
X96752491Y-63847100D01*
X96910201Y-63801280D01*
X97051551Y-63717686D01*
X97051556Y-63717682D01*
X97167682Y-63601556D01*
X97167686Y-63601551D01*
X97212970Y-63524980D01*
X97550001Y-63524980D01*
X97560493Y-63627693D01*
X97615642Y-63794122D01*
X97707682Y-63943343D01*
X97831656Y-64067317D01*
X97980877Y-64159357D01*
X98147306Y-64214506D01*
X98250018Y-64224999D01*
X98299999Y-64224999D01*
X98800000Y-64224999D01*
X98849980Y-64224999D01*
X98952693Y-64214506D01*
X99119122Y-64159357D01*
X99268343Y-64067317D01*
X99392317Y-63943343D01*
X99484357Y-63794122D01*
X99539506Y-63627693D01*
X99550000Y-63524981D01*
X99550000Y-63250000D01*
X98800000Y-63250000D01*
X98800000Y-64224999D01*
X98299999Y-64224999D01*
X98300000Y-64224998D01*
X98300000Y-63250000D01*
X97550001Y-63250000D01*
X97550001Y-63524980D01*
X97212970Y-63524980D01*
X97251280Y-63460201D01*
X97297100Y-63302491D01*
X97297100Y-63302488D01*
X97297296Y-63300000D01*
X96387500Y-63300000D01*
X96387500Y-63850000D01*
X95887500Y-63850000D01*
X95887500Y-63300000D01*
X94977704Y-63300000D01*
X94764654Y-63300000D01*
X94775500Y-63231519D01*
X94775499Y-63041884D01*
X94789850Y-63007238D01*
X94982737Y-62814352D01*
X95017385Y-62800000D01*
X95887500Y-62800000D01*
X96387500Y-62800000D01*
X97297296Y-62800000D01*
X97297296Y-62799999D01*
X97297100Y-62797511D01*
X97297100Y-62797508D01*
X97251280Y-62639798D01*
X97167848Y-62498722D01*
X97167844Y-62498717D01*
X97167681Y-62498442D01*
X97144257Y-62475018D01*
X97550000Y-62475018D01*
X97550000Y-62750000D01*
X98300000Y-62750000D01*
X98800000Y-62750000D01*
X99549999Y-62750000D01*
X99549999Y-62477120D01*
X99699500Y-62477120D01*
X99699500Y-63522879D01*
X99705907Y-63582478D01*
X99705909Y-63582483D01*
X99754397Y-63712487D01*
X99756205Y-63717333D01*
X99761717Y-63724696D01*
X99842454Y-63832546D01*
X99919406Y-63890152D01*
X99957667Y-63918795D01*
X99957668Y-63918795D01*
X99957669Y-63918796D01*
X100067625Y-63959806D01*
X100095072Y-63985360D01*
X100099500Y-64005716D01*
X100099500Y-64601680D01*
X100085148Y-64636328D01*
X100059492Y-64661984D01*
X100059491Y-64661984D01*
X99987016Y-64787512D01*
X99987015Y-64787516D01*
X99949500Y-64927522D01*
X99949500Y-65072477D01*
X99987015Y-65212483D01*
X99987016Y-65212487D01*
X100053698Y-65327982D01*
X100059491Y-65338015D01*
X100161985Y-65440509D01*
X100207930Y-65467035D01*
X100287512Y-65512983D01*
X100287514Y-65512983D01*
X100287515Y-65512984D01*
X100322517Y-65522363D01*
X100427522Y-65550500D01*
X100427525Y-65550500D01*
X100572477Y-65550500D01*
X100649660Y-65529818D01*
X100712485Y-65512984D01*
X100718482Y-65509522D01*
X100734416Y-65500322D01*
X100838015Y-65440509D01*
X100940509Y-65338015D01*
X101012984Y-65212485D01*
X101037927Y-65119398D01*
X101050500Y-65072477D01*
X101050500Y-64927522D01*
X101012984Y-64787516D01*
X101012983Y-64787512D01*
X100959223Y-64694398D01*
X100940509Y-64661985D01*
X100838015Y-64559491D01*
X100824998Y-64551975D01*
X100802169Y-64522222D01*
X100800500Y-64509541D01*
X100800500Y-64005716D01*
X100814852Y-63971068D01*
X100832372Y-63959807D01*
X100942331Y-63918796D01*
X101057546Y-63832546D01*
X101143796Y-63717331D01*
X101194091Y-63582483D01*
X101194091Y-63582481D01*
X101194092Y-63582479D01*
X101198040Y-63545750D01*
X101200500Y-63522873D01*
X101200499Y-62477128D01*
X101200499Y-62477127D01*
X101200499Y-62477120D01*
X101194092Y-62417521D01*
X101193555Y-62416081D01*
X101143796Y-62282669D01*
X101057546Y-62167454D01*
X100944040Y-62082483D01*
X100942333Y-62081205D01*
X100942331Y-62081204D01*
X100897381Y-62064439D01*
X100807479Y-62030907D01*
X100747879Y-62024500D01*
X100152120Y-62024500D01*
X100092521Y-62030907D01*
X99957666Y-62081205D01*
X99842454Y-62167454D01*
X99756205Y-62282666D01*
X99705907Y-62417520D01*
X99699500Y-62477120D01*
X99549999Y-62477120D01*
X99549999Y-62475019D01*
X99539506Y-62372306D01*
X99484357Y-62205877D01*
X99392317Y-62056656D01*
X99268343Y-61932682D01*
X99119122Y-61840642D01*
X98952693Y-61785493D01*
X98849981Y-61775000D01*
X98800000Y-61775000D01*
X98800000Y-62750000D01*
X98300000Y-62750000D01*
X98300000Y-61775000D01*
X98250019Y-61775000D01*
X98147306Y-61785493D01*
X97980877Y-61840642D01*
X97831656Y-61932682D01*
X97707682Y-62056656D01*
X97615642Y-62205877D01*
X97560493Y-62372306D01*
X97550000Y-62475018D01*
X97144257Y-62475018D01*
X97051556Y-62382317D01*
X97051551Y-62382313D01*
X96910201Y-62298719D01*
X96752490Y-62252899D01*
X96715644Y-62250000D01*
X96387500Y-62250000D01*
X96387500Y-62800000D01*
X95887500Y-62800000D01*
X95887500Y-62250000D01*
X95665384Y-62250000D01*
X95630736Y-62235648D01*
X95616384Y-62201000D01*
X95630735Y-62166353D01*
X97895939Y-59901150D01*
X97895946Y-59901144D01*
X97898731Y-59898359D01*
X97898733Y-59898358D01*
X97985858Y-59811233D01*
X98054311Y-59708786D01*
X98054312Y-59708785D01*
X98101463Y-59594951D01*
X98101566Y-59594436D01*
X98125500Y-59474106D01*
X98125500Y-57931212D01*
X100399500Y-57931212D01*
X100399500Y-58173788D01*
X100431162Y-58414289D01*
X100431163Y-58414293D01*
X100431164Y-58414300D01*
X100493944Y-58648595D01*
X100493946Y-58648601D01*
X100586776Y-58872713D01*
X100708062Y-59082786D01*
X100708072Y-59082801D01*
X100855730Y-59275232D01*
X100855740Y-59275244D01*
X101027255Y-59446759D01*
X101027267Y-59446769D01*
X101219698Y-59594427D01*
X101219707Y-59594433D01*
X101219711Y-59594436D01*
X101429788Y-59715724D01*
X101653900Y-59808554D01*
X101663898Y-59811233D01*
X101888199Y-59871335D01*
X101888200Y-59871335D01*
X101888211Y-59871338D01*
X102128712Y-59903000D01*
X102128716Y-59903000D01*
X102371284Y-59903000D01*
X102371288Y-59903000D01*
X102611789Y-59871338D01*
X102846100Y-59808554D01*
X103070212Y-59715724D01*
X103280289Y-59594436D01*
X103472738Y-59446765D01*
X103644265Y-59275238D01*
X103791936Y-59082789D01*
X103913224Y-58872712D01*
X104006054Y-58648600D01*
X104068838Y-58414289D01*
X104100500Y-58173788D01*
X104100500Y-57931212D01*
X104068838Y-57690711D01*
X104052634Y-57630239D01*
X104006055Y-57456404D01*
X104006053Y-57456398D01*
X103913223Y-57232286D01*
X103791937Y-57022213D01*
X103791927Y-57022198D01*
X103644269Y-56829767D01*
X103644259Y-56829755D01*
X103472744Y-56658240D01*
X103472732Y-56658230D01*
X103280301Y-56510572D01*
X103280286Y-56510562D01*
X103070212Y-56389276D01*
X103070213Y-56389276D01*
X102846101Y-56296446D01*
X102846095Y-56296444D01*
X102611800Y-56233664D01*
X102611793Y-56233663D01*
X102611789Y-56233662D01*
X102371288Y-56202000D01*
X102128712Y-56202000D01*
X101888211Y-56233662D01*
X101888207Y-56233662D01*
X101888199Y-56233664D01*
X101653904Y-56296444D01*
X101653898Y-56296446D01*
X101429786Y-56389276D01*
X101219713Y-56510562D01*
X101219698Y-56510572D01*
X101027267Y-56658230D01*
X101027255Y-56658240D01*
X100855740Y-56829755D01*
X100855730Y-56829767D01*
X100708072Y-57022198D01*
X100708062Y-57022213D01*
X100586776Y-57232286D01*
X100493946Y-57456398D01*
X100493944Y-57456404D01*
X100431164Y-57690699D01*
X100431162Y-57690707D01*
X100431162Y-57690711D01*
X100399500Y-57931212D01*
X98125500Y-57931212D01*
X98125500Y-55780894D01*
X98124996Y-55778362D01*
X98124997Y-55778356D01*
X98124995Y-55778357D01*
X98101463Y-55660048D01*
X98081163Y-55611041D01*
X98054312Y-55546216D01*
X98040563Y-55525639D01*
X97985858Y-55443767D01*
X97898732Y-55356641D01*
X97348733Y-54806643D01*
X96914852Y-54372762D01*
X96900500Y-54338114D01*
X96900500Y-54143959D01*
X96900499Y-54143955D01*
X96876964Y-54025638D01*
X96862051Y-53950665D01*
X96786632Y-53768586D01*
X96677139Y-53604718D01*
X96539852Y-53467431D01*
X96525500Y-53432783D01*
X96525500Y-52512217D01*
X96539852Y-52477569D01*
X96577399Y-52440022D01*
X96677139Y-52340282D01*
X96786632Y-52176414D01*
X96862051Y-51994335D01*
X96900500Y-51801041D01*
X96900500Y-51603959D01*
X96862051Y-51410665D01*
X96786632Y-51228586D01*
X96677139Y-51064718D01*
X96537782Y-50925361D01*
X96373914Y-50815868D01*
X96373911Y-50815866D01*
X96373910Y-50815866D01*
X96191836Y-50740449D01*
X96191827Y-50740447D01*
X95998544Y-50702000D01*
X95998541Y-50702000D01*
X95801459Y-50702000D01*
X95801455Y-50702000D01*
X95608172Y-50740447D01*
X95608163Y-50740449D01*
X95426089Y-50815866D01*
X95262218Y-50925360D01*
X95122860Y-51064718D01*
X95013366Y-51228589D01*
X94937949Y-51410663D01*
X94937947Y-51410672D01*
X94899500Y-51603955D01*
X94899500Y-51801044D01*
X94937947Y-51994327D01*
X94937949Y-51994336D01*
X95013366Y-52176410D01*
X95013368Y-52176414D01*
X95063842Y-52251953D01*
X95122860Y-52340281D01*
X95260148Y-52477569D01*
X95274500Y-52512217D01*
X95274500Y-53432783D01*
X95260148Y-53467431D01*
X95122860Y-53604718D01*
X95013366Y-53768589D01*
X94937949Y-53950663D01*
X94937947Y-53950672D01*
X94899500Y-54143955D01*
X94899500Y-54341044D01*
X94937947Y-54534327D01*
X94937949Y-54534336D01*
X95011741Y-54712487D01*
X95013368Y-54716414D01*
X95068792Y-54799362D01*
X95110644Y-54861999D01*
X95122861Y-54880282D01*
X95262218Y-55019639D01*
X95426086Y-55129132D01*
X95608165Y-55204551D01*
X95801459Y-55243000D01*
X95995614Y-55243000D01*
X96030262Y-55257352D01*
X96471262Y-55698352D01*
X96485614Y-55733000D01*
X96471262Y-55767648D01*
X96436614Y-55782000D01*
X95630403Y-55782000D01*
X95595755Y-55767648D01*
X94010137Y-54182030D01*
X93930215Y-54135886D01*
X93930211Y-54135885D01*
X93841072Y-54112000D01*
X93841069Y-54112000D01*
X91922977Y-54112000D01*
X91888329Y-54097648D01*
X90696882Y-52906200D01*
X90664637Y-52873955D01*
X92359500Y-52873955D01*
X92359500Y-53071044D01*
X92397947Y-53264327D01*
X92397949Y-53264336D01*
X92438286Y-53361718D01*
X92473368Y-53446414D01*
X92582861Y-53610282D01*
X92722218Y-53749639D01*
X92886086Y-53859132D01*
X93068165Y-53934551D01*
X93261459Y-53973000D01*
X93458541Y-53973000D01*
X93651835Y-53934551D01*
X93833914Y-53859132D01*
X93997782Y-53749639D01*
X94137139Y-53610282D01*
X94246632Y-53446414D01*
X94322051Y-53264335D01*
X94360500Y-53071041D01*
X94360500Y-52873959D01*
X94322051Y-52680665D01*
X94246632Y-52498586D01*
X94137139Y-52334718D01*
X93997782Y-52195361D01*
X93979595Y-52183209D01*
X93917609Y-52141791D01*
X93833914Y-52085868D01*
X93833911Y-52085866D01*
X93833910Y-52085866D01*
X93651836Y-52010449D01*
X93651827Y-52010447D01*
X93458544Y-51972000D01*
X93458541Y-51972000D01*
X93261459Y-51972000D01*
X93261455Y-51972000D01*
X93068172Y-52010447D01*
X93068163Y-52010449D01*
X92886089Y-52085866D01*
X92722218Y-52195360D01*
X92582860Y-52334718D01*
X92473366Y-52498589D01*
X92397949Y-52680663D01*
X92397947Y-52680672D01*
X92359500Y-52873955D01*
X90664637Y-52873955D01*
X89657531Y-51866849D01*
X89643179Y-51832201D01*
X89657531Y-51797553D01*
X89669930Y-51788543D01*
X89783281Y-51730789D01*
X89875789Y-51638281D01*
X89935182Y-51521715D01*
X89950500Y-51425003D01*
X89950499Y-51034998D01*
X89935182Y-50938285D01*
X89875789Y-50821719D01*
X89783281Y-50729211D01*
X89783278Y-50729209D01*
X89666715Y-50669818D01*
X89666709Y-50669817D01*
X89570003Y-50654500D01*
X89570001Y-50654500D01*
X87479999Y-50654500D01*
X87383287Y-50669817D01*
X87266721Y-50729209D01*
X87266718Y-50729211D01*
X87174211Y-50821718D01*
X87174209Y-50821721D01*
X87114818Y-50938284D01*
X87109084Y-50974485D01*
X87103143Y-51012000D01*
X87099500Y-51034998D01*
X87099500Y-51425000D01*
X87114817Y-51521712D01*
X87114817Y-51521713D01*
X87114818Y-51521715D01*
X87129485Y-51550500D01*
X87158402Y-51607255D01*
X87174211Y-51638281D01*
X87266719Y-51730789D01*
X87383285Y-51790182D01*
X87479997Y-51805500D01*
X88584521Y-51805499D01*
X88619169Y-51819851D01*
X91477031Y-54677712D01*
X91542288Y-54742969D01*
X91622212Y-54789114D01*
X91644498Y-54795085D01*
X91711353Y-54813000D01*
X91711356Y-54813000D01*
X92532427Y-54813000D01*
X92567075Y-54827352D01*
X92581427Y-54862000D01*
X92573169Y-54889223D01*
X92473366Y-55038589D01*
X92434778Y-55131751D01*
X92408260Y-55158270D01*
X92389508Y-55162000D01*
X90432978Y-55162000D01*
X90398330Y-55147648D01*
X89657531Y-54406849D01*
X89643179Y-54372201D01*
X89657531Y-54337553D01*
X89669930Y-54328543D01*
X89783281Y-54270789D01*
X89875789Y-54178281D01*
X89935182Y-54061715D01*
X89950500Y-53965003D01*
X89950499Y-53574998D01*
X89935182Y-53478285D01*
X89875789Y-53361719D01*
X89783281Y-53269211D01*
X89783278Y-53269209D01*
X89666715Y-53209818D01*
X89666709Y-53209817D01*
X89570003Y-53194500D01*
X89570001Y-53194500D01*
X87479999Y-53194500D01*
X87383287Y-53209817D01*
X87266721Y-53269209D01*
X87266718Y-53269211D01*
X87174211Y-53361718D01*
X87174209Y-53361721D01*
X87114818Y-53478284D01*
X87114818Y-53478285D01*
X87099719Y-53573618D01*
X87099500Y-53574998D01*
X87099500Y-53965000D01*
X87114817Y-54061712D01*
X87114817Y-54061713D01*
X87114818Y-54061715D01*
X87120591Y-54073045D01*
X87165907Y-54161985D01*
X87174211Y-54178281D01*
X87266719Y-54270789D01*
X87383285Y-54330182D01*
X87479997Y-54345500D01*
X88584521Y-54345499D01*
X88619169Y-54359851D01*
X90052288Y-55792970D01*
X90119942Y-55832030D01*
X90132212Y-55839114D01*
X90132216Y-55839115D01*
X90221987Y-55863170D01*
X90251740Y-55886000D01*
X90256635Y-55923182D01*
X90233805Y-55952935D01*
X90209305Y-55959500D01*
X89935257Y-55959500D01*
X89900609Y-55945148D01*
X89891598Y-55932747D01*
X89880268Y-55910510D01*
X89875790Y-55901720D01*
X89783281Y-55809211D01*
X89783278Y-55809209D01*
X89666715Y-55749818D01*
X89663539Y-55749315D01*
X89570003Y-55734500D01*
X89570001Y-55734500D01*
X87479999Y-55734500D01*
X87383287Y-55749817D01*
X87266721Y-55809209D01*
X87266718Y-55809211D01*
X87174211Y-55901718D01*
X87174209Y-55901721D01*
X87114818Y-56018284D01*
X87099500Y-56114998D01*
X87099500Y-56505000D01*
X87114817Y-56601712D01*
X87114817Y-56601713D01*
X87114818Y-56601715D01*
X87134263Y-56639878D01*
X87171258Y-56712487D01*
X87174211Y-56718281D01*
X87266719Y-56810789D01*
X87383285Y-56870182D01*
X87479997Y-56885500D01*
X89570002Y-56885499D01*
X89666715Y-56870182D01*
X89783281Y-56810789D01*
X89875789Y-56718281D01*
X89891598Y-56687254D01*
X89920114Y-56662899D01*
X89935257Y-56660500D01*
X90848642Y-56660500D01*
X90848644Y-56660500D01*
X90870739Y-56654579D01*
X90896100Y-56654579D01*
X90927525Y-56663000D01*
X90927526Y-56663000D01*
X91072477Y-56663000D01*
X91158770Y-56639877D01*
X91212485Y-56625484D01*
X91338015Y-56553009D01*
X91440509Y-56450515D01*
X91512984Y-56324985D01*
X91543129Y-56212483D01*
X91550500Y-56184977D01*
X91550500Y-56040022D01*
X91519594Y-55924682D01*
X91524489Y-55887500D01*
X91554242Y-55864670D01*
X91566924Y-55863000D01*
X92389508Y-55863000D01*
X92424156Y-55877352D01*
X92434778Y-55893249D01*
X92462220Y-55959500D01*
X92473368Y-55986414D01*
X92531253Y-56073045D01*
X92579826Y-56145741D01*
X92582861Y-56150282D01*
X92722218Y-56289639D01*
X92886086Y-56399132D01*
X93068165Y-56474551D01*
X93261459Y-56513000D01*
X93458541Y-56513000D01*
X93651835Y-56474551D01*
X93833914Y-56399132D01*
X93997782Y-56289639D01*
X94137139Y-56150282D01*
X94246632Y-55986414D01*
X94322051Y-55804335D01*
X94350264Y-55662500D01*
X94357097Y-55628149D01*
X94377932Y-55596966D01*
X94414714Y-55589650D01*
X94439803Y-55603060D01*
X94885148Y-56048405D01*
X94899500Y-56083053D01*
X94899500Y-57557177D01*
X94914033Y-57630239D01*
X94969398Y-57713101D01*
X95052260Y-57768466D01*
X95125326Y-57783000D01*
X96674674Y-57783000D01*
X96747740Y-57768466D01*
X96798278Y-57734697D01*
X96835060Y-57727382D01*
X96866242Y-57748217D01*
X96874500Y-57775440D01*
X96874500Y-59133113D01*
X96860148Y-59167761D01*
X93542760Y-62485148D01*
X93508112Y-62499500D01*
X93318482Y-62499500D01*
X93224696Y-62514353D01*
X93166199Y-62544159D01*
X93143954Y-62549500D01*
X93015478Y-62549500D01*
X92980830Y-62535148D01*
X92214851Y-61769169D01*
X92200499Y-61734521D01*
X92200499Y-60977120D01*
X92194092Y-60917521D01*
X92194091Y-60917517D01*
X92143796Y-60782669D01*
X92057546Y-60667454D01*
X91957915Y-60592870D01*
X91942333Y-60581205D01*
X91942331Y-60581204D01*
X91897381Y-60564439D01*
X91807479Y-60530907D01*
X91747879Y-60524500D01*
X91152120Y-60524500D01*
X91092521Y-60530907D01*
X90957666Y-60581205D01*
X90842454Y-60667454D01*
X90756205Y-60782666D01*
X90705907Y-60917520D01*
X90699500Y-60977120D01*
X90699500Y-62022879D01*
X90705907Y-62082478D01*
X90756205Y-62217333D01*
X90759415Y-62221621D01*
X90842454Y-62332546D01*
X90934934Y-62401776D01*
X90954039Y-62416079D01*
X90957669Y-62418796D01*
X91053636Y-62454589D01*
X91081084Y-62480145D01*
X91082423Y-62517624D01*
X91056867Y-62545072D01*
X91036512Y-62549500D01*
X90884105Y-62549500D01*
X90756815Y-62583607D01*
X90756811Y-62583608D01*
X90642685Y-62649500D01*
X90642684Y-62649501D01*
X89257036Y-64035148D01*
X89222388Y-64049500D01*
X88777120Y-64049500D01*
X88717521Y-64055907D01*
X88582666Y-64106205D01*
X88467454Y-64192454D01*
X88381205Y-64307666D01*
X88330907Y-64442520D01*
X88329487Y-64455738D01*
X88311514Y-64488653D01*
X88280768Y-64499500D01*
X80897320Y-64499500D01*
X80862672Y-64485148D01*
X80848320Y-64450500D01*
X80862672Y-64415852D01*
X80940508Y-64338016D01*
X80940509Y-64338015D01*
X81012984Y-64212485D01*
X81041462Y-64106205D01*
X81050500Y-64072477D01*
X81050500Y-63927522D01*
X81012984Y-63787516D01*
X81012983Y-63787512D01*
X80940508Y-63661984D01*
X80838015Y-63559491D01*
X80712487Y-63487016D01*
X80712483Y-63487015D01*
X80572478Y-63449500D01*
X80572475Y-63449500D01*
X80427525Y-63449500D01*
X80427522Y-63449500D01*
X80287516Y-63487015D01*
X80287512Y-63487016D01*
X80161984Y-63559491D01*
X80161984Y-63559492D01*
X80086328Y-63635148D01*
X80051680Y-63649500D01*
X79749499Y-63649500D01*
X79714851Y-63635148D01*
X79700499Y-63600500D01*
X79700499Y-63477120D01*
X79694092Y-63417521D01*
X79694091Y-63417517D01*
X79643796Y-63282669D01*
X79638211Y-63275209D01*
X79590339Y-63211260D01*
X79557546Y-63167454D01*
X79449176Y-63086328D01*
X79442333Y-63081205D01*
X79442331Y-63081204D01*
X79397381Y-63064439D01*
X79307479Y-63030907D01*
X79247879Y-63024500D01*
X78652120Y-63024500D01*
X78592521Y-63030907D01*
X78457666Y-63081205D01*
X78342454Y-63167454D01*
X78256205Y-63282666D01*
X78205907Y-63417520D01*
X78199500Y-63477120D01*
X78199500Y-64522879D01*
X78205907Y-64582478D01*
X78212256Y-64599500D01*
X78256204Y-64717331D01*
X78342454Y-64832546D01*
X78457669Y-64918796D01*
X78592517Y-64969091D01*
X78592520Y-64969092D01*
X78636177Y-64973785D01*
X78652127Y-64975500D01*
X79247872Y-64975499D01*
X79247878Y-64975499D01*
X79307478Y-64969092D01*
X79307479Y-64969091D01*
X79307483Y-64969091D01*
X79442331Y-64918796D01*
X79557546Y-64832546D01*
X79643796Y-64717331D01*
X79694091Y-64582483D01*
X79694091Y-64582481D01*
X79694092Y-64582479D01*
X79700500Y-64522879D01*
X79700500Y-64399500D01*
X79714852Y-64364852D01*
X79749500Y-64350500D01*
X80051680Y-64350500D01*
X80086328Y-64364852D01*
X80161985Y-64440509D01*
X80197775Y-64461172D01*
X80220605Y-64490925D01*
X80215710Y-64528107D01*
X80197776Y-64546042D01*
X80105183Y-64599502D01*
X79169536Y-65535148D01*
X79134888Y-65549500D01*
X78602120Y-65549500D01*
X78542521Y-65555907D01*
X78407666Y-65606205D01*
X78292454Y-65692454D01*
X78206205Y-65807666D01*
X78155907Y-65942520D01*
X78149500Y-66002120D01*
X78149500Y-66622389D01*
X78135148Y-66657037D01*
X77934147Y-66858038D01*
X77899499Y-66872390D01*
X77864851Y-66858038D01*
X77850499Y-66823390D01*
X77850499Y-66002120D01*
X77844092Y-65942521D01*
X77844091Y-65942517D01*
X77793796Y-65807669D01*
X77707546Y-65692454D01*
X77638314Y-65640627D01*
X77592333Y-65606205D01*
X77592331Y-65606204D01*
X77547381Y-65589439D01*
X77457479Y-65555907D01*
X77397879Y-65549500D01*
X76777120Y-65549500D01*
X76717518Y-65555908D01*
X76689898Y-65566209D01*
X76652419Y-65564869D01*
X76638128Y-65554946D01*
X76477712Y-65394530D01*
X76397791Y-65348387D01*
X76397788Y-65348386D01*
X76382908Y-65344399D01*
X76367640Y-65340307D01*
X76321642Y-65327982D01*
X76291889Y-65305151D01*
X76286995Y-65267969D01*
X76299675Y-65246005D01*
X76585815Y-64959865D01*
X76620462Y-64945514D01*
X76637585Y-64948603D01*
X76692517Y-64969091D01*
X76752127Y-64975500D01*
X77347872Y-64975499D01*
X77347878Y-64975499D01*
X77407478Y-64969092D01*
X77407479Y-64969091D01*
X77407483Y-64969091D01*
X77542331Y-64918796D01*
X77657546Y-64832546D01*
X77743796Y-64717331D01*
X77794091Y-64582483D01*
X77794091Y-64582481D01*
X77794092Y-64582479D01*
X77798040Y-64545750D01*
X77800500Y-64522873D01*
X77800499Y-63477128D01*
X77800499Y-63477127D01*
X77800499Y-63477120D01*
X77794092Y-63417521D01*
X77794091Y-63417517D01*
X77743796Y-63282669D01*
X77738211Y-63275209D01*
X77690339Y-63211260D01*
X77657546Y-63167454D01*
X77549176Y-63086328D01*
X77542333Y-63081205D01*
X77542331Y-63081204D01*
X77497381Y-63064439D01*
X77407479Y-63030907D01*
X77347879Y-63024500D01*
X76752120Y-63024500D01*
X76692521Y-63030907D01*
X76557666Y-63081205D01*
X76442454Y-63167454D01*
X76356205Y-63282666D01*
X76305907Y-63417520D01*
X76299500Y-63477120D01*
X76299500Y-64234521D01*
X76285148Y-64269169D01*
X75894170Y-64660148D01*
X75859522Y-64674500D01*
X74665683Y-64674500D01*
X74638461Y-64666242D01*
X74597740Y-64639034D01*
X74597739Y-64639033D01*
X74597738Y-64639033D01*
X74524677Y-64624500D01*
X74524674Y-64624500D01*
X72875326Y-64624500D01*
X72875322Y-64624500D01*
X72802260Y-64639033D01*
X72719398Y-64694398D01*
X72664033Y-64777260D01*
X72649500Y-64850322D01*
X72649500Y-65199677D01*
X72664033Y-65272739D01*
X72697467Y-65322778D01*
X72704783Y-65359560D01*
X72697467Y-65377222D01*
X72664033Y-65427260D01*
X72649500Y-65500322D01*
X72649500Y-65500326D01*
X72649500Y-65849674D01*
X72654107Y-65872834D01*
X72664340Y-65924280D01*
X72657023Y-65961062D01*
X72628964Y-65981169D01*
X72591998Y-65991074D01*
X72579592Y-65994399D01*
X72566036Y-65998031D01*
X72564708Y-65998387D01*
X72484794Y-66044527D01*
X72484784Y-66044534D01*
X71434148Y-67095170D01*
X71399500Y-67109522D01*
X71364852Y-67095170D01*
X71350500Y-67060522D01*
X71350500Y-66800326D01*
X71350499Y-66800322D01*
X71335966Y-66727261D01*
X71335966Y-66727260D01*
X71302531Y-66677221D01*
X71295216Y-66640441D01*
X71302530Y-66622779D01*
X71335966Y-66572740D01*
X71350500Y-66499674D01*
X71350500Y-66286583D01*
X71364852Y-66251935D01*
X71370135Y-66247357D01*
X71457188Y-66182188D01*
X71543351Y-66067091D01*
X71593598Y-65932373D01*
X71593598Y-65932372D01*
X71600000Y-65872834D01*
X71600000Y-65825000D01*
X70349000Y-65825000D01*
X70314352Y-65810648D01*
X70300000Y-65776000D01*
X70300000Y-65574000D01*
X70314352Y-65539352D01*
X70349000Y-65525000D01*
X71600000Y-65525000D01*
X71600000Y-65477165D01*
X71593598Y-65417627D01*
X71593598Y-65417626D01*
X71543351Y-65282908D01*
X71457188Y-65167811D01*
X71370135Y-65102641D01*
X71350999Y-65070388D01*
X71350500Y-65063415D01*
X71350500Y-64850326D01*
X71350499Y-64850322D01*
X71335966Y-64777261D01*
X71335966Y-64777260D01*
X71280681Y-64694519D01*
X71273366Y-64657740D01*
X71286774Y-64632653D01*
X71930829Y-63988600D01*
X71965477Y-63974248D01*
X72072477Y-63974248D01*
X72142480Y-63955490D01*
X72212485Y-63936732D01*
X72338015Y-63864257D01*
X72440509Y-63761763D01*
X72512984Y-63636233D01*
X72542789Y-63525000D01*
X72550500Y-63496225D01*
X72550500Y-63351270D01*
X72512984Y-63211264D01*
X72512983Y-63211260D01*
X72467035Y-63131678D01*
X72440509Y-63085733D01*
X72364852Y-63010076D01*
X72350500Y-62975428D01*
X72350500Y-62723247D01*
X72364852Y-62688599D01*
X72399500Y-62674247D01*
X72522878Y-62674247D01*
X72582478Y-62667840D01*
X72582479Y-62667839D01*
X72582483Y-62667839D01*
X72717331Y-62617544D01*
X72832546Y-62531294D01*
X72918796Y-62416079D01*
X72969091Y-62281231D01*
X72969091Y-62281229D01*
X72969092Y-62281227D01*
X72975499Y-62221627D01*
X72975500Y-62221621D01*
X72975499Y-61625876D01*
X72975499Y-61625875D01*
X72975499Y-61625868D01*
X72969759Y-61572477D01*
X72969091Y-61566265D01*
X72922533Y-61441436D01*
X72922533Y-61441434D01*
X72918797Y-61431419D01*
X72918795Y-61431415D01*
X72915881Y-61427522D01*
X87449500Y-61427522D01*
X87449500Y-61572477D01*
X87487015Y-61712483D01*
X87487016Y-61712487D01*
X87536238Y-61797740D01*
X87559491Y-61838015D01*
X87661985Y-61940509D01*
X87704148Y-61964852D01*
X87787512Y-62012983D01*
X87787514Y-62012983D01*
X87787515Y-62012984D01*
X87822517Y-62022363D01*
X87927522Y-62050500D01*
X87927525Y-62050500D01*
X88072477Y-62050500D01*
X88169503Y-62024501D01*
X88212485Y-62012984D01*
X88338015Y-61940509D01*
X88413672Y-61864852D01*
X88448320Y-61850500D01*
X88750501Y-61850500D01*
X88785149Y-61864852D01*
X88799501Y-61899500D01*
X88799501Y-62022879D01*
X88805907Y-62082478D01*
X88856205Y-62217333D01*
X88859415Y-62221621D01*
X88942454Y-62332546D01*
X89034934Y-62401776D01*
X89054039Y-62416079D01*
X89057669Y-62418796D01*
X89192517Y-62469091D01*
X89192520Y-62469092D01*
X89236177Y-62473785D01*
X89252127Y-62475500D01*
X89847872Y-62475499D01*
X89847878Y-62475499D01*
X89907478Y-62469092D01*
X89907479Y-62469091D01*
X89907483Y-62469091D01*
X90042331Y-62418796D01*
X90157546Y-62332546D01*
X90243796Y-62217331D01*
X90294091Y-62082483D01*
X90294091Y-62082481D01*
X90294092Y-62082479D01*
X90300499Y-62022879D01*
X90300500Y-62022873D01*
X90300499Y-60977128D01*
X90300499Y-60977127D01*
X90300499Y-60977120D01*
X90294092Y-60917521D01*
X90294091Y-60917517D01*
X90243796Y-60782669D01*
X90157546Y-60667454D01*
X90057915Y-60592870D01*
X90042333Y-60581205D01*
X90042331Y-60581204D01*
X89997381Y-60564439D01*
X89907479Y-60530907D01*
X89847879Y-60524500D01*
X89252120Y-60524500D01*
X89192521Y-60530907D01*
X89057666Y-60581205D01*
X88942454Y-60667454D01*
X88856205Y-60782666D01*
X88805907Y-60917520D01*
X88799500Y-60977120D01*
X88799500Y-61100500D01*
X88785148Y-61135148D01*
X88750500Y-61149500D01*
X88448320Y-61149500D01*
X88413672Y-61135148D01*
X88338015Y-61059491D01*
X88212487Y-60987016D01*
X88212483Y-60987015D01*
X88072478Y-60949500D01*
X88072475Y-60949500D01*
X87927525Y-60949500D01*
X87927522Y-60949500D01*
X87787516Y-60987015D01*
X87787512Y-60987016D01*
X87661984Y-61059491D01*
X87661984Y-61059492D01*
X87559492Y-61161984D01*
X87559491Y-61161984D01*
X87487016Y-61287512D01*
X87487015Y-61287516D01*
X87449500Y-61427522D01*
X72915881Y-61427522D01*
X72852198Y-61342454D01*
X72832546Y-61316202D01*
X72763314Y-61264375D01*
X72717333Y-61229953D01*
X72717331Y-61229952D01*
X72672381Y-61213187D01*
X72582479Y-61179655D01*
X72522879Y-61173248D01*
X71477120Y-61173248D01*
X71417521Y-61179655D01*
X71282666Y-61229953D01*
X71167454Y-61316202D01*
X71081205Y-61431414D01*
X71030907Y-61566268D01*
X71024500Y-61625868D01*
X71024500Y-62221627D01*
X71030907Y-62281226D01*
X71081205Y-62416081D01*
X71101245Y-62442850D01*
X71167454Y-62531294D01*
X71259934Y-62600524D01*
X71275153Y-62611918D01*
X71282669Y-62617544D01*
X71417517Y-62667839D01*
X71417520Y-62667840D01*
X71461177Y-62672533D01*
X71477127Y-62674248D01*
X71600500Y-62674247D01*
X71635148Y-62688598D01*
X71649500Y-62723247D01*
X71649500Y-62975428D01*
X71635148Y-63010076D01*
X71559492Y-63085732D01*
X71559491Y-63085732D01*
X71487016Y-63211260D01*
X71487015Y-63211264D01*
X71449500Y-63351270D01*
X71449500Y-63458270D01*
X71435148Y-63492918D01*
X70317918Y-64610148D01*
X70283270Y-64624500D01*
X69475322Y-64624500D01*
X69402260Y-64639033D01*
X69319398Y-64694398D01*
X69264033Y-64777260D01*
X69249500Y-64850322D01*
X69249500Y-65063415D01*
X69235148Y-65098063D01*
X69229875Y-65102634D01*
X69228875Y-65103383D01*
X69192539Y-65112667D01*
X69160281Y-65093539D01*
X69150500Y-65064164D01*
X69150500Y-62823540D01*
X69164852Y-62788892D01*
X69780468Y-62173276D01*
X69780469Y-62173275D01*
X69826614Y-62093350D01*
X69829526Y-62082483D01*
X69843346Y-62030907D01*
X69850500Y-62004208D01*
X69850500Y-60323728D01*
X70775001Y-60323728D01*
X70785493Y-60426441D01*
X70840642Y-60592870D01*
X70932682Y-60742091D01*
X71056656Y-60866065D01*
X71205877Y-60958105D01*
X71372306Y-61013254D01*
X71475018Y-61023747D01*
X71749999Y-61023747D01*
X72250000Y-61023747D01*
X72524980Y-61023747D01*
X72627693Y-61013254D01*
X72794122Y-60958105D01*
X72943343Y-60866065D01*
X73067317Y-60742091D01*
X73159357Y-60592870D01*
X73214506Y-60426441D01*
X73225000Y-60323729D01*
X73225000Y-60273748D01*
X72250000Y-60273748D01*
X72250000Y-61023747D01*
X71749999Y-61023747D01*
X71750000Y-61023746D01*
X71750000Y-60273748D01*
X70775001Y-60273748D01*
X70775001Y-60323728D01*
X69850500Y-60323728D01*
X69850500Y-58861999D01*
X69864852Y-58827351D01*
X69899497Y-58812999D01*
X70113138Y-58812999D01*
X70160545Y-58806759D01*
X70229293Y-58774700D01*
X70266759Y-58773065D01*
X70270692Y-58774694D01*
X70339455Y-58806759D01*
X70386861Y-58813000D01*
X70613138Y-58812999D01*
X70660545Y-58806759D01*
X70729293Y-58774700D01*
X70766759Y-58773065D01*
X70770692Y-58774694D01*
X70839455Y-58806759D01*
X70886861Y-58813000D01*
X71113138Y-58812999D01*
X71160545Y-58806759D01*
X71229293Y-58774700D01*
X71266759Y-58773065D01*
X71270692Y-58774694D01*
X71339455Y-58806759D01*
X71386861Y-58813000D01*
X71425828Y-58812999D01*
X71460475Y-58827350D01*
X71464702Y-58832170D01*
X71514904Y-58897594D01*
X71514905Y-58897595D01*
X71564791Y-58935874D01*
X71583543Y-58968352D01*
X71573836Y-59004577D01*
X71541358Y-59023329D01*
X71534963Y-59023748D01*
X71475020Y-59023748D01*
X71372306Y-59034241D01*
X71205877Y-59089390D01*
X71056656Y-59181430D01*
X70932682Y-59305404D01*
X70840642Y-59454625D01*
X70785493Y-59621054D01*
X70775000Y-59723766D01*
X70775000Y-59773748D01*
X71750000Y-59773748D01*
X71750000Y-59017748D01*
X71764352Y-58983100D01*
X71799000Y-58968748D01*
X71850000Y-58968748D01*
X72150000Y-58968748D01*
X72201000Y-58968748D01*
X72235648Y-58983100D01*
X72250000Y-59017748D01*
X72250000Y-59773748D01*
X73224999Y-59773748D01*
X73224999Y-59723767D01*
X73214506Y-59621054D01*
X73159357Y-59454625D01*
X73067317Y-59305404D01*
X72943343Y-59181430D01*
X72794122Y-59089390D01*
X72627693Y-59034241D01*
X72524981Y-59023748D01*
X72465038Y-59023748D01*
X72430390Y-59009396D01*
X72416038Y-58974748D01*
X72430390Y-58940100D01*
X72435209Y-58935874D01*
X72485094Y-58897595D01*
X72485095Y-58897594D01*
X72577261Y-58777481D01*
X72577264Y-58777476D01*
X72635200Y-58637604D01*
X72650000Y-58525187D01*
X72650000Y-57975000D01*
X72150000Y-57975000D01*
X72150000Y-58968748D01*
X71850000Y-58968748D01*
X71850000Y-58678820D01*
X71854590Y-58658114D01*
X71894259Y-58573045D01*
X71900500Y-58525639D01*
X71900499Y-57873998D01*
X71914851Y-57839352D01*
X71949499Y-57825000D01*
X72000000Y-57825000D01*
X72000000Y-57724000D01*
X72014352Y-57689352D01*
X72049000Y-57675000D01*
X72650000Y-57675000D01*
X72650000Y-57124812D01*
X72635200Y-57012395D01*
X72577264Y-56872523D01*
X72577263Y-56872522D01*
X72572007Y-56865672D01*
X72562300Y-56829447D01*
X72581051Y-56796968D01*
X72617276Y-56787261D01*
X72631585Y-56791431D01*
X72664455Y-56806759D01*
X72711861Y-56813000D01*
X74113138Y-56812999D01*
X74160545Y-56806759D01*
X74264579Y-56758247D01*
X74345747Y-56677079D01*
X74394259Y-56573045D01*
X74400500Y-56525639D01*
X74400499Y-56299362D01*
X74394259Y-56251955D01*
X74362200Y-56183206D01*
X74360565Y-56145741D01*
X74362201Y-56141792D01*
X74394259Y-56073045D01*
X74400500Y-56025639D01*
X74400499Y-55799362D01*
X74394259Y-55751955D01*
X74394256Y-55751950D01*
X74393489Y-55749315D01*
X74397568Y-55712034D01*
X74426813Y-55688557D01*
X74464094Y-55692636D01*
X74475178Y-55700950D01*
X75760148Y-56985920D01*
X75774500Y-57020568D01*
X75774500Y-58022035D01*
X75760148Y-58056683D01*
X75742626Y-58067944D01*
X75695866Y-58085385D01*
X75641944Y-58105497D01*
X75528169Y-58190669D01*
X75442998Y-58304444D01*
X75442995Y-58304448D01*
X75393328Y-58437608D01*
X75387000Y-58496472D01*
X75387000Y-59503526D01*
X75393327Y-59562387D01*
X75393330Y-59562395D01*
X75442995Y-59695551D01*
X75442996Y-59695553D01*
X75442997Y-59695554D01*
X75528169Y-59809331D01*
X75641946Y-59894503D01*
X75641947Y-59894503D01*
X75641948Y-59894504D01*
X75775108Y-59944171D01*
X75792936Y-59946087D01*
X75833979Y-59950500D01*
X76416020Y-59950499D01*
X76416026Y-59950499D01*
X76474887Y-59944172D01*
X76474889Y-59944171D01*
X76474891Y-59944171D01*
X76608054Y-59894503D01*
X76721831Y-59809331D01*
X76807003Y-59695554D01*
X76856671Y-59562391D01*
X76863000Y-59503521D01*
X76862999Y-58496480D01*
X76862999Y-58496479D01*
X76862999Y-58496473D01*
X76862999Y-58496472D01*
X77262000Y-58496472D01*
X77262000Y-59503526D01*
X77268327Y-59562387D01*
X77268330Y-59562395D01*
X77317995Y-59695551D01*
X77317996Y-59695553D01*
X77317997Y-59695554D01*
X77403169Y-59809331D01*
X77516946Y-59894503D01*
X77516947Y-59894503D01*
X77516948Y-59894504D01*
X77650108Y-59944171D01*
X77667936Y-59946087D01*
X77708979Y-59950500D01*
X78291020Y-59950499D01*
X78291026Y-59950499D01*
X78349887Y-59944172D01*
X78349889Y-59944171D01*
X78349891Y-59944171D01*
X78483054Y-59894503D01*
X78596831Y-59809331D01*
X78682003Y-59695554D01*
X78731671Y-59562391D01*
X78732199Y-59557478D01*
X78738000Y-59503527D01*
X78738000Y-59399500D01*
X78752352Y-59364852D01*
X78787000Y-59350500D01*
X78838001Y-59350500D01*
X78872649Y-59364852D01*
X78887001Y-59399500D01*
X78887001Y-59497879D01*
X78893407Y-59557478D01*
X78943705Y-59692333D01*
X78959027Y-59712800D01*
X79029954Y-59807546D01*
X79145169Y-59893796D01*
X79280017Y-59944091D01*
X79280020Y-59944092D01*
X79323677Y-59948785D01*
X79339627Y-59950500D01*
X79960372Y-59950499D01*
X79960378Y-59950499D01*
X80019978Y-59944092D01*
X80019979Y-59944091D01*
X80019983Y-59944091D01*
X80154831Y-59893796D01*
X80270046Y-59807546D01*
X80356296Y-59692331D01*
X80406591Y-59557483D01*
X80406591Y-59557481D01*
X80406592Y-59557479D01*
X80412392Y-59503526D01*
X80413000Y-59497873D01*
X80412999Y-58502128D01*
X80412999Y-58502127D01*
X80412999Y-58502120D01*
X80712000Y-58502120D01*
X80712000Y-59497879D01*
X80718407Y-59557478D01*
X80768705Y-59692333D01*
X80784027Y-59712800D01*
X80854954Y-59807546D01*
X80970169Y-59893796D01*
X81105017Y-59944091D01*
X81105020Y-59944092D01*
X81148677Y-59948785D01*
X81164627Y-59950500D01*
X81785372Y-59950499D01*
X81785378Y-59950499D01*
X81844978Y-59944092D01*
X81844979Y-59944091D01*
X81844983Y-59944091D01*
X81979831Y-59893796D01*
X82095046Y-59807546D01*
X82181296Y-59692331D01*
X82231591Y-59557483D01*
X82231591Y-59557481D01*
X82231592Y-59557479D01*
X82238000Y-59497879D01*
X82238000Y-59399500D01*
X82252352Y-59364852D01*
X82287000Y-59350500D01*
X82526680Y-59350500D01*
X82561328Y-59364852D01*
X82636985Y-59440509D01*
X82647821Y-59446765D01*
X82762512Y-59512983D01*
X82762514Y-59512983D01*
X82762515Y-59512984D01*
X82797517Y-59522363D01*
X82902522Y-59550500D01*
X82902525Y-59550500D01*
X83047477Y-59550500D01*
X83117480Y-59531742D01*
X83187485Y-59512984D01*
X83313015Y-59440509D01*
X83415509Y-59338015D01*
X83487984Y-59212485D01*
X83509252Y-59133113D01*
X83525500Y-59072477D01*
X83525500Y-58927522D01*
X83487984Y-58787516D01*
X83487983Y-58787512D01*
X83442035Y-58707930D01*
X83415509Y-58661985D01*
X83313015Y-58559491D01*
X83187487Y-58487016D01*
X83187483Y-58487015D01*
X83047478Y-58449500D01*
X83047475Y-58449500D01*
X82902525Y-58449500D01*
X82902522Y-58449500D01*
X82762516Y-58487015D01*
X82762512Y-58487016D01*
X82636984Y-58559491D01*
X82636984Y-58559492D01*
X82561328Y-58635148D01*
X82526680Y-58649500D01*
X82286999Y-58649500D01*
X82252351Y-58635148D01*
X82237999Y-58600500D01*
X82237999Y-58502120D01*
X82231592Y-58442521D01*
X82231591Y-58442517D01*
X82181296Y-58307669D01*
X82095046Y-58192454D01*
X82025814Y-58140627D01*
X81979833Y-58106205D01*
X81979831Y-58106204D01*
X81934881Y-58089439D01*
X81844979Y-58055907D01*
X81785379Y-58049500D01*
X81164620Y-58049500D01*
X81105021Y-58055907D01*
X80970166Y-58106205D01*
X80854954Y-58192454D01*
X80768705Y-58307666D01*
X80718407Y-58442520D01*
X80712000Y-58502120D01*
X80412999Y-58502120D01*
X80406592Y-58442521D01*
X80406591Y-58442517D01*
X80356296Y-58307669D01*
X80270046Y-58192454D01*
X80200814Y-58140627D01*
X80154833Y-58106205D01*
X80154831Y-58106204D01*
X80109881Y-58089439D01*
X80019979Y-58055907D01*
X79960379Y-58049500D01*
X79339620Y-58049500D01*
X79280021Y-58055907D01*
X79145166Y-58106205D01*
X79029954Y-58192454D01*
X78943705Y-58307666D01*
X78893407Y-58442520D01*
X78887000Y-58502120D01*
X78887000Y-58600500D01*
X78872648Y-58635148D01*
X78838000Y-58649500D01*
X78786999Y-58649500D01*
X78752351Y-58635148D01*
X78737999Y-58600500D01*
X78737999Y-58496473D01*
X78731672Y-58437612D01*
X78731671Y-58437609D01*
X78682003Y-58304446D01*
X78596831Y-58190669D01*
X78483054Y-58105497D01*
X78483053Y-58105496D01*
X78483051Y-58105495D01*
X78349891Y-58055828D01*
X78291027Y-58049500D01*
X77708973Y-58049500D01*
X77650112Y-58055827D01*
X77650104Y-58055830D01*
X77516948Y-58105495D01*
X77516944Y-58105498D01*
X77403169Y-58190669D01*
X77317998Y-58304444D01*
X77317995Y-58304448D01*
X77268328Y-58437608D01*
X77262000Y-58496472D01*
X76862999Y-58496472D01*
X76856672Y-58437612D01*
X76856671Y-58437609D01*
X76807003Y-58304446D01*
X76721831Y-58190669D01*
X76664942Y-58148083D01*
X76608055Y-58105497D01*
X76571233Y-58091763D01*
X76507374Y-58067944D01*
X76479928Y-58042390D01*
X76475500Y-58022035D01*
X76475500Y-56808944D01*
X76461915Y-56758245D01*
X76451614Y-56719802D01*
X76450736Y-56718281D01*
X76405470Y-56639878D01*
X75693114Y-55927522D01*
X76949500Y-55927522D01*
X76949500Y-56072477D01*
X76987015Y-56212483D01*
X76987016Y-56212487D01*
X77037176Y-56299365D01*
X77059491Y-56338015D01*
X77161985Y-56440509D01*
X77179316Y-56450515D01*
X77287512Y-56512983D01*
X77287514Y-56512983D01*
X77287515Y-56512984D01*
X77322517Y-56522363D01*
X77427522Y-56550500D01*
X77427525Y-56550500D01*
X77534522Y-56550500D01*
X77569170Y-56564852D01*
X77594788Y-56590470D01*
X77621529Y-56605909D01*
X77674709Y-56636613D01*
X77674711Y-56636613D01*
X77674712Y-56636614D01*
X77696998Y-56642585D01*
X77763853Y-56660500D01*
X77763856Y-56660500D01*
X78064743Y-56660500D01*
X78099391Y-56674852D01*
X78108401Y-56687252D01*
X78114374Y-56698976D01*
X78124209Y-56718279D01*
X78124210Y-56718280D01*
X78124211Y-56718281D01*
X78216719Y-56810789D01*
X78333285Y-56870182D01*
X78429997Y-56885500D01*
X80520002Y-56885499D01*
X80616715Y-56870182D01*
X80733281Y-56810789D01*
X80825789Y-56718281D01*
X80885182Y-56601715D01*
X80900500Y-56505003D01*
X80900499Y-56114998D01*
X80885182Y-56018285D01*
X80825789Y-55901719D01*
X80733281Y-55809211D01*
X80733278Y-55809209D01*
X80616715Y-55749818D01*
X80613539Y-55749315D01*
X80520003Y-55734500D01*
X80520001Y-55734500D01*
X78429999Y-55734500D01*
X78333287Y-55749817D01*
X78216721Y-55809209D01*
X78216718Y-55809211D01*
X78121484Y-55904446D01*
X78120131Y-55903093D01*
X78093697Y-55919279D01*
X78057234Y-55910510D01*
X78038720Y-55883561D01*
X78016158Y-55799360D01*
X78012984Y-55787515D01*
X78012983Y-55787514D01*
X78012983Y-55787512D01*
X77967035Y-55707930D01*
X77940509Y-55661985D01*
X77838015Y-55559491D01*
X77815019Y-55546214D01*
X77712487Y-55487016D01*
X77712483Y-55487015D01*
X77572478Y-55449500D01*
X77572475Y-55449500D01*
X77427525Y-55449500D01*
X77427522Y-55449500D01*
X77287516Y-55487015D01*
X77287512Y-55487016D01*
X77161984Y-55559491D01*
X77161984Y-55559492D01*
X77059492Y-55661984D01*
X77059491Y-55661984D01*
X76987016Y-55787512D01*
X76987015Y-55787516D01*
X76949500Y-55927522D01*
X75693114Y-55927522D01*
X74400831Y-54635239D01*
X74386479Y-54600591D01*
X74391068Y-54579885D01*
X74394259Y-54573045D01*
X74400500Y-54525639D01*
X74400499Y-54299362D01*
X74394259Y-54251955D01*
X74362200Y-54183206D01*
X74360565Y-54145741D01*
X74362201Y-54141792D01*
X74394259Y-54073045D01*
X74400500Y-54025639D01*
X74400499Y-53799362D01*
X74394259Y-53751955D01*
X74362200Y-53683206D01*
X74360565Y-53645741D01*
X74362201Y-53641792D01*
X74394259Y-53573045D01*
X74400500Y-53525639D01*
X74400499Y-53299362D01*
X74394259Y-53251955D01*
X74362200Y-53183206D01*
X74360565Y-53145741D01*
X74362201Y-53141792D01*
X74394259Y-53073045D01*
X74400500Y-53025639D01*
X74400499Y-52811999D01*
X74414851Y-52777352D01*
X74449499Y-52763000D01*
X75980674Y-52763000D01*
X76015322Y-52777352D01*
X76023109Y-52787500D01*
X76029957Y-52799361D01*
X76059491Y-52850515D01*
X76161985Y-52953009D01*
X76207930Y-52979535D01*
X76287512Y-53025483D01*
X76287514Y-53025483D01*
X76287515Y-53025484D01*
X76322517Y-53034863D01*
X76427522Y-53063000D01*
X76427525Y-53063000D01*
X76572477Y-53063000D01*
X76642480Y-53044242D01*
X76712485Y-53025484D01*
X76838015Y-52953009D01*
X76940509Y-52850515D01*
X77012984Y-52724985D01*
X77035276Y-52641791D01*
X77050500Y-52584977D01*
X77050500Y-52440022D01*
X77019594Y-52324682D01*
X77024489Y-52287500D01*
X77054242Y-52264670D01*
X77066924Y-52263000D01*
X77452022Y-52263000D01*
X77486670Y-52277352D01*
X78342468Y-53133150D01*
X78356820Y-53167798D01*
X78342468Y-53202446D01*
X78330066Y-53211457D01*
X78216723Y-53269207D01*
X78216718Y-53269211D01*
X78124211Y-53361718D01*
X78124209Y-53361721D01*
X78064818Y-53478284D01*
X78064818Y-53478285D01*
X78049719Y-53573618D01*
X78049500Y-53574998D01*
X78049500Y-53965000D01*
X78064817Y-54061712D01*
X78064817Y-54061713D01*
X78064818Y-54061715D01*
X78070591Y-54073045D01*
X78115907Y-54161985D01*
X78124211Y-54178281D01*
X78216719Y-54270789D01*
X78333285Y-54330182D01*
X78429997Y-54345500D01*
X80520002Y-54345499D01*
X80616715Y-54330182D01*
X80733281Y-54270789D01*
X80825789Y-54178281D01*
X80885182Y-54061715D01*
X80900500Y-53965003D01*
X80900499Y-53574998D01*
X80885182Y-53478285D01*
X80825789Y-53361719D01*
X80733281Y-53269211D01*
X80733278Y-53269209D01*
X80616715Y-53209818D01*
X80616709Y-53209817D01*
X80520003Y-53194500D01*
X80520001Y-53194500D01*
X79415478Y-53194500D01*
X79380830Y-53180148D01*
X77904690Y-51704008D01*
X77890338Y-51669360D01*
X77896903Y-51644860D01*
X77919916Y-51605000D01*
X77949669Y-51582170D01*
X77962351Y-51580500D01*
X78064743Y-51580500D01*
X78099391Y-51594852D01*
X78108401Y-51607252D01*
X78114052Y-51618343D01*
X78124209Y-51638279D01*
X78124211Y-51638281D01*
X78216719Y-51730789D01*
X78333285Y-51790182D01*
X78429997Y-51805500D01*
X80520002Y-51805499D01*
X80616715Y-51790182D01*
X80733281Y-51730789D01*
X80825789Y-51638281D01*
X80885182Y-51521715D01*
X80900500Y-51425003D01*
X80900499Y-51034998D01*
X80885182Y-50938285D01*
X80825789Y-50821719D01*
X80733281Y-50729211D01*
X80733278Y-50729209D01*
X80616715Y-50669818D01*
X80616709Y-50669817D01*
X80520003Y-50654500D01*
X80520001Y-50654500D01*
X78429999Y-50654500D01*
X78333287Y-50669817D01*
X78216721Y-50729209D01*
X78216718Y-50729211D01*
X78124209Y-50821720D01*
X78112916Y-50843886D01*
X78108401Y-50852745D01*
X78079886Y-50877101D01*
X78064743Y-50879500D01*
X77817278Y-50879500D01*
X77792778Y-50872935D01*
X77791145Y-50871992D01*
X77791144Y-50871991D01*
X77748974Y-50847644D01*
X77665616Y-50799516D01*
X77665612Y-50799515D01*
X77525607Y-50762000D01*
X77525604Y-50762000D01*
X77380654Y-50762000D01*
X77380651Y-50762000D01*
X77240645Y-50799515D01*
X77240641Y-50799516D01*
X77115113Y-50871991D01*
X77115113Y-50871992D01*
X77012621Y-50974484D01*
X77012620Y-50974484D01*
X76940145Y-51100012D01*
X76940144Y-51100016D01*
X76902629Y-51240022D01*
X76902629Y-51384977D01*
X76933535Y-51500318D01*
X76928640Y-51537500D01*
X76898887Y-51560330D01*
X76886205Y-51562000D01*
X74449500Y-51562000D01*
X74414852Y-51547648D01*
X74400500Y-51513002D01*
X74400500Y-51500318D01*
X74400500Y-51486669D01*
X74414849Y-51452023D01*
X74419670Y-51447795D01*
X74485097Y-51397592D01*
X74577261Y-51277481D01*
X74577264Y-51277476D01*
X74635200Y-51137604D01*
X74645088Y-51062500D01*
X74266321Y-51062500D01*
X74245613Y-51057909D01*
X74244541Y-51057409D01*
X74160546Y-51018241D01*
X74151063Y-51016992D01*
X74113139Y-51012000D01*
X74113135Y-51012000D01*
X72711867Y-51012000D01*
X72711861Y-51012001D01*
X72664456Y-51018240D01*
X72609940Y-51043661D01*
X72580458Y-51057409D01*
X72559751Y-51062000D01*
X71855489Y-51062000D01*
X71830990Y-51055435D01*
X71795590Y-51034997D01*
X71712487Y-50987016D01*
X71712483Y-50987015D01*
X71572478Y-50949500D01*
X71572475Y-50949500D01*
X71427525Y-50949500D01*
X71427522Y-50949500D01*
X71287516Y-50987015D01*
X71287512Y-50987016D01*
X71161984Y-51059491D01*
X71161984Y-51059492D01*
X71059492Y-51161984D01*
X71059491Y-51161984D01*
X70987016Y-51287512D01*
X70987015Y-51287516D01*
X70949500Y-51427522D01*
X70949500Y-51572477D01*
X70987015Y-51712483D01*
X70987016Y-51712487D01*
X71038651Y-51801919D01*
X71059491Y-51838015D01*
X71161985Y-51940509D01*
X71207930Y-51967035D01*
X71287512Y-52012983D01*
X71287514Y-52012983D01*
X71287515Y-52012984D01*
X71322517Y-52022363D01*
X71427522Y-52050500D01*
X71427525Y-52050500D01*
X71572477Y-52050500D01*
X71665271Y-52025635D01*
X71712485Y-52012984D01*
X71838015Y-51940509D01*
X71940509Y-51838015D01*
X71969674Y-51787500D01*
X71999427Y-51764670D01*
X72012109Y-51763000D01*
X72375500Y-51763000D01*
X72410148Y-51777352D01*
X72424500Y-51812000D01*
X72424500Y-52025634D01*
X72424501Y-52025639D01*
X72430740Y-52073045D01*
X72462797Y-52141792D01*
X72464433Y-52179259D01*
X72462797Y-52183207D01*
X72430741Y-52251953D01*
X72430740Y-52251958D01*
X72424500Y-52299362D01*
X72424500Y-52525634D01*
X72424501Y-52525639D01*
X72430740Y-52573045D01*
X72462797Y-52641792D01*
X72464433Y-52679259D01*
X72462797Y-52683207D01*
X72430741Y-52751953D01*
X72430740Y-52751958D01*
X72424500Y-52799362D01*
X72424500Y-53025634D01*
X72424501Y-53025639D01*
X72430740Y-53073045D01*
X72462797Y-53141792D01*
X72464433Y-53179259D01*
X72462797Y-53183207D01*
X72430741Y-53251953D01*
X72430740Y-53251958D01*
X72424500Y-53299362D01*
X72424500Y-53525634D01*
X72424501Y-53525639D01*
X72430740Y-53573045D01*
X72462797Y-53641792D01*
X72464433Y-53679259D01*
X72462797Y-53683207D01*
X72430741Y-53751953D01*
X72430740Y-53751958D01*
X72424500Y-53799362D01*
X72424500Y-54025634D01*
X72424501Y-54025639D01*
X72430740Y-54073045D01*
X72462797Y-54141792D01*
X72464433Y-54179259D01*
X72462797Y-54183207D01*
X72430741Y-54251953D01*
X72430740Y-54251958D01*
X72424500Y-54299362D01*
X72424500Y-54525634D01*
X72424501Y-54525639D01*
X72430740Y-54573045D01*
X72462797Y-54641792D01*
X72464433Y-54679259D01*
X72462797Y-54683207D01*
X72430741Y-54751953D01*
X72430740Y-54751958D01*
X72424500Y-54799362D01*
X72424500Y-55025634D01*
X72424501Y-55025639D01*
X72430740Y-55073045D01*
X72462797Y-55141792D01*
X72464433Y-55179259D01*
X72462797Y-55183207D01*
X72430741Y-55251953D01*
X72430740Y-55251958D01*
X72424500Y-55299362D01*
X72424500Y-55525634D01*
X72424501Y-55525639D01*
X72430740Y-55573045D01*
X72462797Y-55641792D01*
X72464433Y-55679259D01*
X72462797Y-55683207D01*
X72430741Y-55751953D01*
X72430740Y-55751958D01*
X72424500Y-55799362D01*
X72424500Y-56025634D01*
X72424501Y-56025639D01*
X72430740Y-56073045D01*
X72462797Y-56141792D01*
X72464433Y-56179259D01*
X72462797Y-56183207D01*
X72430741Y-56251953D01*
X72430740Y-56251958D01*
X72424500Y-56299362D01*
X72424500Y-56525634D01*
X72424501Y-56525639D01*
X72430740Y-56573045D01*
X72446065Y-56605909D01*
X72447701Y-56643376D01*
X72422364Y-56671026D01*
X72384897Y-56672662D01*
X72371827Y-56665492D01*
X72364976Y-56660235D01*
X72225104Y-56602299D01*
X72112688Y-56587500D01*
X72099500Y-56587500D01*
X72064852Y-56573148D01*
X72050500Y-56538500D01*
X72050500Y-56427522D01*
X72015377Y-56296446D01*
X72012984Y-56287515D01*
X72012983Y-56287514D01*
X72012983Y-56287512D01*
X71953782Y-56184975D01*
X71940509Y-56161985D01*
X71838015Y-56059491D01*
X71818814Y-56048405D01*
X71712487Y-55987016D01*
X71712483Y-55987015D01*
X71572478Y-55949500D01*
X71572475Y-55949500D01*
X71427525Y-55949500D01*
X71427522Y-55949500D01*
X71287516Y-55987015D01*
X71287512Y-55987016D01*
X71161984Y-56059491D01*
X71161984Y-56059492D01*
X71059492Y-56161984D01*
X71059491Y-56161984D01*
X70987016Y-56287512D01*
X70987015Y-56287516D01*
X70949500Y-56427522D01*
X70949500Y-56572477D01*
X70987015Y-56712483D01*
X70987016Y-56712487D01*
X71016469Y-56763500D01*
X71021364Y-56800682D01*
X70998534Y-56830435D01*
X70974035Y-56837000D01*
X70886865Y-56837000D01*
X70886860Y-56837001D01*
X70839454Y-56843240D01*
X70770707Y-56875297D01*
X70733239Y-56876933D01*
X70729291Y-56875297D01*
X70696565Y-56860037D01*
X70660545Y-56843241D01*
X70660543Y-56843240D01*
X70660542Y-56843240D01*
X70631859Y-56839464D01*
X70613139Y-56837000D01*
X70613136Y-56837000D01*
X70386865Y-56837000D01*
X70386860Y-56837001D01*
X70339454Y-56843240D01*
X70270707Y-56875297D01*
X70233239Y-56876933D01*
X70229291Y-56875297D01*
X70196565Y-56860037D01*
X70160545Y-56843241D01*
X70160543Y-56843240D01*
X70160542Y-56843240D01*
X70131859Y-56839464D01*
X70113139Y-56837000D01*
X70113136Y-56837000D01*
X69886865Y-56837000D01*
X69886860Y-56837001D01*
X69839454Y-56843240D01*
X69770707Y-56875297D01*
X69733239Y-56876933D01*
X69729291Y-56875297D01*
X69696565Y-56860037D01*
X69660545Y-56843241D01*
X69660543Y-56843240D01*
X69660542Y-56843240D01*
X69631859Y-56839464D01*
X69613139Y-56837000D01*
X69613136Y-56837000D01*
X69386865Y-56837000D01*
X69386860Y-56837001D01*
X69339454Y-56843240D01*
X69270707Y-56875297D01*
X69233239Y-56876933D01*
X69229291Y-56875297D01*
X69196565Y-56860037D01*
X69160545Y-56843241D01*
X69160543Y-56843240D01*
X69160542Y-56843240D01*
X69131859Y-56839464D01*
X69113139Y-56837000D01*
X69113136Y-56837000D01*
X68886865Y-56837000D01*
X68886860Y-56837001D01*
X68839454Y-56843240D01*
X68770707Y-56875297D01*
X68733239Y-56876933D01*
X68729291Y-56875297D01*
X68696565Y-56860037D01*
X68660545Y-56843241D01*
X68660543Y-56843240D01*
X68660542Y-56843240D01*
X68631859Y-56839464D01*
X68613139Y-56837000D01*
X68613136Y-56837000D01*
X68386865Y-56837000D01*
X68386860Y-56837001D01*
X68339454Y-56843240D01*
X68270707Y-56875297D01*
X68233239Y-56876933D01*
X68229291Y-56875297D01*
X68196565Y-56860037D01*
X68160545Y-56843241D01*
X68160543Y-56843240D01*
X68160542Y-56843240D01*
X68131859Y-56839464D01*
X68113139Y-56837000D01*
X68113136Y-56837000D01*
X67886865Y-56837000D01*
X67886860Y-56837001D01*
X67839454Y-56843240D01*
X67770707Y-56875297D01*
X67733239Y-56876933D01*
X67729291Y-56875297D01*
X67696565Y-56860037D01*
X67660545Y-56843241D01*
X67660543Y-56843240D01*
X67660542Y-56843240D01*
X67631859Y-56839464D01*
X67613139Y-56837000D01*
X67613136Y-56837000D01*
X67386865Y-56837000D01*
X67386860Y-56837001D01*
X67339454Y-56843240D01*
X67270707Y-56875297D01*
X67233239Y-56876933D01*
X67229291Y-56875297D01*
X67196565Y-56860037D01*
X67160545Y-56843241D01*
X67160543Y-56843240D01*
X67160542Y-56843240D01*
X67131859Y-56839464D01*
X67113139Y-56837000D01*
X67113136Y-56837000D01*
X66886865Y-56837000D01*
X66886860Y-56837001D01*
X66839454Y-56843240D01*
X66770707Y-56875297D01*
X66733239Y-56876933D01*
X66729291Y-56875297D01*
X66696565Y-56860037D01*
X66660545Y-56843241D01*
X66660543Y-56843240D01*
X66660542Y-56843240D01*
X66631859Y-56839464D01*
X66613139Y-56837000D01*
X66613136Y-56837000D01*
X66386865Y-56837000D01*
X66386860Y-56837001D01*
X66339454Y-56843240D01*
X66235420Y-56891753D01*
X66235418Y-56891754D01*
X66154254Y-56972918D01*
X66154253Y-56972920D01*
X66105742Y-57076952D01*
X66105741Y-57076953D01*
X66099500Y-57124364D01*
X66099500Y-58525632D01*
X66099501Y-58525638D01*
X66105740Y-58573045D01*
X66154253Y-58677079D01*
X66154254Y-58677081D01*
X66235418Y-58758245D01*
X66235420Y-58758246D01*
X66235421Y-58758247D01*
X66339455Y-58806759D01*
X66386861Y-58813000D01*
X66613138Y-58812999D01*
X66660545Y-58806759D01*
X66729293Y-58774700D01*
X66766759Y-58773065D01*
X66770692Y-58774694D01*
X66839455Y-58806759D01*
X66886861Y-58813000D01*
X67113138Y-58812999D01*
X67160545Y-58806759D01*
X67229293Y-58774700D01*
X67266759Y-58773065D01*
X67270692Y-58774694D01*
X67339455Y-58806759D01*
X67386861Y-58813000D01*
X67600500Y-58812999D01*
X67635148Y-58827351D01*
X67649500Y-58861999D01*
X67649500Y-59295543D01*
X67635148Y-59330191D01*
X67600500Y-59344543D01*
X67565852Y-59330191D01*
X67443343Y-59207682D01*
X67294122Y-59115642D01*
X67127693Y-59060493D01*
X67024981Y-59050000D01*
X66750000Y-59050000D01*
X66750000Y-61049999D01*
X67024980Y-61049999D01*
X67127693Y-61039506D01*
X67294122Y-60984357D01*
X67443343Y-60892317D01*
X67565852Y-60769809D01*
X67600500Y-60755457D01*
X67635148Y-60769809D01*
X67649500Y-60804457D01*
X67649500Y-65721146D01*
X67664191Y-65775973D01*
X67673385Y-65810285D01*
X67673386Y-65810289D01*
X67696125Y-65849674D01*
X67719530Y-65890212D01*
X69084788Y-67255470D01*
X69085521Y-67255893D01*
X69164709Y-67301613D01*
X69164711Y-67301613D01*
X69164712Y-67301614D01*
X69179592Y-67305601D01*
X69253853Y-67325500D01*
X69253856Y-67325500D01*
X69253857Y-67325500D01*
X69334317Y-67325500D01*
X69361538Y-67333757D01*
X69402260Y-67360966D01*
X69475326Y-67375500D01*
X71035522Y-67375500D01*
X71070170Y-67389852D01*
X71084522Y-67424500D01*
X71070170Y-67459148D01*
X67276601Y-71252715D01*
X67241953Y-71267067D01*
X67232393Y-71266125D01*
X67098544Y-71239500D01*
X67098541Y-71239500D01*
X66901459Y-71239500D01*
X66901455Y-71239500D01*
X66708172Y-71277947D01*
X66708163Y-71277949D01*
X66526089Y-71353366D01*
X66362218Y-71462860D01*
X66222860Y-71602218D01*
X66113366Y-71766089D01*
X66037949Y-71948163D01*
X66037947Y-71948172D01*
X65999500Y-72141455D01*
X56000500Y-72141455D01*
X56000500Y-58475322D01*
X57749500Y-58475322D01*
X57749500Y-61724677D01*
X57764033Y-61797739D01*
X57819398Y-61880601D01*
X57897345Y-61932682D01*
X57902260Y-61935966D01*
X57975326Y-61950500D01*
X58100500Y-61950500D01*
X58135148Y-61964852D01*
X58149500Y-61999500D01*
X58149500Y-65000500D01*
X58135148Y-65035148D01*
X58100500Y-65049500D01*
X57975322Y-65049500D01*
X57902260Y-65064033D01*
X57819398Y-65119398D01*
X57764033Y-65202260D01*
X57749500Y-65275322D01*
X57749500Y-68524677D01*
X57764033Y-68597739D01*
X57819398Y-68680601D01*
X57902260Y-68735966D01*
X57975326Y-68750500D01*
X59024674Y-68750500D01*
X59097740Y-68735966D01*
X59180601Y-68680601D01*
X59235966Y-68597740D01*
X59250500Y-68524674D01*
X59250500Y-65275326D01*
X59235966Y-65202260D01*
X59234238Y-65199674D01*
X59180601Y-65119398D01*
X59097739Y-65064033D01*
X59024677Y-65049500D01*
X59024674Y-65049500D01*
X58899500Y-65049500D01*
X58864852Y-65035148D01*
X58850500Y-65000500D01*
X58850500Y-61999500D01*
X58864852Y-61964852D01*
X58899500Y-61950500D01*
X59024674Y-61950500D01*
X59097740Y-61935966D01*
X59180601Y-61880601D01*
X59235966Y-61797740D01*
X59250500Y-61724674D01*
X59250500Y-59865478D01*
X59264852Y-59830830D01*
X60620360Y-58475322D01*
X61749500Y-58475322D01*
X61749500Y-61724677D01*
X61764033Y-61797739D01*
X61819398Y-61880601D01*
X61897345Y-61932682D01*
X61902260Y-61935966D01*
X61975326Y-61950500D01*
X63024674Y-61950500D01*
X63097740Y-61935966D01*
X63180601Y-61880601D01*
X63235966Y-61797740D01*
X63250500Y-61724674D01*
X63250500Y-60864478D01*
X63264852Y-60829830D01*
X63299500Y-60815478D01*
X63334148Y-60829830D01*
X65935148Y-63430830D01*
X65949500Y-63465478D01*
X65949500Y-63534522D01*
X65935148Y-63569170D01*
X63334148Y-66170170D01*
X63299500Y-66184522D01*
X63264852Y-66170170D01*
X63250500Y-66135522D01*
X63250500Y-65275326D01*
X63250499Y-65275322D01*
X63249985Y-65272740D01*
X63235966Y-65202260D01*
X63234238Y-65199674D01*
X63180601Y-65119398D01*
X63097739Y-65064033D01*
X63024677Y-65049500D01*
X63024674Y-65049500D01*
X61975326Y-65049500D01*
X61975322Y-65049500D01*
X61902260Y-65064033D01*
X61819398Y-65119398D01*
X61764033Y-65202260D01*
X61749500Y-65275322D01*
X61749500Y-68524677D01*
X61764033Y-68597739D01*
X61819398Y-68680601D01*
X61902260Y-68735966D01*
X61975326Y-68750500D01*
X63024674Y-68750500D01*
X63097740Y-68735966D01*
X63180601Y-68680601D01*
X63235966Y-68597740D01*
X63250500Y-68524674D01*
X63250500Y-67246121D01*
X63264852Y-67211473D01*
X63274998Y-67203687D01*
X63315212Y-67180470D01*
X66430830Y-64064852D01*
X66465478Y-64050500D01*
X66572477Y-64050500D01*
X66642480Y-64031742D01*
X66712485Y-64012984D01*
X66838015Y-63940509D01*
X66940509Y-63838015D01*
X67012984Y-63712485D01*
X67043259Y-63599500D01*
X67050500Y-63572477D01*
X67050500Y-63427522D01*
X67012984Y-63287516D01*
X67012983Y-63287512D01*
X66967035Y-63207930D01*
X66940509Y-63161985D01*
X66864852Y-63086328D01*
X66850500Y-63051680D01*
X66850500Y-62749499D01*
X66864852Y-62714851D01*
X66899500Y-62700499D01*
X67022878Y-62700499D01*
X67082478Y-62694092D01*
X67082479Y-62694091D01*
X67082483Y-62694091D01*
X67217331Y-62643796D01*
X67332546Y-62557546D01*
X67418796Y-62442331D01*
X67469091Y-62307483D01*
X67469091Y-62307481D01*
X67469092Y-62307479D01*
X67473040Y-62270750D01*
X67475500Y-62247873D01*
X67475499Y-61652128D01*
X67475499Y-61652127D01*
X67475499Y-61652120D01*
X67469092Y-61592521D01*
X67469091Y-61592517D01*
X67418796Y-61457669D01*
X67406642Y-61441434D01*
X67396228Y-61427522D01*
X67332546Y-61342454D01*
X67259153Y-61287512D01*
X67217333Y-61256205D01*
X67217331Y-61256204D01*
X67172381Y-61239439D01*
X67082479Y-61205907D01*
X67022879Y-61199500D01*
X65977120Y-61199500D01*
X65917521Y-61205907D01*
X65782666Y-61256205D01*
X65667454Y-61342454D01*
X65581205Y-61457666D01*
X65530907Y-61592520D01*
X65524500Y-61652120D01*
X65524500Y-61910522D01*
X65510148Y-61945170D01*
X65475500Y-61959522D01*
X65440852Y-61945170D01*
X63845662Y-60349980D01*
X65275001Y-60349980D01*
X65285493Y-60452693D01*
X65340642Y-60619122D01*
X65432682Y-60768343D01*
X65556656Y-60892317D01*
X65705877Y-60984357D01*
X65872306Y-61039506D01*
X65975018Y-61049999D01*
X66249999Y-61049999D01*
X66250000Y-61049998D01*
X66250000Y-60300000D01*
X65275001Y-60300000D01*
X65275001Y-60349980D01*
X63845662Y-60349980D01*
X63315215Y-59819533D01*
X63315212Y-59819530D01*
X63315208Y-59819528D01*
X63315206Y-59819526D01*
X63275000Y-59796313D01*
X63270969Y-59791059D01*
X63264852Y-59788526D01*
X63259956Y-59776707D01*
X63252170Y-59766560D01*
X63250500Y-59753878D01*
X63250500Y-59750018D01*
X65275000Y-59750018D01*
X65275000Y-59800000D01*
X66250000Y-59800000D01*
X66250000Y-59050000D01*
X65975019Y-59050000D01*
X65872306Y-59060493D01*
X65705877Y-59115642D01*
X65556656Y-59207682D01*
X65432682Y-59331656D01*
X65340642Y-59480877D01*
X65285493Y-59647306D01*
X65275000Y-59750018D01*
X63250500Y-59750018D01*
X63250500Y-58475326D01*
X63250499Y-58475322D01*
X63243974Y-58442521D01*
X63235966Y-58402260D01*
X63180601Y-58319398D01*
X63097739Y-58264033D01*
X63024677Y-58249500D01*
X63024674Y-58249500D01*
X61975326Y-58249500D01*
X61975322Y-58249500D01*
X61902260Y-58264033D01*
X61819398Y-58319398D01*
X61764033Y-58402260D01*
X61749500Y-58475322D01*
X60620360Y-58475322D01*
X61230469Y-57865213D01*
X61230470Y-57865212D01*
X61276614Y-57785288D01*
X61295956Y-57713101D01*
X61300500Y-57696144D01*
X61300500Y-55505716D01*
X61314852Y-55471068D01*
X61332372Y-55459807D01*
X61442331Y-55418796D01*
X61557546Y-55332546D01*
X61643796Y-55217331D01*
X61694091Y-55082483D01*
X61694091Y-55082481D01*
X61694092Y-55082479D01*
X61698810Y-55038589D01*
X61700500Y-55022873D01*
X61700499Y-54311999D01*
X61714851Y-54277352D01*
X61749499Y-54263000D01*
X64050500Y-54263000D01*
X64085148Y-54277352D01*
X64099500Y-54312000D01*
X64099500Y-54338328D01*
X64085148Y-54372976D01*
X64080330Y-54377202D01*
X64014903Y-54427406D01*
X63922738Y-54547518D01*
X63922735Y-54547523D01*
X63864799Y-54687395D01*
X63854911Y-54762500D01*
X64233679Y-54762500D01*
X64254386Y-54767090D01*
X64339455Y-54806759D01*
X64386861Y-54813000D01*
X65038501Y-54812999D01*
X65073148Y-54827351D01*
X65087500Y-54861999D01*
X65087500Y-54963000D01*
X65073148Y-54997648D01*
X65038500Y-55012000D01*
X64386867Y-55012000D01*
X64386861Y-55012001D01*
X64339454Y-55018240D01*
X64279885Y-55046019D01*
X64254386Y-55057909D01*
X64233679Y-55062500D01*
X63854912Y-55062500D01*
X63864799Y-55137604D01*
X63922735Y-55277476D01*
X63922738Y-55277481D01*
X64014902Y-55397592D01*
X64080329Y-55447795D01*
X64099081Y-55480274D01*
X64099500Y-55486669D01*
X64099500Y-55525633D01*
X64099501Y-55525639D01*
X64105740Y-55573045D01*
X64137797Y-55641792D01*
X64139433Y-55679259D01*
X64137797Y-55683207D01*
X64105741Y-55751953D01*
X64105740Y-55751958D01*
X64099500Y-55799362D01*
X64099500Y-56025634D01*
X64099501Y-56025639D01*
X64105740Y-56073045D01*
X64137797Y-56141792D01*
X64139433Y-56179259D01*
X64137797Y-56183207D01*
X64105741Y-56251953D01*
X64105740Y-56251958D01*
X64099500Y-56299362D01*
X64099500Y-56525634D01*
X64099501Y-56525639D01*
X64105740Y-56573045D01*
X64154253Y-56677079D01*
X64154254Y-56677081D01*
X64235418Y-56758245D01*
X64235420Y-56758246D01*
X64235421Y-56758247D01*
X64339455Y-56806759D01*
X64386861Y-56813000D01*
X65788138Y-56812999D01*
X65835545Y-56806759D01*
X65939579Y-56758247D01*
X66020747Y-56677079D01*
X66069259Y-56573045D01*
X66075500Y-56525639D01*
X66075499Y-56299362D01*
X66069259Y-56251955D01*
X66037200Y-56183206D01*
X66035565Y-56145741D01*
X66037201Y-56141792D01*
X66069259Y-56073045D01*
X66075500Y-56025639D01*
X66075499Y-55799362D01*
X66069259Y-55751955D01*
X66037200Y-55683206D01*
X66035565Y-55645741D01*
X66037201Y-55641792D01*
X66069259Y-55573045D01*
X66075500Y-55525639D01*
X66075499Y-55486669D01*
X66089850Y-55452023D01*
X66094670Y-55447795D01*
X66160097Y-55397592D01*
X66252261Y-55277481D01*
X66252264Y-55277476D01*
X66310200Y-55137604D01*
X66317981Y-55078498D01*
X66336732Y-55046019D01*
X66372957Y-55036312D01*
X66379241Y-55037562D01*
X66395157Y-55041827D01*
X66427523Y-55050500D01*
X66427525Y-55050500D01*
X66572477Y-55050500D01*
X66665260Y-55025638D01*
X66712485Y-55012984D01*
X66714190Y-55012000D01*
X66729304Y-55003273D01*
X66838015Y-54940509D01*
X66940509Y-54838015D01*
X67012984Y-54712485D01*
X67038305Y-54617988D01*
X67050500Y-54572477D01*
X67050500Y-54427522D01*
X67012984Y-54287516D01*
X67012983Y-54287512D01*
X66967035Y-54207930D01*
X66940509Y-54161985D01*
X66838015Y-54059491D01*
X66830990Y-54055435D01*
X66712487Y-53987016D01*
X66712483Y-53987015D01*
X66572478Y-53949500D01*
X66572475Y-53949500D01*
X66427525Y-53949500D01*
X66427522Y-53949500D01*
X66287516Y-53987015D01*
X66287512Y-53987016D01*
X66194529Y-54040701D01*
X66169009Y-54055435D01*
X66144511Y-54062000D01*
X66124500Y-54062000D01*
X66089852Y-54047648D01*
X66075500Y-54013000D01*
X66075499Y-53799365D01*
X66075499Y-53799362D01*
X66069259Y-53751955D01*
X66037200Y-53683206D01*
X66035565Y-53645741D01*
X66037201Y-53641792D01*
X66069259Y-53573045D01*
X66075500Y-53525639D01*
X66075499Y-53299362D01*
X66069259Y-53251955D01*
X66037200Y-53183206D01*
X66035565Y-53145741D01*
X66037201Y-53141792D01*
X66069259Y-53073045D01*
X66075500Y-53025639D01*
X66075499Y-52799362D01*
X66069259Y-52751955D01*
X66037200Y-52683206D01*
X66035565Y-52645741D01*
X66037201Y-52641792D01*
X66069259Y-52573045D01*
X66075500Y-52525639D01*
X66075499Y-52299362D01*
X66069259Y-52251955D01*
X66037200Y-52183206D01*
X66035565Y-52145741D01*
X66037201Y-52141792D01*
X66069259Y-52073045D01*
X66075500Y-52025639D01*
X66075499Y-51799362D01*
X66069259Y-51751955D01*
X66037200Y-51683206D01*
X66035565Y-51645741D01*
X66037201Y-51641792D01*
X66069259Y-51573045D01*
X66075500Y-51525639D01*
X66075499Y-51486669D01*
X66089850Y-51452023D01*
X66094670Y-51447795D01*
X66160097Y-51397592D01*
X66252261Y-51277481D01*
X66252264Y-51277476D01*
X66310200Y-51137604D01*
X66320088Y-51062500D01*
X65941321Y-51062500D01*
X65920613Y-51057909D01*
X65919541Y-51057409D01*
X65835546Y-51018241D01*
X65826063Y-51016992D01*
X65788139Y-51012000D01*
X65788135Y-51012000D01*
X64386867Y-51012000D01*
X64386861Y-51012001D01*
X64339454Y-51018240D01*
X64275515Y-51048056D01*
X64254386Y-51057909D01*
X64233679Y-51062500D01*
X63854912Y-51062500D01*
X63864799Y-51137604D01*
X63922735Y-51277476D01*
X63922738Y-51277481D01*
X64014902Y-51397592D01*
X64080329Y-51447795D01*
X64099081Y-51480274D01*
X64099500Y-51486669D01*
X64099500Y-51525633D01*
X64099501Y-51525639D01*
X64105740Y-51573045D01*
X64137797Y-51641792D01*
X64139433Y-51679259D01*
X64137797Y-51683207D01*
X64105741Y-51751953D01*
X64105740Y-51751958D01*
X64099500Y-51799362D01*
X64099500Y-52025634D01*
X64099501Y-52025639D01*
X64105740Y-52073045D01*
X64137797Y-52141792D01*
X64139433Y-52179259D01*
X64137797Y-52183207D01*
X64105741Y-52251953D01*
X64105740Y-52251958D01*
X64099500Y-52299362D01*
X64099500Y-52525634D01*
X64099501Y-52525639D01*
X64105740Y-52573045D01*
X64137797Y-52641792D01*
X64139433Y-52679259D01*
X64137797Y-52683207D01*
X64105741Y-52751953D01*
X64105740Y-52751958D01*
X64099500Y-52799362D01*
X64099500Y-53025634D01*
X64099501Y-53025639D01*
X64105740Y-53073045D01*
X64137797Y-53141792D01*
X64139433Y-53179259D01*
X64137797Y-53183207D01*
X64105741Y-53251953D01*
X64105740Y-53251958D01*
X64099500Y-53299362D01*
X64099500Y-53299364D01*
X64099501Y-53513000D01*
X64085149Y-53547648D01*
X64050501Y-53562000D01*
X61491355Y-53562000D01*
X61447990Y-53573618D01*
X61418187Y-53572198D01*
X61307480Y-53530908D01*
X61307478Y-53530907D01*
X61247879Y-53524500D01*
X60652120Y-53524500D01*
X60592521Y-53530907D01*
X60457666Y-53581205D01*
X60342454Y-53667454D01*
X60256205Y-53782666D01*
X60205907Y-53917520D01*
X60199500Y-53977120D01*
X60199500Y-55022879D01*
X60205907Y-55082478D01*
X60205909Y-55082483D01*
X60251437Y-55204551D01*
X60256205Y-55217333D01*
X60282126Y-55251958D01*
X60342454Y-55332546D01*
X60419406Y-55390152D01*
X60457667Y-55418795D01*
X60457668Y-55418795D01*
X60457669Y-55418796D01*
X60567625Y-55459806D01*
X60595072Y-55485360D01*
X60599500Y-55505716D01*
X60599500Y-57484522D01*
X60585148Y-57519170D01*
X59334148Y-58770170D01*
X59299500Y-58784522D01*
X59264852Y-58770170D01*
X59250500Y-58735522D01*
X59250500Y-58475326D01*
X59250499Y-58475322D01*
X59243974Y-58442521D01*
X59235966Y-58402260D01*
X59180601Y-58319398D01*
X59097739Y-58264033D01*
X59024677Y-58249500D01*
X59024674Y-58249500D01*
X57975326Y-58249500D01*
X57975322Y-58249500D01*
X57902260Y-58264033D01*
X57819398Y-58319398D01*
X57764033Y-58402260D01*
X57749500Y-58475322D01*
X56000500Y-58475322D01*
X56000500Y-54427522D01*
X56949500Y-54427522D01*
X56949500Y-54572477D01*
X56987015Y-54712483D01*
X56987016Y-54712487D01*
X57053334Y-54827351D01*
X57059491Y-54838015D01*
X57161985Y-54940509D01*
X57207930Y-54967035D01*
X57287512Y-55012983D01*
X57287514Y-55012983D01*
X57287515Y-55012984D01*
X57312352Y-55019639D01*
X57427522Y-55050500D01*
X57427525Y-55050500D01*
X57572477Y-55050500D01*
X57665260Y-55025638D01*
X57712485Y-55012984D01*
X57714190Y-55012000D01*
X57729304Y-55003273D01*
X57838015Y-54940509D01*
X57913672Y-54864852D01*
X57948320Y-54850500D01*
X58250501Y-54850500D01*
X58285149Y-54864852D01*
X58299501Y-54899500D01*
X58299501Y-55022879D01*
X58305907Y-55082478D01*
X58305909Y-55082483D01*
X58351437Y-55204551D01*
X58356205Y-55217333D01*
X58382126Y-55251958D01*
X58442454Y-55332546D01*
X58557669Y-55418796D01*
X58692517Y-55469091D01*
X58692520Y-55469092D01*
X58736177Y-55473785D01*
X58752127Y-55475500D01*
X59347872Y-55475499D01*
X59347878Y-55475499D01*
X59407478Y-55469092D01*
X59407479Y-55469091D01*
X59407483Y-55469091D01*
X59542331Y-55418796D01*
X59657546Y-55332546D01*
X59743796Y-55217331D01*
X59794091Y-55082483D01*
X59794091Y-55082481D01*
X59794092Y-55082479D01*
X59798810Y-55038589D01*
X59800500Y-55022873D01*
X59800499Y-53977128D01*
X59800499Y-53977127D01*
X59800499Y-53977120D01*
X59794092Y-53917521D01*
X59772315Y-53859133D01*
X59743796Y-53782669D01*
X59733253Y-53768586D01*
X59719070Y-53749639D01*
X59657546Y-53667454D01*
X59573742Y-53604718D01*
X59542333Y-53581205D01*
X59542331Y-53581204D01*
X59452363Y-53547648D01*
X59407479Y-53530907D01*
X59347879Y-53524500D01*
X58752120Y-53524500D01*
X58692521Y-53530907D01*
X58557666Y-53581205D01*
X58442454Y-53667454D01*
X58356205Y-53782666D01*
X58305907Y-53917520D01*
X58299500Y-53977120D01*
X58299500Y-54100500D01*
X58285148Y-54135148D01*
X58250500Y-54149500D01*
X57948320Y-54149500D01*
X57913672Y-54135148D01*
X57838015Y-54059491D01*
X57712487Y-53987016D01*
X57712483Y-53987015D01*
X57572478Y-53949500D01*
X57572475Y-53949500D01*
X57427525Y-53949500D01*
X57427522Y-53949500D01*
X57287516Y-53987015D01*
X57287512Y-53987016D01*
X57161984Y-54059491D01*
X57161984Y-54059492D01*
X57059492Y-54161984D01*
X57059491Y-54161984D01*
X56987016Y-54287512D01*
X56987015Y-54287516D01*
X56949500Y-54427522D01*
X56000500Y-54427522D01*
X56000500Y-51249980D01*
X57275001Y-51249980D01*
X57285493Y-51352693D01*
X57340642Y-51519122D01*
X57432682Y-51668343D01*
X57556656Y-51792317D01*
X57705877Y-51884357D01*
X57872306Y-51939506D01*
X57975018Y-51949999D01*
X58249999Y-51949999D01*
X58750000Y-51949999D01*
X59024980Y-51949999D01*
X59127693Y-51939506D01*
X59294122Y-51884357D01*
X59443343Y-51792317D01*
X59567317Y-51668343D01*
X59659357Y-51519122D01*
X59714506Y-51352693D01*
X59725000Y-51249981D01*
X59725000Y-51200000D01*
X58750000Y-51200000D01*
X58750000Y-51949999D01*
X58249999Y-51949999D01*
X58250000Y-51949998D01*
X58250000Y-51200000D01*
X57275001Y-51200000D01*
X57275001Y-51249980D01*
X56000500Y-51249980D01*
X56000500Y-51199980D01*
X60775001Y-51199980D01*
X60785493Y-51302693D01*
X60840642Y-51469122D01*
X60932682Y-51618343D01*
X61056656Y-51742317D01*
X61205877Y-51834357D01*
X61372306Y-51889506D01*
X61475018Y-51899999D01*
X61749999Y-51899999D01*
X62250000Y-51899999D01*
X62524980Y-51899999D01*
X62627693Y-51889506D01*
X62794122Y-51834357D01*
X62943343Y-51742317D01*
X63067317Y-51618343D01*
X63159357Y-51469122D01*
X63214506Y-51302693D01*
X63225000Y-51199981D01*
X63225000Y-51150000D01*
X62250000Y-51150000D01*
X62250000Y-51899999D01*
X61749999Y-51899999D01*
X61750000Y-51899998D01*
X61750000Y-51150000D01*
X60775001Y-51150000D01*
X60775001Y-51199980D01*
X56000500Y-51199980D01*
X56000500Y-50762500D01*
X63854911Y-50762500D01*
X64937500Y-50762500D01*
X64937500Y-50262500D01*
X64387312Y-50262500D01*
X64274895Y-50277299D01*
X64135023Y-50335235D01*
X64135018Y-50335238D01*
X64014905Y-50427404D01*
X64014904Y-50427405D01*
X63922738Y-50547518D01*
X63922735Y-50547523D01*
X63864799Y-50687395D01*
X63854911Y-50762500D01*
X56000500Y-50762500D01*
X56000500Y-50650018D01*
X57275000Y-50650018D01*
X57275000Y-50700000D01*
X58250000Y-50700000D01*
X58750000Y-50700000D01*
X59724999Y-50700000D01*
X59724999Y-50650018D01*
X59720273Y-50603753D01*
X59719891Y-50600018D01*
X60775000Y-50600018D01*
X60775000Y-50650000D01*
X61750000Y-50650000D01*
X62250000Y-50650000D01*
X63224999Y-50650000D01*
X63224999Y-50600019D01*
X63214506Y-50497306D01*
X63159357Y-50330877D01*
X63067317Y-50181656D01*
X62943343Y-50057682D01*
X62794122Y-49965642D01*
X62627693Y-49910493D01*
X62524981Y-49900000D01*
X62250000Y-49900000D01*
X62250000Y-50650000D01*
X61750000Y-50650000D01*
X61750000Y-49900000D01*
X61475019Y-49900000D01*
X61372306Y-49910493D01*
X61205877Y-49965642D01*
X61056656Y-50057682D01*
X60932682Y-50181656D01*
X60840642Y-50330877D01*
X60785493Y-50497306D01*
X60775000Y-50600018D01*
X59719891Y-50600018D01*
X59714506Y-50547306D01*
X59659357Y-50380877D01*
X59567317Y-50231656D01*
X59443343Y-50107682D01*
X59294122Y-50015642D01*
X59127693Y-49960493D01*
X59024981Y-49950000D01*
X58750000Y-49950000D01*
X58750000Y-50700000D01*
X58250000Y-50700000D01*
X58250000Y-49950000D01*
X57975019Y-49950000D01*
X57872306Y-49960493D01*
X57705877Y-50015642D01*
X57556656Y-50107682D01*
X57432682Y-50231656D01*
X57340642Y-50380877D01*
X57285493Y-50547306D01*
X57275000Y-50650018D01*
X56000500Y-50650018D01*
X56000500Y-48752120D01*
X57524500Y-48752120D01*
X57524500Y-49347879D01*
X57530907Y-49407478D01*
X57530909Y-49407483D01*
X57568747Y-49508933D01*
X57581205Y-49542333D01*
X57595928Y-49562000D01*
X57667454Y-49657546D01*
X57782669Y-49743796D01*
X57912761Y-49792317D01*
X57917520Y-49794092D01*
X57961177Y-49798785D01*
X57977127Y-49800500D01*
X59022872Y-49800499D01*
X59022878Y-49800499D01*
X59082478Y-49794092D01*
X59082479Y-49794091D01*
X59082483Y-49794091D01*
X59217331Y-49743796D01*
X59332546Y-49657546D01*
X59418796Y-49542331D01*
X59469091Y-49407483D01*
X59469091Y-49407481D01*
X59469092Y-49407479D01*
X59474467Y-49357478D01*
X59475500Y-49347873D01*
X59475499Y-48752128D01*
X59475499Y-48752127D01*
X59475499Y-48752120D01*
X59470547Y-48706052D01*
X59470124Y-48702120D01*
X61024500Y-48702120D01*
X61024500Y-49297879D01*
X61030907Y-49357478D01*
X61030909Y-49357483D01*
X61081204Y-49492331D01*
X61167454Y-49607546D01*
X61248668Y-49668343D01*
X61263844Y-49679704D01*
X61282669Y-49693796D01*
X61416721Y-49743794D01*
X61417520Y-49744092D01*
X61461177Y-49748785D01*
X61477127Y-49750500D01*
X62522872Y-49750499D01*
X62522878Y-49750499D01*
X62582478Y-49744092D01*
X62582479Y-49744091D01*
X62582483Y-49744091D01*
X62717331Y-49693796D01*
X62832546Y-49607546D01*
X62918796Y-49492331D01*
X62969091Y-49357483D01*
X62969091Y-49357481D01*
X62969092Y-49357479D01*
X62975500Y-49297879D01*
X62975500Y-49249980D01*
X63275001Y-49249980D01*
X63285493Y-49352693D01*
X63340642Y-49519122D01*
X63432682Y-49668343D01*
X63556656Y-49792317D01*
X63705877Y-49884357D01*
X63872306Y-49939506D01*
X63975018Y-49949999D01*
X64249999Y-49949999D01*
X64750000Y-49949999D01*
X65024980Y-49949999D01*
X65127693Y-49939506D01*
X65294122Y-49884357D01*
X65443343Y-49792317D01*
X65567317Y-49668343D01*
X65659357Y-49519122D01*
X65714506Y-49352693D01*
X65725000Y-49249981D01*
X65725000Y-49200000D01*
X64750000Y-49200000D01*
X64750000Y-49949999D01*
X64249999Y-49949999D01*
X64250000Y-49949998D01*
X64250000Y-49200000D01*
X63275001Y-49200000D01*
X63275001Y-49249980D01*
X62975500Y-49249980D01*
X62975500Y-49179704D01*
X62975499Y-48799812D01*
X65850000Y-48799812D01*
X65850000Y-49350000D01*
X66350000Y-49350000D01*
X66350000Y-48267411D01*
X66274895Y-48277299D01*
X66135023Y-48335235D01*
X66135018Y-48335238D01*
X66014905Y-48427404D01*
X66014904Y-48427405D01*
X65922738Y-48547518D01*
X65922735Y-48547523D01*
X65864799Y-48687395D01*
X65850000Y-48799812D01*
X62975499Y-48799812D01*
X62975499Y-48798206D01*
X62975499Y-48702121D01*
X62970327Y-48654012D01*
X62970327Y-48654010D01*
X62969898Y-48650018D01*
X63275000Y-48650018D01*
X63275000Y-48700000D01*
X64250000Y-48700000D01*
X64750000Y-48700000D01*
X65724999Y-48700000D01*
X65724999Y-48650019D01*
X65714506Y-48547306D01*
X65659357Y-48380877D01*
X65567317Y-48231656D01*
X65443343Y-48107682D01*
X65294122Y-48015642D01*
X65127693Y-47960493D01*
X65024981Y-47950000D01*
X64750000Y-47950000D01*
X64750000Y-48700000D01*
X64250000Y-48700000D01*
X64250000Y-47950000D01*
X63975019Y-47950000D01*
X63872306Y-47960493D01*
X63705877Y-48015642D01*
X63556656Y-48107682D01*
X63432682Y-48231656D01*
X63340642Y-48380877D01*
X63285493Y-48547306D01*
X63275000Y-48650018D01*
X62969898Y-48650018D01*
X62969092Y-48642521D01*
X62969091Y-48642517D01*
X62918796Y-48507669D01*
X62909310Y-48494998D01*
X62869976Y-48442454D01*
X62832546Y-48392454D01*
X62756111Y-48335235D01*
X62717333Y-48306205D01*
X62717331Y-48306204D01*
X62651689Y-48281721D01*
X62582479Y-48255907D01*
X62522879Y-48249500D01*
X62522873Y-48249500D01*
X62399500Y-48249500D01*
X62364852Y-48235148D01*
X62350500Y-48200500D01*
X62350500Y-47448320D01*
X62364852Y-47413672D01*
X62440508Y-47338016D01*
X62440509Y-47338015D01*
X62509453Y-47218601D01*
X62512983Y-47212487D01*
X62512983Y-47212486D01*
X62512984Y-47212485D01*
X62539009Y-47115360D01*
X62550500Y-47072477D01*
X62550500Y-46927522D01*
X62517912Y-46805907D01*
X62512984Y-46787515D01*
X62492549Y-46752120D01*
X63524500Y-46752120D01*
X63524500Y-47347879D01*
X63530907Y-47407478D01*
X63530909Y-47407483D01*
X63581204Y-47542331D01*
X63667454Y-47657546D01*
X63782669Y-47743796D01*
X63917163Y-47793959D01*
X63917520Y-47794092D01*
X63961177Y-47798785D01*
X63977127Y-47800500D01*
X65022872Y-47800499D01*
X65022878Y-47800499D01*
X65082478Y-47794092D01*
X65082479Y-47794091D01*
X65082483Y-47794091D01*
X65217331Y-47743796D01*
X65332546Y-47657546D01*
X65418796Y-47542331D01*
X65469091Y-47407483D01*
X65469091Y-47407481D01*
X65469092Y-47407479D01*
X65475499Y-47347880D01*
X65475499Y-47347879D01*
X65475500Y-47347873D01*
X65475499Y-47338489D01*
X65489848Y-47303842D01*
X65524494Y-47289487D01*
X65559144Y-47303836D01*
X65570409Y-47321363D01*
X65606202Y-47417328D01*
X65606204Y-47417332D01*
X65625204Y-47442712D01*
X65692454Y-47532546D01*
X65784934Y-47601776D01*
X65792062Y-47607113D01*
X65807669Y-47618796D01*
X65942517Y-47669091D01*
X65942520Y-47669092D01*
X65986177Y-47673785D01*
X66002127Y-47675500D01*
X66929431Y-47675499D01*
X66964079Y-47689851D01*
X67711550Y-48437322D01*
X67725902Y-48471970D01*
X67711550Y-48506618D01*
X67676902Y-48520970D01*
X67663185Y-48519011D01*
X67660545Y-48518241D01*
X67660543Y-48518240D01*
X67660541Y-48518240D01*
X67634697Y-48514838D01*
X67613139Y-48512000D01*
X67613136Y-48512000D01*
X67386865Y-48512000D01*
X67386860Y-48512001D01*
X67339454Y-48518240D01*
X67270707Y-48550297D01*
X67233239Y-48551933D01*
X67229291Y-48550297D01*
X67174435Y-48524718D01*
X67160545Y-48518241D01*
X67160543Y-48518240D01*
X67160542Y-48518240D01*
X67127511Y-48513892D01*
X67113139Y-48512000D01*
X67113137Y-48512000D01*
X67074171Y-48512000D01*
X67039523Y-48497648D01*
X67035297Y-48492829D01*
X66985095Y-48427405D01*
X66985094Y-48427404D01*
X66864981Y-48335238D01*
X66864976Y-48335235D01*
X66725104Y-48277299D01*
X66650000Y-48267411D01*
X66650000Y-48646178D01*
X66645409Y-48666886D01*
X66605742Y-48751951D01*
X66605741Y-48751953D01*
X66605741Y-48751955D01*
X66599500Y-48799361D01*
X66599500Y-49451001D01*
X66585149Y-49485648D01*
X66550501Y-49500000D01*
X66500000Y-49500000D01*
X66500000Y-49601000D01*
X66485648Y-49635648D01*
X66451000Y-49650000D01*
X65850000Y-49650000D01*
X65850000Y-50200189D01*
X65851112Y-50208636D01*
X65841405Y-50244861D01*
X65808926Y-50263612D01*
X65796136Y-50263612D01*
X65787689Y-50262500D01*
X65237500Y-50262500D01*
X65237500Y-50762500D01*
X66320087Y-50762500D01*
X66329431Y-50751845D01*
X66363066Y-50735257D01*
X66372671Y-50735572D01*
X66387305Y-50737499D01*
X66387312Y-50737500D01*
X66436560Y-50737500D01*
X66471208Y-50751852D01*
X66485560Y-50786500D01*
X66483890Y-50799179D01*
X66467870Y-50858965D01*
X66449500Y-50927523D01*
X66449500Y-51072477D01*
X66487015Y-51212483D01*
X66487016Y-51212487D01*
X66548589Y-51319132D01*
X66559491Y-51338015D01*
X66661985Y-51440509D01*
X66674605Y-51447795D01*
X66787512Y-51512983D01*
X66787514Y-51512983D01*
X66787515Y-51512984D01*
X66810422Y-51519122D01*
X66927522Y-51550500D01*
X66927525Y-51550500D01*
X67072477Y-51550500D01*
X67165271Y-51525635D01*
X67212485Y-51512984D01*
X67338015Y-51440509D01*
X67440509Y-51338015D01*
X67512984Y-51212485D01*
X67533049Y-51137604D01*
X67550500Y-51072477D01*
X67550500Y-50927522D01*
X67512984Y-50787516D01*
X67512983Y-50787512D01*
X67462457Y-50700000D01*
X67440509Y-50661985D01*
X67364852Y-50586328D01*
X67350500Y-50551680D01*
X67350500Y-50536999D01*
X67364852Y-50502351D01*
X67399497Y-50487999D01*
X67613138Y-50487999D01*
X67660545Y-50481759D01*
X67729293Y-50449700D01*
X67766759Y-50448065D01*
X67770692Y-50449694D01*
X67839455Y-50481759D01*
X67886861Y-50488000D01*
X68113138Y-50487999D01*
X68160545Y-50481759D01*
X68229293Y-50449700D01*
X68266759Y-50448065D01*
X68270692Y-50449694D01*
X68339455Y-50481759D01*
X68386861Y-50488000D01*
X68613138Y-50487999D01*
X68660545Y-50481759D01*
X68729293Y-50449700D01*
X68766759Y-50448065D01*
X68770692Y-50449694D01*
X68839455Y-50481759D01*
X68886861Y-50488000D01*
X69113138Y-50487999D01*
X69160545Y-50481759D01*
X69229293Y-50449700D01*
X69266759Y-50448065D01*
X69270692Y-50449694D01*
X69339455Y-50481759D01*
X69386861Y-50488000D01*
X69613138Y-50487999D01*
X69660545Y-50481759D01*
X69729293Y-50449700D01*
X69766759Y-50448065D01*
X69770692Y-50449694D01*
X69839455Y-50481759D01*
X69886861Y-50488000D01*
X70113138Y-50487999D01*
X70160545Y-50481759D01*
X70229293Y-50449700D01*
X70266759Y-50448065D01*
X70270692Y-50449694D01*
X70339455Y-50481759D01*
X70386861Y-50488000D01*
X70613138Y-50487999D01*
X70660545Y-50481759D01*
X70729293Y-50449700D01*
X70766759Y-50448065D01*
X70770692Y-50449694D01*
X70839455Y-50481759D01*
X70886861Y-50488000D01*
X71113138Y-50487999D01*
X71160545Y-50481759D01*
X71229293Y-50449700D01*
X71266759Y-50448065D01*
X71270692Y-50449694D01*
X71339455Y-50481759D01*
X71386861Y-50488000D01*
X71613138Y-50487999D01*
X71660545Y-50481759D01*
X71729293Y-50449700D01*
X71766759Y-50448065D01*
X71770692Y-50449694D01*
X71839455Y-50481759D01*
X71886861Y-50488000D01*
X72113138Y-50487999D01*
X72160545Y-50481759D01*
X72193409Y-50466433D01*
X72230875Y-50464798D01*
X72258526Y-50490134D01*
X72260162Y-50527601D01*
X72252993Y-50540670D01*
X72247738Y-50547519D01*
X72247735Y-50547523D01*
X72189799Y-50687395D01*
X72179911Y-50762500D01*
X73262500Y-50762500D01*
X73562500Y-50762500D01*
X74645088Y-50762500D01*
X74635200Y-50687395D01*
X74577264Y-50547523D01*
X74577261Y-50547518D01*
X74485095Y-50427405D01*
X74485094Y-50427404D01*
X74364981Y-50335238D01*
X74364976Y-50335235D01*
X74225104Y-50277299D01*
X74112688Y-50262500D01*
X73562500Y-50262500D01*
X73562500Y-50762500D01*
X73262500Y-50762500D01*
X73262500Y-50262500D01*
X72712312Y-50262500D01*
X72599895Y-50277299D01*
X72460023Y-50335235D01*
X72460019Y-50335238D01*
X72453169Y-50340494D01*
X72416944Y-50350198D01*
X72384466Y-50331445D01*
X72374762Y-50295220D01*
X72378930Y-50280915D01*
X72394259Y-50248045D01*
X72400500Y-50200639D01*
X72400499Y-49749980D01*
X74275001Y-49749980D01*
X74285493Y-49852693D01*
X74340642Y-50019122D01*
X74432682Y-50168343D01*
X74556656Y-50292317D01*
X74705877Y-50384357D01*
X74872306Y-50439506D01*
X74975018Y-50449999D01*
X75249999Y-50449999D01*
X75750000Y-50449999D01*
X76024980Y-50449999D01*
X76127693Y-50439506D01*
X76294122Y-50384357D01*
X76443343Y-50292317D01*
X76567317Y-50168343D01*
X76659357Y-50019122D01*
X76714506Y-49852693D01*
X76725000Y-49749981D01*
X76725000Y-49700000D01*
X75750000Y-49700000D01*
X75750000Y-50449999D01*
X75249999Y-50449999D01*
X75250000Y-50449998D01*
X75250000Y-49700000D01*
X74275001Y-49700000D01*
X74275001Y-49749980D01*
X72400499Y-49749980D01*
X72400499Y-49571559D01*
X72400499Y-49150018D01*
X74275000Y-49150018D01*
X74275000Y-49200000D01*
X75250000Y-49200000D01*
X75750000Y-49200000D01*
X76724999Y-49200000D01*
X76724999Y-49150019D01*
X76714506Y-49047306D01*
X76678949Y-48940000D01*
X77803086Y-48940000D01*
X77806066Y-48972796D01*
X77806068Y-48972805D01*
X77853927Y-49126393D01*
X77853927Y-49126394D01*
X77937160Y-49264076D01*
X78050923Y-49377839D01*
X78188605Y-49461072D01*
X78342198Y-49508933D01*
X78408960Y-49515000D01*
X79225000Y-49515000D01*
X79725000Y-49515000D01*
X80541040Y-49515000D01*
X80607801Y-49508933D01*
X80761393Y-49461072D01*
X80761394Y-49461072D01*
X80899076Y-49377839D01*
X81012839Y-49264076D01*
X81096072Y-49126394D01*
X81096072Y-49126393D01*
X81143931Y-48972805D01*
X81143933Y-48972796D01*
X81146914Y-48940000D01*
X79725000Y-48940000D01*
X79725000Y-49515000D01*
X79225000Y-49515000D01*
X79225000Y-48940000D01*
X77803086Y-48940000D01*
X76678949Y-48940000D01*
X76678394Y-48938326D01*
X76659357Y-48880877D01*
X76567317Y-48731656D01*
X76443343Y-48607682D01*
X76327625Y-48536306D01*
X76255129Y-48502721D01*
X76231822Y-48494998D01*
X87099500Y-48494998D01*
X87099500Y-48885000D01*
X87114817Y-48981712D01*
X87114817Y-48981713D01*
X87114818Y-48981715D01*
X87174211Y-49098281D01*
X87266719Y-49190789D01*
X87383285Y-49250182D01*
X87479997Y-49265500D01*
X88584521Y-49265499D01*
X88619169Y-49279851D01*
X88782288Y-49442970D01*
X88801959Y-49454327D01*
X88862209Y-49489113D01*
X88862211Y-49489113D01*
X88862212Y-49489114D01*
X88874226Y-49492333D01*
X88951353Y-49513000D01*
X88951356Y-49513000D01*
X92773745Y-49513000D01*
X92808393Y-49527352D01*
X92822745Y-49562000D01*
X92808393Y-49596648D01*
X92800968Y-49602742D01*
X92722218Y-49655360D01*
X92582860Y-49794718D01*
X92473366Y-49958589D01*
X92397949Y-50140663D01*
X92397947Y-50140672D01*
X92359500Y-50333955D01*
X92359500Y-50531044D01*
X92397947Y-50724327D01*
X92397949Y-50724336D01*
X92461226Y-50877101D01*
X92473368Y-50906414D01*
X92543918Y-51012000D01*
X92575650Y-51059491D01*
X92582861Y-51070282D01*
X92722218Y-51209639D01*
X92886086Y-51319132D01*
X93068165Y-51394551D01*
X93261459Y-51433000D01*
X93458541Y-51433000D01*
X93651835Y-51394551D01*
X93833914Y-51319132D01*
X93997782Y-51209639D01*
X94137139Y-51070282D01*
X94246632Y-50906414D01*
X94322051Y-50724335D01*
X94360500Y-50531041D01*
X94360500Y-50333959D01*
X94322051Y-50140665D01*
X94246632Y-49958586D01*
X94137139Y-49794718D01*
X93997782Y-49655361D01*
X93968279Y-49635648D01*
X93919032Y-49602742D01*
X93898197Y-49571559D01*
X93905513Y-49534777D01*
X93936696Y-49513942D01*
X93946255Y-49513000D01*
X94929508Y-49513000D01*
X94964156Y-49527352D01*
X94974778Y-49543249D01*
X95013366Y-49636410D01*
X95013368Y-49636414D01*
X95122861Y-49800282D01*
X95262218Y-49939639D01*
X95426086Y-50049132D01*
X95608165Y-50124551D01*
X95801459Y-50163000D01*
X95998541Y-50163000D01*
X96191835Y-50124551D01*
X96373914Y-50049132D01*
X96537782Y-49939639D01*
X96677139Y-49800282D01*
X96786632Y-49636414D01*
X96862051Y-49454335D01*
X96900500Y-49261041D01*
X96900500Y-49063959D01*
X96862051Y-48870665D01*
X96786632Y-48688586D01*
X96677139Y-48524718D01*
X96537782Y-48385361D01*
X96531071Y-48380877D01*
X96483650Y-48349191D01*
X96373914Y-48275868D01*
X96373911Y-48275866D01*
X96373910Y-48275866D01*
X96191836Y-48200449D01*
X96191827Y-48200447D01*
X95998544Y-48162000D01*
X95998541Y-48162000D01*
X95801459Y-48162000D01*
X95801455Y-48162000D01*
X95608172Y-48200447D01*
X95608163Y-48200449D01*
X95426089Y-48275866D01*
X95262218Y-48385360D01*
X95122860Y-48524718D01*
X95013366Y-48688589D01*
X94974778Y-48781751D01*
X94948260Y-48808270D01*
X94929508Y-48812000D01*
X93946255Y-48812000D01*
X93911607Y-48797648D01*
X93897255Y-48763000D01*
X93911607Y-48728352D01*
X93919032Y-48722258D01*
X93943286Y-48706052D01*
X93997782Y-48669639D01*
X94137139Y-48530282D01*
X94246632Y-48366414D01*
X94322051Y-48184335D01*
X94360500Y-47991041D01*
X94360500Y-47793959D01*
X94322051Y-47600665D01*
X94246632Y-47418586D01*
X94137139Y-47254718D01*
X93997782Y-47115361D01*
X93833914Y-47005868D01*
X93833911Y-47005866D01*
X93833910Y-47005866D01*
X93651836Y-46930449D01*
X93651827Y-46930447D01*
X93458544Y-46892000D01*
X93458541Y-46892000D01*
X93261459Y-46892000D01*
X93261455Y-46892000D01*
X93068172Y-46930447D01*
X93068163Y-46930449D01*
X92886089Y-47005866D01*
X92722218Y-47115360D01*
X92582860Y-47254718D01*
X92473366Y-47418589D01*
X92397949Y-47600663D01*
X92397947Y-47600672D01*
X92359500Y-47793955D01*
X92359500Y-47991044D01*
X92397947Y-48184327D01*
X92397949Y-48184336D01*
X92469139Y-48356204D01*
X92473368Y-48366414D01*
X92514120Y-48427404D01*
X92570423Y-48511668D01*
X92582861Y-48530282D01*
X92722218Y-48669639D01*
X92767656Y-48700000D01*
X92800968Y-48722258D01*
X92821803Y-48753441D01*
X92814487Y-48790223D01*
X92783304Y-48811058D01*
X92773745Y-48812000D01*
X89999500Y-48812000D01*
X89964852Y-48797648D01*
X89950500Y-48763000D01*
X89950499Y-48494998D01*
X89942177Y-48442454D01*
X89935182Y-48398285D01*
X89875789Y-48281719D01*
X89783281Y-48189211D01*
X89783278Y-48189209D01*
X89666715Y-48129818D01*
X89666709Y-48129817D01*
X89570003Y-48114500D01*
X89570001Y-48114500D01*
X87479999Y-48114500D01*
X87383287Y-48129817D01*
X87266721Y-48189209D01*
X87266718Y-48189211D01*
X87174211Y-48281718D01*
X87174209Y-48281721D01*
X87114818Y-48398284D01*
X87114818Y-48398285D01*
X87099844Y-48492829D01*
X87099500Y-48494998D01*
X76231822Y-48494998D01*
X76127693Y-48460493D01*
X76024981Y-48450000D01*
X75750000Y-48450000D01*
X75750000Y-49200000D01*
X75250000Y-49200000D01*
X75250000Y-48450000D01*
X74975019Y-48450000D01*
X74872306Y-48460493D01*
X74705877Y-48515642D01*
X74556656Y-48607682D01*
X74432682Y-48731656D01*
X74340642Y-48880877D01*
X74285493Y-49047306D01*
X74275000Y-49150018D01*
X72400499Y-49150018D01*
X72400499Y-49148774D01*
X72400499Y-48964008D01*
X72414851Y-48929360D01*
X72605095Y-48739117D01*
X72639743Y-48724765D01*
X72746742Y-48724765D01*
X72831225Y-48702127D01*
X72886750Y-48687249D01*
X73012280Y-48614774D01*
X73114774Y-48512280D01*
X73156505Y-48440000D01*
X77803086Y-48440000D01*
X79225000Y-48440000D01*
X79725000Y-48440000D01*
X81146913Y-48440000D01*
X81143933Y-48407203D01*
X81143931Y-48407194D01*
X81096072Y-48253606D01*
X81096072Y-48253605D01*
X81012839Y-48115923D01*
X80899076Y-48002160D01*
X80761394Y-47918927D01*
X80607801Y-47871066D01*
X80541040Y-47865000D01*
X79725000Y-47865000D01*
X79725000Y-48440000D01*
X79225000Y-48440000D01*
X79225000Y-47865000D01*
X78408960Y-47865000D01*
X78342198Y-47871066D01*
X78188606Y-47918927D01*
X78188605Y-47918927D01*
X78050923Y-48002160D01*
X77937160Y-48115923D01*
X77853927Y-48253605D01*
X77853927Y-48253606D01*
X77806068Y-48407194D01*
X77806066Y-48407203D01*
X77803086Y-48440000D01*
X73156505Y-48440000D01*
X73187249Y-48386750D01*
X73208831Y-48306205D01*
X73224765Y-48246742D01*
X73224765Y-48101787D01*
X73194933Y-47990458D01*
X73187249Y-47961780D01*
X73187248Y-47961779D01*
X73187248Y-47961777D01*
X73121488Y-47847879D01*
X73114774Y-47836250D01*
X73012280Y-47733756D01*
X72908862Y-47674047D01*
X72886033Y-47644295D01*
X72890928Y-47607113D01*
X72898711Y-47596969D01*
X73243560Y-47252120D01*
X74524500Y-47252120D01*
X74524500Y-47847879D01*
X74530907Y-47907478D01*
X74581205Y-48042333D01*
X74612787Y-48084521D01*
X74667454Y-48157546D01*
X74782669Y-48243796D01*
X74917517Y-48294091D01*
X74917520Y-48294092D01*
X74961177Y-48298785D01*
X74977127Y-48300500D01*
X76022872Y-48300499D01*
X76022878Y-48300499D01*
X76082478Y-48294092D01*
X76082479Y-48294091D01*
X76082483Y-48294091D01*
X76217331Y-48243796D01*
X76332546Y-48157546D01*
X76418796Y-48042331D01*
X76469091Y-47907483D01*
X76469091Y-47907481D01*
X76469092Y-47907479D01*
X76473040Y-47870750D01*
X76475500Y-47847873D01*
X76475499Y-47252128D01*
X76475499Y-47252127D01*
X76475499Y-47252120D01*
X76469092Y-47192521D01*
X76457703Y-47161985D01*
X76418796Y-47057669D01*
X76332546Y-46942454D01*
X76263314Y-46890627D01*
X76217333Y-46856205D01*
X76217331Y-46856204D01*
X76172381Y-46839439D01*
X76082479Y-46805907D01*
X76022879Y-46799500D01*
X76022873Y-46799500D01*
X75899500Y-46799500D01*
X75864852Y-46785148D01*
X75850500Y-46750500D01*
X75850500Y-46501212D01*
X100399500Y-46501212D01*
X100399500Y-46743788D01*
X100431162Y-46984289D01*
X100431163Y-46984293D01*
X100431164Y-46984300D01*
X100493944Y-47218595D01*
X100493946Y-47218601D01*
X100586776Y-47442713D01*
X100708062Y-47652786D01*
X100708072Y-47652801D01*
X100855730Y-47845232D01*
X100855740Y-47845244D01*
X101027255Y-48016759D01*
X101027267Y-48016769D01*
X101219698Y-48164427D01*
X101219707Y-48164433D01*
X101219711Y-48164436D01*
X101429788Y-48285724D01*
X101653900Y-48378554D01*
X101679300Y-48385360D01*
X101888199Y-48441335D01*
X101888200Y-48441335D01*
X101888211Y-48441338D01*
X102128712Y-48473000D01*
X102128716Y-48473000D01*
X102371284Y-48473000D01*
X102371288Y-48473000D01*
X102611789Y-48441338D01*
X102846100Y-48378554D01*
X103070212Y-48285724D01*
X103280289Y-48164436D01*
X103472738Y-48016765D01*
X103644265Y-47845238D01*
X103774510Y-47675499D01*
X103791927Y-47652801D01*
X103791928Y-47652798D01*
X103791936Y-47652789D01*
X103913224Y-47442712D01*
X104006054Y-47218600D01*
X104068838Y-46984289D01*
X104100500Y-46743788D01*
X104100500Y-46501212D01*
X104068838Y-46260711D01*
X104006054Y-46026400D01*
X103913224Y-45802288D01*
X103791936Y-45592211D01*
X103791933Y-45592207D01*
X103791927Y-45592198D01*
X103644269Y-45399767D01*
X103644259Y-45399755D01*
X103472744Y-45228240D01*
X103472732Y-45228230D01*
X103280301Y-45080572D01*
X103280286Y-45080562D01*
X103070212Y-44959276D01*
X103070213Y-44959276D01*
X102846101Y-44866446D01*
X102846095Y-44866444D01*
X102611800Y-44803664D01*
X102611793Y-44803663D01*
X102611789Y-44803662D01*
X102371288Y-44772000D01*
X102128712Y-44772000D01*
X101888211Y-44803662D01*
X101888207Y-44803662D01*
X101888199Y-44803664D01*
X101653904Y-44866444D01*
X101653898Y-44866446D01*
X101429786Y-44959276D01*
X101219713Y-45080562D01*
X101219698Y-45080572D01*
X101027267Y-45228230D01*
X101027255Y-45228240D01*
X100855740Y-45399755D01*
X100855730Y-45399767D01*
X100708072Y-45592198D01*
X100708062Y-45592213D01*
X100586776Y-45802286D01*
X100493946Y-46026398D01*
X100493944Y-46026404D01*
X100431164Y-46260699D01*
X100431162Y-46260707D01*
X100431162Y-46260711D01*
X100399500Y-46501212D01*
X75850500Y-46501212D01*
X75850500Y-46498320D01*
X75864852Y-46463672D01*
X75940508Y-46388016D01*
X75940509Y-46388015D01*
X76012984Y-46262485D01*
X76031742Y-46192480D01*
X76050500Y-46122477D01*
X76050500Y-45977522D01*
X76012984Y-45837516D01*
X76012983Y-45837512D01*
X75967035Y-45757930D01*
X75940509Y-45711985D01*
X75838015Y-45609491D01*
X75808297Y-45592333D01*
X75712487Y-45537016D01*
X75712483Y-45537015D01*
X75572478Y-45499500D01*
X75572475Y-45499500D01*
X75427525Y-45499500D01*
X75427522Y-45499500D01*
X75287516Y-45537015D01*
X75287512Y-45537016D01*
X75161984Y-45609491D01*
X75161984Y-45609492D01*
X75059492Y-45711984D01*
X75059491Y-45711984D01*
X74987016Y-45837512D01*
X74987015Y-45837516D01*
X74949500Y-45977522D01*
X74949500Y-46122477D01*
X74987015Y-46262483D01*
X74987016Y-46262487D01*
X75059491Y-46388015D01*
X75135148Y-46463672D01*
X75149500Y-46498320D01*
X75149500Y-46750500D01*
X75135148Y-46785148D01*
X75100500Y-46799500D01*
X74977120Y-46799500D01*
X74917521Y-46805907D01*
X74782666Y-46856205D01*
X74667454Y-46942454D01*
X74581205Y-47057666D01*
X74530907Y-47192520D01*
X74524500Y-47252120D01*
X73243560Y-47252120D01*
X76330082Y-44165598D01*
X76364729Y-44151247D01*
X76393530Y-44160605D01*
X76463212Y-44211232D01*
X76463214Y-44211233D01*
X76581870Y-44271691D01*
X76617555Y-44289873D01*
X76782299Y-44343402D01*
X76953389Y-44370500D01*
X76953390Y-44370500D01*
X77126610Y-44370500D01*
X77126611Y-44370500D01*
X77297701Y-44343402D01*
X77462445Y-44289873D01*
X77616788Y-44211232D01*
X77756928Y-44109414D01*
X77879414Y-43986928D01*
X77981232Y-43846788D01*
X78059873Y-43692445D01*
X78113402Y-43527701D01*
X78140500Y-43356611D01*
X78140500Y-43183389D01*
X78113402Y-43012299D01*
X78059873Y-42847555D01*
X77981232Y-42693212D01*
X77879414Y-42553072D01*
X77879410Y-42553068D01*
X77879408Y-42553065D01*
X77756934Y-42430591D01*
X77756930Y-42430588D01*
X77756928Y-42430586D01*
X77708391Y-42395322D01*
X78479500Y-42395322D01*
X78479500Y-44144677D01*
X78494033Y-44217739D01*
X78549398Y-44300601D01*
X78613455Y-44343401D01*
X78632260Y-44355966D01*
X78705326Y-44370500D01*
X80454674Y-44370500D01*
X80527740Y-44355966D01*
X80610601Y-44300601D01*
X80665966Y-44217740D01*
X80680500Y-44144674D01*
X80680500Y-42395326D01*
X80665966Y-42322260D01*
X80663678Y-42318835D01*
X80610601Y-42239398D01*
X80527739Y-42184033D01*
X80454677Y-42169500D01*
X80454674Y-42169500D01*
X78705326Y-42169500D01*
X78705322Y-42169500D01*
X78632260Y-42184033D01*
X78549398Y-42239398D01*
X78494033Y-42322260D01*
X78479500Y-42395322D01*
X77708391Y-42395322D01*
X77616788Y-42328768D01*
X77616786Y-42328767D01*
X77616782Y-42328764D01*
X77462446Y-42250127D01*
X77297701Y-42196598D01*
X77297698Y-42196597D01*
X77159454Y-42174701D01*
X77127477Y-42155105D01*
X77118722Y-42118639D01*
X77138318Y-42086662D01*
X77159454Y-42077907D01*
X77356123Y-42046758D01*
X77356126Y-42046757D01*
X77558218Y-41981094D01*
X77747553Y-41884622D01*
X77801717Y-41845271D01*
X77169408Y-41212962D01*
X77232993Y-41195925D01*
X77347007Y-41130099D01*
X77440099Y-41037007D01*
X77505925Y-40922993D01*
X77522962Y-40859408D01*
X78155271Y-41491717D01*
X78194622Y-41437553D01*
X78291094Y-41248218D01*
X78356757Y-41046126D01*
X78356758Y-41046123D01*
X78387907Y-40849454D01*
X78407502Y-40817477D01*
X78443969Y-40808722D01*
X78475946Y-40828317D01*
X78484701Y-40849454D01*
X78506597Y-40987698D01*
X78506598Y-40987701D01*
X78560127Y-41152446D01*
X78638764Y-41306782D01*
X78638767Y-41306786D01*
X78638768Y-41306788D01*
X78740586Y-41446928D01*
X78740588Y-41446930D01*
X78740591Y-41446934D01*
X78863065Y-41569408D01*
X78863068Y-41569410D01*
X78863072Y-41569414D01*
X79003212Y-41671232D01*
X79003214Y-41671233D01*
X79003217Y-41671235D01*
X79104287Y-41722732D01*
X79157555Y-41749873D01*
X79322299Y-41803402D01*
X79493389Y-41830500D01*
X79493390Y-41830500D01*
X79666610Y-41830500D01*
X79666611Y-41830500D01*
X79837701Y-41803402D01*
X80002445Y-41749873D01*
X80156788Y-41671232D01*
X80296928Y-41569414D01*
X80419414Y-41446928D01*
X80521232Y-41306788D01*
X80599873Y-41152445D01*
X80653402Y-40987701D01*
X80680500Y-40816611D01*
X80680500Y-40643389D01*
X80653402Y-40472299D01*
X80622993Y-40378712D01*
X104149500Y-40378712D01*
X104149500Y-40621288D01*
X104181162Y-40861789D01*
X104181163Y-40861793D01*
X104181164Y-40861800D01*
X104243944Y-41096095D01*
X104243946Y-41096101D01*
X104336776Y-41320213D01*
X104458062Y-41530286D01*
X104458072Y-41530301D01*
X104605730Y-41722732D01*
X104605740Y-41722744D01*
X104777255Y-41894259D01*
X104777267Y-41894269D01*
X104969698Y-42041927D01*
X104969707Y-42041933D01*
X104969711Y-42041936D01*
X105179788Y-42163224D01*
X105403900Y-42256054D01*
X105403904Y-42256055D01*
X105638199Y-42318835D01*
X105638200Y-42318835D01*
X105638211Y-42318838D01*
X105878712Y-42350500D01*
X105878716Y-42350500D01*
X106121284Y-42350500D01*
X106121288Y-42350500D01*
X106361789Y-42318838D01*
X106596100Y-42256054D01*
X106820212Y-42163224D01*
X107030289Y-42041936D01*
X107222738Y-41894265D01*
X107394265Y-41722738D01*
X107541936Y-41530289D01*
X107663224Y-41320212D01*
X107756054Y-41096100D01*
X107818838Y-40861789D01*
X107850500Y-40621288D01*
X107850500Y-40378712D01*
X107818838Y-40138211D01*
X107756054Y-39903900D01*
X107663224Y-39679788D01*
X107541936Y-39469711D01*
X107541933Y-39469707D01*
X107541927Y-39469698D01*
X107394269Y-39277267D01*
X107394259Y-39277255D01*
X107222744Y-39105740D01*
X107222732Y-39105730D01*
X107030301Y-38958072D01*
X107030286Y-38958062D01*
X106820212Y-38836776D01*
X106820213Y-38836776D01*
X106596101Y-38743946D01*
X106596095Y-38743944D01*
X106361800Y-38681164D01*
X106361793Y-38681163D01*
X106361789Y-38681162D01*
X106121288Y-38649500D01*
X105878712Y-38649500D01*
X105638211Y-38681162D01*
X105638207Y-38681162D01*
X105638199Y-38681164D01*
X105403904Y-38743944D01*
X105403898Y-38743946D01*
X105179786Y-38836776D01*
X104969713Y-38958062D01*
X104969698Y-38958072D01*
X104777267Y-39105730D01*
X104777255Y-39105740D01*
X104605740Y-39277255D01*
X104605730Y-39277267D01*
X104458072Y-39469698D01*
X104458062Y-39469713D01*
X104336776Y-39679786D01*
X104243946Y-39903898D01*
X104243944Y-39903904D01*
X104181164Y-40138199D01*
X104181162Y-40138207D01*
X104181162Y-40138211D01*
X104149500Y-40378712D01*
X80622993Y-40378712D01*
X80599873Y-40307555D01*
X80538731Y-40187556D01*
X80521235Y-40153217D01*
X80521233Y-40153214D01*
X80521232Y-40153212D01*
X80419414Y-40013072D01*
X80419410Y-40013068D01*
X80419408Y-40013065D01*
X80296934Y-39890591D01*
X80296935Y-39890591D01*
X80156782Y-39788764D01*
X80002446Y-39710127D01*
X79837701Y-39656598D01*
X79837698Y-39656597D01*
X79706271Y-39635781D01*
X79666611Y-39629500D01*
X79493389Y-39629500D01*
X79461192Y-39634599D01*
X79322301Y-39656597D01*
X79322298Y-39656598D01*
X79157553Y-39710127D01*
X79003217Y-39788764D01*
X78863065Y-39890591D01*
X78740591Y-40013065D01*
X78638764Y-40153217D01*
X78560127Y-40307553D01*
X78506598Y-40472298D01*
X78506597Y-40472299D01*
X78484701Y-40610546D01*
X78465105Y-40642522D01*
X78428638Y-40651277D01*
X78396662Y-40631681D01*
X78387907Y-40610545D01*
X78356758Y-40413876D01*
X78356757Y-40413873D01*
X78291094Y-40211781D01*
X78194621Y-40022443D01*
X78194619Y-40022440D01*
X78155271Y-39968281D01*
X77522962Y-40600590D01*
X77505925Y-40537007D01*
X77440099Y-40422993D01*
X77347007Y-40329901D01*
X77232993Y-40264075D01*
X77169407Y-40247036D01*
X77801716Y-39614728D01*
X77801716Y-39614727D01*
X77747560Y-39575380D01*
X77747556Y-39575378D01*
X77558218Y-39478905D01*
X77356126Y-39413242D01*
X77356123Y-39413241D01*
X77146246Y-39380000D01*
X76933754Y-39380000D01*
X76723876Y-39413241D01*
X76723873Y-39413242D01*
X76521781Y-39478905D01*
X76332447Y-39575376D01*
X76332442Y-39575379D01*
X76278282Y-39614727D01*
X76278282Y-39614728D01*
X76910591Y-40247037D01*
X76847007Y-40264075D01*
X76732993Y-40329901D01*
X76639901Y-40422993D01*
X76574075Y-40537007D01*
X76557037Y-40600591D01*
X75924728Y-39968282D01*
X75924727Y-39968282D01*
X75885379Y-40022442D01*
X75885376Y-40022447D01*
X75813659Y-40163200D01*
X75785142Y-40187556D01*
X75747754Y-40184613D01*
X75726341Y-40163200D01*
X75654621Y-40022443D01*
X75654619Y-40022440D01*
X75615271Y-39968281D01*
X74982962Y-40600590D01*
X74965925Y-40537007D01*
X74900099Y-40422993D01*
X74807007Y-40329901D01*
X74692993Y-40264075D01*
X74629407Y-40247036D01*
X75261716Y-39614728D01*
X75261716Y-39614727D01*
X75207560Y-39575380D01*
X75207556Y-39575378D01*
X75018218Y-39478905D01*
X74816126Y-39413242D01*
X74816123Y-39413241D01*
X74606246Y-39380000D01*
X74393754Y-39380000D01*
X74183876Y-39413241D01*
X74183873Y-39413242D01*
X73981781Y-39478905D01*
X73792447Y-39575376D01*
X73792442Y-39575379D01*
X73738282Y-39614727D01*
X73738282Y-39614728D01*
X74370591Y-40247037D01*
X74307007Y-40264075D01*
X74192993Y-40329901D01*
X74099901Y-40422993D01*
X74034075Y-40537007D01*
X74017037Y-40600591D01*
X73384728Y-39968282D01*
X73384727Y-39968282D01*
X73345379Y-40022442D01*
X73345376Y-40022447D01*
X73248905Y-40211781D01*
X73183242Y-40413873D01*
X73183241Y-40413876D01*
X73152092Y-40610545D01*
X73132496Y-40642522D01*
X73096030Y-40651277D01*
X73064053Y-40631681D01*
X73055298Y-40610545D01*
X73033402Y-40472301D01*
X73033402Y-40472299D01*
X72979873Y-40307555D01*
X72918731Y-40187556D01*
X72901235Y-40153217D01*
X72901233Y-40153214D01*
X72901232Y-40153212D01*
X72799414Y-40013072D01*
X72799410Y-40013068D01*
X72799408Y-40013065D01*
X72676934Y-39890591D01*
X72676935Y-39890591D01*
X72536782Y-39788764D01*
X72382446Y-39710127D01*
X72289740Y-39680005D01*
X72217701Y-39656598D01*
X72217698Y-39656597D01*
X72086271Y-39635781D01*
X72046611Y-39629500D01*
X71873389Y-39629500D01*
X71841192Y-39634599D01*
X71702301Y-39656597D01*
X71702298Y-39656598D01*
X71537553Y-39710127D01*
X71383217Y-39788764D01*
X71243065Y-39890591D01*
X71120591Y-40013065D01*
X71018764Y-40153217D01*
X70940127Y-40307553D01*
X70886598Y-40472298D01*
X70886597Y-40472301D01*
X70859500Y-40643389D01*
X70859500Y-40816610D01*
X70886597Y-40987698D01*
X70886598Y-40987701D01*
X70940127Y-41152446D01*
X71018764Y-41306782D01*
X71018767Y-41306786D01*
X71018768Y-41306788D01*
X71120586Y-41446928D01*
X71120588Y-41446930D01*
X71120591Y-41446934D01*
X71243065Y-41569408D01*
X71243068Y-41569410D01*
X71243072Y-41569414D01*
X71383212Y-41671232D01*
X71383214Y-41671233D01*
X71383217Y-41671235D01*
X71484287Y-41722732D01*
X71537555Y-41749873D01*
X71702299Y-41803402D01*
X71873389Y-41830500D01*
X71873390Y-41830500D01*
X72046610Y-41830500D01*
X72046611Y-41830500D01*
X72217701Y-41803402D01*
X72382445Y-41749873D01*
X72536788Y-41671232D01*
X72676928Y-41569414D01*
X72799414Y-41446928D01*
X72901232Y-41306788D01*
X72979873Y-41152445D01*
X73033402Y-40987701D01*
X73055298Y-40849453D01*
X73074893Y-40817477D01*
X73111360Y-40808722D01*
X73143337Y-40828317D01*
X73152092Y-40849454D01*
X73183241Y-41046123D01*
X73183242Y-41046126D01*
X73248905Y-41248218D01*
X73345378Y-41437556D01*
X73345380Y-41437560D01*
X73384727Y-41491716D01*
X73384728Y-41491716D01*
X74017036Y-40859407D01*
X74034075Y-40922993D01*
X74099901Y-41037007D01*
X74192993Y-41130099D01*
X74307007Y-41195925D01*
X74370591Y-41212962D01*
X73738281Y-41845271D01*
X73792440Y-41884619D01*
X73792443Y-41884621D01*
X73981781Y-41981094D01*
X74183873Y-42046757D01*
X74183876Y-42046758D01*
X74380545Y-42077907D01*
X74412522Y-42097502D01*
X74421277Y-42133969D01*
X74401682Y-42165946D01*
X74380546Y-42174701D01*
X74242299Y-42196597D01*
X74242298Y-42196598D01*
X74077553Y-42250127D01*
X73923217Y-42328764D01*
X73783065Y-42430591D01*
X73660591Y-42553065D01*
X73558764Y-42693217D01*
X73480127Y-42847553D01*
X73426598Y-43012298D01*
X73426597Y-43012301D01*
X73399500Y-43183389D01*
X73399500Y-43356610D01*
X73426597Y-43527698D01*
X73426598Y-43527701D01*
X73480125Y-43692441D01*
X73498308Y-43728127D01*
X73501250Y-43765515D01*
X73489296Y-43785020D01*
X70719531Y-46554786D01*
X70719530Y-46554787D01*
X70716814Y-46559492D01*
X70677958Y-46626793D01*
X70675317Y-46631366D01*
X70673385Y-46634713D01*
X70649500Y-46723853D01*
X70649500Y-48463000D01*
X70635148Y-48497648D01*
X70600500Y-48512000D01*
X70386865Y-48512000D01*
X70386860Y-48512001D01*
X70339454Y-48518240D01*
X70270707Y-48550297D01*
X70233239Y-48551933D01*
X70229291Y-48550297D01*
X70174435Y-48524718D01*
X70160545Y-48518241D01*
X70160543Y-48518240D01*
X70160542Y-48518240D01*
X70131859Y-48514464D01*
X70113139Y-48512000D01*
X70113136Y-48512000D01*
X69886865Y-48512000D01*
X69886860Y-48512001D01*
X69839454Y-48518240D01*
X69770707Y-48550297D01*
X69733239Y-48551933D01*
X69729291Y-48550297D01*
X69674435Y-48524718D01*
X69660545Y-48518241D01*
X69660543Y-48518240D01*
X69660542Y-48518240D01*
X69631859Y-48514464D01*
X69613139Y-48512000D01*
X69613136Y-48512000D01*
X69386865Y-48512000D01*
X69386860Y-48512001D01*
X69339454Y-48518240D01*
X69270707Y-48550297D01*
X69233239Y-48551933D01*
X69229291Y-48550297D01*
X69174435Y-48524718D01*
X69160545Y-48518241D01*
X69160543Y-48518240D01*
X69160542Y-48518240D01*
X69131859Y-48514464D01*
X69113139Y-48512000D01*
X69113136Y-48512000D01*
X68886865Y-48512000D01*
X68886860Y-48512001D01*
X68839455Y-48518240D01*
X68839454Y-48518241D01*
X68832612Y-48521431D01*
X68795144Y-48523064D01*
X68777259Y-48511668D01*
X67464851Y-47199260D01*
X67450499Y-47164612D01*
X67450499Y-46602120D01*
X67444092Y-46542521D01*
X67428685Y-46501212D01*
X67393796Y-46407669D01*
X67307546Y-46292454D01*
X67238314Y-46240627D01*
X67192333Y-46206205D01*
X67192331Y-46206204D01*
X67147381Y-46189439D01*
X67057479Y-46155907D01*
X66997879Y-46149500D01*
X66002120Y-46149500D01*
X65942521Y-46155907D01*
X65807666Y-46206205D01*
X65692454Y-46292454D01*
X65606205Y-46407666D01*
X65555907Y-46542520D01*
X65549500Y-46602120D01*
X65549500Y-46636512D01*
X65535148Y-46671160D01*
X65500500Y-46685512D01*
X65465852Y-46671160D01*
X65454589Y-46653636D01*
X65418796Y-46557669D01*
X65407455Y-46542520D01*
X65401776Y-46534934D01*
X65332546Y-46442454D01*
X65259825Y-46388015D01*
X65217333Y-46356205D01*
X65217331Y-46356204D01*
X65172381Y-46339439D01*
X65082479Y-46305907D01*
X65022879Y-46299500D01*
X65022873Y-46299500D01*
X64899500Y-46299500D01*
X64864852Y-46285148D01*
X64850500Y-46250500D01*
X64850500Y-45948320D01*
X64864852Y-45913672D01*
X64940508Y-45838016D01*
X64940509Y-45838015D01*
X65012984Y-45712485D01*
X65040581Y-45609492D01*
X65050500Y-45572477D01*
X65050500Y-45427522D01*
X65012984Y-45287516D01*
X65012983Y-45287512D01*
X64940508Y-45161984D01*
X64838015Y-45059491D01*
X64712487Y-44987016D01*
X64712483Y-44987015D01*
X64572478Y-44949500D01*
X64572475Y-44949500D01*
X64427525Y-44949500D01*
X64427522Y-44949500D01*
X64287516Y-44987015D01*
X64287512Y-44987016D01*
X64161984Y-45059491D01*
X64161984Y-45059492D01*
X64059492Y-45161984D01*
X64059491Y-45161984D01*
X63987016Y-45287512D01*
X63987015Y-45287516D01*
X63949500Y-45427522D01*
X63949500Y-45572477D01*
X63987015Y-45712483D01*
X63987016Y-45712487D01*
X64059491Y-45838015D01*
X64135148Y-45913672D01*
X64149500Y-45948320D01*
X64149500Y-46250500D01*
X64135148Y-46285148D01*
X64100500Y-46299500D01*
X63977120Y-46299500D01*
X63917521Y-46305907D01*
X63782666Y-46356205D01*
X63667454Y-46442454D01*
X63581205Y-46557666D01*
X63530907Y-46692520D01*
X63524500Y-46752120D01*
X62492549Y-46752120D01*
X62440509Y-46661985D01*
X62338015Y-46559491D01*
X62329869Y-46554788D01*
X62212487Y-46487016D01*
X62212483Y-46487015D01*
X62072478Y-46449500D01*
X62072475Y-46449500D01*
X61927525Y-46449500D01*
X61927522Y-46449500D01*
X61787516Y-46487015D01*
X61787512Y-46487016D01*
X61661984Y-46559491D01*
X61661984Y-46559492D01*
X61559492Y-46661984D01*
X61559491Y-46661984D01*
X61487016Y-46787512D01*
X61487015Y-46787516D01*
X61449500Y-46927522D01*
X61449500Y-47072477D01*
X61487015Y-47212483D01*
X61487016Y-47212487D01*
X61559491Y-47338015D01*
X61635148Y-47413672D01*
X61649500Y-47448320D01*
X61649500Y-48200500D01*
X61635148Y-48235148D01*
X61600500Y-48249500D01*
X61477120Y-48249500D01*
X61417521Y-48255907D01*
X61282666Y-48306205D01*
X61167454Y-48392454D01*
X61081205Y-48507666D01*
X61030907Y-48642520D01*
X61024500Y-48702120D01*
X59470124Y-48702120D01*
X59469092Y-48692521D01*
X59469091Y-48692517D01*
X59418796Y-48557669D01*
X59332546Y-48442454D01*
X59258135Y-48386750D01*
X59217333Y-48356205D01*
X59217331Y-48356204D01*
X59161110Y-48335235D01*
X59082479Y-48305907D01*
X59022879Y-48299500D01*
X59022873Y-48299500D01*
X58899500Y-48299500D01*
X58864852Y-48285148D01*
X58850500Y-48250500D01*
X58850500Y-47898320D01*
X58864852Y-47863672D01*
X58890508Y-47838016D01*
X58890509Y-47838015D01*
X58962984Y-47712485D01*
X58992945Y-47600672D01*
X59000500Y-47572477D01*
X59000500Y-47427522D01*
X58962984Y-47287516D01*
X58962983Y-47287512D01*
X58908137Y-47192517D01*
X58890509Y-47161985D01*
X58788015Y-47059491D01*
X58784854Y-47057666D01*
X58662487Y-46987016D01*
X58662483Y-46987015D01*
X58522478Y-46949500D01*
X58522475Y-46949500D01*
X58377525Y-46949500D01*
X58377522Y-46949500D01*
X58237516Y-46987015D01*
X58237512Y-46987016D01*
X58111984Y-47059491D01*
X58111984Y-47059492D01*
X58009492Y-47161984D01*
X58009491Y-47161984D01*
X57937016Y-47287512D01*
X57937015Y-47287516D01*
X57899500Y-47427522D01*
X57899500Y-47572477D01*
X57937015Y-47712483D01*
X57937016Y-47712487D01*
X58008471Y-47836249D01*
X58009491Y-47838015D01*
X58111985Y-47940509D01*
X58111988Y-47940510D01*
X58111991Y-47940513D01*
X58124998Y-47948022D01*
X58147830Y-47977774D01*
X58149500Y-47990458D01*
X58149500Y-48250500D01*
X58135148Y-48285148D01*
X58100500Y-48299500D01*
X57977120Y-48299500D01*
X57917521Y-48305907D01*
X57782666Y-48356205D01*
X57667454Y-48442454D01*
X57581205Y-48557666D01*
X57530907Y-48692520D01*
X57524500Y-48752120D01*
X56000500Y-48752120D01*
X56000500Y-44777120D01*
X65549500Y-44777120D01*
X65549500Y-45397879D01*
X65555907Y-45457478D01*
X65555909Y-45457483D01*
X65606154Y-45592198D01*
X65606205Y-45592333D01*
X65640627Y-45638314D01*
X65692454Y-45707546D01*
X65807669Y-45793796D01*
X65942517Y-45844091D01*
X65942520Y-45844092D01*
X65986177Y-45848785D01*
X66002127Y-45850500D01*
X66997872Y-45850499D01*
X66997878Y-45850499D01*
X67057478Y-45844092D01*
X67057479Y-45844091D01*
X67057483Y-45844091D01*
X67192331Y-45793796D01*
X67307546Y-45707546D01*
X67393796Y-45592331D01*
X67444091Y-45457483D01*
X67444091Y-45457481D01*
X67444092Y-45457479D01*
X67450297Y-45399762D01*
X67450500Y-45397873D01*
X67450499Y-44777128D01*
X67450499Y-44777127D01*
X67450499Y-44777120D01*
X67444092Y-44717521D01*
X67444091Y-44717517D01*
X67393796Y-44582669D01*
X67307546Y-44467454D01*
X67238314Y-44415627D01*
X67192333Y-44381205D01*
X67192331Y-44381204D01*
X67147381Y-44364439D01*
X67057479Y-44330907D01*
X66997879Y-44324500D01*
X66997873Y-44324500D01*
X66899500Y-44324500D01*
X66864852Y-44310148D01*
X66850500Y-44275500D01*
X66850500Y-43948320D01*
X66864852Y-43913672D01*
X66940508Y-43838016D01*
X66940509Y-43838015D01*
X67012984Y-43712485D01*
X67031742Y-43642480D01*
X67050500Y-43572477D01*
X67050500Y-43427522D01*
X67012984Y-43287516D01*
X67012983Y-43287513D01*
X66965900Y-43205964D01*
X66952866Y-43183389D01*
X68319500Y-43183389D01*
X68319500Y-43356610D01*
X68346597Y-43527698D01*
X68346598Y-43527701D01*
X68400127Y-43692446D01*
X68478764Y-43846782D01*
X68478767Y-43846786D01*
X68478768Y-43846788D01*
X68580586Y-43986928D01*
X68580588Y-43986930D01*
X68580591Y-43986934D01*
X68703065Y-44109408D01*
X68703068Y-44109410D01*
X68703072Y-44109414D01*
X68843212Y-44211232D01*
X68843214Y-44211233D01*
X68843217Y-44211235D01*
X68969346Y-44275500D01*
X68997555Y-44289873D01*
X69162299Y-44343402D01*
X69333389Y-44370500D01*
X69333390Y-44370500D01*
X69506610Y-44370500D01*
X69506611Y-44370500D01*
X69677701Y-44343402D01*
X69842445Y-44289873D01*
X69996788Y-44211232D01*
X70136928Y-44109414D01*
X70259414Y-43986928D01*
X70361232Y-43846788D01*
X70439873Y-43692445D01*
X70493402Y-43527701D01*
X70520500Y-43356611D01*
X70520500Y-43183389D01*
X70859500Y-43183389D01*
X70859500Y-43356610D01*
X70886597Y-43527698D01*
X70886598Y-43527701D01*
X70940127Y-43692446D01*
X71018764Y-43846782D01*
X71018767Y-43846786D01*
X71018768Y-43846788D01*
X71120586Y-43986928D01*
X71120588Y-43986930D01*
X71120591Y-43986934D01*
X71243065Y-44109408D01*
X71243068Y-44109410D01*
X71243072Y-44109414D01*
X71383212Y-44211232D01*
X71383214Y-44211233D01*
X71383217Y-44211235D01*
X71509346Y-44275500D01*
X71537555Y-44289873D01*
X71702299Y-44343402D01*
X71873389Y-44370500D01*
X71873390Y-44370500D01*
X72046610Y-44370500D01*
X72046611Y-44370500D01*
X72217701Y-44343402D01*
X72382445Y-44289873D01*
X72536788Y-44211232D01*
X72676928Y-44109414D01*
X72799414Y-43986928D01*
X72901232Y-43846788D01*
X72979873Y-43692445D01*
X73033402Y-43527701D01*
X73060500Y-43356611D01*
X73060500Y-43183389D01*
X73033402Y-43012299D01*
X72979873Y-42847555D01*
X72901232Y-42693212D01*
X72799414Y-42553072D01*
X72799410Y-42553068D01*
X72799408Y-42553065D01*
X72676934Y-42430591D01*
X72676935Y-42430591D01*
X72536782Y-42328764D01*
X72382446Y-42250127D01*
X72217701Y-42196598D01*
X72217698Y-42196597D01*
X72079449Y-42174701D01*
X72046611Y-42169500D01*
X71873389Y-42169500D01*
X71841192Y-42174599D01*
X71702301Y-42196597D01*
X71702298Y-42196598D01*
X71537553Y-42250127D01*
X71383217Y-42328764D01*
X71243065Y-42430591D01*
X71120591Y-42553065D01*
X71018764Y-42693217D01*
X70940127Y-42847553D01*
X70886598Y-43012298D01*
X70886597Y-43012301D01*
X70859500Y-43183389D01*
X70520500Y-43183389D01*
X70493402Y-43012299D01*
X70439873Y-42847555D01*
X70361232Y-42693212D01*
X70259414Y-42553072D01*
X70259410Y-42553068D01*
X70259408Y-42553065D01*
X70136934Y-42430591D01*
X70136935Y-42430591D01*
X69996782Y-42328764D01*
X69842446Y-42250127D01*
X69677701Y-42196598D01*
X69677698Y-42196597D01*
X69539449Y-42174701D01*
X69506611Y-42169500D01*
X69333389Y-42169500D01*
X69301192Y-42174599D01*
X69162301Y-42196597D01*
X69162298Y-42196598D01*
X68997553Y-42250127D01*
X68843217Y-42328764D01*
X68703065Y-42430591D01*
X68580591Y-42553065D01*
X68478764Y-42693217D01*
X68400127Y-42847553D01*
X68346598Y-43012298D01*
X68346597Y-43012301D01*
X68319500Y-43183389D01*
X66952866Y-43183389D01*
X66940509Y-43161985D01*
X66838015Y-43059491D01*
X66712487Y-42987016D01*
X66712483Y-42987015D01*
X66572478Y-42949500D01*
X66572475Y-42949500D01*
X66427525Y-42949500D01*
X66427522Y-42949500D01*
X66287516Y-42987015D01*
X66287512Y-42987016D01*
X66161984Y-43059491D01*
X66161984Y-43059492D01*
X66059492Y-43161984D01*
X66059491Y-43161984D01*
X65987016Y-43287512D01*
X65987015Y-43287516D01*
X65949500Y-43427522D01*
X65949500Y-43572477D01*
X65987015Y-43712483D01*
X65987016Y-43712487D01*
X66059491Y-43838015D01*
X66135148Y-43913672D01*
X66149500Y-43948320D01*
X66149500Y-44275500D01*
X66135148Y-44310148D01*
X66100500Y-44324500D01*
X66002120Y-44324500D01*
X65942521Y-44330907D01*
X65807666Y-44381205D01*
X65692454Y-44467454D01*
X65606205Y-44582666D01*
X65555907Y-44717520D01*
X65549500Y-44777120D01*
X56000500Y-44777120D01*
X56000500Y-40378712D01*
X57649500Y-40378712D01*
X57649500Y-40621288D01*
X57681162Y-40861789D01*
X57681163Y-40861793D01*
X57681164Y-40861800D01*
X57743944Y-41096095D01*
X57743946Y-41096101D01*
X57836776Y-41320213D01*
X57958062Y-41530286D01*
X57958072Y-41530301D01*
X58105730Y-41722732D01*
X58105740Y-41722744D01*
X58277255Y-41894259D01*
X58277267Y-41894269D01*
X58469698Y-42041927D01*
X58469707Y-42041933D01*
X58469711Y-42041936D01*
X58679788Y-42163224D01*
X58903900Y-42256054D01*
X58903904Y-42256055D01*
X59138199Y-42318835D01*
X59138200Y-42318835D01*
X59138211Y-42318838D01*
X59378712Y-42350500D01*
X59378716Y-42350500D01*
X59621284Y-42350500D01*
X59621288Y-42350500D01*
X59861789Y-42318838D01*
X60096100Y-42256054D01*
X60320212Y-42163224D01*
X60530289Y-42041936D01*
X60722738Y-41894265D01*
X60894265Y-41722738D01*
X61041936Y-41530289D01*
X61163224Y-41320212D01*
X61256054Y-41096100D01*
X61318838Y-40861789D01*
X61347590Y-40643389D01*
X68319500Y-40643389D01*
X68319500Y-40816610D01*
X68346597Y-40987698D01*
X68346598Y-40987701D01*
X68400127Y-41152446D01*
X68478764Y-41306782D01*
X68478767Y-41306786D01*
X68478768Y-41306788D01*
X68580586Y-41446928D01*
X68580588Y-41446930D01*
X68580591Y-41446934D01*
X68703065Y-41569408D01*
X68703068Y-41569410D01*
X68703072Y-41569414D01*
X68843212Y-41671232D01*
X68843214Y-41671233D01*
X68843217Y-41671235D01*
X68944287Y-41722732D01*
X68997555Y-41749873D01*
X69162299Y-41803402D01*
X69333389Y-41830500D01*
X69333390Y-41830500D01*
X69506610Y-41830500D01*
X69506611Y-41830500D01*
X69677701Y-41803402D01*
X69842445Y-41749873D01*
X69996788Y-41671232D01*
X70136928Y-41569414D01*
X70259414Y-41446928D01*
X70361232Y-41306788D01*
X70439873Y-41152445D01*
X70493402Y-40987701D01*
X70520500Y-40816611D01*
X70520500Y-40643389D01*
X70493402Y-40472299D01*
X70439873Y-40307555D01*
X70378731Y-40187556D01*
X70361235Y-40153217D01*
X70361233Y-40153214D01*
X70361232Y-40153212D01*
X70259414Y-40013072D01*
X70259410Y-40013068D01*
X70259408Y-40013065D01*
X70136934Y-39890591D01*
X70136935Y-39890591D01*
X69996782Y-39788764D01*
X69842446Y-39710127D01*
X69677701Y-39656598D01*
X69677698Y-39656597D01*
X69546271Y-39635781D01*
X69506611Y-39629500D01*
X69333389Y-39629500D01*
X69301192Y-39634599D01*
X69162301Y-39656597D01*
X69162298Y-39656598D01*
X68997553Y-39710127D01*
X68843217Y-39788764D01*
X68703065Y-39890591D01*
X68580591Y-40013065D01*
X68478764Y-40153217D01*
X68400127Y-40307553D01*
X68346598Y-40472298D01*
X68346597Y-40472301D01*
X68319500Y-40643389D01*
X61347590Y-40643389D01*
X61350500Y-40621288D01*
X61350500Y-40378712D01*
X61318838Y-40138211D01*
X61256054Y-39903900D01*
X61163224Y-39679788D01*
X61041936Y-39469711D01*
X61041933Y-39469707D01*
X61041927Y-39469698D01*
X60894269Y-39277267D01*
X60894259Y-39277255D01*
X60722744Y-39105740D01*
X60722732Y-39105730D01*
X60530301Y-38958072D01*
X60530286Y-38958062D01*
X60320212Y-38836776D01*
X60320213Y-38836776D01*
X60096101Y-38743946D01*
X60096095Y-38743944D01*
X59861800Y-38681164D01*
X59861793Y-38681163D01*
X59861789Y-38681162D01*
X59621288Y-38649500D01*
X59378712Y-38649500D01*
X59138211Y-38681162D01*
X59138207Y-38681162D01*
X59138199Y-38681164D01*
X58903904Y-38743944D01*
X58903898Y-38743946D01*
X58679786Y-38836776D01*
X58469713Y-38958062D01*
X58469698Y-38958072D01*
X58277267Y-39105730D01*
X58277255Y-39105740D01*
X58105740Y-39277255D01*
X58105730Y-39277267D01*
X57958072Y-39469698D01*
X57958062Y-39469713D01*
X57836776Y-39679786D01*
X57743946Y-39903898D01*
X57743944Y-39903904D01*
X57681164Y-40138199D01*
X57681162Y-40138207D01*
X57681162Y-40138211D01*
X57649500Y-40378712D01*
X56000500Y-40378712D01*
X56000500Y-37049500D01*
X56014852Y-37014852D01*
X56049500Y-37000500D01*
X109450500Y-37000500D01*
X109485148Y-37014852D01*
G37*
%TD.AperFunction*%
%TD*%
M02*
