%TF.GenerationSoftware,KiCad,Pcbnew,10.0.6*%
%TF.CreationDate,2026-10-06T17:14:12-05:00*%
%TF.ProjectId,onboarding_1,6f6e626f-6172-4646-996e-675f312e6b69,1*%
%TF.SameCoordinates,Original*%
%TF.FileFunction,Drillmap*%
%TF.FilePolarity,Positive*%
%FSLAX45Y45*%
G04 Gerber Fmt 4.5, Leading zero omitted, Abs format (unit mm)*
G04 Created by KiCad (PCBNEW 10.0.6) date 2026-10-06 17:14:12*
%MOMM*%
%LPD*%
G01*
G04 APERTURE LIST*
%ADD10C,0.050000*%
%ADD11C,0.200000*%
%ADD12C,0.100000*%
%ADD13C,0.102000*%
G04 APERTURE END LIST*
D10*
X5550000Y-3650000D02*
X11000000Y-3650000D01*
X11000000Y-8150000D01*
X5550000Y-8150000D01*
X5550000Y-3650000D01*
D11*
D12*
X5735000Y-5435000D02*
X5765000Y-5465000D01*
X5765000Y-5435000D02*
X5735000Y-5465000D01*
X5830000Y-4735000D02*
X5860000Y-4765000D01*
X5860000Y-4735000D02*
X5830000Y-4765000D01*
X6185000Y-4685000D02*
X6215000Y-4715000D01*
X6215000Y-4685000D02*
X6185000Y-4715000D01*
X6435000Y-4535000D02*
X6465000Y-4565000D01*
X6465000Y-4535000D02*
X6435000Y-4565000D01*
X6635000Y-4335000D02*
X6665000Y-4365000D01*
X6665000Y-4335000D02*
X6635000Y-4365000D01*
X6635000Y-5435000D02*
X6665000Y-5465000D01*
X6665000Y-5435000D02*
X6635000Y-5465000D01*
X6635000Y-6335000D02*
X6665000Y-6365000D01*
X6665000Y-6335000D02*
X6635000Y-6365000D01*
X6685000Y-5085000D02*
X6715000Y-5115000D01*
X6715000Y-5085000D02*
X6685000Y-5115000D01*
X7135000Y-5135000D02*
X7165000Y-5165000D01*
X7165000Y-5135000D02*
X7135000Y-5165000D01*
X7135000Y-5635000D02*
X7165000Y-5665000D01*
X7165000Y-5635000D02*
X7135000Y-5665000D01*
X7185000Y-6327375D02*
X7215000Y-6357375D01*
X7215000Y-6327375D02*
X7185000Y-6357375D01*
X7252426Y-4802427D02*
X7282426Y-4832427D01*
X7282426Y-4802427D02*
X7252426Y-4832427D01*
X7535000Y-4590000D02*
X7565000Y-4620000D01*
X7565000Y-4590000D02*
X7535000Y-4620000D01*
X7535000Y-6835000D02*
X7565000Y-6865000D01*
X7565000Y-6835000D02*
X7535000Y-6865000D01*
X7635000Y-5236250D02*
X7665000Y-5266250D01*
X7665000Y-5236250D02*
X7635000Y-5266250D01*
X7730313Y-5116250D02*
X7760313Y-5146250D01*
X7760313Y-5116250D02*
X7730313Y-5146250D01*
X7735000Y-5585000D02*
X7765000Y-5615000D01*
X7765000Y-5585000D02*
X7735000Y-5615000D01*
X8035000Y-6385000D02*
X8065000Y-6415000D01*
X8065000Y-6385000D02*
X8035000Y-6415000D01*
X8135000Y-7035000D02*
X8165000Y-7065000D01*
X8165000Y-7035000D02*
X8135000Y-7065000D01*
X8282500Y-5885000D02*
X8312500Y-5915000D01*
X8312500Y-5885000D02*
X8282500Y-5915000D01*
X8785000Y-6135000D02*
X8815000Y-6165000D01*
X8815000Y-6135000D02*
X8785000Y-6165000D01*
X9085000Y-5596250D02*
X9115000Y-5626250D01*
X9115000Y-5596250D02*
X9085000Y-5626250D01*
X9235000Y-6385000D02*
X9265000Y-6415000D01*
X9265000Y-6385000D02*
X9235000Y-6415000D01*
X10035000Y-6485000D02*
X10065000Y-6515000D01*
X10065000Y-6485000D02*
X10035000Y-6515000D01*
X9374000Y-4789250D02*
G75*
G02*
X9298000Y-4789250I-38000J0D01*
G01*
X9298000Y-4789250D02*
G75*
G02*
X9374000Y-4789250I38000J0D01*
G01*
X9374000Y-5043250D02*
G75*
G02*
X9298000Y-5043250I-38000J0D01*
G01*
X9298000Y-5043250D02*
G75*
G02*
X9374000Y-5043250I38000J0D01*
G01*
X9374000Y-5297250D02*
G75*
G02*
X9298000Y-5297250I-38000J0D01*
G01*
X9298000Y-5297250D02*
G75*
G02*
X9374000Y-5297250I38000J0D01*
G01*
X9374000Y-5551250D02*
G75*
G02*
X9298000Y-5551250I-38000J0D01*
G01*
X9298000Y-5551250D02*
G75*
G02*
X9374000Y-5551250I38000J0D01*
G01*
X9628000Y-4916250D02*
G75*
G02*
X9552000Y-4916250I-38000J0D01*
G01*
X9552000Y-4916250D02*
G75*
G02*
X9628000Y-4916250I38000J0D01*
G01*
X9628000Y-5170250D02*
G75*
G02*
X9552000Y-5170250I-38000J0D01*
G01*
X9552000Y-5170250D02*
G75*
G02*
X9628000Y-5170250I38000J0D01*
G01*
X9628000Y-5424250D02*
G75*
G02*
X9552000Y-5424250I-38000J0D01*
G01*
X9552000Y-5424250D02*
G75*
G02*
X9628000Y-5424250I38000J0D01*
G01*
X9628000Y-5678250D02*
G75*
G02*
X9552000Y-5678250I-38000J0D01*
G01*
X9552000Y-5678250D02*
G75*
G02*
X9628000Y-5678250I38000J0D01*
G01*
X6942000Y-4023000D02*
X6942000Y-4123000D01*
X6892000Y-4073000D02*
X6992000Y-4073000D01*
X6942000Y-4277000D02*
X6942000Y-4377000D01*
X6892000Y-4327000D02*
X6992000Y-4327000D01*
X7196000Y-4023000D02*
X7196000Y-4123000D01*
X7146000Y-4073000D02*
X7246000Y-4073000D01*
X7196000Y-4277000D02*
X7196000Y-4377000D01*
X7146000Y-4327000D02*
X7246000Y-4327000D01*
X7450000Y-4023000D02*
X7450000Y-4123000D01*
X7400000Y-4073000D02*
X7500000Y-4073000D01*
X7450000Y-4277000D02*
X7450000Y-4377000D01*
X7400000Y-4327000D02*
X7500000Y-4327000D01*
X7704000Y-4023000D02*
X7704000Y-4123000D01*
X7654000Y-4073000D02*
X7754000Y-4073000D01*
X7704000Y-4277000D02*
X7704000Y-4377000D01*
X7654000Y-4327000D02*
X7754000Y-4327000D01*
X7958000Y-4023000D02*
X7958000Y-4123000D01*
X7908000Y-4073000D02*
X8008000Y-4073000D01*
X7958000Y-4277000D02*
X7958000Y-4377000D01*
X7908000Y-4327000D02*
X8008000Y-4327000D01*
D13*
X6736063Y-7286063D02*
X6736063Y-7213937D01*
X6663937Y-7213937D01*
X6663937Y-7286063D01*
X6736063Y-7286063D01*
X7036063Y-7286063D02*
X7036063Y-7213937D01*
X6963937Y-7213937D01*
X6963937Y-7286063D01*
X7036063Y-7286063D01*
X7336063Y-7286063D02*
X7336063Y-7213937D01*
X7263937Y-7213937D01*
X7263937Y-7286063D01*
X7336063Y-7286063D01*
X8186063Y-7289563D02*
X8186063Y-7217437D01*
X8113937Y-7217437D01*
X8113937Y-7289563D01*
X8186063Y-7289563D01*
X8486063Y-7289563D02*
X8486063Y-7217437D01*
X8413937Y-7217437D01*
X8413937Y-7289563D01*
X8486063Y-7289563D01*
X8786063Y-7289563D02*
X8786063Y-7217437D01*
X8713937Y-7217437D01*
X8713937Y-7289563D01*
X8786063Y-7289563D01*
D11*
X5808277Y-8463984D02*
X5808277Y-8263984D01*
X5808277Y-8263984D02*
X5855896Y-8263984D01*
X5855896Y-8263984D02*
X5884467Y-8273508D01*
X5884467Y-8273508D02*
X5903515Y-8292555D01*
X5903515Y-8292555D02*
X5913039Y-8311603D01*
X5913039Y-8311603D02*
X5922562Y-8349698D01*
X5922562Y-8349698D02*
X5922562Y-8378269D01*
X5922562Y-8378269D02*
X5913039Y-8416365D01*
X5913039Y-8416365D02*
X5903515Y-8435412D01*
X5903515Y-8435412D02*
X5884467Y-8454460D01*
X5884467Y-8454460D02*
X5855896Y-8463984D01*
X5855896Y-8463984D02*
X5808277Y-8463984D01*
X6008277Y-8463984D02*
X6008277Y-8330650D01*
X6008277Y-8368746D02*
X6017801Y-8349698D01*
X6017801Y-8349698D02*
X6027324Y-8340174D01*
X6027324Y-8340174D02*
X6046372Y-8330650D01*
X6046372Y-8330650D02*
X6065420Y-8330650D01*
X6132086Y-8463984D02*
X6132086Y-8330650D01*
X6132086Y-8263984D02*
X6122562Y-8273508D01*
X6122562Y-8273508D02*
X6132086Y-8283031D01*
X6132086Y-8283031D02*
X6141610Y-8273508D01*
X6141610Y-8273508D02*
X6132086Y-8263984D01*
X6132086Y-8263984D02*
X6132086Y-8283031D01*
X6255896Y-8463984D02*
X6236848Y-8454460D01*
X6236848Y-8454460D02*
X6227324Y-8435412D01*
X6227324Y-8435412D02*
X6227324Y-8263984D01*
X6360658Y-8463984D02*
X6341610Y-8454460D01*
X6341610Y-8454460D02*
X6332086Y-8435412D01*
X6332086Y-8435412D02*
X6332086Y-8263984D01*
X6589229Y-8463984D02*
X6589229Y-8263984D01*
X6589229Y-8263984D02*
X6655896Y-8406841D01*
X6655896Y-8406841D02*
X6722562Y-8263984D01*
X6722562Y-8263984D02*
X6722562Y-8463984D01*
X6903515Y-8463984D02*
X6903515Y-8359222D01*
X6903515Y-8359222D02*
X6893991Y-8340174D01*
X6893991Y-8340174D02*
X6874943Y-8330650D01*
X6874943Y-8330650D02*
X6836848Y-8330650D01*
X6836848Y-8330650D02*
X6817801Y-8340174D01*
X6903515Y-8454460D02*
X6884467Y-8463984D01*
X6884467Y-8463984D02*
X6836848Y-8463984D01*
X6836848Y-8463984D02*
X6817801Y-8454460D01*
X6817801Y-8454460D02*
X6808277Y-8435412D01*
X6808277Y-8435412D02*
X6808277Y-8416365D01*
X6808277Y-8416365D02*
X6817801Y-8397317D01*
X6817801Y-8397317D02*
X6836848Y-8387793D01*
X6836848Y-8387793D02*
X6884467Y-8387793D01*
X6884467Y-8387793D02*
X6903515Y-8378269D01*
X6998753Y-8330650D02*
X6998753Y-8530650D01*
X6998753Y-8340174D02*
X7017801Y-8330650D01*
X7017801Y-8330650D02*
X7055896Y-8330650D01*
X7055896Y-8330650D02*
X7074943Y-8340174D01*
X7074943Y-8340174D02*
X7084467Y-8349698D01*
X7084467Y-8349698D02*
X7093991Y-8368746D01*
X7093991Y-8368746D02*
X7093991Y-8425889D01*
X7093991Y-8425889D02*
X7084467Y-8444936D01*
X7084467Y-8444936D02*
X7074943Y-8454460D01*
X7074943Y-8454460D02*
X7055896Y-8463984D01*
X7055896Y-8463984D02*
X7017801Y-8463984D01*
X7017801Y-8463984D02*
X6998753Y-8454460D01*
X7179705Y-8444936D02*
X7189229Y-8454460D01*
X7189229Y-8454460D02*
X7179705Y-8463984D01*
X7179705Y-8463984D02*
X7170182Y-8454460D01*
X7170182Y-8454460D02*
X7179705Y-8444936D01*
X7179705Y-8444936D02*
X7179705Y-8463984D01*
X7179705Y-8340174D02*
X7189229Y-8349698D01*
X7189229Y-8349698D02*
X7179705Y-8359222D01*
X7179705Y-8359222D02*
X7170182Y-8349698D01*
X7170182Y-8349698D02*
X7179705Y-8340174D01*
X7179705Y-8340174D02*
X7179705Y-8359222D01*
D12*
X5517500Y-8777500D02*
X5547500Y-8807500D01*
X5547500Y-8777500D02*
X5517500Y-8807500D01*
D11*
X5846372Y-8683984D02*
X5865420Y-8683984D01*
X5865420Y-8683984D02*
X5884467Y-8693508D01*
X5884467Y-8693508D02*
X5893991Y-8703031D01*
X5893991Y-8703031D02*
X5903515Y-8722079D01*
X5903515Y-8722079D02*
X5913039Y-8760174D01*
X5913039Y-8760174D02*
X5913039Y-8807793D01*
X5913039Y-8807793D02*
X5903515Y-8845889D01*
X5903515Y-8845889D02*
X5893991Y-8864936D01*
X5893991Y-8864936D02*
X5884467Y-8874460D01*
X5884467Y-8874460D02*
X5865420Y-8883984D01*
X5865420Y-8883984D02*
X5846372Y-8883984D01*
X5846372Y-8883984D02*
X5827324Y-8874460D01*
X5827324Y-8874460D02*
X5817801Y-8864936D01*
X5817801Y-8864936D02*
X5808277Y-8845889D01*
X5808277Y-8845889D02*
X5798753Y-8807793D01*
X5798753Y-8807793D02*
X5798753Y-8760174D01*
X5798753Y-8760174D02*
X5808277Y-8722079D01*
X5808277Y-8722079D02*
X5817801Y-8703031D01*
X5817801Y-8703031D02*
X5827324Y-8693508D01*
X5827324Y-8693508D02*
X5846372Y-8683984D01*
X5998753Y-8864936D02*
X6008277Y-8874460D01*
X6008277Y-8874460D02*
X5998753Y-8883984D01*
X5998753Y-8883984D02*
X5989229Y-8874460D01*
X5989229Y-8874460D02*
X5998753Y-8864936D01*
X5998753Y-8864936D02*
X5998753Y-8883984D01*
X6074943Y-8683984D02*
X6198753Y-8683984D01*
X6198753Y-8683984D02*
X6132086Y-8760174D01*
X6132086Y-8760174D02*
X6160658Y-8760174D01*
X6160658Y-8760174D02*
X6179705Y-8769698D01*
X6179705Y-8769698D02*
X6189229Y-8779222D01*
X6189229Y-8779222D02*
X6198753Y-8798270D01*
X6198753Y-8798270D02*
X6198753Y-8845889D01*
X6198753Y-8845889D02*
X6189229Y-8864936D01*
X6189229Y-8864936D02*
X6179705Y-8874460D01*
X6179705Y-8874460D02*
X6160658Y-8883984D01*
X6160658Y-8883984D02*
X6103515Y-8883984D01*
X6103515Y-8883984D02*
X6084467Y-8874460D01*
X6084467Y-8874460D02*
X6074943Y-8864936D01*
X6322562Y-8683984D02*
X6341610Y-8683984D01*
X6341610Y-8683984D02*
X6360658Y-8693508D01*
X6360658Y-8693508D02*
X6370182Y-8703031D01*
X6370182Y-8703031D02*
X6379705Y-8722079D01*
X6379705Y-8722079D02*
X6389229Y-8760174D01*
X6389229Y-8760174D02*
X6389229Y-8807793D01*
X6389229Y-8807793D02*
X6379705Y-8845889D01*
X6379705Y-8845889D02*
X6370182Y-8864936D01*
X6370182Y-8864936D02*
X6360658Y-8874460D01*
X6360658Y-8874460D02*
X6341610Y-8883984D01*
X6341610Y-8883984D02*
X6322562Y-8883984D01*
X6322562Y-8883984D02*
X6303515Y-8874460D01*
X6303515Y-8874460D02*
X6293991Y-8864936D01*
X6293991Y-8864936D02*
X6284467Y-8845889D01*
X6284467Y-8845889D02*
X6274943Y-8807793D01*
X6274943Y-8807793D02*
X6274943Y-8760174D01*
X6274943Y-8760174D02*
X6284467Y-8722079D01*
X6284467Y-8722079D02*
X6293991Y-8703031D01*
X6293991Y-8703031D02*
X6303515Y-8693508D01*
X6303515Y-8693508D02*
X6322562Y-8683984D01*
X6513039Y-8683984D02*
X6532086Y-8683984D01*
X6532086Y-8683984D02*
X6551134Y-8693508D01*
X6551134Y-8693508D02*
X6560658Y-8703031D01*
X6560658Y-8703031D02*
X6570182Y-8722079D01*
X6570182Y-8722079D02*
X6579705Y-8760174D01*
X6579705Y-8760174D02*
X6579705Y-8807793D01*
X6579705Y-8807793D02*
X6570182Y-8845889D01*
X6570182Y-8845889D02*
X6560658Y-8864936D01*
X6560658Y-8864936D02*
X6551134Y-8874460D01*
X6551134Y-8874460D02*
X6532086Y-8883984D01*
X6532086Y-8883984D02*
X6513039Y-8883984D01*
X6513039Y-8883984D02*
X6493991Y-8874460D01*
X6493991Y-8874460D02*
X6484467Y-8864936D01*
X6484467Y-8864936D02*
X6474943Y-8845889D01*
X6474943Y-8845889D02*
X6465420Y-8807793D01*
X6465420Y-8807793D02*
X6465420Y-8760174D01*
X6465420Y-8760174D02*
X6474943Y-8722079D01*
X6474943Y-8722079D02*
X6484467Y-8703031D01*
X6484467Y-8703031D02*
X6493991Y-8693508D01*
X6493991Y-8693508D02*
X6513039Y-8683984D01*
X6665420Y-8883984D02*
X6665420Y-8750650D01*
X6665420Y-8769698D02*
X6674943Y-8760174D01*
X6674943Y-8760174D02*
X6693991Y-8750650D01*
X6693991Y-8750650D02*
X6722563Y-8750650D01*
X6722563Y-8750650D02*
X6741610Y-8760174D01*
X6741610Y-8760174D02*
X6751134Y-8779222D01*
X6751134Y-8779222D02*
X6751134Y-8883984D01*
X6751134Y-8779222D02*
X6760658Y-8760174D01*
X6760658Y-8760174D02*
X6779705Y-8750650D01*
X6779705Y-8750650D02*
X6808277Y-8750650D01*
X6808277Y-8750650D02*
X6827324Y-8760174D01*
X6827324Y-8760174D02*
X6836848Y-8779222D01*
X6836848Y-8779222D02*
X6836848Y-8883984D01*
X6932086Y-8883984D02*
X6932086Y-8750650D01*
X6932086Y-8769698D02*
X6941610Y-8760174D01*
X6941610Y-8760174D02*
X6960658Y-8750650D01*
X6960658Y-8750650D02*
X6989229Y-8750650D01*
X6989229Y-8750650D02*
X7008277Y-8760174D01*
X7008277Y-8760174D02*
X7017801Y-8779222D01*
X7017801Y-8779222D02*
X7017801Y-8883984D01*
X7017801Y-8779222D02*
X7027324Y-8760174D01*
X7027324Y-8760174D02*
X7046372Y-8750650D01*
X7046372Y-8750650D02*
X7074943Y-8750650D01*
X7074943Y-8750650D02*
X7093991Y-8760174D01*
X7093991Y-8760174D02*
X7103515Y-8779222D01*
X7103515Y-8779222D02*
X7103515Y-8883984D01*
X7493991Y-8674460D02*
X7322563Y-8931603D01*
X7751134Y-8683984D02*
X7770182Y-8683984D01*
X7770182Y-8683984D02*
X7789229Y-8693508D01*
X7789229Y-8693508D02*
X7798753Y-8703031D01*
X7798753Y-8703031D02*
X7808277Y-8722079D01*
X7808277Y-8722079D02*
X7817801Y-8760174D01*
X7817801Y-8760174D02*
X7817801Y-8807793D01*
X7817801Y-8807793D02*
X7808277Y-8845889D01*
X7808277Y-8845889D02*
X7798753Y-8864936D01*
X7798753Y-8864936D02*
X7789229Y-8874460D01*
X7789229Y-8874460D02*
X7770182Y-8883984D01*
X7770182Y-8883984D02*
X7751134Y-8883984D01*
X7751134Y-8883984D02*
X7732086Y-8874460D01*
X7732086Y-8874460D02*
X7722563Y-8864936D01*
X7722563Y-8864936D02*
X7713039Y-8845889D01*
X7713039Y-8845889D02*
X7703515Y-8807793D01*
X7703515Y-8807793D02*
X7703515Y-8760174D01*
X7703515Y-8760174D02*
X7713039Y-8722079D01*
X7713039Y-8722079D02*
X7722563Y-8703031D01*
X7722563Y-8703031D02*
X7732086Y-8693508D01*
X7732086Y-8693508D02*
X7751134Y-8683984D01*
X7903515Y-8864936D02*
X7913039Y-8874460D01*
X7913039Y-8874460D02*
X7903515Y-8883984D01*
X7903515Y-8883984D02*
X7893991Y-8874460D01*
X7893991Y-8874460D02*
X7903515Y-8864936D01*
X7903515Y-8864936D02*
X7903515Y-8883984D01*
X8036848Y-8683984D02*
X8055896Y-8683984D01*
X8055896Y-8683984D02*
X8074944Y-8693508D01*
X8074944Y-8693508D02*
X8084467Y-8703031D01*
X8084467Y-8703031D02*
X8093991Y-8722079D01*
X8093991Y-8722079D02*
X8103515Y-8760174D01*
X8103515Y-8760174D02*
X8103515Y-8807793D01*
X8103515Y-8807793D02*
X8093991Y-8845889D01*
X8093991Y-8845889D02*
X8084467Y-8864936D01*
X8084467Y-8864936D02*
X8074944Y-8874460D01*
X8074944Y-8874460D02*
X8055896Y-8883984D01*
X8055896Y-8883984D02*
X8036848Y-8883984D01*
X8036848Y-8883984D02*
X8017801Y-8874460D01*
X8017801Y-8874460D02*
X8008277Y-8864936D01*
X8008277Y-8864936D02*
X7998753Y-8845889D01*
X7998753Y-8845889D02*
X7989229Y-8807793D01*
X7989229Y-8807793D02*
X7989229Y-8760174D01*
X7989229Y-8760174D02*
X7998753Y-8722079D01*
X7998753Y-8722079D02*
X8008277Y-8703031D01*
X8008277Y-8703031D02*
X8017801Y-8693508D01*
X8017801Y-8693508D02*
X8036848Y-8683984D01*
X8293991Y-8883984D02*
X8179706Y-8883984D01*
X8236848Y-8883984D02*
X8236848Y-8683984D01*
X8236848Y-8683984D02*
X8217801Y-8712555D01*
X8217801Y-8712555D02*
X8198753Y-8731603D01*
X8198753Y-8731603D02*
X8179706Y-8741127D01*
X8484468Y-8883984D02*
X8370182Y-8883984D01*
X8427325Y-8883984D02*
X8427325Y-8683984D01*
X8427325Y-8683984D02*
X8408277Y-8712555D01*
X8408277Y-8712555D02*
X8389229Y-8731603D01*
X8389229Y-8731603D02*
X8370182Y-8741127D01*
X8598753Y-8769698D02*
X8579706Y-8760174D01*
X8579706Y-8760174D02*
X8570182Y-8750650D01*
X8570182Y-8750650D02*
X8560658Y-8731603D01*
X8560658Y-8731603D02*
X8560658Y-8722079D01*
X8560658Y-8722079D02*
X8570182Y-8703031D01*
X8570182Y-8703031D02*
X8579706Y-8693508D01*
X8579706Y-8693508D02*
X8598753Y-8683984D01*
X8598753Y-8683984D02*
X8636849Y-8683984D01*
X8636849Y-8683984D02*
X8655896Y-8693508D01*
X8655896Y-8693508D02*
X8665420Y-8703031D01*
X8665420Y-8703031D02*
X8674944Y-8722079D01*
X8674944Y-8722079D02*
X8674944Y-8731603D01*
X8674944Y-8731603D02*
X8665420Y-8750650D01*
X8665420Y-8750650D02*
X8655896Y-8760174D01*
X8655896Y-8760174D02*
X8636849Y-8769698D01*
X8636849Y-8769698D02*
X8598753Y-8769698D01*
X8598753Y-8769698D02*
X8579706Y-8779222D01*
X8579706Y-8779222D02*
X8570182Y-8788746D01*
X8570182Y-8788746D02*
X8560658Y-8807793D01*
X8560658Y-8807793D02*
X8560658Y-8845889D01*
X8560658Y-8845889D02*
X8570182Y-8864936D01*
X8570182Y-8864936D02*
X8579706Y-8874460D01*
X8579706Y-8874460D02*
X8598753Y-8883984D01*
X8598753Y-8883984D02*
X8636849Y-8883984D01*
X8636849Y-8883984D02*
X8655896Y-8874460D01*
X8655896Y-8874460D02*
X8665420Y-8864936D01*
X8665420Y-8864936D02*
X8674944Y-8845889D01*
X8674944Y-8845889D02*
X8674944Y-8807793D01*
X8674944Y-8807793D02*
X8665420Y-8788746D01*
X8665420Y-8788746D02*
X8655896Y-8779222D01*
X8655896Y-8779222D02*
X8636849Y-8769698D01*
X8751134Y-8683984D02*
X8751134Y-8722079D01*
X8827325Y-8683984D02*
X8827325Y-8722079D01*
X9122563Y-8960174D02*
X9113039Y-8950650D01*
X9113039Y-8950650D02*
X9093991Y-8922079D01*
X9093991Y-8922079D02*
X9084468Y-8903031D01*
X9084468Y-8903031D02*
X9074944Y-8874460D01*
X9074944Y-8874460D02*
X9065420Y-8826841D01*
X9065420Y-8826841D02*
X9065420Y-8788746D01*
X9065420Y-8788746D02*
X9074944Y-8741127D01*
X9074944Y-8741127D02*
X9084468Y-8712555D01*
X9084468Y-8712555D02*
X9093991Y-8693508D01*
X9093991Y-8693508D02*
X9113039Y-8664936D01*
X9113039Y-8664936D02*
X9122563Y-8655412D01*
X9189230Y-8703031D02*
X9198753Y-8693508D01*
X9198753Y-8693508D02*
X9217801Y-8683984D01*
X9217801Y-8683984D02*
X9265420Y-8683984D01*
X9265420Y-8683984D02*
X9284468Y-8693508D01*
X9284468Y-8693508D02*
X9293991Y-8703031D01*
X9293991Y-8703031D02*
X9303515Y-8722079D01*
X9303515Y-8722079D02*
X9303515Y-8741127D01*
X9303515Y-8741127D02*
X9293991Y-8769698D01*
X9293991Y-8769698D02*
X9179706Y-8883984D01*
X9179706Y-8883984D02*
X9303515Y-8883984D01*
X9474944Y-8750650D02*
X9474944Y-8883984D01*
X9427325Y-8674460D02*
X9379706Y-8817317D01*
X9379706Y-8817317D02*
X9503515Y-8817317D01*
X9732087Y-8883984D02*
X9732087Y-8683984D01*
X9817801Y-8883984D02*
X9817801Y-8779222D01*
X9817801Y-8779222D02*
X9808277Y-8760174D01*
X9808277Y-8760174D02*
X9789230Y-8750650D01*
X9789230Y-8750650D02*
X9760658Y-8750650D01*
X9760658Y-8750650D02*
X9741611Y-8760174D01*
X9741611Y-8760174D02*
X9732087Y-8769698D01*
X9941611Y-8883984D02*
X9922563Y-8874460D01*
X9922563Y-8874460D02*
X9913039Y-8864936D01*
X9913039Y-8864936D02*
X9903515Y-8845889D01*
X9903515Y-8845889D02*
X9903515Y-8788746D01*
X9903515Y-8788746D02*
X9913039Y-8769698D01*
X9913039Y-8769698D02*
X9922563Y-8760174D01*
X9922563Y-8760174D02*
X9941611Y-8750650D01*
X9941611Y-8750650D02*
X9970182Y-8750650D01*
X9970182Y-8750650D02*
X9989230Y-8760174D01*
X9989230Y-8760174D02*
X9998753Y-8769698D01*
X9998753Y-8769698D02*
X10008277Y-8788746D01*
X10008277Y-8788746D02*
X10008277Y-8845889D01*
X10008277Y-8845889D02*
X9998753Y-8864936D01*
X9998753Y-8864936D02*
X9989230Y-8874460D01*
X9989230Y-8874460D02*
X9970182Y-8883984D01*
X9970182Y-8883984D02*
X9941611Y-8883984D01*
X10122563Y-8883984D02*
X10103515Y-8874460D01*
X10103515Y-8874460D02*
X10093992Y-8855412D01*
X10093992Y-8855412D02*
X10093992Y-8683984D01*
X10274944Y-8874460D02*
X10255896Y-8883984D01*
X10255896Y-8883984D02*
X10217801Y-8883984D01*
X10217801Y-8883984D02*
X10198753Y-8874460D01*
X10198753Y-8874460D02*
X10189230Y-8855412D01*
X10189230Y-8855412D02*
X10189230Y-8779222D01*
X10189230Y-8779222D02*
X10198753Y-8760174D01*
X10198753Y-8760174D02*
X10217801Y-8750650D01*
X10217801Y-8750650D02*
X10255896Y-8750650D01*
X10255896Y-8750650D02*
X10274944Y-8760174D01*
X10274944Y-8760174D02*
X10284468Y-8779222D01*
X10284468Y-8779222D02*
X10284468Y-8798270D01*
X10284468Y-8798270D02*
X10189230Y-8817317D01*
X10360658Y-8874460D02*
X10379706Y-8883984D01*
X10379706Y-8883984D02*
X10417801Y-8883984D01*
X10417801Y-8883984D02*
X10436849Y-8874460D01*
X10436849Y-8874460D02*
X10446373Y-8855412D01*
X10446373Y-8855412D02*
X10446373Y-8845889D01*
X10446373Y-8845889D02*
X10436849Y-8826841D01*
X10436849Y-8826841D02*
X10417801Y-8817317D01*
X10417801Y-8817317D02*
X10389230Y-8817317D01*
X10389230Y-8817317D02*
X10370182Y-8807793D01*
X10370182Y-8807793D02*
X10360658Y-8788746D01*
X10360658Y-8788746D02*
X10360658Y-8779222D01*
X10360658Y-8779222D02*
X10370182Y-8760174D01*
X10370182Y-8760174D02*
X10389230Y-8750650D01*
X10389230Y-8750650D02*
X10417801Y-8750650D01*
X10417801Y-8750650D02*
X10436849Y-8760174D01*
X10513039Y-8960174D02*
X10522563Y-8950650D01*
X10522563Y-8950650D02*
X10541611Y-8922079D01*
X10541611Y-8922079D02*
X10551134Y-8903031D01*
X10551134Y-8903031D02*
X10560658Y-8874460D01*
X10560658Y-8874460D02*
X10570182Y-8826841D01*
X10570182Y-8826841D02*
X10570182Y-8788746D01*
X10570182Y-8788746D02*
X10560658Y-8741127D01*
X10560658Y-8741127D02*
X10551134Y-8712555D01*
X10551134Y-8712555D02*
X10541611Y-8693508D01*
X10541611Y-8693508D02*
X10522563Y-8664936D01*
X10522563Y-8664936D02*
X10513039Y-8655412D01*
D12*
X5547500Y-9056500D02*
G75*
G02*
X5471500Y-9056500I-38000J0D01*
G01*
X5471500Y-9056500D02*
G75*
G02*
X5547500Y-9056500I38000J0D01*
G01*
D11*
X5846372Y-8947984D02*
X5865420Y-8947984D01*
X5865420Y-8947984D02*
X5884467Y-8957508D01*
X5884467Y-8957508D02*
X5893991Y-8967031D01*
X5893991Y-8967031D02*
X5903515Y-8986079D01*
X5903515Y-8986079D02*
X5913039Y-9024174D01*
X5913039Y-9024174D02*
X5913039Y-9071793D01*
X5913039Y-9071793D02*
X5903515Y-9109889D01*
X5903515Y-9109889D02*
X5893991Y-9128936D01*
X5893991Y-9128936D02*
X5884467Y-9138460D01*
X5884467Y-9138460D02*
X5865420Y-9147984D01*
X5865420Y-9147984D02*
X5846372Y-9147984D01*
X5846372Y-9147984D02*
X5827324Y-9138460D01*
X5827324Y-9138460D02*
X5817801Y-9128936D01*
X5817801Y-9128936D02*
X5808277Y-9109889D01*
X5808277Y-9109889D02*
X5798753Y-9071793D01*
X5798753Y-9071793D02*
X5798753Y-9024174D01*
X5798753Y-9024174D02*
X5808277Y-8986079D01*
X5808277Y-8986079D02*
X5817801Y-8967031D01*
X5817801Y-8967031D02*
X5827324Y-8957508D01*
X5827324Y-8957508D02*
X5846372Y-8947984D01*
X5998753Y-9128936D02*
X6008277Y-9138460D01*
X6008277Y-9138460D02*
X5998753Y-9147984D01*
X5998753Y-9147984D02*
X5989229Y-9138460D01*
X5989229Y-9138460D02*
X5998753Y-9128936D01*
X5998753Y-9128936D02*
X5998753Y-9147984D01*
X6074943Y-8947984D02*
X6208277Y-8947984D01*
X6208277Y-8947984D02*
X6122562Y-9147984D01*
X6370182Y-8947984D02*
X6332086Y-8947984D01*
X6332086Y-8947984D02*
X6313039Y-8957508D01*
X6313039Y-8957508D02*
X6303515Y-8967031D01*
X6303515Y-8967031D02*
X6284467Y-8995603D01*
X6284467Y-8995603D02*
X6274943Y-9033698D01*
X6274943Y-9033698D02*
X6274943Y-9109889D01*
X6274943Y-9109889D02*
X6284467Y-9128936D01*
X6284467Y-9128936D02*
X6293991Y-9138460D01*
X6293991Y-9138460D02*
X6313039Y-9147984D01*
X6313039Y-9147984D02*
X6351134Y-9147984D01*
X6351134Y-9147984D02*
X6370182Y-9138460D01*
X6370182Y-9138460D02*
X6379705Y-9128936D01*
X6379705Y-9128936D02*
X6389229Y-9109889D01*
X6389229Y-9109889D02*
X6389229Y-9062270D01*
X6389229Y-9062270D02*
X6379705Y-9043222D01*
X6379705Y-9043222D02*
X6370182Y-9033698D01*
X6370182Y-9033698D02*
X6351134Y-9024174D01*
X6351134Y-9024174D02*
X6313039Y-9024174D01*
X6313039Y-9024174D02*
X6293991Y-9033698D01*
X6293991Y-9033698D02*
X6284467Y-9043222D01*
X6284467Y-9043222D02*
X6274943Y-9062270D01*
X6513039Y-8947984D02*
X6532086Y-8947984D01*
X6532086Y-8947984D02*
X6551134Y-8957508D01*
X6551134Y-8957508D02*
X6560658Y-8967031D01*
X6560658Y-8967031D02*
X6570182Y-8986079D01*
X6570182Y-8986079D02*
X6579705Y-9024174D01*
X6579705Y-9024174D02*
X6579705Y-9071793D01*
X6579705Y-9071793D02*
X6570182Y-9109889D01*
X6570182Y-9109889D02*
X6560658Y-9128936D01*
X6560658Y-9128936D02*
X6551134Y-9138460D01*
X6551134Y-9138460D02*
X6532086Y-9147984D01*
X6532086Y-9147984D02*
X6513039Y-9147984D01*
X6513039Y-9147984D02*
X6493991Y-9138460D01*
X6493991Y-9138460D02*
X6484467Y-9128936D01*
X6484467Y-9128936D02*
X6474943Y-9109889D01*
X6474943Y-9109889D02*
X6465420Y-9071793D01*
X6465420Y-9071793D02*
X6465420Y-9024174D01*
X6465420Y-9024174D02*
X6474943Y-8986079D01*
X6474943Y-8986079D02*
X6484467Y-8967031D01*
X6484467Y-8967031D02*
X6493991Y-8957508D01*
X6493991Y-8957508D02*
X6513039Y-8947984D01*
X6665420Y-9147984D02*
X6665420Y-9014650D01*
X6665420Y-9033698D02*
X6674943Y-9024174D01*
X6674943Y-9024174D02*
X6693991Y-9014650D01*
X6693991Y-9014650D02*
X6722563Y-9014650D01*
X6722563Y-9014650D02*
X6741610Y-9024174D01*
X6741610Y-9024174D02*
X6751134Y-9043222D01*
X6751134Y-9043222D02*
X6751134Y-9147984D01*
X6751134Y-9043222D02*
X6760658Y-9024174D01*
X6760658Y-9024174D02*
X6779705Y-9014650D01*
X6779705Y-9014650D02*
X6808277Y-9014650D01*
X6808277Y-9014650D02*
X6827324Y-9024174D01*
X6827324Y-9024174D02*
X6836848Y-9043222D01*
X6836848Y-9043222D02*
X6836848Y-9147984D01*
X6932086Y-9147984D02*
X6932086Y-9014650D01*
X6932086Y-9033698D02*
X6941610Y-9024174D01*
X6941610Y-9024174D02*
X6960658Y-9014650D01*
X6960658Y-9014650D02*
X6989229Y-9014650D01*
X6989229Y-9014650D02*
X7008277Y-9024174D01*
X7008277Y-9024174D02*
X7017801Y-9043222D01*
X7017801Y-9043222D02*
X7017801Y-9147984D01*
X7017801Y-9043222D02*
X7027324Y-9024174D01*
X7027324Y-9024174D02*
X7046372Y-9014650D01*
X7046372Y-9014650D02*
X7074943Y-9014650D01*
X7074943Y-9014650D02*
X7093991Y-9024174D01*
X7093991Y-9024174D02*
X7103515Y-9043222D01*
X7103515Y-9043222D02*
X7103515Y-9147984D01*
X7493991Y-8938460D02*
X7322563Y-9195603D01*
X7751134Y-8947984D02*
X7770182Y-8947984D01*
X7770182Y-8947984D02*
X7789229Y-8957508D01*
X7789229Y-8957508D02*
X7798753Y-8967031D01*
X7798753Y-8967031D02*
X7808277Y-8986079D01*
X7808277Y-8986079D02*
X7817801Y-9024174D01*
X7817801Y-9024174D02*
X7817801Y-9071793D01*
X7817801Y-9071793D02*
X7808277Y-9109889D01*
X7808277Y-9109889D02*
X7798753Y-9128936D01*
X7798753Y-9128936D02*
X7789229Y-9138460D01*
X7789229Y-9138460D02*
X7770182Y-9147984D01*
X7770182Y-9147984D02*
X7751134Y-9147984D01*
X7751134Y-9147984D02*
X7732086Y-9138460D01*
X7732086Y-9138460D02*
X7722563Y-9128936D01*
X7722563Y-9128936D02*
X7713039Y-9109889D01*
X7713039Y-9109889D02*
X7703515Y-9071793D01*
X7703515Y-9071793D02*
X7703515Y-9024174D01*
X7703515Y-9024174D02*
X7713039Y-8986079D01*
X7713039Y-8986079D02*
X7722563Y-8967031D01*
X7722563Y-8967031D02*
X7732086Y-8957508D01*
X7732086Y-8957508D02*
X7751134Y-8947984D01*
X7903515Y-9128936D02*
X7913039Y-9138460D01*
X7913039Y-9138460D02*
X7903515Y-9147984D01*
X7903515Y-9147984D02*
X7893991Y-9138460D01*
X7893991Y-9138460D02*
X7903515Y-9128936D01*
X7903515Y-9128936D02*
X7903515Y-9147984D01*
X8036848Y-8947984D02*
X8055896Y-8947984D01*
X8055896Y-8947984D02*
X8074944Y-8957508D01*
X8074944Y-8957508D02*
X8084467Y-8967031D01*
X8084467Y-8967031D02*
X8093991Y-8986079D01*
X8093991Y-8986079D02*
X8103515Y-9024174D01*
X8103515Y-9024174D02*
X8103515Y-9071793D01*
X8103515Y-9071793D02*
X8093991Y-9109889D01*
X8093991Y-9109889D02*
X8084467Y-9128936D01*
X8084467Y-9128936D02*
X8074944Y-9138460D01*
X8074944Y-9138460D02*
X8055896Y-9147984D01*
X8055896Y-9147984D02*
X8036848Y-9147984D01*
X8036848Y-9147984D02*
X8017801Y-9138460D01*
X8017801Y-9138460D02*
X8008277Y-9128936D01*
X8008277Y-9128936D02*
X7998753Y-9109889D01*
X7998753Y-9109889D02*
X7989229Y-9071793D01*
X7989229Y-9071793D02*
X7989229Y-9024174D01*
X7989229Y-9024174D02*
X7998753Y-8986079D01*
X7998753Y-8986079D02*
X8008277Y-8967031D01*
X8008277Y-8967031D02*
X8017801Y-8957508D01*
X8017801Y-8957508D02*
X8036848Y-8947984D01*
X8179706Y-8967031D02*
X8189229Y-8957508D01*
X8189229Y-8957508D02*
X8208277Y-8947984D01*
X8208277Y-8947984D02*
X8255896Y-8947984D01*
X8255896Y-8947984D02*
X8274944Y-8957508D01*
X8274944Y-8957508D02*
X8284467Y-8967031D01*
X8284467Y-8967031D02*
X8293991Y-8986079D01*
X8293991Y-8986079D02*
X8293991Y-9005127D01*
X8293991Y-9005127D02*
X8284467Y-9033698D01*
X8284467Y-9033698D02*
X8170182Y-9147984D01*
X8170182Y-9147984D02*
X8293991Y-9147984D01*
X8389229Y-9147984D02*
X8427325Y-9147984D01*
X8427325Y-9147984D02*
X8446372Y-9138460D01*
X8446372Y-9138460D02*
X8455896Y-9128936D01*
X8455896Y-9128936D02*
X8474944Y-9100365D01*
X8474944Y-9100365D02*
X8484468Y-9062270D01*
X8484468Y-9062270D02*
X8484468Y-8986079D01*
X8484468Y-8986079D02*
X8474944Y-8967031D01*
X8474944Y-8967031D02*
X8465420Y-8957508D01*
X8465420Y-8957508D02*
X8446372Y-8947984D01*
X8446372Y-8947984D02*
X8408277Y-8947984D01*
X8408277Y-8947984D02*
X8389229Y-8957508D01*
X8389229Y-8957508D02*
X8379706Y-8967031D01*
X8379706Y-8967031D02*
X8370182Y-8986079D01*
X8370182Y-8986079D02*
X8370182Y-9033698D01*
X8370182Y-9033698D02*
X8379706Y-9052746D01*
X8379706Y-9052746D02*
X8389229Y-9062270D01*
X8389229Y-9062270D02*
X8408277Y-9071793D01*
X8408277Y-9071793D02*
X8446372Y-9071793D01*
X8446372Y-9071793D02*
X8465420Y-9062270D01*
X8465420Y-9062270D02*
X8474944Y-9052746D01*
X8474944Y-9052746D02*
X8484468Y-9033698D01*
X8579706Y-9147984D02*
X8617801Y-9147984D01*
X8617801Y-9147984D02*
X8636849Y-9138460D01*
X8636849Y-9138460D02*
X8646372Y-9128936D01*
X8646372Y-9128936D02*
X8665420Y-9100365D01*
X8665420Y-9100365D02*
X8674944Y-9062270D01*
X8674944Y-9062270D02*
X8674944Y-8986079D01*
X8674944Y-8986079D02*
X8665420Y-8967031D01*
X8665420Y-8967031D02*
X8655896Y-8957508D01*
X8655896Y-8957508D02*
X8636849Y-8947984D01*
X8636849Y-8947984D02*
X8598753Y-8947984D01*
X8598753Y-8947984D02*
X8579706Y-8957508D01*
X8579706Y-8957508D02*
X8570182Y-8967031D01*
X8570182Y-8967031D02*
X8560658Y-8986079D01*
X8560658Y-8986079D02*
X8560658Y-9033698D01*
X8560658Y-9033698D02*
X8570182Y-9052746D01*
X8570182Y-9052746D02*
X8579706Y-9062270D01*
X8579706Y-9062270D02*
X8598753Y-9071793D01*
X8598753Y-9071793D02*
X8636849Y-9071793D01*
X8636849Y-9071793D02*
X8655896Y-9062270D01*
X8655896Y-9062270D02*
X8665420Y-9052746D01*
X8665420Y-9052746D02*
X8674944Y-9033698D01*
X8751134Y-8947984D02*
X8751134Y-8986079D01*
X8827325Y-8947984D02*
X8827325Y-8986079D01*
X9122563Y-9224174D02*
X9113039Y-9214650D01*
X9113039Y-9214650D02*
X9093991Y-9186079D01*
X9093991Y-9186079D02*
X9084468Y-9167031D01*
X9084468Y-9167031D02*
X9074944Y-9138460D01*
X9074944Y-9138460D02*
X9065420Y-9090841D01*
X9065420Y-9090841D02*
X9065420Y-9052746D01*
X9065420Y-9052746D02*
X9074944Y-9005127D01*
X9074944Y-9005127D02*
X9084468Y-8976555D01*
X9084468Y-8976555D02*
X9093991Y-8957508D01*
X9093991Y-8957508D02*
X9113039Y-8928936D01*
X9113039Y-8928936D02*
X9122563Y-8919412D01*
X9227325Y-9033698D02*
X9208277Y-9024174D01*
X9208277Y-9024174D02*
X9198753Y-9014650D01*
X9198753Y-9014650D02*
X9189230Y-8995603D01*
X9189230Y-8995603D02*
X9189230Y-8986079D01*
X9189230Y-8986079D02*
X9198753Y-8967031D01*
X9198753Y-8967031D02*
X9208277Y-8957508D01*
X9208277Y-8957508D02*
X9227325Y-8947984D01*
X9227325Y-8947984D02*
X9265420Y-8947984D01*
X9265420Y-8947984D02*
X9284468Y-8957508D01*
X9284468Y-8957508D02*
X9293991Y-8967031D01*
X9293991Y-8967031D02*
X9303515Y-8986079D01*
X9303515Y-8986079D02*
X9303515Y-8995603D01*
X9303515Y-8995603D02*
X9293991Y-9014650D01*
X9293991Y-9014650D02*
X9284468Y-9024174D01*
X9284468Y-9024174D02*
X9265420Y-9033698D01*
X9265420Y-9033698D02*
X9227325Y-9033698D01*
X9227325Y-9033698D02*
X9208277Y-9043222D01*
X9208277Y-9043222D02*
X9198753Y-9052746D01*
X9198753Y-9052746D02*
X9189230Y-9071793D01*
X9189230Y-9071793D02*
X9189230Y-9109889D01*
X9189230Y-9109889D02*
X9198753Y-9128936D01*
X9198753Y-9128936D02*
X9208277Y-9138460D01*
X9208277Y-9138460D02*
X9227325Y-9147984D01*
X9227325Y-9147984D02*
X9265420Y-9147984D01*
X9265420Y-9147984D02*
X9284468Y-9138460D01*
X9284468Y-9138460D02*
X9293991Y-9128936D01*
X9293991Y-9128936D02*
X9303515Y-9109889D01*
X9303515Y-9109889D02*
X9303515Y-9071793D01*
X9303515Y-9071793D02*
X9293991Y-9052746D01*
X9293991Y-9052746D02*
X9284468Y-9043222D01*
X9284468Y-9043222D02*
X9265420Y-9033698D01*
X9541611Y-9147984D02*
X9541611Y-8947984D01*
X9627325Y-9147984D02*
X9627325Y-9043222D01*
X9627325Y-9043222D02*
X9617801Y-9024174D01*
X9617801Y-9024174D02*
X9598753Y-9014650D01*
X9598753Y-9014650D02*
X9570182Y-9014650D01*
X9570182Y-9014650D02*
X9551134Y-9024174D01*
X9551134Y-9024174D02*
X9541611Y-9033698D01*
X9751134Y-9147984D02*
X9732087Y-9138460D01*
X9732087Y-9138460D02*
X9722563Y-9128936D01*
X9722563Y-9128936D02*
X9713039Y-9109889D01*
X9713039Y-9109889D02*
X9713039Y-9052746D01*
X9713039Y-9052746D02*
X9722563Y-9033698D01*
X9722563Y-9033698D02*
X9732087Y-9024174D01*
X9732087Y-9024174D02*
X9751134Y-9014650D01*
X9751134Y-9014650D02*
X9779706Y-9014650D01*
X9779706Y-9014650D02*
X9798753Y-9024174D01*
X9798753Y-9024174D02*
X9808277Y-9033698D01*
X9808277Y-9033698D02*
X9817801Y-9052746D01*
X9817801Y-9052746D02*
X9817801Y-9109889D01*
X9817801Y-9109889D02*
X9808277Y-9128936D01*
X9808277Y-9128936D02*
X9798753Y-9138460D01*
X9798753Y-9138460D02*
X9779706Y-9147984D01*
X9779706Y-9147984D02*
X9751134Y-9147984D01*
X9932087Y-9147984D02*
X9913039Y-9138460D01*
X9913039Y-9138460D02*
X9903515Y-9119412D01*
X9903515Y-9119412D02*
X9903515Y-8947984D01*
X10084468Y-9138460D02*
X10065420Y-9147984D01*
X10065420Y-9147984D02*
X10027325Y-9147984D01*
X10027325Y-9147984D02*
X10008277Y-9138460D01*
X10008277Y-9138460D02*
X9998753Y-9119412D01*
X9998753Y-9119412D02*
X9998753Y-9043222D01*
X9998753Y-9043222D02*
X10008277Y-9024174D01*
X10008277Y-9024174D02*
X10027325Y-9014650D01*
X10027325Y-9014650D02*
X10065420Y-9014650D01*
X10065420Y-9014650D02*
X10084468Y-9024174D01*
X10084468Y-9024174D02*
X10093992Y-9043222D01*
X10093992Y-9043222D02*
X10093992Y-9062270D01*
X10093992Y-9062270D02*
X9998753Y-9081317D01*
X10170182Y-9138460D02*
X10189230Y-9147984D01*
X10189230Y-9147984D02*
X10227325Y-9147984D01*
X10227325Y-9147984D02*
X10246373Y-9138460D01*
X10246373Y-9138460D02*
X10255896Y-9119412D01*
X10255896Y-9119412D02*
X10255896Y-9109889D01*
X10255896Y-9109889D02*
X10246373Y-9090841D01*
X10246373Y-9090841D02*
X10227325Y-9081317D01*
X10227325Y-9081317D02*
X10198753Y-9081317D01*
X10198753Y-9081317D02*
X10179706Y-9071793D01*
X10179706Y-9071793D02*
X10170182Y-9052746D01*
X10170182Y-9052746D02*
X10170182Y-9043222D01*
X10170182Y-9043222D02*
X10179706Y-9024174D01*
X10179706Y-9024174D02*
X10198753Y-9014650D01*
X10198753Y-9014650D02*
X10227325Y-9014650D01*
X10227325Y-9014650D02*
X10246373Y-9024174D01*
X10322563Y-9224174D02*
X10332087Y-9214650D01*
X10332087Y-9214650D02*
X10351134Y-9186079D01*
X10351134Y-9186079D02*
X10360658Y-9167031D01*
X10360658Y-9167031D02*
X10370182Y-9138460D01*
X10370182Y-9138460D02*
X10379706Y-9090841D01*
X10379706Y-9090841D02*
X10379706Y-9052746D01*
X10379706Y-9052746D02*
X10370182Y-9005127D01*
X10370182Y-9005127D02*
X10360658Y-8976555D01*
X10360658Y-8976555D02*
X10351134Y-8957508D01*
X10351134Y-8957508D02*
X10332087Y-8928936D01*
X10332087Y-8928936D02*
X10322563Y-8919412D01*
D12*
X5497500Y-9270500D02*
X5497500Y-9370500D01*
X5447500Y-9320500D02*
X5547500Y-9320500D01*
D11*
X5913039Y-9411984D02*
X5798753Y-9411984D01*
X5855896Y-9411984D02*
X5855896Y-9211984D01*
X5855896Y-9211984D02*
X5836848Y-9240555D01*
X5836848Y-9240555D02*
X5817801Y-9259603D01*
X5817801Y-9259603D02*
X5798753Y-9269127D01*
X5998753Y-9392936D02*
X6008277Y-9402460D01*
X6008277Y-9402460D02*
X5998753Y-9411984D01*
X5998753Y-9411984D02*
X5989229Y-9402460D01*
X5989229Y-9402460D02*
X5998753Y-9392936D01*
X5998753Y-9392936D02*
X5998753Y-9411984D01*
X6132086Y-9211984D02*
X6151134Y-9211984D01*
X6151134Y-9211984D02*
X6170182Y-9221508D01*
X6170182Y-9221508D02*
X6179705Y-9231031D01*
X6179705Y-9231031D02*
X6189229Y-9250079D01*
X6189229Y-9250079D02*
X6198753Y-9288174D01*
X6198753Y-9288174D02*
X6198753Y-9335793D01*
X6198753Y-9335793D02*
X6189229Y-9373889D01*
X6189229Y-9373889D02*
X6179705Y-9392936D01*
X6179705Y-9392936D02*
X6170182Y-9402460D01*
X6170182Y-9402460D02*
X6151134Y-9411984D01*
X6151134Y-9411984D02*
X6132086Y-9411984D01*
X6132086Y-9411984D02*
X6113039Y-9402460D01*
X6113039Y-9402460D02*
X6103515Y-9392936D01*
X6103515Y-9392936D02*
X6093991Y-9373889D01*
X6093991Y-9373889D02*
X6084467Y-9335793D01*
X6084467Y-9335793D02*
X6084467Y-9288174D01*
X6084467Y-9288174D02*
X6093991Y-9250079D01*
X6093991Y-9250079D02*
X6103515Y-9231031D01*
X6103515Y-9231031D02*
X6113039Y-9221508D01*
X6113039Y-9221508D02*
X6132086Y-9211984D01*
X6322562Y-9211984D02*
X6341610Y-9211984D01*
X6341610Y-9211984D02*
X6360658Y-9221508D01*
X6360658Y-9221508D02*
X6370182Y-9231031D01*
X6370182Y-9231031D02*
X6379705Y-9250079D01*
X6379705Y-9250079D02*
X6389229Y-9288174D01*
X6389229Y-9288174D02*
X6389229Y-9335793D01*
X6389229Y-9335793D02*
X6379705Y-9373889D01*
X6379705Y-9373889D02*
X6370182Y-9392936D01*
X6370182Y-9392936D02*
X6360658Y-9402460D01*
X6360658Y-9402460D02*
X6341610Y-9411984D01*
X6341610Y-9411984D02*
X6322562Y-9411984D01*
X6322562Y-9411984D02*
X6303515Y-9402460D01*
X6303515Y-9402460D02*
X6293991Y-9392936D01*
X6293991Y-9392936D02*
X6284467Y-9373889D01*
X6284467Y-9373889D02*
X6274943Y-9335793D01*
X6274943Y-9335793D02*
X6274943Y-9288174D01*
X6274943Y-9288174D02*
X6284467Y-9250079D01*
X6284467Y-9250079D02*
X6293991Y-9231031D01*
X6293991Y-9231031D02*
X6303515Y-9221508D01*
X6303515Y-9221508D02*
X6322562Y-9211984D01*
X6513039Y-9211984D02*
X6532086Y-9211984D01*
X6532086Y-9211984D02*
X6551134Y-9221508D01*
X6551134Y-9221508D02*
X6560658Y-9231031D01*
X6560658Y-9231031D02*
X6570182Y-9250079D01*
X6570182Y-9250079D02*
X6579705Y-9288174D01*
X6579705Y-9288174D02*
X6579705Y-9335793D01*
X6579705Y-9335793D02*
X6570182Y-9373889D01*
X6570182Y-9373889D02*
X6560658Y-9392936D01*
X6560658Y-9392936D02*
X6551134Y-9402460D01*
X6551134Y-9402460D02*
X6532086Y-9411984D01*
X6532086Y-9411984D02*
X6513039Y-9411984D01*
X6513039Y-9411984D02*
X6493991Y-9402460D01*
X6493991Y-9402460D02*
X6484467Y-9392936D01*
X6484467Y-9392936D02*
X6474943Y-9373889D01*
X6474943Y-9373889D02*
X6465420Y-9335793D01*
X6465420Y-9335793D02*
X6465420Y-9288174D01*
X6465420Y-9288174D02*
X6474943Y-9250079D01*
X6474943Y-9250079D02*
X6484467Y-9231031D01*
X6484467Y-9231031D02*
X6493991Y-9221508D01*
X6493991Y-9221508D02*
X6513039Y-9211984D01*
X6665420Y-9411984D02*
X6665420Y-9278650D01*
X6665420Y-9297698D02*
X6674943Y-9288174D01*
X6674943Y-9288174D02*
X6693991Y-9278650D01*
X6693991Y-9278650D02*
X6722563Y-9278650D01*
X6722563Y-9278650D02*
X6741610Y-9288174D01*
X6741610Y-9288174D02*
X6751134Y-9307222D01*
X6751134Y-9307222D02*
X6751134Y-9411984D01*
X6751134Y-9307222D02*
X6760658Y-9288174D01*
X6760658Y-9288174D02*
X6779705Y-9278650D01*
X6779705Y-9278650D02*
X6808277Y-9278650D01*
X6808277Y-9278650D02*
X6827324Y-9288174D01*
X6827324Y-9288174D02*
X6836848Y-9307222D01*
X6836848Y-9307222D02*
X6836848Y-9411984D01*
X6932086Y-9411984D02*
X6932086Y-9278650D01*
X6932086Y-9297698D02*
X6941610Y-9288174D01*
X6941610Y-9288174D02*
X6960658Y-9278650D01*
X6960658Y-9278650D02*
X6989229Y-9278650D01*
X6989229Y-9278650D02*
X7008277Y-9288174D01*
X7008277Y-9288174D02*
X7017801Y-9307222D01*
X7017801Y-9307222D02*
X7017801Y-9411984D01*
X7017801Y-9307222D02*
X7027324Y-9288174D01*
X7027324Y-9288174D02*
X7046372Y-9278650D01*
X7046372Y-9278650D02*
X7074943Y-9278650D01*
X7074943Y-9278650D02*
X7093991Y-9288174D01*
X7093991Y-9288174D02*
X7103515Y-9307222D01*
X7103515Y-9307222D02*
X7103515Y-9411984D01*
X7493991Y-9202460D02*
X7322563Y-9459603D01*
X7751134Y-9211984D02*
X7770182Y-9211984D01*
X7770182Y-9211984D02*
X7789229Y-9221508D01*
X7789229Y-9221508D02*
X7798753Y-9231031D01*
X7798753Y-9231031D02*
X7808277Y-9250079D01*
X7808277Y-9250079D02*
X7817801Y-9288174D01*
X7817801Y-9288174D02*
X7817801Y-9335793D01*
X7817801Y-9335793D02*
X7808277Y-9373889D01*
X7808277Y-9373889D02*
X7798753Y-9392936D01*
X7798753Y-9392936D02*
X7789229Y-9402460D01*
X7789229Y-9402460D02*
X7770182Y-9411984D01*
X7770182Y-9411984D02*
X7751134Y-9411984D01*
X7751134Y-9411984D02*
X7732086Y-9402460D01*
X7732086Y-9402460D02*
X7722563Y-9392936D01*
X7722563Y-9392936D02*
X7713039Y-9373889D01*
X7713039Y-9373889D02*
X7703515Y-9335793D01*
X7703515Y-9335793D02*
X7703515Y-9288174D01*
X7703515Y-9288174D02*
X7713039Y-9250079D01*
X7713039Y-9250079D02*
X7722563Y-9231031D01*
X7722563Y-9231031D02*
X7732086Y-9221508D01*
X7732086Y-9221508D02*
X7751134Y-9211984D01*
X7903515Y-9392936D02*
X7913039Y-9402460D01*
X7913039Y-9402460D02*
X7903515Y-9411984D01*
X7903515Y-9411984D02*
X7893991Y-9402460D01*
X7893991Y-9402460D02*
X7903515Y-9392936D01*
X7903515Y-9392936D02*
X7903515Y-9411984D01*
X8036848Y-9211984D02*
X8055896Y-9211984D01*
X8055896Y-9211984D02*
X8074944Y-9221508D01*
X8074944Y-9221508D02*
X8084467Y-9231031D01*
X8084467Y-9231031D02*
X8093991Y-9250079D01*
X8093991Y-9250079D02*
X8103515Y-9288174D01*
X8103515Y-9288174D02*
X8103515Y-9335793D01*
X8103515Y-9335793D02*
X8093991Y-9373889D01*
X8093991Y-9373889D02*
X8084467Y-9392936D01*
X8084467Y-9392936D02*
X8074944Y-9402460D01*
X8074944Y-9402460D02*
X8055896Y-9411984D01*
X8055896Y-9411984D02*
X8036848Y-9411984D01*
X8036848Y-9411984D02*
X8017801Y-9402460D01*
X8017801Y-9402460D02*
X8008277Y-9392936D01*
X8008277Y-9392936D02*
X7998753Y-9373889D01*
X7998753Y-9373889D02*
X7989229Y-9335793D01*
X7989229Y-9335793D02*
X7989229Y-9288174D01*
X7989229Y-9288174D02*
X7998753Y-9250079D01*
X7998753Y-9250079D02*
X8008277Y-9231031D01*
X8008277Y-9231031D02*
X8017801Y-9221508D01*
X8017801Y-9221508D02*
X8036848Y-9211984D01*
X8170182Y-9211984D02*
X8293991Y-9211984D01*
X8293991Y-9211984D02*
X8227325Y-9288174D01*
X8227325Y-9288174D02*
X8255896Y-9288174D01*
X8255896Y-9288174D02*
X8274944Y-9297698D01*
X8274944Y-9297698D02*
X8284467Y-9307222D01*
X8284467Y-9307222D02*
X8293991Y-9326270D01*
X8293991Y-9326270D02*
X8293991Y-9373889D01*
X8293991Y-9373889D02*
X8284467Y-9392936D01*
X8284467Y-9392936D02*
X8274944Y-9402460D01*
X8274944Y-9402460D02*
X8255896Y-9411984D01*
X8255896Y-9411984D02*
X8198753Y-9411984D01*
X8198753Y-9411984D02*
X8179706Y-9402460D01*
X8179706Y-9402460D02*
X8170182Y-9392936D01*
X8389229Y-9411984D02*
X8427325Y-9411984D01*
X8427325Y-9411984D02*
X8446372Y-9402460D01*
X8446372Y-9402460D02*
X8455896Y-9392936D01*
X8455896Y-9392936D02*
X8474944Y-9364365D01*
X8474944Y-9364365D02*
X8484468Y-9326270D01*
X8484468Y-9326270D02*
X8484468Y-9250079D01*
X8484468Y-9250079D02*
X8474944Y-9231031D01*
X8474944Y-9231031D02*
X8465420Y-9221508D01*
X8465420Y-9221508D02*
X8446372Y-9211984D01*
X8446372Y-9211984D02*
X8408277Y-9211984D01*
X8408277Y-9211984D02*
X8389229Y-9221508D01*
X8389229Y-9221508D02*
X8379706Y-9231031D01*
X8379706Y-9231031D02*
X8370182Y-9250079D01*
X8370182Y-9250079D02*
X8370182Y-9297698D01*
X8370182Y-9297698D02*
X8379706Y-9316746D01*
X8379706Y-9316746D02*
X8389229Y-9326270D01*
X8389229Y-9326270D02*
X8408277Y-9335793D01*
X8408277Y-9335793D02*
X8446372Y-9335793D01*
X8446372Y-9335793D02*
X8465420Y-9326270D01*
X8465420Y-9326270D02*
X8474944Y-9316746D01*
X8474944Y-9316746D02*
X8484468Y-9297698D01*
X8655896Y-9278650D02*
X8655896Y-9411984D01*
X8608277Y-9202460D02*
X8560658Y-9345317D01*
X8560658Y-9345317D02*
X8684468Y-9345317D01*
X8751134Y-9211984D02*
X8751134Y-9250079D01*
X8827325Y-9211984D02*
X8827325Y-9250079D01*
X9122563Y-9488174D02*
X9113039Y-9478650D01*
X9113039Y-9478650D02*
X9093991Y-9450079D01*
X9093991Y-9450079D02*
X9084468Y-9431031D01*
X9084468Y-9431031D02*
X9074944Y-9402460D01*
X9074944Y-9402460D02*
X9065420Y-9354841D01*
X9065420Y-9354841D02*
X9065420Y-9316746D01*
X9065420Y-9316746D02*
X9074944Y-9269127D01*
X9074944Y-9269127D02*
X9084468Y-9240555D01*
X9084468Y-9240555D02*
X9093991Y-9221508D01*
X9093991Y-9221508D02*
X9113039Y-9192936D01*
X9113039Y-9192936D02*
X9122563Y-9183412D01*
X9303515Y-9411984D02*
X9189230Y-9411984D01*
X9246372Y-9411984D02*
X9246372Y-9211984D01*
X9246372Y-9211984D02*
X9227325Y-9240555D01*
X9227325Y-9240555D02*
X9208277Y-9259603D01*
X9208277Y-9259603D02*
X9189230Y-9269127D01*
X9427325Y-9211984D02*
X9446372Y-9211984D01*
X9446372Y-9211984D02*
X9465420Y-9221508D01*
X9465420Y-9221508D02*
X9474944Y-9231031D01*
X9474944Y-9231031D02*
X9484468Y-9250079D01*
X9484468Y-9250079D02*
X9493991Y-9288174D01*
X9493991Y-9288174D02*
X9493991Y-9335793D01*
X9493991Y-9335793D02*
X9484468Y-9373889D01*
X9484468Y-9373889D02*
X9474944Y-9392936D01*
X9474944Y-9392936D02*
X9465420Y-9402460D01*
X9465420Y-9402460D02*
X9446372Y-9411984D01*
X9446372Y-9411984D02*
X9427325Y-9411984D01*
X9427325Y-9411984D02*
X9408277Y-9402460D01*
X9408277Y-9402460D02*
X9398753Y-9392936D01*
X9398753Y-9392936D02*
X9389230Y-9373889D01*
X9389230Y-9373889D02*
X9379706Y-9335793D01*
X9379706Y-9335793D02*
X9379706Y-9288174D01*
X9379706Y-9288174D02*
X9389230Y-9250079D01*
X9389230Y-9250079D02*
X9398753Y-9231031D01*
X9398753Y-9231031D02*
X9408277Y-9221508D01*
X9408277Y-9221508D02*
X9427325Y-9211984D01*
X9732087Y-9411984D02*
X9732087Y-9211984D01*
X9817801Y-9411984D02*
X9817801Y-9307222D01*
X9817801Y-9307222D02*
X9808277Y-9288174D01*
X9808277Y-9288174D02*
X9789230Y-9278650D01*
X9789230Y-9278650D02*
X9760658Y-9278650D01*
X9760658Y-9278650D02*
X9741611Y-9288174D01*
X9741611Y-9288174D02*
X9732087Y-9297698D01*
X9941611Y-9411984D02*
X9922563Y-9402460D01*
X9922563Y-9402460D02*
X9913039Y-9392936D01*
X9913039Y-9392936D02*
X9903515Y-9373889D01*
X9903515Y-9373889D02*
X9903515Y-9316746D01*
X9903515Y-9316746D02*
X9913039Y-9297698D01*
X9913039Y-9297698D02*
X9922563Y-9288174D01*
X9922563Y-9288174D02*
X9941611Y-9278650D01*
X9941611Y-9278650D02*
X9970182Y-9278650D01*
X9970182Y-9278650D02*
X9989230Y-9288174D01*
X9989230Y-9288174D02*
X9998753Y-9297698D01*
X9998753Y-9297698D02*
X10008277Y-9316746D01*
X10008277Y-9316746D02*
X10008277Y-9373889D01*
X10008277Y-9373889D02*
X9998753Y-9392936D01*
X9998753Y-9392936D02*
X9989230Y-9402460D01*
X9989230Y-9402460D02*
X9970182Y-9411984D01*
X9970182Y-9411984D02*
X9941611Y-9411984D01*
X10122563Y-9411984D02*
X10103515Y-9402460D01*
X10103515Y-9402460D02*
X10093992Y-9383412D01*
X10093992Y-9383412D02*
X10093992Y-9211984D01*
X10274944Y-9402460D02*
X10255896Y-9411984D01*
X10255896Y-9411984D02*
X10217801Y-9411984D01*
X10217801Y-9411984D02*
X10198753Y-9402460D01*
X10198753Y-9402460D02*
X10189230Y-9383412D01*
X10189230Y-9383412D02*
X10189230Y-9307222D01*
X10189230Y-9307222D02*
X10198753Y-9288174D01*
X10198753Y-9288174D02*
X10217801Y-9278650D01*
X10217801Y-9278650D02*
X10255896Y-9278650D01*
X10255896Y-9278650D02*
X10274944Y-9288174D01*
X10274944Y-9288174D02*
X10284468Y-9307222D01*
X10284468Y-9307222D02*
X10284468Y-9326270D01*
X10284468Y-9326270D02*
X10189230Y-9345317D01*
X10360658Y-9402460D02*
X10379706Y-9411984D01*
X10379706Y-9411984D02*
X10417801Y-9411984D01*
X10417801Y-9411984D02*
X10436849Y-9402460D01*
X10436849Y-9402460D02*
X10446373Y-9383412D01*
X10446373Y-9383412D02*
X10446373Y-9373889D01*
X10446373Y-9373889D02*
X10436849Y-9354841D01*
X10436849Y-9354841D02*
X10417801Y-9345317D01*
X10417801Y-9345317D02*
X10389230Y-9345317D01*
X10389230Y-9345317D02*
X10370182Y-9335793D01*
X10370182Y-9335793D02*
X10360658Y-9316746D01*
X10360658Y-9316746D02*
X10360658Y-9307222D01*
X10360658Y-9307222D02*
X10370182Y-9288174D01*
X10370182Y-9288174D02*
X10389230Y-9278650D01*
X10389230Y-9278650D02*
X10417801Y-9278650D01*
X10417801Y-9278650D02*
X10436849Y-9288174D01*
X10513039Y-9488174D02*
X10522563Y-9478650D01*
X10522563Y-9478650D02*
X10541611Y-9450079D01*
X10541611Y-9450079D02*
X10551134Y-9431031D01*
X10551134Y-9431031D02*
X10560658Y-9402460D01*
X10560658Y-9402460D02*
X10570182Y-9354841D01*
X10570182Y-9354841D02*
X10570182Y-9316746D01*
X10570182Y-9316746D02*
X10560658Y-9269127D01*
X10560658Y-9269127D02*
X10551134Y-9240555D01*
X10551134Y-9240555D02*
X10541611Y-9221508D01*
X10541611Y-9221508D02*
X10522563Y-9192936D01*
X10522563Y-9192936D02*
X10513039Y-9183412D01*
D13*
X5532563Y-9620563D02*
X5532563Y-9548437D01*
X5460437Y-9548437D01*
X5460437Y-9620563D01*
X5532563Y-9620563D01*
D11*
X5913039Y-9675984D02*
X5798753Y-9675984D01*
X5855896Y-9675984D02*
X5855896Y-9475984D01*
X5855896Y-9475984D02*
X5836848Y-9504555D01*
X5836848Y-9504555D02*
X5817801Y-9523603D01*
X5817801Y-9523603D02*
X5798753Y-9533127D01*
X5998753Y-9656936D02*
X6008277Y-9666460D01*
X6008277Y-9666460D02*
X5998753Y-9675984D01*
X5998753Y-9675984D02*
X5989229Y-9666460D01*
X5989229Y-9666460D02*
X5998753Y-9656936D01*
X5998753Y-9656936D02*
X5998753Y-9675984D01*
X6132086Y-9475984D02*
X6151134Y-9475984D01*
X6151134Y-9475984D02*
X6170182Y-9485508D01*
X6170182Y-9485508D02*
X6179705Y-9495031D01*
X6179705Y-9495031D02*
X6189229Y-9514079D01*
X6189229Y-9514079D02*
X6198753Y-9552174D01*
X6198753Y-9552174D02*
X6198753Y-9599793D01*
X6198753Y-9599793D02*
X6189229Y-9637889D01*
X6189229Y-9637889D02*
X6179705Y-9656936D01*
X6179705Y-9656936D02*
X6170182Y-9666460D01*
X6170182Y-9666460D02*
X6151134Y-9675984D01*
X6151134Y-9675984D02*
X6132086Y-9675984D01*
X6132086Y-9675984D02*
X6113039Y-9666460D01*
X6113039Y-9666460D02*
X6103515Y-9656936D01*
X6103515Y-9656936D02*
X6093991Y-9637889D01*
X6093991Y-9637889D02*
X6084467Y-9599793D01*
X6084467Y-9599793D02*
X6084467Y-9552174D01*
X6084467Y-9552174D02*
X6093991Y-9514079D01*
X6093991Y-9514079D02*
X6103515Y-9495031D01*
X6103515Y-9495031D02*
X6113039Y-9485508D01*
X6113039Y-9485508D02*
X6132086Y-9475984D01*
X6274943Y-9495031D02*
X6284467Y-9485508D01*
X6284467Y-9485508D02*
X6303515Y-9475984D01*
X6303515Y-9475984D02*
X6351134Y-9475984D01*
X6351134Y-9475984D02*
X6370182Y-9485508D01*
X6370182Y-9485508D02*
X6379705Y-9495031D01*
X6379705Y-9495031D02*
X6389229Y-9514079D01*
X6389229Y-9514079D02*
X6389229Y-9533127D01*
X6389229Y-9533127D02*
X6379705Y-9561698D01*
X6379705Y-9561698D02*
X6265420Y-9675984D01*
X6265420Y-9675984D02*
X6389229Y-9675984D01*
X6513039Y-9475984D02*
X6532086Y-9475984D01*
X6532086Y-9475984D02*
X6551134Y-9485508D01*
X6551134Y-9485508D02*
X6560658Y-9495031D01*
X6560658Y-9495031D02*
X6570182Y-9514079D01*
X6570182Y-9514079D02*
X6579705Y-9552174D01*
X6579705Y-9552174D02*
X6579705Y-9599793D01*
X6579705Y-9599793D02*
X6570182Y-9637889D01*
X6570182Y-9637889D02*
X6560658Y-9656936D01*
X6560658Y-9656936D02*
X6551134Y-9666460D01*
X6551134Y-9666460D02*
X6532086Y-9675984D01*
X6532086Y-9675984D02*
X6513039Y-9675984D01*
X6513039Y-9675984D02*
X6493991Y-9666460D01*
X6493991Y-9666460D02*
X6484467Y-9656936D01*
X6484467Y-9656936D02*
X6474943Y-9637889D01*
X6474943Y-9637889D02*
X6465420Y-9599793D01*
X6465420Y-9599793D02*
X6465420Y-9552174D01*
X6465420Y-9552174D02*
X6474943Y-9514079D01*
X6474943Y-9514079D02*
X6484467Y-9495031D01*
X6484467Y-9495031D02*
X6493991Y-9485508D01*
X6493991Y-9485508D02*
X6513039Y-9475984D01*
X6665420Y-9675984D02*
X6665420Y-9542650D01*
X6665420Y-9561698D02*
X6674943Y-9552174D01*
X6674943Y-9552174D02*
X6693991Y-9542650D01*
X6693991Y-9542650D02*
X6722563Y-9542650D01*
X6722563Y-9542650D02*
X6741610Y-9552174D01*
X6741610Y-9552174D02*
X6751134Y-9571222D01*
X6751134Y-9571222D02*
X6751134Y-9675984D01*
X6751134Y-9571222D02*
X6760658Y-9552174D01*
X6760658Y-9552174D02*
X6779705Y-9542650D01*
X6779705Y-9542650D02*
X6808277Y-9542650D01*
X6808277Y-9542650D02*
X6827324Y-9552174D01*
X6827324Y-9552174D02*
X6836848Y-9571222D01*
X6836848Y-9571222D02*
X6836848Y-9675984D01*
X6932086Y-9675984D02*
X6932086Y-9542650D01*
X6932086Y-9561698D02*
X6941610Y-9552174D01*
X6941610Y-9552174D02*
X6960658Y-9542650D01*
X6960658Y-9542650D02*
X6989229Y-9542650D01*
X6989229Y-9542650D02*
X7008277Y-9552174D01*
X7008277Y-9552174D02*
X7017801Y-9571222D01*
X7017801Y-9571222D02*
X7017801Y-9675984D01*
X7017801Y-9571222D02*
X7027324Y-9552174D01*
X7027324Y-9552174D02*
X7046372Y-9542650D01*
X7046372Y-9542650D02*
X7074943Y-9542650D01*
X7074943Y-9542650D02*
X7093991Y-9552174D01*
X7093991Y-9552174D02*
X7103515Y-9571222D01*
X7103515Y-9571222D02*
X7103515Y-9675984D01*
X7493991Y-9466460D02*
X7322563Y-9723603D01*
X7751134Y-9475984D02*
X7770182Y-9475984D01*
X7770182Y-9475984D02*
X7789229Y-9485508D01*
X7789229Y-9485508D02*
X7798753Y-9495031D01*
X7798753Y-9495031D02*
X7808277Y-9514079D01*
X7808277Y-9514079D02*
X7817801Y-9552174D01*
X7817801Y-9552174D02*
X7817801Y-9599793D01*
X7817801Y-9599793D02*
X7808277Y-9637889D01*
X7808277Y-9637889D02*
X7798753Y-9656936D01*
X7798753Y-9656936D02*
X7789229Y-9666460D01*
X7789229Y-9666460D02*
X7770182Y-9675984D01*
X7770182Y-9675984D02*
X7751134Y-9675984D01*
X7751134Y-9675984D02*
X7732086Y-9666460D01*
X7732086Y-9666460D02*
X7722563Y-9656936D01*
X7722563Y-9656936D02*
X7713039Y-9637889D01*
X7713039Y-9637889D02*
X7703515Y-9599793D01*
X7703515Y-9599793D02*
X7703515Y-9552174D01*
X7703515Y-9552174D02*
X7713039Y-9514079D01*
X7713039Y-9514079D02*
X7722563Y-9495031D01*
X7722563Y-9495031D02*
X7732086Y-9485508D01*
X7732086Y-9485508D02*
X7751134Y-9475984D01*
X7903515Y-9656936D02*
X7913039Y-9666460D01*
X7913039Y-9666460D02*
X7903515Y-9675984D01*
X7903515Y-9675984D02*
X7893991Y-9666460D01*
X7893991Y-9666460D02*
X7903515Y-9656936D01*
X7903515Y-9656936D02*
X7903515Y-9675984D01*
X8036848Y-9475984D02*
X8055896Y-9475984D01*
X8055896Y-9475984D02*
X8074944Y-9485508D01*
X8074944Y-9485508D02*
X8084467Y-9495031D01*
X8084467Y-9495031D02*
X8093991Y-9514079D01*
X8093991Y-9514079D02*
X8103515Y-9552174D01*
X8103515Y-9552174D02*
X8103515Y-9599793D01*
X8103515Y-9599793D02*
X8093991Y-9637889D01*
X8093991Y-9637889D02*
X8084467Y-9656936D01*
X8084467Y-9656936D02*
X8074944Y-9666460D01*
X8074944Y-9666460D02*
X8055896Y-9675984D01*
X8055896Y-9675984D02*
X8036848Y-9675984D01*
X8036848Y-9675984D02*
X8017801Y-9666460D01*
X8017801Y-9666460D02*
X8008277Y-9656936D01*
X8008277Y-9656936D02*
X7998753Y-9637889D01*
X7998753Y-9637889D02*
X7989229Y-9599793D01*
X7989229Y-9599793D02*
X7989229Y-9552174D01*
X7989229Y-9552174D02*
X7998753Y-9514079D01*
X7998753Y-9514079D02*
X8008277Y-9495031D01*
X8008277Y-9495031D02*
X8017801Y-9485508D01*
X8017801Y-9485508D02*
X8036848Y-9475984D01*
X8274944Y-9542650D02*
X8274944Y-9675984D01*
X8227325Y-9466460D02*
X8179706Y-9609317D01*
X8179706Y-9609317D02*
X8303515Y-9609317D01*
X8417801Y-9475984D02*
X8436849Y-9475984D01*
X8436849Y-9475984D02*
X8455896Y-9485508D01*
X8455896Y-9485508D02*
X8465420Y-9495031D01*
X8465420Y-9495031D02*
X8474944Y-9514079D01*
X8474944Y-9514079D02*
X8484468Y-9552174D01*
X8484468Y-9552174D02*
X8484468Y-9599793D01*
X8484468Y-9599793D02*
X8474944Y-9637889D01*
X8474944Y-9637889D02*
X8465420Y-9656936D01*
X8465420Y-9656936D02*
X8455896Y-9666460D01*
X8455896Y-9666460D02*
X8436849Y-9675984D01*
X8436849Y-9675984D02*
X8417801Y-9675984D01*
X8417801Y-9675984D02*
X8398753Y-9666460D01*
X8398753Y-9666460D02*
X8389229Y-9656936D01*
X8389229Y-9656936D02*
X8379706Y-9637889D01*
X8379706Y-9637889D02*
X8370182Y-9599793D01*
X8370182Y-9599793D02*
X8370182Y-9552174D01*
X8370182Y-9552174D02*
X8379706Y-9514079D01*
X8379706Y-9514079D02*
X8389229Y-9495031D01*
X8389229Y-9495031D02*
X8398753Y-9485508D01*
X8398753Y-9485508D02*
X8417801Y-9475984D01*
X8560658Y-9495031D02*
X8570182Y-9485508D01*
X8570182Y-9485508D02*
X8589229Y-9475984D01*
X8589229Y-9475984D02*
X8636849Y-9475984D01*
X8636849Y-9475984D02*
X8655896Y-9485508D01*
X8655896Y-9485508D02*
X8665420Y-9495031D01*
X8665420Y-9495031D02*
X8674944Y-9514079D01*
X8674944Y-9514079D02*
X8674944Y-9533127D01*
X8674944Y-9533127D02*
X8665420Y-9561698D01*
X8665420Y-9561698D02*
X8551134Y-9675984D01*
X8551134Y-9675984D02*
X8674944Y-9675984D01*
X8751134Y-9475984D02*
X8751134Y-9514079D01*
X8827325Y-9475984D02*
X8827325Y-9514079D01*
X9122563Y-9752174D02*
X9113039Y-9742650D01*
X9113039Y-9742650D02*
X9093991Y-9714079D01*
X9093991Y-9714079D02*
X9084468Y-9695031D01*
X9084468Y-9695031D02*
X9074944Y-9666460D01*
X9074944Y-9666460D02*
X9065420Y-9618841D01*
X9065420Y-9618841D02*
X9065420Y-9580746D01*
X9065420Y-9580746D02*
X9074944Y-9533127D01*
X9074944Y-9533127D02*
X9084468Y-9504555D01*
X9084468Y-9504555D02*
X9093991Y-9485508D01*
X9093991Y-9485508D02*
X9113039Y-9456936D01*
X9113039Y-9456936D02*
X9122563Y-9447412D01*
X9284468Y-9475984D02*
X9246372Y-9475984D01*
X9246372Y-9475984D02*
X9227325Y-9485508D01*
X9227325Y-9485508D02*
X9217801Y-9495031D01*
X9217801Y-9495031D02*
X9198753Y-9523603D01*
X9198753Y-9523603D02*
X9189230Y-9561698D01*
X9189230Y-9561698D02*
X9189230Y-9637889D01*
X9189230Y-9637889D02*
X9198753Y-9656936D01*
X9198753Y-9656936D02*
X9208277Y-9666460D01*
X9208277Y-9666460D02*
X9227325Y-9675984D01*
X9227325Y-9675984D02*
X9265420Y-9675984D01*
X9265420Y-9675984D02*
X9284468Y-9666460D01*
X9284468Y-9666460D02*
X9293991Y-9656936D01*
X9293991Y-9656936D02*
X9303515Y-9637889D01*
X9303515Y-9637889D02*
X9303515Y-9590270D01*
X9303515Y-9590270D02*
X9293991Y-9571222D01*
X9293991Y-9571222D02*
X9284468Y-9561698D01*
X9284468Y-9561698D02*
X9265420Y-9552174D01*
X9265420Y-9552174D02*
X9227325Y-9552174D01*
X9227325Y-9552174D02*
X9208277Y-9561698D01*
X9208277Y-9561698D02*
X9198753Y-9571222D01*
X9198753Y-9571222D02*
X9189230Y-9590270D01*
X9541611Y-9675984D02*
X9541611Y-9475984D01*
X9627325Y-9675984D02*
X9627325Y-9571222D01*
X9627325Y-9571222D02*
X9617801Y-9552174D01*
X9617801Y-9552174D02*
X9598753Y-9542650D01*
X9598753Y-9542650D02*
X9570182Y-9542650D01*
X9570182Y-9542650D02*
X9551134Y-9552174D01*
X9551134Y-9552174D02*
X9541611Y-9561698D01*
X9751134Y-9675984D02*
X9732087Y-9666460D01*
X9732087Y-9666460D02*
X9722563Y-9656936D01*
X9722563Y-9656936D02*
X9713039Y-9637889D01*
X9713039Y-9637889D02*
X9713039Y-9580746D01*
X9713039Y-9580746D02*
X9722563Y-9561698D01*
X9722563Y-9561698D02*
X9732087Y-9552174D01*
X9732087Y-9552174D02*
X9751134Y-9542650D01*
X9751134Y-9542650D02*
X9779706Y-9542650D01*
X9779706Y-9542650D02*
X9798753Y-9552174D01*
X9798753Y-9552174D02*
X9808277Y-9561698D01*
X9808277Y-9561698D02*
X9817801Y-9580746D01*
X9817801Y-9580746D02*
X9817801Y-9637889D01*
X9817801Y-9637889D02*
X9808277Y-9656936D01*
X9808277Y-9656936D02*
X9798753Y-9666460D01*
X9798753Y-9666460D02*
X9779706Y-9675984D01*
X9779706Y-9675984D02*
X9751134Y-9675984D01*
X9932087Y-9675984D02*
X9913039Y-9666460D01*
X9913039Y-9666460D02*
X9903515Y-9647412D01*
X9903515Y-9647412D02*
X9903515Y-9475984D01*
X10084468Y-9666460D02*
X10065420Y-9675984D01*
X10065420Y-9675984D02*
X10027325Y-9675984D01*
X10027325Y-9675984D02*
X10008277Y-9666460D01*
X10008277Y-9666460D02*
X9998753Y-9647412D01*
X9998753Y-9647412D02*
X9998753Y-9571222D01*
X9998753Y-9571222D02*
X10008277Y-9552174D01*
X10008277Y-9552174D02*
X10027325Y-9542650D01*
X10027325Y-9542650D02*
X10065420Y-9542650D01*
X10065420Y-9542650D02*
X10084468Y-9552174D01*
X10084468Y-9552174D02*
X10093992Y-9571222D01*
X10093992Y-9571222D02*
X10093992Y-9590270D01*
X10093992Y-9590270D02*
X9998753Y-9609317D01*
X10170182Y-9666460D02*
X10189230Y-9675984D01*
X10189230Y-9675984D02*
X10227325Y-9675984D01*
X10227325Y-9675984D02*
X10246373Y-9666460D01*
X10246373Y-9666460D02*
X10255896Y-9647412D01*
X10255896Y-9647412D02*
X10255896Y-9637889D01*
X10255896Y-9637889D02*
X10246373Y-9618841D01*
X10246373Y-9618841D02*
X10227325Y-9609317D01*
X10227325Y-9609317D02*
X10198753Y-9609317D01*
X10198753Y-9609317D02*
X10179706Y-9599793D01*
X10179706Y-9599793D02*
X10170182Y-9580746D01*
X10170182Y-9580746D02*
X10170182Y-9571222D01*
X10170182Y-9571222D02*
X10179706Y-9552174D01*
X10179706Y-9552174D02*
X10198753Y-9542650D01*
X10198753Y-9542650D02*
X10227325Y-9542650D01*
X10227325Y-9542650D02*
X10246373Y-9552174D01*
X10322563Y-9752174D02*
X10332087Y-9742650D01*
X10332087Y-9742650D02*
X10351134Y-9714079D01*
X10351134Y-9714079D02*
X10360658Y-9695031D01*
X10360658Y-9695031D02*
X10370182Y-9666460D01*
X10370182Y-9666460D02*
X10379706Y-9618841D01*
X10379706Y-9618841D02*
X10379706Y-9580746D01*
X10379706Y-9580746D02*
X10370182Y-9533127D01*
X10370182Y-9533127D02*
X10360658Y-9504555D01*
X10360658Y-9504555D02*
X10351134Y-9485508D01*
X10351134Y-9485508D02*
X10332087Y-9456936D01*
X10332087Y-9456936D02*
X10322563Y-9447412D01*
M02*
