%TF.GenerationSoftware,KiCad,Pcbnew,10.0.6*%
%TF.CreationDate,2026-10-06T17:14:08-05:00*%
%TF.ProjectId,onboarding_1,6f6e626f-6172-4646-996e-675f312e6b69,1*%
%TF.SameCoordinates,Original*%
%TF.FileFunction,Paste,Top*%
%TF.FilePolarity,Positive*%
%FSLAX46Y46*%
G04 Gerber Fmt 4.6, Leading zero omitted, Abs format (unit mm)*
G04 Created by KiCad (PCBNEW 10.0.6) date 2026-10-06 17:14:08*
%MOMM*%
%LPD*%
G01*
G04 APERTURE LIST*
G04 Aperture macros list*
%AMRoundRect*
0 Rectangle with rounded corners*
0 $1 Rounding radius*
0 $2 $3 $4 $5 $6 $7 $8 $9 X,Y pos of 4 corners*
0 Add a 4 corners polygon primitive as box body*
4,1,4,$2,$3,$4,$5,$6,$7,$8,$9,$2,$3,0*
0 Add four circle primitives for the rounded corners*
1,1,$1+$1,$2,$3*
1,1,$1+$1,$4,$5*
1,1,$1+$1,$6,$7*
1,1,$1+$1,$8,$9*
0 Add four rect primitives between the rounded corners*
20,1,$1+$1,$2,$3,$4,$5,0*
20,1,$1+$1,$4,$5,$6,$7,0*
20,1,$1+$1,$6,$7,$8,$9,0*
20,1,$1+$1,$8,$9,$2,$3,0*%
G04 Aperture macros list end*
%ADD10RoundRect,0.200000X-0.200000X-0.380000X0.200000X-0.380000X0.200000X0.380000X-0.200000X0.380000X0*%
%ADD11RoundRect,0.060000X-0.530000X-0.060000X0.530000X-0.060000X0.530000X0.060000X-0.530000X0.060000X0*%
%ADD12RoundRect,0.060000X-0.060000X-0.530000X0.060000X-0.530000X0.060000X0.530000X-0.060000X0.530000X0*%
%ADD13RoundRect,0.200000X0.360000X-0.210000X0.360000X0.210000X-0.360000X0.210000X-0.360000X-0.210000X0*%
%ADD14R,1.280000X0.240000*%
%ADD15RoundRect,0.200000X0.380000X-0.200000X0.380000X0.200000X-0.380000X0.200000X-0.380000X-0.200000X0*%
%ADD16RoundRect,0.130000X-0.810000X-0.130000X0.810000X-0.130000X0.810000X0.130000X-0.810000X0.130000X0*%
%ADD17RoundRect,0.200000X0.210000X0.360000X-0.210000X0.360000X-0.210000X-0.360000X0.210000X-0.360000X0*%
%ADD18RoundRect,0.200000X0.200000X0.380000X-0.200000X0.380000X-0.200000X-0.380000X0.200000X-0.380000X0*%
%ADD19RoundRect,0.195000X0.195000X0.365000X-0.195000X0.365000X-0.195000X-0.365000X0.195000X-0.365000X0*%
%ADD20R,0.800000X2.560000*%
%ADD21RoundRect,0.200000X-0.380000X0.200000X-0.380000X-0.200000X0.380000X-0.200000X0.380000X0.200000X0*%
%ADD22RoundRect,0.120000X-0.410000X-0.120000X0.410000X-0.120000X0.410000X0.120000X-0.410000X0.120000X0*%
%ADD23RoundRect,0.200000X-0.210000X-0.360000X0.210000X-0.360000X0.210000X0.360000X-0.210000X0.360000X0*%
G04 APERTURE END LIST*
D10*
%TO.C,C9*%
X98550000Y-63000000D03*
X100450000Y-63000000D03*
%TD*%
D11*
%TO.C,U1*%
X65087500Y-50912500D03*
X65087500Y-51412500D03*
X65087500Y-51912500D03*
X65087500Y-52412500D03*
X65087500Y-52912500D03*
X65087500Y-53412500D03*
X65087500Y-53912500D03*
X65087500Y-54412500D03*
X65087500Y-54912500D03*
X65087500Y-55412500D03*
X65087500Y-55912500D03*
X65087500Y-56412500D03*
D12*
X66500000Y-57825000D03*
X67000000Y-57825000D03*
X67500000Y-57825000D03*
X68000000Y-57825000D03*
X68500000Y-57825000D03*
X69000000Y-57825000D03*
X69500000Y-57825000D03*
X70000000Y-57825000D03*
X70500000Y-57825000D03*
X71000000Y-57825000D03*
X71500000Y-57825000D03*
X72000000Y-57825000D03*
D11*
X73412500Y-56412500D03*
X73412500Y-55912500D03*
X73412500Y-55412500D03*
X73412500Y-54912500D03*
X73412500Y-54412500D03*
X73412500Y-53912500D03*
X73412500Y-53412500D03*
X73412500Y-52912500D03*
X73412500Y-52412500D03*
X73412500Y-51912500D03*
X73412500Y-51412500D03*
X73412500Y-50912500D03*
D12*
X72000000Y-49500000D03*
X71500000Y-49500000D03*
X71000000Y-49500000D03*
X70500000Y-49500000D03*
X70000000Y-49500000D03*
X69500000Y-49500000D03*
X69000000Y-49500000D03*
X68500000Y-49500000D03*
X68000000Y-49500000D03*
X67500000Y-49500000D03*
X67000000Y-49500000D03*
X66500000Y-49500000D03*
%TD*%
D13*
%TO.C,R1*%
X66500000Y-46912500D03*
X66500000Y-45087500D03*
%TD*%
D14*
%TO.C,U4*%
X70300000Y-65025000D03*
X70300000Y-65675000D03*
X70300000Y-66325000D03*
X70300000Y-66975000D03*
X73700000Y-66975000D03*
X73700000Y-66325000D03*
X73700000Y-65675000D03*
X73700000Y-65025000D03*
%TD*%
D15*
%TO.C,C5*%
X64500000Y-48950000D03*
X64500000Y-47050000D03*
%TD*%
%TO.C,C4*%
X62000000Y-50900000D03*
X62000000Y-49000000D03*
%TD*%
D16*
%TO.C,U2*%
X79475000Y-48690000D03*
X79475000Y-51230000D03*
X79475000Y-53770000D03*
X79475000Y-56310000D03*
X88525000Y-56310000D03*
X88525000Y-53770000D03*
X88525000Y-51230000D03*
X88525000Y-48690000D03*
%TD*%
D15*
%TO.C,C7*%
X58500000Y-50950000D03*
X58500000Y-49050000D03*
%TD*%
D17*
%TO.C,R4*%
X78912500Y-66500000D03*
X77087500Y-66500000D03*
%TD*%
D10*
%TO.C,C10*%
X77050000Y-64000000D03*
X78950000Y-64000000D03*
%TD*%
D15*
%TO.C,C2*%
X75500000Y-49450000D03*
X75500000Y-47550000D03*
%TD*%
D17*
%TO.C,R3*%
X90912500Y-65000000D03*
X89087500Y-65000000D03*
%TD*%
D18*
%TO.C,C8*%
X91450000Y-61500000D03*
X89550000Y-61500000D03*
%TD*%
D19*
%TO.C,D1*%
X78000000Y-59000000D03*
X76125000Y-59000000D03*
%TD*%
D20*
%TO.C,SW1*%
X62500000Y-60100000D03*
X62500000Y-66900000D03*
X58500000Y-60100000D03*
X58500000Y-66900000D03*
%TD*%
D21*
%TO.C,C6*%
X72000000Y-60023748D03*
X72000000Y-61923748D03*
%TD*%
D18*
%TO.C,C1*%
X60950000Y-54500000D03*
X59050000Y-54500000D03*
%TD*%
D22*
%TO.C,U3*%
X93862500Y-63050000D03*
X93862500Y-64000000D03*
X93862500Y-64950000D03*
X96137500Y-64950000D03*
X96137500Y-63050000D03*
%TD*%
D23*
%TO.C,R2*%
X79650000Y-59000000D03*
X81475000Y-59000000D03*
%TD*%
D21*
%TO.C,C3*%
X66500000Y-60050000D03*
X66500000Y-61950000D03*
%TD*%
M02*
