M48
; DRILL file KiCad 10.0.6 date 2026-10-07T14:51:36
; FORMAT={-:-/ absolute / metric / decimal}
; #@! TF.CreationDate,2026-10-07T14:51:36-05:00
; #@! TF.GenerationSoftware,Kicad,Pcbnew,10.0.6
; #@! TF.FileFunction,Plated,1,2,PTH
FMAT,2
METRIC
; #@! TA.AperFunction,Plated,PTH,ViaDrill
T1C0.300
; #@! TA.AperFunction,Plated,PTH,ComponentDrill
T2C0.889
; #@! TA.AperFunction,Plated,PTH,ComponentDrill
T3C1.016
; #@! TA.AperFunction,Plated,PTH,ComponentDrill
T4C1.020
; #@! TA.AperFunction,Plated,PTH,ComponentDrill
T5C1.651
%
G90
G05
T1
X101.0Y-47.0
X103.5Y-31.5
X103.5Y-34.0
X110.0Y-36.0
X110.0Y-46.0
X115.0Y-59.5
X121.5Y-67.0
X125.0Y-37.0
X129.0Y-63.5
X129.5Y-47.0
X130.5Y-70.0
X131.0Y-54.0
X132.0Y-57.5
X133.0Y-37.5
X133.0Y-64.0
X134.5Y-48.0
X136.0Y-55.0
X137.0Y-41.0
X137.5Y-54.0
X137.5Y-57.5
X140.0Y-65.0
X141.981Y-52.65
X142.0Y-36.5
X142.0Y-57.0
X142.5Y-45.4
X142.74Y-52.9
X143.0Y-40.5
X143.5Y-67.0
X143.5Y-70.0
X145.0Y-43.0
X145.0Y-51.5
X145.5Y-41.5
X146.0Y-45.1
X147.5Y-38.5
X147.5Y-45.0
X150.5Y-40.5
X150.5Y-48.0
X152.5Y-57.0
T2
X111.5Y-54.38
X111.5Y-56.92
X111.5Y-59.46
X111.5Y-62.0
X114.04Y-55.65
X114.04Y-58.19
X114.04Y-60.73
X114.04Y-63.27
T3
X101.035Y-52.5
X101.035Y-55.015
X101.035Y-62.61
X101.035Y-65.124
T4
X124.0Y-71.5
X127.0Y-71.5
X130.0Y-71.5
X137.5Y-71.7
X140.5Y-71.7
X143.5Y-71.7
T5
X109.036Y-50.951
X109.036Y-66.699
M30
