%TF.GenerationSoftware,KiCad,Pcbnew,10.0.6*%
%TF.CreationDate,2026-10-07T06:58:14+08:00*%
%TF.ProjectId,Lights_Backpack,4c696768-7473-45f4-9261-636b7061636b,rev?*%
%TF.SameCoordinates,Original*%
%TF.FileFunction,Legend,Top*%
%TF.FilePolarity,Positive*%
%FSLAX46Y46*%
G04 Gerber Fmt 4.6, Leading zero omitted, Abs format (unit mm)*
G04 Created by KiCad (PCBNEW 10.0.6) date 2026-10-07 06:58:14*
%MOMM*%
%LPD*%
G01*
G04 APERTURE LIST*
%ADD10C,0.150000*%
%ADD11C,0.120000*%
G04 APERTURE END LIST*
D10*
X58094047Y-68535427D02*
X58579761Y-68535427D01*
X58336904Y-69385427D02*
X58336904Y-68535427D01*
X58863094Y-68940189D02*
X59146428Y-68940189D01*
X59267856Y-69385427D02*
X58863094Y-69385427D01*
X58863094Y-69385427D02*
X58863094Y-68535427D01*
X58863094Y-68535427D02*
X59267856Y-68535427D01*
X59591666Y-69142570D02*
X59996428Y-69142570D01*
X59510714Y-69385427D02*
X59794047Y-68535427D01*
X59794047Y-68535427D02*
X60077381Y-69385427D01*
X60360713Y-69385427D02*
X60360713Y-68535427D01*
X60360713Y-68535427D02*
X60644047Y-69142570D01*
X60644047Y-69142570D02*
X60927380Y-68535427D01*
X60927380Y-68535427D02*
X60927380Y-69385427D01*
X61979761Y-69385427D02*
X61979761Y-68535427D01*
X61979761Y-68535427D02*
X62182142Y-68535427D01*
X62182142Y-68535427D02*
X62303571Y-68575903D01*
X62303571Y-68575903D02*
X62384523Y-68656855D01*
X62384523Y-68656855D02*
X62425000Y-68737808D01*
X62425000Y-68737808D02*
X62465476Y-68899712D01*
X62465476Y-68899712D02*
X62465476Y-69021141D01*
X62465476Y-69021141D02*
X62425000Y-69183046D01*
X62425000Y-69183046D02*
X62384523Y-69263998D01*
X62384523Y-69263998D02*
X62303571Y-69344951D01*
X62303571Y-69344951D02*
X62182142Y-69385427D01*
X62182142Y-69385427D02*
X61979761Y-69385427D01*
X62829761Y-68940189D02*
X63113095Y-68940189D01*
X63234523Y-69385427D02*
X62829761Y-69385427D01*
X62829761Y-69385427D02*
X62829761Y-68535427D01*
X62829761Y-68535427D02*
X63234523Y-68535427D01*
X63882143Y-68940189D02*
X64003571Y-68980665D01*
X64003571Y-68980665D02*
X64044048Y-69021141D01*
X64044048Y-69021141D02*
X64084524Y-69102093D01*
X64084524Y-69102093D02*
X64084524Y-69223522D01*
X64084524Y-69223522D02*
X64044048Y-69304474D01*
X64044048Y-69304474D02*
X64003571Y-69344951D01*
X64003571Y-69344951D02*
X63922619Y-69385427D01*
X63922619Y-69385427D02*
X63598809Y-69385427D01*
X63598809Y-69385427D02*
X63598809Y-68535427D01*
X63598809Y-68535427D02*
X63882143Y-68535427D01*
X63882143Y-68535427D02*
X63963095Y-68575903D01*
X63963095Y-68575903D02*
X64003571Y-68616379D01*
X64003571Y-68616379D02*
X64044048Y-68697331D01*
X64044048Y-68697331D02*
X64044048Y-68778284D01*
X64044048Y-68778284D02*
X64003571Y-68859236D01*
X64003571Y-68859236D02*
X63963095Y-68899712D01*
X63963095Y-68899712D02*
X63882143Y-68940189D01*
X63882143Y-68940189D02*
X63598809Y-68940189D01*
X64448809Y-68535427D02*
X64448809Y-69223522D01*
X64448809Y-69223522D02*
X64489286Y-69304474D01*
X64489286Y-69304474D02*
X64529762Y-69344951D01*
X64529762Y-69344951D02*
X64610714Y-69385427D01*
X64610714Y-69385427D02*
X64772619Y-69385427D01*
X64772619Y-69385427D02*
X64853571Y-69344951D01*
X64853571Y-69344951D02*
X64894048Y-69304474D01*
X64894048Y-69304474D02*
X64934524Y-69223522D01*
X64934524Y-69223522D02*
X64934524Y-68535427D01*
X65784524Y-68575903D02*
X65703571Y-68535427D01*
X65703571Y-68535427D02*
X65582143Y-68535427D01*
X65582143Y-68535427D02*
X65460714Y-68575903D01*
X65460714Y-68575903D02*
X65379762Y-68656855D01*
X65379762Y-68656855D02*
X65339285Y-68737808D01*
X65339285Y-68737808D02*
X65298809Y-68899712D01*
X65298809Y-68899712D02*
X65298809Y-69021141D01*
X65298809Y-69021141D02*
X65339285Y-69183046D01*
X65339285Y-69183046D02*
X65379762Y-69263998D01*
X65379762Y-69263998D02*
X65460714Y-69344951D01*
X65460714Y-69344951D02*
X65582143Y-69385427D01*
X65582143Y-69385427D02*
X65663095Y-69385427D01*
X65663095Y-69385427D02*
X65784524Y-69344951D01*
X65784524Y-69344951D02*
X65825000Y-69304474D01*
X65825000Y-69304474D02*
X65825000Y-69021141D01*
X65825000Y-69021141D02*
X65663095Y-69021141D01*
X63765476Y-119385427D02*
X63482142Y-118980665D01*
X63279761Y-119385427D02*
X63279761Y-118535427D01*
X63279761Y-118535427D02*
X63603571Y-118535427D01*
X63603571Y-118535427D02*
X63684523Y-118575903D01*
X63684523Y-118575903D02*
X63725000Y-118616379D01*
X63725000Y-118616379D02*
X63765476Y-118697331D01*
X63765476Y-118697331D02*
X63765476Y-118818760D01*
X63765476Y-118818760D02*
X63725000Y-118899712D01*
X63725000Y-118899712D02*
X63684523Y-118940189D01*
X63684523Y-118940189D02*
X63603571Y-118980665D01*
X63603571Y-118980665D02*
X63279761Y-118980665D01*
X64129761Y-118940189D02*
X64413095Y-118940189D01*
X64534523Y-119385427D02*
X64129761Y-119385427D01*
X64129761Y-119385427D02*
X64129761Y-118535427D01*
X64129761Y-118535427D02*
X64534523Y-118535427D01*
X64858333Y-119344951D02*
X64979762Y-119385427D01*
X64979762Y-119385427D02*
X65182143Y-119385427D01*
X65182143Y-119385427D02*
X65263095Y-119344951D01*
X65263095Y-119344951D02*
X65303571Y-119304474D01*
X65303571Y-119304474D02*
X65344048Y-119223522D01*
X65344048Y-119223522D02*
X65344048Y-119142570D01*
X65344048Y-119142570D02*
X65303571Y-119061617D01*
X65303571Y-119061617D02*
X65263095Y-119021141D01*
X65263095Y-119021141D02*
X65182143Y-118980665D01*
X65182143Y-118980665D02*
X65020238Y-118940189D01*
X65020238Y-118940189D02*
X64939286Y-118899712D01*
X64939286Y-118899712D02*
X64898809Y-118859236D01*
X64898809Y-118859236D02*
X64858333Y-118778284D01*
X64858333Y-118778284D02*
X64858333Y-118697331D01*
X64858333Y-118697331D02*
X64898809Y-118616379D01*
X64898809Y-118616379D02*
X64939286Y-118575903D01*
X64939286Y-118575903D02*
X65020238Y-118535427D01*
X65020238Y-118535427D02*
X65222619Y-118535427D01*
X65222619Y-118535427D02*
X65344048Y-118575903D01*
X65708333Y-118940189D02*
X65991667Y-118940189D01*
X66113095Y-119385427D02*
X65708333Y-119385427D01*
X65708333Y-119385427D02*
X65708333Y-118535427D01*
X65708333Y-118535427D02*
X66113095Y-118535427D01*
X66355953Y-118535427D02*
X66841667Y-118535427D01*
X66598810Y-119385427D02*
X66598810Y-118535427D01*
X76682143Y-56535427D02*
X76277381Y-56535427D01*
X76277381Y-56535427D02*
X76236905Y-56940189D01*
X76236905Y-56940189D02*
X76277381Y-56899712D01*
X76277381Y-56899712D02*
X76358334Y-56859236D01*
X76358334Y-56859236D02*
X76560715Y-56859236D01*
X76560715Y-56859236D02*
X76641667Y-56899712D01*
X76641667Y-56899712D02*
X76682143Y-56940189D01*
X76682143Y-56940189D02*
X76722620Y-57021141D01*
X76722620Y-57021141D02*
X76722620Y-57223522D01*
X76722620Y-57223522D02*
X76682143Y-57304474D01*
X76682143Y-57304474D02*
X76641667Y-57344951D01*
X76641667Y-57344951D02*
X76560715Y-57385427D01*
X76560715Y-57385427D02*
X76358334Y-57385427D01*
X76358334Y-57385427D02*
X76277381Y-57344951D01*
X76277381Y-57344951D02*
X76236905Y-57304474D01*
X76965477Y-56535427D02*
X77248810Y-57385427D01*
X77248810Y-57385427D02*
X77532144Y-56535427D01*
X79070238Y-56494951D02*
X78341667Y-57587808D01*
X80486905Y-57304474D02*
X80446429Y-57344951D01*
X80446429Y-57344951D02*
X80325000Y-57385427D01*
X80325000Y-57385427D02*
X80244048Y-57385427D01*
X80244048Y-57385427D02*
X80122619Y-57344951D01*
X80122619Y-57344951D02*
X80041667Y-57263998D01*
X80041667Y-57263998D02*
X80001190Y-57183046D01*
X80001190Y-57183046D02*
X79960714Y-57021141D01*
X79960714Y-57021141D02*
X79960714Y-56899712D01*
X79960714Y-56899712D02*
X80001190Y-56737808D01*
X80001190Y-56737808D02*
X80041667Y-56656855D01*
X80041667Y-56656855D02*
X80122619Y-56575903D01*
X80122619Y-56575903D02*
X80244048Y-56535427D01*
X80244048Y-56535427D02*
X80325000Y-56535427D01*
X80325000Y-56535427D02*
X80446429Y-56575903D01*
X80446429Y-56575903D02*
X80486905Y-56616379D01*
X80810714Y-57142570D02*
X81215476Y-57142570D01*
X80729762Y-57385427D02*
X81013095Y-56535427D01*
X81013095Y-56535427D02*
X81296429Y-57385427D01*
X81579761Y-57385427D02*
X81579761Y-56535427D01*
X81579761Y-56535427D02*
X82065476Y-57385427D01*
X82065476Y-57385427D02*
X82065476Y-56535427D01*
X83117856Y-57061617D02*
X83765476Y-57061617D01*
X84817856Y-57385427D02*
X84817856Y-56535427D01*
X84817856Y-56535427D02*
X85303571Y-57385427D01*
X85303571Y-57385427D02*
X85303571Y-56535427D01*
X85870237Y-56535427D02*
X86032142Y-56535427D01*
X86032142Y-56535427D02*
X86113094Y-56575903D01*
X86113094Y-56575903D02*
X86194047Y-56656855D01*
X86194047Y-56656855D02*
X86234523Y-56818760D01*
X86234523Y-56818760D02*
X86234523Y-57102093D01*
X86234523Y-57102093D02*
X86194047Y-57263998D01*
X86194047Y-57263998D02*
X86113094Y-57344951D01*
X86113094Y-57344951D02*
X86032142Y-57385427D01*
X86032142Y-57385427D02*
X85870237Y-57385427D01*
X85870237Y-57385427D02*
X85789285Y-57344951D01*
X85789285Y-57344951D02*
X85708332Y-57263998D01*
X85708332Y-57263998D02*
X85667856Y-57102093D01*
X85667856Y-57102093D02*
X85667856Y-56818760D01*
X85667856Y-56818760D02*
X85708332Y-56656855D01*
X85708332Y-56656855D02*
X85789285Y-56575903D01*
X85789285Y-56575903D02*
X85870237Y-56535427D01*
X86477380Y-56535427D02*
X86963094Y-56535427D01*
X86720237Y-57385427D02*
X86720237Y-56535427D01*
X87894046Y-56940189D02*
X88177380Y-56940189D01*
X88298808Y-57385427D02*
X87894046Y-57385427D01*
X87894046Y-57385427D02*
X87894046Y-56535427D01*
X87894046Y-56535427D02*
X88298808Y-56535427D01*
X88541666Y-56535427D02*
X89027380Y-56535427D01*
X88784523Y-57385427D02*
X88784523Y-56535427D01*
X89310713Y-57385427D02*
X89310713Y-56535427D01*
X89310713Y-56940189D02*
X89796428Y-56940189D01*
X89796428Y-57385427D02*
X89796428Y-56535427D01*
X90201189Y-56940189D02*
X90484523Y-56940189D01*
X90605951Y-57385427D02*
X90201189Y-57385427D01*
X90201189Y-57385427D02*
X90201189Y-56535427D01*
X90201189Y-56535427D02*
X90605951Y-56535427D01*
X91455952Y-57385427D02*
X91172618Y-56980665D01*
X90970237Y-57385427D02*
X90970237Y-56535427D01*
X90970237Y-56535427D02*
X91294047Y-56535427D01*
X91294047Y-56535427D02*
X91374999Y-56575903D01*
X91374999Y-56575903D02*
X91415476Y-56616379D01*
X91415476Y-56616379D02*
X91455952Y-56697331D01*
X91455952Y-56697331D02*
X91455952Y-56818760D01*
X91455952Y-56818760D02*
X91415476Y-56899712D01*
X91415476Y-56899712D02*
X91374999Y-56940189D01*
X91374999Y-56940189D02*
X91294047Y-56980665D01*
X91294047Y-56980665D02*
X90970237Y-56980665D01*
X91820237Y-57385427D02*
X91820237Y-56535427D01*
X91820237Y-56535427D02*
X92305952Y-57385427D01*
X92305952Y-57385427D02*
X92305952Y-56535427D01*
X92710713Y-56940189D02*
X92994047Y-56940189D01*
X93115475Y-57385427D02*
X92710713Y-57385427D01*
X92710713Y-57385427D02*
X92710713Y-56535427D01*
X92710713Y-56535427D02*
X93115475Y-56535427D01*
X93358333Y-56535427D02*
X93844047Y-56535427D01*
X93601190Y-57385427D02*
X93601190Y-56535427D01*
X88410715Y-124385427D02*
X88005953Y-124385427D01*
X88005953Y-124385427D02*
X88005953Y-123535427D01*
X88694048Y-124385427D02*
X88694048Y-123535427D01*
X89544049Y-123575903D02*
X89463096Y-123535427D01*
X89463096Y-123535427D02*
X89341668Y-123535427D01*
X89341668Y-123535427D02*
X89220239Y-123575903D01*
X89220239Y-123575903D02*
X89139287Y-123656855D01*
X89139287Y-123656855D02*
X89098810Y-123737808D01*
X89098810Y-123737808D02*
X89058334Y-123899712D01*
X89058334Y-123899712D02*
X89058334Y-124021141D01*
X89058334Y-124021141D02*
X89098810Y-124183046D01*
X89098810Y-124183046D02*
X89139287Y-124263998D01*
X89139287Y-124263998D02*
X89220239Y-124344951D01*
X89220239Y-124344951D02*
X89341668Y-124385427D01*
X89341668Y-124385427D02*
X89422620Y-124385427D01*
X89422620Y-124385427D02*
X89544049Y-124344951D01*
X89544049Y-124344951D02*
X89584525Y-124304474D01*
X89584525Y-124304474D02*
X89584525Y-124021141D01*
X89584525Y-124021141D02*
X89422620Y-124021141D01*
X89948810Y-124385427D02*
X89948810Y-123535427D01*
X89948810Y-123940189D02*
X90434525Y-123940189D01*
X90434525Y-124385427D02*
X90434525Y-123535427D01*
X90717858Y-123535427D02*
X91203572Y-123535427D01*
X90960715Y-124385427D02*
X90960715Y-123535427D01*
X91446429Y-124344951D02*
X91567858Y-124385427D01*
X91567858Y-124385427D02*
X91770239Y-124385427D01*
X91770239Y-124385427D02*
X91851191Y-124344951D01*
X91851191Y-124344951D02*
X91891667Y-124304474D01*
X91891667Y-124304474D02*
X91932144Y-124223522D01*
X91932144Y-124223522D02*
X91932144Y-124142570D01*
X91932144Y-124142570D02*
X91891667Y-124061617D01*
X91891667Y-124061617D02*
X91851191Y-124021141D01*
X91851191Y-124021141D02*
X91770239Y-123980665D01*
X91770239Y-123980665D02*
X91608334Y-123940189D01*
X91608334Y-123940189D02*
X91527382Y-123899712D01*
X91527382Y-123899712D02*
X91486905Y-123859236D01*
X91486905Y-123859236D02*
X91446429Y-123778284D01*
X91446429Y-123778284D02*
X91446429Y-123697331D01*
X91446429Y-123697331D02*
X91486905Y-123616379D01*
X91486905Y-123616379D02*
X91527382Y-123575903D01*
X91527382Y-123575903D02*
X91608334Y-123535427D01*
X91608334Y-123535427D02*
X91810715Y-123535427D01*
X91810715Y-123535427D02*
X91932144Y-123575903D01*
X93227382Y-123940189D02*
X93348810Y-123980665D01*
X93348810Y-123980665D02*
X93389287Y-124021141D01*
X93389287Y-124021141D02*
X93429763Y-124102093D01*
X93429763Y-124102093D02*
X93429763Y-124223522D01*
X93429763Y-124223522D02*
X93389287Y-124304474D01*
X93389287Y-124304474D02*
X93348810Y-124344951D01*
X93348810Y-124344951D02*
X93267858Y-124385427D01*
X93267858Y-124385427D02*
X92944048Y-124385427D01*
X92944048Y-124385427D02*
X92944048Y-123535427D01*
X92944048Y-123535427D02*
X93227382Y-123535427D01*
X93227382Y-123535427D02*
X93308334Y-123575903D01*
X93308334Y-123575903D02*
X93348810Y-123616379D01*
X93348810Y-123616379D02*
X93389287Y-123697331D01*
X93389287Y-123697331D02*
X93389287Y-123778284D01*
X93389287Y-123778284D02*
X93348810Y-123859236D01*
X93348810Y-123859236D02*
X93308334Y-123899712D01*
X93308334Y-123899712D02*
X93227382Y-123940189D01*
X93227382Y-123940189D02*
X92944048Y-123940189D01*
X93753572Y-124142570D02*
X94158334Y-124142570D01*
X93672620Y-124385427D02*
X93955953Y-123535427D01*
X93955953Y-123535427D02*
X94239287Y-124385427D01*
X95008334Y-124304474D02*
X94967858Y-124344951D01*
X94967858Y-124344951D02*
X94846429Y-124385427D01*
X94846429Y-124385427D02*
X94765477Y-124385427D01*
X94765477Y-124385427D02*
X94644048Y-124344951D01*
X94644048Y-124344951D02*
X94563096Y-124263998D01*
X94563096Y-124263998D02*
X94522619Y-124183046D01*
X94522619Y-124183046D02*
X94482143Y-124021141D01*
X94482143Y-124021141D02*
X94482143Y-123899712D01*
X94482143Y-123899712D02*
X94522619Y-123737808D01*
X94522619Y-123737808D02*
X94563096Y-123656855D01*
X94563096Y-123656855D02*
X94644048Y-123575903D01*
X94644048Y-123575903D02*
X94765477Y-123535427D01*
X94765477Y-123535427D02*
X94846429Y-123535427D01*
X94846429Y-123535427D02*
X94967858Y-123575903D01*
X94967858Y-123575903D02*
X95008334Y-123616379D01*
X95372619Y-124385427D02*
X95372619Y-123535427D01*
X95858334Y-124385427D02*
X95494048Y-123899712D01*
X95858334Y-123535427D02*
X95372619Y-124021141D01*
X96222619Y-124385427D02*
X96222619Y-123535427D01*
X96222619Y-123535427D02*
X96546429Y-123535427D01*
X96546429Y-123535427D02*
X96627381Y-123575903D01*
X96627381Y-123575903D02*
X96667858Y-123616379D01*
X96667858Y-123616379D02*
X96708334Y-123697331D01*
X96708334Y-123697331D02*
X96708334Y-123818760D01*
X96708334Y-123818760D02*
X96667858Y-123899712D01*
X96667858Y-123899712D02*
X96627381Y-123940189D01*
X96627381Y-123940189D02*
X96546429Y-123980665D01*
X96546429Y-123980665D02*
X96222619Y-123980665D01*
X97032143Y-124142570D02*
X97436905Y-124142570D01*
X96951191Y-124385427D02*
X97234524Y-123535427D01*
X97234524Y-123535427D02*
X97517858Y-124385427D01*
X98286905Y-124304474D02*
X98246429Y-124344951D01*
X98246429Y-124344951D02*
X98125000Y-124385427D01*
X98125000Y-124385427D02*
X98044048Y-124385427D01*
X98044048Y-124385427D02*
X97922619Y-124344951D01*
X97922619Y-124344951D02*
X97841667Y-124263998D01*
X97841667Y-124263998D02*
X97801190Y-124183046D01*
X97801190Y-124183046D02*
X97760714Y-124021141D01*
X97760714Y-124021141D02*
X97760714Y-123899712D01*
X97760714Y-123899712D02*
X97801190Y-123737808D01*
X97801190Y-123737808D02*
X97841667Y-123656855D01*
X97841667Y-123656855D02*
X97922619Y-123575903D01*
X97922619Y-123575903D02*
X98044048Y-123535427D01*
X98044048Y-123535427D02*
X98125000Y-123535427D01*
X98125000Y-123535427D02*
X98246429Y-123575903D01*
X98246429Y-123575903D02*
X98286905Y-123616379D01*
X98651190Y-124385427D02*
X98651190Y-123535427D01*
X99136905Y-124385427D02*
X98772619Y-123899712D01*
X99136905Y-123535427D02*
X98651190Y-124021141D01*
X101282143Y-124385427D02*
X100998809Y-123980665D01*
X100796428Y-124385427D02*
X100796428Y-123535427D01*
X100796428Y-123535427D02*
X101120238Y-123535427D01*
X101120238Y-123535427D02*
X101201190Y-123575903D01*
X101201190Y-123575903D02*
X101241667Y-123616379D01*
X101241667Y-123616379D02*
X101282143Y-123697331D01*
X101282143Y-123697331D02*
X101282143Y-123818760D01*
X101282143Y-123818760D02*
X101241667Y-123899712D01*
X101241667Y-123899712D02*
X101201190Y-123940189D01*
X101201190Y-123940189D02*
X101120238Y-123980665D01*
X101120238Y-123980665D02*
X100796428Y-123980665D01*
X101970238Y-124344951D02*
X101889286Y-124385427D01*
X101889286Y-124385427D02*
X101727381Y-124385427D01*
X101727381Y-124385427D02*
X101646428Y-124344951D01*
X101646428Y-124344951D02*
X101605952Y-124263998D01*
X101605952Y-124263998D02*
X101605952Y-123940189D01*
X101605952Y-123940189D02*
X101646428Y-123859236D01*
X101646428Y-123859236D02*
X101727381Y-123818760D01*
X101727381Y-123818760D02*
X101889286Y-123818760D01*
X101889286Y-123818760D02*
X101970238Y-123859236D01*
X101970238Y-123859236D02*
X102010714Y-123940189D01*
X102010714Y-123940189D02*
X102010714Y-124021141D01*
X102010714Y-124021141D02*
X101605952Y-124102093D01*
X102294047Y-123818760D02*
X102496428Y-124385427D01*
X102496428Y-124385427D02*
X102698809Y-123818760D01*
X103629761Y-124142570D02*
X104034523Y-124142570D01*
X103548809Y-124385427D02*
X103832142Y-123535427D01*
X103832142Y-123535427D02*
X104115476Y-124385427D01*
X120510714Y-76304474D02*
X120470238Y-76344951D01*
X120470238Y-76344951D02*
X120348809Y-76385427D01*
X120348809Y-76385427D02*
X120267857Y-76385427D01*
X120267857Y-76385427D02*
X120146428Y-76344951D01*
X120146428Y-76344951D02*
X120065476Y-76263998D01*
X120065476Y-76263998D02*
X120024999Y-76183046D01*
X120024999Y-76183046D02*
X119984523Y-76021141D01*
X119984523Y-76021141D02*
X119984523Y-75899712D01*
X119984523Y-75899712D02*
X120024999Y-75737808D01*
X120024999Y-75737808D02*
X120065476Y-75656855D01*
X120065476Y-75656855D02*
X120146428Y-75575903D01*
X120146428Y-75575903D02*
X120267857Y-75535427D01*
X120267857Y-75535427D02*
X120348809Y-75535427D01*
X120348809Y-75535427D02*
X120470238Y-75575903D01*
X120470238Y-75575903D02*
X120510714Y-75616379D01*
X120834523Y-76142570D02*
X121239285Y-76142570D01*
X120753571Y-76385427D02*
X121036904Y-75535427D01*
X121036904Y-75535427D02*
X121320238Y-76385427D01*
X121603570Y-76385427D02*
X121603570Y-75535427D01*
X121603570Y-75535427D02*
X122089285Y-76385427D01*
X122089285Y-76385427D02*
X122089285Y-75535427D01*
X123020237Y-75535427D02*
X123505951Y-75535427D01*
X123263094Y-76385427D02*
X123263094Y-75535427D01*
X123789284Y-75940189D02*
X124072618Y-75940189D01*
X124194046Y-76385427D02*
X123789284Y-76385427D01*
X123789284Y-76385427D02*
X123789284Y-75535427D01*
X123789284Y-75535427D02*
X124194046Y-75535427D01*
X125044047Y-76385427D02*
X124760713Y-75980665D01*
X124558332Y-76385427D02*
X124558332Y-75535427D01*
X124558332Y-75535427D02*
X124882142Y-75535427D01*
X124882142Y-75535427D02*
X124963094Y-75575903D01*
X124963094Y-75575903D02*
X125003571Y-75616379D01*
X125003571Y-75616379D02*
X125044047Y-75697331D01*
X125044047Y-75697331D02*
X125044047Y-75818760D01*
X125044047Y-75818760D02*
X125003571Y-75899712D01*
X125003571Y-75899712D02*
X124963094Y-75940189D01*
X124963094Y-75940189D02*
X124882142Y-75980665D01*
X124882142Y-75980665D02*
X124558332Y-75980665D01*
X125408332Y-76385427D02*
X125408332Y-75535427D01*
X125408332Y-75535427D02*
X125691666Y-76142570D01*
X125691666Y-76142570D02*
X125974999Y-75535427D01*
X125974999Y-75535427D02*
X125974999Y-76385427D01*
X142765476Y-80385427D02*
X142360714Y-80385427D01*
X142360714Y-80385427D02*
X142360714Y-79535427D01*
X143048809Y-79940189D02*
X143332143Y-79940189D01*
X143453571Y-80385427D02*
X143048809Y-80385427D01*
X143048809Y-80385427D02*
X143048809Y-79535427D01*
X143048809Y-79535427D02*
X143453571Y-79535427D01*
X143817857Y-80385427D02*
X143817857Y-79535427D01*
X143817857Y-79535427D02*
X144020238Y-79535427D01*
X144020238Y-79535427D02*
X144141667Y-79575903D01*
X144141667Y-79575903D02*
X144222619Y-79656855D01*
X144222619Y-79656855D02*
X144263096Y-79737808D01*
X144263096Y-79737808D02*
X144303572Y-79899712D01*
X144303572Y-79899712D02*
X144303572Y-80021141D01*
X144303572Y-80021141D02*
X144263096Y-80183046D01*
X144263096Y-80183046D02*
X144222619Y-80263998D01*
X144222619Y-80263998D02*
X144141667Y-80344951D01*
X144141667Y-80344951D02*
X144020238Y-80385427D01*
X144020238Y-80385427D02*
X143817857Y-80385427D01*
X145275000Y-80142570D02*
X145679762Y-80142570D01*
X145194048Y-80385427D02*
X145477381Y-79535427D01*
X145477381Y-79535427D02*
X145760715Y-80385427D01*
X142704761Y-102385427D02*
X142299999Y-102385427D01*
X142299999Y-102385427D02*
X142299999Y-101535427D01*
X142988094Y-101940189D02*
X143271428Y-101940189D01*
X143392856Y-102385427D02*
X142988094Y-102385427D01*
X142988094Y-102385427D02*
X142988094Y-101535427D01*
X142988094Y-101535427D02*
X143392856Y-101535427D01*
X143757142Y-102385427D02*
X143757142Y-101535427D01*
X143757142Y-101535427D02*
X143959523Y-101535427D01*
X143959523Y-101535427D02*
X144080952Y-101575903D01*
X144080952Y-101575903D02*
X144161904Y-101656855D01*
X144161904Y-101656855D02*
X144202381Y-101737808D01*
X144202381Y-101737808D02*
X144242857Y-101899712D01*
X144242857Y-101899712D02*
X144242857Y-102021141D01*
X144242857Y-102021141D02*
X144202381Y-102183046D01*
X144202381Y-102183046D02*
X144161904Y-102263998D01*
X144161904Y-102263998D02*
X144080952Y-102344951D01*
X144080952Y-102344951D02*
X143959523Y-102385427D01*
X143959523Y-102385427D02*
X143757142Y-102385427D01*
X145538095Y-101940189D02*
X145659523Y-101980665D01*
X145659523Y-101980665D02*
X145700000Y-102021141D01*
X145700000Y-102021141D02*
X145740476Y-102102093D01*
X145740476Y-102102093D02*
X145740476Y-102223522D01*
X145740476Y-102223522D02*
X145700000Y-102304474D01*
X145700000Y-102304474D02*
X145659523Y-102344951D01*
X145659523Y-102344951D02*
X145578571Y-102385427D01*
X145578571Y-102385427D02*
X145254761Y-102385427D01*
X145254761Y-102385427D02*
X145254761Y-101535427D01*
X145254761Y-101535427D02*
X145538095Y-101535427D01*
X145538095Y-101535427D02*
X145619047Y-101575903D01*
X145619047Y-101575903D02*
X145659523Y-101616379D01*
X145659523Y-101616379D02*
X145700000Y-101697331D01*
X145700000Y-101697331D02*
X145700000Y-101778284D01*
X145700000Y-101778284D02*
X145659523Y-101859236D01*
X145659523Y-101859236D02*
X145619047Y-101899712D01*
X145619047Y-101899712D02*
X145538095Y-101940189D01*
X145538095Y-101940189D02*
X145254761Y-101940189D01*
X125357142Y-85759580D02*
X125309523Y-85807200D01*
X125309523Y-85807200D02*
X125166666Y-85854819D01*
X125166666Y-85854819D02*
X125071428Y-85854819D01*
X125071428Y-85854819D02*
X124928571Y-85807200D01*
X124928571Y-85807200D02*
X124833333Y-85711961D01*
X124833333Y-85711961D02*
X124785714Y-85616723D01*
X124785714Y-85616723D02*
X124738095Y-85426247D01*
X124738095Y-85426247D02*
X124738095Y-85283390D01*
X124738095Y-85283390D02*
X124785714Y-85092914D01*
X124785714Y-85092914D02*
X124833333Y-84997676D01*
X124833333Y-84997676D02*
X124928571Y-84902438D01*
X124928571Y-84902438D02*
X125071428Y-84854819D01*
X125071428Y-84854819D02*
X125166666Y-84854819D01*
X125166666Y-84854819D02*
X125309523Y-84902438D01*
X125309523Y-84902438D02*
X125357142Y-84950057D01*
X126309523Y-85854819D02*
X125738095Y-85854819D01*
X126023809Y-85854819D02*
X126023809Y-84854819D01*
X126023809Y-84854819D02*
X125928571Y-84997676D01*
X125928571Y-84997676D02*
X125833333Y-85092914D01*
X125833333Y-85092914D02*
X125738095Y-85140533D01*
X126642857Y-84854819D02*
X127261904Y-84854819D01*
X127261904Y-84854819D02*
X126928571Y-85235771D01*
X126928571Y-85235771D02*
X127071428Y-85235771D01*
X127071428Y-85235771D02*
X127166666Y-85283390D01*
X127166666Y-85283390D02*
X127214285Y-85331009D01*
X127214285Y-85331009D02*
X127261904Y-85426247D01*
X127261904Y-85426247D02*
X127261904Y-85664342D01*
X127261904Y-85664342D02*
X127214285Y-85759580D01*
X127214285Y-85759580D02*
X127166666Y-85807200D01*
X127166666Y-85807200D02*
X127071428Y-85854819D01*
X127071428Y-85854819D02*
X126785714Y-85854819D01*
X126785714Y-85854819D02*
X126690476Y-85807200D01*
X126690476Y-85807200D02*
X126642857Y-85759580D01*
X117166666Y-74124819D02*
X117166666Y-74839104D01*
X117166666Y-74839104D02*
X117119047Y-74981961D01*
X117119047Y-74981961D02*
X117023809Y-75077200D01*
X117023809Y-75077200D02*
X116880952Y-75124819D01*
X116880952Y-75124819D02*
X116785714Y-75124819D01*
X117642857Y-75124819D02*
X117642857Y-74124819D01*
X117642857Y-74124819D02*
X118023809Y-74124819D01*
X118023809Y-74124819D02*
X118119047Y-74172438D01*
X118119047Y-74172438D02*
X118166666Y-74220057D01*
X118166666Y-74220057D02*
X118214285Y-74315295D01*
X118214285Y-74315295D02*
X118214285Y-74458152D01*
X118214285Y-74458152D02*
X118166666Y-74553390D01*
X118166666Y-74553390D02*
X118119047Y-74601009D01*
X118119047Y-74601009D02*
X118023809Y-74648628D01*
X118023809Y-74648628D02*
X117642857Y-74648628D01*
X119166666Y-75124819D02*
X118595238Y-75124819D01*
X118880952Y-75124819D02*
X118880952Y-74124819D01*
X118880952Y-74124819D02*
X118785714Y-74267676D01*
X118785714Y-74267676D02*
X118690476Y-74362914D01*
X118690476Y-74362914D02*
X118595238Y-74410533D01*
X138266666Y-113454819D02*
X138266666Y-114169104D01*
X138266666Y-114169104D02*
X138219047Y-114311961D01*
X138219047Y-114311961D02*
X138123809Y-114407200D01*
X138123809Y-114407200D02*
X137980952Y-114454819D01*
X137980952Y-114454819D02*
X137885714Y-114454819D01*
X139171428Y-113788152D02*
X139171428Y-114454819D01*
X138933333Y-113407200D02*
X138695238Y-114121485D01*
X138695238Y-114121485D02*
X139314285Y-114121485D01*
X129238095Y-84054819D02*
X129238095Y-84864342D01*
X129238095Y-84864342D02*
X129285714Y-84959580D01*
X129285714Y-84959580D02*
X129333333Y-85007200D01*
X129333333Y-85007200D02*
X129428571Y-85054819D01*
X129428571Y-85054819D02*
X129619047Y-85054819D01*
X129619047Y-85054819D02*
X129714285Y-85007200D01*
X129714285Y-85007200D02*
X129761904Y-84959580D01*
X129761904Y-84959580D02*
X129809523Y-84864342D01*
X129809523Y-84864342D02*
X129809523Y-84054819D01*
X130714285Y-84388152D02*
X130714285Y-85054819D01*
X130476190Y-84007200D02*
X130238095Y-84721485D01*
X130238095Y-84721485D02*
X130857142Y-84721485D01*
X135833333Y-105024819D02*
X135500000Y-104548628D01*
X135261905Y-105024819D02*
X135261905Y-104024819D01*
X135261905Y-104024819D02*
X135642857Y-104024819D01*
X135642857Y-104024819D02*
X135738095Y-104072438D01*
X135738095Y-104072438D02*
X135785714Y-104120057D01*
X135785714Y-104120057D02*
X135833333Y-104215295D01*
X135833333Y-104215295D02*
X135833333Y-104358152D01*
X135833333Y-104358152D02*
X135785714Y-104453390D01*
X135785714Y-104453390D02*
X135738095Y-104501009D01*
X135738095Y-104501009D02*
X135642857Y-104548628D01*
X135642857Y-104548628D02*
X135261905Y-104548628D01*
X136404762Y-104453390D02*
X136309524Y-104405771D01*
X136309524Y-104405771D02*
X136261905Y-104358152D01*
X136261905Y-104358152D02*
X136214286Y-104262914D01*
X136214286Y-104262914D02*
X136214286Y-104215295D01*
X136214286Y-104215295D02*
X136261905Y-104120057D01*
X136261905Y-104120057D02*
X136309524Y-104072438D01*
X136309524Y-104072438D02*
X136404762Y-104024819D01*
X136404762Y-104024819D02*
X136595238Y-104024819D01*
X136595238Y-104024819D02*
X136690476Y-104072438D01*
X136690476Y-104072438D02*
X136738095Y-104120057D01*
X136738095Y-104120057D02*
X136785714Y-104215295D01*
X136785714Y-104215295D02*
X136785714Y-104262914D01*
X136785714Y-104262914D02*
X136738095Y-104358152D01*
X136738095Y-104358152D02*
X136690476Y-104405771D01*
X136690476Y-104405771D02*
X136595238Y-104453390D01*
X136595238Y-104453390D02*
X136404762Y-104453390D01*
X136404762Y-104453390D02*
X136309524Y-104501009D01*
X136309524Y-104501009D02*
X136261905Y-104548628D01*
X136261905Y-104548628D02*
X136214286Y-104643866D01*
X136214286Y-104643866D02*
X136214286Y-104834342D01*
X136214286Y-104834342D02*
X136261905Y-104929580D01*
X136261905Y-104929580D02*
X136309524Y-104977200D01*
X136309524Y-104977200D02*
X136404762Y-105024819D01*
X136404762Y-105024819D02*
X136595238Y-105024819D01*
X136595238Y-105024819D02*
X136690476Y-104977200D01*
X136690476Y-104977200D02*
X136738095Y-104929580D01*
X136738095Y-104929580D02*
X136785714Y-104834342D01*
X136785714Y-104834342D02*
X136785714Y-104643866D01*
X136785714Y-104643866D02*
X136738095Y-104548628D01*
X136738095Y-104548628D02*
X136690476Y-104501009D01*
X136690476Y-104501009D02*
X136595238Y-104453390D01*
X110833333Y-100759580D02*
X110785714Y-100807200D01*
X110785714Y-100807200D02*
X110642857Y-100854819D01*
X110642857Y-100854819D02*
X110547619Y-100854819D01*
X110547619Y-100854819D02*
X110404762Y-100807200D01*
X110404762Y-100807200D02*
X110309524Y-100711961D01*
X110309524Y-100711961D02*
X110261905Y-100616723D01*
X110261905Y-100616723D02*
X110214286Y-100426247D01*
X110214286Y-100426247D02*
X110214286Y-100283390D01*
X110214286Y-100283390D02*
X110261905Y-100092914D01*
X110261905Y-100092914D02*
X110309524Y-99997676D01*
X110309524Y-99997676D02*
X110404762Y-99902438D01*
X110404762Y-99902438D02*
X110547619Y-99854819D01*
X110547619Y-99854819D02*
X110642857Y-99854819D01*
X110642857Y-99854819D02*
X110785714Y-99902438D01*
X110785714Y-99902438D02*
X110833333Y-99950057D01*
X111404762Y-100283390D02*
X111309524Y-100235771D01*
X111309524Y-100235771D02*
X111261905Y-100188152D01*
X111261905Y-100188152D02*
X111214286Y-100092914D01*
X111214286Y-100092914D02*
X111214286Y-100045295D01*
X111214286Y-100045295D02*
X111261905Y-99950057D01*
X111261905Y-99950057D02*
X111309524Y-99902438D01*
X111309524Y-99902438D02*
X111404762Y-99854819D01*
X111404762Y-99854819D02*
X111595238Y-99854819D01*
X111595238Y-99854819D02*
X111690476Y-99902438D01*
X111690476Y-99902438D02*
X111738095Y-99950057D01*
X111738095Y-99950057D02*
X111785714Y-100045295D01*
X111785714Y-100045295D02*
X111785714Y-100092914D01*
X111785714Y-100092914D02*
X111738095Y-100188152D01*
X111738095Y-100188152D02*
X111690476Y-100235771D01*
X111690476Y-100235771D02*
X111595238Y-100283390D01*
X111595238Y-100283390D02*
X111404762Y-100283390D01*
X111404762Y-100283390D02*
X111309524Y-100331009D01*
X111309524Y-100331009D02*
X111261905Y-100378628D01*
X111261905Y-100378628D02*
X111214286Y-100473866D01*
X111214286Y-100473866D02*
X111214286Y-100664342D01*
X111214286Y-100664342D02*
X111261905Y-100759580D01*
X111261905Y-100759580D02*
X111309524Y-100807200D01*
X111309524Y-100807200D02*
X111404762Y-100854819D01*
X111404762Y-100854819D02*
X111595238Y-100854819D01*
X111595238Y-100854819D02*
X111690476Y-100807200D01*
X111690476Y-100807200D02*
X111738095Y-100759580D01*
X111738095Y-100759580D02*
X111785714Y-100664342D01*
X111785714Y-100664342D02*
X111785714Y-100473866D01*
X111785714Y-100473866D02*
X111738095Y-100378628D01*
X111738095Y-100378628D02*
X111690476Y-100331009D01*
X111690476Y-100331009D02*
X111595238Y-100283390D01*
X100238095Y-65934819D02*
X100238095Y-66744342D01*
X100238095Y-66744342D02*
X100285714Y-66839580D01*
X100285714Y-66839580D02*
X100333333Y-66887200D01*
X100333333Y-66887200D02*
X100428571Y-66934819D01*
X100428571Y-66934819D02*
X100619047Y-66934819D01*
X100619047Y-66934819D02*
X100714285Y-66887200D01*
X100714285Y-66887200D02*
X100761904Y-66839580D01*
X100761904Y-66839580D02*
X100809523Y-66744342D01*
X100809523Y-66744342D02*
X100809523Y-65934819D01*
X101238095Y-66030057D02*
X101285714Y-65982438D01*
X101285714Y-65982438D02*
X101380952Y-65934819D01*
X101380952Y-65934819D02*
X101619047Y-65934819D01*
X101619047Y-65934819D02*
X101714285Y-65982438D01*
X101714285Y-65982438D02*
X101761904Y-66030057D01*
X101761904Y-66030057D02*
X101809523Y-66125295D01*
X101809523Y-66125295D02*
X101809523Y-66220533D01*
X101809523Y-66220533D02*
X101761904Y-66363390D01*
X101761904Y-66363390D02*
X101190476Y-66934819D01*
X101190476Y-66934819D02*
X101809523Y-66934819D01*
X92857142Y-70759580D02*
X92809523Y-70807200D01*
X92809523Y-70807200D02*
X92666666Y-70854819D01*
X92666666Y-70854819D02*
X92571428Y-70854819D01*
X92571428Y-70854819D02*
X92428571Y-70807200D01*
X92428571Y-70807200D02*
X92333333Y-70711961D01*
X92333333Y-70711961D02*
X92285714Y-70616723D01*
X92285714Y-70616723D02*
X92238095Y-70426247D01*
X92238095Y-70426247D02*
X92238095Y-70283390D01*
X92238095Y-70283390D02*
X92285714Y-70092914D01*
X92285714Y-70092914D02*
X92333333Y-69997676D01*
X92333333Y-69997676D02*
X92428571Y-69902438D01*
X92428571Y-69902438D02*
X92571428Y-69854819D01*
X92571428Y-69854819D02*
X92666666Y-69854819D01*
X92666666Y-69854819D02*
X92809523Y-69902438D01*
X92809523Y-69902438D02*
X92857142Y-69950057D01*
X93809523Y-70854819D02*
X93238095Y-70854819D01*
X93523809Y-70854819D02*
X93523809Y-69854819D01*
X93523809Y-69854819D02*
X93428571Y-69997676D01*
X93428571Y-69997676D02*
X93333333Y-70092914D01*
X93333333Y-70092914D02*
X93238095Y-70140533D01*
X94428571Y-69854819D02*
X94523809Y-69854819D01*
X94523809Y-69854819D02*
X94619047Y-69902438D01*
X94619047Y-69902438D02*
X94666666Y-69950057D01*
X94666666Y-69950057D02*
X94714285Y-70045295D01*
X94714285Y-70045295D02*
X94761904Y-70235771D01*
X94761904Y-70235771D02*
X94761904Y-70473866D01*
X94761904Y-70473866D02*
X94714285Y-70664342D01*
X94714285Y-70664342D02*
X94666666Y-70759580D01*
X94666666Y-70759580D02*
X94619047Y-70807200D01*
X94619047Y-70807200D02*
X94523809Y-70854819D01*
X94523809Y-70854819D02*
X94428571Y-70854819D01*
X94428571Y-70854819D02*
X94333333Y-70807200D01*
X94333333Y-70807200D02*
X94285714Y-70759580D01*
X94285714Y-70759580D02*
X94238095Y-70664342D01*
X94238095Y-70664342D02*
X94190476Y-70473866D01*
X94190476Y-70473866D02*
X94190476Y-70235771D01*
X94190476Y-70235771D02*
X94238095Y-70045295D01*
X94238095Y-70045295D02*
X94285714Y-69950057D01*
X94285714Y-69950057D02*
X94333333Y-69902438D01*
X94333333Y-69902438D02*
X94428571Y-69854819D01*
X54238095Y-119654819D02*
X54238095Y-118654819D01*
X54238095Y-119131009D02*
X54809523Y-119131009D01*
X54809523Y-119654819D02*
X54809523Y-118654819D01*
X55190476Y-118654819D02*
X55809523Y-118654819D01*
X55809523Y-118654819D02*
X55476190Y-119035771D01*
X55476190Y-119035771D02*
X55619047Y-119035771D01*
X55619047Y-119035771D02*
X55714285Y-119083390D01*
X55714285Y-119083390D02*
X55761904Y-119131009D01*
X55761904Y-119131009D02*
X55809523Y-119226247D01*
X55809523Y-119226247D02*
X55809523Y-119464342D01*
X55809523Y-119464342D02*
X55761904Y-119559580D01*
X55761904Y-119559580D02*
X55714285Y-119607200D01*
X55714285Y-119607200D02*
X55619047Y-119654819D01*
X55619047Y-119654819D02*
X55333333Y-119654819D01*
X55333333Y-119654819D02*
X55238095Y-119607200D01*
X55238095Y-119607200D02*
X55190476Y-119559580D01*
X124833333Y-114854819D02*
X124500000Y-114378628D01*
X124261905Y-114854819D02*
X124261905Y-113854819D01*
X124261905Y-113854819D02*
X124642857Y-113854819D01*
X124642857Y-113854819D02*
X124738095Y-113902438D01*
X124738095Y-113902438D02*
X124785714Y-113950057D01*
X124785714Y-113950057D02*
X124833333Y-114045295D01*
X124833333Y-114045295D02*
X124833333Y-114188152D01*
X124833333Y-114188152D02*
X124785714Y-114283390D01*
X124785714Y-114283390D02*
X124738095Y-114331009D01*
X124738095Y-114331009D02*
X124642857Y-114378628D01*
X124642857Y-114378628D02*
X124261905Y-114378628D01*
X125690476Y-113854819D02*
X125500000Y-113854819D01*
X125500000Y-113854819D02*
X125404762Y-113902438D01*
X125404762Y-113902438D02*
X125357143Y-113950057D01*
X125357143Y-113950057D02*
X125261905Y-114092914D01*
X125261905Y-114092914D02*
X125214286Y-114283390D01*
X125214286Y-114283390D02*
X125214286Y-114664342D01*
X125214286Y-114664342D02*
X125261905Y-114759580D01*
X125261905Y-114759580D02*
X125309524Y-114807200D01*
X125309524Y-114807200D02*
X125404762Y-114854819D01*
X125404762Y-114854819D02*
X125595238Y-114854819D01*
X125595238Y-114854819D02*
X125690476Y-114807200D01*
X125690476Y-114807200D02*
X125738095Y-114759580D01*
X125738095Y-114759580D02*
X125785714Y-114664342D01*
X125785714Y-114664342D02*
X125785714Y-114426247D01*
X125785714Y-114426247D02*
X125738095Y-114331009D01*
X125738095Y-114331009D02*
X125690476Y-114283390D01*
X125690476Y-114283390D02*
X125595238Y-114235771D01*
X125595238Y-114235771D02*
X125404762Y-114235771D01*
X125404762Y-114235771D02*
X125309524Y-114283390D01*
X125309524Y-114283390D02*
X125261905Y-114331009D01*
X125261905Y-114331009D02*
X125214286Y-114426247D01*
X91833333Y-91059580D02*
X91785714Y-91107200D01*
X91785714Y-91107200D02*
X91642857Y-91154819D01*
X91642857Y-91154819D02*
X91547619Y-91154819D01*
X91547619Y-91154819D02*
X91404762Y-91107200D01*
X91404762Y-91107200D02*
X91309524Y-91011961D01*
X91309524Y-91011961D02*
X91261905Y-90916723D01*
X91261905Y-90916723D02*
X91214286Y-90726247D01*
X91214286Y-90726247D02*
X91214286Y-90583390D01*
X91214286Y-90583390D02*
X91261905Y-90392914D01*
X91261905Y-90392914D02*
X91309524Y-90297676D01*
X91309524Y-90297676D02*
X91404762Y-90202438D01*
X91404762Y-90202438D02*
X91547619Y-90154819D01*
X91547619Y-90154819D02*
X91642857Y-90154819D01*
X91642857Y-90154819D02*
X91785714Y-90202438D01*
X91785714Y-90202438D02*
X91833333Y-90250057D01*
X92690476Y-90488152D02*
X92690476Y-91154819D01*
X92452381Y-90107200D02*
X92214286Y-90821485D01*
X92214286Y-90821485D02*
X92833333Y-90821485D01*
X144238095Y-60854819D02*
X144238095Y-59854819D01*
X144238095Y-60331009D02*
X144809523Y-60331009D01*
X144809523Y-60854819D02*
X144809523Y-59854819D01*
X145238095Y-59950057D02*
X145285714Y-59902438D01*
X145285714Y-59902438D02*
X145380952Y-59854819D01*
X145380952Y-59854819D02*
X145619047Y-59854819D01*
X145619047Y-59854819D02*
X145714285Y-59902438D01*
X145714285Y-59902438D02*
X145761904Y-59950057D01*
X145761904Y-59950057D02*
X145809523Y-60045295D01*
X145809523Y-60045295D02*
X145809523Y-60140533D01*
X145809523Y-60140533D02*
X145761904Y-60283390D01*
X145761904Y-60283390D02*
X145190476Y-60854819D01*
X145190476Y-60854819D02*
X145809523Y-60854819D01*
X116221666Y-69454819D02*
X116221666Y-70169104D01*
X116221666Y-70169104D02*
X116174047Y-70311961D01*
X116174047Y-70311961D02*
X116078809Y-70407200D01*
X116078809Y-70407200D02*
X115935952Y-70454819D01*
X115935952Y-70454819D02*
X115840714Y-70454819D01*
X116650238Y-69550057D02*
X116697857Y-69502438D01*
X116697857Y-69502438D02*
X116793095Y-69454819D01*
X116793095Y-69454819D02*
X117031190Y-69454819D01*
X117031190Y-69454819D02*
X117126428Y-69502438D01*
X117126428Y-69502438D02*
X117174047Y-69550057D01*
X117174047Y-69550057D02*
X117221666Y-69645295D01*
X117221666Y-69645295D02*
X117221666Y-69740533D01*
X117221666Y-69740533D02*
X117174047Y-69883390D01*
X117174047Y-69883390D02*
X116602619Y-70454819D01*
X116602619Y-70454819D02*
X117221666Y-70454819D01*
X81833333Y-87929580D02*
X81785714Y-87977200D01*
X81785714Y-87977200D02*
X81642857Y-88024819D01*
X81642857Y-88024819D02*
X81547619Y-88024819D01*
X81547619Y-88024819D02*
X81404762Y-87977200D01*
X81404762Y-87977200D02*
X81309524Y-87881961D01*
X81309524Y-87881961D02*
X81261905Y-87786723D01*
X81261905Y-87786723D02*
X81214286Y-87596247D01*
X81214286Y-87596247D02*
X81214286Y-87453390D01*
X81214286Y-87453390D02*
X81261905Y-87262914D01*
X81261905Y-87262914D02*
X81309524Y-87167676D01*
X81309524Y-87167676D02*
X81404762Y-87072438D01*
X81404762Y-87072438D02*
X81547619Y-87024819D01*
X81547619Y-87024819D02*
X81642857Y-87024819D01*
X81642857Y-87024819D02*
X81785714Y-87072438D01*
X81785714Y-87072438D02*
X81833333Y-87120057D01*
X82738095Y-87024819D02*
X82261905Y-87024819D01*
X82261905Y-87024819D02*
X82214286Y-87501009D01*
X82214286Y-87501009D02*
X82261905Y-87453390D01*
X82261905Y-87453390D02*
X82357143Y-87405771D01*
X82357143Y-87405771D02*
X82595238Y-87405771D01*
X82595238Y-87405771D02*
X82690476Y-87453390D01*
X82690476Y-87453390D02*
X82738095Y-87501009D01*
X82738095Y-87501009D02*
X82785714Y-87596247D01*
X82785714Y-87596247D02*
X82785714Y-87834342D01*
X82785714Y-87834342D02*
X82738095Y-87929580D01*
X82738095Y-87929580D02*
X82690476Y-87977200D01*
X82690476Y-87977200D02*
X82595238Y-88024819D01*
X82595238Y-88024819D02*
X82357143Y-88024819D01*
X82357143Y-88024819D02*
X82261905Y-87977200D01*
X82261905Y-87977200D02*
X82214286Y-87929580D01*
X78833333Y-89859580D02*
X78785714Y-89907200D01*
X78785714Y-89907200D02*
X78642857Y-89954819D01*
X78642857Y-89954819D02*
X78547619Y-89954819D01*
X78547619Y-89954819D02*
X78404762Y-89907200D01*
X78404762Y-89907200D02*
X78309524Y-89811961D01*
X78309524Y-89811961D02*
X78261905Y-89716723D01*
X78261905Y-89716723D02*
X78214286Y-89526247D01*
X78214286Y-89526247D02*
X78214286Y-89383390D01*
X78214286Y-89383390D02*
X78261905Y-89192914D01*
X78261905Y-89192914D02*
X78309524Y-89097676D01*
X78309524Y-89097676D02*
X78404762Y-89002438D01*
X78404762Y-89002438D02*
X78547619Y-88954819D01*
X78547619Y-88954819D02*
X78642857Y-88954819D01*
X78642857Y-88954819D02*
X78785714Y-89002438D01*
X78785714Y-89002438D02*
X78833333Y-89050057D01*
X79214286Y-89050057D02*
X79261905Y-89002438D01*
X79261905Y-89002438D02*
X79357143Y-88954819D01*
X79357143Y-88954819D02*
X79595238Y-88954819D01*
X79595238Y-88954819D02*
X79690476Y-89002438D01*
X79690476Y-89002438D02*
X79738095Y-89050057D01*
X79738095Y-89050057D02*
X79785714Y-89145295D01*
X79785714Y-89145295D02*
X79785714Y-89240533D01*
X79785714Y-89240533D02*
X79738095Y-89383390D01*
X79738095Y-89383390D02*
X79166667Y-89954819D01*
X79166667Y-89954819D02*
X79785714Y-89954819D01*
X74523809Y-88178628D02*
X74523809Y-88654819D01*
X74190476Y-87654819D02*
X74523809Y-88178628D01*
X74523809Y-88178628D02*
X74857142Y-87654819D01*
X75714285Y-88654819D02*
X75142857Y-88654819D01*
X75428571Y-88654819D02*
X75428571Y-87654819D01*
X75428571Y-87654819D02*
X75333333Y-87797676D01*
X75333333Y-87797676D02*
X75238095Y-87892914D01*
X75238095Y-87892914D02*
X75142857Y-87940533D01*
X63916667Y-108407200D02*
X64059524Y-108454819D01*
X64059524Y-108454819D02*
X64297619Y-108454819D01*
X64297619Y-108454819D02*
X64392857Y-108407200D01*
X64392857Y-108407200D02*
X64440476Y-108359580D01*
X64440476Y-108359580D02*
X64488095Y-108264342D01*
X64488095Y-108264342D02*
X64488095Y-108169104D01*
X64488095Y-108169104D02*
X64440476Y-108073866D01*
X64440476Y-108073866D02*
X64392857Y-108026247D01*
X64392857Y-108026247D02*
X64297619Y-107978628D01*
X64297619Y-107978628D02*
X64107143Y-107931009D01*
X64107143Y-107931009D02*
X64011905Y-107883390D01*
X64011905Y-107883390D02*
X63964286Y-107835771D01*
X63964286Y-107835771D02*
X63916667Y-107740533D01*
X63916667Y-107740533D02*
X63916667Y-107645295D01*
X63916667Y-107645295D02*
X63964286Y-107550057D01*
X63964286Y-107550057D02*
X64011905Y-107502438D01*
X64011905Y-107502438D02*
X64107143Y-107454819D01*
X64107143Y-107454819D02*
X64345238Y-107454819D01*
X64345238Y-107454819D02*
X64488095Y-107502438D01*
X64821429Y-107454819D02*
X65059524Y-108454819D01*
X65059524Y-108454819D02*
X65250000Y-107740533D01*
X65250000Y-107740533D02*
X65440476Y-108454819D01*
X65440476Y-108454819D02*
X65678572Y-107454819D01*
X66583333Y-108454819D02*
X66011905Y-108454819D01*
X66297619Y-108454819D02*
X66297619Y-107454819D01*
X66297619Y-107454819D02*
X66202381Y-107597676D01*
X66202381Y-107597676D02*
X66107143Y-107692914D01*
X66107143Y-107692914D02*
X66011905Y-107740533D01*
X75833333Y-104854819D02*
X75500000Y-104378628D01*
X75261905Y-104854819D02*
X75261905Y-103854819D01*
X75261905Y-103854819D02*
X75642857Y-103854819D01*
X75642857Y-103854819D02*
X75738095Y-103902438D01*
X75738095Y-103902438D02*
X75785714Y-103950057D01*
X75785714Y-103950057D02*
X75833333Y-104045295D01*
X75833333Y-104045295D02*
X75833333Y-104188152D01*
X75833333Y-104188152D02*
X75785714Y-104283390D01*
X75785714Y-104283390D02*
X75738095Y-104331009D01*
X75738095Y-104331009D02*
X75642857Y-104378628D01*
X75642857Y-104378628D02*
X75261905Y-104378628D01*
X76166667Y-103854819D02*
X76785714Y-103854819D01*
X76785714Y-103854819D02*
X76452381Y-104235771D01*
X76452381Y-104235771D02*
X76595238Y-104235771D01*
X76595238Y-104235771D02*
X76690476Y-104283390D01*
X76690476Y-104283390D02*
X76738095Y-104331009D01*
X76738095Y-104331009D02*
X76785714Y-104426247D01*
X76785714Y-104426247D02*
X76785714Y-104664342D01*
X76785714Y-104664342D02*
X76738095Y-104759580D01*
X76738095Y-104759580D02*
X76690476Y-104807200D01*
X76690476Y-104807200D02*
X76595238Y-104854819D01*
X76595238Y-104854819D02*
X76309524Y-104854819D01*
X76309524Y-104854819D02*
X76214286Y-104807200D01*
X76214286Y-104807200D02*
X76166667Y-104759580D01*
X132557142Y-81359580D02*
X132509523Y-81407200D01*
X132509523Y-81407200D02*
X132366666Y-81454819D01*
X132366666Y-81454819D02*
X132271428Y-81454819D01*
X132271428Y-81454819D02*
X132128571Y-81407200D01*
X132128571Y-81407200D02*
X132033333Y-81311961D01*
X132033333Y-81311961D02*
X131985714Y-81216723D01*
X131985714Y-81216723D02*
X131938095Y-81026247D01*
X131938095Y-81026247D02*
X131938095Y-80883390D01*
X131938095Y-80883390D02*
X131985714Y-80692914D01*
X131985714Y-80692914D02*
X132033333Y-80597676D01*
X132033333Y-80597676D02*
X132128571Y-80502438D01*
X132128571Y-80502438D02*
X132271428Y-80454819D01*
X132271428Y-80454819D02*
X132366666Y-80454819D01*
X132366666Y-80454819D02*
X132509523Y-80502438D01*
X132509523Y-80502438D02*
X132557142Y-80550057D01*
X133509523Y-81454819D02*
X132938095Y-81454819D01*
X133223809Y-81454819D02*
X133223809Y-80454819D01*
X133223809Y-80454819D02*
X133128571Y-80597676D01*
X133128571Y-80597676D02*
X133033333Y-80692914D01*
X133033333Y-80692914D02*
X132938095Y-80740533D01*
X134080952Y-80883390D02*
X133985714Y-80835771D01*
X133985714Y-80835771D02*
X133938095Y-80788152D01*
X133938095Y-80788152D02*
X133890476Y-80692914D01*
X133890476Y-80692914D02*
X133890476Y-80645295D01*
X133890476Y-80645295D02*
X133938095Y-80550057D01*
X133938095Y-80550057D02*
X133985714Y-80502438D01*
X133985714Y-80502438D02*
X134080952Y-80454819D01*
X134080952Y-80454819D02*
X134271428Y-80454819D01*
X134271428Y-80454819D02*
X134366666Y-80502438D01*
X134366666Y-80502438D02*
X134414285Y-80550057D01*
X134414285Y-80550057D02*
X134461904Y-80645295D01*
X134461904Y-80645295D02*
X134461904Y-80692914D01*
X134461904Y-80692914D02*
X134414285Y-80788152D01*
X134414285Y-80788152D02*
X134366666Y-80835771D01*
X134366666Y-80835771D02*
X134271428Y-80883390D01*
X134271428Y-80883390D02*
X134080952Y-80883390D01*
X134080952Y-80883390D02*
X133985714Y-80931009D01*
X133985714Y-80931009D02*
X133938095Y-80978628D01*
X133938095Y-80978628D02*
X133890476Y-81073866D01*
X133890476Y-81073866D02*
X133890476Y-81264342D01*
X133890476Y-81264342D02*
X133938095Y-81359580D01*
X133938095Y-81359580D02*
X133985714Y-81407200D01*
X133985714Y-81407200D02*
X134080952Y-81454819D01*
X134080952Y-81454819D02*
X134271428Y-81454819D01*
X134271428Y-81454819D02*
X134366666Y-81407200D01*
X134366666Y-81407200D02*
X134414285Y-81359580D01*
X134414285Y-81359580D02*
X134461904Y-81264342D01*
X134461904Y-81264342D02*
X134461904Y-81073866D01*
X134461904Y-81073866D02*
X134414285Y-80978628D01*
X134414285Y-80978628D02*
X134366666Y-80931009D01*
X134366666Y-80931009D02*
X134271428Y-80883390D01*
X92833333Y-102679580D02*
X92785714Y-102727200D01*
X92785714Y-102727200D02*
X92642857Y-102774819D01*
X92642857Y-102774819D02*
X92547619Y-102774819D01*
X92547619Y-102774819D02*
X92404762Y-102727200D01*
X92404762Y-102727200D02*
X92309524Y-102631961D01*
X92309524Y-102631961D02*
X92261905Y-102536723D01*
X92261905Y-102536723D02*
X92214286Y-102346247D01*
X92214286Y-102346247D02*
X92214286Y-102203390D01*
X92214286Y-102203390D02*
X92261905Y-102012914D01*
X92261905Y-102012914D02*
X92309524Y-101917676D01*
X92309524Y-101917676D02*
X92404762Y-101822438D01*
X92404762Y-101822438D02*
X92547619Y-101774819D01*
X92547619Y-101774819D02*
X92642857Y-101774819D01*
X92642857Y-101774819D02*
X92785714Y-101822438D01*
X92785714Y-101822438D02*
X92833333Y-101870057D01*
X93166667Y-101774819D02*
X93833333Y-101774819D01*
X93833333Y-101774819D02*
X93404762Y-102774819D01*
X96833333Y-100024819D02*
X96500000Y-99548628D01*
X96261905Y-100024819D02*
X96261905Y-99024819D01*
X96261905Y-99024819D02*
X96642857Y-99024819D01*
X96642857Y-99024819D02*
X96738095Y-99072438D01*
X96738095Y-99072438D02*
X96785714Y-99120057D01*
X96785714Y-99120057D02*
X96833333Y-99215295D01*
X96833333Y-99215295D02*
X96833333Y-99358152D01*
X96833333Y-99358152D02*
X96785714Y-99453390D01*
X96785714Y-99453390D02*
X96738095Y-99501009D01*
X96738095Y-99501009D02*
X96642857Y-99548628D01*
X96642857Y-99548628D02*
X96261905Y-99548628D01*
X97214286Y-99120057D02*
X97261905Y-99072438D01*
X97261905Y-99072438D02*
X97357143Y-99024819D01*
X97357143Y-99024819D02*
X97595238Y-99024819D01*
X97595238Y-99024819D02*
X97690476Y-99072438D01*
X97690476Y-99072438D02*
X97738095Y-99120057D01*
X97738095Y-99120057D02*
X97785714Y-99215295D01*
X97785714Y-99215295D02*
X97785714Y-99310533D01*
X97785714Y-99310533D02*
X97738095Y-99453390D01*
X97738095Y-99453390D02*
X97166667Y-100024819D01*
X97166667Y-100024819D02*
X97785714Y-100024819D01*
X135833333Y-84024819D02*
X135500000Y-83548628D01*
X135261905Y-84024819D02*
X135261905Y-83024819D01*
X135261905Y-83024819D02*
X135642857Y-83024819D01*
X135642857Y-83024819D02*
X135738095Y-83072438D01*
X135738095Y-83072438D02*
X135785714Y-83120057D01*
X135785714Y-83120057D02*
X135833333Y-83215295D01*
X135833333Y-83215295D02*
X135833333Y-83358152D01*
X135833333Y-83358152D02*
X135785714Y-83453390D01*
X135785714Y-83453390D02*
X135738095Y-83501009D01*
X135738095Y-83501009D02*
X135642857Y-83548628D01*
X135642857Y-83548628D02*
X135261905Y-83548628D01*
X136166667Y-83024819D02*
X136833333Y-83024819D01*
X136833333Y-83024819D02*
X136404762Y-84024819D01*
X84238095Y-89604819D02*
X84238095Y-90414342D01*
X84238095Y-90414342D02*
X84285714Y-90509580D01*
X84285714Y-90509580D02*
X84333333Y-90557200D01*
X84333333Y-90557200D02*
X84428571Y-90604819D01*
X84428571Y-90604819D02*
X84619047Y-90604819D01*
X84619047Y-90604819D02*
X84714285Y-90557200D01*
X84714285Y-90557200D02*
X84761904Y-90509580D01*
X84761904Y-90509580D02*
X84809523Y-90414342D01*
X84809523Y-90414342D02*
X84809523Y-89604819D01*
X85809523Y-90604819D02*
X85238095Y-90604819D01*
X85523809Y-90604819D02*
X85523809Y-89604819D01*
X85523809Y-89604819D02*
X85428571Y-89747676D01*
X85428571Y-89747676D02*
X85333333Y-89842914D01*
X85333333Y-89842914D02*
X85238095Y-89890533D01*
X72833333Y-108759580D02*
X72785714Y-108807200D01*
X72785714Y-108807200D02*
X72642857Y-108854819D01*
X72642857Y-108854819D02*
X72547619Y-108854819D01*
X72547619Y-108854819D02*
X72404762Y-108807200D01*
X72404762Y-108807200D02*
X72309524Y-108711961D01*
X72309524Y-108711961D02*
X72261905Y-108616723D01*
X72261905Y-108616723D02*
X72214286Y-108426247D01*
X72214286Y-108426247D02*
X72214286Y-108283390D01*
X72214286Y-108283390D02*
X72261905Y-108092914D01*
X72261905Y-108092914D02*
X72309524Y-107997676D01*
X72309524Y-107997676D02*
X72404762Y-107902438D01*
X72404762Y-107902438D02*
X72547619Y-107854819D01*
X72547619Y-107854819D02*
X72642857Y-107854819D01*
X72642857Y-107854819D02*
X72785714Y-107902438D01*
X72785714Y-107902438D02*
X72833333Y-107950057D01*
X73785714Y-108854819D02*
X73214286Y-108854819D01*
X73500000Y-108854819D02*
X73500000Y-107854819D01*
X73500000Y-107854819D02*
X73404762Y-107997676D01*
X73404762Y-107997676D02*
X73309524Y-108092914D01*
X73309524Y-108092914D02*
X73214286Y-108140533D01*
X110833333Y-80854819D02*
X110500000Y-80378628D01*
X110261905Y-80854819D02*
X110261905Y-79854819D01*
X110261905Y-79854819D02*
X110642857Y-79854819D01*
X110642857Y-79854819D02*
X110738095Y-79902438D01*
X110738095Y-79902438D02*
X110785714Y-79950057D01*
X110785714Y-79950057D02*
X110833333Y-80045295D01*
X110833333Y-80045295D02*
X110833333Y-80188152D01*
X110833333Y-80188152D02*
X110785714Y-80283390D01*
X110785714Y-80283390D02*
X110738095Y-80331009D01*
X110738095Y-80331009D02*
X110642857Y-80378628D01*
X110642857Y-80378628D02*
X110261905Y-80378628D01*
X111309524Y-80854819D02*
X111500000Y-80854819D01*
X111500000Y-80854819D02*
X111595238Y-80807200D01*
X111595238Y-80807200D02*
X111642857Y-80759580D01*
X111642857Y-80759580D02*
X111738095Y-80616723D01*
X111738095Y-80616723D02*
X111785714Y-80426247D01*
X111785714Y-80426247D02*
X111785714Y-80045295D01*
X111785714Y-80045295D02*
X111738095Y-79950057D01*
X111738095Y-79950057D02*
X111690476Y-79902438D01*
X111690476Y-79902438D02*
X111595238Y-79854819D01*
X111595238Y-79854819D02*
X111404762Y-79854819D01*
X111404762Y-79854819D02*
X111309524Y-79902438D01*
X111309524Y-79902438D02*
X111261905Y-79950057D01*
X111261905Y-79950057D02*
X111214286Y-80045295D01*
X111214286Y-80045295D02*
X111214286Y-80283390D01*
X111214286Y-80283390D02*
X111261905Y-80378628D01*
X111261905Y-80378628D02*
X111309524Y-80426247D01*
X111309524Y-80426247D02*
X111404762Y-80473866D01*
X111404762Y-80473866D02*
X111595238Y-80473866D01*
X111595238Y-80473866D02*
X111690476Y-80426247D01*
X111690476Y-80426247D02*
X111738095Y-80378628D01*
X111738095Y-80378628D02*
X111785714Y-80283390D01*
X68857142Y-87359580D02*
X68809523Y-87407200D01*
X68809523Y-87407200D02*
X68666666Y-87454819D01*
X68666666Y-87454819D02*
X68571428Y-87454819D01*
X68571428Y-87454819D02*
X68428571Y-87407200D01*
X68428571Y-87407200D02*
X68333333Y-87311961D01*
X68333333Y-87311961D02*
X68285714Y-87216723D01*
X68285714Y-87216723D02*
X68238095Y-87026247D01*
X68238095Y-87026247D02*
X68238095Y-86883390D01*
X68238095Y-86883390D02*
X68285714Y-86692914D01*
X68285714Y-86692914D02*
X68333333Y-86597676D01*
X68333333Y-86597676D02*
X68428571Y-86502438D01*
X68428571Y-86502438D02*
X68571428Y-86454819D01*
X68571428Y-86454819D02*
X68666666Y-86454819D01*
X68666666Y-86454819D02*
X68809523Y-86502438D01*
X68809523Y-86502438D02*
X68857142Y-86550057D01*
X69809523Y-87454819D02*
X69238095Y-87454819D01*
X69523809Y-87454819D02*
X69523809Y-86454819D01*
X69523809Y-86454819D02*
X69428571Y-86597676D01*
X69428571Y-86597676D02*
X69333333Y-86692914D01*
X69333333Y-86692914D02*
X69238095Y-86740533D01*
X70714285Y-86454819D02*
X70238095Y-86454819D01*
X70238095Y-86454819D02*
X70190476Y-86931009D01*
X70190476Y-86931009D02*
X70238095Y-86883390D01*
X70238095Y-86883390D02*
X70333333Y-86835771D01*
X70333333Y-86835771D02*
X70571428Y-86835771D01*
X70571428Y-86835771D02*
X70666666Y-86883390D01*
X70666666Y-86883390D02*
X70714285Y-86931009D01*
X70714285Y-86931009D02*
X70761904Y-87026247D01*
X70761904Y-87026247D02*
X70761904Y-87264342D01*
X70761904Y-87264342D02*
X70714285Y-87359580D01*
X70714285Y-87359580D02*
X70666666Y-87407200D01*
X70666666Y-87407200D02*
X70571428Y-87454819D01*
X70571428Y-87454819D02*
X70333333Y-87454819D01*
X70333333Y-87454819D02*
X70238095Y-87407200D01*
X70238095Y-87407200D02*
X70190476Y-87359580D01*
X62936666Y-70124819D02*
X62936666Y-70839104D01*
X62936666Y-70839104D02*
X62889047Y-70981961D01*
X62889047Y-70981961D02*
X62793809Y-71077200D01*
X62793809Y-71077200D02*
X62650952Y-71124819D01*
X62650952Y-71124819D02*
X62555714Y-71124819D01*
X63936666Y-71124819D02*
X63365238Y-71124819D01*
X63650952Y-71124819D02*
X63650952Y-70124819D01*
X63650952Y-70124819D02*
X63555714Y-70267676D01*
X63555714Y-70267676D02*
X63460476Y-70362914D01*
X63460476Y-70362914D02*
X63365238Y-70410533D01*
X114666666Y-82281009D02*
X114333333Y-82281009D01*
X114333333Y-82804819D02*
X114333333Y-81804819D01*
X114333333Y-81804819D02*
X114809523Y-81804819D01*
X115714285Y-82804819D02*
X115142857Y-82804819D01*
X115428571Y-82804819D02*
X115428571Y-81804819D01*
X115428571Y-81804819D02*
X115333333Y-81947676D01*
X115333333Y-81947676D02*
X115238095Y-82042914D01*
X115238095Y-82042914D02*
X115142857Y-82090533D01*
X112238095Y-100054819D02*
X112238095Y-100864342D01*
X112238095Y-100864342D02*
X112285714Y-100959580D01*
X112285714Y-100959580D02*
X112333333Y-101007200D01*
X112333333Y-101007200D02*
X112428571Y-101054819D01*
X112428571Y-101054819D02*
X112619047Y-101054819D01*
X112619047Y-101054819D02*
X112714285Y-101007200D01*
X112714285Y-101007200D02*
X112761904Y-100959580D01*
X112761904Y-100959580D02*
X112809523Y-100864342D01*
X112809523Y-100864342D02*
X112809523Y-100054819D01*
X113190476Y-100054819D02*
X113809523Y-100054819D01*
X113809523Y-100054819D02*
X113476190Y-100435771D01*
X113476190Y-100435771D02*
X113619047Y-100435771D01*
X113619047Y-100435771D02*
X113714285Y-100483390D01*
X113714285Y-100483390D02*
X113761904Y-100531009D01*
X113761904Y-100531009D02*
X113809523Y-100626247D01*
X113809523Y-100626247D02*
X113809523Y-100864342D01*
X113809523Y-100864342D02*
X113761904Y-100959580D01*
X113761904Y-100959580D02*
X113714285Y-101007200D01*
X113714285Y-101007200D02*
X113619047Y-101054819D01*
X113619047Y-101054819D02*
X113333333Y-101054819D01*
X113333333Y-101054819D02*
X113238095Y-101007200D01*
X113238095Y-101007200D02*
X113190476Y-100959580D01*
X54238095Y-60854819D02*
X54238095Y-59854819D01*
X54238095Y-60331009D02*
X54809523Y-60331009D01*
X54809523Y-60854819D02*
X54809523Y-59854819D01*
X55809523Y-60854819D02*
X55238095Y-60854819D01*
X55523809Y-60854819D02*
X55523809Y-59854819D01*
X55523809Y-59854819D02*
X55428571Y-59997676D01*
X55428571Y-59997676D02*
X55333333Y-60092914D01*
X55333333Y-60092914D02*
X55238095Y-60140533D01*
X108357142Y-74559580D02*
X108309523Y-74607200D01*
X108309523Y-74607200D02*
X108166666Y-74654819D01*
X108166666Y-74654819D02*
X108071428Y-74654819D01*
X108071428Y-74654819D02*
X107928571Y-74607200D01*
X107928571Y-74607200D02*
X107833333Y-74511961D01*
X107833333Y-74511961D02*
X107785714Y-74416723D01*
X107785714Y-74416723D02*
X107738095Y-74226247D01*
X107738095Y-74226247D02*
X107738095Y-74083390D01*
X107738095Y-74083390D02*
X107785714Y-73892914D01*
X107785714Y-73892914D02*
X107833333Y-73797676D01*
X107833333Y-73797676D02*
X107928571Y-73702438D01*
X107928571Y-73702438D02*
X108071428Y-73654819D01*
X108071428Y-73654819D02*
X108166666Y-73654819D01*
X108166666Y-73654819D02*
X108309523Y-73702438D01*
X108309523Y-73702438D02*
X108357142Y-73750057D01*
X109309523Y-74654819D02*
X108738095Y-74654819D01*
X109023809Y-74654819D02*
X109023809Y-73654819D01*
X109023809Y-73654819D02*
X108928571Y-73797676D01*
X108928571Y-73797676D02*
X108833333Y-73892914D01*
X108833333Y-73892914D02*
X108738095Y-73940533D01*
X110261904Y-74654819D02*
X109690476Y-74654819D01*
X109976190Y-74654819D02*
X109976190Y-73654819D01*
X109976190Y-73654819D02*
X109880952Y-73797676D01*
X109880952Y-73797676D02*
X109785714Y-73892914D01*
X109785714Y-73892914D02*
X109690476Y-73940533D01*
X95833333Y-111024819D02*
X95500000Y-110548628D01*
X95261905Y-111024819D02*
X95261905Y-110024819D01*
X95261905Y-110024819D02*
X95642857Y-110024819D01*
X95642857Y-110024819D02*
X95738095Y-110072438D01*
X95738095Y-110072438D02*
X95785714Y-110120057D01*
X95785714Y-110120057D02*
X95833333Y-110215295D01*
X95833333Y-110215295D02*
X95833333Y-110358152D01*
X95833333Y-110358152D02*
X95785714Y-110453390D01*
X95785714Y-110453390D02*
X95738095Y-110501009D01*
X95738095Y-110501009D02*
X95642857Y-110548628D01*
X95642857Y-110548628D02*
X95261905Y-110548628D01*
X96690476Y-110358152D02*
X96690476Y-111024819D01*
X96452381Y-109977200D02*
X96214286Y-110691485D01*
X96214286Y-110691485D02*
X96833333Y-110691485D01*
X124833333Y-93854819D02*
X124500000Y-93378628D01*
X124261905Y-93854819D02*
X124261905Y-92854819D01*
X124261905Y-92854819D02*
X124642857Y-92854819D01*
X124642857Y-92854819D02*
X124738095Y-92902438D01*
X124738095Y-92902438D02*
X124785714Y-92950057D01*
X124785714Y-92950057D02*
X124833333Y-93045295D01*
X124833333Y-93045295D02*
X124833333Y-93188152D01*
X124833333Y-93188152D02*
X124785714Y-93283390D01*
X124785714Y-93283390D02*
X124738095Y-93331009D01*
X124738095Y-93331009D02*
X124642857Y-93378628D01*
X124642857Y-93378628D02*
X124261905Y-93378628D01*
X125738095Y-92854819D02*
X125261905Y-92854819D01*
X125261905Y-92854819D02*
X125214286Y-93331009D01*
X125214286Y-93331009D02*
X125261905Y-93283390D01*
X125261905Y-93283390D02*
X125357143Y-93235771D01*
X125357143Y-93235771D02*
X125595238Y-93235771D01*
X125595238Y-93235771D02*
X125690476Y-93283390D01*
X125690476Y-93283390D02*
X125738095Y-93331009D01*
X125738095Y-93331009D02*
X125785714Y-93426247D01*
X125785714Y-93426247D02*
X125785714Y-93664342D01*
X125785714Y-93664342D02*
X125738095Y-93759580D01*
X125738095Y-93759580D02*
X125690476Y-93807200D01*
X125690476Y-93807200D02*
X125595238Y-93854819D01*
X125595238Y-93854819D02*
X125357143Y-93854819D01*
X125357143Y-93854819D02*
X125261905Y-93807200D01*
X125261905Y-93807200D02*
X125214286Y-93759580D01*
X114357142Y-89679580D02*
X114309523Y-89727200D01*
X114309523Y-89727200D02*
X114166666Y-89774819D01*
X114166666Y-89774819D02*
X114071428Y-89774819D01*
X114071428Y-89774819D02*
X113928571Y-89727200D01*
X113928571Y-89727200D02*
X113833333Y-89631961D01*
X113833333Y-89631961D02*
X113785714Y-89536723D01*
X113785714Y-89536723D02*
X113738095Y-89346247D01*
X113738095Y-89346247D02*
X113738095Y-89203390D01*
X113738095Y-89203390D02*
X113785714Y-89012914D01*
X113785714Y-89012914D02*
X113833333Y-88917676D01*
X113833333Y-88917676D02*
X113928571Y-88822438D01*
X113928571Y-88822438D02*
X114071428Y-88774819D01*
X114071428Y-88774819D02*
X114166666Y-88774819D01*
X114166666Y-88774819D02*
X114309523Y-88822438D01*
X114309523Y-88822438D02*
X114357142Y-88870057D01*
X115309523Y-89774819D02*
X114738095Y-89774819D01*
X115023809Y-89774819D02*
X115023809Y-88774819D01*
X115023809Y-88774819D02*
X114928571Y-88917676D01*
X114928571Y-88917676D02*
X114833333Y-89012914D01*
X114833333Y-89012914D02*
X114738095Y-89060533D01*
X115642857Y-88774819D02*
X116309523Y-88774819D01*
X116309523Y-88774819D02*
X115880952Y-89774819D01*
X85433333Y-103359580D02*
X85385714Y-103407200D01*
X85385714Y-103407200D02*
X85242857Y-103454819D01*
X85242857Y-103454819D02*
X85147619Y-103454819D01*
X85147619Y-103454819D02*
X85004762Y-103407200D01*
X85004762Y-103407200D02*
X84909524Y-103311961D01*
X84909524Y-103311961D02*
X84861905Y-103216723D01*
X84861905Y-103216723D02*
X84814286Y-103026247D01*
X84814286Y-103026247D02*
X84814286Y-102883390D01*
X84814286Y-102883390D02*
X84861905Y-102692914D01*
X84861905Y-102692914D02*
X84909524Y-102597676D01*
X84909524Y-102597676D02*
X85004762Y-102502438D01*
X85004762Y-102502438D02*
X85147619Y-102454819D01*
X85147619Y-102454819D02*
X85242857Y-102454819D01*
X85242857Y-102454819D02*
X85385714Y-102502438D01*
X85385714Y-102502438D02*
X85433333Y-102550057D01*
X85766667Y-102454819D02*
X86385714Y-102454819D01*
X86385714Y-102454819D02*
X86052381Y-102835771D01*
X86052381Y-102835771D02*
X86195238Y-102835771D01*
X86195238Y-102835771D02*
X86290476Y-102883390D01*
X86290476Y-102883390D02*
X86338095Y-102931009D01*
X86338095Y-102931009D02*
X86385714Y-103026247D01*
X86385714Y-103026247D02*
X86385714Y-103264342D01*
X86385714Y-103264342D02*
X86338095Y-103359580D01*
X86338095Y-103359580D02*
X86290476Y-103407200D01*
X86290476Y-103407200D02*
X86195238Y-103454819D01*
X86195238Y-103454819D02*
X85909524Y-103454819D01*
X85909524Y-103454819D02*
X85814286Y-103407200D01*
X85814286Y-103407200D02*
X85766667Y-103359580D01*
X132557142Y-102359580D02*
X132509523Y-102407200D01*
X132509523Y-102407200D02*
X132366666Y-102454819D01*
X132366666Y-102454819D02*
X132271428Y-102454819D01*
X132271428Y-102454819D02*
X132128571Y-102407200D01*
X132128571Y-102407200D02*
X132033333Y-102311961D01*
X132033333Y-102311961D02*
X131985714Y-102216723D01*
X131985714Y-102216723D02*
X131938095Y-102026247D01*
X131938095Y-102026247D02*
X131938095Y-101883390D01*
X131938095Y-101883390D02*
X131985714Y-101692914D01*
X131985714Y-101692914D02*
X132033333Y-101597676D01*
X132033333Y-101597676D02*
X132128571Y-101502438D01*
X132128571Y-101502438D02*
X132271428Y-101454819D01*
X132271428Y-101454819D02*
X132366666Y-101454819D01*
X132366666Y-101454819D02*
X132509523Y-101502438D01*
X132509523Y-101502438D02*
X132557142Y-101550057D01*
X133509523Y-102454819D02*
X132938095Y-102454819D01*
X133223809Y-102454819D02*
X133223809Y-101454819D01*
X133223809Y-101454819D02*
X133128571Y-101597676D01*
X133128571Y-101597676D02*
X133033333Y-101692914D01*
X133033333Y-101692914D02*
X132938095Y-101740533D01*
X133985714Y-102454819D02*
X134176190Y-102454819D01*
X134176190Y-102454819D02*
X134271428Y-102407200D01*
X134271428Y-102407200D02*
X134319047Y-102359580D01*
X134319047Y-102359580D02*
X134414285Y-102216723D01*
X134414285Y-102216723D02*
X134461904Y-102026247D01*
X134461904Y-102026247D02*
X134461904Y-101645295D01*
X134461904Y-101645295D02*
X134414285Y-101550057D01*
X134414285Y-101550057D02*
X134366666Y-101502438D01*
X134366666Y-101502438D02*
X134271428Y-101454819D01*
X134271428Y-101454819D02*
X134080952Y-101454819D01*
X134080952Y-101454819D02*
X133985714Y-101502438D01*
X133985714Y-101502438D02*
X133938095Y-101550057D01*
X133938095Y-101550057D02*
X133890476Y-101645295D01*
X133890476Y-101645295D02*
X133890476Y-101883390D01*
X133890476Y-101883390D02*
X133938095Y-101978628D01*
X133938095Y-101978628D02*
X133985714Y-102026247D01*
X133985714Y-102026247D02*
X134080952Y-102073866D01*
X134080952Y-102073866D02*
X134271428Y-102073866D01*
X134271428Y-102073866D02*
X134366666Y-102026247D01*
X134366666Y-102026247D02*
X134414285Y-101978628D01*
X134414285Y-101978628D02*
X134461904Y-101883390D01*
X113857142Y-73359580D02*
X113809523Y-73407200D01*
X113809523Y-73407200D02*
X113666666Y-73454819D01*
X113666666Y-73454819D02*
X113571428Y-73454819D01*
X113571428Y-73454819D02*
X113428571Y-73407200D01*
X113428571Y-73407200D02*
X113333333Y-73311961D01*
X113333333Y-73311961D02*
X113285714Y-73216723D01*
X113285714Y-73216723D02*
X113238095Y-73026247D01*
X113238095Y-73026247D02*
X113238095Y-72883390D01*
X113238095Y-72883390D02*
X113285714Y-72692914D01*
X113285714Y-72692914D02*
X113333333Y-72597676D01*
X113333333Y-72597676D02*
X113428571Y-72502438D01*
X113428571Y-72502438D02*
X113571428Y-72454819D01*
X113571428Y-72454819D02*
X113666666Y-72454819D01*
X113666666Y-72454819D02*
X113809523Y-72502438D01*
X113809523Y-72502438D02*
X113857142Y-72550057D01*
X114809523Y-73454819D02*
X114238095Y-73454819D01*
X114523809Y-73454819D02*
X114523809Y-72454819D01*
X114523809Y-72454819D02*
X114428571Y-72597676D01*
X114428571Y-72597676D02*
X114333333Y-72692914D01*
X114333333Y-72692914D02*
X114238095Y-72740533D01*
X115190476Y-72550057D02*
X115238095Y-72502438D01*
X115238095Y-72502438D02*
X115333333Y-72454819D01*
X115333333Y-72454819D02*
X115571428Y-72454819D01*
X115571428Y-72454819D02*
X115666666Y-72502438D01*
X115666666Y-72502438D02*
X115714285Y-72550057D01*
X115714285Y-72550057D02*
X115761904Y-72645295D01*
X115761904Y-72645295D02*
X115761904Y-72740533D01*
X115761904Y-72740533D02*
X115714285Y-72883390D01*
X115714285Y-72883390D02*
X115142857Y-73454819D01*
X115142857Y-73454819D02*
X115761904Y-73454819D01*
X129666666Y-96281009D02*
X129333333Y-96281009D01*
X129333333Y-96804819D02*
X129333333Y-95804819D01*
X129333333Y-95804819D02*
X129809523Y-95804819D01*
X130095238Y-95804819D02*
X130714285Y-95804819D01*
X130714285Y-95804819D02*
X130380952Y-96185771D01*
X130380952Y-96185771D02*
X130523809Y-96185771D01*
X130523809Y-96185771D02*
X130619047Y-96233390D01*
X130619047Y-96233390D02*
X130666666Y-96281009D01*
X130666666Y-96281009D02*
X130714285Y-96376247D01*
X130714285Y-96376247D02*
X130714285Y-96614342D01*
X130714285Y-96614342D02*
X130666666Y-96709580D01*
X130666666Y-96709580D02*
X130619047Y-96757200D01*
X130619047Y-96757200D02*
X130523809Y-96804819D01*
X130523809Y-96804819D02*
X130238095Y-96804819D01*
X130238095Y-96804819D02*
X130142857Y-96757200D01*
X130142857Y-96757200D02*
X130095238Y-96709580D01*
X129238095Y-105054819D02*
X129238095Y-105864342D01*
X129238095Y-105864342D02*
X129285714Y-105959580D01*
X129285714Y-105959580D02*
X129333333Y-106007200D01*
X129333333Y-106007200D02*
X129428571Y-106054819D01*
X129428571Y-106054819D02*
X129619047Y-106054819D01*
X129619047Y-106054819D02*
X129714285Y-106007200D01*
X129714285Y-106007200D02*
X129761904Y-105959580D01*
X129761904Y-105959580D02*
X129809523Y-105864342D01*
X129809523Y-105864342D02*
X129809523Y-105054819D01*
X130761904Y-105054819D02*
X130285714Y-105054819D01*
X130285714Y-105054819D02*
X130238095Y-105531009D01*
X130238095Y-105531009D02*
X130285714Y-105483390D01*
X130285714Y-105483390D02*
X130380952Y-105435771D01*
X130380952Y-105435771D02*
X130619047Y-105435771D01*
X130619047Y-105435771D02*
X130714285Y-105483390D01*
X130714285Y-105483390D02*
X130761904Y-105531009D01*
X130761904Y-105531009D02*
X130809523Y-105626247D01*
X130809523Y-105626247D02*
X130809523Y-105864342D01*
X130809523Y-105864342D02*
X130761904Y-105959580D01*
X130761904Y-105959580D02*
X130714285Y-106007200D01*
X130714285Y-106007200D02*
X130619047Y-106054819D01*
X130619047Y-106054819D02*
X130380952Y-106054819D01*
X130380952Y-106054819D02*
X130285714Y-106007200D01*
X130285714Y-106007200D02*
X130238095Y-105959580D01*
X71357142Y-97759580D02*
X71309523Y-97807200D01*
X71309523Y-97807200D02*
X71166666Y-97854819D01*
X71166666Y-97854819D02*
X71071428Y-97854819D01*
X71071428Y-97854819D02*
X70928571Y-97807200D01*
X70928571Y-97807200D02*
X70833333Y-97711961D01*
X70833333Y-97711961D02*
X70785714Y-97616723D01*
X70785714Y-97616723D02*
X70738095Y-97426247D01*
X70738095Y-97426247D02*
X70738095Y-97283390D01*
X70738095Y-97283390D02*
X70785714Y-97092914D01*
X70785714Y-97092914D02*
X70833333Y-96997676D01*
X70833333Y-96997676D02*
X70928571Y-96902438D01*
X70928571Y-96902438D02*
X71071428Y-96854819D01*
X71071428Y-96854819D02*
X71166666Y-96854819D01*
X71166666Y-96854819D02*
X71309523Y-96902438D01*
X71309523Y-96902438D02*
X71357142Y-96950057D01*
X72309523Y-97854819D02*
X71738095Y-97854819D01*
X72023809Y-97854819D02*
X72023809Y-96854819D01*
X72023809Y-96854819D02*
X71928571Y-96997676D01*
X71928571Y-96997676D02*
X71833333Y-97092914D01*
X71833333Y-97092914D02*
X71738095Y-97140533D01*
X73166666Y-96854819D02*
X72976190Y-96854819D01*
X72976190Y-96854819D02*
X72880952Y-96902438D01*
X72880952Y-96902438D02*
X72833333Y-96950057D01*
X72833333Y-96950057D02*
X72738095Y-97092914D01*
X72738095Y-97092914D02*
X72690476Y-97283390D01*
X72690476Y-97283390D02*
X72690476Y-97664342D01*
X72690476Y-97664342D02*
X72738095Y-97759580D01*
X72738095Y-97759580D02*
X72785714Y-97807200D01*
X72785714Y-97807200D02*
X72880952Y-97854819D01*
X72880952Y-97854819D02*
X73071428Y-97854819D01*
X73071428Y-97854819D02*
X73166666Y-97807200D01*
X73166666Y-97807200D02*
X73214285Y-97759580D01*
X73214285Y-97759580D02*
X73261904Y-97664342D01*
X73261904Y-97664342D02*
X73261904Y-97426247D01*
X73261904Y-97426247D02*
X73214285Y-97331009D01*
X73214285Y-97331009D02*
X73166666Y-97283390D01*
X73166666Y-97283390D02*
X73071428Y-97235771D01*
X73071428Y-97235771D02*
X72880952Y-97235771D01*
X72880952Y-97235771D02*
X72785714Y-97283390D01*
X72785714Y-97283390D02*
X72738095Y-97331009D01*
X72738095Y-97331009D02*
X72690476Y-97426247D01*
X79833333Y-102024819D02*
X79500000Y-101548628D01*
X79261905Y-102024819D02*
X79261905Y-101024819D01*
X79261905Y-101024819D02*
X79642857Y-101024819D01*
X79642857Y-101024819D02*
X79738095Y-101072438D01*
X79738095Y-101072438D02*
X79785714Y-101120057D01*
X79785714Y-101120057D02*
X79833333Y-101215295D01*
X79833333Y-101215295D02*
X79833333Y-101358152D01*
X79833333Y-101358152D02*
X79785714Y-101453390D01*
X79785714Y-101453390D02*
X79738095Y-101501009D01*
X79738095Y-101501009D02*
X79642857Y-101548628D01*
X79642857Y-101548628D02*
X79261905Y-101548628D01*
X80785714Y-102024819D02*
X80214286Y-102024819D01*
X80500000Y-102024819D02*
X80500000Y-101024819D01*
X80500000Y-101024819D02*
X80404762Y-101167676D01*
X80404762Y-101167676D02*
X80309524Y-101262914D01*
X80309524Y-101262914D02*
X80214286Y-101310533D01*
X129666666Y-75281009D02*
X129333333Y-75281009D01*
X129333333Y-75804819D02*
X129333333Y-74804819D01*
X129333333Y-74804819D02*
X129809523Y-74804819D01*
X130142857Y-74900057D02*
X130190476Y-74852438D01*
X130190476Y-74852438D02*
X130285714Y-74804819D01*
X130285714Y-74804819D02*
X130523809Y-74804819D01*
X130523809Y-74804819D02*
X130619047Y-74852438D01*
X130619047Y-74852438D02*
X130666666Y-74900057D01*
X130666666Y-74900057D02*
X130714285Y-74995295D01*
X130714285Y-74995295D02*
X130714285Y-75090533D01*
X130714285Y-75090533D02*
X130666666Y-75233390D01*
X130666666Y-75233390D02*
X130095238Y-75804819D01*
X130095238Y-75804819D02*
X130714285Y-75804819D01*
X138266666Y-91454819D02*
X138266666Y-92169104D01*
X138266666Y-92169104D02*
X138219047Y-92311961D01*
X138219047Y-92311961D02*
X138123809Y-92407200D01*
X138123809Y-92407200D02*
X137980952Y-92454819D01*
X137980952Y-92454819D02*
X137885714Y-92454819D01*
X138647619Y-91454819D02*
X139266666Y-91454819D01*
X139266666Y-91454819D02*
X138933333Y-91835771D01*
X138933333Y-91835771D02*
X139076190Y-91835771D01*
X139076190Y-91835771D02*
X139171428Y-91883390D01*
X139171428Y-91883390D02*
X139219047Y-91931009D01*
X139219047Y-91931009D02*
X139266666Y-92026247D01*
X139266666Y-92026247D02*
X139266666Y-92264342D01*
X139266666Y-92264342D02*
X139219047Y-92359580D01*
X139219047Y-92359580D02*
X139171428Y-92407200D01*
X139171428Y-92407200D02*
X139076190Y-92454819D01*
X139076190Y-92454819D02*
X138790476Y-92454819D01*
X138790476Y-92454819D02*
X138695238Y-92407200D01*
X138695238Y-92407200D02*
X138647619Y-92359580D01*
X125357142Y-106759580D02*
X125309523Y-106807200D01*
X125309523Y-106807200D02*
X125166666Y-106854819D01*
X125166666Y-106854819D02*
X125071428Y-106854819D01*
X125071428Y-106854819D02*
X124928571Y-106807200D01*
X124928571Y-106807200D02*
X124833333Y-106711961D01*
X124833333Y-106711961D02*
X124785714Y-106616723D01*
X124785714Y-106616723D02*
X124738095Y-106426247D01*
X124738095Y-106426247D02*
X124738095Y-106283390D01*
X124738095Y-106283390D02*
X124785714Y-106092914D01*
X124785714Y-106092914D02*
X124833333Y-105997676D01*
X124833333Y-105997676D02*
X124928571Y-105902438D01*
X124928571Y-105902438D02*
X125071428Y-105854819D01*
X125071428Y-105854819D02*
X125166666Y-105854819D01*
X125166666Y-105854819D02*
X125309523Y-105902438D01*
X125309523Y-105902438D02*
X125357142Y-105950057D01*
X126309523Y-106854819D02*
X125738095Y-106854819D01*
X126023809Y-106854819D02*
X126023809Y-105854819D01*
X126023809Y-105854819D02*
X125928571Y-105997676D01*
X125928571Y-105997676D02*
X125833333Y-106092914D01*
X125833333Y-106092914D02*
X125738095Y-106140533D01*
X127166666Y-106188152D02*
X127166666Y-106854819D01*
X126928571Y-105807200D02*
X126690476Y-106521485D01*
X126690476Y-106521485D02*
X127309523Y-106521485D01*
X137238095Y-125454819D02*
X137238095Y-124454819D01*
X137238095Y-124931009D02*
X137809523Y-124931009D01*
X137809523Y-125454819D02*
X137809523Y-124454819D01*
X138714285Y-124788152D02*
X138714285Y-125454819D01*
X138476190Y-124407200D02*
X138238095Y-125121485D01*
X138238095Y-125121485D02*
X138857142Y-125121485D01*
X110833333Y-110759580D02*
X110785714Y-110807200D01*
X110785714Y-110807200D02*
X110642857Y-110854819D01*
X110642857Y-110854819D02*
X110547619Y-110854819D01*
X110547619Y-110854819D02*
X110404762Y-110807200D01*
X110404762Y-110807200D02*
X110309524Y-110711961D01*
X110309524Y-110711961D02*
X110261905Y-110616723D01*
X110261905Y-110616723D02*
X110214286Y-110426247D01*
X110214286Y-110426247D02*
X110214286Y-110283390D01*
X110214286Y-110283390D02*
X110261905Y-110092914D01*
X110261905Y-110092914D02*
X110309524Y-109997676D01*
X110309524Y-109997676D02*
X110404762Y-109902438D01*
X110404762Y-109902438D02*
X110547619Y-109854819D01*
X110547619Y-109854819D02*
X110642857Y-109854819D01*
X110642857Y-109854819D02*
X110785714Y-109902438D01*
X110785714Y-109902438D02*
X110833333Y-109950057D01*
X111309524Y-110854819D02*
X111500000Y-110854819D01*
X111500000Y-110854819D02*
X111595238Y-110807200D01*
X111595238Y-110807200D02*
X111642857Y-110759580D01*
X111642857Y-110759580D02*
X111738095Y-110616723D01*
X111738095Y-110616723D02*
X111785714Y-110426247D01*
X111785714Y-110426247D02*
X111785714Y-110045295D01*
X111785714Y-110045295D02*
X111738095Y-109950057D01*
X111738095Y-109950057D02*
X111690476Y-109902438D01*
X111690476Y-109902438D02*
X111595238Y-109854819D01*
X111595238Y-109854819D02*
X111404762Y-109854819D01*
X111404762Y-109854819D02*
X111309524Y-109902438D01*
X111309524Y-109902438D02*
X111261905Y-109950057D01*
X111261905Y-109950057D02*
X111214286Y-110045295D01*
X111214286Y-110045295D02*
X111214286Y-110283390D01*
X111214286Y-110283390D02*
X111261905Y-110378628D01*
X111261905Y-110378628D02*
X111309524Y-110426247D01*
X111309524Y-110426247D02*
X111404762Y-110473866D01*
X111404762Y-110473866D02*
X111595238Y-110473866D01*
X111595238Y-110473866D02*
X111690476Y-110426247D01*
X111690476Y-110426247D02*
X111738095Y-110378628D01*
X111738095Y-110378628D02*
X111785714Y-110283390D01*
X77833333Y-100759580D02*
X77785714Y-100807200D01*
X77785714Y-100807200D02*
X77642857Y-100854819D01*
X77642857Y-100854819D02*
X77547619Y-100854819D01*
X77547619Y-100854819D02*
X77404762Y-100807200D01*
X77404762Y-100807200D02*
X77309524Y-100711961D01*
X77309524Y-100711961D02*
X77261905Y-100616723D01*
X77261905Y-100616723D02*
X77214286Y-100426247D01*
X77214286Y-100426247D02*
X77214286Y-100283390D01*
X77214286Y-100283390D02*
X77261905Y-100092914D01*
X77261905Y-100092914D02*
X77309524Y-99997676D01*
X77309524Y-99997676D02*
X77404762Y-99902438D01*
X77404762Y-99902438D02*
X77547619Y-99854819D01*
X77547619Y-99854819D02*
X77642857Y-99854819D01*
X77642857Y-99854819D02*
X77785714Y-99902438D01*
X77785714Y-99902438D02*
X77833333Y-99950057D01*
X78690476Y-99854819D02*
X78500000Y-99854819D01*
X78500000Y-99854819D02*
X78404762Y-99902438D01*
X78404762Y-99902438D02*
X78357143Y-99950057D01*
X78357143Y-99950057D02*
X78261905Y-100092914D01*
X78261905Y-100092914D02*
X78214286Y-100283390D01*
X78214286Y-100283390D02*
X78214286Y-100664342D01*
X78214286Y-100664342D02*
X78261905Y-100759580D01*
X78261905Y-100759580D02*
X78309524Y-100807200D01*
X78309524Y-100807200D02*
X78404762Y-100854819D01*
X78404762Y-100854819D02*
X78595238Y-100854819D01*
X78595238Y-100854819D02*
X78690476Y-100807200D01*
X78690476Y-100807200D02*
X78738095Y-100759580D01*
X78738095Y-100759580D02*
X78785714Y-100664342D01*
X78785714Y-100664342D02*
X78785714Y-100426247D01*
X78785714Y-100426247D02*
X78738095Y-100331009D01*
X78738095Y-100331009D02*
X78690476Y-100283390D01*
X78690476Y-100283390D02*
X78595238Y-100235771D01*
X78595238Y-100235771D02*
X78404762Y-100235771D01*
X78404762Y-100235771D02*
X78309524Y-100283390D01*
X78309524Y-100283390D02*
X78261905Y-100331009D01*
X78261905Y-100331009D02*
X78214286Y-100426247D01*
X95261905Y-115024819D02*
X95261905Y-114024819D01*
X95261905Y-114024819D02*
X95500000Y-114024819D01*
X95500000Y-114024819D02*
X95642857Y-114072438D01*
X95642857Y-114072438D02*
X95738095Y-114167676D01*
X95738095Y-114167676D02*
X95785714Y-114262914D01*
X95785714Y-114262914D02*
X95833333Y-114453390D01*
X95833333Y-114453390D02*
X95833333Y-114596247D01*
X95833333Y-114596247D02*
X95785714Y-114786723D01*
X95785714Y-114786723D02*
X95738095Y-114881961D01*
X95738095Y-114881961D02*
X95642857Y-114977200D01*
X95642857Y-114977200D02*
X95500000Y-115024819D01*
X95500000Y-115024819D02*
X95261905Y-115024819D01*
X96785714Y-115024819D02*
X96214286Y-115024819D01*
X96500000Y-115024819D02*
X96500000Y-114024819D01*
X96500000Y-114024819D02*
X96404762Y-114167676D01*
X96404762Y-114167676D02*
X96309524Y-114262914D01*
X96309524Y-114262914D02*
X96214286Y-114310533D01*
%TO.C,C13*%
D11*
X125490000Y-83140580D02*
X125490000Y-82859420D01*
X126510000Y-83140580D02*
X126510000Y-82859420D01*
%TO.C,JP1*%
X116670000Y-75670000D02*
X118000000Y-75670000D01*
X116670000Y-77000000D02*
X116670000Y-75670000D01*
X116670000Y-78270000D02*
X116670000Y-80870000D01*
X116670000Y-78270000D02*
X119330000Y-78270000D01*
X116670000Y-80870000D02*
X119330000Y-80870000D01*
X119330000Y-78270000D02*
X119330000Y-80870000D01*
%TO.C,J4*%
X139970000Y-108955000D02*
X149700000Y-108955000D01*
X139970000Y-119045000D02*
X139970000Y-108955000D01*
X149700000Y-108955000D02*
X149700000Y-119045000D01*
X149700000Y-119045000D02*
X139970000Y-119045000D01*
%TO.C,U4*%
X130000000Y-85440000D02*
X129200000Y-85440000D01*
X130000000Y-85440000D02*
X130800000Y-85440000D01*
X130000000Y-88560000D02*
X129200000Y-88560000D01*
X130000000Y-88560000D02*
X130800000Y-88560000D01*
X128700000Y-85490000D02*
X128460000Y-85160000D01*
X128940000Y-85160000D01*
X128700000Y-85490000D01*
G36*
X128700000Y-85490000D02*
G01*
X128460000Y-85160000D01*
X128940000Y-85160000D01*
X128700000Y-85490000D01*
G37*
%TO.C,R8*%
X135762742Y-105477500D02*
X136237258Y-105477500D01*
X135762742Y-106522500D02*
X136237258Y-106522500D01*
%TO.C,C8*%
X110265000Y-98261252D02*
X110265000Y-97738748D01*
X111735000Y-98261252D02*
X111735000Y-97738748D01*
%TO.C,U2*%
X97580000Y-67315000D02*
X97580000Y-67605000D01*
X97580000Y-76685000D02*
X97580000Y-76395000D01*
X101000000Y-67315000D02*
X97580000Y-67315000D01*
X101000000Y-67315000D02*
X104420000Y-67315000D01*
X101000000Y-76685000D02*
X97580000Y-76685000D01*
X101000000Y-76685000D02*
X104420000Y-76685000D01*
X104420000Y-67315000D02*
X104420000Y-67605000D01*
X104420000Y-76685000D02*
X104420000Y-76395000D01*
X96495000Y-67605000D02*
X96155000Y-67135000D01*
X96835000Y-67135000D01*
X96495000Y-67605000D01*
G36*
X96495000Y-67605000D02*
G01*
X96155000Y-67135000D01*
X96835000Y-67135000D01*
X96495000Y-67605000D01*
G37*
%TO.C,C10*%
X92990000Y-68140580D02*
X92990000Y-67859420D01*
X94010000Y-68140580D02*
X94010000Y-67859420D01*
%TO.C,R6*%
X124477500Y-112237258D02*
X124477500Y-111762742D01*
X125522500Y-112237258D02*
X125522500Y-111762742D01*
%TO.C,C4*%
X91490000Y-93140580D02*
X91490000Y-92859420D01*
X92510000Y-93140580D02*
X92510000Y-92859420D01*
%TO.C,J2*%
X108795000Y-68880000D02*
X108795000Y-50920000D01*
X108795000Y-68880000D02*
X124315000Y-68880000D01*
X124315000Y-50920000D02*
X108795000Y-50920000D01*
X124315000Y-68880000D02*
X124315000Y-50920000D01*
X124500000Y-65000000D02*
X125000000Y-65500000D01*
X125000000Y-64500000D02*
X124500000Y-65000000D01*
X125000000Y-65500000D02*
X125000000Y-64500000D01*
%TO.C,C5*%
X81859420Y-88490000D02*
X82140580Y-88490000D01*
X81859420Y-89510000D02*
X82140580Y-89510000D01*
%TO.C,C2*%
X78490000Y-92140580D02*
X78490000Y-91859420D01*
X79510000Y-92140580D02*
X79510000Y-91859420D01*
%TO.C,Y1*%
X72350000Y-89150000D02*
X72350000Y-92850000D01*
X72350000Y-92850000D02*
X77650000Y-92850000D01*
%TO.C,SW1*%
X61750000Y-111500000D02*
X61750000Y-113000000D01*
X63000000Y-115500000D02*
X67500000Y-115500000D01*
X67500000Y-109000000D02*
X63000000Y-109000000D01*
X68750000Y-113000000D02*
X68750000Y-111500000D01*
%TO.C,R3*%
X75477500Y-102237258D02*
X75477500Y-101762742D01*
X76522500Y-102237258D02*
X76522500Y-101762742D01*
%TO.C,C18*%
X135265000Y-81261252D02*
X135265000Y-80738748D01*
X136735000Y-81261252D02*
X136735000Y-80738748D01*
%TO.C,C7*%
X92738748Y-103265000D02*
X93261252Y-103265000D01*
X92738748Y-104735000D02*
X93261252Y-104735000D01*
%TO.C,R2*%
X96762742Y-100477500D02*
X97237258Y-100477500D01*
X96762742Y-101522500D02*
X97237258Y-101522500D01*
%TO.C,R7*%
X135762742Y-84477500D02*
X136237258Y-84477500D01*
X135762742Y-85522500D02*
X136237258Y-85522500D01*
%TO.C,U1*%
X81390000Y-92390000D02*
X81390000Y-92840000D01*
X81390000Y-99610000D02*
X81390000Y-99160000D01*
X81840000Y-92390000D02*
X81390000Y-92390000D01*
X81840000Y-99610000D02*
X81390000Y-99610000D01*
X88160000Y-92390000D02*
X88610000Y-92390000D01*
X88160000Y-99610000D02*
X88610000Y-99610000D01*
X88610000Y-92390000D02*
X88610000Y-92840000D01*
X88610000Y-99610000D02*
X88610000Y-99160000D01*
X80800000Y-92840000D02*
X80460000Y-92370000D01*
X81140000Y-92370000D01*
X80800000Y-92840000D01*
G36*
X80800000Y-92840000D02*
G01*
X80460000Y-92370000D01*
X81140000Y-92370000D01*
X80800000Y-92840000D01*
G37*
%TO.C,C1*%
X72490000Y-106140580D02*
X72490000Y-105859420D01*
X73510000Y-106140580D02*
X73510000Y-105859420D01*
%TO.C,R9*%
X110265000Y-78227064D02*
X110265000Y-77772936D01*
X111735000Y-78227064D02*
X111735000Y-77772936D01*
%TO.C,C15*%
X71490000Y-87140580D02*
X71490000Y-86859420D01*
X72510000Y-87140580D02*
X72510000Y-86859420D01*
%TO.C,J1*%
X60670000Y-71670000D02*
X62000000Y-71670000D01*
X60670000Y-73000000D02*
X60670000Y-71670000D01*
X60670000Y-74270000D02*
X60670000Y-84490000D01*
X60670000Y-74270000D02*
X63270000Y-74270000D01*
X60670000Y-84490000D02*
X65870000Y-84490000D01*
X63270000Y-71670000D02*
X65870000Y-71670000D01*
X63270000Y-74270000D02*
X63270000Y-71670000D01*
X65870000Y-71670000D02*
X65870000Y-84490000D01*
%TO.C,F1*%
X113613748Y-83290000D02*
X116386252Y-83290000D01*
X113613748Y-86710000D02*
X116386252Y-86710000D01*
%TO.C,U3*%
X113000000Y-101440000D02*
X112200000Y-101440000D01*
X113000000Y-101440000D02*
X113800000Y-101440000D01*
X113000000Y-104560000D02*
X112200000Y-104560000D01*
X113000000Y-104560000D02*
X113800000Y-104560000D01*
X111700000Y-101490000D02*
X111460000Y-101160000D01*
X111940000Y-101160000D01*
X111700000Y-101490000D01*
G36*
X111700000Y-101490000D02*
G01*
X111460000Y-101160000D01*
X111940000Y-101160000D01*
X111700000Y-101490000D01*
G37*
%TO.C,C11*%
X108490000Y-71340580D02*
X108490000Y-71059420D01*
X109510000Y-71340580D02*
X109510000Y-71059420D01*
%TO.C,R4*%
X95762742Y-111477500D02*
X96237258Y-111477500D01*
X95762742Y-112522500D02*
X96237258Y-112522500D01*
%TO.C,R5*%
X124477500Y-91237258D02*
X124477500Y-90762742D01*
X125522500Y-91237258D02*
X125522500Y-90762742D01*
%TO.C,C17*%
X114738748Y-90265000D02*
X115261252Y-90265000D01*
X114738748Y-91735000D02*
X115261252Y-91735000D01*
%TO.C,C3*%
X87490000Y-103140580D02*
X87490000Y-102859420D01*
X88510000Y-103140580D02*
X88510000Y-102859420D01*
%TO.C,C19*%
X135265000Y-102261252D02*
X135265000Y-101738748D01*
X136735000Y-102261252D02*
X136735000Y-101738748D01*
%TO.C,C12*%
X111265000Y-73261252D02*
X111265000Y-72738748D01*
X112735000Y-73261252D02*
X112735000Y-72738748D01*
%TO.C,F3*%
X128613748Y-97290000D02*
X131386252Y-97290000D01*
X128613748Y-100710000D02*
X131386252Y-100710000D01*
%TO.C,U5*%
X130000000Y-106440000D02*
X129200000Y-106440000D01*
X130000000Y-106440000D02*
X130800000Y-106440000D01*
X130000000Y-109560000D02*
X129200000Y-109560000D01*
X130000000Y-109560000D02*
X130800000Y-109560000D01*
X128700000Y-106490000D02*
X128460000Y-106160000D01*
X128940000Y-106160000D01*
X128700000Y-106490000D01*
G36*
X128700000Y-106490000D02*
G01*
X128460000Y-106160000D01*
X128940000Y-106160000D01*
X128700000Y-106490000D01*
G37*
%TO.C,C16*%
X71490000Y-95140580D02*
X71490000Y-94859420D01*
X72510000Y-95140580D02*
X72510000Y-94859420D01*
%TO.C,R1*%
X79762742Y-102477500D02*
X80237258Y-102477500D01*
X79762742Y-103522500D02*
X80237258Y-103522500D01*
%TO.C,F2*%
X128613748Y-76290000D02*
X131386252Y-76290000D01*
X128613748Y-79710000D02*
X131386252Y-79710000D01*
%TO.C,J3*%
X139970000Y-86955000D02*
X149700000Y-86955000D01*
X139970000Y-97045000D02*
X139970000Y-86955000D01*
X149700000Y-86955000D02*
X149700000Y-97045000D01*
X149700000Y-97045000D02*
X139970000Y-97045000D01*
%TO.C,C14*%
X125490000Y-104140580D02*
X125490000Y-103859420D01*
X126510000Y-104140580D02*
X126510000Y-103859420D01*
%TO.C,C9*%
X110265000Y-108261252D02*
X110265000Y-107738748D01*
X111735000Y-108261252D02*
X111735000Y-107738748D01*
%TO.C,C6*%
X77490000Y-98140580D02*
X77490000Y-97859420D01*
X78510000Y-98140580D02*
X78510000Y-97859420D01*
%TO.C,D1*%
X94515000Y-115265000D02*
X94515000Y-116735000D01*
X94515000Y-116735000D02*
X96800000Y-116735000D01*
X96800000Y-115265000D02*
X94515000Y-115265000D01*
%TD*%
M02*
