%TF.GenerationSoftware,KiCad,Pcbnew,10.0.6*%
%TF.CreationDate,2026-10-07T06:58:14+08:00*%
%TF.ProjectId,Lights_Backpack,4c696768-7473-45f4-9261-636b7061636b,rev?*%
%TF.SameCoordinates,Original*%
%TF.FileFunction,Copper,L2,Bot*%
%TF.FilePolarity,Positive*%
%FSLAX46Y46*%
G04 Gerber Fmt 4.6, Leading zero omitted, Abs format (unit mm)*
G04 Created by KiCad (PCBNEW 10.0.6) date 2026-10-07 06:58:14*
%MOMM*%
%LPD*%
G01*
G04 APERTURE LIST*
%TA.AperFunction,ComponentPad*%
%ADD10R,1.700000X1.700000*%
%TD*%
%TA.AperFunction,ComponentPad*%
%ADD11O,1.700000X1.700000*%
%TD*%
%TA.AperFunction,ComponentPad*%
%ADD12R,1.800000X1.800000*%
%TD*%
%TA.AperFunction,ComponentPad*%
%ADD13C,1.800000*%
%TD*%
%TA.AperFunction,ComponentPad*%
%ADD14R,1.500000X1.500000*%
%TD*%
%TA.AperFunction,ComponentPad*%
%ADD15C,1.500000*%
%TD*%
%TA.AperFunction,ComponentPad*%
%ADD16C,2.000000*%
%TD*%
%TA.AperFunction,ViaPad*%
%ADD17C,0.700000*%
%TD*%
%TA.AperFunction,Conductor*%
%ADD18C,1.000000*%
%TD*%
%TA.AperFunction,Conductor*%
%ADD19C,0.250000*%
%TD*%
G04 APERTURE END LIST*
D10*
%TO.P,JP1,1,Pin_1_1*%
%TO.N,/CAN_TERM*%
X118000000Y-77000000D03*
D11*
%TO.P,JP1,2,Pin_2_2*%
%TO.N,/CANL*%
X118000000Y-79540000D03*
%TD*%
D12*
%TO.P,J4,1,Pin_1_1*%
%TO.N,/5V_LED_B*%
X141100000Y-111000000D03*
D13*
%TO.P,J4,2,Pin_2_2*%
%TO.N,/GND*%
X141100000Y-114000000D03*
%TO.P,J4,3,Pin_3_3*%
%TO.N,/DATA_B_OUT*%
X141100000Y-117000000D03*
%TD*%
D14*
%TO.P,J2,1,Pin_1_1*%
%TO.N,/CANH*%
X121000000Y-65000000D03*
D15*
%TO.P,J2,2,Pin_2_2*%
%TO.N,/CANL*%
X119730000Y-67540000D03*
%TO.P,J2,3,Pin_3_3*%
%TO.N,/+5V_IN*%
X118460000Y-65000000D03*
%TO.P,J2,4,Pin_4_4*%
%TO.N,/GND*%
X117190000Y-67540000D03*
%TO.P,J2,5,Pin_5_5*%
%TO.N,/+5V_IN*%
X115920000Y-65000000D03*
%TO.P,J2,6,Pin_6_6*%
%TO.N,/GND*%
X114650000Y-67540000D03*
%TO.P,J2,7,Pin_7_7*%
%TO.N,/5V_CAN*%
X113380000Y-65000000D03*
%TO.P,J2,8,Pin_8_8*%
%TO.N,/GND_CAN*%
X112110000Y-67540000D03*
%TD*%
D16*
%TO.P,SW1,1,1_1*%
%TO.N,/NRST*%
X62000000Y-110000000D03*
X68500000Y-110000000D03*
%TO.P,SW1,2,2_2*%
%TO.N,/GND*%
X62000000Y-114500000D03*
X68500000Y-114500000D03*
%TD*%
D10*
%TO.P,J1,1,Pin_1_1*%
%TO.N,/+5V*%
X62000000Y-73000000D03*
D11*
%TO.P,J1,2,Pin_2_2*%
X64540000Y-73000000D03*
%TO.P,J1,3,Pin_3_3*%
%TO.N,/SWCLK*%
X62000000Y-75540000D03*
%TO.P,J1,4,Pin_4_4*%
%TO.N,/+3V3*%
X64540000Y-75540000D03*
%TO.P,J1,5,Pin_5_5*%
%TO.N,/SWO*%
X62000000Y-78080000D03*
%TO.P,J1,6,Pin_6_6*%
%TO.N,/+3V3*%
X64540000Y-78080000D03*
%TO.P,J1,7,Pin_7_7*%
%TO.N,/SWDIO*%
X62000000Y-80620000D03*
%TO.P,J1,8,Pin_8_8*%
%TO.N,unconnected-(J1-Pin_8-Pad8)*%
X64540000Y-80620000D03*
%TO.P,J1,9,Pin_9_9*%
%TO.N,/GND*%
X62000000Y-83160000D03*
%TO.P,J1,10,Pin_10_10*%
X64540000Y-83160000D03*
%TD*%
D12*
%TO.P,J3,1,Pin_1_1*%
%TO.N,/5V_LED_A*%
X141100000Y-89000000D03*
D13*
%TO.P,J3,2,Pin_2_2*%
%TO.N,/GND*%
X141100000Y-92000000D03*
%TO.P,J3,3,Pin_3_3*%
%TO.N,/DATA_A_OUT*%
X141100000Y-95000000D03*
%TD*%
D17*
%TO.N,/+5V*%
X114094400Y-96992600D03*
X128626700Y-96483300D03*
X111388100Y-95793300D03*
%TO.N,/GND*%
X93950000Y-113945200D03*
%TO.N,/CANL*%
X107563300Y-73567800D03*
%TO.N,/LED_A*%
X84116300Y-101535600D03*
X124186800Y-100460500D03*
%TO.N,/+3V3*%
X90631400Y-93184000D03*
X86937300Y-96657900D03*
X89364000Y-76322300D03*
%TO.N,/LED_B*%
X127056900Y-108176500D03*
X85275900Y-101552100D03*
%TO.N,/OSC_IN*%
X78820700Y-95427500D03*
X74542200Y-93940000D03*
%TO.N,/OSC_OUT*%
X75499800Y-96659300D03*
X82814500Y-97757200D03*
%TO.N,/NRST*%
X72602400Y-103496000D03*
%TO.N,/BOOT1*%
X96545200Y-99526200D03*
X85630300Y-98141100D03*
%TO.N,/SWDIO*%
X86405400Y-93899400D03*
%TO.N,/BOOT0*%
X79309800Y-98900100D03*
X83908100Y-90043200D03*
%TD*%
%TO.N,/+5V*%
D18*
X114094400Y-96992600D02*
X112587400Y-96992600D01*
X112587400Y-96992600D02*
X111388100Y-95793300D01*
X64540000Y-73000000D02*
X88594800Y-73000000D01*
X88594800Y-73000000D02*
X111388100Y-95793300D01*
X111388100Y-95793300D02*
X127936700Y-95793300D01*
X127936700Y-95793300D02*
X128626700Y-96483300D01*
X62000000Y-73000000D02*
X64540000Y-73000000D01*
%TO.N,/GND*%
D19*
X93688300Y-113945200D02*
X93950000Y-113945200D01*
X68500000Y-114500000D02*
X93133500Y-114500000D01*
X93133500Y-114500000D02*
X93688300Y-113945200D01*
X115285000Y-67540000D02*
X114650000Y-67540000D01*
X115920000Y-67540000D02*
X115285000Y-67540000D01*
X117190000Y-67540000D02*
X115920000Y-67540000D01*
X64540000Y-83160000D02*
X62000000Y-83160000D01*
X62000000Y-114500000D02*
X68500000Y-114500000D01*
%TO.N,/CANL*%
X118000000Y-79540000D02*
X113535500Y-79540000D01*
X113535500Y-79540000D02*
X107563300Y-73567800D01*
%TO.N,/LED_A*%
X84116300Y-101535600D02*
X85191400Y-100460500D01*
X85191400Y-100460500D02*
X124186800Y-100460500D01*
%TO.N,/+3V3*%
X86937300Y-96657900D02*
X90411200Y-93184000D01*
X90411200Y-93184000D02*
X90631400Y-93184000D01*
X64540000Y-75540000D02*
X65736700Y-75540000D01*
X65736700Y-75540000D02*
X66519000Y-76322300D01*
X66519000Y-76322300D02*
X89364000Y-76322300D01*
%TO.N,/LED_B*%
X85275900Y-101552100D02*
X120432500Y-101552100D01*
X120432500Y-101552100D02*
X127056900Y-108176500D01*
%TO.N,/+5V_IN*%
D18*
X118460000Y-65000000D02*
X115920000Y-65000000D01*
%TO.N,/OSC_IN*%
D19*
X74542200Y-93940000D02*
X77333200Y-93940000D01*
X77333200Y-93940000D02*
X78820700Y-95427500D01*
%TO.N,/OSC_OUT*%
X82426100Y-97757200D02*
X82814500Y-97757200D01*
X82814500Y-97757200D02*
X76597700Y-97757200D01*
X76597700Y-97757200D02*
X75499800Y-96659300D01*
%TO.N,/NRST*%
X68500000Y-110000000D02*
X68500000Y-107598400D01*
X68500000Y-107598400D02*
X72602400Y-103496000D01*
X66513500Y-110000000D02*
X66461800Y-110000000D01*
X68500000Y-110000000D02*
X66513500Y-110000000D01*
X66461800Y-110000000D02*
X62000000Y-110000000D01*
%TO.N,/BOOT1*%
X85630300Y-98141100D02*
X95160100Y-98141100D01*
X95160100Y-98141100D02*
X96545200Y-99526200D01*
%TO.N,/SWDIO*%
X62000000Y-80620000D02*
X63196700Y-80620000D01*
X63196700Y-80620000D02*
X63196700Y-80994100D01*
X63196700Y-80994100D02*
X64019300Y-81816700D01*
X64019300Y-81816700D02*
X74322700Y-81816700D01*
X74322700Y-81816700D02*
X86405400Y-93899400D01*
%TO.N,/BOOT0*%
X79309800Y-98900100D02*
X82656900Y-98900100D01*
X82656900Y-98900100D02*
X87104600Y-94452400D01*
X87104600Y-94452400D02*
X87104600Y-93239700D01*
X87104600Y-93239700D02*
X83908100Y-90043200D01*
%TD*%
%TA.AperFunction,Conductor*%
%TO.N,/GND*%
G36*
X97959191Y-50618907D02*
G01*
X97995155Y-50668407D01*
X98000000Y-50699000D01*
X98000000Y-80500000D01*
X117331811Y-80500000D01*
X117390001Y-80518907D01*
X117395680Y-80523032D01*
X117397006Y-80523996D01*
X117558361Y-80606211D01*
X117730591Y-80662171D01*
X117802136Y-80673502D01*
X117909451Y-80690500D01*
X117909454Y-80690500D01*
X118090549Y-80690500D01*
X118179977Y-80676335D01*
X118269409Y-80662171D01*
X118441639Y-80606211D01*
X118602994Y-80523996D01*
X118607691Y-80520583D01*
X118609999Y-80518907D01*
X118668189Y-80500000D01*
X149301000Y-80500000D01*
X149359191Y-80518907D01*
X149395155Y-80568407D01*
X149400000Y-80599000D01*
X149400000Y-123125343D01*
X149381093Y-123183534D01*
X149331593Y-123219498D01*
X149270407Y-123219498D01*
X149220907Y-123183534D01*
X149213690Y-123172011D01*
X148824767Y-122444388D01*
X148824762Y-122444381D01*
X148824760Y-122444377D01*
X148519498Y-122072414D01*
X148252695Y-121747313D01*
X148252686Y-121747304D01*
X147846309Y-121413800D01*
X147555623Y-121175240D01*
X147555620Y-121175238D01*
X147555611Y-121175232D01*
X146760349Y-120750156D01*
X146760344Y-120750154D01*
X145897415Y-120488387D01*
X145897410Y-120488386D01*
X145000003Y-120400000D01*
X144999997Y-120400000D01*
X144102589Y-120488386D01*
X144102584Y-120488387D01*
X143239655Y-120750154D01*
X143239650Y-120750156D01*
X142444388Y-121175232D01*
X142444378Y-121175239D01*
X141747313Y-121747304D01*
X141747304Y-121747313D01*
X141175239Y-122444378D01*
X141175232Y-122444388D01*
X140750156Y-123239650D01*
X140750154Y-123239655D01*
X140488387Y-124102584D01*
X140488386Y-124102589D01*
X140400000Y-124999996D01*
X140400000Y-125000003D01*
X140488386Y-125897410D01*
X140488387Y-125897415D01*
X140750154Y-126760344D01*
X140750156Y-126760349D01*
X141175232Y-127555611D01*
X141175238Y-127555620D01*
X141175240Y-127555623D01*
X141413800Y-127846309D01*
X141747304Y-128252686D01*
X141747313Y-128252695D01*
X142072414Y-128519498D01*
X142444377Y-128824760D01*
X142444381Y-128824762D01*
X142444388Y-128824767D01*
X143172012Y-129213690D01*
X143214419Y-129257795D01*
X143222802Y-129318404D01*
X143193960Y-129372365D01*
X143138908Y-129399066D01*
X143125344Y-129400000D01*
X56874656Y-129400000D01*
X56816465Y-129381093D01*
X56780501Y-129331593D01*
X56780501Y-129270407D01*
X56816465Y-129220907D01*
X56827988Y-129213690D01*
X57555611Y-128824767D01*
X57555614Y-128824764D01*
X57555623Y-128824760D01*
X58252691Y-128252691D01*
X58824760Y-127555623D01*
X58824764Y-127555614D01*
X58824767Y-127555611D01*
X59213689Y-126827988D01*
X59249846Y-126760344D01*
X59511612Y-125897415D01*
X59511613Y-125897410D01*
X59600000Y-125000003D01*
X59600000Y-124999996D01*
X59511613Y-124102589D01*
X59511612Y-124102584D01*
X59432206Y-123840818D01*
X59249846Y-123239656D01*
X59240837Y-123222801D01*
X58824767Y-122444388D01*
X58824762Y-122444381D01*
X58824760Y-122444377D01*
X58519498Y-122072414D01*
X58252695Y-121747313D01*
X58252686Y-121747304D01*
X57846309Y-121413800D01*
X57555623Y-121175240D01*
X57555620Y-121175238D01*
X57555611Y-121175232D01*
X56760349Y-120750156D01*
X56760344Y-120750154D01*
X55897415Y-120488387D01*
X55897410Y-120488386D01*
X55000003Y-120400000D01*
X54999997Y-120400000D01*
X54102589Y-120488386D01*
X54102584Y-120488387D01*
X53239655Y-120750154D01*
X53239650Y-120750156D01*
X52444388Y-121175232D01*
X52444378Y-121175239D01*
X51747313Y-121747304D01*
X51747304Y-121747313D01*
X51175239Y-122444378D01*
X51175232Y-122444388D01*
X50786310Y-123172011D01*
X50742204Y-123214418D01*
X50681596Y-123222801D01*
X50627635Y-123193959D01*
X50600934Y-123138907D01*
X50600000Y-123125343D01*
X50600000Y-116905515D01*
X139899500Y-116905515D01*
X139899500Y-117094484D01*
X139929058Y-117281113D01*
X139929060Y-117281118D01*
X139987453Y-117460832D01*
X140073240Y-117629199D01*
X140184310Y-117782073D01*
X140317927Y-117915690D01*
X140470801Y-118026760D01*
X140639168Y-118112547D01*
X140818882Y-118170940D01*
X140818883Y-118170940D01*
X140818886Y-118170941D01*
X141005516Y-118200500D01*
X141005519Y-118200500D01*
X141194484Y-118200500D01*
X141381113Y-118170941D01*
X141381114Y-118170940D01*
X141381118Y-118170940D01*
X141560832Y-118112547D01*
X141729199Y-118026760D01*
X141882073Y-117915690D01*
X142015690Y-117782073D01*
X142126760Y-117629199D01*
X142212547Y-117460832D01*
X142270940Y-117281118D01*
X142300500Y-117094481D01*
X142300500Y-116905519D01*
X142300500Y-116905515D01*
X142270941Y-116718886D01*
X142270940Y-116718882D01*
X142212547Y-116539168D01*
X142126760Y-116370801D01*
X142015690Y-116217927D01*
X141882073Y-116084310D01*
X141729199Y-115973240D01*
X141729198Y-115973239D01*
X141729196Y-115973238D01*
X141560832Y-115887453D01*
X141381113Y-115829058D01*
X141194484Y-115799500D01*
X141194481Y-115799500D01*
X141005519Y-115799500D01*
X141005516Y-115799500D01*
X140818886Y-115829058D01*
X140639167Y-115887453D01*
X140470803Y-115973238D01*
X140317928Y-116084309D01*
X140184309Y-116217928D01*
X140073238Y-116370803D01*
X139987453Y-116539167D01*
X139929058Y-116718886D01*
X139899500Y-116905515D01*
X50600000Y-116905515D01*
X50600000Y-114397684D01*
X60700000Y-114397684D01*
X60700000Y-114602315D01*
X60732008Y-114804412D01*
X60795243Y-114999027D01*
X60888139Y-115181348D01*
X60888141Y-115181352D01*
X60980034Y-115307831D01*
X61519725Y-114768139D01*
X61559890Y-114837708D01*
X61662292Y-114940110D01*
X61731857Y-114980273D01*
X61192167Y-115519963D01*
X61318653Y-115611861D01*
X61500972Y-115704756D01*
X61695587Y-115767991D01*
X61897685Y-115800000D01*
X62102315Y-115800000D01*
X62304412Y-115767991D01*
X62499027Y-115704756D01*
X62681348Y-115611860D01*
X62681354Y-115611856D01*
X62807831Y-115519964D01*
X62807831Y-115519963D01*
X62268141Y-114980273D01*
X62337708Y-114940110D01*
X62440110Y-114837708D01*
X62480273Y-114768141D01*
X63019963Y-115307831D01*
X63019964Y-115307831D01*
X63111856Y-115181354D01*
X63111860Y-115181348D01*
X63204756Y-114999027D01*
X63267991Y-114804412D01*
X63300000Y-114602315D01*
X63300000Y-114397684D01*
X67200000Y-114397684D01*
X67200000Y-114602315D01*
X67232008Y-114804412D01*
X67295243Y-114999027D01*
X67388139Y-115181348D01*
X67388141Y-115181352D01*
X67480034Y-115307831D01*
X68019725Y-114768139D01*
X68059890Y-114837708D01*
X68162292Y-114940110D01*
X68231857Y-114980273D01*
X67692167Y-115519963D01*
X67818653Y-115611861D01*
X68000972Y-115704756D01*
X68195587Y-115767991D01*
X68397685Y-115800000D01*
X68602315Y-115800000D01*
X68804412Y-115767991D01*
X68999027Y-115704756D01*
X69181348Y-115611860D01*
X69181354Y-115611856D01*
X69307831Y-115519964D01*
X69307831Y-115519963D01*
X68768141Y-114980273D01*
X68837708Y-114940110D01*
X68940110Y-114837708D01*
X68980273Y-114768141D01*
X69519963Y-115307831D01*
X69519964Y-115307831D01*
X69611856Y-115181354D01*
X69611860Y-115181348D01*
X69704758Y-114999023D01*
X69704760Y-114999020D01*
X69743416Y-114880051D01*
X69743416Y-114880049D01*
X69767990Y-114804414D01*
X69800000Y-114602315D01*
X69800000Y-114397684D01*
X69767991Y-114195587D01*
X69704756Y-114000972D01*
X69677059Y-113946613D01*
X69656139Y-113905554D01*
X139900000Y-113905554D01*
X139900000Y-114094445D01*
X139929546Y-114280996D01*
X139987914Y-114460635D01*
X140073667Y-114628935D01*
X140151626Y-114736239D01*
X140638026Y-114249838D01*
X140679896Y-114322357D01*
X140777643Y-114420104D01*
X140850159Y-114461971D01*
X140363759Y-114948372D01*
X140471059Y-115026330D01*
X140471063Y-115026332D01*
X140639364Y-115112085D01*
X140819003Y-115170453D01*
X141005555Y-115200000D01*
X141194445Y-115200000D01*
X141380996Y-115170453D01*
X141560635Y-115112085D01*
X141728934Y-115026333D01*
X141836238Y-114948371D01*
X141349839Y-114461972D01*
X141422357Y-114420104D01*
X141520104Y-114322357D01*
X141561972Y-114249839D01*
X142048371Y-114736238D01*
X142126333Y-114628934D01*
X142212085Y-114460635D01*
X142270453Y-114280996D01*
X142300000Y-114094445D01*
X142300000Y-113905556D01*
X142298726Y-113897513D01*
X142298726Y-113897512D01*
X142296786Y-113885265D01*
X143649500Y-113885265D01*
X143649500Y-114114734D01*
X143679452Y-114342238D01*
X143738841Y-114563885D01*
X143826653Y-114775883D01*
X143926238Y-114948371D01*
X143941389Y-114974612D01*
X144081081Y-115156661D01*
X144243339Y-115318919D01*
X144425388Y-115458611D01*
X144624112Y-115573344D01*
X144624113Y-115573344D01*
X144624116Y-115573346D01*
X144717100Y-115611861D01*
X144836113Y-115661158D01*
X145057762Y-115720548D01*
X145285266Y-115750500D01*
X145285267Y-115750500D01*
X145514733Y-115750500D01*
X145514734Y-115750500D01*
X145742238Y-115720548D01*
X145963887Y-115661158D01*
X146175888Y-115573344D01*
X146374612Y-115458611D01*
X146556661Y-115318919D01*
X146718919Y-115156661D01*
X146858611Y-114974612D01*
X146973344Y-114775888D01*
X147061158Y-114563887D01*
X147120548Y-114342238D01*
X147150500Y-114114734D01*
X147150500Y-113885266D01*
X147120548Y-113657762D01*
X147061158Y-113436113D01*
X146989767Y-113263760D01*
X146973346Y-113224116D01*
X146858611Y-113025388D01*
X146818924Y-112973667D01*
X146718919Y-112843339D01*
X146556661Y-112681081D01*
X146374612Y-112541389D01*
X146374613Y-112541389D01*
X146374611Y-112541388D01*
X146175883Y-112426653D01*
X145963885Y-112338841D01*
X145742238Y-112279452D01*
X145514734Y-112249500D01*
X145285266Y-112249500D01*
X145285265Y-112249500D01*
X145057761Y-112279452D01*
X144836114Y-112338841D01*
X144624116Y-112426653D01*
X144425388Y-112541388D01*
X144243342Y-112681078D01*
X144081078Y-112843342D01*
X143941388Y-113025388D01*
X143826653Y-113224116D01*
X143738841Y-113436114D01*
X143679452Y-113657761D01*
X143649500Y-113885265D01*
X142296786Y-113885265D01*
X142270453Y-113719003D01*
X142212085Y-113539364D01*
X142126332Y-113371063D01*
X142126330Y-113371059D01*
X142048372Y-113263759D01*
X141561971Y-113750159D01*
X141520104Y-113677643D01*
X141422357Y-113579896D01*
X141349838Y-113538026D01*
X141836239Y-113051626D01*
X141728935Y-112973667D01*
X141560635Y-112887914D01*
X141380996Y-112829546D01*
X141194445Y-112800000D01*
X141005555Y-112800000D01*
X140819003Y-112829546D01*
X140639364Y-112887914D01*
X140471069Y-112973664D01*
X140363760Y-113051627D01*
X140850160Y-113538027D01*
X140777643Y-113579896D01*
X140679896Y-113677643D01*
X140638027Y-113750160D01*
X140151627Y-113263760D01*
X140073664Y-113371069D01*
X139987914Y-113539364D01*
X139929546Y-113719003D01*
X139900000Y-113905554D01*
X69656139Y-113905554D01*
X69611860Y-113818652D01*
X69519963Y-113692167D01*
X68980273Y-114231857D01*
X68940110Y-114162292D01*
X68837708Y-114059890D01*
X68768139Y-114019725D01*
X69307831Y-113480034D01*
X69181352Y-113388141D01*
X69181348Y-113388139D01*
X68999027Y-113295243D01*
X68804412Y-113232008D01*
X68602315Y-113200000D01*
X68397685Y-113200000D01*
X68195587Y-113232008D01*
X68000972Y-113295243D01*
X67818651Y-113388139D01*
X67818647Y-113388141D01*
X67692167Y-113480034D01*
X68231859Y-114019726D01*
X68162292Y-114059890D01*
X68059890Y-114162292D01*
X68019726Y-114231859D01*
X67480034Y-113692167D01*
X67388141Y-113818647D01*
X67388139Y-113818651D01*
X67295243Y-114000972D01*
X67232008Y-114195587D01*
X67200000Y-114397684D01*
X63300000Y-114397684D01*
X63267991Y-114195587D01*
X63204756Y-114000972D01*
X63111861Y-113818653D01*
X63019963Y-113692167D01*
X62480273Y-114231857D01*
X62440110Y-114162292D01*
X62337708Y-114059890D01*
X62268139Y-114019725D01*
X62807831Y-113480034D01*
X62681352Y-113388141D01*
X62681348Y-113388139D01*
X62499027Y-113295243D01*
X62304412Y-113232008D01*
X62102315Y-113200000D01*
X61897685Y-113200000D01*
X61695587Y-113232008D01*
X61500972Y-113295243D01*
X61318651Y-113388139D01*
X61318647Y-113388141D01*
X61192167Y-113480034D01*
X61731859Y-114019726D01*
X61662292Y-114059890D01*
X61559890Y-114162292D01*
X61519726Y-114231859D01*
X60980034Y-113692167D01*
X60888141Y-113818647D01*
X60888139Y-113818651D01*
X60795243Y-114000972D01*
X60732008Y-114195587D01*
X60700000Y-114397684D01*
X50600000Y-114397684D01*
X50600000Y-109897644D01*
X60699500Y-109897644D01*
X60699500Y-110102355D01*
X60731521Y-110304529D01*
X60794780Y-110499219D01*
X60887712Y-110681609D01*
X60887714Y-110681613D01*
X61008029Y-110847213D01*
X61008031Y-110847215D01*
X61008034Y-110847219D01*
X61152781Y-110991966D01*
X61152784Y-110991968D01*
X61152786Y-110991970D01*
X61318386Y-111112285D01*
X61318390Y-111112287D01*
X61500781Y-111205220D01*
X61695466Y-111268477D01*
X61695467Y-111268477D01*
X61695470Y-111268478D01*
X61897645Y-111300500D01*
X61897648Y-111300500D01*
X62102355Y-111300500D01*
X62304529Y-111268478D01*
X62304530Y-111268477D01*
X62304534Y-111268477D01*
X62499219Y-111205220D01*
X62681610Y-111112287D01*
X62847219Y-110991966D01*
X62991966Y-110847219D01*
X63112287Y-110681610D01*
X63205220Y-110499219D01*
X63205223Y-110499210D01*
X63206947Y-110493906D01*
X63242911Y-110444406D01*
X63301101Y-110425500D01*
X66405782Y-110425500D01*
X66457482Y-110425500D01*
X67198899Y-110425500D01*
X67257090Y-110444407D01*
X67293053Y-110493906D01*
X67294776Y-110499210D01*
X67294778Y-110499215D01*
X67294780Y-110499219D01*
X67345357Y-110598482D01*
X67387712Y-110681609D01*
X67387714Y-110681613D01*
X67508029Y-110847213D01*
X67508031Y-110847215D01*
X67508034Y-110847219D01*
X67652781Y-110991966D01*
X67652784Y-110991968D01*
X67652786Y-110991970D01*
X67818386Y-111112285D01*
X67818390Y-111112287D01*
X68000781Y-111205220D01*
X68195466Y-111268477D01*
X68195467Y-111268477D01*
X68195470Y-111268478D01*
X68397645Y-111300500D01*
X68397648Y-111300500D01*
X68602355Y-111300500D01*
X68804529Y-111268478D01*
X68804530Y-111268477D01*
X68804534Y-111268477D01*
X68999219Y-111205220D01*
X69181610Y-111112287D01*
X69347219Y-110991966D01*
X69491966Y-110847219D01*
X69612287Y-110681610D01*
X69705220Y-110499219D01*
X69768477Y-110304534D01*
X69800500Y-110102352D01*
X69800500Y-110055130D01*
X139899500Y-110055130D01*
X139899500Y-111944860D01*
X139899501Y-111944863D01*
X139902414Y-111969990D01*
X139927756Y-112027385D01*
X139947794Y-112072765D01*
X140027235Y-112152206D01*
X140130009Y-112197585D01*
X140155135Y-112200500D01*
X142044864Y-112200499D01*
X142069991Y-112197585D01*
X142172765Y-112152206D01*
X142252206Y-112072765D01*
X142297585Y-111969991D01*
X142300500Y-111944865D01*
X142300499Y-110055136D01*
X142297585Y-110030009D01*
X142252206Y-109927235D01*
X142172765Y-109847794D01*
X142069991Y-109802415D01*
X142069990Y-109802414D01*
X142069988Y-109802414D01*
X142044868Y-109799500D01*
X140155139Y-109799500D01*
X140155136Y-109799501D01*
X140130009Y-109802414D01*
X140027235Y-109847794D01*
X139947794Y-109927235D01*
X139902414Y-110030011D01*
X139899500Y-110055130D01*
X69800500Y-110055130D01*
X69800500Y-109897648D01*
X69800500Y-109897644D01*
X69768478Y-109695470D01*
X69768477Y-109695466D01*
X69705220Y-109500781D01*
X69612287Y-109318390D01*
X69612285Y-109318386D01*
X69491970Y-109152786D01*
X69491968Y-109152784D01*
X69491966Y-109152781D01*
X69347219Y-109008034D01*
X69347215Y-109008031D01*
X69347213Y-109008029D01*
X69181613Y-108887714D01*
X69181609Y-108887712D01*
X69062452Y-108826999D01*
X68999219Y-108794780D01*
X68999215Y-108794778D01*
X68999210Y-108794776D01*
X68993906Y-108793053D01*
X68944406Y-108757089D01*
X68925500Y-108698899D01*
X68925500Y-107815656D01*
X68944407Y-107757465D01*
X68954496Y-107745652D01*
X72524652Y-104175496D01*
X72579169Y-104147719D01*
X72594656Y-104146500D01*
X72666468Y-104146500D01*
X72666469Y-104146500D01*
X72792144Y-104121501D01*
X72910527Y-104072465D01*
X73017069Y-104001276D01*
X73107676Y-103910669D01*
X73178865Y-103804127D01*
X73227901Y-103685744D01*
X73252900Y-103560069D01*
X73252900Y-103431931D01*
X73227901Y-103306256D01*
X73178865Y-103187873D01*
X73178863Y-103187870D01*
X73178861Y-103187866D01*
X73150117Y-103144848D01*
X73107676Y-103081331D01*
X73017069Y-102990724D01*
X72974626Y-102962365D01*
X72910533Y-102919538D01*
X72910525Y-102919534D01*
X72792147Y-102870500D01*
X72792145Y-102870499D01*
X72792144Y-102870499D01*
X72666469Y-102845500D01*
X72538331Y-102845500D01*
X72538330Y-102845500D01*
X72475493Y-102857999D01*
X72412656Y-102870499D01*
X72412655Y-102870499D01*
X72412652Y-102870500D01*
X72294274Y-102919534D01*
X72294266Y-102919538D01*
X72187731Y-102990724D01*
X72187727Y-102990727D01*
X72097127Y-103081327D01*
X72097124Y-103081331D01*
X72025938Y-103187866D01*
X72025934Y-103187874D01*
X71976900Y-103306252D01*
X71976899Y-103306257D01*
X71951900Y-103431930D01*
X71951900Y-103503744D01*
X71932993Y-103561935D01*
X71922904Y-103573748D01*
X68238737Y-107257915D01*
X68238736Y-107257914D01*
X68159514Y-107337137D01*
X68103498Y-107434158D01*
X68074500Y-107542383D01*
X68074500Y-108698899D01*
X68055593Y-108757090D01*
X68006094Y-108793053D01*
X68000789Y-108794776D01*
X67818390Y-108887712D01*
X67818386Y-108887714D01*
X67652786Y-109008029D01*
X67508029Y-109152786D01*
X67387714Y-109318386D01*
X67387712Y-109318390D01*
X67294776Y-109500789D01*
X67293053Y-109506094D01*
X67257089Y-109555594D01*
X67198899Y-109574500D01*
X63301101Y-109574500D01*
X63242910Y-109555593D01*
X63206947Y-109506094D01*
X63205223Y-109500789D01*
X63205221Y-109500786D01*
X63205220Y-109500781D01*
X63112287Y-109318390D01*
X63112285Y-109318386D01*
X62991970Y-109152786D01*
X62991968Y-109152784D01*
X62991966Y-109152781D01*
X62847219Y-109008034D01*
X62847215Y-109008031D01*
X62847213Y-109008029D01*
X62681613Y-108887714D01*
X62681609Y-108887712D01*
X62499219Y-108794780D01*
X62304529Y-108731521D01*
X62102355Y-108699500D01*
X62102352Y-108699500D01*
X61897648Y-108699500D01*
X61897645Y-108699500D01*
X61695470Y-108731521D01*
X61500780Y-108794780D01*
X61318390Y-108887712D01*
X61318386Y-108887714D01*
X61152786Y-109008029D01*
X61008029Y-109152786D01*
X60887714Y-109318386D01*
X60887712Y-109318390D01*
X60794780Y-109500780D01*
X60731521Y-109695470D01*
X60699500Y-109897644D01*
X50600000Y-109897644D01*
X50600000Y-101471530D01*
X83465800Y-101471530D01*
X83465800Y-101599669D01*
X83490799Y-101725342D01*
X83490800Y-101725347D01*
X83539834Y-101843725D01*
X83539838Y-101843733D01*
X83582665Y-101907826D01*
X83611024Y-101950269D01*
X83701631Y-102040876D01*
X83765148Y-102083317D01*
X83808166Y-102112061D01*
X83808170Y-102112063D01*
X83808173Y-102112065D01*
X83926556Y-102161101D01*
X84052231Y-102186100D01*
X84052232Y-102186100D01*
X84180368Y-102186100D01*
X84180369Y-102186100D01*
X84306044Y-102161101D01*
X84424427Y-102112065D01*
X84530969Y-102040876D01*
X84619017Y-101952827D01*
X84673531Y-101925051D01*
X84733963Y-101934622D01*
X84766698Y-101963714D01*
X84767547Y-101963018D01*
X84770621Y-101966765D01*
X84770624Y-101966769D01*
X84861231Y-102057376D01*
X84924748Y-102099817D01*
X84967766Y-102128561D01*
X84967770Y-102128563D01*
X84967773Y-102128565D01*
X85086156Y-102177601D01*
X85211831Y-102202600D01*
X85211832Y-102202600D01*
X85339968Y-102202600D01*
X85339969Y-102202600D01*
X85465644Y-102177601D01*
X85584027Y-102128565D01*
X85690569Y-102057376D01*
X85741349Y-102006596D01*
X85795866Y-101978819D01*
X85811353Y-101977600D01*
X120215244Y-101977600D01*
X120273435Y-101996507D01*
X120285248Y-102006596D01*
X126377404Y-108098751D01*
X126405181Y-108153268D01*
X126406400Y-108168755D01*
X126406400Y-108240569D01*
X126431399Y-108366242D01*
X126431400Y-108366247D01*
X126480434Y-108484625D01*
X126480438Y-108484633D01*
X126523265Y-108548726D01*
X126551624Y-108591169D01*
X126642231Y-108681776D01*
X126705748Y-108724217D01*
X126748766Y-108752961D01*
X126748770Y-108752963D01*
X126748773Y-108752965D01*
X126867156Y-108802001D01*
X126992831Y-108827000D01*
X126992832Y-108827000D01*
X127120968Y-108827000D01*
X127120969Y-108827000D01*
X127246644Y-108802001D01*
X127365027Y-108752965D01*
X127471569Y-108681776D01*
X127562176Y-108591169D01*
X127633365Y-108484627D01*
X127682401Y-108366244D01*
X127707400Y-108240569D01*
X127707400Y-108112431D01*
X127682401Y-107986756D01*
X127633365Y-107868373D01*
X127633363Y-107868370D01*
X127633361Y-107868366D01*
X127598141Y-107815656D01*
X127562176Y-107761831D01*
X127471569Y-107671224D01*
X127429126Y-107642865D01*
X127365033Y-107600038D01*
X127365025Y-107600034D01*
X127246647Y-107551000D01*
X127246645Y-107550999D01*
X127246644Y-107550999D01*
X127120969Y-107526000D01*
X127049155Y-107526000D01*
X126990964Y-107507093D01*
X126979151Y-107497004D01*
X126740061Y-107257914D01*
X120693763Y-101211615D01*
X120693760Y-101211613D01*
X120596740Y-101155598D01*
X120596742Y-101155598D01*
X120554751Y-101144347D01*
X120488518Y-101126600D01*
X120488516Y-101126600D01*
X85811353Y-101126600D01*
X85753162Y-101107693D01*
X85741349Y-101097604D01*
X85698749Y-101055004D01*
X85670972Y-101000487D01*
X85680543Y-100940055D01*
X85723808Y-100896790D01*
X85768753Y-100886000D01*
X123651347Y-100886000D01*
X123709538Y-100904907D01*
X123721351Y-100914996D01*
X123772131Y-100965776D01*
X123824080Y-101000487D01*
X123878666Y-101036961D01*
X123878670Y-101036963D01*
X123878673Y-101036965D01*
X123997056Y-101086001D01*
X124122731Y-101111000D01*
X124122732Y-101111000D01*
X124250868Y-101111000D01*
X124250869Y-101111000D01*
X124376544Y-101086001D01*
X124494927Y-101036965D01*
X124601469Y-100965776D01*
X124692076Y-100875169D01*
X124763265Y-100768627D01*
X124812301Y-100650244D01*
X124837300Y-100524569D01*
X124837300Y-100396431D01*
X124812301Y-100270756D01*
X124763265Y-100152373D01*
X124763263Y-100152370D01*
X124763261Y-100152366D01*
X124734517Y-100109348D01*
X124692076Y-100045831D01*
X124601469Y-99955224D01*
X124559026Y-99926865D01*
X124494933Y-99884038D01*
X124494925Y-99884034D01*
X124376547Y-99835000D01*
X124376545Y-99834999D01*
X124376544Y-99834999D01*
X124250869Y-99810000D01*
X124122731Y-99810000D01*
X124122730Y-99810000D01*
X124059893Y-99822499D01*
X123997056Y-99834999D01*
X123997055Y-99834999D01*
X123997052Y-99835000D01*
X123878674Y-99884034D01*
X123878666Y-99884038D01*
X123772131Y-99955224D01*
X123772127Y-99955227D01*
X123721351Y-100006004D01*
X123666834Y-100033781D01*
X123651347Y-100035000D01*
X97172796Y-100035000D01*
X97114605Y-100016093D01*
X97078641Y-99966593D01*
X97078641Y-99905407D01*
X97090481Y-99880998D01*
X97121661Y-99834334D01*
X97121662Y-99834330D01*
X97121665Y-99834327D01*
X97170701Y-99715944D01*
X97195700Y-99590269D01*
X97195700Y-99462131D01*
X97170701Y-99336456D01*
X97121665Y-99218073D01*
X97121663Y-99218070D01*
X97121661Y-99218066D01*
X97092917Y-99175048D01*
X97050476Y-99111531D01*
X96959869Y-99020924D01*
X96917426Y-98992565D01*
X96853333Y-98949738D01*
X96853325Y-98949734D01*
X96734947Y-98900700D01*
X96734945Y-98900699D01*
X96734944Y-98900699D01*
X96609269Y-98875700D01*
X96537455Y-98875700D01*
X96479264Y-98856793D01*
X96467451Y-98846704D01*
X95962082Y-98341335D01*
X95421363Y-97800615D01*
X95408347Y-97793100D01*
X95324341Y-97744598D01*
X95311555Y-97741172D01*
X95216118Y-97715600D01*
X95216116Y-97715600D01*
X86165753Y-97715600D01*
X86107562Y-97696693D01*
X86095749Y-97686604D01*
X86044972Y-97635827D01*
X86044969Y-97635824D01*
X86002526Y-97607465D01*
X85938433Y-97564638D01*
X85938425Y-97564634D01*
X85820047Y-97515600D01*
X85820045Y-97515599D01*
X85820044Y-97515599D01*
X85694369Y-97490600D01*
X85566231Y-97490600D01*
X85566230Y-97490600D01*
X85504467Y-97502886D01*
X85440556Y-97515599D01*
X85440555Y-97515599D01*
X85440552Y-97515600D01*
X85322174Y-97564634D01*
X85322166Y-97564638D01*
X85215631Y-97635824D01*
X85215627Y-97635827D01*
X85125027Y-97726427D01*
X85125024Y-97726431D01*
X85053838Y-97832966D01*
X85053834Y-97832974D01*
X85004800Y-97951352D01*
X85004799Y-97951355D01*
X85004799Y-97951356D01*
X84979800Y-98077031D01*
X84979800Y-98205169D01*
X85001839Y-98315965D01*
X85004799Y-98330842D01*
X85004800Y-98330847D01*
X85053834Y-98449225D01*
X85053838Y-98449233D01*
X85096665Y-98513326D01*
X85125024Y-98555769D01*
X85215631Y-98646376D01*
X85279148Y-98688817D01*
X85322166Y-98717561D01*
X85322170Y-98717563D01*
X85322173Y-98717565D01*
X85440556Y-98766601D01*
X85566231Y-98791600D01*
X85566232Y-98791600D01*
X85694368Y-98791600D01*
X85694369Y-98791600D01*
X85820044Y-98766601D01*
X85938427Y-98717565D01*
X86044969Y-98646376D01*
X86095749Y-98595596D01*
X86150266Y-98567819D01*
X86165753Y-98566600D01*
X94942844Y-98566600D01*
X95001035Y-98585507D01*
X95012848Y-98595596D01*
X95865704Y-99448451D01*
X95893481Y-99502968D01*
X95894700Y-99518455D01*
X95894700Y-99590269D01*
X95919699Y-99715942D01*
X95919700Y-99715947D01*
X95968734Y-99834325D01*
X95968738Y-99834334D01*
X95999919Y-99880998D01*
X96016528Y-99939886D01*
X95995351Y-99997290D01*
X95944477Y-100031283D01*
X95917604Y-100035000D01*
X85247418Y-100035000D01*
X85135382Y-100035000D01*
X85069148Y-100052747D01*
X85027158Y-100063998D01*
X84930139Y-100120013D01*
X84194048Y-100856104D01*
X84139531Y-100883881D01*
X84124044Y-100885100D01*
X84052230Y-100885100D01*
X83993463Y-100896790D01*
X83926556Y-100910099D01*
X83926555Y-100910099D01*
X83926552Y-100910100D01*
X83808174Y-100959134D01*
X83808166Y-100959138D01*
X83701631Y-101030324D01*
X83701627Y-101030327D01*
X83611027Y-101120927D01*
X83611024Y-101120931D01*
X83539838Y-101227466D01*
X83539834Y-101227474D01*
X83490800Y-101345852D01*
X83490799Y-101345857D01*
X83465800Y-101471530D01*
X50600000Y-101471530D01*
X50600000Y-93875931D01*
X73891700Y-93875931D01*
X73891700Y-94004069D01*
X73907661Y-94084310D01*
X73916699Y-94129742D01*
X73916700Y-94129747D01*
X73965734Y-94248125D01*
X73965738Y-94248133D01*
X74008565Y-94312226D01*
X74036924Y-94354669D01*
X74127531Y-94445276D01*
X74173305Y-94475861D01*
X74234066Y-94516461D01*
X74234070Y-94516463D01*
X74234073Y-94516465D01*
X74352456Y-94565501D01*
X74478131Y-94590500D01*
X74478132Y-94590500D01*
X74606268Y-94590500D01*
X74606269Y-94590500D01*
X74731944Y-94565501D01*
X74850327Y-94516465D01*
X74956869Y-94445276D01*
X75007649Y-94394496D01*
X75062166Y-94366719D01*
X75077653Y-94365500D01*
X77115944Y-94365500D01*
X77174135Y-94384407D01*
X77185948Y-94394496D01*
X78141204Y-95349752D01*
X78168981Y-95404269D01*
X78170200Y-95419756D01*
X78170200Y-95491569D01*
X78195199Y-95617242D01*
X78195200Y-95617247D01*
X78244234Y-95735625D01*
X78244238Y-95735633D01*
X78275268Y-95782071D01*
X78315424Y-95842169D01*
X78406031Y-95932776D01*
X78466246Y-95973010D01*
X78512566Y-96003961D01*
X78512570Y-96003963D01*
X78512573Y-96003965D01*
X78630956Y-96053001D01*
X78756631Y-96078000D01*
X78756632Y-96078000D01*
X78884768Y-96078000D01*
X78884769Y-96078000D01*
X79010444Y-96053001D01*
X79128827Y-96003965D01*
X79235369Y-95932776D01*
X79325976Y-95842169D01*
X79397165Y-95735627D01*
X79446201Y-95617244D01*
X79471200Y-95491569D01*
X79471200Y-95363431D01*
X79446201Y-95237756D01*
X79397165Y-95119373D01*
X79397163Y-95119370D01*
X79397161Y-95119366D01*
X79368417Y-95076348D01*
X79325976Y-95012831D01*
X79235369Y-94922224D01*
X79192926Y-94893865D01*
X79128833Y-94851038D01*
X79128825Y-94851034D01*
X79010447Y-94802000D01*
X79010445Y-94801999D01*
X79010444Y-94801999D01*
X78884769Y-94777000D01*
X78812956Y-94777000D01*
X78754765Y-94758093D01*
X78742952Y-94748004D01*
X78202473Y-94207525D01*
X77594463Y-93599515D01*
X77592996Y-93598668D01*
X77497440Y-93543498D01*
X77497442Y-93543498D01*
X77455451Y-93532247D01*
X77389218Y-93514500D01*
X77389216Y-93514500D01*
X75077653Y-93514500D01*
X75019462Y-93495593D01*
X75007649Y-93485504D01*
X74956872Y-93434727D01*
X74956869Y-93434724D01*
X74914426Y-93406365D01*
X74850333Y-93363538D01*
X74850325Y-93363534D01*
X74731947Y-93314500D01*
X74731945Y-93314499D01*
X74731944Y-93314499D01*
X74606269Y-93289500D01*
X74478131Y-93289500D01*
X74478130Y-93289500D01*
X74415293Y-93301999D01*
X74352456Y-93314499D01*
X74352455Y-93314499D01*
X74352452Y-93314500D01*
X74234074Y-93363534D01*
X74234066Y-93363538D01*
X74127531Y-93434724D01*
X74127527Y-93434727D01*
X74036927Y-93525327D01*
X74036924Y-93525331D01*
X73965738Y-93631866D01*
X73965734Y-93631874D01*
X73916700Y-93750252D01*
X73916699Y-93750255D01*
X73916699Y-93750256D01*
X73904915Y-93809499D01*
X73899942Y-93834499D01*
X73891700Y-93875931D01*
X50600000Y-93875931D01*
X50600000Y-83010000D01*
X60859423Y-83010000D01*
X61522555Y-83010000D01*
X61500000Y-83094174D01*
X61500000Y-83225826D01*
X61522555Y-83310000D01*
X60859423Y-83310000D01*
X60878316Y-83429289D01*
X60934250Y-83601440D01*
X61016431Y-83762730D01*
X61016433Y-83762734D01*
X61122824Y-83909169D01*
X61250830Y-84037175D01*
X61397265Y-84143566D01*
X61397269Y-84143568D01*
X61558559Y-84225749D01*
X61730710Y-84281683D01*
X61850000Y-84300577D01*
X61850000Y-83637445D01*
X61934174Y-83660000D01*
X62065826Y-83660000D01*
X62150000Y-83637445D01*
X62150000Y-84300576D01*
X62269289Y-84281683D01*
X62441440Y-84225749D01*
X62602730Y-84143568D01*
X62602734Y-84143566D01*
X62749169Y-84037175D01*
X62877175Y-83909169D01*
X62983566Y-83762734D01*
X62983568Y-83762730D01*
X63065749Y-83601440D01*
X63121683Y-83429289D01*
X63140577Y-83310000D01*
X62477445Y-83310000D01*
X62500000Y-83225826D01*
X62500000Y-83094174D01*
X62477445Y-83010000D01*
X63140577Y-83010000D01*
X63121683Y-82890710D01*
X63065749Y-82718559D01*
X62983568Y-82557269D01*
X62983566Y-82557265D01*
X62877175Y-82410830D01*
X62749169Y-82282824D01*
X62602734Y-82176433D01*
X62602730Y-82176431D01*
X62441440Y-82094250D01*
X62269290Y-82038316D01*
X62150000Y-82019422D01*
X62150000Y-82682554D01*
X62065826Y-82660000D01*
X61934174Y-82660000D01*
X61850000Y-82682554D01*
X61850000Y-82019422D01*
X61849999Y-82019422D01*
X61730709Y-82038316D01*
X61558559Y-82094250D01*
X61397269Y-82176431D01*
X61397265Y-82176433D01*
X61250830Y-82282824D01*
X61122824Y-82410830D01*
X61016433Y-82557265D01*
X61016431Y-82557269D01*
X60934250Y-82718559D01*
X60878316Y-82890710D01*
X60859423Y-83010000D01*
X50600000Y-83010000D01*
X50600000Y-80529450D01*
X60849500Y-80529450D01*
X60849500Y-80710549D01*
X60877828Y-80889406D01*
X60877829Y-80889409D01*
X60933789Y-81061639D01*
X61016004Y-81222994D01*
X61122447Y-81369501D01*
X61250499Y-81497553D01*
X61397006Y-81603996D01*
X61558361Y-81686211D01*
X61730591Y-81742171D01*
X61802136Y-81753502D01*
X61909451Y-81770500D01*
X61909454Y-81770500D01*
X62090549Y-81770500D01*
X62179977Y-81756335D01*
X62269409Y-81742171D01*
X62441639Y-81686211D01*
X62602994Y-81603996D01*
X62749501Y-81497553D01*
X62853950Y-81393103D01*
X62908465Y-81365327D01*
X62968897Y-81374898D01*
X62993956Y-81393104D01*
X63678815Y-82077963D01*
X63678814Y-82077963D01*
X63758038Y-82157186D01*
X63758125Y-82157253D01*
X63758169Y-82157317D01*
X63762625Y-82161773D01*
X63761798Y-82162599D01*
X63792778Y-82207678D01*
X63791174Y-82268843D01*
X63767858Y-82305795D01*
X63662830Y-82410823D01*
X63662825Y-82410829D01*
X63556433Y-82557265D01*
X63556431Y-82557269D01*
X63474250Y-82718559D01*
X63418316Y-82890710D01*
X63399423Y-83010000D01*
X64062555Y-83010000D01*
X64040000Y-83094174D01*
X64040000Y-83225826D01*
X64062555Y-83310000D01*
X63399423Y-83310000D01*
X63418316Y-83429289D01*
X63474250Y-83601440D01*
X63556431Y-83762730D01*
X63556433Y-83762734D01*
X63662824Y-83909169D01*
X63790830Y-84037175D01*
X63937265Y-84143566D01*
X63937269Y-84143568D01*
X64098559Y-84225749D01*
X64270710Y-84281683D01*
X64390000Y-84300577D01*
X64390000Y-83637445D01*
X64474174Y-83660000D01*
X64605826Y-83660000D01*
X64690000Y-83637445D01*
X64690000Y-84300576D01*
X64809289Y-84281683D01*
X64981440Y-84225749D01*
X65142730Y-84143568D01*
X65142734Y-84143566D01*
X65289169Y-84037175D01*
X65417175Y-83909169D01*
X65523566Y-83762734D01*
X65523568Y-83762730D01*
X65605749Y-83601440D01*
X65661683Y-83429289D01*
X65680577Y-83310000D01*
X65017445Y-83310000D01*
X65040000Y-83225826D01*
X65040000Y-83094174D01*
X65017445Y-83010000D01*
X65680577Y-83010000D01*
X65661683Y-82890710D01*
X65605749Y-82718559D01*
X65523568Y-82557269D01*
X65523566Y-82557265D01*
X65417174Y-82410829D01*
X65414646Y-82407869D01*
X65415484Y-82407152D01*
X65389772Y-82356687D01*
X65399343Y-82296255D01*
X65442608Y-82252990D01*
X65487553Y-82242200D01*
X74105444Y-82242200D01*
X74163635Y-82261107D01*
X74175448Y-82271196D01*
X85725904Y-93821651D01*
X85753681Y-93876168D01*
X85754900Y-93891655D01*
X85754900Y-93963469D01*
X85778937Y-94084310D01*
X85779899Y-94089142D01*
X85779900Y-94089147D01*
X85828934Y-94207525D01*
X85828938Y-94207533D01*
X85856063Y-94248127D01*
X85900124Y-94314069D01*
X85990731Y-94404676D01*
X86051487Y-94445272D01*
X86097266Y-94475861D01*
X86097270Y-94475863D01*
X86097273Y-94475865D01*
X86215656Y-94524901D01*
X86215663Y-94524902D01*
X86220312Y-94526313D01*
X86219760Y-94528130D01*
X86266461Y-94554289D01*
X86292073Y-94609856D01*
X86280131Y-94669865D01*
X86263762Y-94691489D01*
X83522412Y-97432838D01*
X83467895Y-97460615D01*
X83407463Y-97451044D01*
X83370093Y-97417836D01*
X83319776Y-97342531D01*
X83229169Y-97251924D01*
X83186726Y-97223565D01*
X83122633Y-97180738D01*
X83122625Y-97180734D01*
X83004247Y-97131700D01*
X83004245Y-97131699D01*
X83004244Y-97131699D01*
X82878569Y-97106700D01*
X82750431Y-97106700D01*
X82750430Y-97106700D01*
X82687593Y-97119199D01*
X82624756Y-97131699D01*
X82624755Y-97131699D01*
X82624752Y-97131700D01*
X82506374Y-97180734D01*
X82506366Y-97180738D01*
X82399831Y-97251924D01*
X82399827Y-97251927D01*
X82349051Y-97302704D01*
X82294534Y-97330481D01*
X82279047Y-97331700D01*
X76814956Y-97331700D01*
X76756765Y-97312793D01*
X76744952Y-97302704D01*
X76179296Y-96737048D01*
X76151519Y-96682531D01*
X76150300Y-96667044D01*
X76150300Y-96595232D01*
X76150300Y-96595231D01*
X76125301Y-96469556D01*
X76076265Y-96351173D01*
X76076263Y-96351170D01*
X76076261Y-96351166D01*
X76008532Y-96249804D01*
X76005076Y-96244631D01*
X75914469Y-96154024D01*
X75872026Y-96125665D01*
X75807933Y-96082838D01*
X75807925Y-96082834D01*
X75689547Y-96033800D01*
X75689545Y-96033799D01*
X75689544Y-96033799D01*
X75563869Y-96008800D01*
X75435731Y-96008800D01*
X75435730Y-96008800D01*
X75372893Y-96021299D01*
X75310056Y-96033799D01*
X75310055Y-96033799D01*
X75310052Y-96033800D01*
X75191674Y-96082834D01*
X75191666Y-96082838D01*
X75085131Y-96154024D01*
X75085127Y-96154027D01*
X74994527Y-96244627D01*
X74994524Y-96244631D01*
X74923338Y-96351166D01*
X74923334Y-96351174D01*
X74874300Y-96469552D01*
X74874299Y-96469557D01*
X74849579Y-96593830D01*
X74849300Y-96595231D01*
X74849300Y-96723369D01*
X74874021Y-96847647D01*
X74874299Y-96849042D01*
X74874300Y-96849047D01*
X74923334Y-96967425D01*
X74923338Y-96967433D01*
X74966165Y-97031526D01*
X74994524Y-97073969D01*
X75085131Y-97164576D01*
X75148648Y-97207017D01*
X75191666Y-97235761D01*
X75191670Y-97235763D01*
X75191673Y-97235765D01*
X75310056Y-97284801D01*
X75435731Y-97309800D01*
X75507544Y-97309800D01*
X75565735Y-97328707D01*
X75577548Y-97338796D01*
X76336437Y-98097685D01*
X76336439Y-98097686D01*
X76433459Y-98153701D01*
X76433457Y-98153701D01*
X76433461Y-98153702D01*
X76433463Y-98153703D01*
X76541682Y-98182700D01*
X76653718Y-98182700D01*
X78886238Y-98182700D01*
X78944429Y-98201607D01*
X78980393Y-98251107D01*
X78980393Y-98312293D01*
X78944429Y-98361793D01*
X78941240Y-98364015D01*
X78895131Y-98394824D01*
X78895127Y-98394827D01*
X78804527Y-98485427D01*
X78804524Y-98485431D01*
X78733338Y-98591966D01*
X78733334Y-98591974D01*
X78684300Y-98710352D01*
X78684299Y-98710357D01*
X78659300Y-98836030D01*
X78659300Y-98964169D01*
X78684299Y-99089842D01*
X78684300Y-99089847D01*
X78733334Y-99208225D01*
X78733338Y-99208233D01*
X78776165Y-99272326D01*
X78804524Y-99314769D01*
X78895131Y-99405376D01*
X78958648Y-99447817D01*
X79001666Y-99476561D01*
X79001670Y-99476563D01*
X79001673Y-99476565D01*
X79120056Y-99525601D01*
X79245731Y-99550600D01*
X79245732Y-99550600D01*
X79373868Y-99550600D01*
X79373869Y-99550600D01*
X79499544Y-99525601D01*
X79617927Y-99476565D01*
X79724469Y-99405376D01*
X79775249Y-99354596D01*
X79829766Y-99326819D01*
X79845253Y-99325600D01*
X82712916Y-99325600D01*
X82712918Y-99325600D01*
X82821137Y-99296603D01*
X82821139Y-99296601D01*
X82821141Y-99296601D01*
X82849964Y-99279959D01*
X82918163Y-99240585D01*
X85564917Y-96593831D01*
X86286800Y-96593831D01*
X86286800Y-96721969D01*
X86289799Y-96737048D01*
X86311799Y-96847642D01*
X86311800Y-96847647D01*
X86360834Y-96966025D01*
X86360838Y-96966033D01*
X86379251Y-96993589D01*
X86432024Y-97072569D01*
X86522631Y-97163176D01*
X86586148Y-97205617D01*
X86629166Y-97234361D01*
X86629170Y-97234363D01*
X86629173Y-97234365D01*
X86747556Y-97283401D01*
X86873231Y-97308400D01*
X86873232Y-97308400D01*
X87001368Y-97308400D01*
X87001369Y-97308400D01*
X87127044Y-97283401D01*
X87245427Y-97234365D01*
X87351969Y-97163176D01*
X87442576Y-97072569D01*
X87513765Y-96966027D01*
X87562801Y-96847644D01*
X87587800Y-96721969D01*
X87587800Y-96650155D01*
X87606707Y-96591964D01*
X87616790Y-96580157D01*
X90359024Y-93837922D01*
X90413539Y-93810147D01*
X90448336Y-93810829D01*
X90567331Y-93834500D01*
X90567332Y-93834500D01*
X90695468Y-93834500D01*
X90695469Y-93834500D01*
X90821144Y-93809501D01*
X90939527Y-93760465D01*
X91046069Y-93689276D01*
X91136676Y-93598669D01*
X91207865Y-93492127D01*
X91256901Y-93373744D01*
X91281900Y-93248069D01*
X91281900Y-93119931D01*
X91256901Y-92994256D01*
X91207865Y-92875873D01*
X91207863Y-92875870D01*
X91207861Y-92875866D01*
X91179117Y-92832848D01*
X91136676Y-92769331D01*
X91046069Y-92678724D01*
X91003626Y-92650365D01*
X90939533Y-92607538D01*
X90939525Y-92607534D01*
X90821147Y-92558500D01*
X90821145Y-92558499D01*
X90821144Y-92558499D01*
X90695469Y-92533500D01*
X90567331Y-92533500D01*
X90567330Y-92533500D01*
X90504493Y-92545999D01*
X90441656Y-92558499D01*
X90441655Y-92558499D01*
X90441652Y-92558500D01*
X90323274Y-92607534D01*
X90323266Y-92607538D01*
X90216731Y-92678724D01*
X90216727Y-92678727D01*
X90126127Y-92769327D01*
X90126124Y-92769331D01*
X90054934Y-92875873D01*
X90018174Y-92964619D01*
X89996714Y-92996736D01*
X87015048Y-95978404D01*
X86960531Y-96006181D01*
X86945044Y-96007400D01*
X86873230Y-96007400D01*
X86810393Y-96019899D01*
X86747556Y-96032399D01*
X86747555Y-96032399D01*
X86747552Y-96032400D01*
X86629174Y-96081434D01*
X86629166Y-96081438D01*
X86522631Y-96152624D01*
X86522627Y-96152627D01*
X86432027Y-96243227D01*
X86432024Y-96243231D01*
X86360838Y-96349766D01*
X86360834Y-96349774D01*
X86311800Y-96468152D01*
X86311799Y-96468155D01*
X86311799Y-96468156D01*
X86301693Y-96518963D01*
X86293104Y-96562142D01*
X86286800Y-96593831D01*
X85564917Y-96593831D01*
X87445085Y-94713663D01*
X87501103Y-94616637D01*
X87530100Y-94508418D01*
X87530100Y-94396381D01*
X87530100Y-93183682D01*
X87501103Y-93075463D01*
X87501101Y-93075460D01*
X87501101Y-93075458D01*
X87445085Y-92978437D01*
X87365863Y-92899214D01*
X87365863Y-92899215D01*
X84587596Y-90120948D01*
X84559819Y-90066431D01*
X84558600Y-90050944D01*
X84558600Y-89979132D01*
X84558600Y-89979131D01*
X84533601Y-89853456D01*
X84484565Y-89735073D01*
X84484563Y-89735070D01*
X84484561Y-89735066D01*
X84455817Y-89692048D01*
X84413376Y-89628531D01*
X84322769Y-89537924D01*
X84280326Y-89509565D01*
X84216233Y-89466738D01*
X84216225Y-89466734D01*
X84097847Y-89417700D01*
X84097845Y-89417699D01*
X84097844Y-89417699D01*
X83972169Y-89392700D01*
X83844031Y-89392700D01*
X83844030Y-89392700D01*
X83781193Y-89405199D01*
X83718356Y-89417699D01*
X83718355Y-89417699D01*
X83718352Y-89417700D01*
X83599974Y-89466734D01*
X83599966Y-89466738D01*
X83493431Y-89537924D01*
X83493427Y-89537927D01*
X83402827Y-89628527D01*
X83402824Y-89628531D01*
X83331638Y-89735066D01*
X83331634Y-89735074D01*
X83282600Y-89853452D01*
X83282596Y-89853465D01*
X83265408Y-89939871D01*
X83235511Y-89993254D01*
X83179946Y-90018869D01*
X83119936Y-90006931D01*
X83098307Y-89990559D01*
X80907248Y-87799500D01*
X74583963Y-81476215D01*
X74583960Y-81476213D01*
X74486940Y-81420198D01*
X74486942Y-81420198D01*
X74444951Y-81408947D01*
X74378718Y-81391200D01*
X74378716Y-81391200D01*
X65596086Y-81391200D01*
X65537895Y-81372293D01*
X65501931Y-81322793D01*
X65501931Y-81261607D01*
X65515993Y-81234010D01*
X65519203Y-81229590D01*
X65523996Y-81222994D01*
X65606211Y-81061639D01*
X65662171Y-80889409D01*
X65690500Y-80710546D01*
X65690500Y-80529454D01*
X65690500Y-80529450D01*
X65662171Y-80350593D01*
X65662171Y-80350591D01*
X65606211Y-80178361D01*
X65523996Y-80017006D01*
X65417553Y-79870499D01*
X65289501Y-79742447D01*
X65142994Y-79636004D01*
X65142993Y-79636003D01*
X65142991Y-79636002D01*
X64981637Y-79553788D01*
X64809406Y-79497828D01*
X64630549Y-79469500D01*
X64630546Y-79469500D01*
X64449454Y-79469500D01*
X64449451Y-79469500D01*
X64270593Y-79497828D01*
X64098362Y-79553788D01*
X63937008Y-79636002D01*
X63863752Y-79689225D01*
X63790499Y-79742447D01*
X63662447Y-79870499D01*
X63655192Y-79880485D01*
X63556001Y-80017009D01*
X63555997Y-80017016D01*
X63476392Y-80173250D01*
X63433128Y-80216515D01*
X63372696Y-80226086D01*
X63362560Y-80223932D01*
X63360937Y-80223497D01*
X63252718Y-80194500D01*
X63252716Y-80194500D01*
X63135101Y-80194500D01*
X63076910Y-80175593D01*
X63046892Y-80140447D01*
X62983996Y-80017006D01*
X62877553Y-79870499D01*
X62749501Y-79742447D01*
X62602994Y-79636004D01*
X62602993Y-79636003D01*
X62602991Y-79636002D01*
X62441637Y-79553788D01*
X62269406Y-79497828D01*
X62090549Y-79469500D01*
X62090546Y-79469500D01*
X61909454Y-79469500D01*
X61909451Y-79469500D01*
X61730593Y-79497828D01*
X61558362Y-79553788D01*
X61397008Y-79636002D01*
X61323752Y-79689225D01*
X61250499Y-79742447D01*
X61122447Y-79870499D01*
X61115192Y-79880485D01*
X61016002Y-80017008D01*
X60933788Y-80178362D01*
X60877828Y-80350593D01*
X60849500Y-80529450D01*
X50600000Y-80529450D01*
X50600000Y-77989450D01*
X60849500Y-77989450D01*
X60849500Y-78170549D01*
X60877828Y-78349406D01*
X60933788Y-78521637D01*
X61005534Y-78662447D01*
X61016004Y-78682994D01*
X61122447Y-78829501D01*
X61250499Y-78957553D01*
X61397006Y-79063996D01*
X61558361Y-79146211D01*
X61730591Y-79202171D01*
X61802136Y-79213502D01*
X61909451Y-79230500D01*
X61909454Y-79230500D01*
X62090549Y-79230500D01*
X62179977Y-79216335D01*
X62269409Y-79202171D01*
X62441639Y-79146211D01*
X62602994Y-79063996D01*
X62749501Y-78957553D01*
X62877553Y-78829501D01*
X62983996Y-78682994D01*
X63066211Y-78521639D01*
X63122171Y-78349409D01*
X63150500Y-78170546D01*
X63150500Y-77989454D01*
X63150500Y-77989450D01*
X63389500Y-77989450D01*
X63389500Y-78170549D01*
X63417828Y-78349406D01*
X63473788Y-78521637D01*
X63545534Y-78662447D01*
X63556004Y-78682994D01*
X63662447Y-78829501D01*
X63790499Y-78957553D01*
X63937006Y-79063996D01*
X64098361Y-79146211D01*
X64270591Y-79202171D01*
X64342136Y-79213502D01*
X64449451Y-79230500D01*
X64449454Y-79230500D01*
X64630549Y-79230500D01*
X64719977Y-79216335D01*
X64809409Y-79202171D01*
X64981639Y-79146211D01*
X65142994Y-79063996D01*
X65289501Y-78957553D01*
X65417553Y-78829501D01*
X65523996Y-78682994D01*
X65606211Y-78521639D01*
X65662171Y-78349409D01*
X65690500Y-78170546D01*
X65690500Y-77989454D01*
X65690500Y-77989450D01*
X65662171Y-77810593D01*
X65662171Y-77810591D01*
X65606211Y-77638361D01*
X65523996Y-77477006D01*
X65417553Y-77330499D01*
X65289501Y-77202447D01*
X65142994Y-77096004D01*
X65142993Y-77096003D01*
X65142991Y-77096002D01*
X64981637Y-77013788D01*
X64809406Y-76957828D01*
X64630549Y-76929500D01*
X64630546Y-76929500D01*
X64449454Y-76929500D01*
X64449451Y-76929500D01*
X64270593Y-76957828D01*
X64098362Y-77013788D01*
X63937008Y-77096002D01*
X63863752Y-77149225D01*
X63790499Y-77202447D01*
X63662447Y-77330499D01*
X63609225Y-77403752D01*
X63556002Y-77477008D01*
X63473788Y-77638362D01*
X63417828Y-77810593D01*
X63389500Y-77989450D01*
X63150500Y-77989450D01*
X63122171Y-77810593D01*
X63122171Y-77810591D01*
X63066211Y-77638361D01*
X62983996Y-77477006D01*
X62877553Y-77330499D01*
X62749501Y-77202447D01*
X62602994Y-77096004D01*
X62602993Y-77096003D01*
X62602991Y-77096002D01*
X62441637Y-77013788D01*
X62269406Y-76957828D01*
X62090549Y-76929500D01*
X62090546Y-76929500D01*
X61909454Y-76929500D01*
X61909451Y-76929500D01*
X61730593Y-76957828D01*
X61558362Y-77013788D01*
X61397008Y-77096002D01*
X61323752Y-77149225D01*
X61250499Y-77202447D01*
X61122447Y-77330499D01*
X61069225Y-77403752D01*
X61016002Y-77477008D01*
X60933788Y-77638362D01*
X60877828Y-77810593D01*
X60849500Y-77989450D01*
X50600000Y-77989450D01*
X50600000Y-75449450D01*
X60849500Y-75449450D01*
X60849500Y-75630549D01*
X60877828Y-75809406D01*
X60933788Y-75981637D01*
X61010685Y-76132556D01*
X61016004Y-76142994D01*
X61122447Y-76289501D01*
X61250499Y-76417553D01*
X61397006Y-76523996D01*
X61558361Y-76606211D01*
X61730591Y-76662171D01*
X61802136Y-76673502D01*
X61909451Y-76690500D01*
X61909454Y-76690500D01*
X62090549Y-76690500D01*
X62179977Y-76676335D01*
X62269409Y-76662171D01*
X62441639Y-76606211D01*
X62602994Y-76523996D01*
X62749501Y-76417553D01*
X62877553Y-76289501D01*
X62983996Y-76142994D01*
X63066211Y-75981639D01*
X63122171Y-75809409D01*
X63136335Y-75719977D01*
X63150500Y-75630549D01*
X63150500Y-75449450D01*
X63389500Y-75449450D01*
X63389500Y-75630549D01*
X63417828Y-75809406D01*
X63473788Y-75981637D01*
X63550685Y-76132556D01*
X63556004Y-76142994D01*
X63662447Y-76289501D01*
X63790499Y-76417553D01*
X63937006Y-76523996D01*
X64098361Y-76606211D01*
X64270591Y-76662171D01*
X64342136Y-76673502D01*
X64449451Y-76690500D01*
X64449454Y-76690500D01*
X64630549Y-76690500D01*
X64719977Y-76676335D01*
X64809409Y-76662171D01*
X64981639Y-76606211D01*
X65142994Y-76523996D01*
X65289501Y-76417553D01*
X65417553Y-76289501D01*
X65523996Y-76142994D01*
X65534351Y-76122670D01*
X65577616Y-76079407D01*
X65638048Y-76069835D01*
X65692564Y-76097612D01*
X65692565Y-76097612D01*
X66178513Y-76583560D01*
X66178515Y-76583563D01*
X66257737Y-76662785D01*
X66257739Y-76662786D01*
X66354759Y-76718801D01*
X66354757Y-76718801D01*
X66354761Y-76718802D01*
X66354763Y-76718803D01*
X66462981Y-76747800D01*
X66462982Y-76747800D01*
X88828547Y-76747800D01*
X88886738Y-76766707D01*
X88898551Y-76776796D01*
X88949331Y-76827576D01*
X89012848Y-76870017D01*
X89055866Y-76898761D01*
X89055870Y-76898763D01*
X89055873Y-76898765D01*
X89174256Y-76947801D01*
X89299931Y-76972800D01*
X89299932Y-76972800D01*
X89428068Y-76972800D01*
X89428069Y-76972800D01*
X89553744Y-76947801D01*
X89672127Y-76898765D01*
X89778669Y-76827576D01*
X89869276Y-76736969D01*
X89940465Y-76630427D01*
X89989501Y-76512044D01*
X90014500Y-76386369D01*
X90014500Y-76258231D01*
X89989501Y-76132556D01*
X89940465Y-76014173D01*
X89940463Y-76014170D01*
X89940461Y-76014166D01*
X89911717Y-75971148D01*
X89869276Y-75907631D01*
X89778669Y-75817024D01*
X89736226Y-75788665D01*
X89672133Y-75745838D01*
X89672125Y-75745834D01*
X89553747Y-75696800D01*
X89553745Y-75696799D01*
X89553744Y-75696799D01*
X89428069Y-75671800D01*
X89299931Y-75671800D01*
X89299930Y-75671800D01*
X89237093Y-75684299D01*
X89174256Y-75696799D01*
X89174255Y-75696799D01*
X89174252Y-75696800D01*
X89055874Y-75745834D01*
X89055866Y-75745838D01*
X88949331Y-75817024D01*
X88949327Y-75817027D01*
X88898551Y-75867804D01*
X88844034Y-75895581D01*
X88828547Y-75896800D01*
X66736255Y-75896800D01*
X66678064Y-75877893D01*
X66666251Y-75867804D01*
X66428993Y-75630546D01*
X65997963Y-75199515D01*
X65997960Y-75199513D01*
X65900940Y-75143498D01*
X65900942Y-75143498D01*
X65858951Y-75132247D01*
X65792718Y-75114500D01*
X65792716Y-75114500D01*
X65675101Y-75114500D01*
X65616910Y-75095593D01*
X65586892Y-75060447D01*
X65523996Y-74937006D01*
X65417553Y-74790499D01*
X65289501Y-74662447D01*
X65142994Y-74556004D01*
X65142993Y-74556003D01*
X65142991Y-74556002D01*
X64981637Y-74473788D01*
X64809406Y-74417828D01*
X64630549Y-74389500D01*
X64630546Y-74389500D01*
X64449454Y-74389500D01*
X64449451Y-74389500D01*
X64270593Y-74417828D01*
X64098362Y-74473788D01*
X63937008Y-74556002D01*
X63863752Y-74609225D01*
X63790499Y-74662447D01*
X63662447Y-74790499D01*
X63609225Y-74863752D01*
X63556002Y-74937008D01*
X63473788Y-75098362D01*
X63417828Y-75270593D01*
X63389500Y-75449450D01*
X63150500Y-75449450D01*
X63122171Y-75270593D01*
X63122171Y-75270591D01*
X63066211Y-75098361D01*
X62983996Y-74937006D01*
X62877553Y-74790499D01*
X62749501Y-74662447D01*
X62602994Y-74556004D01*
X62602993Y-74556003D01*
X62602991Y-74556002D01*
X62441637Y-74473788D01*
X62269406Y-74417828D01*
X62090549Y-74389500D01*
X62090546Y-74389500D01*
X61909454Y-74389500D01*
X61909451Y-74389500D01*
X61730593Y-74417828D01*
X61558362Y-74473788D01*
X61397008Y-74556002D01*
X61323752Y-74609225D01*
X61250499Y-74662447D01*
X61122447Y-74790499D01*
X61069225Y-74863752D01*
X61016002Y-74937008D01*
X60933788Y-75098362D01*
X60877828Y-75270593D01*
X60849500Y-75449450D01*
X50600000Y-75449450D01*
X50600000Y-72105130D01*
X60849500Y-72105130D01*
X60849500Y-73894860D01*
X60849501Y-73894863D01*
X60852414Y-73919990D01*
X60877756Y-73977385D01*
X60897794Y-74022765D01*
X60977235Y-74102206D01*
X61080009Y-74147585D01*
X61105135Y-74150500D01*
X62894864Y-74150499D01*
X62919991Y-74147585D01*
X63022765Y-74102206D01*
X63102206Y-74022765D01*
X63147585Y-73919991D01*
X63150500Y-73894865D01*
X63150500Y-73894847D01*
X63150561Y-73893797D01*
X63150651Y-73893565D01*
X63150830Y-73892024D01*
X63151234Y-73892070D01*
X63172789Y-73836792D01*
X63224279Y-73803739D01*
X63249397Y-73800500D01*
X63672438Y-73800500D01*
X63730629Y-73819407D01*
X63742441Y-73829496D01*
X63788873Y-73875927D01*
X63790499Y-73877553D01*
X63937006Y-73983996D01*
X64098361Y-74066211D01*
X64270591Y-74122171D01*
X64342136Y-74133502D01*
X64449451Y-74150500D01*
X64449454Y-74150500D01*
X64630549Y-74150500D01*
X64719977Y-74136335D01*
X64809409Y-74122171D01*
X64981639Y-74066211D01*
X65142994Y-73983996D01*
X65289501Y-73877553D01*
X65313532Y-73853521D01*
X65337559Y-73829496D01*
X65392076Y-73801719D01*
X65407562Y-73800500D01*
X88222214Y-73800500D01*
X88280405Y-73819407D01*
X88292218Y-73829496D01*
X110766311Y-96303589D01*
X111965609Y-97502886D01*
X111965609Y-97502887D01*
X112077102Y-97614381D01*
X112077106Y-97614384D01*
X112077111Y-97614389D01*
X112155490Y-97666760D01*
X112208217Y-97701992D01*
X112208219Y-97701993D01*
X112208221Y-97701994D01*
X112311075Y-97744597D01*
X112353903Y-97762337D01*
X112508557Y-97793100D01*
X112508558Y-97793100D01*
X114173241Y-97793100D01*
X114173242Y-97793100D01*
X114327897Y-97762337D01*
X114473579Y-97701994D01*
X114604689Y-97614389D01*
X114716189Y-97502889D01*
X114803794Y-97371779D01*
X114864137Y-97226097D01*
X114894900Y-97071442D01*
X114894900Y-96913758D01*
X114864137Y-96759103D01*
X114852366Y-96730685D01*
X114847565Y-96669688D01*
X114879535Y-96617520D01*
X114936063Y-96594105D01*
X114943830Y-96593800D01*
X127564114Y-96593800D01*
X127622305Y-96612707D01*
X127634117Y-96622796D01*
X127925077Y-96913755D01*
X128116410Y-97105088D01*
X128247521Y-97192693D01*
X128393202Y-97253037D01*
X128547857Y-97283800D01*
X128547858Y-97283800D01*
X128705541Y-97283800D01*
X128705542Y-97283800D01*
X128860197Y-97253037D01*
X129005879Y-97192693D01*
X129136989Y-97105088D01*
X129248488Y-96993589D01*
X129336093Y-96862479D01*
X129396437Y-96716797D01*
X129427200Y-96562142D01*
X129427200Y-96404457D01*
X129396437Y-96249802D01*
X129336093Y-96104121D01*
X129248488Y-95973010D01*
X128446989Y-95171511D01*
X128368961Y-95119374D01*
X128315885Y-95083909D01*
X128315874Y-95083903D01*
X128170197Y-95023563D01*
X128045339Y-94998727D01*
X128015544Y-94992800D01*
X128015542Y-94992800D01*
X111760686Y-94992800D01*
X111702495Y-94973893D01*
X111690682Y-94963804D01*
X111632393Y-94905515D01*
X139899500Y-94905515D01*
X139899500Y-95094484D01*
X139929058Y-95281113D01*
X139987453Y-95460832D01*
X140067148Y-95617244D01*
X140073240Y-95629199D01*
X140184310Y-95782073D01*
X140317927Y-95915690D01*
X140470801Y-96026760D01*
X140639168Y-96112547D01*
X140818882Y-96170940D01*
X140818883Y-96170940D01*
X140818886Y-96170941D01*
X141005516Y-96200500D01*
X141005519Y-96200500D01*
X141194484Y-96200500D01*
X141381113Y-96170941D01*
X141381114Y-96170940D01*
X141381118Y-96170940D01*
X141560832Y-96112547D01*
X141729199Y-96026760D01*
X141882073Y-95915690D01*
X142015690Y-95782073D01*
X142126760Y-95629199D01*
X142212547Y-95460832D01*
X142270940Y-95281118D01*
X142277808Y-95237756D01*
X142300500Y-95094484D01*
X142300500Y-94905515D01*
X142270941Y-94718886D01*
X142255013Y-94669865D01*
X142212547Y-94539168D01*
X142126760Y-94370801D01*
X142015690Y-94217927D01*
X141882073Y-94084310D01*
X141729199Y-93973240D01*
X141729198Y-93973239D01*
X141729196Y-93973238D01*
X141560832Y-93887453D01*
X141381113Y-93829058D01*
X141194484Y-93799500D01*
X141194481Y-93799500D01*
X141005519Y-93799500D01*
X141005516Y-93799500D01*
X140818886Y-93829058D01*
X140639167Y-93887453D01*
X140470803Y-93973238D01*
X140317928Y-94084309D01*
X140184309Y-94217928D01*
X140073238Y-94370803D01*
X139987453Y-94539167D01*
X139929058Y-94718886D01*
X139899500Y-94905515D01*
X111632393Y-94905515D01*
X108632432Y-91905554D01*
X139900000Y-91905554D01*
X139900000Y-92094445D01*
X139929546Y-92280996D01*
X139987914Y-92460635D01*
X140073667Y-92628935D01*
X140151626Y-92736239D01*
X140638026Y-92249838D01*
X140679896Y-92322357D01*
X140777643Y-92420104D01*
X140850159Y-92461971D01*
X140363759Y-92948372D01*
X140471059Y-93026330D01*
X140471063Y-93026332D01*
X140639364Y-93112085D01*
X140819003Y-93170453D01*
X141005555Y-93200000D01*
X141194445Y-93200000D01*
X141380996Y-93170453D01*
X141560635Y-93112085D01*
X141728934Y-93026333D01*
X141836238Y-92948371D01*
X141349839Y-92461972D01*
X141422357Y-92420104D01*
X141520104Y-92322357D01*
X141561972Y-92249839D01*
X142048371Y-92736238D01*
X142126333Y-92628934D01*
X142212085Y-92460635D01*
X142270453Y-92280996D01*
X142300000Y-92094445D01*
X142300000Y-91905556D01*
X142298726Y-91897513D01*
X142298726Y-91897512D01*
X142296786Y-91885265D01*
X143649500Y-91885265D01*
X143649500Y-92114734D01*
X143679452Y-92342238D01*
X143738841Y-92563885D01*
X143826653Y-92775883D01*
X143935619Y-92964619D01*
X143941389Y-92974612D01*
X144081081Y-93156661D01*
X144243339Y-93318919D01*
X144425388Y-93458611D01*
X144624112Y-93573344D01*
X144624113Y-93573344D01*
X144624116Y-93573346D01*
X144685259Y-93598672D01*
X144836113Y-93661158D01*
X145057762Y-93720548D01*
X145285266Y-93750500D01*
X145285267Y-93750500D01*
X145514733Y-93750500D01*
X145514734Y-93750500D01*
X145742238Y-93720548D01*
X145963887Y-93661158D01*
X146175888Y-93573344D01*
X146374612Y-93458611D01*
X146556661Y-93318919D01*
X146718919Y-93156661D01*
X146858611Y-92974612D01*
X146973344Y-92775888D01*
X147061158Y-92563887D01*
X147120548Y-92342238D01*
X147150500Y-92114734D01*
X147150500Y-91885266D01*
X147120548Y-91657762D01*
X147061158Y-91436113D01*
X146989767Y-91263760D01*
X146973346Y-91224116D01*
X146858611Y-91025388D01*
X146818924Y-90973667D01*
X146718919Y-90843339D01*
X146556661Y-90681081D01*
X146374612Y-90541389D01*
X146374613Y-90541389D01*
X146374611Y-90541388D01*
X146175883Y-90426653D01*
X145963885Y-90338841D01*
X145742238Y-90279452D01*
X145514734Y-90249500D01*
X145285266Y-90249500D01*
X145285265Y-90249500D01*
X145057761Y-90279452D01*
X144836114Y-90338841D01*
X144624116Y-90426653D01*
X144425388Y-90541388D01*
X144243342Y-90681078D01*
X144081078Y-90843342D01*
X143941388Y-91025388D01*
X143826653Y-91224116D01*
X143738841Y-91436114D01*
X143679452Y-91657761D01*
X143649500Y-91885265D01*
X142296786Y-91885265D01*
X142270453Y-91719003D01*
X142212085Y-91539364D01*
X142126332Y-91371063D01*
X142126330Y-91371059D01*
X142048372Y-91263759D01*
X141561971Y-91750159D01*
X141520104Y-91677643D01*
X141422357Y-91579896D01*
X141349838Y-91538026D01*
X141836239Y-91051626D01*
X141728935Y-90973667D01*
X141560635Y-90887914D01*
X141380996Y-90829546D01*
X141194445Y-90800000D01*
X141005555Y-90800000D01*
X140819003Y-90829546D01*
X140639364Y-90887914D01*
X140471069Y-90973664D01*
X140363760Y-91051627D01*
X140850160Y-91538027D01*
X140777643Y-91579896D01*
X140679896Y-91677643D01*
X140638027Y-91750160D01*
X140151627Y-91263760D01*
X140073664Y-91371069D01*
X139987914Y-91539364D01*
X139929546Y-91719003D01*
X139900000Y-91905554D01*
X108632432Y-91905554D01*
X104782008Y-88055130D01*
X139899500Y-88055130D01*
X139899500Y-89944860D01*
X139899501Y-89944863D01*
X139902414Y-89969990D01*
X139923997Y-90018869D01*
X139947794Y-90072765D01*
X140027235Y-90152206D01*
X140130009Y-90197585D01*
X140155135Y-90200500D01*
X142044864Y-90200499D01*
X142069991Y-90197585D01*
X142172765Y-90152206D01*
X142252206Y-90072765D01*
X142297585Y-89969991D01*
X142300500Y-89944865D01*
X142300499Y-88055136D01*
X142297585Y-88030009D01*
X142252206Y-87927235D01*
X142172765Y-87847794D01*
X142069991Y-87802415D01*
X142069990Y-87802414D01*
X142069988Y-87802414D01*
X142044868Y-87799500D01*
X140155139Y-87799500D01*
X140155136Y-87799501D01*
X140130009Y-87802414D01*
X140027235Y-87847794D01*
X139947794Y-87927235D01*
X139902414Y-88030011D01*
X139899500Y-88055130D01*
X104782008Y-88055130D01*
X89105092Y-72378214D01*
X89105089Y-72378211D01*
X89052859Y-72343312D01*
X88973985Y-72290609D01*
X88973974Y-72290603D01*
X88828297Y-72230263D01*
X88673644Y-72199500D01*
X88673642Y-72199500D01*
X65407562Y-72199500D01*
X65349371Y-72180593D01*
X65337559Y-72170504D01*
X65289506Y-72122452D01*
X65289505Y-72122451D01*
X65289501Y-72122447D01*
X65142994Y-72016004D01*
X65142993Y-72016003D01*
X65142991Y-72016002D01*
X64981637Y-71933788D01*
X64809406Y-71877828D01*
X64630549Y-71849500D01*
X64630546Y-71849500D01*
X64449454Y-71849500D01*
X64449451Y-71849500D01*
X64270593Y-71877828D01*
X64098362Y-71933788D01*
X63937008Y-72016002D01*
X63849358Y-72079683D01*
X63790499Y-72122447D01*
X63790497Y-72122448D01*
X63790494Y-72122451D01*
X63742441Y-72170504D01*
X63687924Y-72198281D01*
X63672438Y-72199500D01*
X63249396Y-72199500D01*
X63191205Y-72180593D01*
X63155241Y-72131093D01*
X63150891Y-72107967D01*
X63150828Y-72107975D01*
X63150723Y-72107074D01*
X63150561Y-72106210D01*
X63150499Y-72105138D01*
X63147585Y-72080009D01*
X63119323Y-72016002D01*
X63102206Y-71977235D01*
X63022765Y-71897794D01*
X62919991Y-71852415D01*
X62919990Y-71852414D01*
X62919988Y-71852414D01*
X62894868Y-71849500D01*
X61105139Y-71849500D01*
X61105136Y-71849501D01*
X61080009Y-71852414D01*
X60977235Y-71897794D01*
X60897794Y-71977235D01*
X60852414Y-72080011D01*
X60849500Y-72105130D01*
X50600000Y-72105130D01*
X50600000Y-56874656D01*
X50618907Y-56816465D01*
X50668407Y-56780501D01*
X50729593Y-56780501D01*
X50779093Y-56816465D01*
X50786310Y-56827988D01*
X51175232Y-57555611D01*
X51175238Y-57555620D01*
X51175240Y-57555623D01*
X51227836Y-57619711D01*
X51747304Y-58252686D01*
X51747313Y-58252695D01*
X52072414Y-58519498D01*
X52444377Y-58824760D01*
X52444381Y-58824762D01*
X52444388Y-58824767D01*
X53239650Y-59249843D01*
X53239656Y-59249846D01*
X53840818Y-59432206D01*
X54102584Y-59511612D01*
X54102589Y-59511613D01*
X54999997Y-59600000D01*
X55000000Y-59600000D01*
X55000003Y-59600000D01*
X55897410Y-59511613D01*
X55897415Y-59511612D01*
X56760344Y-59249846D01*
X57205717Y-59011789D01*
X57555611Y-58824767D01*
X57555614Y-58824764D01*
X57555623Y-58824760D01*
X58252691Y-58252691D01*
X58824760Y-57555623D01*
X58824764Y-57555614D01*
X58824767Y-57555611D01*
X59213689Y-56827988D01*
X59249846Y-56760344D01*
X59511612Y-55897415D01*
X59511613Y-55897410D01*
X59600000Y-55000003D01*
X59600000Y-54999996D01*
X59511613Y-54102589D01*
X59511612Y-54102584D01*
X59432206Y-53840818D01*
X59249846Y-53239656D01*
X59236356Y-53214418D01*
X58824767Y-52444388D01*
X58824762Y-52444381D01*
X58824760Y-52444377D01*
X58519498Y-52072414D01*
X58252695Y-51747313D01*
X58252686Y-51747304D01*
X57846309Y-51413800D01*
X57555623Y-51175240D01*
X57555620Y-51175238D01*
X57555611Y-51175232D01*
X56827988Y-50786310D01*
X56785581Y-50742205D01*
X56777198Y-50681596D01*
X56806040Y-50627635D01*
X56861092Y-50600934D01*
X56874656Y-50600000D01*
X97901000Y-50600000D01*
X97959191Y-50618907D01*
G37*
%TD.AperFunction*%
%TD*%
%TA.AperFunction,Conductor*%
%TO.N,/GND_CAN*%
G36*
X113067314Y-66007534D02*
G01*
X113073580Y-66010130D01*
X113276535Y-66050500D01*
X113276536Y-66050500D01*
X113483464Y-66050500D01*
X113483465Y-66050500D01*
X113686420Y-66010130D01*
X113692685Y-66007534D01*
X113730568Y-66000000D01*
X115569432Y-66000000D01*
X115607314Y-66007534D01*
X115613580Y-66010130D01*
X115816535Y-66050500D01*
X115816536Y-66050500D01*
X115901000Y-66050500D01*
X115959191Y-66069407D01*
X115995155Y-66118907D01*
X116000000Y-66149500D01*
X116000000Y-67015500D01*
X115981093Y-67073691D01*
X115931593Y-67109655D01*
X115901000Y-67114500D01*
X115676955Y-67114500D01*
X115618764Y-67095593D01*
X115585491Y-67053387D01*
X115580941Y-67042402D01*
X115465977Y-66870345D01*
X115319655Y-66724023D01*
X115147598Y-66609059D01*
X115147599Y-66609059D01*
X115147597Y-66609058D01*
X114956418Y-66529869D01*
X114753467Y-66489500D01*
X114753465Y-66489500D01*
X114546535Y-66489500D01*
X114546532Y-66489500D01*
X114343581Y-66529869D01*
X114152402Y-66609058D01*
X113980348Y-66724020D01*
X113834020Y-66870348D01*
X113719058Y-67042402D01*
X113639869Y-67233581D01*
X113599500Y-67436532D01*
X113599500Y-67643467D01*
X113639869Y-67846418D01*
X113719058Y-68037597D01*
X113719059Y-68037598D01*
X113834023Y-68209655D01*
X113980345Y-68355977D01*
X114152402Y-68470941D01*
X114343580Y-68550130D01*
X114546535Y-68590500D01*
X114546536Y-68590500D01*
X114753464Y-68590500D01*
X114753465Y-68590500D01*
X114956420Y-68550130D01*
X115147598Y-68470941D01*
X115319655Y-68355977D01*
X115465977Y-68209655D01*
X115580941Y-68037598D01*
X115585491Y-68026612D01*
X115625229Y-67980088D01*
X115676955Y-67965500D01*
X115863982Y-67965500D01*
X115901000Y-67965500D01*
X115959191Y-67984407D01*
X115995155Y-68033907D01*
X116000000Y-68064500D01*
X116000000Y-78901000D01*
X115981093Y-78959191D01*
X115931593Y-78995155D01*
X115901000Y-79000000D01*
X113638255Y-79000000D01*
X113580064Y-78981093D01*
X113568251Y-78971004D01*
X108242796Y-73645548D01*
X108215019Y-73591031D01*
X108213800Y-73575544D01*
X108213800Y-73503732D01*
X108213800Y-73503731D01*
X108188801Y-73378056D01*
X108139765Y-73259673D01*
X108139763Y-73259670D01*
X108139761Y-73259666D01*
X108111017Y-73216648D01*
X108068576Y-73153131D01*
X107977969Y-73062524D01*
X107935526Y-73034165D01*
X107871433Y-72991338D01*
X107871425Y-72991334D01*
X107753047Y-72942300D01*
X107753045Y-72942299D01*
X107753044Y-72942299D01*
X107627369Y-72917300D01*
X107499231Y-72917300D01*
X107499230Y-72917300D01*
X107436393Y-72929799D01*
X107373556Y-72942299D01*
X107373555Y-72942299D01*
X107373552Y-72942300D01*
X107255174Y-72991334D01*
X107255166Y-72991338D01*
X107148631Y-73062524D01*
X107148627Y-73062527D01*
X107058027Y-73153127D01*
X107058024Y-73153131D01*
X106986838Y-73259666D01*
X106986834Y-73259674D01*
X106937800Y-73378052D01*
X106937799Y-73378057D01*
X106912800Y-73503730D01*
X106912800Y-73631869D01*
X106937799Y-73757542D01*
X106937800Y-73757547D01*
X106986834Y-73875925D01*
X106986838Y-73875933D01*
X107029665Y-73940026D01*
X107058024Y-73982469D01*
X107148631Y-74073076D01*
X107212148Y-74115517D01*
X107255166Y-74144261D01*
X107255170Y-74144263D01*
X107255173Y-74144265D01*
X107373556Y-74193301D01*
X107499231Y-74218300D01*
X107571044Y-74218300D01*
X107629235Y-74237207D01*
X107641048Y-74247296D01*
X112224749Y-78830996D01*
X112252526Y-78885513D01*
X112242955Y-78945945D01*
X112199690Y-78989210D01*
X112154745Y-79000000D01*
X104099000Y-79000000D01*
X104040809Y-78981093D01*
X104004845Y-78931593D01*
X104000000Y-78901000D01*
X104000000Y-66099000D01*
X104018907Y-66040809D01*
X104068407Y-66004845D01*
X104099000Y-66000000D01*
X113029432Y-66000000D01*
X113067314Y-66007534D01*
G37*
%TD.AperFunction*%
%TD*%
M02*
