M48
; DRILL file KiCad 10.0.6 date 2026-10-07T06:58:35
; FORMAT={-:-/ absolute / metric / decimal}
; #@! TF.CreationDate,2026-10-07T06:58:35+08:00
; #@! TF.GenerationSoftware,Kicad,Pcbnew,10.0.6
; #@! TF.FileFunction,Plated,1,2,PTH
FMAT,2
METRIC
; #@! TA.AperFunction,Plated,PTH,ViaDrill
T1C0.350
; #@! TA.AperFunction,Plated,PTH,ComponentDrill
T2C0.760
; #@! TA.AperFunction,Plated,PTH,ComponentDrill
T3C1.000
; #@! TA.AperFunction,Plated,PTH,ComponentDrill
T4C1.050
; #@! TA.AperFunction,Plated,PTH,ComponentDrill
T5C1.100
%
G90
G05
T1
X72.602Y-103.496
X74.542Y-93.94
X75.5Y-96.659
X78.821Y-95.427
X79.31Y-98.9
X82.814Y-97.757
X83.908Y-90.043
X84.116Y-101.536
X85.276Y-101.552
X85.63Y-98.141
X86.405Y-93.899
X86.937Y-96.658
X89.364Y-76.322
X90.631Y-93.184
X93.95Y-113.945
X96.545Y-99.526
X107.563Y-73.568
X111.388Y-95.793
X114.094Y-96.993
X124.187Y-100.46
X127.057Y-108.176
X128.627Y-96.483
T2
X112.11Y-67.54
X113.38Y-65.0
X114.65Y-67.54
X115.92Y-65.0
X117.19Y-67.54
X118.46Y-65.0
X119.73Y-67.54
X121.0Y-65.0
T3
X62.0Y-73.0
X62.0Y-75.54
X62.0Y-78.08
X62.0Y-80.62
X62.0Y-83.16
X64.54Y-73.0
X64.54Y-75.54
X64.54Y-78.08
X64.54Y-80.62
X64.54Y-83.16
X118.0Y-77.0
X118.0Y-79.54
T4
X141.1Y-89.0
X141.1Y-92.0
X141.1Y-95.0
X141.1Y-111.0
X141.1Y-114.0
X141.1Y-117.0
T5
X62.0Y-110.0
X62.0Y-114.5
X68.5Y-110.0
X68.5Y-114.5
M30
