M48
; DRILL file KiCad 10.0.5 date 2026-10-09T23:30:42
; FORMAT={-:-/ absolute / metric / decimal}
; #@! TF.CreationDate,2026-10-09T23:30:42-05:00
; #@! TF.GenerationSoftware,Kicad,Pcbnew,10.0.5
; #@! TF.FileFunction,Plated,1,2,PTH
FMAT,2
METRIC
; #@! TA.AperFunction,Plated,PTH,ViaDrill
T1C0.300
; #@! TA.AperFunction,Plated,PTH,ComponentDrill
T2C0.760
; #@! TA.AperFunction,Plated,PTH,ComponentDrill
T3C1.000
; #@! TA.AperFunction,Plated,PTH,ComponentDrill
T4C1.020
%
G90
G05
T1
X57.0Y-74.5
X57.0Y-86.0
X58.0Y-68.5
X58.0Y-73.5
X61.5Y-59.5
X62.0Y-64.5
X63.0Y-59.5
X65.5Y-62.0
X66.0Y-69.5
X66.0Y-73.0
X66.0Y-77.5
X66.0Y-80.0
X67.5Y-62.901
X70.5Y-67.0
X70.5Y-69.0
X72.0Y-65.5
X73.0Y-73.5
X73.5Y-67.0
X73.5Y-72.0
X74.0Y-73.5
X74.5Y-65.5
X77.5Y-78.5
X78.0Y-75.5
X78.0Y-80.5
X78.5Y-70.5
X80.0Y-77.5
X80.5Y-66.0
X80.5Y-69.188
X80.5Y-76.5
X81.0Y-61.5
X81.0Y-80.5
X81.5Y-71.5
X83.0Y-63.5
X84.5Y-50.0
X85.0Y-70.0
X85.27Y-78.77
X87.5Y-68.5
X89.0Y-73.5
X89.0Y-77.5
X89.0Y-81.0
X89.5Y-68.5
X90.0Y-63.5
X90.498Y-67.9
X90.5Y-76.0
X91.5Y-64.0
X94.0Y-80.0
X95.0Y-65.0
X97.0Y-77.5
T2
X69.34Y-63.89
X70.61Y-61.35
X71.88Y-63.89
X73.15Y-61.35
X74.42Y-63.89
X75.69Y-61.35
X76.96Y-63.89
X78.23Y-61.35
T3
X93.46Y-60.96
X93.46Y-63.5
X93.46Y-66.04
X93.46Y-68.58
X93.46Y-71.12
X96.0Y-60.96
X96.0Y-63.5
X96.0Y-66.04
X96.0Y-68.58
X96.0Y-71.12
T4
X67.5Y-85.7
X70.5Y-85.7
X73.5Y-85.7
X82.5Y-85.7
X85.5Y-85.7
X88.5Y-85.7
M30
